<?xml version="1.0" encoding="UTF-8" standalone="no"?><svg xmlns="http://www.w3.org/2000/svg" xmlns:xlink="http://www.w3.org/1999/xlink" contentStyleType="text/css" height="669px" preserveAspectRatio="none" style="width:556px;height:669px;background:#FFFFFF;" version="1.1" viewBox="0 0 556 669" width="556px" zoomAndPan="magnify"><defs/><g><rect fill="#FFFFFF" height="470.0313" style="stroke:#181818;stroke-width:1.0;" width="10" x="102.5" y="100.1563"/><rect fill="#FFFFFF" height="39.1563" style="stroke:#181818;stroke-width:1.0;" width="10" x="491.5" y="131.3125"/><rect fill="#FFFFFF" height="39.1563" style="stroke:#181818;stroke-width:1.0;" width="10" x="491.5" y="253.9375"/><rect fill="#FFFFFF" height="39.1563" style="stroke:#181818;stroke-width:1.0;" width="10" x="491.5" y="332.25"/><rect fill="#FFFFFF" height="39.1563" style="stroke:#181818;stroke-width:1.0;" width="10" x="491.5" y="437.7188"/><rect fill="#FFFFFF" height="39.1563" style="stroke:#181818;stroke-width:1.0;" width="10" x="491.5" y="516.0313"/><rect fill="none" height="377.7188" style="stroke:#000000;stroke-width:1.5;" width="539.5" x="10" y="185.4688"/><line style="stroke:#181818;stroke-width:0.5;stroke-dasharray:5.0,5.0;" x1="107" x2="107" y1="90.1563" y2="580.1875"/><line style="stroke:#181818;stroke-width:0.5;stroke-dasharray:5.0,5.0;" x1="496.5" x2="496.5" y1="90.1563" y2="580.1875"/><text fill="#000000" font-family="sans-serif" font-size="20" lengthAdjust="spacing" textLength="169" x="20" y="85.7617">Customer Manager</text><ellipse cx="107.5" cy="13.5" fill="#E2E2F0" rx="8" ry="8" style="stroke:#181818;stroke-width:0.5;"/><path d="M107.5,21.5 L107.5,48.5 M94.5,29.5 L120.5,29.5 M107.5,48.5 L94.5,63.5 M107.5,48.5 L120.5,63.5 " fill="none" style="stroke:#181818;stroke-width:0.5;"/><text fill="#000000" font-family="sans-serif" font-size="20" lengthAdjust="spacing" textLength="169" x="20" y="599.9492">Customer Manager</text><ellipse cx="107.5" cy="612.8438" fill="#E2E2F0" rx="8" ry="8" style="stroke:#181818;stroke-width:0.5;"/><path d="M107.5,620.8438 L107.5,647.8438 M94.5,628.8438 L120.5,628.8438 M107.5,647.8438 L94.5,662.8438 M107.5,647.8438 L120.5,662.8438 " fill="none" style="stroke:#181818;stroke-width:0.5;"/><rect fill="#E2E2F0" height="39.1563" rx="2.5" ry="2.5" style="stroke:#181818;stroke-width:0.5;" width="86" x="453.5" y="50"/><text fill="#000000" font-family="sans-serif" font-size="20" lengthAdjust="spacing" textLength="72" x="460.5" y="77.7617">:System</text><rect fill="#E2E2F0" height="39.1563" rx="2.5" ry="2.5" style="stroke:#181818;stroke-width:0.5;" width="86" x="453.5" y="579.1875"/><text fill="#000000" font-family="sans-serif" font-size="20" lengthAdjust="spacing" textLength="72" x="460.5" y="606.9492">:System</text><rect fill="#FFFFFF" height="470.0313" style="stroke:#181818;stroke-width:1.0;" width="10" x="102.5" y="100.1563"/><rect fill="#FFFFFF" height="39.1563" style="stroke:#181818;stroke-width:1.0;" width="10" x="491.5" y="131.3125"/><rect fill="#FFFFFF" height="39.1563" style="stroke:#181818;stroke-width:1.0;" width="10" x="491.5" y="253.9375"/><rect fill="#FFFFFF" height="39.1563" style="stroke:#181818;stroke-width:1.0;" width="10" x="491.5" y="332.25"/><rect fill="#FFFFFF" height="39.1563" style="stroke:#181818;stroke-width:1.0;" width="10" x="491.5" y="437.7188"/><rect fill="#FFFFFF" height="39.1563" style="stroke:#181818;stroke-width:1.0;" width="10" x="491.5" y="516.0313"/><polygon fill="#181818" points="479.5,127.3125,489.5,131.3125,479.5,135.3125,483.5,131.3125" style="stroke:#181818;stroke-width:1.0;"/><line style="stroke:#181818;stroke-width:1.0;" x1="112.5" x2="485.5" y1="131.3125" y2="131.3125"/><text fill="#000000" font-family="sans-serif" font-size="20" font-weight="bold" lengthAdjust="spacing" textLength="11" x="119.5" y="124.918">1</text><text fill="#000000" font-family="sans-serif" font-size="20" lengthAdjust="spacing" textLength="245" x="134.5" y="124.918">requests list of job openings</text><polygon fill="#181818" points="123.5,166.4688,113.5,170.4688,123.5,174.4688,119.5,170.4688" style="stroke:#181818;stroke-width:1.0;"/><line style="stroke:#181818;stroke-width:1.0;stroke-dasharray:2.0,2.0;" x1="117.5" x2="495.5" y1="170.4688" y2="170.4688"/><text fill="#000000" font-family="sans-serif" font-size="20" font-weight="bold" lengthAdjust="spacing" textLength="11" x="129.5" y="164.0742">2</text><text fill="#000000" font-family="sans-serif" font-size="20" lengthAdjust="spacing" textLength="340" x="144.5" y="164.0742">asks to select one of the listing options</text><path d="M10,185.4688 L78,185.4688 L78,202.625 L68,212.625 L10,212.625 L10,185.4688 " fill="#EEEEEE" style="stroke:#000000;stroke-width:1.5;"/><rect fill="none" height="377.7188" style="stroke:#000000;stroke-width:1.5;" width="539.5" x="10" y="185.4688"/><text fill="#000000" font-family="sans-serif" font-size="20" font-weight="bold" lengthAdjust="spacing" textLength="23" x="25" y="207.2305">alt</text><text fill="#000000" font-family="sans-serif" font-size="20" font-weight="bold" lengthAdjust="spacing" textLength="122" x="93" y="208.2305">[With Filters]</text><polygon fill="#181818" points="479.5,249.9375,489.5,253.9375,479.5,257.9375,483.5,253.9375" style="stroke:#181818;stroke-width:1.0;"/><line style="stroke:#181818;stroke-width:1.0;" x1="112.5" x2="485.5" y1="253.9375" y2="253.9375"/><text fill="#000000" font-family="sans-serif" font-size="20" font-weight="bold" lengthAdjust="spacing" textLength="11" x="119.5" y="247.543">3</text><text fill="#000000" font-family="sans-serif" font-size="20" lengthAdjust="spacing" textLength="342" x="134.5" y="247.543">selects filters (customer, date or state)</text><polygon fill="#181818" points="123.5,289.0938,113.5,293.0938,123.5,297.0938,119.5,293.0938" style="stroke:#181818;stroke-width:1.0;"/><line style="stroke:#181818;stroke-width:1.0;stroke-dasharray:2.0,2.0;" x1="117.5" x2="495.5" y1="293.0938" y2="293.0938"/><text fill="#000000" font-family="sans-serif" font-size="20" font-weight="bold" lengthAdjust="spacing" textLength="11" x="129.5" y="286.6992">4</text><text fill="#000000" font-family="sans-serif" font-size="20" lengthAdjust="spacing" textLength="182" x="144.5" y="286.6992">displays filtered data</text><polygon fill="#181818" points="479.5,328.25,489.5,332.25,479.5,336.25,483.5,332.25" style="stroke:#181818;stroke-width:1.0;"/><line style="stroke:#181818;stroke-width:1.0;" x1="112.5" x2="485.5" y1="332.25" y2="332.25"/><text fill="#000000" font-family="sans-serif" font-size="20" font-weight="bold" lengthAdjust="spacing" textLength="11" x="119.5" y="325.8555">5</text><text fill="#000000" font-family="sans-serif" font-size="20" lengthAdjust="spacing" textLength="190" x="134.5" y="325.8555">confirms the selection</text><polygon fill="#181818" points="123.5,367.4063,113.5,371.4063,123.5,375.4063,119.5,371.4063" style="stroke:#181818;stroke-width:1.0;"/><line style="stroke:#181818;stroke-width:1.0;stroke-dasharray:2.0,2.0;" x1="117.5" x2="495.5" y1="371.4063" y2="371.4063"/><text fill="#000000" font-family="sans-serif" font-size="20" font-weight="bold" lengthAdjust="spacing" textLength="11" x="129.5" y="365.0117">6</text><text fill="#000000" font-family="sans-serif" font-size="20" lengthAdjust="spacing" textLength="229" x="144.5" y="365.0117">informs operation success</text><line style="stroke:#000000;stroke-width:1.0;stroke-dasharray:2.0,2.0;" x1="10" x2="549.5" y1="380.4063" y2="380.4063"/><text fill="#000000" font-family="sans-serif" font-size="20" font-weight="bold" lengthAdjust="spacing" textLength="105" x="15" y="401.168">[No Filters]</text><polygon fill="#181818" points="479.5,433.7188,489.5,437.7188,479.5,441.7188,483.5,437.7188" style="stroke:#181818;stroke-width:1.0;"/><line style="stroke:#181818;stroke-width:1.0;" x1="112.5" x2="485.5" y1="437.7188" y2="437.7188"/><text fill="#000000" font-family="sans-serif" font-size="20" font-weight="bold" lengthAdjust="spacing" textLength="11" x="119.5" y="431.3242">7</text><text fill="#000000" font-family="sans-serif" font-size="20" lengthAdjust="spacing" textLength="225" x="134.5" y="431.3242">does not select any filters</text><polygon fill="#181818" points="123.5,472.875,113.5,476.875,123.5,480.875,119.5,476.875" style="stroke:#181818;stroke-width:1.0;"/><line style="stroke:#181818;stroke-width:1.0;stroke-dasharray:2.0,2.0;" x1="117.5" x2="495.5" y1="476.875" y2="476.875"/><text fill="#000000" font-family="sans-serif" font-size="20" font-weight="bold" lengthAdjust="spacing" textLength="11" x="129.5" y="470.4805">8</text><text fill="#000000" font-family="sans-serif" font-size="20" lengthAdjust="spacing" textLength="141" x="144.5" y="470.4805">displays all data</text><polygon fill="#181818" points="479.5,512.0313,489.5,516.0313,479.5,520.0313,483.5,516.0313" style="stroke:#181818;stroke-width:1.0;"/><line style="stroke:#181818;stroke-width:1.0;" x1="112.5" x2="485.5" y1="516.0313" y2="516.0313"/><text fill="#000000" font-family="sans-serif" font-size="20" font-weight="bold" lengthAdjust="spacing" textLength="11" x="119.5" y="509.6367">9</text><text fill="#000000" font-family="sans-serif" font-size="20" lengthAdjust="spacing" textLength="190" x="134.5" y="509.6367">confirms the selection</text><polygon fill="#181818" points="123.5,551.1875,113.5,555.1875,123.5,559.1875,119.5,555.1875" style="stroke:#181818;stroke-width:1.0;"/><line style="stroke:#181818;stroke-width:1.0;stroke-dasharray:2.0,2.0;" x1="117.5" x2="495.5" y1="555.1875" y2="555.1875"/><text fill="#000000" font-family="sans-serif" font-size="20" font-weight="bold" lengthAdjust="spacing" textLength="22" x="129.5" y="548.793">10</text><text fill="#000000" font-family="sans-serif" font-size="20" lengthAdjust="spacing" textLength="229" x="155.5" y="548.793">informs operation success</text><!--SRC=[rPEnJWCn38RtF8Lr4qXKGemTM2frAqi7PZVnjQ4vkyG-fFBq-AwK8d48mKOcAx4___wJw3xp0IjsHUAU4YHgiI-s5BPrVYMukmq1UnFkkmrLZwD9XSKAKA5Pz6hIKOKLCcwfDkDvVa4ZJmd1qsRtqCpNHpNg6fX3fUUUr1HALWDfuKas80VYp5kz57-KX72fdZdBYNDllLSm0QL2qIbC0ybsD5ATv4JBmXeIJI6n63ncsy4o5wEg0NnzrNh2AxIdBBYAx-FUG1g8xeEQ1zTZ_LIZONz2VyfwA7WyamVNqN3CdXOyhIyAjxbsEav-4kj3_rPCvbO6Y5z2nG40siT8gj_heQ843_A3VKb8WSNEruHyF5lvPyEmbF_c5QVm-HdwjtW3]--></g></svg>