<?xml version="1.0" encoding="UTF-8" standalone="no"?><svg xmlns="http://www.w3.org/2000/svg" xmlns:xlink="http://www.w3.org/1999/xlink" contentStyleType="text/css" height="1832px" preserveAspectRatio="none" style="width:3465px;height:1832px;background:#FFFFFF;" version="1.1" viewBox="0 0 3465 1832" width="3465px" zoomAndPan="magnify"><defs/><g><!--class ListJobOpeningsUI--><g id="elem_ListJobOpeningsUI"><rect codeLine="2" fill="#F1F1F1" height="403.3438" id="ListJobOpeningsUI" rx="2.5" ry="2.5" style="stroke:#181818;stroke-width:0.5;" width="366" x="2147" y="7"/><ellipse cx="2243" cy="24.5781" fill="#ADD1B2" rx="12" ry="12" style="stroke:#181818;stroke-width:1.0;"/><path d="M2245.1406,19.5 Q2245.3281,19.25 2245.5469,19.125 Q2245.7656,18.9844 2246.0156,18.9844 Q2246.4531,18.9844 2246.7344,19.2969 Q2247.0156,19.5938 2247.0156,20.3125 L2247.0156,22.0156 Q2247.0156,22.7344 2246.7344,23.0469 Q2246.4531,23.3594 2246.0156,23.3594 Q2245.625,23.3594 2245.375,23.125 Q2245.125,22.9063 2245.0156,22.2969 Q2244.9531,21.875 2244.7344,21.6563 Q2244.3438,21.2188 2243.625,20.9531 Q2242.9063,20.6875 2242.1875,20.6875 Q2241.2813,20.6875 2240.5313,21.0781 Q2239.7813,21.4688 2239.2031,22.3594 Q2238.625,23.2344 2238.625,24.4375 L2238.625,25.7344 Q2238.625,27.1875 2239.6719,28.1563 Q2240.7344,29.125 2242.5938,29.125 Q2243.7031,29.125 2244.4844,28.8125 Q2244.9219,28.6406 2245.4375,28.125 Q2245.75,27.8125 2245.9219,27.7188 Q2246.0938,27.625 2246.3281,27.625 Q2246.7188,27.625 2247.0156,27.9375 Q2247.3281,28.2344 2247.3281,28.6406 Q2247.3281,29.0469 2246.9219,29.5156 Q2246.3281,30.2031 2245.3906,30.5938 Q2244.125,31.125 2242.6094,31.125 Q2240.8281,31.125 2239.4063,30.3906 Q2238.25,29.7969 2237.4375,28.5313 Q2236.625,27.2656 2236.625,25.7813 L2236.625,24.4219 Q2236.625,22.8594 2237.3438,21.5156 Q2238.0781,20.1563 2239.3594,19.4219 Q2240.6563,18.6875 2242.1094,18.6875 Q2242.9688,18.6875 2243.7188,18.8906 Q2244.4844,19.0938 2245.1406,19.5 Z " fill="#000000"/><text fill="#000000" font-family="sans-serif" font-size="20" lengthAdjust="spacing" textLength="165" x="2265" y="32.7617">ListJobOpeningsUI</text><line style="stroke:#181818;stroke-width:0.5;" x1="2148" x2="2512" y1="42.1563" y2="42.1563"/><rect fill="none" height="6" style="stroke:#C82930;stroke-width:1.0;" width="6" x="2155" y="57.2344"/><text fill="#000000" font-family="sans-serif" font-size="20" lengthAdjust="spacing" textLength="339" x="2168" y="66.918">ListJobOpeningController theController</text><rect fill="none" height="6" style="stroke:#C82930;stroke-width:1.0;" width="6" x="2155" y="82.3906"/><text fill="#000000" font-family="sans-serif" font-size="20" lengthAdjust="spacing" textLength="147" x="2168" y="92.0742">Scanner scanner</text><rect fill="none" height="6" style="stroke:#C82930;stroke-width:1.0;" width="6" x="2155" y="107.5469"/><text fill="#000000" font-family="sans-serif" font-size="20" lengthAdjust="spacing" textLength="292" x="2168" y="117.2305">String ACTIVE_JOB_OPENINGS</text><rect fill="none" height="6" style="stroke:#C82930;stroke-width:1.0;" width="6" x="2155" y="132.7031"/><text fill="#000000" font-family="sans-serif" font-size="20" lengthAdjust="spacing" textLength="256" x="2168" y="142.3867">String ALL_JOB_OPENINGS</text><rect fill="none" height="6" style="stroke:#C82930;stroke-width:1.0;" width="6" x="2155" y="157.8594"/><text fill="#000000" font-family="sans-serif" font-size="20" lengthAdjust="spacing" textLength="333" x="2168" y="167.543">String CUSTOMER_JOB_OPENINGS</text><rect fill="none" height="6" style="stroke:#C82930;stroke-width:1.0;" width="6" x="2155" y="183.0156"/><text fill="#000000" font-family="sans-serif" font-size="20" lengthAdjust="spacing" textLength="273" x="2168" y="192.6992">String DATE_JOB_OPENINGS</text><line style="stroke:#181818;stroke-width:0.5;" x1="2148" x2="2512" y1="201.0938" y2="201.0938"/><ellipse cx="2158" cy="219.1719" fill="#84BE84" rx="3" ry="3" style="stroke:#038048;stroke-width:1.0;"/><text fill="#000000" font-family="sans-serif" font-size="20" lengthAdjust="spacing" textLength="149" x="2168" y="225.8555">headline(): String</text><ellipse cx="2158" cy="244.3281" fill="#84BE84" rx="3" ry="3" style="stroke:#038048;stroke-width:1.0;"/><text fill="#000000" font-family="sans-serif" font-size="20" lengthAdjust="spacing" textLength="212" x="2168" y="251.0117">emptyMessage(): String</text><ellipse cx="2158" cy="269.4844" fill="#84BE84" rx="3" ry="3" style="stroke:#038048;stroke-width:1.0;"/><text fill="#000000" font-family="sans-serif" font-size="20" lengthAdjust="spacing" textLength="268" x="2168" y="276.168">elements(): Iterable&lt;jobOffer&gt;</text><ellipse cx="2158" cy="294.6406" fill="#84BE84" rx="3" ry="3" style="stroke:#038048;stroke-width:1.0;"/><text fill="#000000" font-family="sans-serif" font-size="20" lengthAdjust="spacing" textLength="254" x="2168" y="301.3242">askForDay(): LocalDateTime</text><ellipse cx="2158" cy="319.7969" fill="#84BE84" rx="3" ry="3" style="stroke:#038048;stroke-width:1.0;"/><text fill="#000000" font-family="sans-serif" font-size="20" lengthAdjust="spacing" textLength="272" x="2168" y="326.4805">askForCompanyName(): String</text><ellipse cx="2158" cy="344.9531" fill="#84BE84" rx="3" ry="3" style="stroke:#038048;stroke-width:1.0;"/><text fill="#000000" font-family="sans-serif" font-size="20" lengthAdjust="spacing" textLength="304" x="2168" y="351.6367">elementPrinter(): Visitor&lt;jobOffer&gt;</text><ellipse cx="2158" cy="370.1094" fill="#84BE84" rx="3" ry="3" style="stroke:#038048;stroke-width:1.0;"/><text fill="#000000" font-family="sans-serif" font-size="20" lengthAdjust="spacing" textLength="197" x="2168" y="376.793">elementName(): String</text><ellipse cx="2158" cy="395.2656" fill="#84BE84" rx="3" ry="3" style="stroke:#038048;stroke-width:1.0;"/><text fill="#000000" font-family="sans-serif" font-size="20" lengthAdjust="spacing" textLength="165" x="2168" y="401.9492">listHeader(): String</text></g><!--class JobOfferPrinter--><g id="elem_JobOfferPrinter"><rect codeLine="19" fill="#F1F1F1" height="76.3125" id="JobOfferPrinter" rx="2.5" ry="2.5" style="stroke:#181818;stroke-width:0.5;" width="260" x="1106" y="571"/><ellipse cx="1163.5" cy="588.5781" fill="#ADD1B2" rx="12" ry="12" style="stroke:#181818;stroke-width:1.0;"/><path d="M1165.6406,583.5 Q1165.8281,583.25 1166.0469,583.125 Q1166.2656,582.9844 1166.5156,582.9844 Q1166.9531,582.9844 1167.2344,583.2969 Q1167.5156,583.5938 1167.5156,584.3125 L1167.5156,586.0156 Q1167.5156,586.7344 1167.2344,587.0469 Q1166.9531,587.3594 1166.5156,587.3594 Q1166.125,587.3594 1165.875,587.125 Q1165.625,586.9063 1165.5156,586.2969 Q1165.4531,585.875 1165.2344,585.6563 Q1164.8438,585.2188 1164.125,584.9531 Q1163.4063,584.6875 1162.6875,584.6875 Q1161.7813,584.6875 1161.0313,585.0781 Q1160.2813,585.4688 1159.7031,586.3594 Q1159.125,587.2344 1159.125,588.4375 L1159.125,589.7344 Q1159.125,591.1875 1160.1719,592.1563 Q1161.2344,593.125 1163.0938,593.125 Q1164.2031,593.125 1164.9844,592.8125 Q1165.4219,592.6406 1165.9375,592.125 Q1166.25,591.8125 1166.4219,591.7188 Q1166.5938,591.625 1166.8281,591.625 Q1167.2188,591.625 1167.5156,591.9375 Q1167.8281,592.2344 1167.8281,592.6406 Q1167.8281,593.0469 1167.4219,593.5156 Q1166.8281,594.2031 1165.8906,594.5938 Q1164.625,595.125 1163.1094,595.125 Q1161.3281,595.125 1159.9063,594.3906 Q1158.75,593.7969 1157.9375,592.5313 Q1157.125,591.2656 1157.125,589.7813 L1157.125,588.4219 Q1157.125,586.8594 1157.8438,585.5156 Q1158.5781,584.1563 1159.8594,583.4219 Q1161.1563,582.6875 1162.6094,582.6875 Q1163.4688,582.6875 1164.2188,582.8906 Q1164.9844,583.0938 1165.6406,583.5 Z " fill="#000000"/><text fill="#000000" font-family="sans-serif" font-size="20" lengthAdjust="spacing" textLength="136" x="1185.5" y="596.7617">JobOfferPrinter</text><line style="stroke:#181818;stroke-width:0.5;" x1="1107" x2="1365" y1="606.1563" y2="606.1563"/><line style="stroke:#181818;stroke-width:0.5;" x1="1107" x2="1365" y1="614.1563" y2="614.1563"/><ellipse cx="1117" cy="632.2344" fill="#84BE84" rx="3" ry="3" style="stroke:#038048;stroke-width:1.0;"/><text fill="#000000" font-family="sans-serif" font-size="20" lengthAdjust="spacing" textLength="233" x="1127" y="638.918">visit(visitee: jobOffer): void</text></g><!--class ListJobOpeningController--><g id="elem_ListJobOpeningController"><rect codeLine="23" fill="#F1F1F1" height="277.5625" id="ListJobOpeningController" rx="2.5" ry="2.5" style="stroke:#181818;stroke-width:0.5;" width="889" x="1885.5" y="470"/><ellipse cx="2215" cy="487.5781" fill="#ADD1B2" rx="12" ry="12" style="stroke:#181818;stroke-width:1.0;"/><path d="M2217.1406,482.5 Q2217.3281,482.25 2217.5469,482.125 Q2217.7656,481.9844 2218.0156,481.9844 Q2218.4531,481.9844 2218.7344,482.2969 Q2219.0156,482.5938 2219.0156,483.3125 L2219.0156,485.0156 Q2219.0156,485.7344 2218.7344,486.0469 Q2218.4531,486.3594 2218.0156,486.3594 Q2217.625,486.3594 2217.375,486.125 Q2217.125,485.9063 2217.0156,485.2969 Q2216.9531,484.875 2216.7344,484.6563 Q2216.3438,484.2188 2215.625,483.9531 Q2214.9063,483.6875 2214.1875,483.6875 Q2213.2813,483.6875 2212.5313,484.0781 Q2211.7813,484.4688 2211.2031,485.3594 Q2210.625,486.2344 2210.625,487.4375 L2210.625,488.7344 Q2210.625,490.1875 2211.6719,491.1563 Q2212.7344,492.125 2214.5938,492.125 Q2215.7031,492.125 2216.4844,491.8125 Q2216.9219,491.6406 2217.4375,491.125 Q2217.75,490.8125 2217.9219,490.7188 Q2218.0938,490.625 2218.3281,490.625 Q2218.7188,490.625 2219.0156,490.9375 Q2219.3281,491.2344 2219.3281,491.6406 Q2219.3281,492.0469 2218.9219,492.5156 Q2218.3281,493.2031 2217.3906,493.5938 Q2216.125,494.125 2214.6094,494.125 Q2212.8281,494.125 2211.4063,493.3906 Q2210.25,492.7969 2209.4375,491.5313 Q2208.625,490.2656 2208.625,488.7813 L2208.625,487.4219 Q2208.625,485.8594 2209.3438,484.5156 Q2210.0781,483.1563 2211.3594,482.4219 Q2212.6563,481.6875 2214.1094,481.6875 Q2214.9688,481.6875 2215.7188,481.8906 Q2216.4844,482.0938 2217.1406,482.5 Z " fill="#000000"/><text fill="#000000" font-family="sans-serif" font-size="20" lengthAdjust="spacing" textLength="221" x="2237" y="495.7617">ListJobOpeningController</text><line style="stroke:#181818;stroke-width:0.5;" x1="1886.5" x2="2773.5" y1="505.1563" y2="505.1563"/><rect fill="none" height="6" style="stroke:#C82930;stroke-width:1.0;" width="6" x="1893.5" y="520.2344"/><text fill="#000000" font-family="sans-serif" font-size="20" lengthAdjust="spacing" textLength="346" x="1906.5" y="529.918">JobOfferRepository jobOfferRepository</text><rect fill="none" height="6" style="stroke:#C82930;stroke-width:1.0;" width="6" x="1893.5" y="545.3906"/><text fill="#000000" font-family="sans-serif" font-size="20" lengthAdjust="spacing" textLength="229" x="1906.5" y="555.0742">AuthorizationService authz</text><rect fill="none" height="6" style="stroke:#C82930;stroke-width:1.0;" width="6" x="1893.5" y="570.5469"/><text fill="#000000" font-family="sans-serif" font-size="20" lengthAdjust="spacing" textLength="292" x="1906.5" y="580.2305">String ACTIVE_JOB_OPENINGS</text><rect fill="none" height="6" style="stroke:#C82930;stroke-width:1.0;" width="6" x="1893.5" y="595.7031"/><text fill="#000000" font-family="sans-serif" font-size="20" lengthAdjust="spacing" textLength="256" x="1906.5" y="605.3867">String ALL_JOB_OPENINGS</text><rect fill="none" height="6" style="stroke:#C82930;stroke-width:1.0;" width="6" x="1893.5" y="620.8594"/><text fill="#000000" font-family="sans-serif" font-size="20" lengthAdjust="spacing" textLength="333" x="1906.5" y="630.543">String CUSTOMER_JOB_OPENINGS</text><rect fill="none" height="6" style="stroke:#C82930;stroke-width:1.0;" width="6" x="1893.5" y="646.0156"/><text fill="#000000" font-family="sans-serif" font-size="20" lengthAdjust="spacing" textLength="273" x="1906.5" y="655.6992">String DATE_JOB_OPENINGS</text><line style="stroke:#181818;stroke-width:0.5;" x1="1886.5" x2="2773.5" y1="664.0938" y2="664.0938"/><ellipse cx="1896.5" cy="682.1719" fill="#84BE84" rx="3" ry="3" style="stroke:#038048;stroke-width:1.0;"/><text fill="#000000" font-family="sans-serif" font-size="20" lengthAdjust="spacing" textLength="810" x="1906.5" y="688.8555">listJobOffers(option: String, companyName: String, day: LocalDateTime): Iterable&lt;jobOffer&gt;</text><rect fill="#F24D5C" height="6" style="stroke:#C82930;stroke-width:1.0;" width="6" x="1893.5" y="704.3281"/><text fill="#000000" font-family="sans-serif" font-size="20" lengthAdjust="spacing" textLength="862" x="1906.5" y="714.0117">filterThroughJobOpenings(jobOffers: List&lt;jobOffer&gt;, emailAddress: EmailAddress): List&lt;jobOffer&gt;</text><rect fill="#F24D5C" height="6" style="stroke:#C82930;stroke-width:1.0;" width="6" x="1893.5" y="729.4844"/><text fill="#000000" font-family="sans-serif" font-size="20" lengthAdjust="spacing" textLength="587" x="1906.5" y="739.168">getActivateJobOpenings(jobOffers: List&lt;jobOffer&gt;): List&lt;jobOffer&gt;</text></g><!--class jobOffer--><g id="elem_jobOffer"><rect codeLine="35" fill="#F1F1F1" height="805.8438" id="jobOffer" rx="2.5" ry="2.5" style="stroke:#181818;stroke-width:0.5;" width="2458" x="7" y="808"/><ellipse cx="1195.5" cy="825.5781" fill="#ADD1B2" rx="12" ry="12" style="stroke:#181818;stroke-width:1.0;"/><path d="M1197.6406,820.5 Q1197.8281,820.25 1198.0469,820.125 Q1198.2656,819.9844 1198.5156,819.9844 Q1198.9531,819.9844 1199.2344,820.2969 Q1199.5156,820.5938 1199.5156,821.3125 L1199.5156,823.0156 Q1199.5156,823.7344 1199.2344,824.0469 Q1198.9531,824.3594 1198.5156,824.3594 Q1198.125,824.3594 1197.875,824.125 Q1197.625,823.9063 1197.5156,823.2969 Q1197.4531,822.875 1197.2344,822.6563 Q1196.8438,822.2188 1196.125,821.9531 Q1195.4063,821.6875 1194.6875,821.6875 Q1193.7813,821.6875 1193.0313,822.0781 Q1192.2813,822.4688 1191.7031,823.3594 Q1191.125,824.2344 1191.125,825.4375 L1191.125,826.7344 Q1191.125,828.1875 1192.1719,829.1563 Q1193.2344,830.125 1195.0938,830.125 Q1196.2031,830.125 1196.9844,829.8125 Q1197.4219,829.6406 1197.9375,829.125 Q1198.25,828.8125 1198.4219,828.7188 Q1198.5938,828.625 1198.8281,828.625 Q1199.2188,828.625 1199.5156,828.9375 Q1199.8281,829.2344 1199.8281,829.6406 Q1199.8281,830.0469 1199.4219,830.5156 Q1198.8281,831.2031 1197.8906,831.5938 Q1196.625,832.125 1195.1094,832.125 Q1193.3281,832.125 1191.9063,831.3906 Q1190.75,830.7969 1189.9375,829.5313 Q1189.125,828.2656 1189.125,826.7813 L1189.125,825.4219 Q1189.125,823.8594 1189.8438,822.5156 Q1190.5781,821.1563 1191.8594,820.4219 Q1193.1563,819.6875 1194.6094,819.6875 Q1195.4688,819.6875 1196.2188,819.8906 Q1196.9844,820.0938 1197.6406,820.5 Z " fill="#000000"/><text fill="#000000" font-family="sans-serif" font-size="20" lengthAdjust="spacing" textLength="72" x="1217.5" y="833.7617">jobOffer</text><line style="stroke:#181818;stroke-width:0.5;" x1="8" x2="2464" y1="843.1563" y2="843.1563"/><rect fill="none" height="6" style="stroke:#C82930;stroke-width:1.0;" width="6" x="15" y="858.2344"/><text fill="#000000" font-family="sans-serif" font-size="20" lengthAdjust="spacing" textLength="64" x="28" y="867.918">Long id</text><rect fill="none" height="6" style="stroke:#C82930;stroke-width:1.0;" width="6" x="15" y="883.3906"/><text fill="#000000" font-family="sans-serif" font-size="20" lengthAdjust="spacing" textLength="181" x="28" y="893.0742">Reference reference</text><rect fill="none" height="6" style="stroke:#C82930;stroke-width:1.0;" width="6" x="15" y="908.5469"/><text fill="#000000" font-family="sans-serif" font-size="20" lengthAdjust="spacing" textLength="232" x="28" y="918.2305">Configuration configuration</text><rect fill="none" height="6" style="stroke:#C82930;stroke-width:1.0;" width="6" x="15" y="933.7031"/><text fill="#000000" font-family="sans-serif" font-size="20" lengthAdjust="spacing" textLength="146" x="28" y="943.3867">Function function</text><rect fill="none" height="6" style="stroke:#C82930;stroke-width:1.0;" width="6" x="15" y="958.8594"/><text fill="#000000" font-family="sans-serif" font-size="20" lengthAdjust="spacing" textLength="240" x="28" y="968.543">ContractType contractType</text><rect fill="none" height="6" style="stroke:#C82930;stroke-width:1.0;" width="6" x="15" y="984.0156"/><text fill="#000000" font-family="sans-serif" font-size="20" lengthAdjust="spacing" textLength="105" x="28" y="993.6992">Mode mode</text><rect fill="none" height="6" style="stroke:#C82930;stroke-width:1.0;" width="6" x="15" y="1009.1719"/><text fill="#000000" font-family="sans-serif" font-size="20" lengthAdjust="spacing" textLength="150" x="28" y="1018.8555">Address address</text><rect fill="none" height="6" style="stroke:#C82930;stroke-width:1.0;" width="6" x="15" y="1034.3281"/><text fill="#000000" font-family="sans-serif" font-size="20" lengthAdjust="spacing" textLength="168" x="28" y="1044.0117">Company company</text><rect fill="none" height="6" style="stroke:#C82930;stroke-width:1.0;" width="6" x="15" y="1059.4844"/><text fill="#000000" font-family="sans-serif" font-size="20" lengthAdjust="spacing" textLength="315" x="28" y="1069.168">NumberOfVacancies nrOfVacancies</text><rect fill="none" height="6" style="stroke:#C82930;stroke-width:1.0;" width="6" x="15" y="1084.6406"/><text fill="#000000" font-family="sans-serif" font-size="20" lengthAdjust="spacing" textLength="199" x="28" y="1094.3242">Description description</text><rect fill="none" height="6" style="stroke:#C82930;stroke-width:1.0;" width="6" x="15" y="1109.7969"/><text fill="#000000" font-family="sans-serif" font-size="20" lengthAdjust="spacing" textLength="241" x="28" y="1119.4805">Requirements requirements</text><rect fill="none" height="6" style="stroke:#C82930;stroke-width:1.0;" width="6" x="15" y="1134.9531"/><text fill="#000000" font-family="sans-serif" font-size="20" lengthAdjust="spacing" textLength="238" x="28" y="1144.6367">JobOfferDate creationDate</text><rect fill="none" height="6" style="stroke:#C82930;stroke-width:1.0;" width="6" x="15" y="1160.1094"/><text fill="#000000" font-family="sans-serif" font-size="20" lengthAdjust="spacing" textLength="182" x="28" y="1169.793">String managerEmail</text><line style="stroke:#181818;stroke-width:0.5;" x1="8" x2="2464" y1="1178.1875" y2="1178.1875"/><ellipse cx="18" cy="1196.2656" fill="#84BE84" rx="3" ry="3" style="stroke:#038048;stroke-width:1.0;"/><text fill="#000000" font-family="sans-serif" font-size="20" lengthAdjust="spacing" textLength="2181" x="28" y="1202.9492">jobOffer(reference: Reference, function: Function, contractType: ContractType, mode: Mode, address: Address, company: Company, nrOfVacancies: NumberOfVacancies, description: Description, requirements: Requirements, managerEmail: String)</text><ellipse cx="18" cy="1221.4219" fill="#84BE84" rx="3" ry="3" style="stroke:#038048;stroke-width:1.0;"/><text fill="#000000" font-family="sans-serif" font-size="20" lengthAdjust="spacing" textLength="2431" x="28" y="1228.1055">jobOffer(reference: Reference, function: Function, contractType: ContractType, mode: Mode, address: Address, company: Company, nrOfVacancies: NumberOfVacancies, description: Description, requirements: Requirements, configuration: Configuration, managerEmail: String)</text><ellipse cx="18" cy="1246.5781" fill="#84BE84" rx="3" ry="3" style="stroke:#038048;stroke-width:1.0;"/><text fill="#000000" font-family="sans-serif" font-size="20" lengthAdjust="spacing" textLength="281" x="28" y="1253.2617">sameAs(other: Object): boolean</text><ellipse cx="18" cy="1271.7344" fill="#84BE84" rx="3" ry="3" style="stroke:#038048;stroke-width:1.0;"/><text fill="#000000" font-family="sans-serif" font-size="20" lengthAdjust="spacing" textLength="179" x="28" y="1278.418">identity(): Reference</text><ellipse cx="18" cy="1296.8906" fill="#84BE84" rx="3" ry="3" style="stroke:#038048;stroke-width:1.0;"/><text fill="#000000" font-family="sans-serif" font-size="20" lengthAdjust="spacing" textLength="284" x="28" y="1303.5742">getConfiguration(): Configuration</text><ellipse cx="18" cy="1322.0469" fill="#84BE84" rx="3" ry="3" style="stroke:#038048;stroke-width:1.0;"/><text fill="#000000" font-family="sans-serif" font-size="20" lengthAdjust="spacing" textLength="441" x="28" y="1328.7305">setConfiguration(configuration: Configuration): void</text><ellipse cx="18" cy="1347.2031" fill="#84BE84" rx="3" ry="3" style="stroke:#038048;stroke-width:1.0;"/><text fill="#000000" font-family="sans-serif" font-size="20" lengthAdjust="spacing" textLength="236" x="28" y="1353.8867">getReference(): Reference</text><ellipse cx="18" cy="1372.3594" fill="#84BE84" rx="3" ry="3" style="stroke:#038048;stroke-width:1.0;"/><text fill="#000000" font-family="sans-serif" font-size="20" lengthAdjust="spacing" textLength="200" x="28" y="1379.043">getFunction(): Function</text><ellipse cx="18" cy="1397.5156" fill="#84BE84" rx="3" ry="3" style="stroke:#038048;stroke-width:1.0;"/><text fill="#000000" font-family="sans-serif" font-size="20" lengthAdjust="spacing" textLength="292" x="28" y="1404.1992">getContractType(): ContractType</text><ellipse cx="18" cy="1422.6719" fill="#84BE84" rx="3" ry="3" style="stroke:#038048;stroke-width:1.0;"/><text fill="#000000" font-family="sans-serif" font-size="20" lengthAdjust="spacing" textLength="154" x="28" y="1429.3555">getMode(): Mode</text><ellipse cx="18" cy="1447.8281" fill="#84BE84" rx="3" ry="3" style="stroke:#038048;stroke-width:1.0;"/><text fill="#000000" font-family="sans-serif" font-size="20" lengthAdjust="spacing" textLength="200" x="28" y="1454.5117">getAddress(): Address</text><ellipse cx="18" cy="1472.9844" fill="#84BE84" rx="3" ry="3" style="stroke:#038048;stroke-width:1.0;"/><text fill="#000000" font-family="sans-serif" font-size="20" lengthAdjust="spacing" textLength="220" x="28" y="1479.668">getCompany(): Company</text><ellipse cx="18" cy="1498.1406" fill="#84BE84" rx="3" ry="3" style="stroke:#038048;stroke-width:1.0;"/><text fill="#000000" font-family="sans-serif" font-size="20" lengthAdjust="spacing" textLength="366" x="28" y="1504.8242">getNrOfVacancies(): NumberOfVacancies</text><ellipse cx="18" cy="1523.2969" fill="#84BE84" rx="3" ry="3" style="stroke:#038048;stroke-width:1.0;"/><text fill="#000000" font-family="sans-serif" font-size="20" lengthAdjust="spacing" textLength="250" x="28" y="1529.9805">getDescription(): Description</text><ellipse cx="18" cy="1548.4531" fill="#84BE84" rx="3" ry="3" style="stroke:#038048;stroke-width:1.0;"/><text fill="#000000" font-family="sans-serif" font-size="20" lengthAdjust="spacing" textLength="296" x="28" y="1555.1367">getRequirements(): Requirements</text><ellipse cx="18" cy="1573.6094" fill="#84BE84" rx="3" ry="3" style="stroke:#038048;stroke-width:1.0;"/><text fill="#000000" font-family="sans-serif" font-size="20" lengthAdjust="spacing" textLength="231" x="28" y="1580.293">getManagerEmail(): String</text><ellipse cx="18" cy="1598.7656" fill="#84BE84" rx="3" ry="3" style="stroke:#038048;stroke-width:1.0;"/><text fill="#000000" font-family="sans-serif" font-size="20" lengthAdjust="spacing" textLength="290" x="28" y="1605.4492">getCreationDate(): JobOfferDate</text></g><!--class JobOfferRepository--><g id="elem_JobOfferRepository"><rect codeLine="68" fill="#F1F1F1" height="151.7813" id="JobOfferRepository" rx="2.5" ry="2.5" style="stroke:#181818;stroke-width:0.5;" width="627" x="2500.5" y="1135"/><ellipse cx="2723" cy="1152.5781" fill="#B4A7E5" rx="12" ry="12" style="stroke:#181818;stroke-width:1.0;"/><path d="M2724,1148.75 L2724,1156.5781 L2726.0313,1156.5781 Q2726.75,1156.5781 2727.0469,1156.8594 Q2727.3594,1157.125 2727.3594,1157.5781 Q2727.3594,1158.0156 2727.0469,1158.2969 Q2726.75,1158.5781 2726.0313,1158.5781 L2719.9844,1158.5781 Q2719.25,1158.5781 2718.9375,1158.2969 Q2718.6406,1158.0156 2718.6406,1157.5781 Q2718.6406,1157.125 2718.9375,1156.8594 Q2719.25,1156.5781 2719.9844,1156.5781 L2722,1156.5781 L2722,1148.75 L2719.9844,1148.75 Q2719.25,1148.75 2718.9375,1148.4688 Q2718.6406,1148.1875 2718.6406,1147.7344 Q2718.6406,1147.2813 2718.9375,1147.0156 Q2719.25,1146.7344 2719.9844,1146.7344 L2726.0313,1146.7344 Q2726.75,1146.7344 2727.0469,1147.0156 Q2727.3594,1147.2813 2727.3594,1147.7344 Q2727.3594,1148.1875 2727.0469,1148.4688 Q2726.75,1148.75 2726.0313,1148.75 L2724,1148.75 Z " fill="#000000"/><text fill="#000000" font-family="sans-serif" font-size="20" font-style="italic" lengthAdjust="spacing" textLength="173" x="2745" y="1160.7617">JobOfferRepository</text><line style="stroke:#181818;stroke-width:0.5;" x1="2501.5" x2="3126.5" y1="1170.1563" y2="1170.1563"/><line style="stroke:#181818;stroke-width:0.5;" x1="2501.5" x2="3126.5" y1="1178.1563" y2="1178.1563"/><ellipse cx="2511.5" cy="1196.2344" fill="#84BE84" rx="3" ry="3" style="stroke:#038048;stroke-width:1.0;"/><text fill="#000000" font-family="sans-serif" font-size="20" lengthAdjust="spacing" textLength="530" x="2521.5" y="1202.918">findAllByManager(managerEmail: String): Iterable&lt;jobOffer&gt;</text><ellipse cx="2511.5" cy="1221.3906" fill="#84BE84" rx="3" ry="3" style="stroke:#038048;stroke-width:1.0;"/><text fill="#000000" font-family="sans-serif" font-size="20" lengthAdjust="spacing" textLength="521" x="2521.5" y="1228.0742">findByReference(reference: Reference): Iterable&lt;jobOffer&gt;</text><ellipse cx="2511.5" cy="1246.5469" fill="#84BE84" rx="3" ry="3" style="stroke:#038048;stroke-width:1.0;"/><text fill="#000000" font-family="sans-serif" font-size="20" lengthAdjust="spacing" textLength="600" x="2521.5" y="1253.2305">findAllByCreationDate(creationDate: LocalDateTime): List&lt;jobOffer&gt;</text><ellipse cx="2511.5" cy="1271.7031" fill="#84BE84" rx="3" ry="3" style="stroke:#038048;stroke-width:1.0;"/><text fill="#000000" font-family="sans-serif" font-size="20" lengthAdjust="spacing" textLength="485" x="2521.5" y="1278.3867">findAllByCompany(company: Company): List&lt;jobOffer&gt;</text></g><!--class InMemoryJobOfferRepository--><g id="elem_InMemoryJobOfferRepository"><rect codeLine="75" fill="#F1F1F1" height="151.7813" id="InMemoryJobOfferRepository" rx="2.5" ry="2.5" style="stroke:#181818;stroke-width:0.5;" width="627" x="2169.5" y="1674"/><ellipse cx="2348" cy="1691.5781" fill="#ADD1B2" rx="12" ry="12" style="stroke:#181818;stroke-width:1.0;"/><path d="M2350.1406,1686.5 Q2350.3281,1686.25 2350.5469,1686.125 Q2350.7656,1685.9844 2351.0156,1685.9844 Q2351.4531,1685.9844 2351.7344,1686.2969 Q2352.0156,1686.5938 2352.0156,1687.3125 L2352.0156,1689.0156 Q2352.0156,1689.7344 2351.7344,1690.0469 Q2351.4531,1690.3594 2351.0156,1690.3594 Q2350.625,1690.3594 2350.375,1690.125 Q2350.125,1689.9063 2350.0156,1689.2969 Q2349.9531,1688.875 2349.7344,1688.6563 Q2349.3438,1688.2188 2348.625,1687.9531 Q2347.9063,1687.6875 2347.1875,1687.6875 Q2346.2813,1687.6875 2345.5313,1688.0781 Q2344.7813,1688.4688 2344.2031,1689.3594 Q2343.625,1690.2344 2343.625,1691.4375 L2343.625,1692.7344 Q2343.625,1694.1875 2344.6719,1695.1563 Q2345.7344,1696.125 2347.5938,1696.125 Q2348.7031,1696.125 2349.4844,1695.8125 Q2349.9219,1695.6406 2350.4375,1695.125 Q2350.75,1694.8125 2350.9219,1694.7188 Q2351.0938,1694.625 2351.3281,1694.625 Q2351.7188,1694.625 2352.0156,1694.9375 Q2352.3281,1695.2344 2352.3281,1695.6406 Q2352.3281,1696.0469 2351.9219,1696.5156 Q2351.3281,1697.2031 2350.3906,1697.5938 Q2349.125,1698.125 2347.6094,1698.125 Q2345.8281,1698.125 2344.4063,1697.3906 Q2343.25,1696.7969 2342.4375,1695.5313 Q2341.625,1694.2656 2341.625,1692.7813 L2341.625,1691.4219 Q2341.625,1689.8594 2342.3438,1688.5156 Q2343.0781,1687.1563 2344.3594,1686.4219 Q2345.6563,1685.6875 2347.1094,1685.6875 Q2347.9688,1685.6875 2348.7188,1685.8906 Q2349.4844,1686.0938 2350.1406,1686.5 Z " fill="#000000"/><text fill="#000000" font-family="sans-serif" font-size="20" lengthAdjust="spacing" textLength="261" x="2370" y="1699.7617">InMemoryJobOfferRepository</text><line style="stroke:#181818;stroke-width:0.5;" x1="2170.5" x2="2795.5" y1="1709.1563" y2="1709.1563"/><line style="stroke:#181818;stroke-width:0.5;" x1="2170.5" x2="2795.5" y1="1717.1563" y2="1717.1563"/><ellipse cx="2180.5" cy="1735.2344" fill="#84BE84" rx="3" ry="3" style="stroke:#038048;stroke-width:1.0;"/><text fill="#000000" font-family="sans-serif" font-size="20" lengthAdjust="spacing" textLength="530" x="2190.5" y="1741.918">findAllByManager(managerEmail: String): Iterable&lt;jobOffer&gt;</text><ellipse cx="2180.5" cy="1760.3906" fill="#84BE84" rx="3" ry="3" style="stroke:#038048;stroke-width:1.0;"/><text fill="#000000" font-family="sans-serif" font-size="20" lengthAdjust="spacing" textLength="521" x="2190.5" y="1767.0742">findByReference(reference: Reference): Iterable&lt;jobOffer&gt;</text><ellipse cx="2180.5" cy="1785.5469" fill="#84BE84" rx="3" ry="3" style="stroke:#038048;stroke-width:1.0;"/><text fill="#000000" font-family="sans-serif" font-size="20" lengthAdjust="spacing" textLength="600" x="2190.5" y="1792.2305">findAllByCreationDate(creationDate: LocalDateTime): List&lt;jobOffer&gt;</text><ellipse cx="2180.5" cy="1810.7031" fill="#84BE84" rx="3" ry="3" style="stroke:#038048;stroke-width:1.0;"/><text fill="#000000" font-family="sans-serif" font-size="20" lengthAdjust="spacing" textLength="485" x="2190.5" y="1817.3867">findAllByCompany(company: Company): List&lt;jobOffer&gt;</text></g><!--class JpaJobOfferRepository--><g id="elem_JpaJobOfferRepository"><rect codeLine="82" fill="#F1F1F1" height="151.7813" id="JpaJobOfferRepository" rx="2.5" ry="2.5" style="stroke:#181818;stroke-width:0.5;" width="627" x="2831.5" y="1674"/><ellipse cx="3038" cy="1691.5781" fill="#ADD1B2" rx="12" ry="12" style="stroke:#181818;stroke-width:1.0;"/><path d="M3040.1406,1686.5 Q3040.3281,1686.25 3040.5469,1686.125 Q3040.7656,1685.9844 3041.0156,1685.9844 Q3041.4531,1685.9844 3041.7344,1686.2969 Q3042.0156,1686.5938 3042.0156,1687.3125 L3042.0156,1689.0156 Q3042.0156,1689.7344 3041.7344,1690.0469 Q3041.4531,1690.3594 3041.0156,1690.3594 Q3040.625,1690.3594 3040.375,1690.125 Q3040.125,1689.9063 3040.0156,1689.2969 Q3039.9531,1688.875 3039.7344,1688.6563 Q3039.3438,1688.2188 3038.625,1687.9531 Q3037.9063,1687.6875 3037.1875,1687.6875 Q3036.2813,1687.6875 3035.5313,1688.0781 Q3034.7813,1688.4688 3034.2031,1689.3594 Q3033.625,1690.2344 3033.625,1691.4375 L3033.625,1692.7344 Q3033.625,1694.1875 3034.6719,1695.1563 Q3035.7344,1696.125 3037.5938,1696.125 Q3038.7031,1696.125 3039.4844,1695.8125 Q3039.9219,1695.6406 3040.4375,1695.125 Q3040.75,1694.8125 3040.9219,1694.7188 Q3041.0938,1694.625 3041.3281,1694.625 Q3041.7188,1694.625 3042.0156,1694.9375 Q3042.3281,1695.2344 3042.3281,1695.6406 Q3042.3281,1696.0469 3041.9219,1696.5156 Q3041.3281,1697.2031 3040.3906,1697.5938 Q3039.125,1698.125 3037.6094,1698.125 Q3035.8281,1698.125 3034.4063,1697.3906 Q3033.25,1696.7969 3032.4375,1695.5313 Q3031.625,1694.2656 3031.625,1692.7813 L3031.625,1691.4219 Q3031.625,1689.8594 3032.3438,1688.5156 Q3033.0781,1687.1563 3034.3594,1686.4219 Q3035.6563,1685.6875 3037.1094,1685.6875 Q3037.9688,1685.6875 3038.7188,1685.8906 Q3039.4844,1686.0938 3040.1406,1686.5 Z " fill="#000000"/><text fill="#000000" font-family="sans-serif" font-size="20" lengthAdjust="spacing" textLength="205" x="3060" y="1699.7617">JpaJobOfferRepository</text><line style="stroke:#181818;stroke-width:0.5;" x1="2832.5" x2="3457.5" y1="1709.1563" y2="1709.1563"/><line style="stroke:#181818;stroke-width:0.5;" x1="2832.5" x2="3457.5" y1="1717.1563" y2="1717.1563"/><ellipse cx="2842.5" cy="1735.2344" fill="#84BE84" rx="3" ry="3" style="stroke:#038048;stroke-width:1.0;"/><text fill="#000000" font-family="sans-serif" font-size="20" lengthAdjust="spacing" textLength="530" x="2852.5" y="1741.918">findAllByManager(managerEmail: String): Iterable&lt;jobOffer&gt;</text><ellipse cx="2842.5" cy="1760.3906" fill="#84BE84" rx="3" ry="3" style="stroke:#038048;stroke-width:1.0;"/><text fill="#000000" font-family="sans-serif" font-size="20" lengthAdjust="spacing" textLength="521" x="2852.5" y="1767.0742">findByReference(reference: Reference): Iterable&lt;jobOffer&gt;</text><ellipse cx="2842.5" cy="1785.5469" fill="#84BE84" rx="3" ry="3" style="stroke:#038048;stroke-width:1.0;"/><text fill="#000000" font-family="sans-serif" font-size="20" lengthAdjust="spacing" textLength="600" x="2852.5" y="1792.2305">findAllByCreationDate(creationDate: LocalDateTime): List&lt;jobOffer&gt;</text><ellipse cx="2842.5" cy="1810.7031" fill="#84BE84" rx="3" ry="3" style="stroke:#038048;stroke-width:1.0;"/><text fill="#000000" font-family="sans-serif" font-size="20" lengthAdjust="spacing" textLength="485" x="2852.5" y="1817.3867">findAllByCompany(company: Company): List&lt;jobOffer&gt;</text></g><!--link ListJobOpeningsUI to ListJobOpeningController--><g id="link_ListJobOpeningsUI_ListJobOpeningController"><path codeLine="89" d="M2330,410.21 C2330,428.46 2330,446.69 2330,464.3 " fill="none" id="ListJobOpeningsUI-to-ListJobOpeningController" style="stroke:#181818;stroke-width:1.0;"/><polygon fill="#181818" points="2330,469.74,2334,460.74,2330,464.74,2326,460.74,2330,469.74" style="stroke:#181818;stroke-width:1.0;"/></g><!--link ListJobOpeningController to JobOfferRepository--><g id="link_ListJobOpeningController_JobOfferRepository"><path codeLine="90" d="M2441.34,748.03 C2537.02,866.63 2671.6,1033.47 2750.12,1130.81 " fill="none" id="ListJobOpeningController-to-JobOfferRepository" style="stroke:#181818;stroke-width:1.0;"/><polygon fill="#181818" points="2753.35,1134.82,2750.8385,1125.2968,2750.2213,1130.9198,2744.5982,1130.3027,2753.35,1134.82" style="stroke:#181818;stroke-width:1.0;"/></g><!--link ListJobOpeningController to jobOffer--><g id="link_ListJobOpeningController_jobOffer"><path codeLine="91" d="M2078.33,748.03 C2045.21,766.19 2010.03,785.49 1973.56,805.49 " fill="none" id="ListJobOpeningController-to-jobOffer" style="stroke:#181818;stroke-width:1.0;"/><polygon fill="#181818" points="1969.1,807.93,1978.9133,807.0939,1973.4802,805.5188,1975.0553,800.0856,1969.1,807.93" style="stroke:#181818;stroke-width:1.0;"/></g><!--link JobOfferPrinter to jobOffer--><g id="link_JobOfferPrinter_jobOffer"><path codeLine="92" d="M1236,647.08 C1236,682.07 1236,738.6 1236,802.66 " fill="none" id="JobOfferPrinter-to-jobOffer" style="stroke:#181818;stroke-width:1.0;"/><polygon fill="#181818" points="1236,807.68,1240,798.68,1236,802.68,1232,798.68,1236,807.68" style="stroke:#181818;stroke-width:1.0;"/></g><!--reverse link JobOfferRepository to InMemoryJobOfferRepository--><g id="link_JobOfferRepository_InMemoryJobOfferRepository"><path codeLine="93" d="M2764.82,1291.78 C2701.28,1394.88 2591.45,1573.05 2529.33,1673.84 " fill="none" id="JobOfferRepository-backto-InMemoryJobOfferRepository" style="stroke:#181818;stroke-width:1.0;stroke-dasharray:7.0,7.0;"/><polygon fill="#181818" points="2767.63,1287.23,2759.4982,1292.7864,2765.0031,1291.4844,2766.3052,1296.9893,2767.63,1287.23" style="stroke:#181818;stroke-width:1.0;"/></g><!--reverse link JobOfferRepository to JpaJobOfferRepository--><g id="link_JobOfferRepository_JpaJobOfferRepository"><path codeLine="94" d="M2863.18,1291.78 C2926.72,1394.88 3036.55,1573.05 3098.67,1673.84 " fill="none" id="JobOfferRepository-backto-JpaJobOfferRepository" style="stroke:#181818;stroke-width:1.0;stroke-dasharray:7.0,7.0;"/><polygon fill="#181818" points="2860.37,1287.23,2861.6948,1296.9893,2862.9969,1291.4844,2868.5018,1292.7864,2860.37,1287.23" style="stroke:#181818;stroke-width:1.0;"/></g><!--SRC=[xLTBRnen4BxpAtmaoX9LFQwYI8H72-9H0SarChkpu6JNfbw3HAh-zuwzzhuXFLPLEC3QCvuPVzyyblIDyGELD8b5y0OX2I6YnrYD1LThzWxawvTE9uXfcf8PIzLKR9S7u8plqgS9-TKX-EdL90CyAaKSWoHg3yNAAgy3oZdAqkpNxIg9Hqb_i9ayZrwcoyUNvO_HOhBujgufp6PNf8EdzMOv7wskg0pxcnRxjsGFD8mPX-wDRrMj09A3EiyXJUckHHX30bobMZ1H8EasXljNX2AAG3vO9Pg-ZOKSqhFMcec0naEgOCCIg2WCH7AW_BoWoKK_Ft0BlMZnCqkP4hBXp6gsMecHf-zupyo25Vrs_4wj9Ul4idjBJjfJrtm3-CGvH0idmSBY_CKiS6dY7ApW84pmvznOiMLr-qUr5vAzKyK4NuCyiG08nSttVoLXOdjT7NxQ5GSTg0FL8q51Ph4PqdCj0IwdJOz4B4RHPY_5SRSl5LxNAQQ-mRmuw66oKXRtmr1YllfaL5hTr9MjbnseVg3O2GFwAnzDEta2kAsYBmZ43rCaMwq0PS2HH-cUh0Hp9MAxepHa8tIbbTKO7tbWX95zA4ugIGErEHz07ymNLZuN8P04lrnQPM0GcltcLWnPZZIxkpWcMv3Bw9bYfmeOf8INLrPh26aWcM4VUsV-dD_vvv79h4VWjOj5hIHqFf10WhcpNbHpCA4SkuyqVDhqSs1tSp3z0c4lnydFeVCg-FWLw3o3aM_WyXmulaChpsRV8ULLeV2RM7bbCFmoIbu51xy2aLUvgIkSc__xofLyzwl5S1sG5BjB7tiFZbdfa-Ns5GA5zRaL8WRAhH8BqGrJPlYiAeLtguk_uaxh31hbXuxgUjTYTeCXTv5xlH22eqkBn-NwTW7cfDdugbLkj3IDMZftjMvsBPjQq2zLlBLhUCrC5dLlP8iohrgZGNQXM-9PQmvhFS0YK12UWL3h1DaTIbGtPhUEkDGVjBpSF7GNDcCxejXWMoQjc-OHus4_ZX_FrbktDS6klCre0u_dWjEsOlpel0cWSfroxslEo9R9LJPacQoNx9LHDU5pI12MJw0-06fwe9yONSIe-PUertku-2BSkVY6h4yrORwkxmBfrD_RMuKbykxlxgxa_wKJhOdG-GC0]--></g></svg>