<?xml version="1.0" encoding="UTF-8" standalone="no"?><svg xmlns="http://www.w3.org/2000/svg" xmlns:xlink="http://www.w3.org/1999/xlink" contentStyleType="text/css" height="459px" preserveAspectRatio="none" style="width:939px;height:459px;background:#FFFFFF;" version="1.1" viewBox="0 0 939 459" width="939px" zoomAndPan="magnify"><defs/><g><rect fill="#FFFFFF" height="252.0938" style="stroke:#181818;stroke-width:1.0;" width="10" x="87.5" y="100.1563"/><rect fill="#FFFFFF" height="39.1563" style="stroke:#181818;stroke-width:1.0;" width="10" x="885.5" y="131.3125"/><rect fill="#FFFFFF" height="64.3125" style="stroke:#181818;stroke-width:1.0;" width="10" x="885.5" y="209.625"/><rect fill="#FFFFFF" height="39.1563" style="stroke:#181818;stroke-width:1.0;" width="10" x="885.5" y="313.0938"/><line style="stroke:#181818;stroke-width:0.5;stroke-dasharray:5.0,5.0;" x1="92" x2="92" y1="90.1563" y2="370.25"/><line style="stroke:#181818;stroke-width:0.5;stroke-dasharray:5.0,5.0;" x1="890.5" x2="890.5" y1="90.1563" y2="370.25"/><text fill="#000000" font-family="sans-serif" font-size="20" lengthAdjust="spacing" textLength="169" x="5" y="85.7617">Customer Manager</text><ellipse cx="92.5" cy="13.5" fill="#E2E2F0" rx="8" ry="8" style="stroke:#181818;stroke-width:0.5;"/><path d="M92.5,21.5 L92.5,48.5 M79.5,29.5 L105.5,29.5 M92.5,48.5 L79.5,63.5 M92.5,48.5 L105.5,63.5 " fill="none" style="stroke:#181818;stroke-width:0.5;"/><text fill="#000000" font-family="sans-serif" font-size="20" lengthAdjust="spacing" textLength="169" x="5" y="390.0117">Customer Manager</text><ellipse cx="92.5" cy="402.9063" fill="#E2E2F0" rx="8" ry="8" style="stroke:#181818;stroke-width:0.5;"/><path d="M92.5,410.9063 L92.5,437.9063 M79.5,418.9063 L105.5,418.9063 M92.5,437.9063 L79.5,452.9063 M92.5,437.9063 L105.5,452.9063 " fill="none" style="stroke:#181818;stroke-width:0.5;"/><rect fill="#E2E2F0" height="39.1563" rx="2.5" ry="2.5" style="stroke:#181818;stroke-width:0.5;" width="86" x="847.5" y="50"/><text fill="#000000" font-family="sans-serif" font-size="20" lengthAdjust="spacing" textLength="72" x="854.5" y="77.7617">:System</text><rect fill="#E2E2F0" height="39.1563" rx="2.5" ry="2.5" style="stroke:#181818;stroke-width:0.5;" width="86" x="847.5" y="369.25"/><text fill="#000000" font-family="sans-serif" font-size="20" lengthAdjust="spacing" textLength="72" x="854.5" y="397.0117">:System</text><rect fill="#FFFFFF" height="252.0938" style="stroke:#181818;stroke-width:1.0;" width="10" x="87.5" y="100.1563"/><rect fill="#FFFFFF" height="39.1563" style="stroke:#181818;stroke-width:1.0;" width="10" x="885.5" y="131.3125"/><rect fill="#FFFFFF" height="64.3125" style="stroke:#181818;stroke-width:1.0;" width="10" x="885.5" y="209.625"/><rect fill="#FFFFFF" height="39.1563" style="stroke:#181818;stroke-width:1.0;" width="10" x="885.5" y="313.0938"/><polygon fill="#181818" points="873.5,127.3125,883.5,131.3125,873.5,135.3125,877.5,131.3125" style="stroke:#181818;stroke-width:1.0;"/><line style="stroke:#181818;stroke-width:1.0;" x1="97.5" x2="879.5" y1="131.3125" y2="131.3125"/><text fill="#000000" font-family="sans-serif" font-size="20" font-weight="bold" lengthAdjust="spacing" textLength="11" x="104.5" y="124.918">1</text><text fill="#000000" font-family="sans-serif" font-size="20" lengthAdjust="spacing" textLength="607" x="119.5" y="124.918">asks the system to setup the phases of the process for a job opening</text><polygon fill="#181818" points="108.5,166.4688,98.5,170.4688,108.5,174.4688,104.5,170.4688" style="stroke:#181818;stroke-width:1.0;"/><line style="stroke:#181818;stroke-width:1.0;stroke-dasharray:2.0,2.0;" x1="102.5" x2="889.5" y1="170.4688" y2="170.4688"/><text fill="#000000" font-family="sans-serif" font-size="20" font-weight="bold" lengthAdjust="spacing" textLength="11" x="114.5" y="164.0742">2</text><text fill="#000000" font-family="sans-serif" font-size="20" lengthAdjust="spacing" textLength="392" x="129.5" y="164.0742">shows job references adn asks to select one</text><polygon fill="#181818" points="873.5,205.625,883.5,209.625,873.5,213.625,877.5,209.625" style="stroke:#181818;stroke-width:1.0;"/><line style="stroke:#181818;stroke-width:1.0;" x1="97.5" x2="879.5" y1="209.625" y2="209.625"/><text fill="#000000" font-family="sans-serif" font-size="20" font-weight="bold" lengthAdjust="spacing" textLength="11" x="104.5" y="203.2305">3</text><text fill="#000000" font-family="sans-serif" font-size="20" lengthAdjust="spacing" textLength="201" x="119.5" y="203.2305">selects a job reference</text><polygon fill="#181818" points="108.5,269.9375,98.5,273.9375,108.5,277.9375,104.5,273.9375" style="stroke:#181818;stroke-width:1.0;"/><line style="stroke:#181818;stroke-width:1.0;stroke-dasharray:2.0,2.0;" x1="102.5" x2="889.5" y1="273.9375" y2="273.9375"/><text fill="#000000" font-family="sans-serif" font-size="20" font-weight="bold" lengthAdjust="spacing" textLength="11" x="114.5" y="254.9648">4</text><text fill="#000000" font-family="sans-serif" font-size="20" lengthAdjust="spacing" textLength="749" x="129.5" y="242.3867">requests data (Job Reference, Application Phase, Interview Phase, Screening Phase,</text><text fill="#000000" font-family="sans-serif" font-size="20" lengthAdjust="spacing" textLength="669" x="135.5" y="267.543">Result Phase, Analysis Phase, Periods, Interview Model, Questions, Values)</text><polygon fill="#181818" points="873.5,309.0938,883.5,313.0938,873.5,317.0938,877.5,313.0938" style="stroke:#181818;stroke-width:1.0;"/><line style="stroke:#181818;stroke-width:1.0;" x1="97.5" x2="879.5" y1="313.0938" y2="313.0938"/><text fill="#000000" font-family="sans-serif" font-size="20" font-weight="bold" lengthAdjust="spacing" textLength="11" x="104.5" y="306.6992">5</text><text fill="#000000" font-family="sans-serif" font-size="20" lengthAdjust="spacing" textLength="165" x="119.5" y="306.6992">types request data</text><polygon fill="#181818" points="103.5,348.25,93.5,352.25,103.5,356.25,99.5,352.25" style="stroke:#181818;stroke-width:1.0;"/><line style="stroke:#181818;stroke-width:1.0;stroke-dasharray:2.0,2.0;" x1="97.5" x2="889.5" y1="352.25" y2="352.25"/><text fill="#000000" font-family="sans-serif" font-size="20" font-weight="bold" lengthAdjust="spacing" textLength="11" x="109.5" y="345.8555">6</text><text fill="#000000" font-family="sans-serif" font-size="20" lengthAdjust="spacing" textLength="399" x="124.5" y="345.8555">shows all data and informs operation success</text><!--SRC=[bL9DQyCm3BtdLuYSDcXXxDZ3e0m66nIw5NRQHOsLrgjZPPRIqltwEHzEUsWPlLdFrdjFJvQTzJK6h1mNEp9WgCJ6wGjxNTbVWiU7BCD6sJVLca8y5ye15kXnGm5G87zkHBcY4SoxHtQFIWdAijGmVO9yjZgAKfN3BFRl17HB81q4oY2aJTrXzHQ51BZigy05YK0PvH6-UGrSaxT-Sr8RcRFi93ADaabz1hBbWtJTWKeAv2CdeF63arRUKQ70dZ93bvYlJDBtoM1j9B_9NA2VXYII65I4kxT8z9689Z2lQsSBLCiUbcqq4tZrIc5lwP20LH6e2sK0ldnaaBZFz63kqHt5IggN52mREQTQi24tWVVMIjIATv_eOd5_Mo1wh6EqmqZTH1Up-6TJw5oV1de3riVbLz8kFlGvI5Eqd-AAipCqVSG_]--></g></svg>