<?xml version="1.0" encoding="UTF-8" standalone="no"?><svg xmlns="http://www.w3.org/2000/svg" xmlns:xlink="http://www.w3.org/1999/xlink" contentStyleType="text/css" height="772px" preserveAspectRatio="none" style="width:2056px;height:772px;background:#FFFFFF;" version="1.1" viewBox="0 0 2056 772" width="2056px" zoomAndPan="magnify"><defs/><g><rect fill="#FFFFFF" height="531.0313" style="stroke:#181818;stroke-width:1.0;" width="10" x="84.5" y="111.3125"/><rect fill="#FFFFFF" height="195.7813" style="stroke:#181818;stroke-width:1.0;" width="10" x="985.5" y="142.4688"/><rect fill="#FFFFFF" height="39.1563" style="stroke:#181818;stroke-width:1.0;" width="10" x="985.5" y="377.4063"/><rect fill="#FFFFFF" height="186.625" style="stroke:#181818;stroke-width:1.0;" width="10" x="985.5" y="455.7188"/><rect fill="#FFFFFF" height="117.4688" style="stroke:#181818;stroke-width:1.0;" width="10" x="1236.5" y="181.625"/><rect fill="#FFFFFF" height="108.3125" style="stroke:#181818;stroke-width:1.0;" width="10" x="1236.5" y="494.875"/><rect fill="#FFFFFF" height="30" style="stroke:#181818;stroke-width:1.0;" width="10" x="1540.5" y="534.0313"/><rect fill="#FFFFFF" height="48.1563" style="stroke:#181818;stroke-width:1.0;" width="10" x="1753" y="603.1875"/><rect fill="#FFFFFF" height="39.1563" style="stroke:#181818;stroke-width:1.0;" width="10" x="1960.5" y="220.7813"/><line style="stroke:#181818;stroke-width:0.5;stroke-dasharray:5.0,5.0;" x1="89" x2="89" y1="101.3125" y2="660.3438"/><line style="stroke:#181818;stroke-width:0.5;stroke-dasharray:5.0,5.0;" x1="990" x2="990" y1="101.3125" y2="660.3438"/><line style="stroke:#181818;stroke-width:0.5;stroke-dasharray:5.0,5.0;" x1="1241" x2="1241" y1="101.3125" y2="660.3438"/><line style="stroke:#181818;stroke-width:0.5;stroke-dasharray:5.0,5.0;" x1="1545" x2="1545" y1="101.3125" y2="660.3438"/><line style="stroke:#181818;stroke-width:0.5;stroke-dasharray:5.0,5.0;" x1="1758" x2="1758" y1="101.3125" y2="660.3438"/><line style="stroke:#181818;stroke-width:0.5;stroke-dasharray:5.0,5.0;" x1="1965" x2="1965" y1="101.3125" y2="660.3438"/><text fill="#000000" font-family="sans-serif" font-size="20" lengthAdjust="spacing" textLength="163" x="5" y="96.918">CustomerManager</text><ellipse cx="89.5" cy="24.6563" fill="#E2E2F0" rx="8" ry="8" style="stroke:#181818;stroke-width:0.5;"/><path d="M89.5,32.6563 L89.5,59.6563 M76.5,40.6563 L102.5,40.6563 M89.5,59.6563 L76.5,74.6563 M89.5,59.6563 L102.5,74.6563 " fill="none" style="stroke:#181818;stroke-width:0.5;"/><text fill="#000000" font-family="sans-serif" font-size="20" lengthAdjust="spacing" textLength="163" x="5" y="680.1055">CustomerManager</text><ellipse cx="89.5" cy="693" fill="#E2E2F0" rx="8" ry="8" style="stroke:#181818;stroke-width:0.5;"/><path d="M89.5,701 L89.5,728 M76.5,709 L102.5,709 M89.5,728 L76.5,743 M89.5,728 L102.5,743 " fill="none" style="stroke:#181818;stroke-width:0.5;"/><rect fill="#E2E2F0" height="64.3125" rx="2.5" ry="2.5" style="stroke:#181818;stroke-width:0.5;" width="199" x="891" y="36"/><text fill="#000000" font-family="sans-serif" font-size="20" font-style="italic" lengthAdjust="spacing" textLength="131" x="925" y="63.7617">«presentation»</text><text fill="#000000" font-family="sans-serif" font-size="20" lengthAdjust="spacing" textLength="185" x="898" y="88.918">SetupConfigurationUI</text><rect fill="#E2E2F0" height="64.3125" rx="2.5" ry="2.5" style="stroke:#181818;stroke-width:0.5;" width="199" x="891" y="659.3438"/><text fill="#000000" font-family="sans-serif" font-size="20" font-style="italic" lengthAdjust="spacing" textLength="131" x="925" y="687.1055">«presentation»</text><text fill="#000000" font-family="sans-serif" font-size="20" lengthAdjust="spacing" textLength="185" x="898" y="712.2617">SetupConfigurationUI</text><rect fill="#E2E2F0" height="64.3125" rx="2.5" ry="2.5" style="stroke:#181818;stroke-width:0.5;" width="265" x="1109" y="36"/><text fill="#000000" font-family="sans-serif" font-size="20" font-style="italic" lengthAdjust="spacing" textLength="118" x="1182.5" y="63.7617">«application»</text><text fill="#000000" font-family="sans-serif" font-size="20" lengthAdjust="spacing" textLength="251" x="1116" y="88.918">SetupConfigurationController</text><rect fill="#E2E2F0" height="64.3125" rx="2.5" ry="2.5" style="stroke:#181818;stroke-width:0.5;" width="265" x="1109" y="659.3438"/><text fill="#000000" font-family="sans-serif" font-size="20" font-style="italic" lengthAdjust="spacing" textLength="118" x="1182.5" y="687.1055">«application»</text><text fill="#000000" font-family="sans-serif" font-size="20" lengthAdjust="spacing" textLength="251" x="1116" y="712.2617">SetupConfigurationController</text><rect fill="#E2E2F0" height="64.3125" rx="2.5" ry="2.5" style="stroke:#181818;stroke-width:0.5;" width="189" x="1451" y="36"/><text fill="#000000" font-family="sans-serif" font-size="20" font-style="italic" lengthAdjust="spacing" textLength="83" x="1504" y="63.7617">«builder»</text><text fill="#000000" font-family="sans-serif" font-size="20" lengthAdjust="spacing" textLength="175" x="1458" y="88.918">ConfigurationBuilder</text><rect fill="#E2E2F0" height="64.3125" rx="2.5" ry="2.5" style="stroke:#181818;stroke-width:0.5;" width="189" x="1451" y="659.3438"/><text fill="#000000" font-family="sans-serif" font-size="20" font-style="italic" lengthAdjust="spacing" textLength="83" x="1504" y="687.1055">«builder»</text><text fill="#000000" font-family="sans-serif" font-size="20" lengthAdjust="spacing" textLength="175" x="1458" y="712.2617">ConfigurationBuilder</text><text fill="#000000" font-family="sans-serif" font-size="20" font-style="italic" lengthAdjust="spacing" textLength="110" x="1700" y="71.7617">«repository»</text><text fill="#000000" font-family="sans-serif" font-size="20" lengthAdjust="spacing" textLength="210" x="1650" y="96.918">ConfigurationRepository</text><path d="M1740,15 C1740,5 1758,5 1758,5 C1758,5 1776,5 1776,15 L1776,41 C1776,51 1758,51 1758,51 C1758,51 1740,51 1740,41 L1740,15 " fill="#E2E2F0" style="stroke:#181818;stroke-width:1.5;"/><path d="M1740,15 C1740,25 1758,25 1758,25 C1758,25 1776,25 1776,15 " fill="none" style="stroke:#181818;stroke-width:1.5;"/><text fill="#000000" font-family="sans-serif" font-size="20" font-style="italic" lengthAdjust="spacing" textLength="110" x="1700" y="680.1055">«repository»</text><text fill="#000000" font-family="sans-serif" font-size="20" lengthAdjust="spacing" textLength="210" x="1650" y="705.2617">ConfigurationRepository</text><path d="M1740,719.6563 C1740,709.6563 1758,709.6563 1758,709.6563 C1758,709.6563 1776,709.6563 1776,719.6563 L1776,745.6563 C1776,755.6563 1758,755.6563 1758,755.6563 C1758,755.6563 1740,755.6563 1740,745.6563 L1740,719.6563 " fill="#E2E2F0" style="stroke:#181818;stroke-width:1.5;"/><path d="M1740,719.6563 C1740,729.6563 1758,729.6563 1758,729.6563 C1758,729.6563 1776,729.6563 1776,719.6563 " fill="none" style="stroke:#181818;stroke-width:1.5;"/><text fill="#000000" font-family="sans-serif" font-size="20" font-style="italic" lengthAdjust="spacing" textLength="110" x="1907.5" y="71.7617">«repository»</text><text fill="#000000" font-family="sans-serif" font-size="20" lengthAdjust="spacing" textLength="173" x="1876" y="96.918">JobOfferRepository</text><path d="M1947.5,15 C1947.5,5 1965.5,5 1965.5,5 C1965.5,5 1983.5,5 1983.5,15 L1983.5,41 C1983.5,51 1965.5,51 1965.5,51 C1965.5,51 1947.5,51 1947.5,41 L1947.5,15 " fill="#E2E2F0" style="stroke:#181818;stroke-width:1.5;"/><path d="M1947.5,15 C1947.5,25 1965.5,25 1965.5,25 C1965.5,25 1983.5,25 1983.5,15 " fill="none" style="stroke:#181818;stroke-width:1.5;"/><text fill="#000000" font-family="sans-serif" font-size="20" font-style="italic" lengthAdjust="spacing" textLength="110" x="1907.5" y="680.1055">«repository»</text><text fill="#000000" font-family="sans-serif" font-size="20" lengthAdjust="spacing" textLength="173" x="1876" y="705.2617">JobOfferRepository</text><path d="M1947.5,719.6563 C1947.5,709.6563 1965.5,709.6563 1965.5,709.6563 C1965.5,709.6563 1983.5,709.6563 1983.5,719.6563 L1983.5,745.6563 C1983.5,755.6563 1965.5,755.6563 1965.5,755.6563 C1965.5,755.6563 1947.5,755.6563 1947.5,745.6563 L1947.5,719.6563 " fill="#E2E2F0" style="stroke:#181818;stroke-width:1.5;"/><path d="M1947.5,719.6563 C1947.5,729.6563 1965.5,729.6563 1965.5,729.6563 C1965.5,729.6563 1983.5,729.6563 1983.5,719.6563 " fill="none" style="stroke:#181818;stroke-width:1.5;"/><rect fill="#FFFFFF" height="531.0313" style="stroke:#181818;stroke-width:1.0;" width="10" x="84.5" y="111.3125"/><rect fill="#FFFFFF" height="195.7813" style="stroke:#181818;stroke-width:1.0;" width="10" x="985.5" y="142.4688"/><rect fill="#FFFFFF" height="39.1563" style="stroke:#181818;stroke-width:1.0;" width="10" x="985.5" y="377.4063"/><rect fill="#FFFFFF" height="186.625" style="stroke:#181818;stroke-width:1.0;" width="10" x="985.5" y="455.7188"/><rect fill="#FFFFFF" height="117.4688" style="stroke:#181818;stroke-width:1.0;" width="10" x="1236.5" y="181.625"/><rect fill="#FFFFFF" height="108.3125" style="stroke:#181818;stroke-width:1.0;" width="10" x="1236.5" y="494.875"/><rect fill="#FFFFFF" height="30" style="stroke:#181818;stroke-width:1.0;" width="10" x="1540.5" y="534.0313"/><rect fill="#FFFFFF" height="48.1563" style="stroke:#181818;stroke-width:1.0;" width="10" x="1753" y="603.1875"/><rect fill="#FFFFFF" height="39.1563" style="stroke:#181818;stroke-width:1.0;" width="10" x="1960.5" y="220.7813"/><polygon fill="#181818" points="973.5,138.4688,983.5,142.4688,973.5,146.4688,977.5,142.4688" style="stroke:#181818;stroke-width:1.0;"/><line style="stroke:#181818;stroke-width:1.0;" x1="94.5" x2="979.5" y1="142.4688" y2="142.4688"/><text fill="#000000" font-family="sans-serif" font-size="20" font-weight="bold" lengthAdjust="spacing" textLength="11" x="101.5" y="136.0742">1</text><text fill="#000000" font-family="sans-serif" font-size="20" lengthAdjust="spacing" textLength="396" x="116.5" y="136.0742">asks the system to setup a new configuration</text><polygon fill="#181818" points="1224.5,177.625,1234.5,181.625,1224.5,185.625,1228.5,181.625" style="stroke:#181818;stroke-width:1.0;"/><line style="stroke:#181818;stroke-width:1.0;" x1="995.5" x2="1230.5" y1="181.625" y2="181.625"/><text fill="#000000" font-family="sans-serif" font-size="20" font-weight="bold" lengthAdjust="spacing" textLength="11" x="1002.5" y="175.2305">2</text><text fill="#000000" font-family="sans-serif" font-size="20" lengthAdjust="spacing" textLength="148" x="1017.5" y="175.2305">showJobOffers()</text><polygon fill="#181818" points="1948.5,216.7813,1958.5,220.7813,1948.5,224.7813,1952.5,220.7813" style="stroke:#181818;stroke-width:1.0;"/><line style="stroke:#181818;stroke-width:1.0;" x1="1246.5" x2="1954.5" y1="220.7813" y2="220.7813"/><text fill="#000000" font-family="sans-serif" font-size="20" font-weight="bold" lengthAdjust="spacing" textLength="11" x="1253.5" y="214.3867">3</text><text fill="#000000" font-family="sans-serif" font-size="20" lengthAdjust="spacing" textLength="130" x="1268.5" y="214.3867">getJobOffers()</text><polygon fill="#181818" points="1257.5,255.9375,1247.5,259.9375,1257.5,263.9375,1253.5,259.9375" style="stroke:#181818;stroke-width:1.0;"/><line style="stroke:#181818;stroke-width:1.0;stroke-dasharray:2.0,2.0;" x1="1251.5" x2="1964.5" y1="259.9375" y2="259.9375"/><text fill="#000000" font-family="sans-serif" font-size="20" font-weight="bold" lengthAdjust="spacing" textLength="11" x="1263.5" y="253.543">4</text><text fill="#000000" font-family="sans-serif" font-size="20" lengthAdjust="spacing" textLength="202" x="1278.5" y="253.543">returns list of jobOffers</text><polygon fill="#181818" points="1006.5,295.0938,996.5,299.0938,1006.5,303.0938,1002.5,299.0938" style="stroke:#181818;stroke-width:1.0;"/><line style="stroke:#181818;stroke-width:1.0;stroke-dasharray:2.0,2.0;" x1="1000.5" x2="1240.5" y1="299.0938" y2="299.0938"/><text fill="#000000" font-family="sans-serif" font-size="20" font-weight="bold" lengthAdjust="spacing" textLength="11" x="1012.5" y="292.6992">5</text><text fill="#000000" font-family="sans-serif" font-size="20" lengthAdjust="spacing" textLength="202" x="1027.5" y="292.6992">returns list of jobOffers</text><polygon fill="#181818" points="105.5,334.25,95.5,338.25,105.5,342.25,101.5,338.25" style="stroke:#181818;stroke-width:1.0;"/><line style="stroke:#181818;stroke-width:1.0;stroke-dasharray:2.0,2.0;" x1="99.5" x2="989.5" y1="338.25" y2="338.25"/><text fill="#000000" font-family="sans-serif" font-size="20" font-weight="bold" lengthAdjust="spacing" textLength="11" x="111.5" y="331.8555">6</text><text fill="#000000" font-family="sans-serif" font-size="20" lengthAdjust="spacing" textLength="217" x="126.5" y="331.8555">asks to select a jobOffer</text><polygon fill="#181818" points="973.5,373.4063,983.5,377.4063,973.5,381.4063,977.5,377.4063" style="stroke:#181818;stroke-width:1.0;"/><line style="stroke:#181818;stroke-width:1.0;" x1="94.5" x2="979.5" y1="377.4063" y2="377.4063"/><text fill="#000000" font-family="sans-serif" font-size="20" font-weight="bold" lengthAdjust="spacing" textLength="11" x="101.5" y="371.0117">7</text><text fill="#000000" font-family="sans-serif" font-size="20" lengthAdjust="spacing" textLength="130" x="116.5" y="371.0117">select jobOffer</text><polygon fill="#181818" points="105.5,412.5625,95.5,416.5625,105.5,420.5625,101.5,416.5625" style="stroke:#181818;stroke-width:1.0;"/><line style="stroke:#181818;stroke-width:1.0;stroke-dasharray:2.0,2.0;" x1="99.5" x2="989.5" y1="416.5625" y2="416.5625"/><text fill="#000000" font-family="sans-serif" font-size="20" font-weight="bold" lengthAdjust="spacing" textLength="11" x="111.5" y="410.168">8</text><text fill="#000000" font-family="sans-serif" font-size="20" lengthAdjust="spacing" textLength="852" x="126.5" y="410.168">requests data (ApplicationPhase, AnalysisPhase, InterviewPhase, ResultPhase, ScreeningPhase)</text><polygon fill="#181818" points="973.5,451.7188,983.5,455.7188,973.5,459.7188,977.5,455.7188" style="stroke:#181818;stroke-width:1.0;"/><line style="stroke:#181818;stroke-width:1.0;" x1="94.5" x2="979.5" y1="455.7188" y2="455.7188"/><text fill="#000000" font-family="sans-serif" font-size="20" font-weight="bold" lengthAdjust="spacing" textLength="11" x="101.5" y="449.3242">9</text><text fill="#000000" font-family="sans-serif" font-size="20" lengthAdjust="spacing" textLength="165" x="116.5" y="449.3242">types request data</text><polygon fill="#181818" points="1224.5,490.875,1234.5,494.875,1224.5,498.875,1228.5,494.875" style="stroke:#181818;stroke-width:1.0;"/><line style="stroke:#181818;stroke-width:1.0;" x1="995.5" x2="1230.5" y1="494.875" y2="494.875"/><text fill="#000000" font-family="sans-serif" font-size="20" font-weight="bold" lengthAdjust="spacing" textLength="22" x="1002.5" y="488.4805">10</text><text fill="#000000" font-family="sans-serif" font-size="20" lengthAdjust="spacing" textLength="166" x="1028.5" y="488.4805">SetupConfiguration</text><polygon fill="#181818" points="1528.5,530.0313,1538.5,534.0313,1528.5,538.0313,1532.5,534.0313" style="stroke:#181818;stroke-width:1.0;"/><line style="stroke:#181818;stroke-width:1.0;" x1="1246.5" x2="1534.5" y1="534.0313" y2="534.0313"/><text fill="#000000" font-family="sans-serif" font-size="20" font-weight="bold" lengthAdjust="spacing" textLength="22" x="1253.5" y="527.6367">11</text><text fill="#000000" font-family="sans-serif" font-size="20" lengthAdjust="spacing" textLength="249" x="1279.5" y="527.6367">ConfigurationBuilder().build()</text><polygon fill="#181818" points="1741,599.1875,1751,603.1875,1741,607.1875,1745,603.1875" style="stroke:#181818;stroke-width:1.0;"/><line style="stroke:#181818;stroke-width:1.0;" x1="1241.5" x2="1747" y1="603.1875" y2="603.1875"/><text fill="#000000" font-family="sans-serif" font-size="20" font-weight="bold" lengthAdjust="spacing" textLength="22" x="1248.5" y="596.793">12</text><text fill="#000000" font-family="sans-serif" font-size="20" lengthAdjust="spacing" textLength="170" x="1274.5" y="596.793">saveConfiguration()</text><polygon fill="#181818" points="100.5,638.3438,90.5,642.3438,100.5,646.3438,96.5,642.3438" style="stroke:#181818;stroke-width:1.0;"/><line style="stroke:#181818;stroke-width:1.0;stroke-dasharray:2.0,2.0;" x1="94.5" x2="989.5" y1="642.3438" y2="642.3438"/><text fill="#000000" font-family="sans-serif" font-size="20" font-weight="bold" lengthAdjust="spacing" textLength="22" x="106.5" y="635.9492">13</text><text fill="#000000" font-family="sans-serif" font-size="20" lengthAdjust="spacing" textLength="229" x="132.5" y="635.9492">informs operation success</text><!--SRC=[XPFHZjem44NV_HKZda3gLgi-eXNIWbG9rAXLA1zWmWIy97RgcO3ertTiaf00RVDcwvuxupiJEXfRQQ_BmcL7tC4ESrqN_DLPNflV25zUbQxPsRhSebTAP-myZ1OriIlH9zhgFVeHQ895eiI8JMOgRHb6Q-IwMZYRcttjDHjdDyiet2pXxQtoI6Wvtizc_oFbmDuLHLlgP_fDF7HL5IPxQZ6WvxKfTYqw5t1xlH18xJJhhIQ40P5YvSZ8Ko-HIONntPLW7RLos-zvZdu8h1w049mvQSOGareay38BEKn5VIJW0m9TYB44Ta3X-Q31uXcoVbStayrIAS63IynY2dHmvxOP6a_w1KKW9ODCvDBQ5FR8VMqdNQLAYU3bPkkb5sy92aCCBeUF5fFaSC1T2xJF-ZlNms9d8e_raYwCa4216Ki4BTQdmjjx0JRQJlaGKkVkyLUDn0HXUZ1-lstFZuFCyXEyMrrSo51pN5f6Vp9uRiufalmPpM6TUKHhx3wU9_zea2yLKbiyrXws2FA5DhlC7zS_Qku62itN3bOMUmhFrduy-HptNGRTCZUhUNVNdyjSFV4FYqFwX8CQFTFxmJuMIvzgqskjUtmmEcDpvqi2L-6rBb2TPKZ3DGnfzcqIzGS0]--></g></svg>