<?xml version="1.0" encoding="us-ascii" standalone="no"?><svg xmlns="http://www.w3.org/2000/svg" xmlns:xlink="http://www.w3.org/1999/xlink" contentStyleType="text/css" height="386.4px" preserveAspectRatio="none" style="width:869px;height:386px;background:#FFFFFF;" version="1.1" viewBox="0 0 869 386" width="869.4px" zoomAndPan="magnify"><defs/><g><rect fill="#FFFFFF" height="257.2699" style="stroke:#181818;stroke-width:0.6;" width="6" x="36.9" y="58.9453"/><rect fill="#FFFFFF" height="93.873" style="stroke:#181818;stroke-width:0.6;" width="6" x="403.5" y="72.9199"/><rect fill="#FFFFFF" height="18.7746" style="stroke:#181818;stroke-width:0.6;" width="6" x="403.5" y="185.5676"/><rect fill="#FFFFFF" height="93.0984" style="stroke:#181818;stroke-width:0.6;" width="6" x="403.5" y="223.1168"/><rect fill="#FFFFFF" height="56.3238" style="stroke:#181818;stroke-width:0.6;" width="6" x="513.3" y="91.6945"/><rect fill="#FFFFFF" height="55.5492" style="stroke:#181818;stroke-width:0.6;" width="6" x="513.3" y="241.8914"/><rect fill="#FFFFFF" height="18" style="stroke:#181818;stroke-width:0.6;" width="6" x="638.7" y="260.666"/><rect fill="#FFFFFF" height="24.1746" style="stroke:#181818;stroke-width:0.6;" width="6" x="735.3" y="297.4406"/><rect fill="#FFFFFF" height="18.7746" style="stroke:#181818;stroke-width:0.6;" width="6" x="827.4" y="110.4691"/><line style="stroke:#181818;stroke-width:0.3;stroke-dasharray:5.0,5.0;" x1="39.6" x2="39.6" y1="52.9453" y2="327.0152"/><line style="stroke:#181818;stroke-width:0.3;stroke-dasharray:5.0,5.0;" x1="406.5" x2="406.5" y1="52.9453" y2="327.0152"/><line style="stroke:#181818;stroke-width:0.3;stroke-dasharray:5.0,5.0;" x1="516.3" x2="516.3" y1="52.9453" y2="327.0152"/><line style="stroke:#181818;stroke-width:0.3;stroke-dasharray:5.0,5.0;" x1="641.4" x2="641.4" y1="52.9453" y2="327.0152"/><line style="stroke:#181818;stroke-width:0.3;stroke-dasharray:5.0,5.0;" x1="738" x2="738" y1="52.9453" y2="327.0152"/><line style="stroke:#181818;stroke-width:0.3;stroke-dasharray:5.0,5.0;" x1="830.4" x2="830.4" y1="52.9453" y2="327.0152"/><text fill="#000000" font-family="sans-serif" font-size="8.4" lengthAdjust="spacing" textLength="70.2" x="3" y="50.8371">CustomerManager</text><ellipse cx="39.9" cy="10.8727" fill="#E2E2F0" rx="4.8" ry="4.8" style="stroke:#181818;stroke-width:0.3;"/><path d="M39.9,15.6727 L39.9,31.8727 M32.1,20.4727 L47.7,20.4727 M39.9,31.8727 L32.1,40.8727 M39.9,31.8727 L47.7,40.8727 " fill="none" style="stroke:#181818;stroke-width:0.3;"/><text fill="#000000" font-family="sans-serif" font-size="8.4" lengthAdjust="spacing" textLength="70.2" x="3" y="335.4797">CustomerManager</text><ellipse cx="39.9" cy="342.6879" fill="#E2E2F0" rx="4.8" ry="4.8" style="stroke:#181818;stroke-width:0.3;"/><path d="M39.9,347.4879 L39.9,363.6879 M32.1,352.2879 L47.7,352.2879 M39.9,363.6879 L32.1,372.6879 M39.9,363.6879 L47.7,372.6879 " fill="none" style="stroke:#181818;stroke-width:0.3;"/><rect fill="#E2E2F0" height="30.7453" rx="1.5" ry="1.5" style="stroke:#181818;stroke-width:0.3;" width="88.8" x="362.1" y="21.6"/><text fill="#000000" font-family="sans-serif" font-size="8.4" font-style="italic" lengthAdjust="spacing" textLength="57" x="378" y="34.8645">&#171;presentation&#187;</text><text fill="#000000" font-family="sans-serif" font-size="8.4" lengthAdjust="spacing" textLength="80.4" x="366.3" y="46.0371">SetupConfigurationUI</text><rect fill="#E2E2F0" height="30.7453" rx="1.5" ry="1.5" style="stroke:#181818;stroke-width:0.3;" width="88.8" x="362.1" y="326.4152"/><text fill="#000000" font-family="sans-serif" font-size="8.4" font-style="italic" lengthAdjust="spacing" textLength="57" x="378" y="339.6797">&#171;presentation&#187;</text><text fill="#000000" font-family="sans-serif" font-size="8.4" lengthAdjust="spacing" textLength="80.4" x="366.3" y="350.8523">SetupConfigurationUI</text><rect fill="#E2E2F0" height="30.7453" rx="1.5" ry="1.5" style="stroke:#181818;stroke-width:0.3;" width="118.8" x="456.9" y="21.6"/><text fill="#000000" font-family="sans-serif" font-size="8.4" font-style="italic" lengthAdjust="spacing" textLength="50.4" x="491.1" y="34.8645">&#171;application&#187;</text><text fill="#000000" font-family="sans-serif" font-size="8.4" lengthAdjust="spacing" textLength="110.4" x="461.1" y="46.0371">SetupConfigurationController</text><rect fill="#E2E2F0" height="30.7453" rx="1.5" ry="1.5" style="stroke:#181818;stroke-width:0.3;" width="118.8" x="456.9" y="326.4152"/><text fill="#000000" font-family="sans-serif" font-size="8.4" font-style="italic" lengthAdjust="spacing" textLength="50.4" x="491.1" y="339.6797">&#171;application&#187;</text><text fill="#000000" font-family="sans-serif" font-size="8.4" lengthAdjust="spacing" textLength="110.4" x="461.1" y="350.8523">SetupConfigurationController</text><rect fill="#E2E2F0" height="30.7453" rx="1.5" ry="1.5" style="stroke:#181818;stroke-width:0.3;" width="85.8" x="598.8" y="21.6"/><text fill="#000000" font-family="sans-serif" font-size="8.4" font-style="italic" lengthAdjust="spacing" textLength="35.4" x="624" y="34.8645">&#171;builder&#187;</text><text fill="#000000" font-family="sans-serif" font-size="8.4" lengthAdjust="spacing" textLength="77.4" x="603" y="46.0371">ConfigurationBuilder</text><rect fill="#E2E2F0" height="30.7453" rx="1.5" ry="1.5" style="stroke:#181818;stroke-width:0.3;" width="85.8" x="598.8" y="326.4152"/><text fill="#000000" font-family="sans-serif" font-size="8.4" font-style="italic" lengthAdjust="spacing" textLength="35.4" x="624" y="339.6797">&#171;builder&#187;</text><text fill="#000000" font-family="sans-serif" font-size="8.4" lengthAdjust="spacing" textLength="77.4" x="603" y="350.8523">ConfigurationBuilder</text><text fill="#000000" font-family="sans-serif" font-size="8.4" font-style="italic" lengthAdjust="spacing" textLength="47.4" x="712.8" y="39.6645">&#171;repository&#187;</text><text fill="#000000" font-family="sans-serif" font-size="8.4" lengthAdjust="spacing" textLength="91.8" x="690.6" y="50.8371">ConfigurationRepository</text><path d="M727.5,9 C727.5,3 738.3,3 738.3,3 C738.3,3 749.1,3 749.1,9 L749.1,24.6 C749.1,30.6 738.3,30.6 738.3,30.6 C738.3,30.6 727.5,30.6 727.5,24.6 L727.5,9 " fill="#E2E2F0" style="stroke:#181818;stroke-width:0.8999999999999999;"/><path d="M727.5,9 C727.5,15 738.3,15 738.3,15 C738.3,15 749.1,15 749.1,9 " fill="none" style="stroke:#181818;stroke-width:0.8999999999999999;"/><text fill="#000000" font-family="sans-serif" font-size="8.4" font-style="italic" lengthAdjust="spacing" textLength="47.4" x="712.8" y="335.4797">&#171;repository&#187;</text><text fill="#000000" font-family="sans-serif" font-size="8.4" lengthAdjust="spacing" textLength="91.8" x="690.6" y="346.6523">ConfigurationRepository</text><path d="M727.5,354.7605 C727.5,348.7605 738.3,348.7605 738.3,348.7605 C738.3,348.7605 749.1,348.7605 749.1,354.7605 L749.1,370.3605 C749.1,376.3605 738.3,376.3605 738.3,376.3605 C738.3,376.3605 727.5,376.3605 727.5,370.3605 L727.5,354.7605 " fill="#E2E2F0" style="stroke:#181818;stroke-width:0.8999999999999999;"/><path d="M727.5,354.7605 C727.5,360.7605 738.3,360.7605 738.3,360.7605 C738.3,360.7605 749.1,360.7605 749.1,354.7605 " fill="none" style="stroke:#181818;stroke-width:0.8999999999999999;"/><text fill="#000000" font-family="sans-serif" font-size="8.4" font-style="italic" lengthAdjust="spacing" textLength="47.4" x="804.9" y="39.6645">&#171;repository&#187;</text><text fill="#000000" font-family="sans-serif" font-size="8.4" lengthAdjust="spacing" textLength="73.2" x="792" y="50.8371">JobOfferRepository</text><path d="M819.6,9 C819.6,3 830.4,3 830.4,3 C830.4,3 841.2,3 841.2,9 L841.2,24.6 C841.2,30.6 830.4,30.6 830.4,30.6 C830.4,30.6 819.6,30.6 819.6,24.6 L819.6,9 " fill="#E2E2F0" style="stroke:#181818;stroke-width:0.8999999999999999;"/><path d="M819.6,9 C819.6,15 830.4,15 830.4,15 C830.4,15 841.2,15 841.2,9 " fill="none" style="stroke:#181818;stroke-width:0.8999999999999999;"/><text fill="#000000" font-family="sans-serif" font-size="8.4" font-style="italic" lengthAdjust="spacing" textLength="47.4" x="804.9" y="335.4797">&#171;repository&#187;</text><text fill="#000000" font-family="sans-serif" font-size="8.4" lengthAdjust="spacing" textLength="73.2" x="792" y="346.6523">JobOfferRepository</text><path d="M819.6,354.7605 C819.6,348.7605 830.4,348.7605 830.4,348.7605 C830.4,348.7605 841.2,348.7605 841.2,354.7605 L841.2,370.3605 C841.2,376.3605 830.4,376.3605 830.4,376.3605 C830.4,376.3605 819.6,376.3605 819.6,370.3605 L819.6,354.7605 " fill="#E2E2F0" style="stroke:#181818;stroke-width:0.8999999999999999;"/><path d="M819.6,354.7605 C819.6,360.7605 830.4,360.7605 830.4,360.7605 C830.4,360.7605 841.2,360.7605 841.2,354.7605 " fill="none" style="stroke:#181818;stroke-width:0.8999999999999999;"/><rect fill="#FFFFFF" height="257.2699" style="stroke:#181818;stroke-width:0.6;" width="6" x="36.9" y="58.9453"/><rect fill="#FFFFFF" height="93.873" style="stroke:#181818;stroke-width:0.6;" width="6" x="403.5" y="72.9199"/><rect fill="#FFFFFF" height="18.7746" style="stroke:#181818;stroke-width:0.6;" width="6" x="403.5" y="185.5676"/><rect fill="#FFFFFF" height="93.0984" style="stroke:#181818;stroke-width:0.6;" width="6" x="403.5" y="223.1168"/><rect fill="#FFFFFF" height="56.3238" style="stroke:#181818;stroke-width:0.6;" width="6" x="513.3" y="91.6945"/><rect fill="#FFFFFF" height="55.5492" style="stroke:#181818;stroke-width:0.6;" width="6" x="513.3" y="241.8914"/><rect fill="#FFFFFF" height="18" style="stroke:#181818;stroke-width:0.6;" width="6" x="638.7" y="260.666"/><rect fill="#FFFFFF" height="24.1746" style="stroke:#181818;stroke-width:0.6;" width="6" x="735.3" y="297.4406"/><rect fill="#FFFFFF" height="18.7746" style="stroke:#181818;stroke-width:0.6;" width="6" x="827.4" y="110.4691"/><polygon fill="#181818" points="396.3,70.5199,402.3,72.9199,396.3,75.3199,398.7,72.9199" style="stroke:#181818;stroke-width:0.6;"/><line style="stroke:#181818;stroke-width:0.6;" x1="42.9" x2="399.9" y1="72.9199" y2="72.9199"/><text fill="#000000" font-family="sans-serif" font-size="7.8" font-weight="bold" lengthAdjust="spacing" textLength="4.2" x="47.1" y="69.7623">1</text><text fill="#000000" font-family="sans-serif" font-size="7.8" lengthAdjust="spacing" textLength="157.8" x="53.7" y="69.7623">asks the system to setup a new configuration</text><polygon fill="#181818" points="506.1,89.2945,512.1,91.6945,506.1,94.0945,508.5,91.6945" style="stroke:#181818;stroke-width:0.6;"/><line style="stroke:#181818;stroke-width:0.6;" x1="409.5" x2="509.7" y1="91.6945" y2="91.6945"/><text fill="#000000" font-family="sans-serif" font-size="7.8" font-weight="bold" lengthAdjust="spacing" textLength="4.2" x="413.7" y="88.5369">2</text><text fill="#000000" font-family="sans-serif" font-size="7.8" lengthAdjust="spacing" textLength="55.2" x="420.3" y="88.5369">showJobOffers()</text><polygon fill="#181818" points="820.2,108.0691,826.2,110.4691,820.2,112.8691,822.6,110.4691" style="stroke:#181818;stroke-width:0.6;"/><line style="stroke:#181818;stroke-width:0.6;" x1="519.3" x2="823.8" y1="110.4691" y2="110.4691"/><text fill="#000000" font-family="sans-serif" font-size="7.8" font-weight="bold" lengthAdjust="spacing" textLength="4.2" x="523.5" y="107.3115">3</text><text fill="#000000" font-family="sans-serif" font-size="7.8" lengthAdjust="spacing" textLength="48" x="530.1" y="107.3115">getJobOffers()</text><polygon fill="#181818" points="525.9,126.8438,519.9,129.2438,525.9,131.6437,523.5,129.2438" style="stroke:#181818;stroke-width:0.6;"/><line style="stroke:#181818;stroke-width:0.6;stroke-dasharray:2.0,2.0;" x1="522.3" x2="829.8" y1="129.2438" y2="129.2438"/><text fill="#000000" font-family="sans-serif" font-size="7.8" font-weight="bold" lengthAdjust="spacing" textLength="4.2" x="529.5" y="126.0861">4</text><text fill="#000000" font-family="sans-serif" font-size="7.8" lengthAdjust="spacing" textLength="78" x="536.1" y="126.0861">returns list of jobOffers</text><polygon fill="#181818" points="416.1,145.6184,410.1,148.0184,416.1,150.4184,413.7,148.0184" style="stroke:#181818;stroke-width:0.6;"/><line style="stroke:#181818;stroke-width:0.6;stroke-dasharray:2.0,2.0;" x1="412.5" x2="515.7" y1="148.0184" y2="148.0184"/><text fill="#000000" font-family="sans-serif" font-size="7.8" font-weight="bold" lengthAdjust="spacing" textLength="4.2" x="419.7" y="144.8607">5</text><text fill="#000000" font-family="sans-serif" font-size="7.8" lengthAdjust="spacing" textLength="78" x="426.3" y="144.8607">returns list of jobOffers</text><polygon fill="#181818" points="49.5,164.393,43.5,166.793,49.5,169.193,47.1,166.793" style="stroke:#181818;stroke-width:0.6;"/><line style="stroke:#181818;stroke-width:0.6;stroke-dasharray:2.0,2.0;" x1="45.9" x2="405.9" y1="166.793" y2="166.793"/><text fill="#000000" font-family="sans-serif" font-size="7.8" font-weight="bold" lengthAdjust="spacing" textLength="4.2" x="53.1" y="163.6354">6</text><text fill="#000000" font-family="sans-serif" font-size="7.8" lengthAdjust="spacing" textLength="84.6" x="59.7" y="163.6354">asks to select a jobOffer</text><polygon fill="#181818" points="396.3,183.1676,402.3,185.5676,396.3,187.9676,398.7,185.5676" style="stroke:#181818;stroke-width:0.6;"/><line style="stroke:#181818;stroke-width:0.6;" x1="42.9" x2="399.9" y1="185.5676" y2="185.5676"/><text fill="#000000" font-family="sans-serif" font-size="7.8" font-weight="bold" lengthAdjust="spacing" textLength="4.2" x="47.1" y="182.41">7</text><text fill="#000000" font-family="sans-serif" font-size="7.8" lengthAdjust="spacing" textLength="49.8" x="53.7" y="182.41">select jobOffer</text><polygon fill="#181818" points="49.5,201.9422,43.5,204.3422,49.5,206.7422,47.1,204.3422" style="stroke:#181818;stroke-width:0.6;"/><line style="stroke:#181818;stroke-width:0.6;stroke-dasharray:2.0,2.0;" x1="45.9" x2="405.9" y1="204.3422" y2="204.3422"/><text fill="#000000" font-family="sans-serif" font-size="7.8" font-weight="bold" lengthAdjust="spacing" textLength="4.2" x="53.1" y="201.1846">8</text><text fill="#000000" font-family="sans-serif" font-size="7.8" lengthAdjust="spacing" textLength="339.6" x="59.7" y="201.1846">requests data (ApplicationPhase, AnalysisPhase, InterviewPhase, ResultPhase, ScreeningPhase)</text><polygon fill="#181818" points="396.3,220.7168,402.3,223.1168,396.3,225.5168,398.7,223.1168" style="stroke:#181818;stroke-width:0.6;"/><line style="stroke:#181818;stroke-width:0.6;" x1="42.9" x2="399.9" y1="223.1168" y2="223.1168"/><text fill="#000000" font-family="sans-serif" font-size="7.8" font-weight="bold" lengthAdjust="spacing" textLength="4.2" x="47.1" y="219.9592">9</text><text fill="#000000" font-family="sans-serif" font-size="7.8" lengthAdjust="spacing" textLength="64.8" x="53.7" y="219.9592">types request data</text><polygon fill="#181818" points="506.1,239.4914,512.1,241.8914,506.1,244.2914,508.5,241.8914" style="stroke:#181818;stroke-width:0.6;"/><line style="stroke:#181818;stroke-width:0.6;" x1="409.5" x2="509.7" y1="241.8914" y2="241.8914"/><text fill="#000000" font-family="sans-serif" font-size="7.8" font-weight="bold" lengthAdjust="spacing" textLength="8.4" x="413.7" y="238.7338">10</text><text fill="#000000" font-family="sans-serif" font-size="7.8" lengthAdjust="spacing" textLength="65.4" x="424.5" y="238.7338">SetupConfiguration</text><polygon fill="#181818" points="631.5,258.266,637.5,260.666,631.5,263.066,633.9,260.666" style="stroke:#181818;stroke-width:0.6;"/><line style="stroke:#181818;stroke-width:0.6;" x1="519.3" x2="635.1" y1="260.666" y2="260.666"/><text fill="#000000" font-family="sans-serif" font-size="7.8" font-weight="bold" lengthAdjust="spacing" textLength="8.4" x="523.5" y="257.5084">11</text><text fill="#000000" font-family="sans-serif" font-size="7.8" lengthAdjust="spacing" textLength="97.2" x="534.3" y="257.5084">ConfigurationBuilder().build()</text><polygon fill="#181818" points="728.1,295.0406,734.1,297.4406,728.1,299.8406,730.5,297.4406" style="stroke:#181818;stroke-width:0.6;"/><line style="stroke:#181818;stroke-width:0.6;" x1="516.3" x2="731.7" y1="297.4406" y2="297.4406"/><text fill="#000000" font-family="sans-serif" font-size="7.8" font-weight="bold" lengthAdjust="spacing" textLength="8.4" x="520.5" y="294.283">12</text><text fill="#000000" font-family="sans-serif" font-size="7.8" lengthAdjust="spacing" textLength="65.4" x="531.3" y="294.283">saveConfiguration()</text><polygon fill="#181818" points="46.5,313.8152,40.5,316.2152,46.5,318.6152,44.1,316.2152" style="stroke:#181818;stroke-width:0.6;"/><line style="stroke:#181818;stroke-width:0.6;stroke-dasharray:2.0,2.0;" x1="42.9" x2="405.9" y1="316.2152" y2="316.2152"/><text fill="#000000" font-family="sans-serif" font-size="7.8" font-weight="bold" lengthAdjust="spacing" textLength="8.4" x="50.1" y="313.0576">13</text><text fill="#000000" font-family="sans-serif" font-size="7.8" lengthAdjust="spacing" textLength="91.2" x="60.9" y="313.0576">informs operation success</text><!--SRC=[XPBHZjem44NV_HKZda3gzWFG2cdX2TIeLRPyWCbEm6smKyy4nDztREBW0DtwpTOzSyTtHdViR7VSeLTAL-myJ5OTiJkYBxJLU_GJq0IhGhNQiwbCgot3v1svQrVErcRVUSt6sUqw2hThU7rjFH9QZk-BnVz8kR1tJPEiVfRVf8PksyPKJqkCw6Ldce-4BWNSNHy4KX-QzKuJmeWeiNLavAkNo9J2-E59i87QkDttkaO_1ZOFG0ZEd3HZY4cj2dXPX1pcelvDm0S4kX3Z4TW1XU-31ejdgFAkRaMsQwK43rLY5dEWWpkdPcWwomr589P19d9fRGvxv5mxI3UbKY9ukPNrqekt18qX1bV3huH9SZZYhWRfM__cCYns9lBeLmnXX0GQh5WYI5XEXRzd0VRQGVaGqb3TuvyEYGd2z63wTjkU7mUPvHTuixgvaA7-khQC_cJmtDzBfAxX_l9UUKHhx3xUPvyqo9SMAPb7xt6B82UqEMJ-kFvHSpTGw4yQh2ps79wj_NJsDUwx33enjrBBuIsVor8zgHyMX_G9HnvPqVl1FfgLJxNbrUiU7utEsDhv8u5hyUeBr5KLqdWDGvfvcKBz1G00]--></g></svg>