<?xml version="1.0" encoding="us-ascii" standalone="no"?><svg xmlns="http://www.w3.org/2000/svg" xmlns:xlink="http://www.w3.org/1999/xlink" contentStyleType="text/css" height="776px" preserveAspectRatio="none" style="width:502px;height:776px;background:#FFFFFF;" version="1.1" viewBox="0 0 502 776" width="502px" zoomAndPan="magnify"><defs/><g><!--class ListCandidatesUI--><g id="elem_ListCandidatesUI"><rect codeLine="3" fill="#F1F1F1" height="122.4844" id="ListCandidatesUI" rx="2.5" ry="2.5" style="stroke:#181818;stroke-width:0.5;" width="162" x="186.5" y="7"/><ellipse cx="212.3" cy="23" fill="#ADD1B2" rx="11" ry="11" style="stroke:#181818;stroke-width:1.0;"/><path d="M215.0656,18.875 Q215.2219,18.6563 215.4094,18.5469 Q215.5969,18.4375 215.8156,18.4375 Q216.1906,18.4375 216.425,18.7031 Q216.6594,18.9531 216.6594,19.5625 L216.6594,21.0156 Q216.6594,21.625 216.425,21.8906 Q216.1906,22.1563 215.8156,22.1563 Q215.4719,22.1563 215.2688,21.9531 Q215.0656,21.7656 214.9563,21.25 Q214.9094,20.8906 214.7219,20.7031 Q214.3938,20.3281 213.7844,20.1094 Q213.175,19.8906 212.55,19.8906 Q211.7844,19.8906 211.1438,20.2188 Q210.5188,20.5469 210.0188,21.2969 Q209.5344,22.0469 209.5344,23.0781 L209.5344,24.1719 Q209.5344,25.4063 210.425,26.2344 Q211.3156,27.0469 212.9094,27.0469 Q213.8469,27.0469 214.5031,26.7969 Q214.8938,26.6406 215.3156,26.2031 Q215.5813,25.9375 215.7219,25.8594 Q215.8781,25.7813 216.0813,25.7813 Q216.4094,25.7813 216.6594,26.0469 Q216.925,26.2969 216.925,26.6406 Q216.925,26.9844 216.5813,27.3906 Q216.0813,27.9688 215.2844,28.2969 Q214.2063,28.75 212.9094,28.75 Q211.3938,28.75 210.1906,28.125 Q209.2063,27.625 208.5188,26.5625 Q207.8313,25.4844 207.8313,24.2031 L207.8313,23.0469 Q207.8313,21.7188 208.4406,20.5781 Q209.0656,19.4219 210.1594,18.8125 Q211.2531,18.1875 212.4875,18.1875 Q213.2219,18.1875 213.8625,18.3594 Q214.5188,18.5156 215.0656,18.875 Z " fill="#000000"/><text fill="#000000" font-family="sans-serif" font-size="14" lengthAdjust="spacing" textLength="106" x="228.7" y="28.7969">ListCandidatesUI</text><line style="stroke:#181818;stroke-width:0.5;" x1="187.5" x2="347.5" y1="39" y2="39"/><rect fill="none" height="6" style="stroke:#C82930;stroke-width:1.0;" width="6" x="194.5" y="50.8105"/><text fill="#000000" font-family="sans-serif" font-size="14" lengthAdjust="spacing" textLength="82" x="206.5" y="58.1074">theController</text><rect fill="none" height="6" style="stroke:#C82930;stroke-width:1.0;" width="6" x="194.5" y="69.4316"/><text fill="#000000" font-family="sans-serif" font-size="14" lengthAdjust="spacing" textLength="136" x="206.5" y="76.7285">candidateDataWidget</text><line style="stroke:#181818;stroke-width:0.5;" x1="187.5" x2="347.5" y1="84.2422" y2="84.2422"/><ellipse cx="197.5" cy="99.0527" fill="#84BE84" rx="3" ry="3" style="stroke:#038048;stroke-width:1.0;"/><text fill="#000000" font-family="sans-serif" font-size="14" lengthAdjust="spacing" textLength="60" x="206.5" y="103.3496">doShow()</text><ellipse cx="197.5" cy="117.6738" fill="#84BE84" rx="3" ry="3" style="stroke:#038048;stroke-width:1.0;"/><text fill="#000000" font-family="sans-serif" font-size="14" lengthAdjust="spacing" textLength="64" x="206.5" y="121.9707">headline()</text></g><!--class ListCandidatesController--><g id="elem_ListCandidatesController"><rect codeLine="10" fill="#F1F1F1" height="103.8633" id="ListCandidatesController" rx="2.5" ry="2.5" style="stroke:#181818;stroke-width:0.5;" width="188" x="173.5" y="189"/><ellipse cx="188.5" cy="205" fill="#ADD1B2" rx="11" ry="11" style="stroke:#181818;stroke-width:1.0;"/><path d="M191.2656,200.875 Q191.4219,200.6563 191.6094,200.5469 Q191.7969,200.4375 192.0156,200.4375 Q192.3906,200.4375 192.625,200.7031 Q192.8594,200.9531 192.8594,201.5625 L192.8594,203.0156 Q192.8594,203.625 192.625,203.8906 Q192.3906,204.1563 192.0156,204.1563 Q191.6719,204.1563 191.4688,203.9531 Q191.2656,203.7656 191.1563,203.25 Q191.1094,202.8906 190.9219,202.7031 Q190.5938,202.3281 189.9844,202.1094 Q189.375,201.8906 188.75,201.8906 Q187.9844,201.8906 187.3438,202.2188 Q186.7188,202.5469 186.2188,203.2969 Q185.7344,204.0469 185.7344,205.0781 L185.7344,206.1719 Q185.7344,207.4063 186.625,208.2344 Q187.5156,209.0469 189.1094,209.0469 Q190.0469,209.0469 190.7031,208.7969 Q191.0938,208.6406 191.5156,208.2031 Q191.7813,207.9375 191.9219,207.8594 Q192.0781,207.7813 192.2813,207.7813 Q192.6094,207.7813 192.8594,208.0469 Q193.125,208.2969 193.125,208.6406 Q193.125,208.9844 192.7813,209.3906 Q192.2813,209.9688 191.4844,210.2969 Q190.4063,210.75 189.1094,210.75 Q187.5938,210.75 186.3906,210.125 Q185.4063,209.625 184.7188,208.5625 Q184.0313,207.4844 184.0313,206.2031 L184.0313,205.0469 Q184.0313,203.7188 184.6406,202.5781 Q185.2656,201.4219 186.3594,200.8125 Q187.4531,200.1875 188.6875,200.1875 Q189.4219,200.1875 190.0625,200.3594 Q190.7188,200.5156 191.2656,200.875 Z " fill="#000000"/><text fill="#000000" font-family="sans-serif" font-size="14" lengthAdjust="spacing" textLength="156" x="202.5" y="210.7969">ListCandidatesController</text><line style="stroke:#181818;stroke-width:0.5;" x1="174.5" x2="360.5" y1="221" y2="221"/><rect fill="none" height="6" style="stroke:#C82930;stroke-width:1.0;" width="6" x="181.5" y="232.8105"/><text fill="#000000" font-family="sans-serif" font-size="14" lengthAdjust="spacing" textLength="34" x="193.5" y="240.1074">authz</text><rect fill="none" height="6" style="stroke:#C82930;stroke-width:1.0;" width="6" x="181.5" y="251.4316"/><text fill="#000000" font-family="sans-serif" font-size="14" lengthAdjust="spacing" textLength="51" x="193.5" y="258.7285">userSvc</text><line style="stroke:#181818;stroke-width:0.5;" x1="174.5" x2="360.5" y1="266.2422" y2="266.2422"/><ellipse cx="184.5" cy="281.0527" fill="#84BE84" rx="3" ry="3" style="stroke:#038048;stroke-width:1.0;"/><text fill="#000000" font-family="sans-serif" font-size="14" lengthAdjust="spacing" textLength="135" x="193.5" y="285.3496">listCandidatesUsers()</text></g><!--class AuthorizationService--><g id="elem_AuthorizationService"><rect codeLine="16" fill="#F1F1F1" height="234.2109" id="AuthorizationService" rx="2.5" ry="2.5" style="stroke:#181818;stroke-width:0.5;" width="259" x="7" y="381"/><ellipse cx="67.75" cy="397" fill="#ADD1B2" rx="11" ry="11" style="stroke:#181818;stroke-width:1.0;"/><path d="M70.5156,392.875 Q70.6719,392.6563 70.8594,392.5469 Q71.0469,392.4375 71.2656,392.4375 Q71.6406,392.4375 71.875,392.7031 Q72.1094,392.9531 72.1094,393.5625 L72.1094,395.0156 Q72.1094,395.625 71.875,395.8906 Q71.6406,396.1563 71.2656,396.1563 Q70.9219,396.1563 70.7188,395.9531 Q70.5156,395.7656 70.4063,395.25 Q70.3594,394.8906 70.1719,394.7031 Q69.8438,394.3281 69.2344,394.1094 Q68.625,393.8906 68,393.8906 Q67.2344,393.8906 66.5938,394.2188 Q65.9688,394.5469 65.4688,395.2969 Q64.9844,396.0469 64.9844,397.0781 L64.9844,398.1719 Q64.9844,399.4063 65.875,400.2344 Q66.7656,401.0469 68.3594,401.0469 Q69.2969,401.0469 69.9531,400.7969 Q70.3438,400.6406 70.7656,400.2031 Q71.0313,399.9375 71.1719,399.8594 Q71.3281,399.7813 71.5313,399.7813 Q71.8594,399.7813 72.1094,400.0469 Q72.375,400.2969 72.375,400.6406 Q72.375,400.9844 72.0313,401.3906 Q71.5313,401.9688 70.7344,402.2969 Q69.6563,402.75 68.3594,402.75 Q66.8438,402.75 65.6406,402.125 Q64.6563,401.625 63.9688,400.5625 Q63.2813,399.4844 63.2813,398.2031 L63.2813,397.0469 Q63.2813,395.7188 63.8906,394.5781 Q64.5156,393.4219 65.6094,392.8125 Q66.7031,392.1875 67.9375,392.1875 Q68.6719,392.1875 69.3125,392.3594 Q69.9688,392.5156 70.5156,392.875 Z " fill="#000000"/><text fill="#000000" font-family="sans-serif" font-size="14" lengthAdjust="spacing" textLength="129" x="88.25" y="402.7969">AuthorizationService</text><line style="stroke:#181818;stroke-width:0.5;" x1="8" x2="265" y1="413" y2="413"/><rect fill="none" height="6" style="stroke:#C82930;stroke-width:1.0;" width="6" x="15" y="424.8105"/><text fill="#000000" font-family="sans-serif" font-size="14" lengthAdjust="spacing" textLength="60" x="27" y="432.1074">LOGGER</text><rect fill="none" height="6" style="stroke:#C82930;stroke-width:1.0;" width="6" x="15" y="443.4316"/><text fill="#000000" font-family="sans-serif" font-size="14" lengthAdjust="spacing" textLength="70" x="27" y="450.7285">theSession</text><line style="stroke:#181818;stroke-width:0.5;" x1="8" x2="265" y1="458.2422" y2="458.2422"/><ellipse cx="18" cy="473.0527" fill="#84BE84" rx="3" ry="3" style="stroke:#038048;stroke-width:1.0;"/><text fill="#000000" font-family="sans-serif" font-size="14" lengthAdjust="spacing" textLength="139" x="27" y="477.3496">AuthorizationService()</text><ellipse cx="18" cy="491.6738" fill="#84BE84" rx="3" ry="3" style="stroke:#038048;stroke-width:1.0;"/><text fill="#000000" font-family="sans-serif" font-size="14" lengthAdjust="spacing" textLength="151" x="27" y="495.9707">createSessionForUser()</text><ellipse cx="18" cy="510.2949" fill="#84BE84" rx="3" ry="3" style="stroke:#038048;stroke-width:1.0;"/><text fill="#000000" font-family="sans-serif" font-size="14" lengthAdjust="spacing" textLength="91" x="27" y="514.5918">clearSession()</text><ellipse cx="18" cy="528.916" fill="#84BE84" rx="3" ry="3" style="stroke:#038048;stroke-width:1.0;"/><text fill="#000000" font-family="sans-serif" font-size="14" lengthAdjust="spacing" textLength="83" x="27" y="533.2129">hasSession()</text><ellipse cx="18" cy="547.5371" fill="#84BE84" rx="3" ry="3" style="stroke:#038048;stroke-width:1.0;"/><text fill="#000000" font-family="sans-serif" font-size="14" lengthAdjust="spacing" textLength="58" x="27" y="551.834">session()</text><ellipse cx="18" cy="566.1582" fill="#84BE84" rx="3" ry="3" style="stroke:#038048;stroke-width:1.0;"/><text fill="#000000" font-family="sans-serif" font-size="14" lengthAdjust="spacing" textLength="220" x="27" y="570.4551">isAuthenticatedUserAuthorizedTo()</text><ellipse cx="18" cy="584.7793" fill="#84BE84" rx="3" ry="3" style="stroke:#038048;stroke-width:1.0;"/><text fill="#000000" font-family="sans-serif" font-size="14" lengthAdjust="spacing" textLength="233" x="27" y="589.0762">ensureAuthenticatedUserHasAnyOf()</text><ellipse cx="18" cy="603.4004" fill="#84BE84" rx="3" ry="3" style="stroke:#038048;stroke-width:1.0;"/><text fill="#000000" font-family="sans-serif" font-size="14" lengthAdjust="spacing" textLength="197" x="27" y="607.6973">loggedinUserWithPermissions()</text></g><!--class UserManagementService--><g id="elem_UserManagementService"><rect codeLine="28" fill="#F1F1F1" height="290.0742" id="UserManagementService" rx="2.5" ry="2.5" style="stroke:#181818;stroke-width:0.5;" width="194" x="301.5" y="353"/><ellipse cx="318.3" cy="369" fill="#ADD1B2" rx="11" ry="11" style="stroke:#181818;stroke-width:1.0;"/><path d="M321.0656,364.875 Q321.2219,364.6563 321.4094,364.5469 Q321.5969,364.4375 321.8156,364.4375 Q322.1906,364.4375 322.425,364.7031 Q322.6594,364.9531 322.6594,365.5625 L322.6594,367.0156 Q322.6594,367.625 322.425,367.8906 Q322.1906,368.1563 321.8156,368.1563 Q321.4719,368.1563 321.2688,367.9531 Q321.0656,367.7656 320.9563,367.25 Q320.9094,366.8906 320.7219,366.7031 Q320.3938,366.3281 319.7844,366.1094 Q319.175,365.8906 318.55,365.8906 Q317.7844,365.8906 317.1438,366.2188 Q316.5188,366.5469 316.0188,367.2969 Q315.5344,368.0469 315.5344,369.0781 L315.5344,370.1719 Q315.5344,371.4063 316.425,372.2344 Q317.3156,373.0469 318.9094,373.0469 Q319.8469,373.0469 320.5031,372.7969 Q320.8938,372.6406 321.3156,372.2031 Q321.5813,371.9375 321.7219,371.8594 Q321.8781,371.7813 322.0813,371.7813 Q322.4094,371.7813 322.6594,372.0469 Q322.925,372.2969 322.925,372.6406 Q322.925,372.9844 322.5813,373.3906 Q322.0813,373.9688 321.2844,374.2969 Q320.2063,374.75 318.9094,374.75 Q317.3938,374.75 316.1906,374.125 Q315.2063,373.625 314.5188,372.5625 Q313.8313,371.4844 313.8313,370.2031 L313.8313,369.0469 Q313.8313,367.7188 314.4406,366.5781 Q315.0656,365.4219 316.1594,364.8125 Q317.2531,364.1875 318.4875,364.1875 Q319.2219,364.1875 319.8625,364.3594 Q320.5188,364.5156 321.0656,364.875 Z " fill="#000000"/><text fill="#000000" font-family="sans-serif" font-size="14" lengthAdjust="spacing" textLength="158" x="332.7" y="374.7969">UserManagementService</text><line style="stroke:#181818;stroke-width:0.5;" x1="302.5" x2="494.5" y1="385" y2="385"/><rect fill="none" height="6" style="stroke:#C82930;stroke-width:1.0;" width="6" x="309.5" y="396.8105"/><text fill="#000000" font-family="sans-serif" font-size="14" lengthAdjust="spacing" textLength="96" x="321.5" y="404.1074">userRepository</text><rect fill="none" height="6" style="stroke:#C82930;stroke-width:1.0;" width="6" x="309.5" y="415.4316"/><text fill="#000000" font-family="sans-serif" font-size="14" lengthAdjust="spacing" textLength="52" x="321.5" y="422.7285">encoder</text><rect fill="none" height="6" style="stroke:#C82930;stroke-width:1.0;" width="6" x="309.5" y="434.0527"/><text fill="#000000" font-family="sans-serif" font-size="14" lengthAdjust="spacing" textLength="36" x="321.5" y="441.3496">policy</text><line style="stroke:#181818;stroke-width:0.5;" x1="302.5" x2="494.5" y1="448.8633" y2="448.8633"/><ellipse cx="312.5" cy="463.6738" fill="#84BE84" rx="3" ry="3" style="stroke:#038048;stroke-width:1.0;"/><text fill="#000000" font-family="sans-serif" font-size="14" lengthAdjust="spacing" textLength="168" x="321.5" y="467.9707">UserManagementService()</text><ellipse cx="312.5" cy="482.2949" fill="#84BE84" rx="3" ry="3" style="stroke:#038048;stroke-width:1.0;"/><text fill="#000000" font-family="sans-serif" font-size="14" lengthAdjust="spacing" textLength="113" x="321.5" y="486.5918">registerNewUser()</text><ellipse cx="312.5" cy="500.916" fill="#84BE84" rx="3" ry="3" style="stroke:#038048;stroke-width:1.0;"/><text fill="#000000" font-family="sans-serif" font-size="14" lengthAdjust="spacing" textLength="113" x="321.5" y="505.2129">registerNewUser()</text><ellipse cx="312.5" cy="519.5371" fill="#84BE84" rx="3" ry="3" style="stroke:#038048;stroke-width:1.0;"/><text fill="#000000" font-family="sans-serif" font-size="14" lengthAdjust="spacing" textLength="87" x="321.5" y="523.834">registerUser()</text><ellipse cx="312.5" cy="538.1582" fill="#84BE84" rx="3" ry="3" style="stroke:#038048;stroke-width:1.0;"/><text fill="#000000" font-family="sans-serif" font-size="14" lengthAdjust="spacing" textLength="83" x="321.5" y="542.4551">activeUsers()</text><ellipse cx="312.5" cy="556.7793" fill="#84BE84" rx="3" ry="3" style="stroke:#038048;stroke-width:1.0;"/><text fill="#000000" font-family="sans-serif" font-size="14" lengthAdjust="spacing" textLength="119" x="321.5" y="561.0762">deactivatedUsers()</text><ellipse cx="312.5" cy="575.4004" fill="#84BE84" rx="3" ry="3" style="stroke:#038048;stroke-width:1.0;"/><text fill="#000000" font-family="sans-serif" font-size="14" lengthAdjust="spacing" textLength="60" x="321.5" y="579.6973">allUsers()</text><ellipse cx="312.5" cy="594.0215" fill="#84BE84" rx="3" ry="3" style="stroke:#038048;stroke-width:1.0;"/><text fill="#000000" font-family="sans-serif" font-size="14" lengthAdjust="spacing" textLength="98" x="321.5" y="598.3184">userOfIdentity()</text><ellipse cx="312.5" cy="612.6426" fill="#84BE84" rx="3" ry="3" style="stroke:#038048;stroke-width:1.0;"/><text fill="#000000" font-family="sans-serif" font-size="14" lengthAdjust="spacing" textLength="104" x="321.5" y="616.9395">deactivateUser()</text><ellipse cx="312.5" cy="631.2637" fill="#84BE84" rx="3" ry="3" style="stroke:#038048;stroke-width:1.0;"/><text fill="#000000" font-family="sans-serif" font-size="14" lengthAdjust="spacing" textLength="88" x="321.5" y="635.5605">activateUser()</text></g><!--class UserRepository--><g id="elem_UserRepository"><rect codeLine="43" fill="#F1F1F1" height="66.6211" id="UserRepository" rx="2.5" ry="2.5" style="stroke:#181818;stroke-width:0.5;" width="130" x="333.5" y="703"/><ellipse cx="348.5" cy="719" fill="#B4A7E5" rx="11" ry="11" style="stroke:#181818;stroke-width:1.0;"/><path d="M349.4531,715.6406 L349.4531,722.2969 L351.1719,722.2969 Q351.7813,722.2969 352.0469,722.5313 Q352.3125,722.7656 352.3125,723.1563 Q352.3125,723.5313 352.0469,723.7656 Q351.7813,724 351.1719,724 L346.0313,724 Q345.4219,724 345.1563,723.7656 Q344.8906,723.5313 344.8906,723.1406 Q344.8906,722.7656 345.1563,722.5313 Q345.4219,722.2969 346.0313,722.2969 L347.75,722.2969 L347.75,715.6406 L346.0313,715.6406 Q345.4219,715.6406 345.1563,715.4063 Q344.8906,715.1719 344.8906,714.7813 Q344.8906,714.4063 345.1563,714.1719 Q345.4219,713.9375 346.0313,713.9375 L351.1719,713.9375 Q351.7813,713.9375 352.0469,714.1719 Q352.3125,714.4063 352.3125,714.7813 Q352.3125,715.1719 352.0469,715.4063 Q351.7813,715.6406 351.1719,715.6406 L349.4531,715.6406 Z " fill="#000000"/><text fill="#000000" font-family="sans-serif" font-size="14" font-style="italic" lengthAdjust="spacing" textLength="98" x="362.5" y="724.7969">UserRepository</text><line style="stroke:#181818;stroke-width:0.5;" x1="334.5" x2="462.5" y1="735" y2="735"/><line style="stroke:#181818;stroke-width:0.5;" x1="334.5" x2="462.5" y1="743" y2="743"/><ellipse cx="344.5" cy="757.8105" fill="#84BE84" rx="3" ry="3" style="stroke:#038048;stroke-width:1.0;"/><text fill="#000000" font-family="sans-serif" font-size="14" lengthAdjust="spacing" textLength="87" x="353.5" y="762.1074">findByActive()</text></g><!--link ListCandidatesUI to ListCandidatesController--><g id="link_ListCandidatesUI_ListCandidatesController"><path codeLine="47" d="M267.5,129.29 C267.5,148.71 267.5,152.04 267.5,170.75 " fill="none" id="ListCandidatesUI-to-ListCandidatesController" style="stroke:#181818;stroke-width:1.0;"/><polygon fill="none" points="267.5,188.75,273.5,170.75,261.5,170.75,267.5,188.75" style="stroke:#181818;stroke-width:1.0;"/></g><!--link ListCandidatesController to AuthorizationService--><g id="link_ListCandidatesController_AuthorizationService"><path codeLine="48" d="M241.15,293.3 C228.15,318.6 220.1244,334.2188 204.3344,364.9588 " fill="none" id="ListCandidatesController-to-AuthorizationService" style="stroke:#181818;stroke-width:1.0;"/><polygon fill="none" points="196.11,380.97,209.6715,367.7002,198.9973,362.2173,196.11,380.97" style="stroke:#181818;stroke-width:1.0;"/></g><!--link ListCandidatesController to UserManagementService--><g id="link_ListCandidatesController_UserManagementService"><path codeLine="49" d="M293.85,293.3 C302.89,310.89 305.2732,315.54 316.2132,336.83 " fill="none" id="ListCandidatesController-to-UserManagementService" style="stroke:#181818;stroke-width:1.0;"/><polygon fill="none" points="324.44,352.84,321.5498,334.0877,310.8765,339.5723,324.44,352.84" style="stroke:#181818;stroke-width:1.0;"/></g><!--link UserManagementService to UserRepository--><g id="link_UserManagementService_UserRepository"><path codeLine="50" d="M398.5,643.05 C398.5,665.42 398.5,668.5 398.5,684.87 " fill="none" id="UserManagementService-to-UserRepository" style="stroke:#181818;stroke-width:1.0;"/><polygon fill="none" points="398.5,702.87,404.5,684.87,392.5,684.87,398.5,702.87" style="stroke:#181818;stroke-width:1.0;"/></g><!--SRC=[XLB1Ri8m3BttAxXjqyIuxp29iOqXiJ719ivMObfBQOAI02gCVv-JKbfOsKwjd-tt_1nVPTultNsljrIW_IfNTyBaFQ70kQuaI2taIHB3pfYS7u2M9C6Z-nhjacx7PpWmsbkZ55gEHPL_0WzpaYdwvBOZpImpc-iR_iqGf2AD7EpRYMk-800hdstvkt9ePsl13Efq3CPTawpF3SRI5ZmPFKEx9e61Q3mP3f-dvSWpT8wpJDPM7USK5fd-KFXYRD0f4mh17l3I4RXcw1h_v08_Qa-2oMJWg0HHVffOWzgjBFwgUmNNryLa4MkKILEKf4DYJZxxG9jJb2cjbyv3zWqqf9WpLSDwsDqKbyQHDxPW0BKmChxNqYWI1KkqDaTnYobl7EqxRevB-0ix0Y0yhR5w8Bu2Z4Zbi0H1gJe8WquM8nasuOkpfbFU6jWdf5bs0GAZYzhfZeiNfELZqO-Zb6ToViQTRlVxuU8D9fSIPLlR_VpJqhhff1Mj6nhFzmC0]--></g></svg>