<?xml version="1.0" encoding="UTF-8" standalone="no"?><svg xmlns="http://www.w3.org/2000/svg" xmlns:xlink="http://www.w3.org/1999/xlink" contentStyleType="text/css" height="1434px" preserveAspectRatio="none" style="width:4073px;height:1434px;background:#FFFFFF;" version="1.1" viewBox="0 0 4073 1434" width="4073px" zoomAndPan="magnify"><defs/><g><rect fill="#FFFFFF" height="1201.6875" style="stroke:#181818;stroke-width:1.0;" width="10" x="43" y="111.3125"/><rect fill="#FFFFFF" height="1170.5313" style="stroke:#181818;stroke-width:1.0;" width="10" x="457" y="142.4688"/><rect fill="#FFFFFF" height="156.625" style="stroke:#181818;stroke-width:1.0;" width="10" x="831" y="181.625"/><rect fill="#FFFFFF" height="887.4375" style="stroke:#181818;stroke-width:1.0;" width="10" x="1054" y="377.4063"/><rect fill="#FFFFFF" height="39.1563" style="stroke:#181818;stroke-width:1.0;" width="10" x="1742" y="416.5625"/><rect fill="#FFFFFF" height="39.1563" style="stroke:#181818;stroke-width:1.0;" width="10" x="1945.5" y="494.875"/><rect fill="#FFFFFF" height="247.9375" style="stroke:#181818;stroke-width:1.0;" width="10" x="2170.5" y="573.1875"/><rect fill="#FFFFFF" height="91.3125" style="stroke:#181818;stroke-width:1.0;" width="10" x="2519" y="612.3438"/><rect fill="#FFFFFF" height="39.1563" style="stroke:#181818;stroke-width:1.0;" width="10" x="2690.5" y="742.8125"/><rect fill="#FFFFFF" height="39.1563" style="stroke:#181818;stroke-width:1.0;" width="10" x="2839" y="860.2813"/><rect fill="#FFFFFF" height="39.1563" style="stroke:#181818;stroke-width:1.0;" width="10" x="2985" y="938.5938"/><rect fill="#FFFFFF" height="208.7813" style="stroke:#181818;stroke-width:1.0;" width="10" x="3322" y="1016.9063"/><rect fill="#FFFFFF" height="169.625" style="stroke:#181818;stroke-width:1.0;" width="10" x="3637" y="1056.0625"/><rect fill="#FFFFFF" height="39.1563" style="stroke:#181818;stroke-width:1.0;" width="10" x="3952" y="1147.375"/><line style="stroke:#181818;stroke-width:0.5;stroke-dasharray:5.0,5.0;" x1="48" x2="48" y1="101.3125" y2="1322"/><line style="stroke:#181818;stroke-width:0.5;stroke-dasharray:5.0,5.0;" x1="461.5" x2="461.5" y1="101.3125" y2="1322"/><line style="stroke:#181818;stroke-width:0.5;stroke-dasharray:5.0,5.0;" x1="835.5" x2="835.5" y1="101.3125" y2="1322"/><line style="stroke:#181818;stroke-width:0.5;stroke-dasharray:5.0,5.0;" x1="1058.5" x2="1058.5" y1="101.3125" y2="1322"/><line style="stroke:#181818;stroke-width:0.5;stroke-dasharray:5.0,5.0;" x1="1746.5" x2="1746.5" y1="101.3125" y2="1322"/><line style="stroke:#181818;stroke-width:0.5;stroke-dasharray:5.0,5.0;" x1="1950.5" x2="1950.5" y1="101.3125" y2="1322"/><line style="stroke:#181818;stroke-width:0.5;stroke-dasharray:5.0,5.0;" x1="2175.5" x2="2175.5" y1="101.3125" y2="1322"/><line style="stroke:#181818;stroke-width:0.5;stroke-dasharray:5.0,5.0;" x1="2362.5" x2="2362.5" y1="101.3125" y2="1322"/><line style="stroke:#181818;stroke-width:0.5;stroke-dasharray:5.0,5.0;" x1="2523.5" x2="2523.5" y1="101.3125" y2="1322"/><line style="stroke:#181818;stroke-width:0.5;stroke-dasharray:5.0,5.0;" x1="2695.5" x2="2695.5" y1="101.3125" y2="1322"/><line style="stroke:#181818;stroke-width:0.5;stroke-dasharray:5.0,5.0;" x1="2843.5" x2="2843.5" y1="101.3125" y2="1322"/><line style="stroke:#181818;stroke-width:0.5;stroke-dasharray:5.0,5.0;" x1="2989.5" x2="2989.5" y1="101.3125" y2="1322"/><line style="stroke:#181818;stroke-width:0.5;stroke-dasharray:5.0,5.0;" x1="3140.5" x2="3140.5" y1="101.3125" y2="1322"/><line style="stroke:#181818;stroke-width:0.5;stroke-dasharray:5.0,5.0;" x1="3326.5" x2="3326.5" y1="101.3125" y2="1322"/><line style="stroke:#181818;stroke-width:0.5;stroke-dasharray:5.0,5.0;" x1="3642" x2="3642" y1="101.3125" y2="1322"/><line style="stroke:#181818;stroke-width:0.5;stroke-dasharray:5.0,5.0;" x1="3956.5" x2="3956.5" y1="101.3125" y2="1322"/><text fill="#000000" font-family="sans-serif" font-size="20" lengthAdjust="spacing" textLength="80" x="5" y="96.918">Operator</text><ellipse cx="48" cy="24.6563" fill="#E2E2F0" rx="8" ry="8" style="stroke:#181818;stroke-width:0.5;"/><path d="M48,32.6563 L48,59.6563 M35,40.6563 L61,40.6563 M48,59.6563 L35,74.6563 M48,59.6563 L61,74.6563 " fill="none" style="stroke:#181818;stroke-width:0.5;"/><text fill="#000000" font-family="sans-serif" font-size="20" lengthAdjust="spacing" textLength="80" x="5" y="1341.7617">Operator</text><ellipse cx="48" cy="1354.6563" fill="#E2E2F0" rx="8" ry="8" style="stroke:#181818;stroke-width:0.5;"/><path d="M48,1362.6563 L48,1389.6563 M35,1370.6563 L61,1370.6563 M48,1389.6563 L35,1404.6563 M48,1389.6563 L61,1404.6563 " fill="none" style="stroke:#181818;stroke-width:0.5;"/><rect fill="#E2E2F0" height="64.3125" rx="2.5" ry="2.5" style="stroke:#181818;stroke-width:0.5;" width="157" x="383.5" y="36"/><text fill="#000000" font-family="sans-serif" font-size="20" font-style="italic" lengthAdjust="spacing" textLength="131" x="396.5" y="63.7617">«presentation»</text><text fill="#000000" font-family="sans-serif" font-size="20" lengthAdjust="spacing" textLength="143" x="390.5" y="88.918">AddCandidateUI</text><rect fill="#E2E2F0" height="64.3125" rx="2.5" ry="2.5" style="stroke:#181818;stroke-width:0.5;" width="157" x="383.5" y="1321"/><text fill="#000000" font-family="sans-serif" font-size="20" font-style="italic" lengthAdjust="spacing" textLength="131" x="396.5" y="1348.7617">«presentation»</text><text fill="#000000" font-family="sans-serif" font-size="20" lengthAdjust="spacing" textLength="143" x="390.5" y="1373.918">AddCandidateUI</text><rect fill="#E2E2F0" height="64.3125" rx="2.5" ry="2.5" style="stroke:#181818;stroke-width:0.5;" width="207" x="732.5" y="36"/><text fill="#000000" font-family="sans-serif" font-size="20" font-style="italic" lengthAdjust="spacing" textLength="79" x="796.5" y="63.7617">«widget»</text><text fill="#000000" font-family="sans-serif" font-size="20" lengthAdjust="spacing" textLength="193" x="739.5" y="88.918">CandidateDataWidget</text><rect fill="#E2E2F0" height="64.3125" rx="2.5" ry="2.5" style="stroke:#181818;stroke-width:0.5;" width="207" x="732.5" y="1321"/><text fill="#000000" font-family="sans-serif" font-size="20" font-style="italic" lengthAdjust="spacing" textLength="79" x="796.5" y="1348.7617">«widget»</text><text fill="#000000" font-family="sans-serif" font-size="20" lengthAdjust="spacing" textLength="193" x="739.5" y="1373.918">CandidateDataWidget</text><rect fill="#E2E2F0" height="64.3125" rx="2.5" ry="2.5" style="stroke:#181818;stroke-width:0.5;" width="219" x="949.5" y="36"/><text fill="#000000" font-family="sans-serif" font-size="20" font-style="italic" lengthAdjust="spacing" textLength="109" x="1004.5" y="63.7617">«Aplication»</text><text fill="#000000" font-family="sans-serif" font-size="20" lengthAdjust="spacing" textLength="205" x="956.5" y="88.918">AddcandidateController</text><rect fill="#E2E2F0" height="64.3125" rx="2.5" ry="2.5" style="stroke:#181818;stroke-width:0.5;" width="219" x="949.5" y="1321"/><text fill="#000000" font-family="sans-serif" font-size="20" font-style="italic" lengthAdjust="spacing" textLength="109" x="1004.5" y="1348.7617">«Aplication»</text><text fill="#000000" font-family="sans-serif" font-size="20" lengthAdjust="spacing" textLength="205" x="956.5" y="1373.918">AddcandidateController</text><rect fill="#E2E2F0" height="39.1563" rx="2.5" ry="2.5" style="stroke:#181818;stroke-width:0.5;" width="191" x="1651.5" y="61.1563"/><text fill="#000000" font-family="sans-serif" font-size="20" lengthAdjust="spacing" textLength="177" x="1658.5" y="88.918">AuthorizationService</text><rect fill="#E2E2F0" height="39.1563" rx="2.5" ry="2.5" style="stroke:#181818;stroke-width:0.5;" width="191" x="1651.5" y="1321"/><text fill="#000000" font-family="sans-serif" font-size="20" lengthAdjust="spacing" textLength="177" x="1658.5" y="1348.7617">AuthorizationService</text><rect fill="#E2E2F0" height="64.3125" rx="2.5" ry="2.5" style="stroke:#181818;stroke-width:0.5;" width="196" x="1852.5" y="36"/><text fill="#000000" font-family="sans-serif" font-size="20" font-style="italic" lengthAdjust="spacing" textLength="107" x="1897" y="63.7617">«generator»</text><text fill="#000000" font-family="sans-serif" font-size="20" lengthAdjust="spacing" textLength="182" x="1859.5" y="88.918">PassWordGenerator</text><rect fill="#E2E2F0" height="64.3125" rx="2.5" ry="2.5" style="stroke:#181818;stroke-width:0.5;" width="196" x="1852.5" y="1321"/><text fill="#000000" font-family="sans-serif" font-size="20" font-style="italic" lengthAdjust="spacing" textLength="107" x="1897" y="1348.7617">«generator»</text><text fill="#000000" font-family="sans-serif" font-size="20" lengthAdjust="spacing" textLength="182" x="1859.5" y="1373.918">PassWordGenerator</text><rect fill="#E2E2F0" height="39.1563" rx="2.5" ry="2.5" style="stroke:#181818;stroke-width:0.5;" width="234" x="2058.5" y="61.1563"/><text fill="#000000" font-family="sans-serif" font-size="20" lengthAdjust="spacing" textLength="220" x="2065.5" y="88.918">UserManagementService</text><rect fill="#E2E2F0" height="39.1563" rx="2.5" ry="2.5" style="stroke:#181818;stroke-width:0.5;" width="234" x="2058.5" y="1321"/><text fill="#000000" font-family="sans-serif" font-size="20" lengthAdjust="spacing" textLength="220" x="2065.5" y="1348.7617">UserManagementService</text><rect fill="#E2E2F0" height="64.3125" rx="2.5" ry="2.5" style="stroke:#181818;stroke-width:0.5;" width="121" x="2302.5" y="36"/><text fill="#000000" font-family="sans-serif" font-size="20" font-style="italic" lengthAdjust="spacing" textLength="88" x="2319" y="63.7617">«domain»</text><text fill="#000000" font-family="sans-serif" font-size="20" lengthAdjust="spacing" textLength="107" x="2309.5" y="88.918">SystemUser</text><rect fill="#E2E2F0" height="64.3125" rx="2.5" ry="2.5" style="stroke:#181818;stroke-width:0.5;" width="121" x="2302.5" y="1321"/><text fill="#000000" font-family="sans-serif" font-size="20" font-style="italic" lengthAdjust="spacing" textLength="88" x="2319" y="1348.7617">«domain»</text><text fill="#000000" font-family="sans-serif" font-size="20" lengthAdjust="spacing" textLength="107" x="2309.5" y="1373.918">SystemUser</text><rect fill="#E2E2F0" height="64.3125" rx="2.5" ry="2.5" style="stroke:#181818;stroke-width:0.5;" width="181" x="2433.5" y="36"/><text fill="#000000" font-family="sans-serif" font-size="20" font-style="italic" lengthAdjust="spacing" textLength="83" x="2482.5" y="63.7617">«builder»</text><text fill="#000000" font-family="sans-serif" font-size="20" lengthAdjust="spacing" textLength="167" x="2440.5" y="88.918">SystemUserBuilder</text><rect fill="#E2E2F0" height="64.3125" rx="2.5" ry="2.5" style="stroke:#181818;stroke-width:0.5;" width="181" x="2433.5" y="1321"/><text fill="#000000" font-family="sans-serif" font-size="20" font-style="italic" lengthAdjust="spacing" textLength="83" x="2482.5" y="1348.7617">«builder»</text><text fill="#000000" font-family="sans-serif" font-size="20" lengthAdjust="spacing" textLength="167" x="2440.5" y="1373.918">SystemUserBuilder</text><text fill="#000000" font-family="sans-serif" font-size="20" font-style="italic" lengthAdjust="spacing" textLength="110" x="2637.5" y="71.7617">«repository»</text><text fill="#000000" font-family="sans-serif" font-size="20" lengthAdjust="spacing" textLength="136" x="2624.5" y="96.918">UserRepository</text><path d="M2677.5,15 C2677.5,5 2695.5,5 2695.5,5 C2695.5,5 2713.5,5 2713.5,15 L2713.5,41 C2713.5,51 2695.5,51 2695.5,51 C2695.5,51 2677.5,51 2677.5,41 L2677.5,15 " fill="#E2E2F0" style="stroke:#181818;stroke-width:1.5;"/><path d="M2677.5,15 C2677.5,25 2695.5,25 2695.5,25 C2695.5,25 2713.5,25 2713.5,15 " fill="none" style="stroke:#181818;stroke-width:1.5;"/><text fill="#000000" font-family="sans-serif" font-size="20" font-style="italic" lengthAdjust="spacing" textLength="110" x="2637.5" y="1341.7617">«repository»</text><text fill="#000000" font-family="sans-serif" font-size="20" lengthAdjust="spacing" textLength="136" x="2624.5" y="1366.918">UserRepository</text><path d="M2677.5,1381.3125 C2677.5,1371.3125 2695.5,1371.3125 2695.5,1371.3125 C2695.5,1371.3125 2713.5,1371.3125 2713.5,1381.3125 L2713.5,1407.3125 C2713.5,1417.3125 2695.5,1417.3125 2695.5,1417.3125 C2695.5,1417.3125 2677.5,1417.3125 2677.5,1407.3125 L2677.5,1381.3125 " fill="#E2E2F0" style="stroke:#181818;stroke-width:1.5;"/><path d="M2677.5,1381.3125 C2677.5,1391.3125 2695.5,1391.3125 2695.5,1391.3125 C2695.5,1391.3125 2713.5,1391.3125 2713.5,1381.3125 " fill="none" style="stroke:#181818;stroke-width:1.5;"/><rect fill="#E2E2F0" height="64.3125" rx="2.5" ry="2.5" style="stroke:#181818;stroke-width:0.5;" width="135" x="2776.5" y="36"/><text fill="#000000" font-family="sans-serif" font-size="20" font-style="italic" lengthAdjust="spacing" textLength="88" x="2800" y="63.7617">«domain»</text><text fill="#000000" font-family="sans-serif" font-size="20" lengthAdjust="spacing" textLength="121" x="2783.5" y="88.918">EmailAddress</text><rect fill="#E2E2F0" height="64.3125" rx="2.5" ry="2.5" style="stroke:#181818;stroke-width:0.5;" width="135" x="2776.5" y="1321"/><text fill="#000000" font-family="sans-serif" font-size="20" font-style="italic" lengthAdjust="spacing" textLength="88" x="2800" y="1348.7617">«domain»</text><text fill="#000000" font-family="sans-serif" font-size="20" lengthAdjust="spacing" textLength="121" x="2783.5" y="1373.918">EmailAddress</text><rect fill="#E2E2F0" height="64.3125" rx="2.5" ry="2.5" style="stroke:#181818;stroke-width:0.5;" width="137" x="2921.5" y="36"/><text fill="#000000" font-family="sans-serif" font-size="20" font-style="italic" lengthAdjust="spacing" textLength="88" x="2946" y="63.7617">«domain»</text><text fill="#000000" font-family="sans-serif" font-size="20" lengthAdjust="spacing" textLength="123" x="2928.5" y="88.918">PhoneNumber</text><rect fill="#E2E2F0" height="64.3125" rx="2.5" ry="2.5" style="stroke:#181818;stroke-width:0.5;" width="137" x="2921.5" y="1321"/><text fill="#000000" font-family="sans-serif" font-size="20" font-style="italic" lengthAdjust="spacing" textLength="88" x="2946" y="1348.7617">«domain»</text><text fill="#000000" font-family="sans-serif" font-size="20" lengthAdjust="spacing" textLength="123" x="2928.5" y="1373.918">PhoneNumber</text><rect fill="#E2E2F0" height="64.3125" rx="2.5" ry="2.5" style="stroke:#181818;stroke-width:0.5;" width="144" x="3068.5" y="36"/><text fill="#000000" font-family="sans-serif" font-size="20" font-style="italic" lengthAdjust="spacing" textLength="88" x="3096.5" y="63.7617">«domain»</text><text fill="#000000" font-family="sans-serif" font-size="20" lengthAdjust="spacing" textLength="130" x="3075.5" y="88.918">CandidateUser</text><rect fill="#E2E2F0" height="64.3125" rx="2.5" ry="2.5" style="stroke:#181818;stroke-width:0.5;" width="144" x="3068.5" y="1321"/><text fill="#000000" font-family="sans-serif" font-size="20" font-style="italic" lengthAdjust="spacing" textLength="88" x="3096.5" y="1348.7617">«domain»</text><text fill="#000000" font-family="sans-serif" font-size="20" lengthAdjust="spacing" textLength="130" x="3075.5" y="1373.918">CandidateUser</text><rect fill="#E2E2F0" height="64.3125" rx="2.5" ry="2.5" style="stroke:#181818;stroke-width:0.5;" width="209" x="3222.5" y="36"/><text fill="#000000" font-family="sans-serif" font-size="20" font-style="italic" lengthAdjust="spacing" textLength="108" x="3273" y="63.7617">«candidate»</text><text fill="#000000" font-family="sans-serif" font-size="20" lengthAdjust="spacing" textLength="195" x="3229.5" y="88.918">CandidateUserService</text><rect fill="#E2E2F0" height="64.3125" rx="2.5" ry="2.5" style="stroke:#181818;stroke-width:0.5;" width="209" x="3222.5" y="1321"/><text fill="#000000" font-family="sans-serif" font-size="20" font-style="italic" lengthAdjust="spacing" textLength="108" x="3273" y="1348.7617">«candidate»</text><text fill="#000000" font-family="sans-serif" font-size="20" lengthAdjust="spacing" textLength="195" x="3229.5" y="1373.918">CandidateUserService</text><rect fill="#E2E2F0" height="64.3125" rx="2.5" ry="2.5" style="stroke:#181818;stroke-width:0.5;" width="204" x="3540" y="36"/><text fill="#000000" font-family="sans-serif" font-size="20" font-style="italic" lengthAdjust="spacing" textLength="83" x="3600.5" y="63.7617">«builder»</text><text fill="#000000" font-family="sans-serif" font-size="20" lengthAdjust="spacing" textLength="190" x="3547" y="88.918">CandidateUserBuilder</text><rect fill="#E2E2F0" height="64.3125" rx="2.5" ry="2.5" style="stroke:#181818;stroke-width:0.5;" width="204" x="3540" y="1321"/><text fill="#000000" font-family="sans-serif" font-size="20" font-style="italic" lengthAdjust="spacing" textLength="83" x="3600.5" y="1348.7617">«builder»</text><text fill="#000000" font-family="sans-serif" font-size="20" lengthAdjust="spacing" textLength="190" x="3547" y="1373.918">CandidateUserBuilder</text><text fill="#000000" font-family="sans-serif" font-size="20" font-style="italic" lengthAdjust="spacing" textLength="110" x="3899" y="71.7617">«repository»</text><text fill="#000000" font-family="sans-serif" font-size="20" lengthAdjust="spacing" textLength="225" x="3841.5" y="96.918">CandidateUserRepository</text><path d="M3939,15 C3939,5 3957,5 3957,5 C3957,5 3975,5 3975,15 L3975,41 C3975,51 3957,51 3957,51 C3957,51 3939,51 3939,41 L3939,15 " fill="#E2E2F0" style="stroke:#181818;stroke-width:1.5;"/><path d="M3939,15 C3939,25 3957,25 3957,25 C3957,25 3975,25 3975,15 " fill="none" style="stroke:#181818;stroke-width:1.5;"/><text fill="#000000" font-family="sans-serif" font-size="20" font-style="italic" lengthAdjust="spacing" textLength="110" x="3899" y="1341.7617">«repository»</text><text fill="#000000" font-family="sans-serif" font-size="20" lengthAdjust="spacing" textLength="225" x="3841.5" y="1366.918">CandidateUserRepository</text><path d="M3939,1381.3125 C3939,1371.3125 3957,1371.3125 3957,1371.3125 C3957,1371.3125 3975,1371.3125 3975,1381.3125 L3975,1407.3125 C3975,1417.3125 3957,1417.3125 3957,1417.3125 C3957,1417.3125 3939,1417.3125 3939,1407.3125 L3939,1381.3125 " fill="#E2E2F0" style="stroke:#181818;stroke-width:1.5;"/><path d="M3939,1381.3125 C3939,1391.3125 3957,1391.3125 3957,1391.3125 C3957,1391.3125 3975,1391.3125 3975,1381.3125 " fill="none" style="stroke:#181818;stroke-width:1.5;"/><rect fill="#FFFFFF" height="1201.6875" style="stroke:#181818;stroke-width:1.0;" width="10" x="43" y="111.3125"/><rect fill="#FFFFFF" height="1170.5313" style="stroke:#181818;stroke-width:1.0;" width="10" x="457" y="142.4688"/><rect fill="#FFFFFF" height="156.625" style="stroke:#181818;stroke-width:1.0;" width="10" x="831" y="181.625"/><rect fill="#FFFFFF" height="887.4375" style="stroke:#181818;stroke-width:1.0;" width="10" x="1054" y="377.4063"/><rect fill="#FFFFFF" height="39.1563" style="stroke:#181818;stroke-width:1.0;" width="10" x="1742" y="416.5625"/><rect fill="#FFFFFF" height="39.1563" style="stroke:#181818;stroke-width:1.0;" width="10" x="1945.5" y="494.875"/><rect fill="#FFFFFF" height="247.9375" style="stroke:#181818;stroke-width:1.0;" width="10" x="2170.5" y="573.1875"/><rect fill="#FFFFFF" height="91.3125" style="stroke:#181818;stroke-width:1.0;" width="10" x="2519" y="612.3438"/><rect fill="#FFFFFF" height="39.1563" style="stroke:#181818;stroke-width:1.0;" width="10" x="2690.5" y="742.8125"/><rect fill="#FFFFFF" height="39.1563" style="stroke:#181818;stroke-width:1.0;" width="10" x="2839" y="860.2813"/><rect fill="#FFFFFF" height="39.1563" style="stroke:#181818;stroke-width:1.0;" width="10" x="2985" y="938.5938"/><rect fill="#FFFFFF" height="208.7813" style="stroke:#181818;stroke-width:1.0;" width="10" x="3322" y="1016.9063"/><rect fill="#FFFFFF" height="169.625" style="stroke:#181818;stroke-width:1.0;" width="10" x="3637" y="1056.0625"/><rect fill="#FFFFFF" height="39.1563" style="stroke:#181818;stroke-width:1.0;" width="10" x="3952" y="1147.375"/><polygon fill="#181818" points="445,138.4688,455,142.4688,445,146.4688,449,142.4688" style="stroke:#181818;stroke-width:1.0;"/><line style="stroke:#181818;stroke-width:1.0;" x1="53" x2="451" y1="142.4688" y2="142.4688"/><text fill="#000000" font-family="sans-serif" font-size="20" font-weight="bold" lengthAdjust="spacing" textLength="11" x="60" y="136.0742">1</text><text fill="#000000" font-family="sans-serif" font-size="20" lengthAdjust="spacing" textLength="236" x="75" y="136.0742">asks to add new candidate</text><polygon fill="#181818" points="819,177.625,829,181.625,819,185.625,823,181.625" style="stroke:#181818;stroke-width:1.0;"/><line style="stroke:#181818;stroke-width:1.0;" x1="467" x2="825" y1="181.625" y2="181.625"/><text fill="#000000" font-family="sans-serif" font-size="20" font-weight="bold" lengthAdjust="spacing" textLength="11" x="474" y="175.2305">2</text><text fill="#000000" font-family="sans-serif" font-size="20" lengthAdjust="spacing" textLength="85" x="489" y="175.2305">doShow()</text><polygon fill="#181818" points="478,216.7813,468,220.7813,478,224.7813,474,220.7813" style="stroke:#181818;stroke-width:1.0;"/><line style="stroke:#181818;stroke-width:1.0;stroke-dasharray:2.0,2.0;" x1="472" x2="830" y1="220.7813" y2="220.7813"/><text fill="#000000" font-family="sans-serif" font-size="20" font-weight="bold" lengthAdjust="spacing" textLength="11" x="484" y="214.3867">3</text><text fill="#000000" font-family="sans-serif" font-size="20" lengthAdjust="spacing" textLength="60" x="499" y="214.3867">show()</text><polygon fill="#181818" points="64,255.9375,54,259.9375,64,263.9375,60,259.9375" style="stroke:#181818;stroke-width:1.0;"/><line style="stroke:#181818;stroke-width:1.0;stroke-dasharray:2.0,2.0;" x1="58" x2="456" y1="259.9375" y2="259.9375"/><text fill="#000000" font-family="sans-serif" font-size="20" font-weight="bold" lengthAdjust="spacing" textLength="11" x="70" y="253.543">4</text><text fill="#000000" font-family="sans-serif" font-size="20" lengthAdjust="spacing" textLength="365" x="85" y="253.543">requests data(name,email,phone number)</text><polygon fill="#181818" points="819,295.0938,829,299.0938,819,303.0938,823,299.0938" style="stroke:#181818;stroke-width:1.0;"/><line style="stroke:#181818;stroke-width:1.0;" x1="53" x2="825" y1="299.0938" y2="299.0938"/><text fill="#000000" font-family="sans-serif" font-size="20" font-weight="bold" lengthAdjust="spacing" textLength="11" x="60" y="292.6992">5</text><text fill="#000000" font-family="sans-serif" font-size="20" lengthAdjust="spacing" textLength="103" x="75" y="292.6992">inserts data</text><polygon fill="#181818" points="478,334.25,468,338.25,478,342.25,474,338.25" style="stroke:#181818;stroke-width:1.0;"/><line style="stroke:#181818;stroke-width:1.0;stroke-dasharray:2.0,2.0;" x1="472" x2="835" y1="338.25" y2="338.25"/><text fill="#000000" font-family="sans-serif" font-size="20" font-weight="bold" lengthAdjust="spacing" textLength="11" x="484" y="331.8555">6</text><text fill="#000000" font-family="sans-serif" font-size="20" lengthAdjust="spacing" textLength="325" x="499" y="331.8555">sends back data inserted by the user</text><polygon fill="#181818" points="1042,373.4063,1052,377.4063,1042,381.4063,1046,377.4063" style="stroke:#181818;stroke-width:1.0;"/><line style="stroke:#181818;stroke-width:1.0;" x1="467" x2="1048" y1="377.4063" y2="377.4063"/><text fill="#000000" font-family="sans-serif" font-size="20" font-weight="bold" lengthAdjust="spacing" textLength="11" x="474" y="371.0117">7</text><text fill="#000000" font-family="sans-serif" font-size="20" lengthAdjust="spacing" textLength="136" x="489" y="371.0117">addCandidate()</text><polygon fill="#181818" points="1730,412.5625,1740,416.5625,1730,420.5625,1734,416.5625" style="stroke:#181818;stroke-width:1.0;"/><line style="stroke:#181818;stroke-width:1.0;" x1="1064" x2="1736" y1="416.5625" y2="416.5625"/><text fill="#000000" font-family="sans-serif" font-size="20" font-weight="bold" lengthAdjust="spacing" textLength="11" x="1071" y="410.168">8</text><text fill="#000000" font-family="sans-serif" font-size="20" lengthAdjust="spacing" textLength="322" x="1086" y="410.168">ensureAuthenticatedUserHasAnyOf()</text><polygon fill="#181818" points="1075,451.7188,1065,455.7188,1075,459.7188,1071,455.7188" style="stroke:#181818;stroke-width:1.0;"/><line style="stroke:#181818;stroke-width:1.0;stroke-dasharray:2.0,2.0;" x1="1069" x2="1746" y1="455.7188" y2="455.7188"/><text fill="#000000" font-family="sans-serif" font-size="20" font-weight="bold" lengthAdjust="spacing" textLength="11" x="1081" y="449.3242">9</text><text fill="#000000" font-family="sans-serif" font-size="20" lengthAdjust="spacing" textLength="639" x="1096" y="449.3242">returns confirmation that user is credited to perform the current operation</text><polygon fill="#181818" points="1933.5,490.875,1943.5,494.875,1933.5,498.875,1937.5,494.875" style="stroke:#181818;stroke-width:1.0;"/><line style="stroke:#181818;stroke-width:1.0;" x1="1064" x2="1939.5" y1="494.875" y2="494.875"/><text fill="#000000" font-family="sans-serif" font-size="20" font-weight="bold" lengthAdjust="spacing" textLength="22" x="1071" y="488.4805">10</text><text fill="#000000" font-family="sans-serif" font-size="20" lengthAdjust="spacing" textLength="186" x="1097" y="488.4805">generatePassword();</text><polygon fill="#181818" points="1075,530.0313,1065,534.0313,1075,538.0313,1071,534.0313" style="stroke:#181818;stroke-width:1.0;"/><line style="stroke:#181818;stroke-width:1.0;stroke-dasharray:2.0,2.0;" x1="1069" x2="1949.5" y1="534.0313" y2="534.0313"/><text fill="#000000" font-family="sans-serif" font-size="20" font-weight="bold" lengthAdjust="spacing" textLength="22" x="1081" y="527.6367">11</text><text fill="#000000" font-family="sans-serif" font-size="20" lengthAdjust="spacing" textLength="250" x="1107" y="527.6367">returns generated Password</text><polygon fill="#181818" points="2158.5,569.1875,2168.5,573.1875,2158.5,577.1875,2162.5,573.1875" style="stroke:#181818;stroke-width:1.0;"/><line style="stroke:#181818;stroke-width:1.0;" x1="1064" x2="2164.5" y1="573.1875" y2="573.1875"/><text fill="#000000" font-family="sans-serif" font-size="20" font-weight="bold" lengthAdjust="spacing" textLength="22" x="1071" y="566.793">12</text><text fill="#000000" font-family="sans-serif" font-size="20" lengthAdjust="spacing" textLength="161" x="1097" y="566.793">registerNewUser()</text><polygon fill="#181818" points="2507,608.3438,2517,612.3438,2507,616.3438,2511,612.3438" style="stroke:#181818;stroke-width:1.0;"/><line style="stroke:#181818;stroke-width:1.0;" x1="2180.5" x2="2513" y1="612.3438" y2="612.3438"/><text fill="#000000" font-family="sans-serif" font-size="20" font-weight="bold" lengthAdjust="spacing" textLength="22" x="2187.5" y="605.9492">13</text><text fill="#000000" font-family="sans-serif" font-size="20" lengthAdjust="spacing" textLength="49" x="2213.5" y="605.9492">with()</text><line style="stroke:#181818;stroke-width:1.0;" x1="2529" x2="2571" y1="651.5" y2="651.5"/><line style="stroke:#181818;stroke-width:1.0;" x1="2571" x2="2571" y1="651.5" y2="664.5"/><line style="stroke:#181818;stroke-width:1.0;" x1="2530" x2="2571" y1="664.5" y2="664.5"/><polygon fill="#181818" points="2540,660.5,2530,664.5,2540,668.5,2536,664.5" style="stroke:#181818;stroke-width:1.0;"/><text fill="#000000" font-family="sans-serif" font-size="20" font-weight="bold" lengthAdjust="spacing" textLength="22" x="2536" y="645.1055">14</text><text fill="#000000" font-family="sans-serif" font-size="20" lengthAdjust="spacing" textLength="54" x="2562" y="645.1055">build()</text><polygon fill="#181818" points="2191.5,699.6563,2181.5,703.6563,2191.5,707.6563,2187.5,703.6563" style="stroke:#181818;stroke-width:1.0;"/><line style="stroke:#181818;stroke-width:1.0;stroke-dasharray:2.0,2.0;" x1="2185.5" x2="2523" y1="703.6563" y2="703.6563"/><text fill="#000000" font-family="sans-serif" font-size="20" font-weight="bold" lengthAdjust="spacing" textLength="22" x="2197.5" y="697.2617">15</text><text fill="#000000" font-family="sans-serif" font-size="20" lengthAdjust="spacing" textLength="216" x="2223.5" y="697.2617">returns new SystemUser</text><polygon fill="#181818" points="2678.5,738.8125,2688.5,742.8125,2678.5,746.8125,2682.5,742.8125" style="stroke:#181818;stroke-width:1.0;"/><line style="stroke:#181818;stroke-width:1.0;" x1="2180.5" x2="2684.5" y1="742.8125" y2="742.8125"/><text fill="#000000" font-family="sans-serif" font-size="20" font-weight="bold" lengthAdjust="spacing" textLength="22" x="2187.5" y="736.418">16</text><text fill="#000000" font-family="sans-serif" font-size="20" lengthAdjust="spacing" textLength="55" x="2213.5" y="736.418">save()</text><polygon fill="#181818" points="2191.5,777.9688,2181.5,781.9688,2191.5,785.9688,2187.5,781.9688" style="stroke:#181818;stroke-width:1.0;"/><line style="stroke:#181818;stroke-width:1.0;stroke-dasharray:2.0,2.0;" x1="2185.5" x2="2694.5" y1="781.9688" y2="781.9688"/><text fill="#000000" font-family="sans-serif" font-size="20" font-weight="bold" lengthAdjust="spacing" textLength="22" x="2197.5" y="775.5742">17</text><text fill="#000000" font-family="sans-serif" font-size="20" lengthAdjust="spacing" textLength="163" x="2223.5" y="775.5742">returns saved user</text><polygon fill="#181818" points="1075,817.125,1065,821.125,1075,825.125,1071,821.125" style="stroke:#181818;stroke-width:1.0;"/><line style="stroke:#181818;stroke-width:1.0;stroke-dasharray:2.0,2.0;" x1="1069" x2="2174.5" y1="821.125" y2="821.125"/><text fill="#000000" font-family="sans-serif" font-size="20" font-weight="bold" lengthAdjust="spacing" textLength="22" x="1081" y="814.7305">18</text><text fill="#000000" font-family="sans-serif" font-size="20" lengthAdjust="spacing" textLength="163" x="1107" y="814.7305">returns saved user</text><polygon fill="#181818" points="2827,856.2813,2837,860.2813,2827,864.2813,2831,860.2813" style="stroke:#181818;stroke-width:1.0;"/><line style="stroke:#181818;stroke-width:1.0;" x1="1064" x2="2833" y1="860.2813" y2="860.2813"/><text fill="#000000" font-family="sans-serif" font-size="20" font-weight="bold" lengthAdjust="spacing" textLength="22" x="1071" y="853.8867">19</text><text fill="#000000" font-family="sans-serif" font-size="20" lengthAdjust="spacing" textLength="81" x="1097" y="853.8867">valueOf()</text><polygon fill="#181818" points="1075,895.4375,1065,899.4375,1075,903.4375,1071,899.4375" style="stroke:#181818;stroke-width:1.0;"/><line style="stroke:#181818;stroke-width:1.0;stroke-dasharray:2.0,2.0;" x1="1069" x2="2843" y1="899.4375" y2="899.4375"/><text fill="#000000" font-family="sans-serif" font-size="20" font-weight="bold" lengthAdjust="spacing" textLength="22" x="1081" y="893.043">20</text><text fill="#000000" font-family="sans-serif" font-size="20" lengthAdjust="spacing" textLength="230" x="1107" y="893.043">returns new EmailAddress</text><polygon fill="#181818" points="2973,934.5938,2983,938.5938,2973,942.5938,2977,938.5938" style="stroke:#181818;stroke-width:1.0;"/><line style="stroke:#181818;stroke-width:1.0;" x1="1064" x2="2979" y1="938.5938" y2="938.5938"/><text fill="#000000" font-family="sans-serif" font-size="20" font-weight="bold" lengthAdjust="spacing" textLength="22" x="1071" y="932.1992">21</text><text fill="#000000" font-family="sans-serif" font-size="20" lengthAdjust="spacing" textLength="81" x="1097" y="932.1992">valueOf()</text><polygon fill="#181818" points="1075,973.75,1065,977.75,1075,981.75,1071,977.75" style="stroke:#181818;stroke-width:1.0;"/><line style="stroke:#181818;stroke-width:1.0;stroke-dasharray:2.0,2.0;" x1="1069" x2="2989" y1="977.75" y2="977.75"/><text fill="#000000" font-family="sans-serif" font-size="20" font-weight="bold" lengthAdjust="spacing" textLength="22" x="1081" y="971.3555">22</text><text fill="#000000" font-family="sans-serif" font-size="20" lengthAdjust="spacing" textLength="232" x="1107" y="971.3555">returns new PhoneNumber</text><polygon fill="#181818" points="3310,1012.9063,3320,1016.9063,3310,1020.9063,3314,1016.9063" style="stroke:#181818;stroke-width:1.0;"/><line style="stroke:#181818;stroke-width:1.0;" x1="1064" x2="3316" y1="1016.9063" y2="1016.9063"/><text fill="#000000" font-family="sans-serif" font-size="20" font-weight="bold" lengthAdjust="spacing" textLength="22" x="1071" y="1010.5117">23</text><text fill="#000000" font-family="sans-serif" font-size="20" lengthAdjust="spacing" textLength="156" x="1097" y="1010.5117">registerCandidate</text><polygon fill="#181818" points="3625,1052.0625,3635,1056.0625,3625,1060.0625,3629,1056.0625" style="stroke:#181818;stroke-width:1.0;"/><line style="stroke:#181818;stroke-width:1.0;" x1="3332" x2="3631" y1="1056.0625" y2="1056.0625"/><text fill="#000000" font-family="sans-serif" font-size="20" font-weight="bold" lengthAdjust="spacing" textLength="22" x="3339" y="1049.668">24</text><text fill="#000000" font-family="sans-serif" font-size="20" lengthAdjust="spacing" textLength="49" x="3365" y="1049.668">with()</text><line style="stroke:#181818;stroke-width:1.0;" x1="3647" x2="3689" y1="1095.2188" y2="1095.2188"/><line style="stroke:#181818;stroke-width:1.0;" x1="3689" x2="3689" y1="1095.2188" y2="1108.2188"/><line style="stroke:#181818;stroke-width:1.0;" x1="3648" x2="3689" y1="1108.2188" y2="1108.2188"/><polygon fill="#181818" points="3658,1104.2188,3648,1108.2188,3658,1112.2188,3654,1108.2188" style="stroke:#181818;stroke-width:1.0;"/><text fill="#000000" font-family="sans-serif" font-size="20" font-weight="bold" lengthAdjust="spacing" textLength="22" x="3654" y="1088.8242">25</text><text fill="#000000" font-family="sans-serif" font-size="20" lengthAdjust="spacing" textLength="54" x="3680" y="1088.8242">build()</text><polygon fill="#181818" points="3940,1143.375,3950,1147.375,3940,1151.375,3944,1147.375" style="stroke:#181818;stroke-width:1.0;"/><line style="stroke:#181818;stroke-width:1.0;" x1="3647" x2="3946" y1="1147.375" y2="1147.375"/><text fill="#000000" font-family="sans-serif" font-size="20" font-weight="bold" lengthAdjust="spacing" textLength="22" x="3654" y="1140.9805">26</text><text fill="#000000" font-family="sans-serif" font-size="20" lengthAdjust="spacing" textLength="55" x="3680" y="1140.9805">save()</text><polygon fill="#181818" points="3658,1182.5313,3648,1186.5313,3658,1190.5313,3654,1186.5313" style="stroke:#181818;stroke-width:1.0;"/><line style="stroke:#181818;stroke-width:1.0;stroke-dasharray:2.0,2.0;" x1="3652" x2="3956" y1="1186.5313" y2="1186.5313"/><text fill="#000000" font-family="sans-serif" font-size="20" font-weight="bold" lengthAdjust="spacing" textLength="22" x="3664" y="1180.1367">27</text><text fill="#000000" font-family="sans-serif" font-size="20" lengthAdjust="spacing" textLength="255" x="3690" y="1180.1367">returns saved CandidateUser</text><polygon fill="#181818" points="3338,1221.6875,3328,1225.6875,3338,1229.6875,3334,1225.6875" style="stroke:#181818;stroke-width:1.0;"/><line style="stroke:#181818;stroke-width:1.0;stroke-dasharray:2.0,2.0;" x1="3332" x2="3641" y1="1225.6875" y2="1225.6875"/><text fill="#000000" font-family="sans-serif" font-size="20" font-weight="bold" lengthAdjust="spacing" textLength="22" x="3344" y="1219.293">28</text><text fill="#000000" font-family="sans-serif" font-size="20" lengthAdjust="spacing" textLength="255" x="3370" y="1219.293">returns saved CandidateUser</text><polygon fill="#181818" points="478,1260.8438,468,1264.8438,478,1268.8438,474,1264.8438" style="stroke:#181818;stroke-width:1.0;"/><line style="stroke:#181818;stroke-width:1.0;stroke-dasharray:2.0,2.0;" x1="472" x2="1058" y1="1264.8438" y2="1264.8438"/><text fill="#000000" font-family="sans-serif" font-size="20" font-weight="bold" lengthAdjust="spacing" textLength="22" x="484" y="1258.4492">29</text><text fill="#000000" font-family="sans-serif" font-size="20" lengthAdjust="spacing" textLength="163" x="510" y="1258.4492">returns saved user</text><polygon fill="#181818" points="64,1300,54,1304,64,1308,60,1304" style="stroke:#181818;stroke-width:1.0;"/><line style="stroke:#181818;stroke-width:1.0;stroke-dasharray:2.0,2.0;" x1="58" x2="456" y1="1304" y2="1304"/><text fill="#000000" font-family="sans-serif" font-size="20" font-weight="bold" lengthAdjust="spacing" textLength="22" x="70" y="1297.6055">30</text><text fill="#000000" font-family="sans-serif" font-size="20" lengthAdjust="spacing" textLength="226" x="96" y="1297.6055">returns operation success</text><!--SRC=[bLJBRjim4BppAuXScW1DK_Ie5W4irtKDDB5XH_2P5ZSs4ObKIIf6ylNTfLvK7BVenR2uC_kUTKzALyAAiZ3v4qWkuL7KXVzXjD-eL-1VFhCF1-yhbzpSL8NGlYwBJxafRnpyha7dS2sLs2EVCL5xe-jo1vQ9t1lBBvOLM87_BhXmVCamZbUvgj0BlvX8EHLQAYayP8k0o1RysxVAWWFjXLT6tzwEEJtXk_1Yg-GUV21kYNWCtsyf62RlM5CiofgYW2QXwSFw5_8cLQ7oTyDDQdymLhq6umRiiyeXC2VPmyynT2MSsnehvw2ZabTpzB_ldjwwpnpOEw757aeiEFQVtTtFnzZDY_DG4gC1e5zfIg5ESXw0QQqAsU9JnE-QRoHWByHEEE04MqDbdCBqNWYudgt8j-qV4JuECCEe1NOLn-I2xzdPN5O7e-4-R4JJZXXvPh9zYTFpDOx0ST-csGP9_Rp_oelRCytED6XC6LhLijOdhQBDLy-8ntLVNj_IIYU8VNBS6owav1gEl4zmG6SBXb0aR1S9bsPpCCVBgy6yNJ3SyUlWCE6kiMRDon8ZM1AZyuvJvfTQbF0HQ4uVAne1RrHvnPPD12GeZVMq-C4r6b1xql6To9-2hGNYOTYzS7y0NkCdan1drYHEQagenBvbSG5aPK5m22Nv91oqgosGnd3xIO4WgSa_XPleb-LZp0vwev-GPnF9Wg-jTZmt-b7PCcWKCnG-fCWLMYn8HQbZw_4GFHfRXXBosbeCoKsuJaYBwmcXkaHNyuItyWLI-14LVddrTKXiDMUeyTEaEfBa7IsEWQmk0YcTQ7k5ihNtSAGMnAM7Kq0_X4vnG4Vb3p4WPMam9JpiBvhIPfgjvoOXMhlXDCJ9fBrtqZukW7WUJOvUMJWBdLS-k2MmFDc9G6cyjftv9oMKsJLbbl1dKTGmNe8PcxtJQIeiFacnqzamo7SzhjZgZCVeSeq6rpkaIpFCRNegQ0Gm0WLiUZesV6HqTZfxDxp-RNqw2dnaT7IkEzAufwDR5QVTyDAMj_aFNZh-tBJrjtVexoCDaX_Tg0RTouwxEiznP7y0]--></g></svg>