<?xml version="1.0" encoding="UTF-8" standalone="no"?><svg xmlns="http://www.w3.org/2000/svg" xmlns:xlink="http://www.w3.org/1999/xlink" contentStyleType="text/css" height="513px" preserveAspectRatio="none" style="width:1047px;height:513px;background:#FFFFFF;" version="1.1" viewBox="0 0 1047 513" width="1047px" zoomAndPan="magnify"><defs/><g><rect fill="#FFFFFF" height="305.25" style="stroke:#181818;stroke-width:1.0;" width="10" x="87.5" y="100.1563"/><rect fill="#FFFFFF" height="39.1563" style="stroke:#181818;stroke-width:1.0;" width="10" x="993.5" y="131.3125"/><rect fill="#FFFFFF" height="39.1563" style="stroke:#181818;stroke-width:1.0;" width="10" x="993.5" y="209.625"/><rect fill="#FFFFFF" height="39.1563" style="stroke:#181818;stroke-width:1.0;" width="10" x="993.5" y="287.9375"/><rect fill="#FFFFFF" height="39.1563" style="stroke:#181818;stroke-width:1.0;" width="10" x="993.5" y="366.25"/><line style="stroke:#181818;stroke-width:0.5;stroke-dasharray:5.0,5.0;" x1="92" x2="92" y1="90.1563" y2="423.4063"/><line style="stroke:#181818;stroke-width:0.5;stroke-dasharray:5.0,5.0;" x1="998.5" x2="998.5" y1="90.1563" y2="423.4063"/><text fill="#000000" font-family="sans-serif" font-size="20" lengthAdjust="spacing" textLength="169" x="5" y="85.7617">Customer Manager</text><ellipse cx="92.5" cy="13.5" fill="#E2E2F0" rx="8" ry="8" style="stroke:#181818;stroke-width:0.5;"/><path d="M92.5,21.5 L92.5,48.5 M79.5,29.5 L105.5,29.5 M92.5,48.5 L79.5,63.5 M92.5,48.5 L105.5,63.5 " fill="none" style="stroke:#181818;stroke-width:0.5;"/><text fill="#000000" font-family="sans-serif" font-size="20" lengthAdjust="spacing" textLength="169" x="5" y="443.168">Customer Manager</text><ellipse cx="92.5" cy="456.0625" fill="#E2E2F0" rx="8" ry="8" style="stroke:#181818;stroke-width:0.5;"/><path d="M92.5,464.0625 L92.5,491.0625 M79.5,472.0625 L105.5,472.0625 M92.5,491.0625 L79.5,506.0625 M92.5,491.0625 L105.5,506.0625 " fill="none" style="stroke:#181818;stroke-width:0.5;"/><rect fill="#E2E2F0" height="39.1563" rx="2.5" ry="2.5" style="stroke:#181818;stroke-width:0.5;" width="86" x="955.5" y="50"/><text fill="#000000" font-family="sans-serif" font-size="20" lengthAdjust="spacing" textLength="72" x="962.5" y="77.7617">:System</text><rect fill="#E2E2F0" height="39.1563" rx="2.5" ry="2.5" style="stroke:#181818;stroke-width:0.5;" width="86" x="955.5" y="422.4063"/><text fill="#000000" font-family="sans-serif" font-size="20" lengthAdjust="spacing" textLength="72" x="962.5" y="450.168">:System</text><rect fill="#FFFFFF" height="305.25" style="stroke:#181818;stroke-width:1.0;" width="10" x="87.5" y="100.1563"/><rect fill="#FFFFFF" height="39.1563" style="stroke:#181818;stroke-width:1.0;" width="10" x="993.5" y="131.3125"/><rect fill="#FFFFFF" height="39.1563" style="stroke:#181818;stroke-width:1.0;" width="10" x="993.5" y="209.625"/><rect fill="#FFFFFF" height="39.1563" style="stroke:#181818;stroke-width:1.0;" width="10" x="993.5" y="287.9375"/><rect fill="#FFFFFF" height="39.1563" style="stroke:#181818;stroke-width:1.0;" width="10" x="993.5" y="366.25"/><polygon fill="#181818" points="981.5,127.3125,991.5,131.3125,981.5,135.3125,985.5,131.3125" style="stroke:#181818;stroke-width:1.0;"/><line style="stroke:#181818;stroke-width:1.0;" x1="97.5" x2="987.5" y1="131.3125" y2="131.3125"/><text fill="#000000" font-family="sans-serif" font-size="20" font-weight="bold" lengthAdjust="spacing" textLength="11" x="104.5" y="124.918">1</text><text fill="#000000" font-family="sans-serif" font-size="20" lengthAdjust="spacing" textLength="449" x="119.5" y="124.918">login as a Customer Manager in the Backoffice app</text><polygon fill="#181818" points="108.5,166.4688,98.5,170.4688,108.5,174.4688,104.5,170.4688" style="stroke:#181818;stroke-width:1.0;"/><line style="stroke:#181818;stroke-width:1.0;stroke-dasharray:2.0,2.0;" x1="102.5" x2="997.5" y1="170.4688" y2="170.4688"/><text fill="#000000" font-family="sans-serif" font-size="20" font-weight="bold" lengthAdjust="spacing" textLength="11" x="114.5" y="164.0742">2</text><text fill="#000000" font-family="sans-serif" font-size="20" lengthAdjust="spacing" textLength="382" x="129.5" y="164.0742">shows Customer Manager Backoffice menu</text><polygon fill="#181818" points="981.5,205.625,991.5,209.625,981.5,213.625,985.5,209.625" style="stroke:#181818;stroke-width:1.0;"/><line style="stroke:#181818;stroke-width:1.0;" x1="97.5" x2="987.5" y1="209.625" y2="209.625"/><text fill="#000000" font-family="sans-serif" font-size="20" font-weight="bold" lengthAdjust="spacing" textLength="11" x="104.5" y="203.2305">3</text><text fill="#000000" font-family="sans-serif" font-size="20" lengthAdjust="spacing" textLength="259" x="119.5" y="203.2305">selects "2. Customers" option</text><polygon fill="#181818" points="108.5,244.7813,98.5,248.7813,108.5,252.7813,104.5,248.7813" style="stroke:#181818;stroke-width:1.0;"/><line style="stroke:#181818;stroke-width:1.0;stroke-dasharray:2.0,2.0;" x1="102.5" x2="997.5" y1="248.7813" y2="248.7813"/><text fill="#000000" font-family="sans-serif" font-size="20" font-weight="bold" lengthAdjust="spacing" textLength="11" x="114.5" y="242.3867">4</text><text fill="#000000" font-family="sans-serif" font-size="20" lengthAdjust="spacing" textLength="218" x="129.5" y="242.3867">shows Customer`s Menu</text><polygon fill="#181818" points="981.5,283.9375,991.5,287.9375,981.5,291.9375,985.5,287.9375" style="stroke:#181818;stroke-width:1.0;"/><line style="stroke:#181818;stroke-width:1.0;" x1="97.5" x2="987.5" y1="287.9375" y2="287.9375"/><text fill="#000000" font-family="sans-serif" font-size="20" font-weight="bold" lengthAdjust="spacing" textLength="11" x="104.5" y="281.543">5</text><text fill="#000000" font-family="sans-serif" font-size="20" lengthAdjust="spacing" textLength="234" x="119.5" y="281.543">selects "Add Job Opening"</text><polygon fill="#181818" points="108.5,323.0938,98.5,327.0938,108.5,331.0938,104.5,327.0938" style="stroke:#181818;stroke-width:1.0;"/><line style="stroke:#181818;stroke-width:1.0;stroke-dasharray:2.0,2.0;" x1="102.5" x2="997.5" y1="327.0938" y2="327.0938"/><text fill="#000000" font-family="sans-serif" font-size="20" font-weight="bold" lengthAdjust="spacing" textLength="11" x="114.5" y="320.6992">6</text><text fill="#000000" font-family="sans-serif" font-size="20" lengthAdjust="spacing" textLength="857" x="129.5" y="320.6992">requests information to create a Job Opening and list the job requirements that exist in the system</text><polygon fill="#181818" points="981.5,362.25,991.5,366.25,981.5,370.25,985.5,366.25" style="stroke:#181818;stroke-width:1.0;"/><line style="stroke:#181818;stroke-width:1.0;" x1="97.5" x2="987.5" y1="366.25" y2="366.25"/><text fill="#000000" font-family="sans-serif" font-size="20" font-weight="bold" lengthAdjust="spacing" textLength="11" x="104.5" y="359.8555">7</text><text fill="#000000" font-family="sans-serif" font-size="20" lengthAdjust="spacing" textLength="308" x="119.5" y="359.8555">selects one of the job requirements</text><polygon fill="#181818" points="103.5,401.4063,93.5,405.4063,103.5,409.4063,99.5,405.4063" style="stroke:#181818;stroke-width:1.0;"/><line style="stroke:#181818;stroke-width:1.0;stroke-dasharray:2.0,2.0;" x1="97.5" x2="997.5" y1="405.4063" y2="405.4063"/><text fill="#000000" font-family="sans-serif" font-size="20" font-weight="bold" lengthAdjust="spacing" textLength="11" x="109.5" y="399.0117">8</text><text fill="#000000" font-family="sans-serif" font-size="20" lengthAdjust="spacing" textLength="179" x="124.5" y="399.0117">Job opening created</text><!--SRC=[hPFFJiCm3CRlUGghzo6qOmz8WCG1QUAm5y1Bt3QqYKlYyk_fIKhPgZA4j95JP3k_pv-jnDRw7WEwZdLB1WnLE7HonrwszeDWVQaK3i9-S3iAwQw50zmEKTXHsA37cW9WXE8x1bEm68lj2mejwvLQ0bPNK9JRzoZa2YYXuzhwJ4LOOY4bf26uGTroLLbDW7r_aDfZb3eGLuc_b2mXDlmQVmhCo8xye0mTW__X8597Mj9OrXTxXLW0zsBP_qEtZn4svpTtRGpSymuUUlBMryL9ZGLw7YWcdFKL1uVP8GY33fH9E5S0z0Ow6sNSuLDAvDSsK9fq8aY30lIMyzEQuoXzdats15mTLJp9SFR3avyla-QN1lEPPPRVu1C0]--></g></svg>