<?xml version="1.0" encoding="UTF-8" standalone="no"?><svg xmlns="http://www.w3.org/2000/svg" xmlns:xlink="http://www.w3.org/1999/xlink" contentStyleType="text/css" height="927px" preserveAspectRatio="none" style="width:659px;height:927px;background:#FFFFFF;" version="1.1" viewBox="0 0 659 927" width="659px" zoomAndPan="magnify"><defs/><g><!--class ListCandidatesUI--><g id="elem_ListCandidatesUI"><rect codeLine="3" fill="#F1F1F1" height="151.7813" id="ListCandidatesUI" rx="2.5" ry="2.5" style="stroke:#181818;stroke-width:0.5;" width="216" x="243.5" y="7"/><ellipse cx="274.35" cy="24.5781" fill="#ADD1B2" rx="12" ry="12" style="stroke:#181818;stroke-width:1.0;"/><path d="M276.4906,19.5 Q276.6781,19.25 276.8969,19.125 Q277.1156,18.9844 277.3656,18.9844 Q277.8031,18.9844 278.0844,19.2969 Q278.3656,19.5938 278.3656,20.3125 L278.3656,22.0156 Q278.3656,22.7344 278.0844,23.0469 Q277.8031,23.3594 277.3656,23.3594 Q276.975,23.3594 276.725,23.125 Q276.475,22.9063 276.3656,22.2969 Q276.3031,21.875 276.0844,21.6563 Q275.6938,21.2188 274.975,20.9531 Q274.2563,20.6875 273.5375,20.6875 Q272.6313,20.6875 271.8813,21.0781 Q271.1313,21.4688 270.5531,22.3594 Q269.975,23.2344 269.975,24.4375 L269.975,25.7344 Q269.975,27.1875 271.0219,28.1563 Q272.0844,29.125 273.9438,29.125 Q275.0531,29.125 275.8344,28.8125 Q276.2719,28.6406 276.7875,28.125 Q277.1,27.8125 277.2719,27.7188 Q277.4438,27.625 277.6781,27.625 Q278.0688,27.625 278.3656,27.9375 Q278.6781,28.2344 278.6781,28.6406 Q278.6781,29.0469 278.2719,29.5156 Q277.6781,30.2031 276.7406,30.5938 Q275.475,31.125 273.9594,31.125 Q272.1781,31.125 270.7563,30.3906 Q269.6,29.7969 268.7875,28.5313 Q267.975,27.2656 267.975,25.7813 L267.975,24.4219 Q267.975,22.8594 268.6938,21.5156 Q269.4281,20.1563 270.7094,19.4219 Q272.0063,18.6875 273.4594,18.6875 Q274.3188,18.6875 275.0688,18.8906 Q275.8344,19.0938 276.4906,19.5 Z " fill="#000000"/><text fill="#000000" font-family="sans-serif" font-size="20" lengthAdjust="spacing" textLength="149" x="292.65" y="32.7617">ListCandidatesUI</text><line style="stroke:#181818;stroke-width:0.5;" x1="244.5" x2="458.5" y1="42.1563" y2="42.1563"/><rect fill="none" height="6" style="stroke:#C82930;stroke-width:1.0;" width="6" x="251.5" y="57.2344"/><text fill="#000000" font-family="sans-serif" font-size="20" lengthAdjust="spacing" textLength="112" x="264.5" y="66.918">theController</text><rect fill="none" height="6" style="stroke:#C82930;stroke-width:1.0;" width="6" x="251.5" y="82.3906"/><text fill="#000000" font-family="sans-serif" font-size="20" lengthAdjust="spacing" textLength="189" x="264.5" y="92.0742">candidateDataWidget</text><line style="stroke:#181818;stroke-width:0.5;" x1="244.5" x2="458.5" y1="100.4688" y2="100.4688"/><ellipse cx="254.5" cy="118.5469" fill="#84BE84" rx="3" ry="3" style="stroke:#038048;stroke-width:1.0;"/><text fill="#000000" font-family="sans-serif" font-size="20" lengthAdjust="spacing" textLength="85" x="264.5" y="125.2305">doShow()</text><ellipse cx="254.5" cy="143.7031" fill="#84BE84" rx="3" ry="3" style="stroke:#038048;stroke-width:1.0;"/><text fill="#000000" font-family="sans-serif" font-size="20" lengthAdjust="spacing" textLength="86" x="264.5" y="150.3867">headline()</text></g><!--class ListCandidatesController--><g id="elem_ListCandidatesController"><rect codeLine="10" fill="#F1F1F1" height="126.625" id="ListCandidatesController" rx="2.5" ry="2.5" style="stroke:#181818;stroke-width:0.5;" width="249" x="227" y="219"/><ellipse cx="243" cy="236.5781" fill="#ADD1B2" rx="12" ry="12" style="stroke:#181818;stroke-width:1.0;"/><path d="M245.1406,231.5 Q245.3281,231.25 245.5469,231.125 Q245.7656,230.9844 246.0156,230.9844 Q246.4531,230.9844 246.7344,231.2969 Q247.0156,231.5938 247.0156,232.3125 L247.0156,234.0156 Q247.0156,234.7344 246.7344,235.0469 Q246.4531,235.3594 246.0156,235.3594 Q245.625,235.3594 245.375,235.125 Q245.125,234.9063 245.0156,234.2969 Q244.9531,233.875 244.7344,233.6563 Q244.3438,233.2188 243.625,232.9531 Q242.9063,232.6875 242.1875,232.6875 Q241.2813,232.6875 240.5313,233.0781 Q239.7813,233.4688 239.2031,234.3594 Q238.625,235.2344 238.625,236.4375 L238.625,237.7344 Q238.625,239.1875 239.6719,240.1563 Q240.7344,241.125 242.5938,241.125 Q243.7031,241.125 244.4844,240.8125 Q244.9219,240.6406 245.4375,240.125 Q245.75,239.8125 245.9219,239.7188 Q246.0938,239.625 246.3281,239.625 Q246.7188,239.625 247.0156,239.9375 Q247.3281,240.2344 247.3281,240.6406 Q247.3281,241.0469 246.9219,241.5156 Q246.3281,242.2031 245.3906,242.5938 Q244.125,243.125 242.6094,243.125 Q240.8281,243.125 239.4063,242.3906 Q238.25,241.7969 237.4375,240.5313 Q236.625,239.2656 236.625,237.7813 L236.625,236.4219 Q236.625,234.8594 237.3438,233.5156 Q238.0781,232.1563 239.3594,231.4219 Q240.6563,230.6875 242.1094,230.6875 Q242.9688,230.6875 243.7188,230.8906 Q244.4844,231.0938 245.1406,231.5 Z " fill="#000000"/><text fill="#000000" font-family="sans-serif" font-size="20" lengthAdjust="spacing" textLength="215" x="258" y="244.7617">ListCandidatesController</text><line style="stroke:#181818;stroke-width:0.5;" x1="228" x2="475" y1="254.1563" y2="254.1563"/><rect fill="none" height="6" style="stroke:#C82930;stroke-width:1.0;" width="6" x="235" y="269.2344"/><text fill="#000000" font-family="sans-serif" font-size="20" lengthAdjust="spacing" textLength="46" x="248" y="278.918">authz</text><rect fill="none" height="6" style="stroke:#C82930;stroke-width:1.0;" width="6" x="235" y="294.3906"/><text fill="#000000" font-family="sans-serif" font-size="20" lengthAdjust="spacing" textLength="70" x="248" y="304.0742">userSvc</text><line style="stroke:#181818;stroke-width:0.5;" x1="228" x2="475" y1="312.4688" y2="312.4688"/><ellipse cx="238" cy="330.5469" fill="#84BE84" rx="3" ry="3" style="stroke:#038048;stroke-width:1.0;"/><text fill="#000000" font-family="sans-serif" font-size="20" lengthAdjust="spacing" textLength="188" x="248" y="337.2305">listCandidatesUsers()</text></g><!--class AuthorizationService--><g id="elem_AuthorizationService"><rect codeLine="16" fill="#F1F1F1" height="302.7188" id="AuthorizationService" rx="2.5" ry="2.5" style="stroke:#181818;stroke-width:0.5;" width="349" x="7" y="443.5"/><ellipse cx="88.5" cy="461.0781" fill="#ADD1B2" rx="12" ry="12" style="stroke:#181818;stroke-width:1.0;"/><path d="M90.6406,456 Q90.8281,455.75 91.0469,455.625 Q91.2656,455.4844 91.5156,455.4844 Q91.9531,455.4844 92.2344,455.7969 Q92.5156,456.0938 92.5156,456.8125 L92.5156,458.5156 Q92.5156,459.2344 92.2344,459.5469 Q91.9531,459.8594 91.5156,459.8594 Q91.125,459.8594 90.875,459.625 Q90.625,459.4063 90.5156,458.7969 Q90.4531,458.375 90.2344,458.1563 Q89.8438,457.7188 89.125,457.4531 Q88.4063,457.1875 87.6875,457.1875 Q86.7813,457.1875 86.0313,457.5781 Q85.2813,457.9688 84.7031,458.8594 Q84.125,459.7344 84.125,460.9375 L84.125,462.2344 Q84.125,463.6875 85.1719,464.6563 Q86.2344,465.625 88.0938,465.625 Q89.2031,465.625 89.9844,465.3125 Q90.4219,465.1406 90.9375,464.625 Q91.25,464.3125 91.4219,464.2188 Q91.5938,464.125 91.8281,464.125 Q92.2188,464.125 92.5156,464.4375 Q92.8281,464.7344 92.8281,465.1406 Q92.8281,465.5469 92.4219,466.0156 Q91.8281,466.7031 90.8906,467.0938 Q89.625,467.625 88.1094,467.625 Q86.3281,467.625 84.9063,466.8906 Q83.75,466.2969 82.9375,465.0313 Q82.125,463.7656 82.125,462.2813 L82.125,460.9219 Q82.125,459.3594 82.8438,458.0156 Q83.5781,456.6563 84.8594,455.9219 Q86.1563,455.1875 87.6094,455.1875 Q88.4688,455.1875 89.2188,455.3906 Q89.9844,455.5938 90.6406,456 Z " fill="#000000"/><text fill="#000000" font-family="sans-serif" font-size="20" lengthAdjust="spacing" textLength="177" x="110.5" y="469.2617">AuthorizationService</text><line style="stroke:#181818;stroke-width:0.5;" x1="8" x2="355" y1="478.6563" y2="478.6563"/><rect fill="none" height="6" style="stroke:#C82930;stroke-width:1.0;" width="6" x="15" y="493.7344"/><text fill="#000000" font-family="sans-serif" font-size="20" lengthAdjust="spacing" textLength="86" x="28" y="503.418">LOGGER</text><rect fill="none" height="6" style="stroke:#C82930;stroke-width:1.0;" width="6" x="15" y="518.8906"/><text fill="#000000" font-family="sans-serif" font-size="20" lengthAdjust="spacing" textLength="96" x="28" y="528.5742">theSession</text><line style="stroke:#181818;stroke-width:0.5;" x1="8" x2="355" y1="536.9688" y2="536.9688"/><ellipse cx="18" cy="555.0469" fill="#84BE84" rx="3" ry="3" style="stroke:#038048;stroke-width:1.0;"/><text fill="#000000" font-family="sans-serif" font-size="20" lengthAdjust="spacing" textLength="191" x="28" y="561.7305">AuthorizationService()</text><ellipse cx="18" cy="580.2031" fill="#84BE84" rx="3" ry="3" style="stroke:#038048;stroke-width:1.0;"/><text fill="#000000" font-family="sans-serif" font-size="20" lengthAdjust="spacing" textLength="210" x="28" y="586.8867">createSessionForUser()</text><ellipse cx="18" cy="605.3594" fill="#84BE84" rx="3" ry="3" style="stroke:#038048;stroke-width:1.0;"/><text fill="#000000" font-family="sans-serif" font-size="20" lengthAdjust="spacing" textLength="126" x="28" y="612.043">clearSession()</text><ellipse cx="18" cy="630.5156" fill="#84BE84" rx="3" ry="3" style="stroke:#038048;stroke-width:1.0;"/><text fill="#000000" font-family="sans-serif" font-size="20" lengthAdjust="spacing" textLength="114" x="28" y="637.1992">hasSession()</text><ellipse cx="18" cy="655.6719" fill="#84BE84" rx="3" ry="3" style="stroke:#038048;stroke-width:1.0;"/><text fill="#000000" font-family="sans-serif" font-size="20" lengthAdjust="spacing" textLength="80" x="28" y="662.3555">session()</text><ellipse cx="18" cy="680.8281" fill="#84BE84" rx="3" ry="3" style="stroke:#038048;stroke-width:1.0;"/><text fill="#000000" font-family="sans-serif" font-size="20" lengthAdjust="spacing" textLength="303" x="28" y="687.5117">isAuthenticatedUserAuthorizedTo()</text><ellipse cx="18" cy="705.9844" fill="#84BE84" rx="3" ry="3" style="stroke:#038048;stroke-width:1.0;"/><text fill="#000000" font-family="sans-serif" font-size="20" lengthAdjust="spacing" textLength="322" x="28" y="712.668">ensureAuthenticatedUserHasAnyOf()</text><ellipse cx="18" cy="731.1406" fill="#84BE84" rx="3" ry="3" style="stroke:#038048;stroke-width:1.0;"/><text fill="#000000" font-family="sans-serif" font-size="20" lengthAdjust="spacing" textLength="273" x="28" y="737.8242">loggedinUserWithPermissions()</text></g><!--class UserManagementService--><g id="elem_UserManagementService"><rect codeLine="28" fill="#F1F1F1" height="378.1875" id="UserManagementService" rx="2.5" ry="2.5" style="stroke:#181818;stroke-width:0.5;" width="261" x="391" y="406"/><ellipse cx="410.15" cy="423.5781" fill="#ADD1B2" rx="12" ry="12" style="stroke:#181818;stroke-width:1.0;"/><path d="M412.2906,418.5 Q412.4781,418.25 412.6969,418.125 Q412.9156,417.9844 413.1656,417.9844 Q413.6031,417.9844 413.8844,418.2969 Q414.1656,418.5938 414.1656,419.3125 L414.1656,421.0156 Q414.1656,421.7344 413.8844,422.0469 Q413.6031,422.3594 413.1656,422.3594 Q412.775,422.3594 412.525,422.125 Q412.275,421.9063 412.1656,421.2969 Q412.1031,420.875 411.8844,420.6563 Q411.4938,420.2188 410.775,419.9531 Q410.0563,419.6875 409.3375,419.6875 Q408.4313,419.6875 407.6813,420.0781 Q406.9313,420.4688 406.3531,421.3594 Q405.775,422.2344 405.775,423.4375 L405.775,424.7344 Q405.775,426.1875 406.8219,427.1563 Q407.8844,428.125 409.7438,428.125 Q410.8531,428.125 411.6344,427.8125 Q412.0719,427.6406 412.5875,427.125 Q412.9,426.8125 413.0719,426.7188 Q413.2438,426.625 413.4781,426.625 Q413.8688,426.625 414.1656,426.9375 Q414.4781,427.2344 414.4781,427.6406 Q414.4781,428.0469 414.0719,428.5156 Q413.4781,429.2031 412.5406,429.5938 Q411.275,430.125 409.7594,430.125 Q407.9781,430.125 406.5563,429.3906 Q405.4,428.7969 404.5875,427.5313 Q403.775,426.2656 403.775,424.7813 L403.775,423.4219 Q403.775,421.8594 404.4938,420.5156 Q405.2281,419.1563 406.5094,418.4219 Q407.8063,417.6875 409.2594,417.6875 Q410.1188,417.6875 410.8688,417.8906 Q411.6344,418.0938 412.2906,418.5 Z " fill="#000000"/><text fill="#000000" font-family="sans-serif" font-size="20" lengthAdjust="spacing" textLength="220" x="425.85" y="431.7617">UserManagementService</text><line style="stroke:#181818;stroke-width:0.5;" x1="392" x2="651" y1="441.1563" y2="441.1563"/><rect fill="none" height="6" style="stroke:#C82930;stroke-width:1.0;" width="6" x="399" y="456.2344"/><text fill="#000000" font-family="sans-serif" font-size="20" lengthAdjust="spacing" textLength="133" x="412" y="465.918">userRepository</text><rect fill="none" height="6" style="stroke:#C82930;stroke-width:1.0;" width="6" x="399" y="481.3906"/><text fill="#000000" font-family="sans-serif" font-size="20" lengthAdjust="spacing" textLength="71" x="412" y="491.0742">encoder</text><rect fill="none" height="6" style="stroke:#C82930;stroke-width:1.0;" width="6" x="399" y="506.5469"/><text fill="#000000" font-family="sans-serif" font-size="20" lengthAdjust="spacing" textLength="50" x="412" y="516.2305">policy</text><line style="stroke:#181818;stroke-width:0.5;" x1="392" x2="651" y1="524.625" y2="524.625"/><ellipse cx="402" cy="542.7031" fill="#84BE84" rx="3" ry="3" style="stroke:#038048;stroke-width:1.0;"/><text fill="#000000" font-family="sans-serif" font-size="20" lengthAdjust="spacing" textLength="234" x="412" y="549.3867">UserManagementService()</text><ellipse cx="402" cy="567.8594" fill="#84BE84" rx="3" ry="3" style="stroke:#038048;stroke-width:1.0;"/><text fill="#000000" font-family="sans-serif" font-size="20" lengthAdjust="spacing" textLength="161" x="412" y="574.543">registerNewUser()</text><ellipse cx="402" cy="593.0156" fill="#84BE84" rx="3" ry="3" style="stroke:#038048;stroke-width:1.0;"/><text fill="#000000" font-family="sans-serif" font-size="20" lengthAdjust="spacing" textLength="161" x="412" y="599.6992">registerNewUser()</text><ellipse cx="402" cy="618.1719" fill="#84BE84" rx="3" ry="3" style="stroke:#038048;stroke-width:1.0;"/><text fill="#000000" font-family="sans-serif" font-size="20" lengthAdjust="spacing" textLength="122" x="412" y="624.8555">registerUser()</text><ellipse cx="402" cy="643.3281" fill="#84BE84" rx="3" ry="3" style="stroke:#038048;stroke-width:1.0;"/><text fill="#000000" font-family="sans-serif" font-size="20" lengthAdjust="spacing" textLength="116" x="412" y="650.0117">activeUsers()</text><ellipse cx="402" cy="668.4844" fill="#84BE84" rx="3" ry="3" style="stroke:#038048;stroke-width:1.0;"/><text fill="#000000" font-family="sans-serif" font-size="20" lengthAdjust="spacing" textLength="166" x="412" y="675.168">deactivatedUsers()</text><ellipse cx="402" cy="693.6406" fill="#84BE84" rx="3" ry="3" style="stroke:#038048;stroke-width:1.0;"/><text fill="#000000" font-family="sans-serif" font-size="20" lengthAdjust="spacing" textLength="84" x="412" y="700.3242">allUsers()</text><ellipse cx="402" cy="718.7969" fill="#84BE84" rx="3" ry="3" style="stroke:#038048;stroke-width:1.0;"/><text fill="#000000" font-family="sans-serif" font-size="20" lengthAdjust="spacing" textLength="138" x="412" y="725.4805">userOfIdentity()</text><ellipse cx="402" cy="743.9531" fill="#84BE84" rx="3" ry="3" style="stroke:#038048;stroke-width:1.0;"/><text fill="#000000" font-family="sans-serif" font-size="20" lengthAdjust="spacing" textLength="145" x="412" y="750.6367">deactivateUser()</text><ellipse cx="402" cy="769.1094" fill="#84BE84" rx="3" ry="3" style="stroke:#038048;stroke-width:1.0;"/><text fill="#000000" font-family="sans-serif" font-size="20" lengthAdjust="spacing" textLength="123" x="412" y="775.793">activateUser()</text></g><!--class UserRepository--><g id="elem_UserRepository"><rect codeLine="43" fill="#F1F1F1" height="76.3125" id="UserRepository" rx="2.5" ry="2.5" style="stroke:#181818;stroke-width:0.5;" width="171" x="436" y="844"/><ellipse cx="452" cy="861.5781" fill="#B4A7E5" rx="12" ry="12" style="stroke:#181818;stroke-width:1.0;"/><path d="M453,857.75 L453,865.5781 L455.0313,865.5781 Q455.75,865.5781 456.0469,865.8594 Q456.3594,866.125 456.3594,866.5781 Q456.3594,867.0156 456.0469,867.2969 Q455.75,867.5781 455.0313,867.5781 L448.9844,867.5781 Q448.25,867.5781 447.9375,867.2969 Q447.6406,867.0156 447.6406,866.5781 Q447.6406,866.125 447.9375,865.8594 Q448.25,865.5781 448.9844,865.5781 L451,865.5781 L451,857.75 L448.9844,857.75 Q448.25,857.75 447.9375,857.4688 Q447.6406,857.1875 447.6406,856.7344 Q447.6406,856.2813 447.9375,856.0156 Q448.25,855.7344 448.9844,855.7344 L455.0313,855.7344 Q455.75,855.7344 456.0469,856.0156 Q456.3594,856.2813 456.3594,856.7344 Q456.3594,857.1875 456.0469,857.4688 Q455.75,857.75 455.0313,857.75 L453,857.75 Z " fill="#000000"/><text fill="#000000" font-family="sans-serif" font-size="20" font-style="italic" lengthAdjust="spacing" textLength="137" x="467" y="869.7617">UserRepository</text><line style="stroke:#181818;stroke-width:0.5;" x1="437" x2="606" y1="879.1563" y2="879.1563"/><line style="stroke:#181818;stroke-width:0.5;" x1="437" x2="606" y1="887.1563" y2="887.1563"/><ellipse cx="447" cy="905.2344" fill="#84BE84" rx="3" ry="3" style="stroke:#038048;stroke-width:1.0;"/><text fill="#000000" font-family="sans-serif" font-size="20" lengthAdjust="spacing" textLength="121" x="457" y="911.918">findByActive()</text></g><!--link ListCandidatesUI to ListCandidatesController--><g id="link_ListCandidatesUI_ListCandidatesController"><path codeLine="47" d="M351.5,159.23 C351.5,172.11 351.5,185.55 351.5,198.61 " fill="none" id="ListCandidatesUI-to-ListCandidatesController" style="stroke:#181818;stroke-width:1.0;"/><polygon fill="none" points="358.5,198.69,351.5,218.69,344.5,198.69,358.5,198.69" style="stroke:#181818;stroke-width:1.0;"/></g><!--link ListCandidatesController to AuthorizationService--><g id="link_ListCandidatesController_AuthorizationService"><path codeLine="48" d="M317.1,346.33 C304.32,369.67 289.15,397.38 273.66,425.67 " fill="none" id="ListCandidatesController-to-AuthorizationService" style="stroke:#181818;stroke-width:1.0;"/><polygon fill="none" points="279.74,429.15,263.99,443.33,267.46,422.43,279.74,429.15" style="stroke:#181818;stroke-width:1.0;"/></g><!--link ListCandidatesController to UserManagementService--><g id="link_ListCandidatesController_UserManagementService"><path codeLine="49" d="M385.9,346.33 C392.91,359.13 400.64,373.25 408.75,388.06 " fill="none" id="ListCandidatesController-to-UserManagementService" style="stroke:#181818;stroke-width:1.0;"/><polygon fill="none" points="414.95,384.82,418.42,405.73,402.67,391.55,414.95,384.82" style="stroke:#181818;stroke-width:1.0;"/></g><!--link UserManagementService to UserRepository--><g id="link_UserManagementService_UserRepository"><path codeLine="50" d="M521.5,784.11 C521.5,798.14 521.5,811.5 521.5,823.58 " fill="none" id="UserManagementService-to-UserRepository" style="stroke:#181818;stroke-width:1.0;"/><polygon fill="none" points="528.5,823.79,521.5,843.79,514.5,823.79,528.5,823.79" style="stroke:#181818;stroke-width:1.0;"/></g><!--SRC=[XLB1Jjn03BtdAtAZg5gsuiYXqWA58j4k8g0zMpDEOZ6PYMQSHLdAlzSpOKc0q9uIFzll-NaS7iYsuA4nJZsWpZMMq1c-S9OBsc5-_2qxg9dRSB9SjWOiTuqvKgvPAWCXB3H19SrPbiBycWAVWTMaWJ7SNprbYvnhF1Csxun1Bx7Qvy-1OKEwGiw-vjeLjNlySYY_DO8sP562vtdYaIyAGCVrJhvTG5zibJ2OjsC87gPaAsbmddR0v6o1VaiA8z7r-lBon-qmSe4XI5R8vghJdCgZqByKNZWVTOQ4GV0l-E08mZGCatyAaHyjan8o7JdsWgZlNAf16pgF7-f-GbZPVbsc6kEg2ZNPcDWGrpVe6qeoW_N1USp-0WiLDa8riHvtTukj2yJEzmAWLKwdzsgT8TMBn6np4lTOoSRH_yR7roNy2ti5G35jSVz0SWMOaBt30GHZnY0EkYwlTDm4z- -QtlAEm7D6LcHBK9XSZ4wVfBWagq_xLHfbE9FtPvml5d- -Vtg3sMU9eMtkVlxJChlfR1OT6oRFznS0]--></g></svg>