<?xml version="1.0" encoding="UTF-8" standalone="no"?><svg xmlns="http://www.w3.org/2000/svg" xmlns:xlink="http://www.w3.org/1999/xlink" contentStyleType="text/css" height="625px" preserveAspectRatio="none" style="width:1811px;height:625px;background:#FFFFFF;" version="1.1" viewBox="0 0 1811 625" width="1811px" zoomAndPan="magnify"><defs/><g><rect fill="#FFFFFF" height="392.5625" style="stroke:#181818;stroke-width:1.0;" width="10" x="43" y="111.3125"/><rect fill="#FFFFFF" height="361.4063" style="stroke:#181818;stroke-width:1.0;" width="10" x="307" y="142.4688"/><rect fill="#FFFFFF" height="274.0938" style="stroke:#181818;stroke-width:1.0;" width="10" x="539" y="181.625"/><rect fill="#FFFFFF" height="39.1563" style="stroke:#181818;stroke-width:1.0;" width="10" x="1227" y="220.7813"/><rect fill="#FFFFFF" height="117.4688" style="stroke:#181818;stroke-width:1.0;" width="10" x="1449.5" y="299.0938"/><rect fill="#FFFFFF" height="39.1563" style="stroke:#181818;stroke-width:1.0;" width="10" x="1734.5" y="338.25"/><line style="stroke:#181818;stroke-width:0.5;stroke-dasharray:5.0,5.0;" x1="48" x2="48" y1="101.3125" y2="512.875"/><line style="stroke:#181818;stroke-width:0.5;stroke-dasharray:5.0,5.0;" x1="311.5" x2="311.5" y1="101.3125" y2="512.875"/><line style="stroke:#181818;stroke-width:0.5;stroke-dasharray:5.0,5.0;" x1="544" x2="544" y1="101.3125" y2="512.875"/><line style="stroke:#181818;stroke-width:0.5;stroke-dasharray:5.0,5.0;" x1="1231.5" x2="1231.5" y1="101.3125" y2="512.875"/><line style="stroke:#181818;stroke-width:0.5;stroke-dasharray:5.0,5.0;" x1="1454.5" x2="1454.5" y1="101.3125" y2="512.875"/><line style="stroke:#181818;stroke-width:0.5;stroke-dasharray:5.0,5.0;" x1="1739.5" x2="1739.5" y1="101.3125" y2="512.875"/><text fill="#000000" font-family="sans-serif" font-size="20" lengthAdjust="spacing" textLength="80" x="5" y="96.918">Operator</text><ellipse cx="48" cy="24.6563" fill="#E2E2F0" rx="8" ry="8" style="stroke:#181818;stroke-width:0.5;"/><path d="M48,32.6563 L48,59.6563 M35,40.6563 L61,40.6563 M48,59.6563 L35,74.6563 M48,59.6563 L61,74.6563 " fill="none" style="stroke:#181818;stroke-width:0.5;"/><text fill="#000000" font-family="sans-serif" font-size="20" lengthAdjust="spacing" textLength="80" x="5" y="532.6367">Operator</text><ellipse cx="48" cy="545.5313" fill="#E2E2F0" rx="8" ry="8" style="stroke:#181818;stroke-width:0.5;"/><path d="M48,553.5313 L48,580.5313 M35,561.5313 L61,561.5313 M48,580.5313 L35,595.5313 M48,580.5313 L61,595.5313 " fill="none" style="stroke:#181818;stroke-width:0.5;"/><rect fill="#E2E2F0" height="64.3125" rx="2.5" ry="2.5" style="stroke:#181818;stroke-width:0.5;" width="163" x="230.5" y="36"/><text fill="#000000" font-family="sans-serif" font-size="20" font-style="italic" lengthAdjust="spacing" textLength="131" x="246.5" y="63.7617">«presentation»</text><text fill="#000000" font-family="sans-serif" font-size="20" lengthAdjust="spacing" textLength="149" x="237.5" y="88.918">ListCandidatesUI</text><rect fill="#E2E2F0" height="64.3125" rx="2.5" ry="2.5" style="stroke:#181818;stroke-width:0.5;" width="163" x="230.5" y="511.875"/><text fill="#000000" font-family="sans-serif" font-size="20" font-style="italic" lengthAdjust="spacing" textLength="131" x="246.5" y="539.6367">«presentation»</text><text fill="#000000" font-family="sans-serif" font-size="20" lengthAdjust="spacing" textLength="149" x="237.5" y="564.793">ListCandidatesUI</text><rect fill="#E2E2F0" height="64.3125" rx="2.5" ry="2.5" style="stroke:#181818;stroke-width:0.5;" width="236" x="426" y="36"/><text fill="#000000" font-family="sans-serif" font-size="20" font-style="italic" lengthAdjust="spacing" textLength="109" x="489.5" y="63.7617">«Aplication»</text><text fill="#000000" font-family="sans-serif" font-size="20" lengthAdjust="spacing" textLength="222" x="433" y="88.918">ListCandidatesControllerr</text><rect fill="#E2E2F0" height="64.3125" rx="2.5" ry="2.5" style="stroke:#181818;stroke-width:0.5;" width="236" x="426" y="511.875"/><text fill="#000000" font-family="sans-serif" font-size="20" font-style="italic" lengthAdjust="spacing" textLength="109" x="489.5" y="539.6367">«Aplication»</text><text fill="#000000" font-family="sans-serif" font-size="20" lengthAdjust="spacing" textLength="222" x="433" y="564.793">ListCandidatesControllerr</text><rect fill="#E2E2F0" height="39.1563" rx="2.5" ry="2.5" style="stroke:#181818;stroke-width:0.5;" width="191" x="1136.5" y="61.1563"/><text fill="#000000" font-family="sans-serif" font-size="20" lengthAdjust="spacing" textLength="177" x="1143.5" y="88.918">AuthorizationService</text><rect fill="#E2E2F0" height="39.1563" rx="2.5" ry="2.5" style="stroke:#181818;stroke-width:0.5;" width="191" x="1136.5" y="511.875"/><text fill="#000000" font-family="sans-serif" font-size="20" lengthAdjust="spacing" textLength="177" x="1143.5" y="539.6367">AuthorizationService</text><rect fill="#E2E2F0" height="39.1563" rx="2.5" ry="2.5" style="stroke:#181818;stroke-width:0.5;" width="234" x="1337.5" y="61.1563"/><text fill="#000000" font-family="sans-serif" font-size="20" lengthAdjust="spacing" textLength="220" x="1344.5" y="88.918">UserManagementService</text><rect fill="#E2E2F0" height="39.1563" rx="2.5" ry="2.5" style="stroke:#181818;stroke-width:0.5;" width="234" x="1337.5" y="511.875"/><text fill="#000000" font-family="sans-serif" font-size="20" lengthAdjust="spacing" textLength="220" x="1344.5" y="539.6367">UserManagementService</text><text fill="#000000" font-family="sans-serif" font-size="20" font-style="italic" lengthAdjust="spacing" textLength="110" x="1681.5" y="71.7617">«repository»</text><text fill="#000000" font-family="sans-serif" font-size="20" lengthAdjust="spacing" textLength="136" x="1668.5" y="96.918">UserRepository</text><path d="M1721.5,15 C1721.5,5 1739.5,5 1739.5,5 C1739.5,5 1757.5,5 1757.5,15 L1757.5,41 C1757.5,51 1739.5,51 1739.5,51 C1739.5,51 1721.5,51 1721.5,41 L1721.5,15 " fill="#E2E2F0" style="stroke:#181818;stroke-width:1.5;"/><path d="M1721.5,15 C1721.5,25 1739.5,25 1739.5,25 C1739.5,25 1757.5,25 1757.5,15 " fill="none" style="stroke:#181818;stroke-width:1.5;"/><text fill="#000000" font-family="sans-serif" font-size="20" font-style="italic" lengthAdjust="spacing" textLength="110" x="1681.5" y="532.6367">«repository»</text><text fill="#000000" font-family="sans-serif" font-size="20" lengthAdjust="spacing" textLength="136" x="1668.5" y="557.793">UserRepository</text><path d="M1721.5,572.1875 C1721.5,562.1875 1739.5,562.1875 1739.5,562.1875 C1739.5,562.1875 1757.5,562.1875 1757.5,572.1875 L1757.5,598.1875 C1757.5,608.1875 1739.5,608.1875 1739.5,608.1875 C1739.5,608.1875 1721.5,608.1875 1721.5,598.1875 L1721.5,572.1875 " fill="#E2E2F0" style="stroke:#181818;stroke-width:1.5;"/><path d="M1721.5,572.1875 C1721.5,582.1875 1739.5,582.1875 1739.5,582.1875 C1739.5,582.1875 1757.5,582.1875 1757.5,572.1875 " fill="none" style="stroke:#181818;stroke-width:1.5;"/><rect fill="#FFFFFF" height="392.5625" style="stroke:#181818;stroke-width:1.0;" width="10" x="43" y="111.3125"/><rect fill="#FFFFFF" height="361.4063" style="stroke:#181818;stroke-width:1.0;" width="10" x="307" y="142.4688"/><rect fill="#FFFFFF" height="274.0938" style="stroke:#181818;stroke-width:1.0;" width="10" x="539" y="181.625"/><rect fill="#FFFFFF" height="39.1563" style="stroke:#181818;stroke-width:1.0;" width="10" x="1227" y="220.7813"/><rect fill="#FFFFFF" height="117.4688" style="stroke:#181818;stroke-width:1.0;" width="10" x="1449.5" y="299.0938"/><rect fill="#FFFFFF" height="39.1563" style="stroke:#181818;stroke-width:1.0;" width="10" x="1734.5" y="338.25"/><polygon fill="#181818" points="295,138.4688,305,142.4688,295,146.4688,299,142.4688" style="stroke:#181818;stroke-width:1.0;"/><line style="stroke:#181818;stroke-width:1.0;" x1="53" x2="301" y1="142.4688" y2="142.4688"/><text fill="#000000" font-family="sans-serif" font-size="20" font-weight="bold" lengthAdjust="spacing" textLength="11" x="60" y="136.0742">1</text><text fill="#000000" font-family="sans-serif" font-size="20" lengthAdjust="spacing" textLength="220" x="75" y="136.0742">asks to list all candidates</text><polygon fill="#181818" points="527,177.625,537,181.625,527,185.625,531,181.625" style="stroke:#181818;stroke-width:1.0;"/><line style="stroke:#181818;stroke-width:1.0;" x1="317" x2="533" y1="181.625" y2="181.625"/><text fill="#000000" font-family="sans-serif" font-size="20" font-weight="bold" lengthAdjust="spacing" textLength="11" x="324" y="175.2305">2</text><text fill="#000000" font-family="sans-serif" font-size="20" lengthAdjust="spacing" textLength="188" x="339" y="175.2305">listCandidatesUsers()</text><polygon fill="#181818" points="1215,216.7813,1225,220.7813,1215,224.7813,1219,220.7813" style="stroke:#181818;stroke-width:1.0;"/><line style="stroke:#181818;stroke-width:1.0;" x1="549" x2="1221" y1="220.7813" y2="220.7813"/><text fill="#000000" font-family="sans-serif" font-size="20" font-weight="bold" lengthAdjust="spacing" textLength="11" x="556" y="214.3867">3</text><text fill="#000000" font-family="sans-serif" font-size="20" lengthAdjust="spacing" textLength="322" x="571" y="214.3867">ensureAuthenticatedUserHasAnyOf()</text><polygon fill="#181818" points="560,255.9375,550,259.9375,560,263.9375,556,259.9375" style="stroke:#181818;stroke-width:1.0;"/><line style="stroke:#181818;stroke-width:1.0;stroke-dasharray:2.0,2.0;" x1="554" x2="1231" y1="259.9375" y2="259.9375"/><text fill="#000000" font-family="sans-serif" font-size="20" font-weight="bold" lengthAdjust="spacing" textLength="11" x="566" y="253.543">4</text><text fill="#000000" font-family="sans-serif" font-size="20" lengthAdjust="spacing" textLength="639" x="581" y="253.543">returns confirmation that user is credited to perform the current operation</text><polygon fill="#181818" points="1437.5,295.0938,1447.5,299.0938,1437.5,303.0938,1441.5,299.0938" style="stroke:#181818;stroke-width:1.0;"/><line style="stroke:#181818;stroke-width:1.0;" x1="549" x2="1443.5" y1="299.0938" y2="299.0938"/><text fill="#000000" font-family="sans-serif" font-size="20" font-weight="bold" lengthAdjust="spacing" textLength="11" x="556" y="292.6992">5</text><text fill="#000000" font-family="sans-serif" font-size="20" lengthAdjust="spacing" textLength="84" x="571" y="292.6992">allUsers()</text><polygon fill="#181818" points="1722.5,334.25,1732.5,338.25,1722.5,342.25,1726.5,338.25" style="stroke:#181818;stroke-width:1.0;"/><line style="stroke:#181818;stroke-width:1.0;" x1="1459.5" x2="1728.5" y1="338.25" y2="338.25"/><text fill="#000000" font-family="sans-serif" font-size="20" font-weight="bold" lengthAdjust="spacing" textLength="11" x="1466.5" y="331.8555">6</text><text fill="#000000" font-family="sans-serif" font-size="20" lengthAdjust="spacing" textLength="66" x="1481.5" y="331.8555">findAll()</text><polygon fill="#181818" points="1470.5,373.4063,1460.5,377.4063,1470.5,381.4063,1466.5,377.4063" style="stroke:#181818;stroke-width:1.0;"/><line style="stroke:#181818;stroke-width:1.0;stroke-dasharray:2.0,2.0;" x1="1464.5" x2="1738.5" y1="377.4063" y2="377.4063"/><text fill="#000000" font-family="sans-serif" font-size="20" font-weight="bold" lengthAdjust="spacing" textLength="11" x="1476.5" y="371.0117">7</text><text fill="#000000" font-family="sans-serif" font-size="20" lengthAdjust="spacing" textLength="236" x="1491.5" y="371.0117">returns Iterable of all users</text><polygon fill="#181818" points="560,412.5625,550,416.5625,560,420.5625,556,416.5625" style="stroke:#181818;stroke-width:1.0;"/><line style="stroke:#181818;stroke-width:1.0;stroke-dasharray:2.0,2.0;" x1="554" x2="1453.5" y1="416.5625" y2="416.5625"/><text fill="#000000" font-family="sans-serif" font-size="20" font-weight="bold" lengthAdjust="spacing" textLength="11" x="566" y="410.168">8</text><text fill="#000000" font-family="sans-serif" font-size="20" lengthAdjust="spacing" textLength="372" x="581" y="410.168">returns only the candidates as a sorted list</text><polygon fill="#181818" points="328,451.7188,318,455.7188,328,459.7188,324,455.7188" style="stroke:#181818;stroke-width:1.0;"/><line style="stroke:#181818;stroke-width:1.0;stroke-dasharray:2.0,2.0;" x1="322" x2="543" y1="455.7188" y2="455.7188"/><text fill="#000000" font-family="sans-serif" font-size="20" font-weight="bold" lengthAdjust="spacing" textLength="11" x="334" y="449.3242">9</text><text fill="#000000" font-family="sans-serif" font-size="20" lengthAdjust="spacing" textLength="91" x="349" y="449.3242">returns list</text><polygon fill="#181818" points="64,490.875,54,494.875,64,498.875,60,494.875" style="stroke:#181818;stroke-width:1.0;"/><line style="stroke:#181818;stroke-width:1.0;stroke-dasharray:2.0,2.0;" x1="58" x2="306" y1="494.875" y2="494.875"/><text fill="#000000" font-family="sans-serif" font-size="20" font-weight="bold" lengthAdjust="spacing" textLength="22" x="70" y="488.4805">10</text><text fill="#000000" font-family="sans-serif" font-size="20" lengthAdjust="spacing" textLength="150" x="96" y="488.4805">displays all users</text><!--SRC=[VLFBRjim4BppAnQ-j3suBdeK0WE2qJO6agfmeWzOawkOC4MgV0HmlhwxT6ehRL4T146SsNcib8xMJnXnT44VoO2X0OlBNuFF3_Q5uFCdzUwGyvIQrMfow7CPtKSTnbMYduMyfgMn-CHyfR3auCkufwXGvn1XqKqKaPyMW0awnJhPQZln55ZSsPGtw8qrc2drsuhfjt1pCqLAv3Dc6_nw_J_MXbt6u1p5iyJcSNV70zh9MVrFUblo8KJxKWyVA3vRJPNPze-tRw5zedYF7fzeP3DpR7___PjYVTnZ8X3SZgQGB0SzoVdkou-UNSJBItR15tTYdzar5z4jrnArOVGnGGxWE1QWSw0lsQxuVgiOp1I9rrJih3YMJ-y_ND42KhK8PaYi1iYd4acoSn9fXepGRZ6r_jGDStRjGMwml0X6oYNw13humSQnTWVvW1aAJm7B9v6CvQaIXLS-X3WoW42N65aIGlqEcAOClPNwRLGwRQI1l_BKjkKcCAcsWS5wqpetHyc1giKlNwV1rVWsi_pU4OIXbYosqznAPPyrNbFFsC6xqpdDfNJPCa8AKJBBFkR3gk5phhhcwwG_aNLLibh6TQneRE9Vx9Ik9dy1]--></g></svg>