<?xml version="1.0" encoding="us-ascii" standalone="no"?><svg xmlns="http://www.w3.org/2000/svg" xmlns:xlink="http://www.w3.org/1999/xlink" contentStyleType="text/css" height="906px" preserveAspectRatio="none" style="width:682px;height:906px;background:#FFFFFF;" version="1.1" viewBox="0 0 682 906" width="682px" zoomAndPan="magnify"><defs/><g><!--class AddCandidateUI--><g id="elem_AddCandidateUI"><rect codeLine="3" fill="#F1F1F1" height="141.1055" id="AddCandidateUI" rx="2.5" ry="2.5" style="stroke:#181818;stroke-width:0.5;" width="162" x="117.5" y="7"/><ellipse cx="145.1" cy="23" fill="#ADD1B2" rx="11" ry="11" style="stroke:#181818;stroke-width:1.0;"/><path d="M147.8656,18.875 Q148.0219,18.6563 148.2094,18.5469 Q148.3969,18.4375 148.6156,18.4375 Q148.9906,18.4375 149.225,18.7031 Q149.4594,18.9531 149.4594,19.5625 L149.4594,21.0156 Q149.4594,21.625 149.225,21.8906 Q148.9906,22.1563 148.6156,22.1563 Q148.2719,22.1563 148.0688,21.9531 Q147.8656,21.7656 147.7563,21.25 Q147.7094,20.8906 147.5219,20.7031 Q147.1938,20.3281 146.5844,20.1094 Q145.975,19.8906 145.35,19.8906 Q144.5844,19.8906 143.9438,20.2188 Q143.3188,20.5469 142.8188,21.2969 Q142.3344,22.0469 142.3344,23.0781 L142.3344,24.1719 Q142.3344,25.4063 143.225,26.2344 Q144.1156,27.0469 145.7094,27.0469 Q146.6469,27.0469 147.3031,26.7969 Q147.6938,26.6406 148.1156,26.2031 Q148.3813,25.9375 148.5219,25.8594 Q148.6781,25.7813 148.8813,25.7813 Q149.2094,25.7813 149.4594,26.0469 Q149.725,26.2969 149.725,26.6406 Q149.725,26.9844 149.3813,27.3906 Q148.8813,27.9688 148.0844,28.2969 Q147.0063,28.75 145.7094,28.75 Q144.1938,28.75 142.9906,28.125 Q142.0063,27.625 141.3188,26.5625 Q140.6313,25.4844 140.6313,24.2031 L140.6313,23.0469 Q140.6313,21.7188 141.2406,20.5781 Q141.8656,19.4219 142.9594,18.8125 Q144.0531,18.1875 145.2875,18.1875 Q146.0219,18.1875 146.6625,18.3594 Q147.3188,18.5156 147.8656,18.875 Z " fill="#000000"/><text fill="#000000" font-family="sans-serif" font-size="14" lengthAdjust="spacing" textLength="102" x="161.9" y="28.7969">AddCandidateUI</text><line style="stroke:#181818;stroke-width:0.5;" x1="118.5" x2="278.5" y1="39" y2="39"/><rect fill="none" height="6" style="stroke:#C82930;stroke-width:1.0;" width="6" x="125.5" y="50.8105"/><text fill="#000000" font-family="sans-serif" font-size="14" lengthAdjust="spacing" textLength="82" x="137.5" y="58.1074">theController</text><rect fill="none" height="6" style="stroke:#C82930;stroke-width:1.0;" width="6" x="125.5" y="69.4316"/><text fill="#000000" font-family="sans-serif" font-size="14" lengthAdjust="spacing" textLength="136" x="137.5" y="76.7285">candidateDataWidget</text><text fill="#000000" font-family="sans-serif" font-size="14" lengthAdjust="spacing" textLength="5" x="137.5" y="95.3496">-</text><line style="stroke:#181818;stroke-width:0.5;" x1="118.5" x2="278.5" y1="102.8633" y2="102.8633"/><ellipse cx="128.5" cy="117.6738" fill="#84BE84" rx="3" ry="3" style="stroke:#038048;stroke-width:1.0;"/><text fill="#000000" font-family="sans-serif" font-size="14" lengthAdjust="spacing" textLength="60" x="137.5" y="121.9707">doShow()</text><ellipse cx="128.5" cy="136.2949" fill="#84BE84" rx="3" ry="3" style="stroke:#038048;stroke-width:1.0;"/><text fill="#000000" font-family="sans-serif" font-size="14" lengthAdjust="spacing" textLength="64" x="137.5" y="140.5918">headline()</text></g><!--class CandidateDataWidget--><g id="elem_CandidateDataWidget"><rect codeLine="11" fill="#F1F1F1" height="178.3477" id="CandidateDataWidget" rx="2.5" ry="2.5" style="stroke:#181818;stroke-width:0.5;" width="171" x="7" y="208"/><ellipse cx="22" cy="224" fill="#ADD1B2" rx="11" ry="11" style="stroke:#181818;stroke-width:1.0;"/><path d="M24.7656,219.875 Q24.9219,219.6563 25.1094,219.5469 Q25.2969,219.4375 25.5156,219.4375 Q25.8906,219.4375 26.125,219.7031 Q26.3594,219.9531 26.3594,220.5625 L26.3594,222.0156 Q26.3594,222.625 26.125,222.8906 Q25.8906,223.1563 25.5156,223.1563 Q25.1719,223.1563 24.9688,222.9531 Q24.7656,222.7656 24.6563,222.25 Q24.6094,221.8906 24.4219,221.7031 Q24.0938,221.3281 23.4844,221.1094 Q22.875,220.8906 22.25,220.8906 Q21.4844,220.8906 20.8438,221.2188 Q20.2188,221.5469 19.7188,222.2969 Q19.2344,223.0469 19.2344,224.0781 L19.2344,225.1719 Q19.2344,226.4063 20.125,227.2344 Q21.0156,228.0469 22.6094,228.0469 Q23.5469,228.0469 24.2031,227.7969 Q24.5938,227.6406 25.0156,227.2031 Q25.2813,226.9375 25.4219,226.8594 Q25.5781,226.7813 25.7813,226.7813 Q26.1094,226.7813 26.3594,227.0469 Q26.625,227.2969 26.625,227.6406 Q26.625,227.9844 26.2813,228.3906 Q25.7813,228.9688 24.9844,229.2969 Q23.9063,229.75 22.6094,229.75 Q21.0938,229.75 19.8906,229.125 Q18.9063,228.625 18.2188,227.5625 Q17.5313,226.4844 17.5313,225.2031 L17.5313,224.0469 Q17.5313,222.7188 18.1406,221.5781 Q18.7656,220.4219 19.8594,219.8125 Q20.9531,219.1875 22.1875,219.1875 Q22.9219,219.1875 23.5625,219.3594 Q24.2188,219.5156 24.7656,219.875 Z " fill="#000000"/><text fill="#000000" font-family="sans-serif" font-size="14" lengthAdjust="spacing" textLength="139" x="36" y="229.7969">CandidateDataWidget</text><line style="stroke:#181818;stroke-width:0.5;" x1="8" x2="177" y1="240" y2="240"/><rect fill="none" height="6" style="stroke:#C82930;stroke-width:1.0;" width="6" x="15" y="251.8105"/><text fill="#000000" font-family="sans-serif" font-size="14" lengthAdjust="spacing" textLength="33" x="27" y="259.1074">email</text><rect fill="none" height="6" style="stroke:#C82930;stroke-width:1.0;" width="6" x="15" y="270.4316"/><text fill="#000000" font-family="sans-serif" font-size="14" lengthAdjust="spacing" textLength="60" x="27" y="277.7285">password</text><rect fill="none" height="6" style="stroke:#C82930;stroke-width:1.0;" width="6" x="15" y="289.0527"/><text fill="#000000" font-family="sans-serif" font-size="14" lengthAdjust="spacing" textLength="89" x="27" y="296.3496">phoneNumber</text><line style="stroke:#181818;stroke-width:0.5;" x1="8" x2="177" y1="303.8633" y2="303.8633"/><ellipse cx="18" cy="318.6738" fill="#84BE84" rx="3" ry="3" style="stroke:#038048;stroke-width:1.0;"/><text fill="#000000" font-family="sans-serif" font-size="14" lengthAdjust="spacing" textLength="42" x="27" y="322.9707">show()</text><ellipse cx="18" cy="337.2949" fill="#84BE84" rx="3" ry="3" style="stroke:#038048;stroke-width:1.0;"/><text fill="#000000" font-family="sans-serif" font-size="14" lengthAdjust="spacing" textLength="43" x="27" y="341.5918">email()</text><ellipse cx="18" cy="355.916" fill="#84BE84" rx="3" ry="3" style="stroke:#038048;stroke-width:1.0;"/><text fill="#000000" font-family="sans-serif" font-size="14" lengthAdjust="spacing" textLength="70" x="27" y="360.2129">password()</text><ellipse cx="18" cy="374.5371" fill="#84BE84" rx="3" ry="3" style="stroke:#038048;stroke-width:1.0;"/><text fill="#000000" font-family="sans-serif" font-size="14" lengthAdjust="spacing" textLength="99" x="27" y="378.834">phoneNumber()</text></g><!--class AddCandidateController--><g id="elem_AddCandidateController"><rect codeLine="21" fill="#F1F1F1" height="122.4844" id="AddCandidateController" rx="2.5" ry="2.5" style="stroke:#181818;stroke-width:0.5;" width="184" x="213.5" y="236"/><ellipse cx="228.5" cy="252" fill="#ADD1B2" rx="11" ry="11" style="stroke:#181818;stroke-width:1.0;"/><path d="M231.2656,247.875 Q231.4219,247.6563 231.6094,247.5469 Q231.7969,247.4375 232.0156,247.4375 Q232.3906,247.4375 232.625,247.7031 Q232.8594,247.9531 232.8594,248.5625 L232.8594,250.0156 Q232.8594,250.625 232.625,250.8906 Q232.3906,251.1563 232.0156,251.1563 Q231.6719,251.1563 231.4688,250.9531 Q231.2656,250.7656 231.1563,250.25 Q231.1094,249.8906 230.9219,249.7031 Q230.5938,249.3281 229.9844,249.1094 Q229.375,248.8906 228.75,248.8906 Q227.9844,248.8906 227.3438,249.2188 Q226.7188,249.5469 226.2188,250.2969 Q225.7344,251.0469 225.7344,252.0781 L225.7344,253.1719 Q225.7344,254.4063 226.625,255.2344 Q227.5156,256.0469 229.1094,256.0469 Q230.0469,256.0469 230.7031,255.7969 Q231.0938,255.6406 231.5156,255.2031 Q231.7813,254.9375 231.9219,254.8594 Q232.0781,254.7813 232.2813,254.7813 Q232.6094,254.7813 232.8594,255.0469 Q233.125,255.2969 233.125,255.6406 Q233.125,255.9844 232.7813,256.3906 Q232.2813,256.9688 231.4844,257.2969 Q230.4063,257.75 229.1094,257.75 Q227.5938,257.75 226.3906,257.125 Q225.4063,256.625 224.7188,255.5625 Q224.0313,254.4844 224.0313,253.2031 L224.0313,252.0469 Q224.0313,250.7188 224.6406,249.5781 Q225.2656,248.4219 226.3594,247.8125 Q227.4531,247.1875 228.6875,247.1875 Q229.4219,247.1875 230.0625,247.3594 Q230.7188,247.5156 231.2656,247.875 Z " fill="#000000"/><text fill="#000000" font-family="sans-serif" font-size="14" lengthAdjust="spacing" textLength="152" x="242.5" y="257.7969">AddCandidateController</text><line style="stroke:#181818;stroke-width:0.5;" x1="214.5" x2="396.5" y1="268" y2="268"/><rect fill="none" height="6" style="stroke:#C82930;stroke-width:1.0;" width="6" x="221.5" y="279.8105"/><text fill="#000000" font-family="sans-serif" font-size="14" lengthAdjust="spacing" textLength="34" x="233.5" y="287.1074">authz</text><rect fill="none" height="6" style="stroke:#C82930;stroke-width:1.0;" width="6" x="221.5" y="298.4316"/><text fill="#000000" font-family="sans-serif" font-size="14" lengthAdjust="spacing" textLength="51" x="233.5" y="305.7285">userSvc</text><line style="stroke:#181818;stroke-width:0.5;" x1="214.5" x2="396.5" y1="313.2422" y2="313.2422"/><ellipse cx="224.5" cy="328.0527" fill="#84BE84" rx="3" ry="3" style="stroke:#038048;stroke-width:1.0;"/><text fill="#000000" font-family="sans-serif" font-size="14" lengthAdjust="spacing" textLength="99" x="233.5" y="332.3496">addCandidate()</text><ellipse cx="224.5" cy="346.6738" fill="#84BE84" rx="3" ry="3" style="stroke:#038048;stroke-width:1.0;"/><text fill="#000000" font-family="sans-serif" font-size="14" lengthAdjust="spacing" textLength="99" x="233.5" y="350.9707">addCandidate()</text></g><!--class AuthorizationService--><g id="elem_AuthorizationService"><rect codeLine="28" fill="#F1F1F1" height="234.2109" id="AuthorizationService" rx="2.5" ry="2.5" style="stroke:#181818;stroke-width:0.5;" width="259" x="45" y="474"/><ellipse cx="105.75" cy="490" fill="#ADD1B2" rx="11" ry="11" style="stroke:#181818;stroke-width:1.0;"/><path d="M108.5156,485.875 Q108.6719,485.6563 108.8594,485.5469 Q109.0469,485.4375 109.2656,485.4375 Q109.6406,485.4375 109.875,485.7031 Q110.1094,485.9531 110.1094,486.5625 L110.1094,488.0156 Q110.1094,488.625 109.875,488.8906 Q109.6406,489.1563 109.2656,489.1563 Q108.9219,489.1563 108.7188,488.9531 Q108.5156,488.7656 108.4063,488.25 Q108.3594,487.8906 108.1719,487.7031 Q107.8438,487.3281 107.2344,487.1094 Q106.625,486.8906 106,486.8906 Q105.2344,486.8906 104.5938,487.2188 Q103.9688,487.5469 103.4688,488.2969 Q102.9844,489.0469 102.9844,490.0781 L102.9844,491.1719 Q102.9844,492.4063 103.875,493.2344 Q104.7656,494.0469 106.3594,494.0469 Q107.2969,494.0469 107.9531,493.7969 Q108.3438,493.6406 108.7656,493.2031 Q109.0313,492.9375 109.1719,492.8594 Q109.3281,492.7813 109.5313,492.7813 Q109.8594,492.7813 110.1094,493.0469 Q110.375,493.2969 110.375,493.6406 Q110.375,493.9844 110.0313,494.3906 Q109.5313,494.9688 108.7344,495.2969 Q107.6563,495.75 106.3594,495.75 Q104.8438,495.75 103.6406,495.125 Q102.6563,494.625 101.9688,493.5625 Q101.2813,492.4844 101.2813,491.2031 L101.2813,490.0469 Q101.2813,488.7188 101.8906,487.5781 Q102.5156,486.4219 103.6094,485.8125 Q104.7031,485.1875 105.9375,485.1875 Q106.6719,485.1875 107.3125,485.3594 Q107.9688,485.5156 108.5156,485.875 Z " fill="#000000"/><text fill="#000000" font-family="sans-serif" font-size="14" lengthAdjust="spacing" textLength="129" x="126.25" y="495.7969">AuthorizationService</text><line style="stroke:#181818;stroke-width:0.5;" x1="46" x2="303" y1="506" y2="506"/><rect fill="none" height="6" style="stroke:#C82930;stroke-width:1.0;" width="6" x="53" y="517.8105"/><text fill="#000000" font-family="sans-serif" font-size="14" lengthAdjust="spacing" textLength="60" x="65" y="525.1074">LOGGER</text><rect fill="none" height="6" style="stroke:#C82930;stroke-width:1.0;" width="6" x="53" y="536.4316"/><text fill="#000000" font-family="sans-serif" font-size="14" lengthAdjust="spacing" textLength="70" x="65" y="543.7285">theSession</text><line style="stroke:#181818;stroke-width:0.5;" x1="46" x2="303" y1="551.2422" y2="551.2422"/><ellipse cx="56" cy="566.0527" fill="#84BE84" rx="3" ry="3" style="stroke:#038048;stroke-width:1.0;"/><text fill="#000000" font-family="sans-serif" font-size="14" lengthAdjust="spacing" textLength="139" x="65" y="570.3496">AuthorizationService()</text><ellipse cx="56" cy="584.6738" fill="#84BE84" rx="3" ry="3" style="stroke:#038048;stroke-width:1.0;"/><text fill="#000000" font-family="sans-serif" font-size="14" lengthAdjust="spacing" textLength="151" x="65" y="588.9707">createSessionForUser()</text><ellipse cx="56" cy="603.2949" fill="#84BE84" rx="3" ry="3" style="stroke:#038048;stroke-width:1.0;"/><text fill="#000000" font-family="sans-serif" font-size="14" lengthAdjust="spacing" textLength="91" x="65" y="607.5918">clearSession()</text><ellipse cx="56" cy="621.916" fill="#84BE84" rx="3" ry="3" style="stroke:#038048;stroke-width:1.0;"/><text fill="#000000" font-family="sans-serif" font-size="14" lengthAdjust="spacing" textLength="83" x="65" y="626.2129">hasSession()</text><ellipse cx="56" cy="640.5371" fill="#84BE84" rx="3" ry="3" style="stroke:#038048;stroke-width:1.0;"/><text fill="#000000" font-family="sans-serif" font-size="14" lengthAdjust="spacing" textLength="58" x="65" y="644.834">session()</text><ellipse cx="56" cy="659.1582" fill="#84BE84" rx="3" ry="3" style="stroke:#038048;stroke-width:1.0;"/><text fill="#000000" font-family="sans-serif" font-size="14" lengthAdjust="spacing" textLength="220" x="65" y="663.4551">isAuthenticatedUserAuthorizedTo()</text><ellipse cx="56" cy="677.7793" fill="#84BE84" rx="3" ry="3" style="stroke:#038048;stroke-width:1.0;"/><text fill="#000000" font-family="sans-serif" font-size="14" lengthAdjust="spacing" textLength="233" x="65" y="682.0762">ensureAuthenticatedUserHasAnyOf()</text><ellipse cx="56" cy="696.4004" fill="#84BE84" rx="3" ry="3" style="stroke:#038048;stroke-width:1.0;"/><text fill="#000000" font-family="sans-serif" font-size="14" lengthAdjust="spacing" textLength="197" x="65" y="700.6973">loggedinUserWithPermissions()</text></g><!--class UserManagementService--><g id="elem_UserManagementService"><rect codeLine="40" fill="#F1F1F1" height="290.0742" id="UserManagementService" rx="2.5" ry="2.5" style="stroke:#181818;stroke-width:0.5;" width="194" x="339.5" y="446"/><ellipse cx="356.3" cy="462" fill="#ADD1B2" rx="11" ry="11" style="stroke:#181818;stroke-width:1.0;"/><path d="M359.0656,457.875 Q359.2219,457.6563 359.4094,457.5469 Q359.5969,457.4375 359.8156,457.4375 Q360.1906,457.4375 360.425,457.7031 Q360.6594,457.9531 360.6594,458.5625 L360.6594,460.0156 Q360.6594,460.625 360.425,460.8906 Q360.1906,461.1563 359.8156,461.1563 Q359.4719,461.1563 359.2688,460.9531 Q359.0656,460.7656 358.9563,460.25 Q358.9094,459.8906 358.7219,459.7031 Q358.3938,459.3281 357.7844,459.1094 Q357.175,458.8906 356.55,458.8906 Q355.7844,458.8906 355.1438,459.2188 Q354.5188,459.5469 354.0188,460.2969 Q353.5344,461.0469 353.5344,462.0781 L353.5344,463.1719 Q353.5344,464.4063 354.425,465.2344 Q355.3156,466.0469 356.9094,466.0469 Q357.8469,466.0469 358.5031,465.7969 Q358.8938,465.6406 359.3156,465.2031 Q359.5813,464.9375 359.7219,464.8594 Q359.8781,464.7813 360.0813,464.7813 Q360.4094,464.7813 360.6594,465.0469 Q360.925,465.2969 360.925,465.6406 Q360.925,465.9844 360.5813,466.3906 Q360.0813,466.9688 359.2844,467.2969 Q358.2063,467.75 356.9094,467.75 Q355.3938,467.75 354.1906,467.125 Q353.2063,466.625 352.5188,465.5625 Q351.8313,464.4844 351.8313,463.2031 L351.8313,462.0469 Q351.8313,460.7188 352.4406,459.5781 Q353.0656,458.4219 354.1594,457.8125 Q355.2531,457.1875 356.4875,457.1875 Q357.2219,457.1875 357.8625,457.3594 Q358.5188,457.5156 359.0656,457.875 Z " fill="#000000"/><text fill="#000000" font-family="sans-serif" font-size="14" lengthAdjust="spacing" textLength="158" x="370.7" y="467.7969">UserManagementService</text><line style="stroke:#181818;stroke-width:0.5;" x1="340.5" x2="532.5" y1="478" y2="478"/><rect fill="none" height="6" style="stroke:#C82930;stroke-width:1.0;" width="6" x="347.5" y="489.8105"/><text fill="#000000" font-family="sans-serif" font-size="14" lengthAdjust="spacing" textLength="96" x="359.5" y="497.1074">userRepository</text><rect fill="none" height="6" style="stroke:#C82930;stroke-width:1.0;" width="6" x="347.5" y="508.4316"/><text fill="#000000" font-family="sans-serif" font-size="14" lengthAdjust="spacing" textLength="52" x="359.5" y="515.7285">encoder</text><rect fill="none" height="6" style="stroke:#C82930;stroke-width:1.0;" width="6" x="347.5" y="527.0527"/><text fill="#000000" font-family="sans-serif" font-size="14" lengthAdjust="spacing" textLength="36" x="359.5" y="534.3496">policy</text><line style="stroke:#181818;stroke-width:0.5;" x1="340.5" x2="532.5" y1="541.8633" y2="541.8633"/><ellipse cx="350.5" cy="556.6738" fill="#84BE84" rx="3" ry="3" style="stroke:#038048;stroke-width:1.0;"/><text fill="#000000" font-family="sans-serif" font-size="14" lengthAdjust="spacing" textLength="168" x="359.5" y="560.9707">UserManagementService()</text><ellipse cx="350.5" cy="575.2949" fill="#84BE84" rx="3" ry="3" style="stroke:#038048;stroke-width:1.0;"/><text fill="#000000" font-family="sans-serif" font-size="14" lengthAdjust="spacing" textLength="113" x="359.5" y="579.5918">registerNewUser()</text><ellipse cx="350.5" cy="593.916" fill="#84BE84" rx="3" ry="3" style="stroke:#038048;stroke-width:1.0;"/><text fill="#000000" font-family="sans-serif" font-size="14" lengthAdjust="spacing" textLength="113" x="359.5" y="598.2129">registerNewUser()</text><ellipse cx="350.5" cy="612.5371" fill="#84BE84" rx="3" ry="3" style="stroke:#038048;stroke-width:1.0;"/><text fill="#000000" font-family="sans-serif" font-size="14" lengthAdjust="spacing" textLength="87" x="359.5" y="616.834">registerUser()</text><ellipse cx="350.5" cy="631.1582" fill="#84BE84" rx="3" ry="3" style="stroke:#038048;stroke-width:1.0;"/><text fill="#000000" font-family="sans-serif" font-size="14" lengthAdjust="spacing" textLength="83" x="359.5" y="635.4551">activeUsers()</text><ellipse cx="350.5" cy="649.7793" fill="#84BE84" rx="3" ry="3" style="stroke:#038048;stroke-width:1.0;"/><text fill="#000000" font-family="sans-serif" font-size="14" lengthAdjust="spacing" textLength="119" x="359.5" y="654.0762">deactivatedUsers()</text><ellipse cx="350.5" cy="668.4004" fill="#84BE84" rx="3" ry="3" style="stroke:#038048;stroke-width:1.0;"/><text fill="#000000" font-family="sans-serif" font-size="14" lengthAdjust="spacing" textLength="60" x="359.5" y="672.6973">allUsers()</text><ellipse cx="350.5" cy="687.0215" fill="#84BE84" rx="3" ry="3" style="stroke:#038048;stroke-width:1.0;"/><text fill="#000000" font-family="sans-serif" font-size="14" lengthAdjust="spacing" textLength="98" x="359.5" y="691.3184">userOfIdentity()</text><ellipse cx="350.5" cy="705.6426" fill="#84BE84" rx="3" ry="3" style="stroke:#038048;stroke-width:1.0;"/><text fill="#000000" font-family="sans-serif" font-size="14" lengthAdjust="spacing" textLength="104" x="359.5" y="709.9395">deactivateUser()</text><ellipse cx="350.5" cy="724.2637" fill="#84BE84" rx="3" ry="3" style="stroke:#038048;stroke-width:1.0;"/><text fill="#000000" font-family="sans-serif" font-size="14" lengthAdjust="spacing" textLength="88" x="359.5" y="728.5605">activateUser()</text></g><!--class UserRepository--><g id="elem_UserRepository"><rect codeLine="55" fill="#F1F1F1" height="66.6211" id="UserRepository" rx="2.5" ry="2.5" style="stroke:#181818;stroke-width:0.5;" width="130" x="197.5" y="814.5"/><ellipse cx="212.5" cy="830.5" fill="#B4A7E5" rx="11" ry="11" style="stroke:#181818;stroke-width:1.0;"/><path d="M213.4531,827.1406 L213.4531,833.7969 L215.1719,833.7969 Q215.7813,833.7969 216.0469,834.0313 Q216.3125,834.2656 216.3125,834.6563 Q216.3125,835.0313 216.0469,835.2656 Q215.7813,835.5 215.1719,835.5 L210.0313,835.5 Q209.4219,835.5 209.1563,835.2656 Q208.8906,835.0313 208.8906,834.6406 Q208.8906,834.2656 209.1563,834.0313 Q209.4219,833.7969 210.0313,833.7969 L211.75,833.7969 L211.75,827.1406 L210.0313,827.1406 Q209.4219,827.1406 209.1563,826.9063 Q208.8906,826.6719 208.8906,826.2813 Q208.8906,825.9063 209.1563,825.6719 Q209.4219,825.4375 210.0313,825.4375 L215.1719,825.4375 Q215.7813,825.4375 216.0469,825.6719 Q216.3125,825.9063 216.3125,826.2813 Q216.3125,826.6719 216.0469,826.9063 Q215.7813,827.1406 215.1719,827.1406 L213.4531,827.1406 Z " fill="#000000"/><text fill="#000000" font-family="sans-serif" font-size="14" font-style="italic" lengthAdjust="spacing" textLength="98" x="226.5" y="836.2969">UserRepository</text><line style="stroke:#181818;stroke-width:0.5;" x1="198.5" x2="326.5" y1="846.5" y2="846.5"/><line style="stroke:#181818;stroke-width:0.5;" x1="198.5" x2="326.5" y1="854.5" y2="854.5"/><ellipse cx="208.5" cy="869.3105" fill="#84BE84" rx="3" ry="3" style="stroke:#038048;stroke-width:1.0;"/><text fill="#000000" font-family="sans-serif" font-size="14" lengthAdjust="spacing" textLength="87" x="217.5" y="873.6074">findByActive()</text></g><!--class PasswordEncoder--><g id="elem_PasswordEncoder"><rect codeLine="58" fill="#F1F1F1" height="103.8633" id="PasswordEncoder" rx="2.5" ry="2.5" style="stroke:#181818;stroke-width:0.5;" width="148" x="362.5" y="796"/><ellipse cx="378.4" cy="812" fill="#B4A7E5" rx="11" ry="11" style="stroke:#181818;stroke-width:1.0;"/><path d="M379.3531,808.6406 L379.3531,815.2969 L381.0719,815.2969 Q381.6813,815.2969 381.9469,815.5313 Q382.2125,815.7656 382.2125,816.1563 Q382.2125,816.5313 381.9469,816.7656 Q381.6813,817 381.0719,817 L375.9313,817 Q375.3219,817 375.0563,816.7656 Q374.7906,816.5313 374.7906,816.1406 Q374.7906,815.7656 375.0563,815.5313 Q375.3219,815.2969 375.9313,815.2969 L377.65,815.2969 L377.65,808.6406 L375.9313,808.6406 Q375.3219,808.6406 375.0563,808.4063 Q374.7906,808.1719 374.7906,807.7813 Q374.7906,807.4063 375.0563,807.1719 Q375.3219,806.9375 375.9313,806.9375 L381.0719,806.9375 Q381.6813,806.9375 381.9469,807.1719 Q382.2125,807.4063 382.2125,807.7813 Q382.2125,808.1719 381.9469,808.4063 Q381.6813,808.6406 381.0719,808.6406 L379.3531,808.6406 Z " fill="#000000"/><text fill="#000000" font-family="sans-serif" font-size="14" font-style="italic" lengthAdjust="spacing" textLength="114" x="392.6" y="817.7969">PasswordEncoder</text><line style="stroke:#181818;stroke-width:0.5;" x1="363.5" x2="509.5" y1="828" y2="828"/><line style="stroke:#181818;stroke-width:0.5;" x1="363.5" x2="509.5" y1="836" y2="836"/><ellipse cx="373.5" cy="850.8105" fill="#84BE84" rx="3" ry="3" style="stroke:#038048;stroke-width:1.0;"/><text fill="#000000" font-family="sans-serif" font-size="14" lengthAdjust="spacing" textLength="65" x="382.5" y="855.1074">enconde()</text><ellipse cx="373.5" cy="869.4316" fill="#84BE84" rx="3" ry="3" style="stroke:#038048;stroke-width:1.0;"/><text fill="#000000" font-family="sans-serif" font-size="14" lengthAdjust="spacing" textLength="63" x="382.5" y="873.7285">matches()</text><ellipse cx="373.5" cy="888.0527" fill="#84BE84" rx="3" ry="3" style="stroke:#038048;stroke-width:1.0;"/><text fill="#000000" font-family="sans-serif" font-size="14" lengthAdjust="spacing" textLength="122" x="382.5" y="892.3496">upgradeEncoding()</text></g><!--class PasswordPolicy--><g id="elem_PasswordPolicy"><rect codeLine="63" fill="#F1F1F1" height="66.6211" id="PasswordPolicy" rx="2.5" ry="2.5" style="stroke:#181818;stroke-width:0.5;" width="130" x="545.5" y="814.5"/><ellipse cx="560.5" cy="830.5" fill="#B4A7E5" rx="11" ry="11" style="stroke:#181818;stroke-width:1.0;"/><path d="M561.4531,827.1406 L561.4531,833.7969 L563.1719,833.7969 Q563.7813,833.7969 564.0469,834.0313 Q564.3125,834.2656 564.3125,834.6563 Q564.3125,835.0313 564.0469,835.2656 Q563.7813,835.5 563.1719,835.5 L558.0313,835.5 Q557.4219,835.5 557.1563,835.2656 Q556.8906,835.0313 556.8906,834.6406 Q556.8906,834.2656 557.1563,834.0313 Q557.4219,833.7969 558.0313,833.7969 L559.75,833.7969 L559.75,827.1406 L558.0313,827.1406 Q557.4219,827.1406 557.1563,826.9063 Q556.8906,826.6719 556.8906,826.2813 Q556.8906,825.9063 557.1563,825.6719 Q557.4219,825.4375 558.0313,825.4375 L563.1719,825.4375 Q563.7813,825.4375 564.0469,825.6719 Q564.3125,825.9063 564.3125,826.2813 Q564.3125,826.6719 564.0469,826.9063 Q563.7813,827.1406 563.1719,827.1406 L561.4531,827.1406 Z " fill="#000000"/><text fill="#000000" font-family="sans-serif" font-size="14" font-style="italic" lengthAdjust="spacing" textLength="98" x="574.5" y="836.2969">PasswordPolicy</text><line style="stroke:#181818;stroke-width:0.5;" x1="546.5" x2="674.5" y1="846.5" y2="846.5"/><ellipse cx="556.5" cy="861.3105" fill="none" rx="3" ry="3" style="stroke:#038048;stroke-width:1.0;"/><text fill="#000000" font-family="sans-serif" font-size="14" lengthAdjust="spacing" textLength="80" x="565.5" y="865.6074">isSatisfiedBy</text><line style="stroke:#181818;stroke-width:0.5;" x1="546.5" x2="674.5" y1="873.1211" y2="873.1211"/></g><!--link AddCandidateUI to CandidateDataWidget--><g id="link_AddCandidateUI_CandidateDataWidget"><path codeLine="67" d="M164.52,148.22 C155.26,167.23 152.9834,171.8882 143.2934,191.7782 " fill="none" id="AddCandidateUI-to-CandidateDataWidget" style="stroke:#181818;stroke-width:1.0;"/><polygon fill="none" points="135.41,207.96,148.6874,194.406,137.8995,189.1504,135.41,207.96" style="stroke:#181818;stroke-width:1.0;"/></g><!--link AddCandidateUI to AddCandidateController--><g id="link_AddCandidateUI_AddCandidateController"><path codeLine="68" d="M232.8,148.22 C246.67,176.42 254.5926,192.5195 267.9526,219.6695 " fill="none" id="AddCandidateUI-to-AddCandidateController" style="stroke:#181818;stroke-width:1.0;"/><polygon fill="none" points="275.9,235.82,273.3361,217.0204,262.5691,222.3186,275.9,235.82" style="stroke:#181818;stroke-width:1.0;"/></g><!--link AddCandidateController to AuthorizationService--><g id="link_AddCandidateController_AuthorizationService"><path codeLine="69" d="M278.52,358.15 C263.54,391.54 251.7597,417.7978 233.9797,457.4178 " fill="none" id="AddCandidateController-to-AuthorizationService" style="stroke:#181818;stroke-width:1.0;"/><polygon fill="none" points="226.61,473.84,239.4537,459.8744,228.5056,454.9613,226.61,473.84" style="stroke:#181818;stroke-width:1.0;"/></g><!--link AddCandidateController to UserManagementService--><g id="link_AddCandidateController_UserManagementService"><path codeLine="70" d="M332.48,358.15 C343.98,383.78 350.5571,398.4593 364.4671,429.4393 " fill="none" id="AddCandidateController-to-UserManagementService" style="stroke:#181818;stroke-width:1.0;"/><polygon fill="none" points="371.84,445.86,369.9407,426.9816,358.9935,431.8969,371.84,445.86" style="stroke:#181818;stroke-width:1.0;"/></g><!--link UserManagementService to UserRepository--><g id="link_UserManagementService_UserRepository"><path codeLine="71" d="M339.33,734.41 C318.93,764.3 309.4375,778.213 295.1175,799.193 " fill="none" id="UserManagementService-to-UserRepository" style="stroke:#181818;stroke-width:1.0;"/><polygon fill="none" points="284.97,814.06,300.0732,802.5755,290.1619,795.8105,284.97,814.06" style="stroke:#181818;stroke-width:1.0;"/></g><!--link UserManagementService to PasswordEncoder--><g id="link_UserManagementService_PasswordEncoder"><path codeLine="72" d="M436.5,736.27 C436.5,757.56 436.5,760.23 436.5,777.82 " fill="none" id="UserManagementService-to-PasswordEncoder" style="stroke:#181818;stroke-width:1.0;"/><polygon fill="none" points="436.5,795.82,442.5,777.82,430.5,777.82,436.5,795.82" style="stroke:#181818;stroke-width:1.0;"/></g><!--link UserManagementService to PasswordPolicy--><g id="link_UserManagementService_PasswordPolicy"><path codeLine="73" d="M533.67,734.41 C554.07,764.3 563.5625,778.213 577.8825,799.193 " fill="none" id="UserManagementService-to-PasswordPolicy" style="stroke:#181818;stroke-width:1.0;"/><polygon fill="none" points="588.03,814.06,582.8381,795.8105,572.9268,802.5755,588.03,814.06" style="stroke:#181818;stroke-width:1.0;"/></g><!--SRC=[ZLF1Rjim3BtxAtpRYiBBVOS2QTPr1ROcg5Vqp4cqJK2M34bEuARzzr6oNRkf5-maaNny99-eJvNtZVkwMZKAj6zhzKMOUYKKE9T9Wj92dIJHJDTIRa1Bak3nyUwOPAclS6EqjqOfj6oBCVmDF3oHBD4dMNAPIfDNvl3vWgyLWbIaaOtNaNZpCIsmOmsa-6mOSp1MXcjbDDwtzHykTvcwaJGYust4ziQ4dfURpp6r7of2wwjdFbk7DjyBfe0PDdAUE2PIJZMMdi6JqJdQFGaCb3-tjxSt3xrMEJh7KMPPGaTwOP691-1tOnzTx9q32i4E_bv8S7FJpUxa0ZzgJuB9PE0O2wByRNh9j6ijVi3z0BVMtRQ866NA4YNf47WYN-tGrXJBk3XwFtc8_W8D9TPCDHizgFY0ZN7aZUt2WsfXP5oKnYWI7PTOJ8x5BPRaFDfxFBo9SCxtvW3XQO_1TD6M63tZXBqJb9gCqEYsk9D12T-T9BtddHol2MakMu30ECKqwP711MbvtQrZAoVWtR2YDxqQn_WOmcZPprs35nKEZJNy_oH69Edo7qIxAEOnFdpE6-KAGYuUTlFzbqspxELgwRSjufQ_IRBi7b8MrlfimkBp9ulUAM6sKsUG9pB_3xGNyYy0]--></g></svg>