<?xml version="1.0" encoding="UTF-8" standalone="no"?><svg xmlns="http://www.w3.org/2000/svg" xmlns:xlink="http://www.w3.org/1999/xlink" contentStyleType="text/css" height="1102px" preserveAspectRatio="none" style="width:875px;height:1102px;background:#FFFFFF;" version="1.1" viewBox="0 0 875 1102" width="875px" zoomAndPan="magnify"><defs/><g><!--class AddCandidateUI--><g id="elem_AddCandidateUI"><rect codeLine="3" fill="#F1F1F1" height="176.9375" id="AddCandidateUI" rx="2.5" ry="2.5" style="stroke:#181818;stroke-width:0.5;" width="216" x="147.5" y="7"/><ellipse cx="181.05" cy="24.5781" fill="#ADD1B2" rx="12" ry="12" style="stroke:#181818;stroke-width:1.0;"/><path d="M183.1906,19.5 Q183.3781,19.25 183.5969,19.125 Q183.8156,18.9844 184.0656,18.9844 Q184.5031,18.9844 184.7844,19.2969 Q185.0656,19.5938 185.0656,20.3125 L185.0656,22.0156 Q185.0656,22.7344 184.7844,23.0469 Q184.5031,23.3594 184.0656,23.3594 Q183.675,23.3594 183.425,23.125 Q183.175,22.9063 183.0656,22.2969 Q183.0031,21.875 182.7844,21.6563 Q182.3938,21.2188 181.675,20.9531 Q180.9563,20.6875 180.2375,20.6875 Q179.3313,20.6875 178.5813,21.0781 Q177.8313,21.4688 177.2531,22.3594 Q176.675,23.2344 176.675,24.4375 L176.675,25.7344 Q176.675,27.1875 177.7219,28.1563 Q178.7844,29.125 180.6438,29.125 Q181.7531,29.125 182.5344,28.8125 Q182.9719,28.6406 183.4875,28.125 Q183.8,27.8125 183.9719,27.7188 Q184.1438,27.625 184.3781,27.625 Q184.7688,27.625 185.0656,27.9375 Q185.3781,28.2344 185.3781,28.6406 Q185.3781,29.0469 184.9719,29.5156 Q184.3781,30.2031 183.4406,30.5938 Q182.175,31.125 180.6594,31.125 Q178.8781,31.125 177.4563,30.3906 Q176.3,29.7969 175.4875,28.5313 Q174.675,27.2656 174.675,25.7813 L174.675,24.4219 Q174.675,22.8594 175.3938,21.5156 Q176.1281,20.1563 177.4094,19.4219 Q178.7063,18.6875 180.1594,18.6875 Q181.0188,18.6875 181.7688,18.8906 Q182.5344,19.0938 183.1906,19.5 Z " fill="#000000"/><text fill="#000000" font-family="sans-serif" font-size="20" lengthAdjust="spacing" textLength="143" x="199.95" y="32.7617">AddCandidateUI</text><line style="stroke:#181818;stroke-width:0.5;" x1="148.5" x2="362.5" y1="42.1563" y2="42.1563"/><rect fill="none" height="6" style="stroke:#C82930;stroke-width:1.0;" width="6" x="155.5" y="57.2344"/><text fill="#000000" font-family="sans-serif" font-size="20" lengthAdjust="spacing" textLength="112" x="168.5" y="66.918">theController</text><rect fill="none" height="6" style="stroke:#C82930;stroke-width:1.0;" width="6" x="155.5" y="82.3906"/><text fill="#000000" font-family="sans-serif" font-size="20" lengthAdjust="spacing" textLength="189" x="168.5" y="92.0742">candidateDataWidget</text><text fill="#000000" font-family="sans-serif" font-size="20" lengthAdjust="spacing" textLength="7" x="168.5" y="117.2305">-</text><line style="stroke:#181818;stroke-width:0.5;" x1="148.5" x2="362.5" y1="125.625" y2="125.625"/><ellipse cx="158.5" cy="143.7031" fill="#84BE84" rx="3" ry="3" style="stroke:#038048;stroke-width:1.0;"/><text fill="#000000" font-family="sans-serif" font-size="20" lengthAdjust="spacing" textLength="85" x="168.5" y="150.3867">doShow()</text><ellipse cx="158.5" cy="168.8594" fill="#84BE84" rx="3" ry="3" style="stroke:#038048;stroke-width:1.0;"/><text fill="#000000" font-family="sans-serif" font-size="20" lengthAdjust="spacing" textLength="86" x="168.5" y="175.543">headline()</text></g><!--class CandidateDataWidget--><g id="elem_CandidateDataWidget"><rect codeLine="11" fill="#F1F1F1" height="227.25" id="CandidateDataWidget" rx="2.5" ry="2.5" style="stroke:#181818;stroke-width:0.5;" width="227" x="7" y="244"/><ellipse cx="23" cy="261.5781" fill="#ADD1B2" rx="12" ry="12" style="stroke:#181818;stroke-width:1.0;"/><path d="M25.1406,256.5 Q25.3281,256.25 25.5469,256.125 Q25.7656,255.9844 26.0156,255.9844 Q26.4531,255.9844 26.7344,256.2969 Q27.0156,256.5938 27.0156,257.3125 L27.0156,259.0156 Q27.0156,259.7344 26.7344,260.0469 Q26.4531,260.3594 26.0156,260.3594 Q25.625,260.3594 25.375,260.125 Q25.125,259.9063 25.0156,259.2969 Q24.9531,258.875 24.7344,258.6563 Q24.3438,258.2188 23.625,257.9531 Q22.9063,257.6875 22.1875,257.6875 Q21.2813,257.6875 20.5313,258.0781 Q19.7813,258.4688 19.2031,259.3594 Q18.625,260.2344 18.625,261.4375 L18.625,262.7344 Q18.625,264.1875 19.6719,265.1563 Q20.7344,266.125 22.5938,266.125 Q23.7031,266.125 24.4844,265.8125 Q24.9219,265.6406 25.4375,265.125 Q25.75,264.8125 25.9219,264.7188 Q26.0938,264.625 26.3281,264.625 Q26.7188,264.625 27.0156,264.9375 Q27.3281,265.2344 27.3281,265.6406 Q27.3281,266.0469 26.9219,266.5156 Q26.3281,267.2031 25.3906,267.5938 Q24.125,268.125 22.6094,268.125 Q20.8281,268.125 19.4063,267.3906 Q18.25,266.7969 17.4375,265.5313 Q16.625,264.2656 16.625,262.7813 L16.625,261.4219 Q16.625,259.8594 17.3438,258.5156 Q18.0781,257.1563 19.3594,256.4219 Q20.6563,255.6875 22.1094,255.6875 Q22.9688,255.6875 23.7188,255.8906 Q24.4844,256.0938 25.1406,256.5 Z " fill="#000000"/><text fill="#000000" font-family="sans-serif" font-size="20" lengthAdjust="spacing" textLength="193" x="38" y="269.7617">CandidateDataWidget</text><line style="stroke:#181818;stroke-width:0.5;" x1="8" x2="233" y1="279.1563" y2="279.1563"/><rect fill="none" height="6" style="stroke:#C82930;stroke-width:1.0;" width="6" x="15" y="294.2344"/><text fill="#000000" font-family="sans-serif" font-size="20" lengthAdjust="spacing" textLength="46" x="28" y="303.918">email</text><rect fill="none" height="6" style="stroke:#C82930;stroke-width:1.0;" width="6" x="15" y="319.3906"/><text fill="#000000" font-family="sans-serif" font-size="20" lengthAdjust="spacing" textLength="86" x="28" y="329.0742">password</text><rect fill="none" height="6" style="stroke:#C82930;stroke-width:1.0;" width="6" x="15" y="344.5469"/><text fill="#000000" font-family="sans-serif" font-size="20" lengthAdjust="spacing" textLength="121" x="28" y="354.2305">phoneNumber</text><line style="stroke:#181818;stroke-width:0.5;" x1="8" x2="233" y1="362.625" y2="362.625"/><ellipse cx="18" cy="380.7031" fill="#84BE84" rx="3" ry="3" style="stroke:#038048;stroke-width:1.0;"/><text fill="#000000" font-family="sans-serif" font-size="20" lengthAdjust="spacing" textLength="60" x="28" y="387.3867">show()</text><ellipse cx="18" cy="405.8594" fill="#84BE84" rx="3" ry="3" style="stroke:#038048;stroke-width:1.0;"/><text fill="#000000" font-family="sans-serif" font-size="20" lengthAdjust="spacing" textLength="60" x="28" y="412.543">email()</text><ellipse cx="18" cy="431.0156" fill="#84BE84" rx="3" ry="3" style="stroke:#038048;stroke-width:1.0;"/><text fill="#000000" font-family="sans-serif" font-size="20" lengthAdjust="spacing" textLength="100" x="28" y="437.6992">password()</text><ellipse cx="18" cy="456.1719" fill="#84BE84" rx="3" ry="3" style="stroke:#038048;stroke-width:1.0;"/><text fill="#000000" font-family="sans-serif" font-size="20" lengthAdjust="spacing" textLength="135" x="28" y="462.8555">phoneNumber()</text></g><!--class AddCandidateController--><g id="elem_AddCandidateController"><rect codeLine="21" fill="#F1F1F1" height="151.7813" id="AddCandidateController" rx="2.5" ry="2.5" style="stroke:#181818;stroke-width:0.5;" width="243" x="269" y="281.5"/><ellipse cx="285" cy="299.0781" fill="#ADD1B2" rx="12" ry="12" style="stroke:#181818;stroke-width:1.0;"/><path d="M287.1406,294 Q287.3281,293.75 287.5469,293.625 Q287.7656,293.4844 288.0156,293.4844 Q288.4531,293.4844 288.7344,293.7969 Q289.0156,294.0938 289.0156,294.8125 L289.0156,296.5156 Q289.0156,297.2344 288.7344,297.5469 Q288.4531,297.8594 288.0156,297.8594 Q287.625,297.8594 287.375,297.625 Q287.125,297.4063 287.0156,296.7969 Q286.9531,296.375 286.7344,296.1563 Q286.3438,295.7188 285.625,295.4531 Q284.9063,295.1875 284.1875,295.1875 Q283.2813,295.1875 282.5313,295.5781 Q281.7813,295.9688 281.2031,296.8594 Q280.625,297.7344 280.625,298.9375 L280.625,300.2344 Q280.625,301.6875 281.6719,302.6563 Q282.7344,303.625 284.5938,303.625 Q285.7031,303.625 286.4844,303.3125 Q286.9219,303.1406 287.4375,302.625 Q287.75,302.3125 287.9219,302.2188 Q288.0938,302.125 288.3281,302.125 Q288.7188,302.125 289.0156,302.4375 Q289.3281,302.7344 289.3281,303.1406 Q289.3281,303.5469 288.9219,304.0156 Q288.3281,304.7031 287.3906,305.0938 Q286.125,305.625 284.6094,305.625 Q282.8281,305.625 281.4063,304.8906 Q280.25,304.2969 279.4375,303.0313 Q278.625,301.7656 278.625,300.2813 L278.625,298.9219 Q278.625,297.3594 279.3438,296.0156 Q280.0781,294.6563 281.3594,293.9219 Q282.6563,293.1875 284.1094,293.1875 Q284.9688,293.1875 285.7188,293.3906 Q286.4844,293.5938 287.1406,294 Z " fill="#000000"/><text fill="#000000" font-family="sans-serif" font-size="20" lengthAdjust="spacing" textLength="209" x="300" y="307.2617">AddCandidateController</text><line style="stroke:#181818;stroke-width:0.5;" x1="270" x2="511" y1="316.6563" y2="316.6563"/><rect fill="none" height="6" style="stroke:#C82930;stroke-width:1.0;" width="6" x="277" y="331.7344"/><text fill="#000000" font-family="sans-serif" font-size="20" lengthAdjust="spacing" textLength="46" x="290" y="341.418">authz</text><rect fill="none" height="6" style="stroke:#C82930;stroke-width:1.0;" width="6" x="277" y="356.8906"/><text fill="#000000" font-family="sans-serif" font-size="20" lengthAdjust="spacing" textLength="70" x="290" y="366.5742">userSvc</text><line style="stroke:#181818;stroke-width:0.5;" x1="270" x2="511" y1="374.9688" y2="374.9688"/><ellipse cx="280" cy="393.0469" fill="#84BE84" rx="3" ry="3" style="stroke:#038048;stroke-width:1.0;"/><text fill="#000000" font-family="sans-serif" font-size="20" lengthAdjust="spacing" textLength="136" x="290" y="399.7305">addCandidate()</text><ellipse cx="280" cy="418.2031" fill="#84BE84" rx="3" ry="3" style="stroke:#038048;stroke-width:1.0;"/><text fill="#000000" font-family="sans-serif" font-size="20" lengthAdjust="spacing" textLength="136" x="290" y="424.8867">addCandidate()</text></g><!--class AuthorizationService--><g id="elem_AuthorizationService"><rect codeLine="28" fill="#F1F1F1" height="302.7188" id="AuthorizationService" rx="2.5" ry="2.5" style="stroke:#181818;stroke-width:0.5;" width="349" x="46" y="568.5"/><ellipse cx="127.5" cy="586.0781" fill="#ADD1B2" rx="12" ry="12" style="stroke:#181818;stroke-width:1.0;"/><path d="M129.6406,581 Q129.8281,580.75 130.0469,580.625 Q130.2656,580.4844 130.5156,580.4844 Q130.9531,580.4844 131.2344,580.7969 Q131.5156,581.0938 131.5156,581.8125 L131.5156,583.5156 Q131.5156,584.2344 131.2344,584.5469 Q130.9531,584.8594 130.5156,584.8594 Q130.125,584.8594 129.875,584.625 Q129.625,584.4063 129.5156,583.7969 Q129.4531,583.375 129.2344,583.1563 Q128.8438,582.7188 128.125,582.4531 Q127.4063,582.1875 126.6875,582.1875 Q125.7813,582.1875 125.0313,582.5781 Q124.2813,582.9688 123.7031,583.8594 Q123.125,584.7344 123.125,585.9375 L123.125,587.2344 Q123.125,588.6875 124.1719,589.6563 Q125.2344,590.625 127.0938,590.625 Q128.2031,590.625 128.9844,590.3125 Q129.4219,590.1406 129.9375,589.625 Q130.25,589.3125 130.4219,589.2188 Q130.5938,589.125 130.8281,589.125 Q131.2188,589.125 131.5156,589.4375 Q131.8281,589.7344 131.8281,590.1406 Q131.8281,590.5469 131.4219,591.0156 Q130.8281,591.7031 129.8906,592.0938 Q128.625,592.625 127.1094,592.625 Q125.3281,592.625 123.9063,591.8906 Q122.75,591.2969 121.9375,590.0313 Q121.125,588.7656 121.125,587.2813 L121.125,585.9219 Q121.125,584.3594 121.8438,583.0156 Q122.5781,581.6563 123.8594,580.9219 Q125.1563,580.1875 126.6094,580.1875 Q127.4688,580.1875 128.2188,580.3906 Q128.9844,580.5938 129.6406,581 Z " fill="#000000"/><text fill="#000000" font-family="sans-serif" font-size="20" lengthAdjust="spacing" textLength="177" x="149.5" y="594.2617">AuthorizationService</text><line style="stroke:#181818;stroke-width:0.5;" x1="47" x2="394" y1="603.6563" y2="603.6563"/><rect fill="none" height="6" style="stroke:#C82930;stroke-width:1.0;" width="6" x="54" y="618.7344"/><text fill="#000000" font-family="sans-serif" font-size="20" lengthAdjust="spacing" textLength="86" x="67" y="628.418">LOGGER</text><rect fill="none" height="6" style="stroke:#C82930;stroke-width:1.0;" width="6" x="54" y="643.8906"/><text fill="#000000" font-family="sans-serif" font-size="20" lengthAdjust="spacing" textLength="96" x="67" y="653.5742">theSession</text><line style="stroke:#181818;stroke-width:0.5;" x1="47" x2="394" y1="661.9688" y2="661.9688"/><ellipse cx="57" cy="680.0469" fill="#84BE84" rx="3" ry="3" style="stroke:#038048;stroke-width:1.0;"/><text fill="#000000" font-family="sans-serif" font-size="20" lengthAdjust="spacing" textLength="191" x="67" y="686.7305">AuthorizationService()</text><ellipse cx="57" cy="705.2031" fill="#84BE84" rx="3" ry="3" style="stroke:#038048;stroke-width:1.0;"/><text fill="#000000" font-family="sans-serif" font-size="20" lengthAdjust="spacing" textLength="210" x="67" y="711.8867">createSessionForUser()</text><ellipse cx="57" cy="730.3594" fill="#84BE84" rx="3" ry="3" style="stroke:#038048;stroke-width:1.0;"/><text fill="#000000" font-family="sans-serif" font-size="20" lengthAdjust="spacing" textLength="126" x="67" y="737.043">clearSession()</text><ellipse cx="57" cy="755.5156" fill="#84BE84" rx="3" ry="3" style="stroke:#038048;stroke-width:1.0;"/><text fill="#000000" font-family="sans-serif" font-size="20" lengthAdjust="spacing" textLength="114" x="67" y="762.1992">hasSession()</text><ellipse cx="57" cy="780.6719" fill="#84BE84" rx="3" ry="3" style="stroke:#038048;stroke-width:1.0;"/><text fill="#000000" font-family="sans-serif" font-size="20" lengthAdjust="spacing" textLength="80" x="67" y="787.3555">session()</text><ellipse cx="57" cy="805.8281" fill="#84BE84" rx="3" ry="3" style="stroke:#038048;stroke-width:1.0;"/><text fill="#000000" font-family="sans-serif" font-size="20" lengthAdjust="spacing" textLength="303" x="67" y="812.5117">isAuthenticatedUserAuthorizedTo()</text><ellipse cx="57" cy="830.9844" fill="#84BE84" rx="3" ry="3" style="stroke:#038048;stroke-width:1.0;"/><text fill="#000000" font-family="sans-serif" font-size="20" lengthAdjust="spacing" textLength="322" x="67" y="837.668">ensureAuthenticatedUserHasAnyOf()</text><ellipse cx="57" cy="856.1406" fill="#84BE84" rx="3" ry="3" style="stroke:#038048;stroke-width:1.0;"/><text fill="#000000" font-family="sans-serif" font-size="20" lengthAdjust="spacing" textLength="273" x="67" y="862.8242">loggedinUserWithPermissions()</text></g><!--class UserManagementService--><g id="elem_UserManagementService"><rect codeLine="40" fill="#F1F1F1" height="378.1875" id="UserManagementService" rx="2.5" ry="2.5" style="stroke:#181818;stroke-width:0.5;" width="261" x="430" y="531"/><ellipse cx="449.15" cy="548.5781" fill="#ADD1B2" rx="12" ry="12" style="stroke:#181818;stroke-width:1.0;"/><path d="M451.2906,543.5 Q451.4781,543.25 451.6969,543.125 Q451.9156,542.9844 452.1656,542.9844 Q452.6031,542.9844 452.8844,543.2969 Q453.1656,543.5938 453.1656,544.3125 L453.1656,546.0156 Q453.1656,546.7344 452.8844,547.0469 Q452.6031,547.3594 452.1656,547.3594 Q451.775,547.3594 451.525,547.125 Q451.275,546.9063 451.1656,546.2969 Q451.1031,545.875 450.8844,545.6563 Q450.4938,545.2188 449.775,544.9531 Q449.0563,544.6875 448.3375,544.6875 Q447.4313,544.6875 446.6813,545.0781 Q445.9313,545.4688 445.3531,546.3594 Q444.775,547.2344 444.775,548.4375 L444.775,549.7344 Q444.775,551.1875 445.8219,552.1563 Q446.8844,553.125 448.7438,553.125 Q449.8531,553.125 450.6344,552.8125 Q451.0719,552.6406 451.5875,552.125 Q451.9,551.8125 452.0719,551.7188 Q452.2438,551.625 452.4781,551.625 Q452.8688,551.625 453.1656,551.9375 Q453.4781,552.2344 453.4781,552.6406 Q453.4781,553.0469 453.0719,553.5156 Q452.4781,554.2031 451.5406,554.5938 Q450.275,555.125 448.7594,555.125 Q446.9781,555.125 445.5563,554.3906 Q444.4,553.7969 443.5875,552.5313 Q442.775,551.2656 442.775,549.7813 L442.775,548.4219 Q442.775,546.8594 443.4938,545.5156 Q444.2281,544.1563 445.5094,543.4219 Q446.8063,542.6875 448.2594,542.6875 Q449.1188,542.6875 449.8688,542.8906 Q450.6344,543.0938 451.2906,543.5 Z " fill="#000000"/><text fill="#000000" font-family="sans-serif" font-size="20" lengthAdjust="spacing" textLength="220" x="464.85" y="556.7617">UserManagementService</text><line style="stroke:#181818;stroke-width:0.5;" x1="431" x2="690" y1="566.1563" y2="566.1563"/><rect fill="none" height="6" style="stroke:#C82930;stroke-width:1.0;" width="6" x="438" y="581.2344"/><text fill="#000000" font-family="sans-serif" font-size="20" lengthAdjust="spacing" textLength="133" x="451" y="590.918">userRepository</text><rect fill="none" height="6" style="stroke:#C82930;stroke-width:1.0;" width="6" x="438" y="606.3906"/><text fill="#000000" font-family="sans-serif" font-size="20" lengthAdjust="spacing" textLength="71" x="451" y="616.0742">encoder</text><rect fill="none" height="6" style="stroke:#C82930;stroke-width:1.0;" width="6" x="438" y="631.5469"/><text fill="#000000" font-family="sans-serif" font-size="20" lengthAdjust="spacing" textLength="50" x="451" y="641.2305">policy</text><line style="stroke:#181818;stroke-width:0.5;" x1="431" x2="690" y1="649.625" y2="649.625"/><ellipse cx="441" cy="667.7031" fill="#84BE84" rx="3" ry="3" style="stroke:#038048;stroke-width:1.0;"/><text fill="#000000" font-family="sans-serif" font-size="20" lengthAdjust="spacing" textLength="234" x="451" y="674.3867">UserManagementService()</text><ellipse cx="441" cy="692.8594" fill="#84BE84" rx="3" ry="3" style="stroke:#038048;stroke-width:1.0;"/><text fill="#000000" font-family="sans-serif" font-size="20" lengthAdjust="spacing" textLength="161" x="451" y="699.543">registerNewUser()</text><ellipse cx="441" cy="718.0156" fill="#84BE84" rx="3" ry="3" style="stroke:#038048;stroke-width:1.0;"/><text fill="#000000" font-family="sans-serif" font-size="20" lengthAdjust="spacing" textLength="161" x="451" y="724.6992">registerNewUser()</text><ellipse cx="441" cy="743.1719" fill="#84BE84" rx="3" ry="3" style="stroke:#038048;stroke-width:1.0;"/><text fill="#000000" font-family="sans-serif" font-size="20" lengthAdjust="spacing" textLength="122" x="451" y="749.8555">registerUser()</text><ellipse cx="441" cy="768.3281" fill="#84BE84" rx="3" ry="3" style="stroke:#038048;stroke-width:1.0;"/><text fill="#000000" font-family="sans-serif" font-size="20" lengthAdjust="spacing" textLength="116" x="451" y="775.0117">activeUsers()</text><ellipse cx="441" cy="793.4844" fill="#84BE84" rx="3" ry="3" style="stroke:#038048;stroke-width:1.0;"/><text fill="#000000" font-family="sans-serif" font-size="20" lengthAdjust="spacing" textLength="166" x="451" y="800.168">deactivatedUsers()</text><ellipse cx="441" cy="818.6406" fill="#84BE84" rx="3" ry="3" style="stroke:#038048;stroke-width:1.0;"/><text fill="#000000" font-family="sans-serif" font-size="20" lengthAdjust="spacing" textLength="84" x="451" y="825.3242">allUsers()</text><ellipse cx="441" cy="843.7969" fill="#84BE84" rx="3" ry="3" style="stroke:#038048;stroke-width:1.0;"/><text fill="#000000" font-family="sans-serif" font-size="20" lengthAdjust="spacing" textLength="138" x="451" y="850.4805">userOfIdentity()</text><ellipse cx="441" cy="868.9531" fill="#84BE84" rx="3" ry="3" style="stroke:#038048;stroke-width:1.0;"/><text fill="#000000" font-family="sans-serif" font-size="20" lengthAdjust="spacing" textLength="145" x="451" y="875.6367">deactivateUser()</text><ellipse cx="441" cy="894.1094" fill="#84BE84" rx="3" ry="3" style="stroke:#038048;stroke-width:1.0;"/><text fill="#000000" font-family="sans-serif" font-size="20" lengthAdjust="spacing" textLength="123" x="451" y="900.793">activateUser()</text></g><!--class UserRepository--><g id="elem_UserRepository"><rect codeLine="55" fill="#F1F1F1" height="76.3125" id="UserRepository" rx="2.5" ry="2.5" style="stroke:#181818;stroke-width:0.5;" width="171" x="257" y="994.5"/><ellipse cx="273" cy="1012.0781" fill="#B4A7E5" rx="12" ry="12" style="stroke:#181818;stroke-width:1.0;"/><path d="M274,1008.25 L274,1016.0781 L276.0313,1016.0781 Q276.75,1016.0781 277.0469,1016.3594 Q277.3594,1016.625 277.3594,1017.0781 Q277.3594,1017.5156 277.0469,1017.7969 Q276.75,1018.0781 276.0313,1018.0781 L269.9844,1018.0781 Q269.25,1018.0781 268.9375,1017.7969 Q268.6406,1017.5156 268.6406,1017.0781 Q268.6406,1016.625 268.9375,1016.3594 Q269.25,1016.0781 269.9844,1016.0781 L272,1016.0781 L272,1008.25 L269.9844,1008.25 Q269.25,1008.25 268.9375,1007.9688 Q268.6406,1007.6875 268.6406,1007.2344 Q268.6406,1006.7813 268.9375,1006.5156 Q269.25,1006.2344 269.9844,1006.2344 L276.0313,1006.2344 Q276.75,1006.2344 277.0469,1006.5156 Q277.3594,1006.7813 277.3594,1007.2344 Q277.3594,1007.6875 277.0469,1007.9688 Q276.75,1008.25 276.0313,1008.25 L274,1008.25 Z " fill="#000000"/><text fill="#000000" font-family="sans-serif" font-size="20" font-style="italic" lengthAdjust="spacing" textLength="137" x="288" y="1020.2617">UserRepository</text><line style="stroke:#181818;stroke-width:0.5;" x1="258" x2="427" y1="1029.6563" y2="1029.6563"/><line style="stroke:#181818;stroke-width:0.5;" x1="258" x2="427" y1="1037.6563" y2="1037.6563"/><ellipse cx="268" cy="1055.7344" fill="#84BE84" rx="3" ry="3" style="stroke:#038048;stroke-width:1.0;"/><text fill="#000000" font-family="sans-serif" font-size="20" lengthAdjust="spacing" textLength="121" x="278" y="1062.418">findByActive()</text></g><!--class PasswordEncoder--><g id="elem_PasswordEncoder"><rect codeLine="58" fill="#F1F1F1" height="126.625" id="PasswordEncoder" rx="2.5" ry="2.5" style="stroke:#181818;stroke-width:0.5;" width="195" x="463" y="969"/><ellipse cx="479" cy="986.5781" fill="#B4A7E5" rx="12" ry="12" style="stroke:#181818;stroke-width:1.0;"/><path d="M480,982.75 L480,990.5781 L482.0313,990.5781 Q482.75,990.5781 483.0469,990.8594 Q483.3594,991.125 483.3594,991.5781 Q483.3594,992.0156 483.0469,992.2969 Q482.75,992.5781 482.0313,992.5781 L475.9844,992.5781 Q475.25,992.5781 474.9375,992.2969 Q474.6406,992.0156 474.6406,991.5781 Q474.6406,991.125 474.9375,990.8594 Q475.25,990.5781 475.9844,990.5781 L478,990.5781 L478,982.75 L475.9844,982.75 Q475.25,982.75 474.9375,982.4688 Q474.6406,982.1875 474.6406,981.7344 Q474.6406,981.2813 474.9375,981.0156 Q475.25,980.7344 475.9844,980.7344 L482.0313,980.7344 Q482.75,980.7344 483.0469,981.0156 Q483.3594,981.2813 483.3594,981.7344 Q483.3594,982.1875 483.0469,982.4688 Q482.75,982.75 482.0313,982.75 L480,982.75 Z " fill="#000000"/><text fill="#000000" font-family="sans-serif" font-size="20" font-style="italic" lengthAdjust="spacing" textLength="161" x="494" y="994.7617">PasswordEncoder</text><line style="stroke:#181818;stroke-width:0.5;" x1="464" x2="657" y1="1004.1563" y2="1004.1563"/><line style="stroke:#181818;stroke-width:0.5;" x1="464" x2="657" y1="1012.1563" y2="1012.1563"/><ellipse cx="474" cy="1030.2344" fill="#84BE84" rx="3" ry="3" style="stroke:#038048;stroke-width:1.0;"/><text fill="#000000" font-family="sans-serif" font-size="20" lengthAdjust="spacing" textLength="88" x="484" y="1036.918">enconde()</text><ellipse cx="474" cy="1055.3906" fill="#84BE84" rx="3" ry="3" style="stroke:#038048;stroke-width:1.0;"/><text fill="#000000" font-family="sans-serif" font-size="20" lengthAdjust="spacing" textLength="88" x="484" y="1062.0742">matches()</text><ellipse cx="474" cy="1080.5469" fill="#84BE84" rx="3" ry="3" style="stroke:#038048;stroke-width:1.0;"/><text fill="#000000" font-family="sans-serif" font-size="20" lengthAdjust="spacing" textLength="166" x="484" y="1087.2305">upgradeEncoding()</text></g><!--class PasswordPolicy--><g id="elem_PasswordPolicy"><rect codeLine="63" fill="#F1F1F1" height="76.3125" id="PasswordPolicy" rx="2.5" ry="2.5" style="stroke:#181818;stroke-width:0.5;" width="175" x="693" y="994.5"/><ellipse cx="709" cy="1012.0781" fill="#B4A7E5" rx="12" ry="12" style="stroke:#181818;stroke-width:1.0;"/><path d="M710,1008.25 L710,1016.0781 L712.0313,1016.0781 Q712.75,1016.0781 713.0469,1016.3594 Q713.3594,1016.625 713.3594,1017.0781 Q713.3594,1017.5156 713.0469,1017.7969 Q712.75,1018.0781 712.0313,1018.0781 L705.9844,1018.0781 Q705.25,1018.0781 704.9375,1017.7969 Q704.6406,1017.5156 704.6406,1017.0781 Q704.6406,1016.625 704.9375,1016.3594 Q705.25,1016.0781 705.9844,1016.0781 L708,1016.0781 L708,1008.25 L705.9844,1008.25 Q705.25,1008.25 704.9375,1007.9688 Q704.6406,1007.6875 704.6406,1007.2344 Q704.6406,1006.7813 704.9375,1006.5156 Q705.25,1006.2344 705.9844,1006.2344 L712.0313,1006.2344 Q712.75,1006.2344 713.0469,1006.5156 Q713.3594,1006.7813 713.3594,1007.2344 Q713.3594,1007.6875 713.0469,1007.9688 Q712.75,1008.25 712.0313,1008.25 L710,1008.25 Z " fill="#000000"/><text fill="#000000" font-family="sans-serif" font-size="20" font-style="italic" lengthAdjust="spacing" textLength="141" x="724" y="1020.2617">PasswordPolicy</text><line style="stroke:#181818;stroke-width:0.5;" x1="694" x2="867" y1="1029.6563" y2="1029.6563"/><ellipse cx="704" cy="1047.7344" fill="none" rx="3" ry="3" style="stroke:#038048;stroke-width:1.0;"/><text fill="#000000" font-family="sans-serif" font-size="20" lengthAdjust="spacing" textLength="113" x="714" y="1054.418">isSatisfiedBy</text><line style="stroke:#181818;stroke-width:0.5;" x1="694" x2="867" y1="1062.8125" y2="1062.8125"/></g><!--link AddCandidateUI to CandidateDataWidget--><g id="link_AddCandidateUI_CandidateDataWidget"><path codeLine="67" d="M209.98,184.16 C202.99,197.64 195.64,211.79 188.28,225.96 " fill="none" id="AddCandidateUI-to-CandidateDataWidget" style="stroke:#181818;stroke-width:1.0;"/><polygon fill="none" points="194.42,229.33,178.99,243.86,181.99,222.88,194.42,229.33" style="stroke:#181818;stroke-width:1.0;"/></g><!--link AddCandidateUI to AddCandidateController--><g id="link_AddCandidateUI_AddCandidateController"><path codeLine="68" d="M301.02,184.16 C314.26,209.67 328.78,237.62 342.19,263.45 " fill="none" id="AddCandidateUI-to-AddCandidateController" style="stroke:#181818;stroke-width:1.0;"/><polygon fill="none" points="348.49,260.4,351.49,281.38,336.07,266.85,348.49,260.4" style="stroke:#181818;stroke-width:1.0;"/></g><!--link AddCandidateController to AuthorizationService--><g id="link_AddCandidateController_AuthorizationService"><path codeLine="69" d="M355.07,433.63 C339.08,467.53 319.5,509.05 300.28,549.81 " fill="none" id="AddCandidateController-to-AuthorizationService" style="stroke:#181818;stroke-width:1.0;"/><polygon fill="none" points="306.5,553.04,291.64,568.15,293.84,547.07,306.5,553.04" style="stroke:#181818;stroke-width:1.0;"/></g><!--link AddCandidateController to UserManagementService--><g id="link_AddCandidateController_UserManagementService"><path codeLine="70" d="M425.93,433.63 C437.08,457.27 449.98,484.62 463.28,512.84 " fill="none" id="AddCandidateController-to-UserManagementService" style="stroke:#181818;stroke-width:1.0;"/><polygon fill="none" points="469.64,509.91,471.84,530.98,456.97,515.88,469.64,509.91" style="stroke:#181818;stroke-width:1.0;"/></g><!--link UserManagementService to UserRepository--><g id="link_UserManagementService_UserRepository"><path codeLine="71" d="M429.91,907 C411.8,932.8 394.51,957.42 380.16,977.86 " fill="none" id="UserManagementService-to-UserRepository" style="stroke:#181818;stroke-width:1.0;"/><polygon fill="none" points="385.83,981.97,368.61,994.31,374.37,973.92,385.83,981.97" style="stroke:#181818;stroke-width:1.0;"/></g><!--link UserManagementService to PasswordEncoder--><g id="link_UserManagementService_PasswordEncoder"><path codeLine="72" d="M560.5,909.23 C560.5,922.85 560.5,936.12 560.5,948.59 " fill="none" id="UserManagementService-to-PasswordEncoder" style="stroke:#181818;stroke-width:1.0;"/><polygon fill="none" points="567.5,948.74,560.5,968.74,553.5,948.74,567.5,948.74" style="stroke:#181818;stroke-width:1.0;"/></g><!--link UserManagementService to PasswordPolicy--><g id="link_UserManagementService_PasswordPolicy"><path codeLine="73" d="M691.02,905.21 C709.74,931.63 727.64,956.89 742.44,977.79 " fill="none" id="UserManagementService-to-PasswordPolicy" style="stroke:#181818;stroke-width:1.0;"/><polygon fill="none" points="748.25,973.87,754.1,994.24,736.83,981.97,748.25,973.87" style="stroke:#181818;stroke-width:1.0;"/></g><!--SRC=[ZLF1Rjim3BtxAtpRXiBBiECE0xAixGfiJL2lw9cLQ9keB1cIdC39-k-ZvBXsKo_OIIBv-4W-KUw9T0CMQcN44yfKOW6jybT6-vpsc7x-bBohl6_SbyMYKQ1zMwkFmjGBeS2vJ1AKd9maqKoNKgv0IvBWyVxca6Ifht35NDOeXPPjCOI_WuS7aYNw94ikKcdookpUV-1hXI0LQMJZUI1UlKqBx5W3AJuRnkoCbU5Q6OstRVt8vIvIDv16PBmDsDuOqTDoqpd6zaD5Q7srvxDrQFEjO0gOO2FdYMCavLHZQG-UZCxHRabWeFovlhw-lEkroj4vZZBB73hI2ujCV0HU6NllOkySK0ZswE-513SrtUHEBl2ZzYIOJ0QEeI3AtwQNJBlMuXlS3t1BtQsBY56cB56I3e47yjK6RKsnZ8kZzvE7w2_GK6BDL9FHWufts1X7tjWkFAWMHiP5QOmYqN69sUHOt699pgEznTsB2ETyBmuGdhOOJ1TjYT4pJDWxGQdH28skYniPbF3TIT9htj7nd93ciWK8Z5ECanuON92MtxfbREK4l3ckw6MlnY4-XZ1QzdFNu4M5nyOQ_dyI8v9q-G-YJHJp41y-vuro1I4N3xlv-ikcMVRdwznlcyNDVvDatdrCcLdhimcppv_CUiU4oKwTGPx8_3_GNiY_]--></g></svg>