<?xml version="1.0" encoding="UTF-8" standalone="no"?><svg xmlns="http://www.w3.org/2000/svg" xmlns:xlink="http://www.w3.org/1999/xlink" contentStyleType="text/css" height="860px" preserveAspectRatio="none" style="width:2425px;height:860px;background:#FFFFFF;" version="1.1" viewBox="0 0 2425 860" width="2425px" zoomAndPan="magnify"><defs/><g><rect fill="#FFFFFF" height="627.5" style="stroke:#181818;stroke-width:1.0;" width="10" x="43" y="111.3125"/><rect fill="#FFFFFF" height="596.3438" style="stroke:#181818;stroke-width:1.0;" width="10" x="457" y="142.4688"/><rect fill="#FFFFFF" height="39.1563" style="stroke:#181818;stroke-width:1.0;" width="10" x="649" y="181.625"/><rect fill="#FFFFFF" height="352.4063" style="stroke:#181818;stroke-width:1.0;" width="10" x="872" y="338.25"/><rect fill="#FFFFFF" height="39.1563" style="stroke:#181818;stroke-width:1.0;" width="10" x="1560" y="377.4063"/><rect fill="#FFFFFF" height="234.9375" style="stroke:#181818;stroke-width:1.0;" width="10" x="1782.5" y="416.5625"/><rect fill="#FFFFFF" height="39.1563" style="stroke:#181818;stroke-width:1.0;" width="10" x="2348" y="573.1875"/><line style="stroke:#181818;stroke-width:0.5;stroke-dasharray:5.0,5.0;" x1="48" x2="48" y1="101.3125" y2="747.8125"/><line style="stroke:#181818;stroke-width:0.5;stroke-dasharray:5.0,5.0;" x1="461.5" x2="461.5" y1="101.3125" y2="747.8125"/><line style="stroke:#181818;stroke-width:0.5;stroke-dasharray:5.0,5.0;" x1="653.5" x2="653.5" y1="101.3125" y2="747.8125"/><line style="stroke:#181818;stroke-width:0.5;stroke-dasharray:5.0,5.0;" x1="876.5" x2="876.5" y1="101.3125" y2="747.8125"/><line style="stroke:#181818;stroke-width:0.5;stroke-dasharray:5.0,5.0;" x1="1564.5" x2="1564.5" y1="101.3125" y2="747.8125"/><line style="stroke:#181818;stroke-width:0.5;stroke-dasharray:5.0,5.0;" x1="1787.5" x2="1787.5" y1="101.3125" y2="747.8125"/><line style="stroke:#181818;stroke-width:0.5;stroke-dasharray:5.0,5.0;" x1="2020" x2="2020" y1="101.3125" y2="747.8125"/><line style="stroke:#181818;stroke-width:0.5;stroke-dasharray:5.0,5.0;" x1="2181" x2="2181" y1="101.3125" y2="747.8125"/><line style="stroke:#181818;stroke-width:0.5;stroke-dasharray:5.0,5.0;" x1="2353" x2="2353" y1="101.3125" y2="747.8125"/><text fill="#000000" font-family="sans-serif" font-size="20" lengthAdjust="spacing" textLength="80" x="5" y="96.918">Operator</text><ellipse cx="48" cy="24.6563" fill="#E2E2F0" rx="8" ry="8" style="stroke:#181818;stroke-width:0.5;"/><path d="M48,32.6563 L48,59.6563 M35,40.6563 L61,40.6563 M48,59.6563 L35,74.6563 M48,59.6563 L61,74.6563 " fill="none" style="stroke:#181818;stroke-width:0.5;"/><text fill="#000000" font-family="sans-serif" font-size="20" lengthAdjust="spacing" textLength="80" x="5" y="767.5742">Operator</text><ellipse cx="48" cy="780.4688" fill="#E2E2F0" rx="8" ry="8" style="stroke:#181818;stroke-width:0.5;"/><path d="M48,788.4688 L48,815.4688 M35,796.4688 L61,796.4688 M48,815.4688 L35,830.4688 M48,815.4688 L61,830.4688 " fill="none" style="stroke:#181818;stroke-width:0.5;"/><rect fill="#E2E2F0" height="64.3125" rx="2.5" ry="2.5" style="stroke:#181818;stroke-width:0.5;" width="157" x="383.5" y="36"/><text fill="#000000" font-family="sans-serif" font-size="20" font-style="italic" lengthAdjust="spacing" textLength="131" x="396.5" y="63.7617">«presentation»</text><text fill="#000000" font-family="sans-serif" font-size="20" lengthAdjust="spacing" textLength="143" x="390.5" y="88.918">AddCandidateUI</text><rect fill="#E2E2F0" height="64.3125" rx="2.5" ry="2.5" style="stroke:#181818;stroke-width:0.5;" width="157" x="383.5" y="746.8125"/><text fill="#000000" font-family="sans-serif" font-size="20" font-style="italic" lengthAdjust="spacing" textLength="131" x="396.5" y="774.5742">«presentation»</text><text fill="#000000" font-family="sans-serif" font-size="20" lengthAdjust="spacing" textLength="143" x="390.5" y="799.7305">AddCandidateUI</text><rect fill="#E2E2F0" height="64.3125" rx="2.5" ry="2.5" style="stroke:#181818;stroke-width:0.5;" width="207" x="550.5" y="36"/><text fill="#000000" font-family="sans-serif" font-size="20" font-style="italic" lengthAdjust="spacing" textLength="79" x="614.5" y="63.7617">«widget»</text><text fill="#000000" font-family="sans-serif" font-size="20" lengthAdjust="spacing" textLength="193" x="557.5" y="88.918">CandidateDataWidget</text><rect fill="#E2E2F0" height="64.3125" rx="2.5" ry="2.5" style="stroke:#181818;stroke-width:0.5;" width="207" x="550.5" y="746.8125"/><text fill="#000000" font-family="sans-serif" font-size="20" font-style="italic" lengthAdjust="spacing" textLength="79" x="614.5" y="774.5742">«widget»</text><text fill="#000000" font-family="sans-serif" font-size="20" lengthAdjust="spacing" textLength="193" x="557.5" y="799.7305">CandidateDataWidget</text><rect fill="#E2E2F0" height="64.3125" rx="2.5" ry="2.5" style="stroke:#181818;stroke-width:0.5;" width="219" x="767.5" y="36"/><text fill="#000000" font-family="sans-serif" font-size="20" font-style="italic" lengthAdjust="spacing" textLength="109" x="822.5" y="63.7617">«Aplication»</text><text fill="#000000" font-family="sans-serif" font-size="20" lengthAdjust="spacing" textLength="205" x="774.5" y="88.918">AddcandidateController</text><rect fill="#E2E2F0" height="64.3125" rx="2.5" ry="2.5" style="stroke:#181818;stroke-width:0.5;" width="219" x="767.5" y="746.8125"/><text fill="#000000" font-family="sans-serif" font-size="20" font-style="italic" lengthAdjust="spacing" textLength="109" x="822.5" y="774.5742">«Aplication»</text><text fill="#000000" font-family="sans-serif" font-size="20" lengthAdjust="spacing" textLength="205" x="774.5" y="799.7305">AddcandidateController</text><rect fill="#E2E2F0" height="39.1563" rx="2.5" ry="2.5" style="stroke:#181818;stroke-width:0.5;" width="191" x="1469.5" y="61.1563"/><text fill="#000000" font-family="sans-serif" font-size="20" lengthAdjust="spacing" textLength="177" x="1476.5" y="88.918">AuthorizationService</text><rect fill="#E2E2F0" height="39.1563" rx="2.5" ry="2.5" style="stroke:#181818;stroke-width:0.5;" width="191" x="1469.5" y="746.8125"/><text fill="#000000" font-family="sans-serif" font-size="20" lengthAdjust="spacing" textLength="177" x="1476.5" y="774.5742">AuthorizationService</text><rect fill="#E2E2F0" height="39.1563" rx="2.5" ry="2.5" style="stroke:#181818;stroke-width:0.5;" width="234" x="1670.5" y="61.1563"/><text fill="#000000" font-family="sans-serif" font-size="20" lengthAdjust="spacing" textLength="220" x="1677.5" y="88.918">UserManagementService</text><rect fill="#E2E2F0" height="39.1563" rx="2.5" ry="2.5" style="stroke:#181818;stroke-width:0.5;" width="234" x="1670.5" y="746.8125"/><text fill="#000000" font-family="sans-serif" font-size="20" lengthAdjust="spacing" textLength="220" x="1677.5" y="774.5742">UserManagementService</text><rect fill="#E2E2F0" height="64.3125" rx="2.5" ry="2.5" style="stroke:#181818;stroke-width:0.5;" width="121" x="1960" y="36"/><text fill="#000000" font-family="sans-serif" font-size="20" font-style="italic" lengthAdjust="spacing" textLength="88" x="1976.5" y="63.7617">«domain»</text><text fill="#000000" font-family="sans-serif" font-size="20" lengthAdjust="spacing" textLength="107" x="1967" y="88.918">SystemUser</text><rect fill="#E2E2F0" height="64.3125" rx="2.5" ry="2.5" style="stroke:#181818;stroke-width:0.5;" width="121" x="1960" y="746.8125"/><text fill="#000000" font-family="sans-serif" font-size="20" font-style="italic" lengthAdjust="spacing" textLength="88" x="1976.5" y="774.5742">«domain»</text><text fill="#000000" font-family="sans-serif" font-size="20" lengthAdjust="spacing" textLength="107" x="1967" y="799.7305">SystemUser</text><rect fill="#E2E2F0" height="64.3125" rx="2.5" ry="2.5" style="stroke:#181818;stroke-width:0.5;" width="181" x="2091" y="36"/><text fill="#000000" font-family="sans-serif" font-size="20" font-style="italic" lengthAdjust="spacing" textLength="83" x="2140" y="63.7617">«builder»</text><text fill="#000000" font-family="sans-serif" font-size="20" lengthAdjust="spacing" textLength="167" x="2098" y="88.918">SystemUserBuilder</text><rect fill="#E2E2F0" height="64.3125" rx="2.5" ry="2.5" style="stroke:#181818;stroke-width:0.5;" width="181" x="2091" y="746.8125"/><text fill="#000000" font-family="sans-serif" font-size="20" font-style="italic" lengthAdjust="spacing" textLength="83" x="2140" y="774.5742">«builder»</text><text fill="#000000" font-family="sans-serif" font-size="20" lengthAdjust="spacing" textLength="167" x="2098" y="799.7305">SystemUserBuilder</text><text fill="#000000" font-family="sans-serif" font-size="20" font-style="italic" lengthAdjust="spacing" textLength="110" x="2295" y="71.7617">«repository»</text><text fill="#000000" font-family="sans-serif" font-size="20" lengthAdjust="spacing" textLength="136" x="2282" y="96.918">UserRepository</text><path d="M2335,15 C2335,5 2353,5 2353,5 C2353,5 2371,5 2371,15 L2371,41 C2371,51 2353,51 2353,51 C2353,51 2335,51 2335,41 L2335,15 " fill="#E2E2F0" style="stroke:#181818;stroke-width:1.5;"/><path d="M2335,15 C2335,25 2353,25 2353,25 C2353,25 2371,25 2371,15 " fill="none" style="stroke:#181818;stroke-width:1.5;"/><text fill="#000000" font-family="sans-serif" font-size="20" font-style="italic" lengthAdjust="spacing" textLength="110" x="2295" y="767.5742">«repository»</text><text fill="#000000" font-family="sans-serif" font-size="20" lengthAdjust="spacing" textLength="136" x="2282" y="792.7305">UserRepository</text><path d="M2335,807.125 C2335,797.125 2353,797.125 2353,797.125 C2353,797.125 2371,797.125 2371,807.125 L2371,833.125 C2371,843.125 2353,843.125 2353,843.125 C2353,843.125 2335,843.125 2335,833.125 L2335,807.125 " fill="#E2E2F0" style="stroke:#181818;stroke-width:1.5;"/><path d="M2335,807.125 C2335,817.125 2353,817.125 2353,817.125 C2353,817.125 2371,817.125 2371,807.125 " fill="none" style="stroke:#181818;stroke-width:1.5;"/><rect fill="#FFFFFF" height="627.5" style="stroke:#181818;stroke-width:1.0;" width="10" x="43" y="111.3125"/><rect fill="#FFFFFF" height="596.3438" style="stroke:#181818;stroke-width:1.0;" width="10" x="457" y="142.4688"/><rect fill="#FFFFFF" height="39.1563" style="stroke:#181818;stroke-width:1.0;" width="10" x="649" y="181.625"/><rect fill="#FFFFFF" height="352.4063" style="stroke:#181818;stroke-width:1.0;" width="10" x="872" y="338.25"/><rect fill="#FFFFFF" height="39.1563" style="stroke:#181818;stroke-width:1.0;" width="10" x="1560" y="377.4063"/><rect fill="#FFFFFF" height="234.9375" style="stroke:#181818;stroke-width:1.0;" width="10" x="1782.5" y="416.5625"/><rect fill="#FFFFFF" height="39.1563" style="stroke:#181818;stroke-width:1.0;" width="10" x="2348" y="573.1875"/><polygon fill="#181818" points="445,138.4688,455,142.4688,445,146.4688,449,142.4688" style="stroke:#181818;stroke-width:1.0;"/><line style="stroke:#181818;stroke-width:1.0;" x1="53" x2="451" y1="142.4688" y2="142.4688"/><text fill="#000000" font-family="sans-serif" font-size="20" font-weight="bold" lengthAdjust="spacing" textLength="11" x="60" y="136.0742">1</text><text fill="#000000" font-family="sans-serif" font-size="20" lengthAdjust="spacing" textLength="236" x="75" y="136.0742">asks to add new candidate</text><polygon fill="#181818" points="637,177.625,647,181.625,637,185.625,641,181.625" style="stroke:#181818;stroke-width:1.0;"/><line style="stroke:#181818;stroke-width:1.0;" x1="467" x2="643" y1="181.625" y2="181.625"/><text fill="#000000" font-family="sans-serif" font-size="20" font-weight="bold" lengthAdjust="spacing" textLength="11" x="474" y="175.2305">2</text><text fill="#000000" font-family="sans-serif" font-size="20" lengthAdjust="spacing" textLength="85" x="489" y="175.2305">doShow()</text><polygon fill="#181818" points="478,216.7813,468,220.7813,478,224.7813,474,220.7813" style="stroke:#181818;stroke-width:1.0;"/><line style="stroke:#181818;stroke-width:1.0;stroke-dasharray:2.0,2.0;" x1="472" x2="653" y1="220.7813" y2="220.7813"/><text fill="#000000" font-family="sans-serif" font-size="20" font-weight="bold" lengthAdjust="spacing" textLength="11" x="484" y="214.3867">3</text><text fill="#000000" font-family="sans-serif" font-size="20" lengthAdjust="spacing" textLength="60" x="499" y="214.3867">show()</text><polygon fill="#181818" points="64,255.9375,54,259.9375,64,263.9375,60,259.9375" style="stroke:#181818;stroke-width:1.0;"/><line style="stroke:#181818;stroke-width:1.0;stroke-dasharray:2.0,2.0;" x1="58" x2="456" y1="259.9375" y2="259.9375"/><text fill="#000000" font-family="sans-serif" font-size="20" font-weight="bold" lengthAdjust="spacing" textLength="11" x="70" y="253.543">4</text><text fill="#000000" font-family="sans-serif" font-size="20" lengthAdjust="spacing" textLength="365" x="85" y="253.543">requests data(name,email,phone number)</text><polygon fill="#181818" points="445,295.0938,455,299.0938,445,303.0938,449,299.0938" style="stroke:#181818;stroke-width:1.0;"/><line style="stroke:#181818;stroke-width:1.0;" x1="53" x2="451" y1="299.0938" y2="299.0938"/><text fill="#000000" font-family="sans-serif" font-size="20" font-weight="bold" lengthAdjust="spacing" textLength="11" x="60" y="292.6992">5</text><text fill="#000000" font-family="sans-serif" font-size="20" lengthAdjust="spacing" textLength="103" x="75" y="292.6992">inserts data</text><polygon fill="#181818" points="860,334.25,870,338.25,860,342.25,864,338.25" style="stroke:#181818;stroke-width:1.0;"/><line style="stroke:#181818;stroke-width:1.0;" x1="467" x2="866" y1="338.25" y2="338.25"/><text fill="#000000" font-family="sans-serif" font-size="20" font-weight="bold" lengthAdjust="spacing" textLength="11" x="474" y="331.8555">6</text><text fill="#000000" font-family="sans-serif" font-size="20" lengthAdjust="spacing" textLength="136" x="489" y="331.8555">addCandidate()</text><polygon fill="#181818" points="1548,373.4063,1558,377.4063,1548,381.4063,1552,377.4063" style="stroke:#181818;stroke-width:1.0;"/><line style="stroke:#181818;stroke-width:1.0;" x1="882" x2="1554" y1="377.4063" y2="377.4063"/><text fill="#000000" font-family="sans-serif" font-size="20" font-weight="bold" lengthAdjust="spacing" textLength="11" x="889" y="371.0117">7</text><text fill="#000000" font-family="sans-serif" font-size="20" lengthAdjust="spacing" textLength="322" x="904" y="371.0117">ensureAuthenticatedUserHasAnyOf()</text><polygon fill="#181818" points="893,412.5625,883,416.5625,893,420.5625,889,416.5625" style="stroke:#181818;stroke-width:1.0;"/><line style="stroke:#181818;stroke-width:1.0;stroke-dasharray:2.0,2.0;" x1="887" x2="1564" y1="416.5625" y2="416.5625"/><text fill="#000000" font-family="sans-serif" font-size="20" font-weight="bold" lengthAdjust="spacing" textLength="11" x="899" y="410.168">8</text><text fill="#000000" font-family="sans-serif" font-size="20" lengthAdjust="spacing" textLength="639" x="914" y="410.168">returns confirmation that user is credited to perform the current operation</text><polygon fill="#181818" points="2169.5,451.7188,2179.5,455.7188,2169.5,459.7188,2173.5,455.7188" style="stroke:#181818;stroke-width:1.0;"/><line style="stroke:#181818;stroke-width:1.0;" x1="1792.5" x2="2175.5" y1="455.7188" y2="455.7188"/><text fill="#000000" font-family="sans-serif" font-size="20" font-weight="bold" lengthAdjust="spacing" textLength="11" x="1799.5" y="449.3242">9</text><text fill="#000000" font-family="sans-serif" font-size="20" lengthAdjust="spacing" textLength="49" x="1814.5" y="449.3242">with()</text><polygon fill="#181818" points="2008.5,490.875,2018.5,494.875,2008.5,498.875,2012.5,494.875" style="stroke:#181818;stroke-width:1.0;"/><line style="stroke:#181818;stroke-width:1.0;" x1="1792.5" x2="2014.5" y1="494.875" y2="494.875"/><text fill="#000000" font-family="sans-serif" font-size="20" font-weight="bold" lengthAdjust="spacing" textLength="22" x="1799.5" y="488.4805">10</text><text fill="#000000" font-family="sans-serif" font-size="20" lengthAdjust="spacing" textLength="54" x="1825.5" y="488.4805">build()</text><polygon fill="#181818" points="1803.5,530.0313,1793.5,534.0313,1803.5,538.0313,1799.5,534.0313" style="stroke:#181818;stroke-width:1.0;"/><line style="stroke:#181818;stroke-width:1.0;stroke-dasharray:2.0,2.0;" x1="1797.5" x2="2019.5" y1="534.0313" y2="534.0313"/><text fill="#000000" font-family="sans-serif" font-size="20" font-weight="bold" lengthAdjust="spacing" textLength="22" x="1809.5" y="527.6367">11</text><text fill="#000000" font-family="sans-serif" font-size="20" lengthAdjust="spacing" textLength="178" x="1835.5" y="527.6367">returns created user</text><polygon fill="#181818" points="2336,569.1875,2346,573.1875,2336,577.1875,2340,573.1875" style="stroke:#181818;stroke-width:1.0;"/><line style="stroke:#181818;stroke-width:1.0;" x1="1792.5" x2="2342" y1="573.1875" y2="573.1875"/><text fill="#000000" font-family="sans-serif" font-size="20" font-weight="bold" lengthAdjust="spacing" textLength="22" x="1799.5" y="566.793">12</text><text fill="#000000" font-family="sans-serif" font-size="20" lengthAdjust="spacing" textLength="55" x="1825.5" y="566.793">save()</text><polygon fill="#181818" points="1803.5,608.3438,1793.5,612.3438,1803.5,616.3438,1799.5,612.3438" style="stroke:#181818;stroke-width:1.0;"/><line style="stroke:#181818;stroke-width:1.0;stroke-dasharray:2.0,2.0;" x1="1797.5" x2="2352" y1="612.3438" y2="612.3438"/><text fill="#000000" font-family="sans-serif" font-size="20" font-weight="bold" lengthAdjust="spacing" textLength="22" x="1809.5" y="605.9492">13</text><text fill="#000000" font-family="sans-serif" font-size="20" lengthAdjust="spacing" textLength="163" x="1835.5" y="605.9492">returns saved user</text><polygon fill="#181818" points="893,647.5,883,651.5,893,655.5,889,651.5" style="stroke:#181818;stroke-width:1.0;"/><line style="stroke:#181818;stroke-width:1.0;stroke-dasharray:2.0,2.0;" x1="887" x2="1786.5" y1="651.5" y2="651.5"/><text fill="#000000" font-family="sans-serif" font-size="20" font-weight="bold" lengthAdjust="spacing" textLength="22" x="899" y="645.1055">14</text><text fill="#000000" font-family="sans-serif" font-size="20" lengthAdjust="spacing" textLength="163" x="925" y="645.1055">returns saved user</text><polygon fill="#181818" points="478,686.6563,468,690.6563,478,694.6563,474,690.6563" style="stroke:#181818;stroke-width:1.0;"/><line style="stroke:#181818;stroke-width:1.0;stroke-dasharray:2.0,2.0;" x1="472" x2="876" y1="690.6563" y2="690.6563"/><text fill="#000000" font-family="sans-serif" font-size="20" font-weight="bold" lengthAdjust="spacing" textLength="22" x="484" y="684.2617">15</text><text fill="#000000" font-family="sans-serif" font-size="20" lengthAdjust="spacing" textLength="163" x="510" y="684.2617">returns saved user</text><polygon fill="#181818" points="64,725.8125,54,729.8125,64,733.8125,60,729.8125" style="stroke:#181818;stroke-width:1.0;"/><line style="stroke:#181818;stroke-width:1.0;stroke-dasharray:2.0,2.0;" x1="58" x2="456" y1="729.8125" y2="729.8125"/><text fill="#000000" font-family="sans-serif" font-size="20" font-weight="bold" lengthAdjust="spacing" textLength="22" x="70" y="723.418">16</text><text fill="#000000" font-family="sans-serif" font-size="20" lengthAdjust="spacing" textLength="226" x="96" y="723.418">returns operation success</text><!--SRC=[XLDDRzf04BtxLuouD952gNgqeaX0FuBKb0fYSLvs1xp2tdNt0qH-VMVMnDXDr5uix7blvirxWpzeqmWdwihA0ofGk1En2j-i2MlzWl3vK_QX3A7n-MJILCA4M5SVfQqd7dz7D1B7IeizyRDCn61DhBVeCY63TJ1QDkW4_Hg1yB3CQ4xGKZVK1KPJfUR2AAr4m6AH4CK2xkyRXnvD445Ry_0mv7I4BoA8ZLPx38cuOU8flVzDeJ7obJMdfPojAcm5pPzNFuWtRIejtnqtZQ6qJh-auXhTKKjCp6dn_3Y45XxTap1YZpM9xsEBfv_VXzZrsGUicT42I8EojT1lvb-1iwWhTS7F2BzjtucGqM9YApm2urROMA_9yJCZLrz_SNFNVMGyHQEFP0RbiHm_iESvOGyUWWMX51WyGUVO5LqiCe8IORF8GTbrQKytjzVoPf5H2EFKC0VVLXNswqLRNz8ynxVZWmSMVsD4ZNT81bHtJMaDGdj4jzaINWLgGyjTy1STd5xEYhkZwElXQfO29YZ7bGCQ7nroffGG9uwABNiKVchEorsVdVBbHrBSJd8OeZCUf3KxxUfq4n1A4I1I5z1KSQWqTMKdwV1trjK4G93HEHe9DlqRYDOt9eswkip7mW-MFQF5JpgKGoTdNRsWUZe40XIjzrpfINN8MoQ1_HP5ru8lXE8Inu5v_3LBn_DEKmQ_RPaeRTUBO_-bf5tRY2vdyszyYdHmH2swinLyb1Az_mC0]--></g></svg>