<?xml version="1.0" encoding="UTF-8" standalone="no"?><svg xmlns="http://www.w3.org/2000/svg" xmlns:xlink="http://www.w3.org/1999/xlink" contentStyleType="text/css" height="434px" preserveAspectRatio="none" style="width:629px;height:434px;background:#FFFFFF;" version="1.1" viewBox="0 0 629 434" width="629px" zoomAndPan="magnify"><defs/><g><rect fill="#FFFFFF" height="226.9375" style="stroke:#181818;stroke-width:1.0;" width="10" x="87.5" y="100.1563"/><rect fill="#FFFFFF" height="39.1563" style="stroke:#181818;stroke-width:1.0;" width="10" x="575.5" y="131.3125"/><rect fill="#FFFFFF" height="39.1563" style="stroke:#181818;stroke-width:1.0;" width="10" x="575.5" y="209.625"/><rect fill="#FFFFFF" height="39.1563" style="stroke:#181818;stroke-width:1.0;" width="10" x="575.5" y="287.9375"/><line style="stroke:#181818;stroke-width:0.5;stroke-dasharray:5.0,5.0;" x1="92" x2="92" y1="90.1563" y2="345.0938"/><line style="stroke:#181818;stroke-width:0.5;stroke-dasharray:5.0,5.0;" x1="580.5" x2="580.5" y1="90.1563" y2="345.0938"/><text fill="#000000" font-family="sans-serif" font-size="20" lengthAdjust="spacing" textLength="169" x="5" y="85.7617">Customer Manager</text><ellipse cx="92.5" cy="13.5" fill="#E2E2F0" rx="8" ry="8" style="stroke:#181818;stroke-width:0.5;"/><path d="M92.5,21.5 L92.5,48.5 M79.5,29.5 L105.5,29.5 M92.5,48.5 L79.5,63.5 M92.5,48.5 L105.5,63.5 " fill="none" style="stroke:#181818;stroke-width:0.5;"/><text fill="#000000" font-family="sans-serif" font-size="20" lengthAdjust="spacing" textLength="169" x="5" y="364.8555">Customer Manager</text><ellipse cx="92.5" cy="377.75" fill="#E2E2F0" rx="8" ry="8" style="stroke:#181818;stroke-width:0.5;"/><path d="M92.5,385.75 L92.5,412.75 M79.5,393.75 L105.5,393.75 M92.5,412.75 L79.5,427.75 M92.5,412.75 L105.5,427.75 " fill="none" style="stroke:#181818;stroke-width:0.5;"/><rect fill="#E2E2F0" height="39.1563" rx="2.5" ry="2.5" style="stroke:#181818;stroke-width:0.5;" width="86" x="537.5" y="50"/><text fill="#000000" font-family="sans-serif" font-size="20" lengthAdjust="spacing" textLength="72" x="544.5" y="77.7617">:System</text><rect fill="#E2E2F0" height="39.1563" rx="2.5" ry="2.5" style="stroke:#181818;stroke-width:0.5;" width="86" x="537.5" y="344.0938"/><text fill="#000000" font-family="sans-serif" font-size="20" lengthAdjust="spacing" textLength="72" x="544.5" y="371.8555">:System</text><rect fill="#FFFFFF" height="226.9375" style="stroke:#181818;stroke-width:1.0;" width="10" x="87.5" y="100.1563"/><rect fill="#FFFFFF" height="39.1563" style="stroke:#181818;stroke-width:1.0;" width="10" x="575.5" y="131.3125"/><rect fill="#FFFFFF" height="39.1563" style="stroke:#181818;stroke-width:1.0;" width="10" x="575.5" y="209.625"/><rect fill="#FFFFFF" height="39.1563" style="stroke:#181818;stroke-width:1.0;" width="10" x="575.5" y="287.9375"/><polygon fill="#181818" points="563.5,127.3125,573.5,131.3125,563.5,135.3125,567.5,131.3125" style="stroke:#181818;stroke-width:1.0;"/><line style="stroke:#181818;stroke-width:1.0;" x1="97.5" x2="569.5" y1="131.3125" y2="131.3125"/><text fill="#000000" font-family="sans-serif" font-size="20" font-weight="bold" lengthAdjust="spacing" textLength="11" x="104.5" y="124.918">1</text><text fill="#000000" font-family="sans-serif" font-size="20" lengthAdjust="spacing" textLength="444" x="119.5" y="124.918">asks to select an interview model for a job opening</text><polygon fill="#181818" points="108.5,166.4688,98.5,170.4688,108.5,174.4688,104.5,170.4688" style="stroke:#181818;stroke-width:1.0;"/><line style="stroke:#181818;stroke-width:1.0;stroke-dasharray:2.0,2.0;" x1="102.5" x2="579.5" y1="170.4688" y2="170.4688"/><text fill="#000000" font-family="sans-serif" font-size="20" font-weight="bold" lengthAdjust="spacing" textLength="11" x="114.5" y="164.0742">2</text><text fill="#000000" font-family="sans-serif" font-size="20" lengthAdjust="spacing" textLength="242" x="129.5" y="164.0742">displays available job offers</text><polygon fill="#181818" points="563.5,205.625,573.5,209.625,563.5,213.625,567.5,209.625" style="stroke:#181818;stroke-width:1.0;"/><line style="stroke:#181818;stroke-width:1.0;" x1="97.5" x2="569.5" y1="209.625" y2="209.625"/><text fill="#000000" font-family="sans-serif" font-size="20" font-weight="bold" lengthAdjust="spacing" textLength="11" x="104.5" y="203.2305">3</text><text fill="#000000" font-family="sans-serif" font-size="20" lengthAdjust="spacing" textLength="141" x="119.5" y="203.2305">selects job offer</text><polygon fill="#181818" points="108.5,244.7813,98.5,248.7813,108.5,252.7813,104.5,248.7813" style="stroke:#181818;stroke-width:1.0;"/><line style="stroke:#181818;stroke-width:1.0;stroke-dasharray:2.0,2.0;" x1="102.5" x2="579.5" y1="248.7813" y2="248.7813"/><text fill="#000000" font-family="sans-serif" font-size="20" font-weight="bold" lengthAdjust="spacing" textLength="11" x="114.5" y="242.3867">4</text><text fill="#000000" font-family="sans-serif" font-size="20" lengthAdjust="spacing" textLength="305" x="129.5" y="242.3867">displays available interview models</text><polygon fill="#181818" points="563.5,283.9375,573.5,287.9375,563.5,291.9375,567.5,287.9375" style="stroke:#181818;stroke-width:1.0;"/><line style="stroke:#181818;stroke-width:1.0;" x1="97.5" x2="569.5" y1="287.9375" y2="287.9375"/><text fill="#000000" font-family="sans-serif" font-size="20" font-weight="bold" lengthAdjust="spacing" textLength="11" x="104.5" y="281.543">5</text><text fill="#000000" font-family="sans-serif" font-size="20" lengthAdjust="spacing" textLength="204" x="119.5" y="281.543">selects interview model</text><polygon fill="#181818" points="103.5,323.0938,93.5,327.0938,103.5,331.0938,99.5,327.0938" style="stroke:#181818;stroke-width:1.0;"/><line style="stroke:#181818;stroke-width:1.0;stroke-dasharray:2.0,2.0;" x1="97.5" x2="579.5" y1="327.0938" y2="327.0938"/><text fill="#000000" font-family="sans-serif" font-size="20" font-weight="bold" lengthAdjust="spacing" textLength="11" x="109.5" y="320.6992">6</text><text fill="#000000" font-family="sans-serif" font-size="20" lengthAdjust="spacing" textLength="236" x="124.5" y="320.6992">displays operation success</text><!--SRC=[fP4nRiCm34LtdUB3Uu2YeuSk0RfboWbeYmvKIw8XKWxIqrTeW3X8so7e9b3a-q-YpY4lL2X56MVsy3nHZVOksOxXa_7wuXnLarpJmAMTHvE2_G6awFPLJH8N72ZJYKltVHzMCcujphMstHkw_dXHuzIXRrEpmWJAaKS3POHiNDR0PoJn734rFE531iZ2EUJJXho1dDkOkvRGSdhue4kaYu9M2f66o5VAD75Hv_atp4_1gvXke_-8VtZQyn8FWATLsWyMiY0PMiUHzG-3ksBRsXS0]--></g></svg>