<?xml version="1.0" encoding="UTF-8" standalone="no"?><svg xmlns="http://www.w3.org/2000/svg" xmlns:xlink="http://www.w3.org/1999/xlink" contentStyleType="text/css" height="1078px" preserveAspectRatio="none" style="width:1942px;height:1078px;background:#FFFFFF;" version="1.1" viewBox="0 0 1942 1078" width="1942px" zoomAndPan="magnify"><defs/><g><!--class SelectInterviewModelUI--><g id="elem_SelectInterviewModelUI"><rect codeLine="2" fill="#F1F1F1" height="227.25" id="SelectInterviewModelUI" rx="2.5" ry="2.5" style="stroke:#181818;stroke-width:0.5;" width="582" x="676" y="7"/><ellipse cx="859" cy="24.5781" fill="#ADD1B2" rx="12" ry="12" style="stroke:#181818;stroke-width:1.0;"/><path d="M861.1406,19.5 Q861.3281,19.25 861.5469,19.125 Q861.7656,18.9844 862.0156,18.9844 Q862.4531,18.9844 862.7344,19.2969 Q863.0156,19.5938 863.0156,20.3125 L863.0156,22.0156 Q863.0156,22.7344 862.7344,23.0469 Q862.4531,23.3594 862.0156,23.3594 Q861.625,23.3594 861.375,23.125 Q861.125,22.9063 861.0156,22.2969 Q860.9531,21.875 860.7344,21.6563 Q860.3438,21.2188 859.625,20.9531 Q858.9063,20.6875 858.1875,20.6875 Q857.2813,20.6875 856.5313,21.0781 Q855.7813,21.4688 855.2031,22.3594 Q854.625,23.2344 854.625,24.4375 L854.625,25.7344 Q854.625,27.1875 855.6719,28.1563 Q856.7344,29.125 858.5938,29.125 Q859.7031,29.125 860.4844,28.8125 Q860.9219,28.6406 861.4375,28.125 Q861.75,27.8125 861.9219,27.7188 Q862.0938,27.625 862.3281,27.625 Q862.7188,27.625 863.0156,27.9375 Q863.3281,28.2344 863.3281,28.6406 Q863.3281,29.0469 862.9219,29.5156 Q862.3281,30.2031 861.3906,30.5938 Q860.125,31.125 858.6094,31.125 Q856.8281,31.125 855.4063,30.3906 Q854.25,29.7969 853.4375,28.5313 Q852.625,27.2656 852.625,25.7813 L852.625,24.4219 Q852.625,22.8594 853.3438,21.5156 Q854.0781,20.1563 855.3594,19.4219 Q856.6563,18.6875 858.1094,18.6875 Q858.9688,18.6875 859.7188,18.8906 Q860.4844,19.0938 861.1406,19.5 Z " fill="#000000"/><text fill="#000000" font-family="sans-serif" font-size="20" lengthAdjust="spacing" textLength="207" x="881" y="32.7617">SelectInterviewModelUI</text><line style="stroke:#181818;stroke-width:0.5;" x1="677" x2="1257" y1="42.1563" y2="42.1563"/><rect fill="none" height="6" style="stroke:#C82930;stroke-width:1.0;" width="6" x="684" y="57.2344"/><text fill="#000000" font-family="sans-serif" font-size="20" lengthAdjust="spacing" textLength="367" x="697" y="66.918">ListInterviewModelController theController</text><rect fill="none" height="6" style="stroke:#C82930;stroke-width:1.0;" width="6" x="684" y="82.3906"/><text fill="#000000" font-family="sans-serif" font-size="20" lengthAdjust="spacing" textLength="147" x="697" y="92.0742">Scanner scanner</text><line style="stroke:#181818;stroke-width:0.5;" x1="677" x2="1257" y1="100.4688" y2="100.4688"/><ellipse cx="687" cy="118.5469" fill="#84BE84" rx="3" ry="3" style="stroke:#038048;stroke-width:1.0;"/><text fill="#000000" font-family="sans-serif" font-size="20" lengthAdjust="spacing" textLength="172" x="697" y="125.2305">doShow() : boolean</text><ellipse cx="687" cy="143.7031" fill="#84BE84" rx="3" ry="3" style="stroke:#038048;stroke-width:1.0;"/><text fill="#000000" font-family="sans-serif" font-size="20" lengthAdjust="spacing" textLength="468" x="697" y="150.3867">listObjects(List&lt;T&gt; objects, String objectName) : void</text><ellipse cx="687" cy="168.8594" fill="#84BE84" rx="3" ry="3" style="stroke:#038048;stroke-width:1.0;"/><text fill="#000000" font-family="sans-serif" font-size="20" lengthAdjust="spacing" textLength="555" x="697" y="175.543">selectObject(Scanner scanner, List&lt;T&gt; objects, String msg) : T</text><ellipse cx="687" cy="194.0156" fill="#84BE84" rx="3" ry="3" style="stroke:#038048;stroke-width:1.0;"/><text fill="#000000" font-family="sans-serif" font-size="20" lengthAdjust="spacing" textLength="155" x="697" y="200.6992">headline() : String</text><ellipse cx="687" cy="219.1719" fill="#84BE84" rx="3" ry="3" style="stroke:#038048;stroke-width:1.0;"/><text fill="#000000" font-family="sans-serif" font-size="20" lengthAdjust="spacing" textLength="147" x="697" y="225.8555">show() : boolean</text></g><!--class ListInterviewModelController--><g id="elem_ListInterviewModelController"><rect codeLine="12" fill="#F1F1F1" height="176.9375" id="ListInterviewModelController" rx="2.5" ry="2.5" style="stroke:#181818;stroke-width:0.5;" width="799" x="567.5" y="294"/><ellipse cx="838" cy="311.5781" fill="#ADD1B2" rx="12" ry="12" style="stroke:#181818;stroke-width:1.0;"/><path d="M840.1406,306.5 Q840.3281,306.25 840.5469,306.125 Q840.7656,305.9844 841.0156,305.9844 Q841.4531,305.9844 841.7344,306.2969 Q842.0156,306.5938 842.0156,307.3125 L842.0156,309.0156 Q842.0156,309.7344 841.7344,310.0469 Q841.4531,310.3594 841.0156,310.3594 Q840.625,310.3594 840.375,310.125 Q840.125,309.9063 840.0156,309.2969 Q839.9531,308.875 839.7344,308.6563 Q839.3438,308.2188 838.625,307.9531 Q837.9063,307.6875 837.1875,307.6875 Q836.2813,307.6875 835.5313,308.0781 Q834.7813,308.4688 834.2031,309.3594 Q833.625,310.2344 833.625,311.4375 L833.625,312.7344 Q833.625,314.1875 834.6719,315.1563 Q835.7344,316.125 837.5938,316.125 Q838.7031,316.125 839.4844,315.8125 Q839.9219,315.6406 840.4375,315.125 Q840.75,314.8125 840.9219,314.7188 Q841.0938,314.625 841.3281,314.625 Q841.7188,314.625 842.0156,314.9375 Q842.3281,315.2344 842.3281,315.6406 Q842.3281,316.0469 841.9219,316.5156 Q841.3281,317.2031 840.3906,317.5938 Q839.125,318.125 837.6094,318.125 Q835.8281,318.125 834.4063,317.3906 Q833.25,316.7969 832.4375,315.5313 Q831.625,314.2656 831.625,312.7813 L831.625,311.4219 Q831.625,309.8594 832.3438,308.5156 Q833.0781,307.1563 834.3594,306.4219 Q835.6563,305.6875 837.1094,305.6875 Q837.9688,305.6875 838.7188,305.8906 Q839.4844,306.0938 840.1406,306.5 Z " fill="#000000"/><text fill="#000000" font-family="sans-serif" font-size="20" lengthAdjust="spacing" textLength="249" x="860" y="319.7617">ListInterviewModelController</text><line style="stroke:#181818;stroke-width:0.5;" x1="568.5" x2="1365.5" y1="329.1563" y2="329.1563"/><rect fill="none" height="6" style="stroke:#C82930;stroke-width:1.0;" width="6" x="575.5" y="344.2344"/><text fill="#000000" font-family="sans-serif" font-size="20" lengthAdjust="spacing" textLength="346" x="588.5" y="353.918">JobOfferRepository jobOfferRepository</text><rect fill="none" height="6" style="stroke:#C82930;stroke-width:1.0;" width="6" x="575.5" y="369.3906"/><text fill="#000000" font-family="sans-serif" font-size="20" lengthAdjust="spacing" textLength="460" x="588.5" y="379.0742">InterviewModelRepository interviewModelRepository</text><line style="stroke:#181818;stroke-width:0.5;" x1="568.5" x2="1365.5" y1="387.4688" y2="387.4688"/><ellipse cx="578.5" cy="405.5469" fill="#84BE84" rx="3" ry="3" style="stroke:#038048;stroke-width:1.0;"/><text fill="#000000" font-family="sans-serif" font-size="20" lengthAdjust="spacing" textLength="772" x="588.5" y="412.2305">addJobOfferToInterviewModel(InterviewModel interviewModel, JobOffer jobOffer) : void</text><ellipse cx="578.5" cy="430.7031" fill="#84BE84" rx="3" ry="3" style="stroke:#038048;stroke-width:1.0;"/><text fill="#000000" font-family="sans-serif" font-size="20" lengthAdjust="spacing" textLength="522" x="588.5" y="437.3867">getListOfInterviewModelsAvailable() : List&lt;InterviewModel&gt;</text><ellipse cx="578.5" cy="455.8594" fill="#84BE84" rx="3" ry="3" style="stroke:#038048;stroke-width:1.0;"/><text fill="#000000" font-family="sans-serif" font-size="20" lengthAdjust="spacing" textLength="412" x="588.5" y="462.543">getListOfAvailableJobOffers() : List&lt;JobOffer&gt;</text></g><!--class InterviewModel--><g id="elem_InterviewModel"><rect codeLine="20" fill="#F1F1F1" height="277.5625" id="InterviewModel" rx="2.5" ry="2.5" style="stroke:#181818;stroke-width:0.5;" width="616" x="7" y="531"/><ellipse cx="244" cy="548.5781" fill="#ADD1B2" rx="12" ry="12" style="stroke:#181818;stroke-width:1.0;"/><path d="M246.1406,543.5 Q246.3281,543.25 246.5469,543.125 Q246.7656,542.9844 247.0156,542.9844 Q247.4531,542.9844 247.7344,543.2969 Q248.0156,543.5938 248.0156,544.3125 L248.0156,546.0156 Q248.0156,546.7344 247.7344,547.0469 Q247.4531,547.3594 247.0156,547.3594 Q246.625,547.3594 246.375,547.125 Q246.125,546.9063 246.0156,546.2969 Q245.9531,545.875 245.7344,545.6563 Q245.3438,545.2188 244.625,544.9531 Q243.9063,544.6875 243.1875,544.6875 Q242.2813,544.6875 241.5313,545.0781 Q240.7813,545.4688 240.2031,546.3594 Q239.625,547.2344 239.625,548.4375 L239.625,549.7344 Q239.625,551.1875 240.6719,552.1563 Q241.7344,553.125 243.5938,553.125 Q244.7031,553.125 245.4844,552.8125 Q245.9219,552.6406 246.4375,552.125 Q246.75,551.8125 246.9219,551.7188 Q247.0938,551.625 247.3281,551.625 Q247.7188,551.625 248.0156,551.9375 Q248.3281,552.2344 248.3281,552.6406 Q248.3281,553.0469 247.9219,553.5156 Q247.3281,554.2031 246.3906,554.5938 Q245.125,555.125 243.6094,555.125 Q241.8281,555.125 240.4063,554.3906 Q239.25,553.7969 238.4375,552.5313 Q237.625,551.2656 237.625,549.7813 L237.625,548.4219 Q237.625,546.8594 238.3438,545.5156 Q239.0781,544.1563 240.3594,543.4219 Q241.6563,542.6875 243.1094,542.6875 Q243.9688,542.6875 244.7188,542.8906 Q245.4844,543.0938 246.1406,543.5 Z " fill="#000000"/><text fill="#000000" font-family="sans-serif" font-size="20" lengthAdjust="spacing" textLength="133" x="266" y="556.7617">InterviewModel</text><line style="stroke:#181818;stroke-width:0.5;" x1="8" x2="622" y1="566.1563" y2="566.1563"/><rect fill="none" height="6" style="stroke:#C82930;stroke-width:1.0;" width="6" x="15" y="581.2344"/><text fill="#000000" font-family="sans-serif" font-size="20" lengthAdjust="spacing" textLength="64" x="28" y="590.918">Long id</text><rect fill="none" height="6" style="stroke:#C82930;stroke-width:1.0;" width="6" x="15" y="606.3906"/><text fill="#000000" font-family="sans-serif" font-size="20" lengthAdjust="spacing" textLength="181" x="28" y="616.0742">Reference reference</text><rect fill="none" height="6" style="stroke:#C82930;stroke-width:1.0;" width="6" x="15" y="631.5469"/><text fill="#000000" font-family="sans-serif" font-size="20" lengthAdjust="spacing" textLength="249" x="28" y="641.2305">QuestionForm questionForm</text><line style="stroke:#181818;stroke-width:0.5;" x1="8" x2="622" y1="649.625" y2="649.625"/><ellipse cx="18" cy="667.7031" fill="#84BE84" rx="3" ry="3" style="stroke:#038048;stroke-width:1.0;"/><text fill="#000000" font-family="sans-serif" font-size="20" lengthAdjust="spacing" textLength="589" x="28" y="674.3867">InterviewModel(Reference reference, QuestionForm questionForm)</text><ellipse cx="18" cy="692.8594" fill="#84BE84" rx="3" ry="3" style="stroke:#038048;stroke-width:1.0;"/><text fill="#000000" font-family="sans-serif" font-size="20" lengthAdjust="spacing" textLength="233" x="28" y="699.543">equals(Object o) : boolean</text><ellipse cx="18" cy="718.0156" fill="#84BE84" rx="3" ry="3" style="stroke:#038048;stroke-width:1.0;"/><text fill="#000000" font-family="sans-serif" font-size="20" lengthAdjust="spacing" textLength="140" x="28" y="724.6992">hashCode() : int</text><ellipse cx="18" cy="743.1719" fill="#84BE84" rx="3" ry="3" style="stroke:#038048;stroke-width:1.0;"/><text fill="#000000" font-family="sans-serif" font-size="20" lengthAdjust="spacing" textLength="281" x="28" y="749.8555">sameAs(Object other) : boolean</text><ellipse cx="18" cy="768.3281" fill="#84BE84" rx="3" ry="3" style="stroke:#038048;stroke-width:1.0;"/><text fill="#000000" font-family="sans-serif" font-size="20" lengthAdjust="spacing" textLength="90" x="28" y="775.0117">id() : Long</text><ellipse cx="18" cy="793.4844" fill="#84BE84" rx="3" ry="3" style="stroke:#038048;stroke-width:1.0;"/><text fill="#000000" font-family="sans-serif" font-size="20" lengthAdjust="spacing" textLength="137" x="28" y="800.168">identity() : Long</text></g><!--class JpaInterviewModelRepository--><g id="elem_JpaInterviewModelRepository"><rect codeLine="32" fill="#F1F1F1" height="151.7813" id="JpaInterviewModelRepository" rx="2.5" ry="2.5" style="stroke:#181818;stroke-width:0.5;" width="609" x="334.5" y="894"/><ellipse cx="504.5" cy="911.5781" fill="#ADD1B2" rx="12" ry="12" style="stroke:#181818;stroke-width:1.0;"/><path d="M506.6406,906.5 Q506.8281,906.25 507.0469,906.125 Q507.2656,905.9844 507.5156,905.9844 Q507.9531,905.9844 508.2344,906.2969 Q508.5156,906.5938 508.5156,907.3125 L508.5156,909.0156 Q508.5156,909.7344 508.2344,910.0469 Q507.9531,910.3594 507.5156,910.3594 Q507.125,910.3594 506.875,910.125 Q506.625,909.9063 506.5156,909.2969 Q506.4531,908.875 506.2344,908.6563 Q505.8438,908.2188 505.125,907.9531 Q504.4063,907.6875 503.6875,907.6875 Q502.7813,907.6875 502.0313,908.0781 Q501.2813,908.4688 500.7031,909.3594 Q500.125,910.2344 500.125,911.4375 L500.125,912.7344 Q500.125,914.1875 501.1719,915.1563 Q502.2344,916.125 504.0938,916.125 Q505.2031,916.125 505.9844,915.8125 Q506.4219,915.6406 506.9375,915.125 Q507.25,914.8125 507.4219,914.7188 Q507.5938,914.625 507.8281,914.625 Q508.2188,914.625 508.5156,914.9375 Q508.8281,915.2344 508.8281,915.6406 Q508.8281,916.0469 508.4219,916.5156 Q507.8281,917.2031 506.8906,917.5938 Q505.625,918.125 504.1094,918.125 Q502.3281,918.125 500.9063,917.3906 Q499.75,916.7969 498.9375,915.5313 Q498.125,914.2656 498.125,912.7813 L498.125,911.4219 Q498.125,909.8594 498.8438,908.5156 Q499.5781,907.1563 500.8594,906.4219 Q502.1563,905.6875 503.6094,905.6875 Q504.4688,905.6875 505.2188,905.8906 Q505.9844,906.0938 506.6406,906.5 Z " fill="#000000"/><text fill="#000000" font-family="sans-serif" font-size="20" lengthAdjust="spacing" textLength="260" x="526.5" y="919.7617">JpaInterviewModelRepository</text><line style="stroke:#181818;stroke-width:0.5;" x1="335.5" x2="942.5" y1="929.1563" y2="929.1563"/><line style="stroke:#181818;stroke-width:0.5;" x1="335.5" x2="942.5" y1="937.1563" y2="937.1563"/><ellipse cx="345.5" cy="955.2344" fill="#84BE84" rx="3" ry="3" style="stroke:#038048;stroke-width:1.0;"/><text fill="#000000" font-family="sans-serif" font-size="20" lengthAdjust="spacing" textLength="523" x="355.5" y="961.918">JpaInterviewModelRepository(TransactionalContext autoTx)</text><ellipse cx="345.5" cy="980.3906" fill="#84BE84" rx="3" ry="3" style="stroke:#038048;stroke-width:1.0;"/><text fill="#000000" font-family="sans-serif" font-size="20" lengthAdjust="spacing" textLength="400" x="355.5" y="987.0742">JpaInterviewModelRepository(String puname)</text><ellipse cx="345.5" cy="1005.5469" fill="#84BE84" rx="3" ry="3" style="stroke:#038048;stroke-width:1.0;"/><text fill="#000000" font-family="sans-serif" font-size="20" lengthAdjust="spacing" textLength="582" x="355.5" y="1012.2305">findByReference(Reference reference) : Iterable&lt;InterviewModel&gt;</text><ellipse cx="345.5" cy="1030.7031" fill="#84BE84" rx="3" ry="3" style="stroke:#038048;stroke-width:1.0;"/><text fill="#000000" font-family="sans-serif" font-size="20" lengthAdjust="spacing" textLength="397" x="355.5" y="1037.3867">findById(Long id) : Optional&lt;InterviewModel&gt;</text></g><!--class JpaJobOfferRepository--><g id="elem_JpaJobOfferRepository"><rect codeLine="39" fill="#F1F1F1" height="202.0938" id="JpaJobOfferRepository" rx="2.5" ry="2.5" style="stroke:#181818;stroke-width:0.5;" width="633" x="1302.5" y="869"/><ellipse cx="1512" cy="886.5781" fill="#ADD1B2" rx="12" ry="12" style="stroke:#181818;stroke-width:1.0;"/><path d="M1514.1406,881.5 Q1514.3281,881.25 1514.5469,881.125 Q1514.7656,880.9844 1515.0156,880.9844 Q1515.4531,880.9844 1515.7344,881.2969 Q1516.0156,881.5938 1516.0156,882.3125 L1516.0156,884.0156 Q1516.0156,884.7344 1515.7344,885.0469 Q1515.4531,885.3594 1515.0156,885.3594 Q1514.625,885.3594 1514.375,885.125 Q1514.125,884.9063 1514.0156,884.2969 Q1513.9531,883.875 1513.7344,883.6563 Q1513.3438,883.2188 1512.625,882.9531 Q1511.9063,882.6875 1511.1875,882.6875 Q1510.2813,882.6875 1509.5313,883.0781 Q1508.7813,883.4688 1508.2031,884.3594 Q1507.625,885.2344 1507.625,886.4375 L1507.625,887.7344 Q1507.625,889.1875 1508.6719,890.1563 Q1509.7344,891.125 1511.5938,891.125 Q1512.7031,891.125 1513.4844,890.8125 Q1513.9219,890.6406 1514.4375,890.125 Q1514.75,889.8125 1514.9219,889.7188 Q1515.0938,889.625 1515.3281,889.625 Q1515.7188,889.625 1516.0156,889.9375 Q1516.3281,890.2344 1516.3281,890.6406 Q1516.3281,891.0469 1515.9219,891.5156 Q1515.3281,892.2031 1514.3906,892.5938 Q1513.125,893.125 1511.6094,893.125 Q1509.8281,893.125 1508.4063,892.3906 Q1507.25,891.7969 1506.4375,890.5313 Q1505.625,889.2656 1505.625,887.7813 L1505.625,886.4219 Q1505.625,884.8594 1506.3438,883.5156 Q1507.0781,882.1563 1508.3594,881.4219 Q1509.6563,880.6875 1511.1094,880.6875 Q1511.9688,880.6875 1512.7188,880.8906 Q1513.4844,881.0938 1514.1406,881.5 Z " fill="#000000"/><text fill="#000000" font-family="sans-serif" font-size="20" lengthAdjust="spacing" textLength="205" x="1534" y="894.7617">JpaJobOfferRepository</text><line style="stroke:#181818;stroke-width:0.5;" x1="1303.5" x2="1934.5" y1="904.1563" y2="904.1563"/><line style="stroke:#181818;stroke-width:0.5;" x1="1303.5" x2="1934.5" y1="912.1563" y2="912.1563"/><ellipse cx="1313.5" cy="930.2344" fill="#84BE84" rx="3" ry="3" style="stroke:#038048;stroke-width:1.0;"/><text fill="#000000" font-family="sans-serif" font-size="20" lengthAdjust="spacing" textLength="468" x="1323.5" y="936.918">JpaJobOfferRepository(TransactionalContext autoTx)</text><ellipse cx="1313.5" cy="955.3906" fill="#84BE84" rx="3" ry="3" style="stroke:#038048;stroke-width:1.0;"/><text fill="#000000" font-family="sans-serif" font-size="20" lengthAdjust="spacing" textLength="345" x="1323.5" y="962.0742">JpaJobOfferRepository(String puname)</text><ellipse cx="1313.5" cy="980.5469" fill="#84BE84" rx="3" ry="3" style="stroke:#038048;stroke-width:1.0;"/><text fill="#000000" font-family="sans-serif" font-size="20" lengthAdjust="spacing" textLength="536" x="1323.5" y="987.2305">findAllByManager(String managerEmail) : Iterable&lt;JobOffer&gt;</text><ellipse cx="1313.5" cy="1005.7031" fill="#84BE84" rx="3" ry="3" style="stroke:#038048;stroke-width:1.0;"/><text fill="#000000" font-family="sans-serif" font-size="20" lengthAdjust="spacing" textLength="527" x="1323.5" y="1012.3867">findByReference(Reference reference) : Iterable&lt;JobOffer&gt;</text><ellipse cx="1313.5" cy="1030.8594" fill="#84BE84" rx="3" ry="3" style="stroke:#038048;stroke-width:1.0;"/><text fill="#000000" font-family="sans-serif" font-size="20" lengthAdjust="spacing" textLength="606" x="1323.5" y="1037.543">findAllByCreationDate(LocalDateTime creationDate) : List&lt;JobOffer&gt;</text><ellipse cx="1313.5" cy="1056.0156" fill="#84BE84" rx="3" ry="3" style="stroke:#038048;stroke-width:1.0;"/><text fill="#000000" font-family="sans-serif" font-size="20" lengthAdjust="spacing" textLength="491" x="1323.5" y="1062.6992">findAllByCompany(Company company) : List&lt;JobOffer&gt;</text></g><!--class JobOfferRepository--><g id="elem_JobOfferRepository"><rect codeLine="48" fill="#F1F1F1" height="151.7813" id="JobOfferRepository" rx="2.5" ry="2.5" style="stroke:#181818;stroke-width:0.5;" width="633" x="1302.5" y="594"/><ellipse cx="1528" cy="611.5781" fill="#B4A7E5" rx="12" ry="12" style="stroke:#181818;stroke-width:1.0;"/><path d="M1529,607.75 L1529,615.5781 L1531.0313,615.5781 Q1531.75,615.5781 1532.0469,615.8594 Q1532.3594,616.125 1532.3594,616.5781 Q1532.3594,617.0156 1532.0469,617.2969 Q1531.75,617.5781 1531.0313,617.5781 L1524.9844,617.5781 Q1524.25,617.5781 1523.9375,617.2969 Q1523.6406,617.0156 1523.6406,616.5781 Q1523.6406,616.125 1523.9375,615.8594 Q1524.25,615.5781 1524.9844,615.5781 L1527,615.5781 L1527,607.75 L1524.9844,607.75 Q1524.25,607.75 1523.9375,607.4688 Q1523.6406,607.1875 1523.6406,606.7344 Q1523.6406,606.2813 1523.9375,606.0156 Q1524.25,605.7344 1524.9844,605.7344 L1531.0313,605.7344 Q1531.75,605.7344 1532.0469,606.0156 Q1532.3594,606.2813 1532.3594,606.7344 Q1532.3594,607.1875 1532.0469,607.4688 Q1531.75,607.75 1531.0313,607.75 L1529,607.75 Z " fill="#000000"/><text fill="#000000" font-family="sans-serif" font-size="20" font-style="italic" lengthAdjust="spacing" textLength="173" x="1550" y="619.7617">JobOfferRepository</text><line style="stroke:#181818;stroke-width:0.5;" x1="1303.5" x2="1934.5" y1="629.1563" y2="629.1563"/><line style="stroke:#181818;stroke-width:0.5;" x1="1303.5" x2="1934.5" y1="637.1563" y2="637.1563"/><ellipse cx="1313.5" cy="655.2344" fill="#84BE84" rx="3" ry="3" style="stroke:#038048;stroke-width:1.0;"/><text fill="#000000" font-family="sans-serif" font-size="20" lengthAdjust="spacing" textLength="536" x="1323.5" y="661.918">findAllByManager(String managerEmail) : Iterable&lt;JobOffer&gt;</text><ellipse cx="1313.5" cy="680.3906" fill="#84BE84" rx="3" ry="3" style="stroke:#038048;stroke-width:1.0;"/><text fill="#000000" font-family="sans-serif" font-size="20" lengthAdjust="spacing" textLength="527" x="1323.5" y="687.0742">findByReference(Reference reference) : Iterable&lt;JobOffer&gt;</text><ellipse cx="1313.5" cy="705.5469" fill="#84BE84" rx="3" ry="3" style="stroke:#038048;stroke-width:1.0;"/><text fill="#000000" font-family="sans-serif" font-size="20" lengthAdjust="spacing" textLength="606" x="1323.5" y="712.2305">findAllByCreationDate(LocalDateTime creationDate) : List&lt;JobOffer&gt;</text><ellipse cx="1313.5" cy="730.7031" fill="#84BE84" rx="3" ry="3" style="stroke:#038048;stroke-width:1.0;"/><text fill="#000000" font-family="sans-serif" font-size="20" lengthAdjust="spacing" textLength="491" x="1323.5" y="737.3867">findAllByCompany(Company company) : List&lt;JobOffer&gt;</text></g><!--class InterviewModelRepository--><g id="elem_InterviewModelRepository"><rect codeLine="55" fill="#F1F1F1" height="126.625" id="InterviewModelRepository" rx="2.5" ry="2.5" style="stroke:#181818;stroke-width:0.5;" width="609" x="658.5" y="606.5"/><ellipse cx="844" cy="624.0781" fill="#B4A7E5" rx="12" ry="12" style="stroke:#181818;stroke-width:1.0;"/><path d="M845,620.25 L845,628.0781 L847.0313,628.0781 Q847.75,628.0781 848.0469,628.3594 Q848.3594,628.625 848.3594,629.0781 Q848.3594,629.5156 848.0469,629.7969 Q847.75,630.0781 847.0313,630.0781 L840.9844,630.0781 Q840.25,630.0781 839.9375,629.7969 Q839.6406,629.5156 839.6406,629.0781 Q839.6406,628.625 839.9375,628.3594 Q840.25,628.0781 840.9844,628.0781 L843,628.0781 L843,620.25 L840.9844,620.25 Q840.25,620.25 839.9375,619.9688 Q839.6406,619.6875 839.6406,619.2344 Q839.6406,618.7813 839.9375,618.5156 Q840.25,618.2344 840.9844,618.2344 L847.0313,618.2344 Q847.75,618.2344 848.0469,618.5156 Q848.3594,618.7813 848.3594,619.2344 Q848.3594,619.6875 848.0469,619.9688 Q847.75,620.25 847.0313,620.25 L845,620.25 Z " fill="#000000"/><text fill="#000000" font-family="sans-serif" font-size="20" font-style="italic" lengthAdjust="spacing" textLength="229" x="866" y="632.2617">InterviewModelRepository</text><line style="stroke:#181818;stroke-width:0.5;" x1="659.5" x2="1266.5" y1="641.6563" y2="641.6563"/><line style="stroke:#181818;stroke-width:0.5;" x1="659.5" x2="1266.5" y1="649.6563" y2="649.6563"/><ellipse cx="669.5" cy="667.7344" fill="#84BE84" rx="3" ry="3" style="stroke:#038048;stroke-width:1.0;"/><text fill="#000000" font-family="sans-serif" font-size="20" lengthAdjust="spacing" textLength="582" x="679.5" y="674.418">findByReference(Reference reference) : Iterable&lt;InterviewModel&gt;</text><ellipse cx="669.5" cy="692.8906" fill="#84BE84" rx="3" ry="3" style="stroke:#038048;stroke-width:1.0;"/><text fill="#000000" font-family="sans-serif" font-size="20" lengthAdjust="spacing" textLength="397" x="679.5" y="699.5742">findById(Long id) : Optional&lt;InterviewModel&gt;</text><ellipse cx="669.5" cy="718.0469" fill="#84BE84" rx="3" ry="3" style="stroke:#038048;stroke-width:1.0;"/><text fill="#000000" font-family="sans-serif" font-size="20" lengthAdjust="spacing" textLength="314" x="679.5" y="724.7305">findAll() : Optional&lt;InterviewModel&gt;</text></g><!--link SelectInterviewModelUI to ListInterviewModelController--><g id="link_SelectInterviewModelUI_ListInterviewModelController"><path codeLine="61" d="M967,234.03 C967,252.19 967,270.81 967,288.44 " fill="none" id="SelectInterviewModelUI-to-ListInterviewModelController" style="stroke:#181818;stroke-width:1.0;"/><polygon fill="#181818" points="967,293.88,971,284.88,967,288.88,963,284.88,967,293.88" style="stroke:#181818;stroke-width:1.0;"/></g><!--link ListInterviewModelController to InterviewModel--><g id="link_ListInterviewModelController_InterviewModel"><path codeLine="62" d="M766.95,471.1 C722.8,490.43 675,511.36 627.59,532.12 " fill="none" id="ListInterviewModelController-to-InterviewModel" style="stroke:#181818;stroke-width:1.0;"/><polygon fill="#181818" points="623,534.13,632.8488,534.1728,627.5778,532.1192,629.6314,526.8482,623,534.13" style="stroke:#181818;stroke-width:1.0;"/></g><!--link ListInterviewModelController to JobOfferRepository--><g id="link_ListInterviewModelController_JobOfferRepository"><path codeLine="63" d="M1167.05,471.1 C1255.13,509.67 1357.71,554.59 1442.85,591.87 " fill="none" id="ListInterviewModelController-to-JobOfferRepository" style="stroke:#181818;stroke-width:1.0;"/><polygon fill="#181818" points="1447.67,593.98,1441.0469,586.6906,1443.0945,591.9639,1437.8212,594.0115,1447.67,593.98" style="stroke:#181818;stroke-width:1.0;"/></g><!--link InterviewModel to JpaInterviewModelRepository--><g id="link_InterviewModel_JpaInterviewModelRepository"><path codeLine="64" d="M465.14,809.1 C495.44,836.96 526.28,865.33 553.42,890.29 " fill="none" id="InterviewModel-to-JpaInterviewModelRepository" style="stroke:#181818;stroke-width:1.0;"/><polygon fill="#181818" points="557.4,893.95,553.478,884.9157,553.7178,890.5675,548.066,890.8073,557.4,893.95" style="stroke:#181818;stroke-width:1.0;"/></g><!--reverse link JobOfferRepository to JpaJobOfferRepository--><g id="link_JobOfferRepository_JpaJobOfferRepository"><path codeLine="65" d="M1619,766.48 C1619,799.13 1619,835.75 1619,868.77 " fill="none" id="JobOfferRepository-backto-JpaJobOfferRepository" style="stroke:#181818;stroke-width:1.0;stroke-dasharray:7.0,7.0;"/><polygon fill="none" points="1612,766.2,1619,746.2,1626,766.2,1612,766.2" style="stroke:#181818;stroke-width:1.0;"/></g><!--reverse link InterviewModelRepository to JpaInterviewModelRepository--><g id="link_InterviewModelRepository_JpaInterviewModelRepository"><path codeLine="66" d="M879.94,747.4 C831.02,792.39 769.38,849.08 720.7,893.86 " fill="none" id="InterviewModelRepository-backto-JpaInterviewModelRepository" style="stroke:#181818;stroke-width:1.0;stroke-dasharray:7.0,7.0;"/><polygon fill="none" points="875.22,742.22,894.68,733.83,884.7,752.53,875.22,742.22" style="stroke:#181818;stroke-width:1.0;"/></g><!--SRC=[xLPDRzim3BtxL-Zee4anx3WK0T9i1LAi2rPxFu2nw4IjBBcIajRx-E-JB3kElv9XXvsMYosHxv5y8kNePoPoK91ncJmZ9HHJs7Dp9uM9s7Saxzy5GS91Qn8XnyIiX45rOFZw82doRolo8o3sD_lCTCUsj1HASewAc1qsA-yV9I24DMd_B3Ulg8nsyZMSa0za8oL747wVM_Brvic6rw4BT1FFYVJhAOcCOc9RhRz0XWv-a8nwh2xJzkYm4tLAnjWolNKqiUVO8L3E19QPUO-Al9lkhrgjitfKcjtBpJfDKJrYBZKpKXNagRVbNTjK9m0sOl3v0QLra5YsESBsiaCq9JNkc59RrYqQL-8wRTFenG4OXmttMfNojZtc7VmHK0VK3RBUcZUwThAkkq_QCwjIcpsYXQ18aAZwpHk-xb4R9iMTL1bvELdub3hw3D1CoIZ5n7FWonwu3dsx4Tdhv1tetTBIbpLQoQisibsxQ51sN5GFoQZNHTQznoWAmqpHR1z5kizXj66yObTdNC9OWT2GkDAWR5jyCmJsHiPlayleQeBolN2pwFrJ9kXjSLHqI5jNnSfIkbOORXbFig9XTTeEiSvzbZt4gHO3SzQeq3V-MVq3kB7A5vpV5WyWO8kgTihyybDckxzLUjFpVwNS0BmClrG8hg2FOD0Ac01tRp7Ba2Gdfe7Hw_38B0THXDMJ9FuvFBBbdPA2JNRy2FuBL0fqQLx__GITbXLUchMHFmUpsVpibp0u-vbqwBRnid-_qOBE9wFq6h-_We5MlVbvVJryaGIZvrPZHkFy1W00]--></g></svg>