<?xml version="1.0" encoding="UTF-8" standalone="no"?><svg xmlns="http://www.w3.org/2000/svg" xmlns:xlink="http://www.w3.org/1999/xlink" contentStyleType="text/css" height="664px" preserveAspectRatio="none" style="width:1921px;height:664px;background:#FFFFFF;" version="1.1" viewBox="0 0 1921 664" width="1921px" zoomAndPan="magnify"><defs/><g><rect fill="#FFFFFF" height="422.7188" style="stroke:#181818;stroke-width:1.0;" width="10" x="84.5" y="111.3125"/><rect fill="#FFFFFF" height="39.1563" style="stroke:#181818;stroke-width:1.0;" width="10" x="554.5" y="142.4688"/><rect fill="#FFFFFF" height="313.25" style="stroke:#181818;stroke-width:1.0;" width="10" x="554.5" y="220.7813"/><rect fill="#FFFFFF" height="195.7813" style="stroke:#181818;stroke-width:1.0;" width="10" x="913.5" y="259.9375"/><rect fill="#FFFFFF" height="39.1563" style="stroke:#181818;stroke-width:1.0;" width="10" x="1342.5" y="299.0938"/><rect fill="#FFFFFF" height="39.1563" style="stroke:#181818;stroke-width:1.0;" width="10" x="1342.5" y="377.4063"/><rect fill="#FFFFFF" height="39.1563" style="stroke:#181818;stroke-width:1.0;" width="10" x="1342.5" y="455.7188"/><rect fill="#FFFFFF" height="48.1563" style="stroke:#181818;stroke-width:1.0;" width="10" x="1782.5" y="494.875"/><line style="stroke:#181818;stroke-width:0.5;stroke-dasharray:5.0,5.0;" x1="89" x2="89" y1="101.3125" y2="552.0313"/><line style="stroke:#181818;stroke-width:0.5;stroke-dasharray:5.0,5.0;" x1="559.5" x2="559.5" y1="101.3125" y2="552.0313"/><line style="stroke:#181818;stroke-width:0.5;stroke-dasharray:5.0,5.0;" x1="918.5" x2="918.5" y1="101.3125" y2="552.0313"/><line style="stroke:#181818;stroke-width:0.5;stroke-dasharray:5.0,5.0;" x1="1347.5" x2="1347.5" y1="101.3125" y2="552.0313"/><line style="stroke:#181818;stroke-width:0.5;stroke-dasharray:5.0,5.0;" x1="1787.5" x2="1787.5" y1="101.3125" y2="552.0313"/><text fill="#000000" font-family="sans-serif" font-size="20" lengthAdjust="spacing" textLength="163" x="5" y="96.918">CustomerManager</text><ellipse cx="89.5" cy="24.6563" fill="#E2E2F0" rx="8" ry="8" style="stroke:#181818;stroke-width:0.5;"/><path d="M89.5,32.6563 L89.5,59.6563 M76.5,40.6563 L102.5,40.6563 M89.5,59.6563 L76.5,74.6563 M89.5,59.6563 L102.5,74.6563 " fill="none" style="stroke:#181818;stroke-width:0.5;"/><text fill="#000000" font-family="sans-serif" font-size="20" lengthAdjust="spacing" textLength="163" x="5" y="571.793">CustomerManager</text><ellipse cx="89.5" cy="584.6875" fill="#E2E2F0" rx="8" ry="8" style="stroke:#181818;stroke-width:0.5;"/><path d="M89.5,592.6875 L89.5,619.6875 M76.5,600.6875 L102.5,600.6875 M89.5,619.6875 L76.5,634.6875 M89.5,619.6875 L102.5,634.6875 " fill="none" style="stroke:#181818;stroke-width:0.5;"/><rect fill="#E2E2F0" height="64.3125" rx="2.5" ry="2.5" style="stroke:#181818;stroke-width:0.5;" width="274" x="422.5" y="36"/><text fill="#000000" font-family="sans-serif" font-size="20" font-style="italic" lengthAdjust="spacing" textLength="131" x="494" y="63.7617">«presentation»</text><text fill="#000000" font-family="sans-serif" font-size="20" lengthAdjust="spacing" textLength="260" x="429.5" y="88.918">UploadRequirementTextFileUI</text><rect fill="#E2E2F0" height="64.3125" rx="2.5" ry="2.5" style="stroke:#181818;stroke-width:0.5;" width="274" x="422.5" y="551.0313"/><text fill="#000000" font-family="sans-serif" font-size="20" font-style="italic" lengthAdjust="spacing" textLength="131" x="494" y="578.793">«presentation»</text><text fill="#000000" font-family="sans-serif" font-size="20" lengthAdjust="spacing" textLength="260" x="429.5" y="603.9492">UploadRequirementTextFileUI</text><rect fill="#E2E2F0" height="64.3125" rx="2.5" ry="2.5" style="stroke:#181818;stroke-width:0.5;" width="340" x="748.5" y="36"/><text fill="#000000" font-family="sans-serif" font-size="20" font-style="italic" lengthAdjust="spacing" textLength="118" x="859.5" y="63.7617">«application»</text><text fill="#000000" font-family="sans-serif" font-size="20" lengthAdjust="spacing" textLength="326" x="755.5" y="88.918">UploadRequirementTextFileController</text><rect fill="#E2E2F0" height="64.3125" rx="2.5" ry="2.5" style="stroke:#181818;stroke-width:0.5;" width="340" x="748.5" y="551.0313"/><text fill="#000000" font-family="sans-serif" font-size="20" font-style="italic" lengthAdjust="spacing" textLength="118" x="859.5" y="578.793">«application»</text><text fill="#000000" font-family="sans-serif" font-size="20" lengthAdjust="spacing" textLength="326" x="755.5" y="603.9492">UploadRequirementTextFileController</text><rect fill="#E2E2F0" height="64.3125" rx="2.5" ry="2.5" style="stroke:#181818;stroke-width:0.5;" width="320" x="1187.5" y="36"/><text fill="#000000" font-family="sans-serif" font-size="20" font-style="italic" lengthAdjust="spacing" textLength="86" x="1304.5" y="63.7617">«service»</text><text fill="#000000" font-family="sans-serif" font-size="20" lengthAdjust="spacing" textLength="306" x="1194.5" y="88.918">UploadRequirementTextFileService</text><rect fill="#E2E2F0" height="64.3125" rx="2.5" ry="2.5" style="stroke:#181818;stroke-width:0.5;" width="320" x="1187.5" y="551.0313"/><text fill="#000000" font-family="sans-serif" font-size="20" font-style="italic" lengthAdjust="spacing" textLength="86" x="1304.5" y="578.793">«service»</text><text fill="#000000" font-family="sans-serif" font-size="20" lengthAdjust="spacing" textLength="306" x="1194.5" y="603.9492">UploadRequirementTextFileService</text><text fill="#000000" font-family="sans-serif" font-size="20" font-style="italic" lengthAdjust="spacing" textLength="110" x="1729.5" y="71.7617">«repository»</text><text fill="#000000" font-family="sans-serif" font-size="20" lengthAdjust="spacing" textLength="260" x="1654.5" y="96.918">RequirementModelRepository</text><path d="M1769.5,15 C1769.5,5 1787.5,5 1787.5,5 C1787.5,5 1805.5,5 1805.5,15 L1805.5,41 C1805.5,51 1787.5,51 1787.5,51 C1787.5,51 1769.5,51 1769.5,41 L1769.5,15 " fill="#E2E2F0" style="stroke:#181818;stroke-width:1.5;"/><path d="M1769.5,15 C1769.5,25 1787.5,25 1787.5,25 C1787.5,25 1805.5,25 1805.5,15 " fill="none" style="stroke:#181818;stroke-width:1.5;"/><text fill="#000000" font-family="sans-serif" font-size="20" font-style="italic" lengthAdjust="spacing" textLength="110" x="1729.5" y="571.793">«repository»</text><text fill="#000000" font-family="sans-serif" font-size="20" lengthAdjust="spacing" textLength="260" x="1654.5" y="596.9492">RequirementModelRepository</text><path d="M1769.5,611.3438 C1769.5,601.3438 1787.5,601.3438 1787.5,601.3438 C1787.5,601.3438 1805.5,601.3438 1805.5,611.3438 L1805.5,637.3438 C1805.5,647.3438 1787.5,647.3438 1787.5,647.3438 C1787.5,647.3438 1769.5,647.3438 1769.5,637.3438 L1769.5,611.3438 " fill="#E2E2F0" style="stroke:#181818;stroke-width:1.5;"/><path d="M1769.5,611.3438 C1769.5,621.3438 1787.5,621.3438 1787.5,621.3438 C1787.5,621.3438 1805.5,621.3438 1805.5,611.3438 " fill="none" style="stroke:#181818;stroke-width:1.5;"/><rect fill="#FFFFFF" height="422.7188" style="stroke:#181818;stroke-width:1.0;" width="10" x="84.5" y="111.3125"/><rect fill="#FFFFFF" height="39.1563" style="stroke:#181818;stroke-width:1.0;" width="10" x="554.5" y="142.4688"/><rect fill="#FFFFFF" height="313.25" style="stroke:#181818;stroke-width:1.0;" width="10" x="554.5" y="220.7813"/><rect fill="#FFFFFF" height="195.7813" style="stroke:#181818;stroke-width:1.0;" width="10" x="913.5" y="259.9375"/><rect fill="#FFFFFF" height="39.1563" style="stroke:#181818;stroke-width:1.0;" width="10" x="1342.5" y="299.0938"/><rect fill="#FFFFFF" height="39.1563" style="stroke:#181818;stroke-width:1.0;" width="10" x="1342.5" y="377.4063"/><rect fill="#FFFFFF" height="39.1563" style="stroke:#181818;stroke-width:1.0;" width="10" x="1342.5" y="455.7188"/><rect fill="#FFFFFF" height="48.1563" style="stroke:#181818;stroke-width:1.0;" width="10" x="1782.5" y="494.875"/><polygon fill="#181818" points="542.5,138.4688,552.5,142.4688,542.5,146.4688,546.5,142.4688" style="stroke:#181818;stroke-width:1.0;"/><line style="stroke:#181818;stroke-width:1.0;" x1="94.5" x2="548.5" y1="142.4688" y2="142.4688"/><text fill="#000000" font-family="sans-serif" font-size="20" font-weight="bold" lengthAdjust="spacing" textLength="11" x="101.5" y="136.0742">1</text><text fill="#000000" font-family="sans-serif" font-size="20" lengthAdjust="spacing" textLength="426" x="116.5" y="136.0742">asks the system to upload a requirement text file</text><polygon fill="#181818" points="105.5,177.625,95.5,181.625,105.5,185.625,101.5,181.625" style="stroke:#181818;stroke-width:1.0;"/><line style="stroke:#181818;stroke-width:1.0;stroke-dasharray:2.0,2.0;" x1="99.5" x2="558.5" y1="181.625" y2="181.625"/><text fill="#000000" font-family="sans-serif" font-size="20" font-weight="bold" lengthAdjust="spacing" textLength="11" x="111.5" y="175.2305">2</text><text fill="#000000" font-family="sans-serif" font-size="20" lengthAdjust="spacing" textLength="369" x="126.5" y="175.2305">requests the user to select a file to upload</text><polygon fill="#181818" points="542.5,216.7813,552.5,220.7813,542.5,224.7813,546.5,220.7813" style="stroke:#181818;stroke-width:1.0;"/><line style="stroke:#181818;stroke-width:1.0;" x1="94.5" x2="548.5" y1="220.7813" y2="220.7813"/><text fill="#000000" font-family="sans-serif" font-size="20" font-weight="bold" lengthAdjust="spacing" textLength="11" x="101.5" y="214.3867">3</text><text fill="#000000" font-family="sans-serif" font-size="20" lengthAdjust="spacing" textLength="251" x="116.5" y="214.3867">selects the text file to upload</text><polygon fill="#181818" points="901.5,255.9375,911.5,259.9375,901.5,263.9375,905.5,259.9375" style="stroke:#181818;stroke-width:1.0;"/><line style="stroke:#181818;stroke-width:1.0;" x1="564.5" x2="907.5" y1="259.9375" y2="259.9375"/><text fill="#000000" font-family="sans-serif" font-size="20" font-weight="bold" lengthAdjust="spacing" textLength="11" x="571.5" y="253.543">4</text><text fill="#000000" font-family="sans-serif" font-size="20" lengthAdjust="spacing" textLength="315" x="586.5" y="253.543">uploadRequirementTextFile(filepath)</text><polygon fill="#181818" points="1330.5,295.0938,1340.5,299.0938,1330.5,303.0938,1334.5,299.0938" style="stroke:#181818;stroke-width:1.0;"/><line style="stroke:#181818;stroke-width:1.0;" x1="923.5" x2="1336.5" y1="299.0938" y2="299.0938"/><text fill="#000000" font-family="sans-serif" font-size="20" font-weight="bold" lengthAdjust="spacing" textLength="11" x="930.5" y="292.6992">5</text><text fill="#000000" font-family="sans-serif" font-size="20" lengthAdjust="spacing" textLength="161" x="945.5" y="292.6992">obtainFile(filepath)</text><polygon fill="#181818" points="934.5,334.25,924.5,338.25,934.5,342.25,930.5,338.25" style="stroke:#181818;stroke-width:1.0;"/><line style="stroke:#181818;stroke-width:1.0;stroke-dasharray:2.0,2.0;" x1="928.5" x2="1346.5" y1="338.25" y2="338.25"/><text fill="#000000" font-family="sans-serif" font-size="20" font-weight="bold" lengthAdjust="spacing" textLength="11" x="940.5" y="331.8555">6</text><text fill="#000000" font-family="sans-serif" font-size="20" lengthAdjust="spacing" textLength="25" x="955.5" y="331.8555">file</text><polygon fill="#181818" points="1330.5,373.4063,1340.5,377.4063,1330.5,381.4063,1334.5,377.4063" style="stroke:#181818;stroke-width:1.0;"/><line style="stroke:#181818;stroke-width:1.0;" x1="923.5" x2="1336.5" y1="377.4063" y2="377.4063"/><text fill="#000000" font-family="sans-serif" font-size="20" font-weight="bold" lengthAdjust="spacing" textLength="11" x="930.5" y="371.0117">7</text><text fill="#000000" font-family="sans-serif" font-size="20" lengthAdjust="spacing" textLength="202" x="945.5" y="371.0117">convertFileContent(file)</text><polygon fill="#181818" points="934.5,412.5625,924.5,416.5625,934.5,420.5625,930.5,416.5625" style="stroke:#181818;stroke-width:1.0;"/><line style="stroke:#181818;stroke-width:1.0;stroke-dasharray:2.0,2.0;" x1="928.5" x2="1346.5" y1="416.5625" y2="416.5625"/><text fill="#000000" font-family="sans-serif" font-size="20" font-weight="bold" lengthAdjust="spacing" textLength="11" x="940.5" y="410.168">8</text><text fill="#000000" font-family="sans-serif" font-size="20" lengthAdjust="spacing" textLength="158" x="955.5" y="410.168">requirementModel</text><polygon fill="#181818" points="1330.5,451.7188,1340.5,455.7188,1330.5,459.7188,1334.5,455.7188" style="stroke:#181818;stroke-width:1.0;"/><line style="stroke:#181818;stroke-width:1.0;" x1="918.5" x2="1336.5" y1="455.7188" y2="455.7188"/><text fill="#000000" font-family="sans-serif" font-size="20" font-weight="bold" lengthAdjust="spacing" textLength="11" x="925.5" y="449.3242">9</text><text fill="#000000" font-family="sans-serif" font-size="20" lengthAdjust="spacing" textLength="385" x="940.5" y="449.3242">saveRequirementModel(RequirementModel)</text><polygon fill="#181818" points="1770.5,490.875,1780.5,494.875,1770.5,498.875,1774.5,494.875" style="stroke:#181818;stroke-width:1.0;"/><line style="stroke:#181818;stroke-width:1.0;" x1="1347.5" x2="1776.5" y1="494.875" y2="494.875"/><text fill="#000000" font-family="sans-serif" font-size="20" font-weight="bold" lengthAdjust="spacing" textLength="22" x="1354.5" y="488.4805">10</text><text fill="#000000" font-family="sans-serif" font-size="20" lengthAdjust="spacing" textLength="385" x="1380.5" y="488.4805">saveRequirementModel(RequirementModel)</text><polygon fill="#181818" points="100.5,530.0313,90.5,534.0313,100.5,538.0313,96.5,534.0313" style="stroke:#181818;stroke-width:1.0;"/><line style="stroke:#181818;stroke-width:1.0;stroke-dasharray:2.0,2.0;" x1="94.5" x2="558.5" y1="534.0313" y2="534.0313"/><text fill="#000000" font-family="sans-serif" font-size="20" font-weight="bold" lengthAdjust="spacing" textLength="22" x="106.5" y="527.6367">11</text><text fill="#000000" font-family="sans-serif" font-size="20" lengthAdjust="spacing" textLength="229" x="132.5" y="527.6367">informs operation success</text><!--SRC=[bPD1Rzim38Nl-XL4JkqXmB1ZKFXYe420-U8qkpCoimgH9KsYWtM_VfIynaxW08sE4j_7nmSgdOmB6B6tNf-eWuwEE5X-zOvtvY_1zsyA1_Pkw0yKbKBDFiAg7XBxdcA33dzHN04cg1ib83RQ17GCgtsm7hkMVWycKa-Et-WFlnfB-ssfts_XvIL4IlA4RBohgYy2QZ4NlRMVZT_Q7uB24ApHZv5s5Cz6Ky7iVjP2IUED45I7Z0TC13DXupkoBGMVZ0JnKTgt8ekNgwoKbCmPcN8cgcvWNULfDr9zIi3l1EaZCVN07ePY3H3Yr0HOxC5H_4sa_LOfOQm59S1DAQV48suGrncMo99cWMNjH5STNN5cZaR5IBbqdIclT20dUwZ6o3V_YnPoVSgOWFp-N4HJ7g8REVaKYj1oyXlm1qRZ5jHN1AczNEQJjUl9KGdjysqsTfRTQwozErEyR9QCKGmytZpUxCbT8yi-4fxfTjMURY-Ubw0brg-vhVA-FjnhOOZvqsIalIUHb-i5DkxeOv_01uhbqq8QjAQKrEswpYcD-WS0]--></g></svg>