<?xml version="1.0" encoding="us-ascii" standalone="no"?><svg xmlns="http://www.w3.org/2000/svg" xmlns:xlink="http://www.w3.org/1999/xlink" contentStyleType="text/css" height="776px" preserveAspectRatio="none" style="width:502px;height:776px;background:#FFFFFF;" version="1.1" viewBox="0 0 502 776" width="502px" zoomAndPan="magnify"><defs/><g><!--class ListCandidateInfoUI--><g id="elem_ListCandidateInfoUI"><rect codeLine="3" fill="#F1F1F1" height="122.4844" id="ListCandidateInfoUI" rx="2.5" ry="2.5" style="stroke:#181818;stroke-width:0.5;" width="154" x="189.5" y="7"/><ellipse cx="204.5" cy="23" fill="#ADD1B2" rx="11" ry="11" style="stroke:#181818;stroke-width:1.0;"/><path d="M207.2656,18.875 Q207.4219,18.6563 207.6094,18.5469 Q207.7969,18.4375 208.0156,18.4375 Q208.3906,18.4375 208.625,18.7031 Q208.8594,18.9531 208.8594,19.5625 L208.8594,21.0156 Q208.8594,21.625 208.625,21.8906 Q208.3906,22.1563 208.0156,22.1563 Q207.6719,22.1563 207.4688,21.9531 Q207.2656,21.7656 207.1563,21.25 Q207.1094,20.8906 206.9219,20.7031 Q206.5938,20.3281 205.9844,20.1094 Q205.375,19.8906 204.75,19.8906 Q203.9844,19.8906 203.3438,20.2188 Q202.7188,20.5469 202.2188,21.2969 Q201.7344,22.0469 201.7344,23.0781 L201.7344,24.1719 Q201.7344,25.4063 202.625,26.2344 Q203.5156,27.0469 205.1094,27.0469 Q206.0469,27.0469 206.7031,26.7969 Q207.0938,26.6406 207.5156,26.2031 Q207.7813,25.9375 207.9219,25.8594 Q208.0781,25.7813 208.2813,25.7813 Q208.6094,25.7813 208.8594,26.0469 Q209.125,26.2969 209.125,26.6406 Q209.125,26.9844 208.7813,27.3906 Q208.2813,27.9688 207.4844,28.2969 Q206.4063,28.75 205.1094,28.75 Q203.5938,28.75 202.3906,28.125 Q201.4063,27.625 200.7188,26.5625 Q200.0313,25.4844 200.0313,24.2031 L200.0313,23.0469 Q200.0313,21.7188 200.6406,20.5781 Q201.2656,19.4219 202.3594,18.8125 Q203.4531,18.1875 204.6875,18.1875 Q205.4219,18.1875 206.0625,18.3594 Q206.7188,18.5156 207.2656,18.875 Z " fill="#000000"/><text fill="#000000" font-family="sans-serif" font-size="14" lengthAdjust="spacing" textLength="122" x="218.5" y="28.7969">ListCandidateInfoUI</text><line style="stroke:#181818;stroke-width:0.5;" x1="190.5" x2="342.5" y1="39" y2="39"/><rect fill="none" height="6" style="stroke:#C82930;stroke-width:1.0;" width="6" x="197.5" y="50.8105"/><text fill="#000000" font-family="sans-serif" font-size="14" lengthAdjust="spacing" textLength="82" x="209.5" y="58.1074">theController</text><rect fill="none" height="6" style="stroke:#C82930;stroke-width:1.0;" width="6" x="197.5" y="69.4316"/><text fill="#000000" font-family="sans-serif" font-size="14" lengthAdjust="spacing" textLength="79" x="209.5" y="76.7285">listController</text><line style="stroke:#181818;stroke-width:0.5;" x1="190.5" x2="342.5" y1="84.2422" y2="84.2422"/><ellipse cx="200.5" cy="99.0527" fill="#84BE84" rx="3" ry="3" style="stroke:#038048;stroke-width:1.0;"/><text fill="#000000" font-family="sans-serif" font-size="14" lengthAdjust="spacing" textLength="60" x="209.5" y="103.3496">doShow()</text><ellipse cx="200.5" cy="117.6738" fill="#84BE84" rx="3" ry="3" style="stroke:#038048;stroke-width:1.0;"/><text fill="#000000" font-family="sans-serif" font-size="14" lengthAdjust="spacing" textLength="64" x="209.5" y="121.9707">headline()</text></g><!--class ListCandidateInfoController--><g id="elem_ListCandidateInfoController"><rect codeLine="11" fill="#F1F1F1" height="103.8633" id="ListCandidateInfoController" rx="2.5" ry="2.5" style="stroke:#181818;stroke-width:0.5;" width="204" x="49.5" y="189"/><ellipse cx="64.5" cy="205" fill="#ADD1B2" rx="11" ry="11" style="stroke:#181818;stroke-width:1.0;"/><path d="M67.2656,200.875 Q67.4219,200.6563 67.6094,200.5469 Q67.7969,200.4375 68.0156,200.4375 Q68.3906,200.4375 68.625,200.7031 Q68.8594,200.9531 68.8594,201.5625 L68.8594,203.0156 Q68.8594,203.625 68.625,203.8906 Q68.3906,204.1563 68.0156,204.1563 Q67.6719,204.1563 67.4688,203.9531 Q67.2656,203.7656 67.1563,203.25 Q67.1094,202.8906 66.9219,202.7031 Q66.5938,202.3281 65.9844,202.1094 Q65.375,201.8906 64.75,201.8906 Q63.9844,201.8906 63.3438,202.2188 Q62.7188,202.5469 62.2188,203.2969 Q61.7344,204.0469 61.7344,205.0781 L61.7344,206.1719 Q61.7344,207.4063 62.625,208.2344 Q63.5156,209.0469 65.1094,209.0469 Q66.0469,209.0469 66.7031,208.7969 Q67.0938,208.6406 67.5156,208.2031 Q67.7813,207.9375 67.9219,207.8594 Q68.0781,207.7813 68.2813,207.7813 Q68.6094,207.7813 68.8594,208.0469 Q69.125,208.2969 69.125,208.6406 Q69.125,208.9844 68.7813,209.3906 Q68.2813,209.9688 67.4844,210.2969 Q66.4063,210.75 65.1094,210.75 Q63.5938,210.75 62.3906,210.125 Q61.4063,209.625 60.7188,208.5625 Q60.0313,207.4844 60.0313,206.2031 L60.0313,205.0469 Q60.0313,203.7188 60.6406,202.5781 Q61.2656,201.4219 62.3594,200.8125 Q63.4531,200.1875 64.6875,200.1875 Q65.4219,200.1875 66.0625,200.3594 Q66.7188,200.5156 67.2656,200.875 Z " fill="#000000"/><text fill="#000000" font-family="sans-serif" font-size="14" lengthAdjust="spacing" textLength="172" x="78.5" y="210.7969">ListCandidateInfoController</text><line style="stroke:#181818;stroke-width:0.5;" x1="50.5" x2="252.5" y1="221" y2="221"/><rect fill="none" height="6" style="stroke:#C82930;stroke-width:1.0;" width="6" x="57.5" y="232.8105"/><text fill="#000000" font-family="sans-serif" font-size="14" lengthAdjust="spacing" textLength="34" x="69.5" y="240.1074">authz</text><rect fill="none" height="6" style="stroke:#C82930;stroke-width:1.0;" width="6" x="57.5" y="251.4316"/><text fill="#000000" font-family="sans-serif" font-size="14" lengthAdjust="spacing" textLength="51" x="69.5" y="258.7285">userSvc</text><line style="stroke:#181818;stroke-width:0.5;" x1="50.5" x2="252.5" y1="266.2422" y2="266.2422"/><ellipse cx="60.5" cy="281.0527" fill="#84BE84" rx="3" ry="3" style="stroke:#038048;stroke-width:1.0;"/><text fill="#000000" font-family="sans-serif" font-size="14" lengthAdjust="spacing" textLength="147" x="69.5" y="285.3496">getCandidateByName()</text></g><!--class ListCandidatesController--><g id="elem_ListCandidatesController"><rect codeLine="17" fill="#F1F1F1" height="103.8633" id="ListCandidatesController" rx="2.5" ry="2.5" style="stroke:#181818;stroke-width:0.5;" width="188" x="288.5" y="189"/><ellipse cx="303.5" cy="205" fill="#ADD1B2" rx="11" ry="11" style="stroke:#181818;stroke-width:1.0;"/><path d="M306.2656,200.875 Q306.4219,200.6563 306.6094,200.5469 Q306.7969,200.4375 307.0156,200.4375 Q307.3906,200.4375 307.625,200.7031 Q307.8594,200.9531 307.8594,201.5625 L307.8594,203.0156 Q307.8594,203.625 307.625,203.8906 Q307.3906,204.1563 307.0156,204.1563 Q306.6719,204.1563 306.4688,203.9531 Q306.2656,203.7656 306.1563,203.25 Q306.1094,202.8906 305.9219,202.7031 Q305.5938,202.3281 304.9844,202.1094 Q304.375,201.8906 303.75,201.8906 Q302.9844,201.8906 302.3438,202.2188 Q301.7188,202.5469 301.2188,203.2969 Q300.7344,204.0469 300.7344,205.0781 L300.7344,206.1719 Q300.7344,207.4063 301.625,208.2344 Q302.5156,209.0469 304.1094,209.0469 Q305.0469,209.0469 305.7031,208.7969 Q306.0938,208.6406 306.5156,208.2031 Q306.7813,207.9375 306.9219,207.8594 Q307.0781,207.7813 307.2813,207.7813 Q307.6094,207.7813 307.8594,208.0469 Q308.125,208.2969 308.125,208.6406 Q308.125,208.9844 307.7813,209.3906 Q307.2813,209.9688 306.4844,210.2969 Q305.4063,210.75 304.1094,210.75 Q302.5938,210.75 301.3906,210.125 Q300.4063,209.625 299.7188,208.5625 Q299.0313,207.4844 299.0313,206.2031 L299.0313,205.0469 Q299.0313,203.7188 299.6406,202.5781 Q300.2656,201.4219 301.3594,200.8125 Q302.4531,200.1875 303.6875,200.1875 Q304.4219,200.1875 305.0625,200.3594 Q305.7188,200.5156 306.2656,200.875 Z " fill="#000000"/><text fill="#000000" font-family="sans-serif" font-size="14" lengthAdjust="spacing" textLength="156" x="317.5" y="210.7969">ListCandidatesController</text><line style="stroke:#181818;stroke-width:0.5;" x1="289.5" x2="475.5" y1="221" y2="221"/><rect fill="none" height="6" style="stroke:#C82930;stroke-width:1.0;" width="6" x="296.5" y="232.8105"/><text fill="#000000" font-family="sans-serif" font-size="14" lengthAdjust="spacing" textLength="34" x="308.5" y="240.1074">authz</text><rect fill="none" height="6" style="stroke:#C82930;stroke-width:1.0;" width="6" x="296.5" y="251.4316"/><text fill="#000000" font-family="sans-serif" font-size="14" lengthAdjust="spacing" textLength="51" x="308.5" y="258.7285">userSvc</text><line style="stroke:#181818;stroke-width:0.5;" x1="289.5" x2="475.5" y1="266.2422" y2="266.2422"/><ellipse cx="299.5" cy="281.0527" fill="#84BE84" rx="3" ry="3" style="stroke:#038048;stroke-width:1.0;"/><text fill="#000000" font-family="sans-serif" font-size="14" lengthAdjust="spacing" textLength="135" x="308.5" y="285.3496">listCandidatesUsers()</text></g><!--class AuthorizationService--><g id="elem_AuthorizationService"><rect codeLine="24" fill="#F1F1F1" height="234.2109" id="AuthorizationService" rx="2.5" ry="2.5" style="stroke:#181818;stroke-width:0.5;" width="259" x="7" y="381"/><ellipse cx="67.75" cy="397" fill="#ADD1B2" rx="11" ry="11" style="stroke:#181818;stroke-width:1.0;"/><path d="M70.5156,392.875 Q70.6719,392.6563 70.8594,392.5469 Q71.0469,392.4375 71.2656,392.4375 Q71.6406,392.4375 71.875,392.7031 Q72.1094,392.9531 72.1094,393.5625 L72.1094,395.0156 Q72.1094,395.625 71.875,395.8906 Q71.6406,396.1563 71.2656,396.1563 Q70.9219,396.1563 70.7188,395.9531 Q70.5156,395.7656 70.4063,395.25 Q70.3594,394.8906 70.1719,394.7031 Q69.8438,394.3281 69.2344,394.1094 Q68.625,393.8906 68,393.8906 Q67.2344,393.8906 66.5938,394.2188 Q65.9688,394.5469 65.4688,395.2969 Q64.9844,396.0469 64.9844,397.0781 L64.9844,398.1719 Q64.9844,399.4063 65.875,400.2344 Q66.7656,401.0469 68.3594,401.0469 Q69.2969,401.0469 69.9531,400.7969 Q70.3438,400.6406 70.7656,400.2031 Q71.0313,399.9375 71.1719,399.8594 Q71.3281,399.7813 71.5313,399.7813 Q71.8594,399.7813 72.1094,400.0469 Q72.375,400.2969 72.375,400.6406 Q72.375,400.9844 72.0313,401.3906 Q71.5313,401.9688 70.7344,402.2969 Q69.6563,402.75 68.3594,402.75 Q66.8438,402.75 65.6406,402.125 Q64.6563,401.625 63.9688,400.5625 Q63.2813,399.4844 63.2813,398.2031 L63.2813,397.0469 Q63.2813,395.7188 63.8906,394.5781 Q64.5156,393.4219 65.6094,392.8125 Q66.7031,392.1875 67.9375,392.1875 Q68.6719,392.1875 69.3125,392.3594 Q69.9688,392.5156 70.5156,392.875 Z " fill="#000000"/><text fill="#000000" font-family="sans-serif" font-size="14" lengthAdjust="spacing" textLength="129" x="88.25" y="402.7969">AuthorizationService</text><line style="stroke:#181818;stroke-width:0.5;" x1="8" x2="265" y1="413" y2="413"/><rect fill="none" height="6" style="stroke:#C82930;stroke-width:1.0;" width="6" x="15" y="424.8105"/><text fill="#000000" font-family="sans-serif" font-size="14" lengthAdjust="spacing" textLength="60" x="27" y="432.1074">LOGGER</text><rect fill="none" height="6" style="stroke:#C82930;stroke-width:1.0;" width="6" x="15" y="443.4316"/><text fill="#000000" font-family="sans-serif" font-size="14" lengthAdjust="spacing" textLength="70" x="27" y="450.7285">theSession</text><line style="stroke:#181818;stroke-width:0.5;" x1="8" x2="265" y1="458.2422" y2="458.2422"/><ellipse cx="18" cy="473.0527" fill="#84BE84" rx="3" ry="3" style="stroke:#038048;stroke-width:1.0;"/><text fill="#000000" font-family="sans-serif" font-size="14" lengthAdjust="spacing" textLength="139" x="27" y="477.3496">AuthorizationService()</text><ellipse cx="18" cy="491.6738" fill="#84BE84" rx="3" ry="3" style="stroke:#038048;stroke-width:1.0;"/><text fill="#000000" font-family="sans-serif" font-size="14" lengthAdjust="spacing" textLength="151" x="27" y="495.9707">createSessionForUser()</text><ellipse cx="18" cy="510.2949" fill="#84BE84" rx="3" ry="3" style="stroke:#038048;stroke-width:1.0;"/><text fill="#000000" font-family="sans-serif" font-size="14" lengthAdjust="spacing" textLength="91" x="27" y="514.5918">clearSession()</text><ellipse cx="18" cy="528.916" fill="#84BE84" rx="3" ry="3" style="stroke:#038048;stroke-width:1.0;"/><text fill="#000000" font-family="sans-serif" font-size="14" lengthAdjust="spacing" textLength="83" x="27" y="533.2129">hasSession()</text><ellipse cx="18" cy="547.5371" fill="#84BE84" rx="3" ry="3" style="stroke:#038048;stroke-width:1.0;"/><text fill="#000000" font-family="sans-serif" font-size="14" lengthAdjust="spacing" textLength="58" x="27" y="551.834">session()</text><ellipse cx="18" cy="566.1582" fill="#84BE84" rx="3" ry="3" style="stroke:#038048;stroke-width:1.0;"/><text fill="#000000" font-family="sans-serif" font-size="14" lengthAdjust="spacing" textLength="220" x="27" y="570.4551">isAuthenticatedUserAuthorizedTo()</text><ellipse cx="18" cy="584.7793" fill="#84BE84" rx="3" ry="3" style="stroke:#038048;stroke-width:1.0;"/><text fill="#000000" font-family="sans-serif" font-size="14" lengthAdjust="spacing" textLength="233" x="27" y="589.0762">ensureAuthenticatedUserHasAnyOf()</text><ellipse cx="18" cy="603.4004" fill="#84BE84" rx="3" ry="3" style="stroke:#038048;stroke-width:1.0;"/><text fill="#000000" font-family="sans-serif" font-size="14" lengthAdjust="spacing" textLength="197" x="27" y="607.6973">loggedinUserWithPermissions()</text></g><!--class UserManagementService--><g id="elem_UserManagementService"><rect codeLine="37" fill="#F1F1F1" height="290.0742" id="UserManagementService" rx="2.5" ry="2.5" style="stroke:#181818;stroke-width:0.5;" width="194" x="301.5" y="353"/><ellipse cx="318.3" cy="369" fill="#ADD1B2" rx="11" ry="11" style="stroke:#181818;stroke-width:1.0;"/><path d="M321.0656,364.875 Q321.2219,364.6563 321.4094,364.5469 Q321.5969,364.4375 321.8156,364.4375 Q322.1906,364.4375 322.425,364.7031 Q322.6594,364.9531 322.6594,365.5625 L322.6594,367.0156 Q322.6594,367.625 322.425,367.8906 Q322.1906,368.1563 321.8156,368.1563 Q321.4719,368.1563 321.2688,367.9531 Q321.0656,367.7656 320.9563,367.25 Q320.9094,366.8906 320.7219,366.7031 Q320.3938,366.3281 319.7844,366.1094 Q319.175,365.8906 318.55,365.8906 Q317.7844,365.8906 317.1438,366.2188 Q316.5188,366.5469 316.0188,367.2969 Q315.5344,368.0469 315.5344,369.0781 L315.5344,370.1719 Q315.5344,371.4063 316.425,372.2344 Q317.3156,373.0469 318.9094,373.0469 Q319.8469,373.0469 320.5031,372.7969 Q320.8938,372.6406 321.3156,372.2031 Q321.5813,371.9375 321.7219,371.8594 Q321.8781,371.7813 322.0813,371.7813 Q322.4094,371.7813 322.6594,372.0469 Q322.925,372.2969 322.925,372.6406 Q322.925,372.9844 322.5813,373.3906 Q322.0813,373.9688 321.2844,374.2969 Q320.2063,374.75 318.9094,374.75 Q317.3938,374.75 316.1906,374.125 Q315.2063,373.625 314.5188,372.5625 Q313.8313,371.4844 313.8313,370.2031 L313.8313,369.0469 Q313.8313,367.7188 314.4406,366.5781 Q315.0656,365.4219 316.1594,364.8125 Q317.2531,364.1875 318.4875,364.1875 Q319.2219,364.1875 319.8625,364.3594 Q320.5188,364.5156 321.0656,364.875 Z " fill="#000000"/><text fill="#000000" font-family="sans-serif" font-size="14" lengthAdjust="spacing" textLength="158" x="332.7" y="374.7969">UserManagementService</text><line style="stroke:#181818;stroke-width:0.5;" x1="302.5" x2="494.5" y1="385" y2="385"/><rect fill="none" height="6" style="stroke:#C82930;stroke-width:1.0;" width="6" x="309.5" y="396.8105"/><text fill="#000000" font-family="sans-serif" font-size="14" lengthAdjust="spacing" textLength="96" x="321.5" y="404.1074">userRepository</text><rect fill="none" height="6" style="stroke:#C82930;stroke-width:1.0;" width="6" x="309.5" y="415.4316"/><text fill="#000000" font-family="sans-serif" font-size="14" lengthAdjust="spacing" textLength="52" x="321.5" y="422.7285">encoder</text><rect fill="none" height="6" style="stroke:#C82930;stroke-width:1.0;" width="6" x="309.5" y="434.0527"/><text fill="#000000" font-family="sans-serif" font-size="14" lengthAdjust="spacing" textLength="36" x="321.5" y="441.3496">policy</text><line style="stroke:#181818;stroke-width:0.5;" x1="302.5" x2="494.5" y1="448.8633" y2="448.8633"/><ellipse cx="312.5" cy="463.6738" fill="#84BE84" rx="3" ry="3" style="stroke:#038048;stroke-width:1.0;"/><text fill="#000000" font-family="sans-serif" font-size="14" lengthAdjust="spacing" textLength="168" x="321.5" y="467.9707">UserManagementService()</text><ellipse cx="312.5" cy="482.2949" fill="#84BE84" rx="3" ry="3" style="stroke:#038048;stroke-width:1.0;"/><text fill="#000000" font-family="sans-serif" font-size="14" lengthAdjust="spacing" textLength="113" x="321.5" y="486.5918">registerNewUser()</text><ellipse cx="312.5" cy="500.916" fill="#84BE84" rx="3" ry="3" style="stroke:#038048;stroke-width:1.0;"/><text fill="#000000" font-family="sans-serif" font-size="14" lengthAdjust="spacing" textLength="113" x="321.5" y="505.2129">registerNewUser()</text><ellipse cx="312.5" cy="519.5371" fill="#84BE84" rx="3" ry="3" style="stroke:#038048;stroke-width:1.0;"/><text fill="#000000" font-family="sans-serif" font-size="14" lengthAdjust="spacing" textLength="87" x="321.5" y="523.834">registerUser()</text><ellipse cx="312.5" cy="538.1582" fill="#84BE84" rx="3" ry="3" style="stroke:#038048;stroke-width:1.0;"/><text fill="#000000" font-family="sans-serif" font-size="14" lengthAdjust="spacing" textLength="83" x="321.5" y="542.4551">activeUsers()</text><ellipse cx="312.5" cy="556.7793" fill="#84BE84" rx="3" ry="3" style="stroke:#038048;stroke-width:1.0;"/><text fill="#000000" font-family="sans-serif" font-size="14" lengthAdjust="spacing" textLength="119" x="321.5" y="561.0762">deactivatedUsers()</text><ellipse cx="312.5" cy="575.4004" fill="#84BE84" rx="3" ry="3" style="stroke:#038048;stroke-width:1.0;"/><text fill="#000000" font-family="sans-serif" font-size="14" lengthAdjust="spacing" textLength="60" x="321.5" y="579.6973">allUsers()</text><ellipse cx="312.5" cy="594.0215" fill="#84BE84" rx="3" ry="3" style="stroke:#038048;stroke-width:1.0;"/><text fill="#000000" font-family="sans-serif" font-size="14" lengthAdjust="spacing" textLength="98" x="321.5" y="598.3184">userOfIdentity()</text><ellipse cx="312.5" cy="612.6426" fill="#84BE84" rx="3" ry="3" style="stroke:#038048;stroke-width:1.0;"/><text fill="#000000" font-family="sans-serif" font-size="14" lengthAdjust="spacing" textLength="104" x="321.5" y="616.9395">deactivateUser()</text><ellipse cx="312.5" cy="631.2637" fill="#84BE84" rx="3" ry="3" style="stroke:#038048;stroke-width:1.0;"/><text fill="#000000" font-family="sans-serif" font-size="14" lengthAdjust="spacing" textLength="88" x="321.5" y="635.5605">activateUser()</text></g><!--class UserRepository--><g id="elem_UserRepository"><rect codeLine="53" fill="#F1F1F1" height="66.6211" id="UserRepository" rx="2.5" ry="2.5" style="stroke:#181818;stroke-width:0.5;" width="130" x="333.5" y="703"/><ellipse cx="348.5" cy="719" fill="#B4A7E5" rx="11" ry="11" style="stroke:#181818;stroke-width:1.0;"/><path d="M349.4531,715.6406 L349.4531,722.2969 L351.1719,722.2969 Q351.7813,722.2969 352.0469,722.5313 Q352.3125,722.7656 352.3125,723.1563 Q352.3125,723.5313 352.0469,723.7656 Q351.7813,724 351.1719,724 L346.0313,724 Q345.4219,724 345.1563,723.7656 Q344.8906,723.5313 344.8906,723.1406 Q344.8906,722.7656 345.1563,722.5313 Q345.4219,722.2969 346.0313,722.2969 L347.75,722.2969 L347.75,715.6406 L346.0313,715.6406 Q345.4219,715.6406 345.1563,715.4063 Q344.8906,715.1719 344.8906,714.7813 Q344.8906,714.4063 345.1563,714.1719 Q345.4219,713.9375 346.0313,713.9375 L351.1719,713.9375 Q351.7813,713.9375 352.0469,714.1719 Q352.3125,714.4063 352.3125,714.7813 Q352.3125,715.1719 352.0469,715.4063 Q351.7813,715.6406 351.1719,715.6406 L349.4531,715.6406 Z " fill="#000000"/><text fill="#000000" font-family="sans-serif" font-size="14" font-style="italic" lengthAdjust="spacing" textLength="98" x="362.5" y="724.7969">UserRepository</text><line style="stroke:#181818;stroke-width:0.5;" x1="334.5" x2="462.5" y1="735" y2="735"/><line style="stroke:#181818;stroke-width:0.5;" x1="334.5" x2="462.5" y1="743" y2="743"/><ellipse cx="344.5" cy="757.8105" fill="#84BE84" rx="3" ry="3" style="stroke:#038048;stroke-width:1.0;"/><text fill="#000000" font-family="sans-serif" font-size="14" lengthAdjust="spacing" textLength="87" x="353.5" y="762.1074">findByActive()</text></g><!--link ListCandidateInfoUI to ListCandidateInfoController--><g id="link_ListCandidateInfoUI_ListCandidateInfoController"><path codeLine="57" d="M225.96,129.29 C212.89,148.71 208.5935,155.1025 196.0135,173.8125 " fill="none" id="ListCandidateInfoUI-to-ListCandidateInfoController" style="stroke:#181818;stroke-width:1.0;"/><polygon fill="none" points="185.97,188.75,200.9926,177.1603,191.0343,170.4647,185.97,188.75" style="stroke:#181818;stroke-width:1.0;"/></g><!--link ListCandidateInfoUI to ListCandidatesController--><g id="link_ListCandidateInfoUI_ListCandidatesController"><path codeLine="58" d="M307.4,129.29 C320.57,148.71 324.9363,155.1432 337.6263,173.8532 " fill="none" id="ListCandidateInfoUI-to-ListCandidatesController" style="stroke:#181818;stroke-width:1.0;"/><polygon fill="none" points="347.73,188.75,342.5919,170.4853,332.6607,177.2211,347.73,188.75" style="stroke:#181818;stroke-width:1.0;"/></g><!--link ListCandidatesController to AuthorizationService--><g id="link_ListCandidatesController_AuthorizationService"><path codeLine="59" d="M333.01,293.3 C308.6,318.6 290.5883,337.2766 260.9283,368.0166 " fill="none" id="ListCandidatesController-to-AuthorizationService" style="stroke:#181818;stroke-width:1.0;"/><polygon fill="none" points="248.43,380.97,265.2462,372.1827,256.6105,363.8505,248.43,380.97" style="stroke:#181818;stroke-width:1.0;"/></g><!--link ListCandidatesController to UserManagementService--><g id="link_ListCandidatesController_UserManagementService"><path codeLine="60" d="M385.72,293.3 C386.82,310.89 386.9977,313.585 388.3277,334.875 " fill="none" id="ListCandidatesController-to-UserManagementService" style="stroke:#181818;stroke-width:1.0;"/><polygon fill="none" points="389.45,352.84,394.316,334.5009,382.3394,335.2491,389.45,352.84" style="stroke:#181818;stroke-width:1.0;"/></g><!--link ListCandidateInfoController to AuthorizationService--><g id="link_ListCandidateInfoController_AuthorizationService"><path codeLine="61" d="M148.48,293.3 C146.99,318.6 146.1822,332.2608 144.3822,363.0008 " fill="none" id="ListCandidateInfoController-to-AuthorizationService" style="stroke:#181818;stroke-width:1.0;"/><polygon fill="none" points="143.33,380.97,150.3719,363.3515,138.3925,362.65,143.33,380.97" style="stroke:#181818;stroke-width:1.0;"/></g><!--link ListCandidateInfoController to UserManagementService--><g id="link_ListCandidateInfoController_UserManagementService"><path codeLine="62" d="M217.54,293.2 C239.36,311.23 263.22,332.2 283.5,353 C289.42,359.07 283.2964,352.0527 289.1664,358.5727 " fill="none" id="ListCandidateInfoController-to-UserManagementService" style="stroke:#181818;stroke-width:1.0;"/><polygon fill="none" points="301.21,371.95,293.6255,354.5582,284.7073,362.5873,301.21,371.95" style="stroke:#181818;stroke-width:1.0;"/></g><!--link UserManagementService to UserRepository--><g id="link_UserManagementService_UserRepository"><path codeLine="63" d="M398.5,643.05 C398.5,665.42 398.5,668.5 398.5,684.87 " fill="none" id="UserManagementService-to-UserRepository" style="stroke:#181818;stroke-width:1.0;"/><polygon fill="none" points="398.5,702.87,404.5,684.87,392.5,684.87,398.5,702.87" style="stroke:#181818;stroke-width:1.0;"/></g><!--SRC=[ZLFBJkim4DtdAxhZ8jJRFGkaWe1RYKiH1R4UsPDa9CUkF6vHUFmxOwSbARY5LJndpZdpi7DKXx3aqybaQS26LMF-AjTCb07ciIQeF3H5aSBH3N6u0Aj9Gy2PBTtZxBKOZqAD5yu6xun1Bx69j1uu6MctgDtpdsCvrWZQa4K9tekzlhqw-iCgr2_oNJ7wnLg9IuKz_xozXMRZbx7ZdxpC3ljHSDvfRYeAv-a50ZcxGBycXT7fPdvzVNdVZRz0PicAMuwT1bSUnNz3l78-5keI1i5ly6v5mCEG1sVYw8ysa18p7Jss1L4_kCH1ookFttZ_WAUsdPU9OrnLeIOR4qyKwZlq3QKoF5naJFy72nKsuZMOFMxl7fUEAJZV2e1MEPqkV-aCgLPgPCMfkiTATex-5fy_jt08-mH01LhZzehaNM52jYDs81ZJ1x7HUJdJSHMX_IBQzUq1cP-ir2r1OHgZ7_LLs2LPVTvEKoyTE_DVZCRZjxD33_kN8jwd62GwMUxb_I39Nb5neEdVLigfyiMoQ2_eD_y1]--></g></svg>