<?xml version="1.0" encoding="UTF-8" standalone="no"?><svg xmlns="http://www.w3.org/2000/svg" xmlns:xlink="http://www.w3.org/1999/xlink" contentStyleType="text/css" height="630px" preserveAspectRatio="none" style="width:559px;height:630px;background:#FFFFFF;" version="1.1" viewBox="0 0 559 630" width="559px" zoomAndPan="magnify"><defs/><g><rect fill="#FFFFFF" height="422.875" style="stroke:#181818;stroke-width:1.0;" width="10" x="58" y="100.1563"/><rect fill="#FFFFFF" height="39.1563" style="stroke:#181818;stroke-width:1.0;" width="10" x="494" y="131.3125"/><rect fill="#FFFFFF" height="39.1563" style="stroke:#181818;stroke-width:1.0;" width="10" x="494" y="209.625"/><rect fill="#FFFFFF" height="83.4688" style="stroke:#181818;stroke-width:1.0;" width="10" x="494" y="287.9375"/><rect fill="#FFFFFF" height="85.3125" style="stroke:#181818;stroke-width:1.0;" width="10" x="494" y="437.7188"/><rect fill="none" height="142.7813" style="stroke:#000000;stroke-width:1.5;" width="542" x="10" y="302.9375"/><line style="stroke:#181818;stroke-width:0.5;stroke-dasharray:5.0,5.0;" x1="63" x2="63" y1="90.1563" y2="541.0313"/><line style="stroke:#181818;stroke-width:0.5;stroke-dasharray:5.0,5.0;" x1="499" x2="499" y1="90.1563" y2="541.0313"/><text fill="#000000" font-family="sans-serif" font-size="20" lengthAdjust="spacing" textLength="80" x="20" y="85.7617">Operator</text><ellipse cx="63" cy="13.5" fill="#E2E2F0" rx="8" ry="8" style="stroke:#181818;stroke-width:0.5;"/><path d="M63,21.5 L63,48.5 M50,29.5 L76,29.5 M63,48.5 L50,63.5 M63,48.5 L76,63.5 " fill="none" style="stroke:#181818;stroke-width:0.5;"/><text fill="#000000" font-family="sans-serif" font-size="20" lengthAdjust="spacing" textLength="80" x="20" y="560.793">Operator</text><ellipse cx="63" cy="573.6875" fill="#E2E2F0" rx="8" ry="8" style="stroke:#181818;stroke-width:0.5;"/><path d="M63,581.6875 L63,608.6875 M50,589.6875 L76,589.6875 M63,608.6875 L50,623.6875 M63,608.6875 L76,623.6875 " fill="none" style="stroke:#181818;stroke-width:0.5;"/><rect fill="#E2E2F0" height="39.1563" rx="2.5" ry="2.5" style="stroke:#181818;stroke-width:0.5;" width="86" x="456" y="50"/><text fill="#000000" font-family="sans-serif" font-size="20" lengthAdjust="spacing" textLength="72" x="463" y="77.7617">:System</text><rect fill="#E2E2F0" height="39.1563" rx="2.5" ry="2.5" style="stroke:#181818;stroke-width:0.5;" width="86" x="456" y="540.0313"/><text fill="#000000" font-family="sans-serif" font-size="20" lengthAdjust="spacing" textLength="72" x="463" y="567.793">:System</text><rect fill="#FFFFFF" height="422.875" style="stroke:#181818;stroke-width:1.0;" width="10" x="58" y="100.1563"/><rect fill="#FFFFFF" height="39.1563" style="stroke:#181818;stroke-width:1.0;" width="10" x="494" y="131.3125"/><rect fill="#FFFFFF" height="39.1563" style="stroke:#181818;stroke-width:1.0;" width="10" x="494" y="209.625"/><rect fill="#FFFFFF" height="83.4688" style="stroke:#181818;stroke-width:1.0;" width="10" x="494" y="287.9375"/><rect fill="#FFFFFF" height="85.3125" style="stroke:#181818;stroke-width:1.0;" width="10" x="494" y="437.7188"/><polygon fill="#181818" points="482,127.3125,492,131.3125,482,135.3125,486,131.3125" style="stroke:#181818;stroke-width:1.0;"/><line style="stroke:#181818;stroke-width:1.0;" x1="68" x2="488" y1="131.3125" y2="131.3125"/><text fill="#000000" font-family="sans-serif" font-size="20" font-weight="bold" lengthAdjust="spacing" textLength="11" x="75" y="124.918">1</text><text fill="#000000" font-family="sans-serif" font-size="20" lengthAdjust="spacing" textLength="271" x="90" y="124.918">requests to register application</text><polygon fill="#181818" points="79,166.4688,69,170.4688,79,174.4688,75,170.4688" style="stroke:#181818;stroke-width:1.0;"/><line style="stroke:#181818;stroke-width:1.0;stroke-dasharray:2.0,2.0;" x1="73" x2="498" y1="170.4688" y2="170.4688"/><text fill="#000000" font-family="sans-serif" font-size="20" font-weight="bold" lengthAdjust="spacing" textLength="11" x="85" y="164.0742">2</text><text fill="#000000" font-family="sans-serif" font-size="20" lengthAdjust="spacing" textLength="301" x="100" y="164.0742">prompts for the shared folder path</text><polygon fill="#181818" points="482,205.625,492,209.625,482,213.625,486,209.625" style="stroke:#181818;stroke-width:1.0;"/><line style="stroke:#181818;stroke-width:1.0;" x1="68" x2="488" y1="209.625" y2="209.625"/><text fill="#000000" font-family="sans-serif" font-size="20" font-weight="bold" lengthAdjust="spacing" textLength="11" x="75" y="203.2305">3</text><text fill="#000000" font-family="sans-serif" font-size="20" lengthAdjust="spacing" textLength="229" x="90" y="203.2305">inserts the requested path</text><polygon fill="#181818" points="79,244.7813,69,248.7813,79,252.7813,75,248.7813" style="stroke:#181818;stroke-width:1.0;"/><line style="stroke:#181818;stroke-width:1.0;stroke-dasharray:2.0,2.0;" x1="73" x2="498" y1="248.7813" y2="248.7813"/><text fill="#000000" font-family="sans-serif" font-size="20" font-weight="bold" lengthAdjust="spacing" textLength="11" x="85" y="242.3867">4</text><text fill="#000000" font-family="sans-serif" font-size="20" lengthAdjust="spacing" textLength="387" x="100" y="242.3867">asks to select the desired candidate's folder</text><polygon fill="#181818" points="482,283.9375,492,287.9375,482,291.9375,486,287.9375" style="stroke:#181818;stroke-width:1.0;"/><line style="stroke:#181818;stroke-width:1.0;" x1="68" x2="488" y1="287.9375" y2="287.9375"/><text fill="#000000" font-family="sans-serif" font-size="20" font-weight="bold" lengthAdjust="spacing" textLength="11" x="75" y="281.543">5</text><text fill="#000000" font-family="sans-serif" font-size="20" lengthAdjust="spacing" textLength="151" x="90" y="281.543">selects the folder</text><path d="M10,302.9375 L78,302.9375 L78,320.0938 L68,330.0938 L10,330.0938 L10,302.9375 " fill="#EEEEEE" style="stroke:#000000;stroke-width:1.5;"/><rect fill="none" height="142.7813" style="stroke:#000000;stroke-width:1.5;" width="542" x="10" y="302.9375"/><text fill="#000000" font-family="sans-serif" font-size="20" font-weight="bold" lengthAdjust="spacing" textLength="23" x="25" y="324.6992">alt</text><text fill="#000000" font-family="sans-serif" font-size="20" font-weight="bold" lengthAdjust="spacing" textLength="256" x="93" y="325.6992">[Candidate Not Registered]</text><polygon fill="#181818" points="79,367.4063,69,371.4063,79,375.4063,75,371.4063" style="stroke:#181818;stroke-width:1.0;"/><line style="stroke:#181818;stroke-width:1.0;stroke-dasharray:2.0,2.0;" x1="73" x2="498" y1="371.4063" y2="371.4063"/><text fill="#000000" font-family="sans-serif" font-size="20" font-weight="bold" lengthAdjust="spacing" textLength="11" x="85" y="365.0117">6</text><text fill="#000000" font-family="sans-serif" font-size="20" lengthAdjust="spacing" textLength="306" x="100" y="365.0117">imports candidate details from files</text><line style="stroke:#000000;stroke-width:1.0;stroke-dasharray:2.0,2.0;" x1="10" x2="552" y1="380.4063" y2="380.4063"/><text fill="#000000" font-family="sans-serif" font-size="20" font-weight="bold" lengthAdjust="spacing" textLength="294" x="15" y="401.168">[Candidate Already Registered]</text><polygon fill="#181818" points="79,433.7188,69,437.7188,79,441.7188,75,437.7188" style="stroke:#181818;stroke-width:1.0;"/><line style="stroke:#181818;stroke-width:1.0;stroke-dasharray:2.0,2.0;" x1="73" x2="493" y1="437.7188" y2="437.7188"/><text fill="#000000" font-family="sans-serif" font-size="20" font-weight="bold" lengthAdjust="spacing" textLength="11" x="85" y="431.3242">7</text><text fill="#000000" font-family="sans-serif" font-size="20" lengthAdjust="spacing" textLength="271" x="100" y="431.3242">candidate is already registered</text><polygon fill="#181818" points="79,479.875,69,483.875,79,487.875,75,483.875" style="stroke:#181818;stroke-width:1.0;"/><line style="stroke:#181818;stroke-width:1.0;stroke-dasharray:2.0,2.0;" x1="73" x2="493" y1="483.875" y2="483.875"/><text fill="#000000" font-family="sans-serif" font-size="20" font-weight="bold" lengthAdjust="spacing" textLength="11" x="85" y="477.4805">8</text><text fill="#000000" font-family="sans-serif" font-size="20" lengthAdjust="spacing" textLength="176" x="100" y="477.4805">registers application</text><polygon fill="#181818" points="74,519.0313,64,523.0313,74,527.0313,70,523.0313" style="stroke:#181818;stroke-width:1.0;"/><line style="stroke:#181818;stroke-width:1.0;stroke-dasharray:2.0,2.0;" x1="68" x2="498" y1="523.0313" y2="523.0313"/><text fill="#000000" font-family="sans-serif" font-size="20" font-weight="bold" lengthAdjust="spacing" textLength="11" x="80" y="516.6367">9</text><text fill="#000000" font-family="sans-serif" font-size="20" lengthAdjust="spacing" textLength="299" x="95" y="516.6367">application registered successfully</text><!--SRC=[bPFBQiCm44Nt-eh1cwu2fKil2gNGPGlD5qobSICYIufcN4Y_lcF7iHsm2_5Ahpdtw64- -fYnO1kIFP83HmrsGTvIbBt_9NXwD0OxIR5hlwXesqegy96fODz0XkhQgOPP_uD2qm9ZfgMxPwZg_Pc5sWfgA7JgY8L1ahQ_lOuhBkVWBOfFSMPDLSRCW9tY9dGDkQGsAwpHdXm8-815TzEau1IRKGx6qHfnIyz7fjBRAMnKLTu0kaiC-JXiaIcGbG7dY7qlPp4wxnJqmAFedOuNviLn1AoLOn1ulMR1UnBu7C-Rd36WtwQzRtFgJs5ILNb17rHO3nmQ7uW7mgeu1QP5yaieXEwyJFytV0xr33WMbzlYjTJeDkzZU7SN0DyyjktxcnSjie4xQucvwK8uc_LhMmnEVyCV]--></g></svg>