<?xml version="1.0" encoding="UTF-8" standalone="no"?><svg xmlns="http://www.w3.org/2000/svg" xmlns:xlink="http://www.w3.org/1999/xlink" contentStyleType="text/css" height="882px" preserveAspectRatio="none" style="width:2520px;height:882px;background:#FFFFFF;" version="1.1" viewBox="0 0 2520 882" width="2520px" zoomAndPan="magnify"><defs/><g><!--class Application--><g id="elem_Application"><rect codeLine="2" fill="#F1F1F1" height="453.6563" id="Application" rx="2.5" ry="2.5" style="stroke:#181818;stroke-width:0.5;" width="900" x="317.5" y="145"/><ellipse cx="715.5" cy="162.5781" fill="#ADD1B2" rx="12" ry="12" style="stroke:#181818;stroke-width:1.0;"/><path d="M717.6406,157.5 Q717.8281,157.25 718.0469,157.125 Q718.2656,156.9844 718.5156,156.9844 Q718.9531,156.9844 719.2344,157.2969 Q719.5156,157.5938 719.5156,158.3125 L719.5156,160.0156 Q719.5156,160.7344 719.2344,161.0469 Q718.9531,161.3594 718.5156,161.3594 Q718.125,161.3594 717.875,161.125 Q717.625,160.9063 717.5156,160.2969 Q717.4531,159.875 717.2344,159.6563 Q716.8438,159.2188 716.125,158.9531 Q715.4063,158.6875 714.6875,158.6875 Q713.7813,158.6875 713.0313,159.0781 Q712.2813,159.4688 711.7031,160.3594 Q711.125,161.2344 711.125,162.4375 L711.125,163.7344 Q711.125,165.1875 712.1719,166.1563 Q713.2344,167.125 715.0938,167.125 Q716.2031,167.125 716.9844,166.8125 Q717.4219,166.6406 717.9375,166.125 Q718.25,165.8125 718.4219,165.7188 Q718.5938,165.625 718.8281,165.625 Q719.2188,165.625 719.5156,165.9375 Q719.8281,166.2344 719.8281,166.6406 Q719.8281,167.0469 719.4219,167.5156 Q718.8281,168.2031 717.8906,168.5938 Q716.625,169.125 715.1094,169.125 Q713.3281,169.125 711.9063,168.3906 Q710.75,167.7969 709.9375,166.5313 Q709.125,165.2656 709.125,163.7813 L709.125,162.4219 Q709.125,160.8594 709.8438,159.5156 Q710.5781,158.1563 711.8594,157.4219 Q713.1563,156.6875 714.6094,156.6875 Q715.4688,156.6875 716.2188,156.8906 Q716.9844,157.0938 717.6406,157.5 Z " fill="#000000"/><text fill="#000000" font-family="sans-serif" font-size="20" lengthAdjust="spacing" textLength="95" x="737.5" y="170.7617">Application</text><line style="stroke:#181818;stroke-width:0.5;" x1="318.5" x2="1216.5" y1="180.1563" y2="180.1563"/><rect fill="none" height="6" style="stroke:#C82930;stroke-width:1.0;" width="6" x="325.5" y="195.2344"/><text fill="#000000" font-family="sans-serif" font-size="20" lengthAdjust="spacing" textLength="376" x="338.5" y="204.918">ApplicationReference applicationReference</text><rect fill="none" height="6" style="stroke:#C82930;stroke-width:1.0;" width="6" x="325.5" y="220.3906"/><text fill="#000000" font-family="sans-serif" font-size="20" lengthAdjust="spacing" textLength="181" x="338.5" y="230.0742">Reference reference</text><rect fill="none" height="6" style="stroke:#C82930;stroke-width:1.0;" width="6" x="325.5" y="245.5469"/><text fill="#000000" font-family="sans-serif" font-size="20" lengthAdjust="spacing" textLength="173" x="338.5" y="255.2305">EmailAddress email</text><rect fill="none" height="6" style="stroke:#C82930;stroke-width:1.0;" width="6" x="325.5" y="270.7031"/><text fill="#000000" font-family="sans-serif" font-size="20" lengthAdjust="spacing" textLength="182" x="338.5" y="280.3867">ApplicationDate date</text><rect fill="none" height="6" style="stroke:#C82930;stroke-width:1.0;" width="6" x="325.5" y="295.8594"/><text fill="#000000" font-family="sans-serif" font-size="20" lengthAdjust="spacing" textLength="130" x="338.5" y="305.543">STATUS result</text><rect fill="none" height="6" style="stroke:#C82930;stroke-width:1.0;" width="6" x="325.5" y="321.0156"/><text fill="#000000" font-family="sans-serif" font-size="20" lengthAdjust="spacing" textLength="260" x="338.5" y="330.6992">InterviewValue interviewValue</text><rect fill="none" height="6" style="stroke:#C82930;stroke-width:1.0;" width="6" x="325.5" y="346.1719"/><text fill="#000000" font-family="sans-serif" font-size="20" lengthAdjust="spacing" textLength="321" x="338.5" y="355.8555">List&lt;ApplicationFile&gt; applicationFiles</text><line style="stroke:#181818;stroke-width:0.5;" x1="318.5" x2="1216.5" y1="364.25" y2="364.25"/><ellipse cx="328.5" cy="382.3281" fill="#84BE84" rx="3" ry="3" style="stroke:#038048;stroke-width:1.0;"/><text fill="#000000" font-family="sans-serif" font-size="20" lengthAdjust="spacing" textLength="873" x="338.5" y="389.0117">Application(ApplicationReference, Reference, EmailAddress, ApplicationDate, List&lt;ApplicationFile&gt;)</text><ellipse cx="328.5" cy="407.4844" fill="#84BE84" rx="3" ry="3" style="stroke:#038048;stroke-width:1.0;"/><text fill="#000000" font-family="sans-serif" font-size="20" lengthAdjust="spacing" textLength="301" x="338.5" y="414.168">addInterview(InterviewValue): void</text><ellipse cx="328.5" cy="432.6406" fill="#84BE84" rx="3" ry="3" style="stroke:#038048;stroke-width:1.0;"/><text fill="#000000" font-family="sans-serif" font-size="20" lengthAdjust="spacing" textLength="274" x="338.5" y="439.3242">identity(): ApplicationReference</text><ellipse cx="328.5" cy="457.7969" fill="#84BE84" rx="3" ry="3" style="stroke:#038048;stroke-width:1.0;"/><text fill="#000000" font-family="sans-serif" font-size="20" lengthAdjust="spacing" textLength="193" x="338.5" y="464.4805">email(): EmailAddress</text><ellipse cx="328.5" cy="482.9531" fill="#84BE84" rx="3" ry="3" style="stroke:#038048;stroke-width:1.0;"/><text fill="#000000" font-family="sans-serif" font-size="20" lengthAdjust="spacing" textLength="201" x="338.5" y="489.6367">reference(): Reference</text><ellipse cx="328.5" cy="508.1094" fill="#84BE84" rx="3" ry="3" style="stroke:#038048;stroke-width:1.0;"/><text fill="#000000" font-family="sans-serif" font-size="20" lengthAdjust="spacing" textLength="242" x="338.5" y="514.793">files(): List&lt;ApplicationFile&gt;</text><ellipse cx="328.5" cy="533.2656" fill="#84BE84" rx="3" ry="3" style="stroke:#038048;stroke-width:1.0;"/><text fill="#000000" font-family="sans-serif" font-size="20" lengthAdjust="spacing" textLength="210" x="338.5" y="539.9492">equals(Object): boolean</text><ellipse cx="328.5" cy="558.4219" fill="#84BE84" rx="3" ry="3" style="stroke:#038048;stroke-width:1.0;"/><text fill="#000000" font-family="sans-serif" font-size="20" lengthAdjust="spacing" textLength="134" x="338.5" y="565.1055">hashCode(): int</text><ellipse cx="328.5" cy="583.5781" fill="#84BE84" rx="3" ry="3" style="stroke:#038048;stroke-width:1.0;"/><text fill="#000000" font-family="sans-serif" font-size="20" lengthAdjust="spacing" textLength="224" x="338.5" y="590.2617">sameAs(Object): boolean</text></g><!--class ApplicationBuilder--><g id="elem_ApplicationBuilder"><rect fill="#F1F1F1" height="51.1563" id="ApplicationBuilder" rx="2.5" ry="2.5" style="stroke:#181818;stroke-width:0.5;" width="189" x="7" y="686"/><ellipse cx="23" cy="703.5781" fill="#ADD1B2" rx="12" ry="12" style="stroke:#181818;stroke-width:1.0;"/><path d="M25.1406,698.5 Q25.3281,698.25 25.5469,698.125 Q25.7656,697.9844 26.0156,697.9844 Q26.4531,697.9844 26.7344,698.2969 Q27.0156,698.5938 27.0156,699.3125 L27.0156,701.0156 Q27.0156,701.7344 26.7344,702.0469 Q26.4531,702.3594 26.0156,702.3594 Q25.625,702.3594 25.375,702.125 Q25.125,701.9063 25.0156,701.2969 Q24.9531,700.875 24.7344,700.6563 Q24.3438,700.2188 23.625,699.9531 Q22.9063,699.6875 22.1875,699.6875 Q21.2813,699.6875 20.5313,700.0781 Q19.7813,700.4688 19.2031,701.3594 Q18.625,702.2344 18.625,703.4375 L18.625,704.7344 Q18.625,706.1875 19.6719,707.1563 Q20.7344,708.125 22.5938,708.125 Q23.7031,708.125 24.4844,707.8125 Q24.9219,707.6406 25.4375,707.125 Q25.75,706.8125 25.9219,706.7188 Q26.0938,706.625 26.3281,706.625 Q26.7188,706.625 27.0156,706.9375 Q27.3281,707.2344 27.3281,707.6406 Q27.3281,708.0469 26.9219,708.5156 Q26.3281,709.2031 25.3906,709.5938 Q24.125,710.125 22.6094,710.125 Q20.8281,710.125 19.4063,709.3906 Q18.25,708.7969 17.4375,707.5313 Q16.625,706.2656 16.625,704.7813 L16.625,703.4219 Q16.625,701.8594 17.3438,700.5156 Q18.0781,699.1563 19.3594,698.4219 Q20.6563,697.6875 22.1094,697.6875 Q22.9688,697.6875 23.7188,697.8906 Q24.4844,698.0938 25.1406,698.5 Z " fill="#000000"/><text fill="#000000" font-family="sans-serif" font-size="20" lengthAdjust="spacing" textLength="155" x="38" y="711.7617">ApplicationBuilder</text><line style="stroke:#181818;stroke-width:0.5;" x1="8" x2="195" y1="721.1563" y2="721.1563"/><line style="stroke:#181818;stroke-width:0.5;" x1="8" x2="195" y1="729.1563" y2="729.1563"/></g><!--class ApplicationFile--><g id="elem_ApplicationFile"><rect fill="#F1F1F1" height="51.1563" id="ApplicationFile" rx="2.5" ry="2.5" style="stroke:#181818;stroke-width:0.5;" width="160" x="231.5" y="686"/><ellipse cx="247.5" cy="703.5781" fill="#ADD1B2" rx="12" ry="12" style="stroke:#181818;stroke-width:1.0;"/><path d="M249.6406,698.5 Q249.8281,698.25 250.0469,698.125 Q250.2656,697.9844 250.5156,697.9844 Q250.9531,697.9844 251.2344,698.2969 Q251.5156,698.5938 251.5156,699.3125 L251.5156,701.0156 Q251.5156,701.7344 251.2344,702.0469 Q250.9531,702.3594 250.5156,702.3594 Q250.125,702.3594 249.875,702.125 Q249.625,701.9063 249.5156,701.2969 Q249.4531,700.875 249.2344,700.6563 Q248.8438,700.2188 248.125,699.9531 Q247.4063,699.6875 246.6875,699.6875 Q245.7813,699.6875 245.0313,700.0781 Q244.2813,700.4688 243.7031,701.3594 Q243.125,702.2344 243.125,703.4375 L243.125,704.7344 Q243.125,706.1875 244.1719,707.1563 Q245.2344,708.125 247.0938,708.125 Q248.2031,708.125 248.9844,707.8125 Q249.4219,707.6406 249.9375,707.125 Q250.25,706.8125 250.4219,706.7188 Q250.5938,706.625 250.8281,706.625 Q251.2188,706.625 251.5156,706.9375 Q251.8281,707.2344 251.8281,707.6406 Q251.8281,708.0469 251.4219,708.5156 Q250.8281,709.2031 249.8906,709.5938 Q248.625,710.125 247.1094,710.125 Q245.3281,710.125 243.9063,709.3906 Q242.75,708.7969 241.9375,707.5313 Q241.125,706.2656 241.125,704.7813 L241.125,703.4219 Q241.125,701.8594 241.8438,700.5156 Q242.5781,699.1563 243.8594,698.4219 Q245.1563,697.6875 246.6094,697.6875 Q247.4688,697.6875 248.2188,697.8906 Q248.9844,698.0938 249.6406,698.5 Z " fill="#000000"/><text fill="#000000" font-family="sans-serif" font-size="20" lengthAdjust="spacing" textLength="126" x="262.5" y="711.7617">ApplicationFile</text><line style="stroke:#181818;stroke-width:0.5;" x1="232.5" x2="390.5" y1="721.1563" y2="721.1563"/><line style="stroke:#181818;stroke-width:0.5;" x1="232.5" x2="390.5" y1="729.1563" y2="729.1563"/></g><!--class ApplicationReference--><g id="elem_ApplicationReference"><rect fill="#F1F1F1" height="51.1563" id="ApplicationReference" rx="2.5" ry="2.5" style="stroke:#181818;stroke-width:0.5;" width="220" x="426.5" y="686"/><ellipse cx="442.5" cy="703.5781" fill="#ADD1B2" rx="12" ry="12" style="stroke:#181818;stroke-width:1.0;"/><path d="M444.6406,698.5 Q444.8281,698.25 445.0469,698.125 Q445.2656,697.9844 445.5156,697.9844 Q445.9531,697.9844 446.2344,698.2969 Q446.5156,698.5938 446.5156,699.3125 L446.5156,701.0156 Q446.5156,701.7344 446.2344,702.0469 Q445.9531,702.3594 445.5156,702.3594 Q445.125,702.3594 444.875,702.125 Q444.625,701.9063 444.5156,701.2969 Q444.4531,700.875 444.2344,700.6563 Q443.8438,700.2188 443.125,699.9531 Q442.4063,699.6875 441.6875,699.6875 Q440.7813,699.6875 440.0313,700.0781 Q439.2813,700.4688 438.7031,701.3594 Q438.125,702.2344 438.125,703.4375 L438.125,704.7344 Q438.125,706.1875 439.1719,707.1563 Q440.2344,708.125 442.0938,708.125 Q443.2031,708.125 443.9844,707.8125 Q444.4219,707.6406 444.9375,707.125 Q445.25,706.8125 445.4219,706.7188 Q445.5938,706.625 445.8281,706.625 Q446.2188,706.625 446.5156,706.9375 Q446.8281,707.2344 446.8281,707.6406 Q446.8281,708.0469 446.4219,708.5156 Q445.8281,709.2031 444.8906,709.5938 Q443.625,710.125 442.1094,710.125 Q440.3281,710.125 438.9063,709.3906 Q437.75,708.7969 436.9375,707.5313 Q436.125,706.2656 436.125,704.7813 L436.125,703.4219 Q436.125,701.8594 436.8438,700.5156 Q437.5781,699.1563 438.8594,698.4219 Q440.1563,697.6875 441.6094,697.6875 Q442.4688,697.6875 443.2188,697.8906 Q443.9844,698.0938 444.6406,698.5 Z " fill="#000000"/><text fill="#000000" font-family="sans-serif" font-size="20" lengthAdjust="spacing" textLength="186" x="457.5" y="711.7617">ApplicationReference</text><line style="stroke:#181818;stroke-width:0.5;" x1="427.5" x2="645.5" y1="721.1563" y2="721.1563"/><line style="stroke:#181818;stroke-width:0.5;" x1="427.5" x2="645.5" y1="729.1563" y2="729.1563"/></g><!--class ApplicationDate--><g id="elem_ApplicationDate"><rect fill="#F1F1F1" height="51.1563" id="ApplicationDate" rx="2.5" ry="2.5" style="stroke:#181818;stroke-width:0.5;" width="171" x="682" y="686"/><ellipse cx="698" cy="703.5781" fill="#ADD1B2" rx="12" ry="12" style="stroke:#181818;stroke-width:1.0;"/><path d="M700.1406,698.5 Q700.3281,698.25 700.5469,698.125 Q700.7656,697.9844 701.0156,697.9844 Q701.4531,697.9844 701.7344,698.2969 Q702.0156,698.5938 702.0156,699.3125 L702.0156,701.0156 Q702.0156,701.7344 701.7344,702.0469 Q701.4531,702.3594 701.0156,702.3594 Q700.625,702.3594 700.375,702.125 Q700.125,701.9063 700.0156,701.2969 Q699.9531,700.875 699.7344,700.6563 Q699.3438,700.2188 698.625,699.9531 Q697.9063,699.6875 697.1875,699.6875 Q696.2813,699.6875 695.5313,700.0781 Q694.7813,700.4688 694.2031,701.3594 Q693.625,702.2344 693.625,703.4375 L693.625,704.7344 Q693.625,706.1875 694.6719,707.1563 Q695.7344,708.125 697.5938,708.125 Q698.7031,708.125 699.4844,707.8125 Q699.9219,707.6406 700.4375,707.125 Q700.75,706.8125 700.9219,706.7188 Q701.0938,706.625 701.3281,706.625 Q701.7188,706.625 702.0156,706.9375 Q702.3281,707.2344 702.3281,707.6406 Q702.3281,708.0469 701.9219,708.5156 Q701.3281,709.2031 700.3906,709.5938 Q699.125,710.125 697.6094,710.125 Q695.8281,710.125 694.4063,709.3906 Q693.25,708.7969 692.4375,707.5313 Q691.625,706.2656 691.625,704.7813 L691.625,703.4219 Q691.625,701.8594 692.3438,700.5156 Q693.0781,699.1563 694.3594,698.4219 Q695.6563,697.6875 697.1094,697.6875 Q697.9688,697.6875 698.7188,697.8906 Q699.4844,698.0938 700.1406,698.5 Z " fill="#000000"/><text fill="#000000" font-family="sans-serif" font-size="20" lengthAdjust="spacing" textLength="137" x="713" y="711.7617">ApplicationDate</text><line style="stroke:#181818;stroke-width:0.5;" x1="683" x2="852" y1="721.1563" y2="721.1563"/><line style="stroke:#181818;stroke-width:0.5;" x1="683" x2="852" y1="729.1563" y2="729.1563"/></g><!--class InterviewValue--><g id="elem_InterviewValue"><rect fill="#F1F1F1" height="51.1563" id="InterviewValue" rx="2.5" ry="2.5" style="stroke:#181818;stroke-width:0.5;" width="162" x="888.5" y="686"/><ellipse cx="904.5" cy="703.5781" fill="#ADD1B2" rx="12" ry="12" style="stroke:#181818;stroke-width:1.0;"/><path d="M906.6406,698.5 Q906.8281,698.25 907.0469,698.125 Q907.2656,697.9844 907.5156,697.9844 Q907.9531,697.9844 908.2344,698.2969 Q908.5156,698.5938 908.5156,699.3125 L908.5156,701.0156 Q908.5156,701.7344 908.2344,702.0469 Q907.9531,702.3594 907.5156,702.3594 Q907.125,702.3594 906.875,702.125 Q906.625,701.9063 906.5156,701.2969 Q906.4531,700.875 906.2344,700.6563 Q905.8438,700.2188 905.125,699.9531 Q904.4063,699.6875 903.6875,699.6875 Q902.7813,699.6875 902.0313,700.0781 Q901.2813,700.4688 900.7031,701.3594 Q900.125,702.2344 900.125,703.4375 L900.125,704.7344 Q900.125,706.1875 901.1719,707.1563 Q902.2344,708.125 904.0938,708.125 Q905.2031,708.125 905.9844,707.8125 Q906.4219,707.6406 906.9375,707.125 Q907.25,706.8125 907.4219,706.7188 Q907.5938,706.625 907.8281,706.625 Q908.2188,706.625 908.5156,706.9375 Q908.8281,707.2344 908.8281,707.6406 Q908.8281,708.0469 908.4219,708.5156 Q907.8281,709.2031 906.8906,709.5938 Q905.625,710.125 904.1094,710.125 Q902.3281,710.125 900.9063,709.3906 Q899.75,708.7969 898.9375,707.5313 Q898.125,706.2656 898.125,704.7813 L898.125,703.4219 Q898.125,701.8594 898.8438,700.5156 Q899.5781,699.1563 900.8594,698.4219 Q902.1563,697.6875 903.6094,697.6875 Q904.4688,697.6875 905.2188,697.8906 Q905.9844,698.0938 906.6406,698.5 Z " fill="#000000"/><text fill="#000000" font-family="sans-serif" font-size="20" lengthAdjust="spacing" textLength="128" x="919.5" y="711.7617">InterviewValue</text><line style="stroke:#181818;stroke-width:0.5;" x1="889.5" x2="1049.5" y1="721.1563" y2="721.1563"/><line style="stroke:#181818;stroke-width:0.5;" x1="889.5" x2="1049.5" y1="729.1563" y2="729.1563"/></g><!--class STATUS--><g id="elem_STATUS"><rect fill="#F1F1F1" height="51.1563" id="STATUS" rx="2.5" ry="2.5" style="stroke:#181818;stroke-width:0.5;" width="110" x="1085.5" y="686"/><ellipse cx="1101.5" cy="703.5781" fill="#ADD1B2" rx="12" ry="12" style="stroke:#181818;stroke-width:1.0;"/><path d="M1103.6406,698.5 Q1103.8281,698.25 1104.0469,698.125 Q1104.2656,697.9844 1104.5156,697.9844 Q1104.9531,697.9844 1105.2344,698.2969 Q1105.5156,698.5938 1105.5156,699.3125 L1105.5156,701.0156 Q1105.5156,701.7344 1105.2344,702.0469 Q1104.9531,702.3594 1104.5156,702.3594 Q1104.125,702.3594 1103.875,702.125 Q1103.625,701.9063 1103.5156,701.2969 Q1103.4531,700.875 1103.2344,700.6563 Q1102.8438,700.2188 1102.125,699.9531 Q1101.4063,699.6875 1100.6875,699.6875 Q1099.7813,699.6875 1099.0313,700.0781 Q1098.2813,700.4688 1097.7031,701.3594 Q1097.125,702.2344 1097.125,703.4375 L1097.125,704.7344 Q1097.125,706.1875 1098.1719,707.1563 Q1099.2344,708.125 1101.0938,708.125 Q1102.2031,708.125 1102.9844,707.8125 Q1103.4219,707.6406 1103.9375,707.125 Q1104.25,706.8125 1104.4219,706.7188 Q1104.5938,706.625 1104.8281,706.625 Q1105.2188,706.625 1105.5156,706.9375 Q1105.8281,707.2344 1105.8281,707.6406 Q1105.8281,708.0469 1105.4219,708.5156 Q1104.8281,709.2031 1103.8906,709.5938 Q1102.625,710.125 1101.1094,710.125 Q1099.3281,710.125 1097.9063,709.3906 Q1096.75,708.7969 1095.9375,707.5313 Q1095.125,706.2656 1095.125,704.7813 L1095.125,703.4219 Q1095.125,701.8594 1095.8438,700.5156 Q1096.5781,699.1563 1097.8594,698.4219 Q1099.1563,697.6875 1100.6094,697.6875 Q1101.4688,697.6875 1102.2188,697.8906 Q1102.9844,698.0938 1103.6406,698.5 Z " fill="#000000"/><text fill="#000000" font-family="sans-serif" font-size="20" lengthAdjust="spacing" textLength="76" x="1116.5" y="711.7617">STATUS</text><line style="stroke:#181818;stroke-width:0.5;" x1="1086.5" x2="1194.5" y1="721.1563" y2="721.1563"/><line style="stroke:#181818;stroke-width:0.5;" x1="1086.5" x2="1194.5" y1="729.1563" y2="729.1563"/></g><!--class ApplicationRepository--><g id="elem_ApplicationRepository"><rect fill="#F1F1F1" height="51.1563" id="ApplicationRepository" rx="2.5" ry="2.5" style="stroke:#181818;stroke-width:0.5;" width="224" x="1230.5" y="686"/><ellipse cx="1246.5" cy="703.5781" fill="#ADD1B2" rx="12" ry="12" style="stroke:#181818;stroke-width:1.0;"/><path d="M1248.6406,698.5 Q1248.8281,698.25 1249.0469,698.125 Q1249.2656,697.9844 1249.5156,697.9844 Q1249.9531,697.9844 1250.2344,698.2969 Q1250.5156,698.5938 1250.5156,699.3125 L1250.5156,701.0156 Q1250.5156,701.7344 1250.2344,702.0469 Q1249.9531,702.3594 1249.5156,702.3594 Q1249.125,702.3594 1248.875,702.125 Q1248.625,701.9063 1248.5156,701.2969 Q1248.4531,700.875 1248.2344,700.6563 Q1247.8438,700.2188 1247.125,699.9531 Q1246.4063,699.6875 1245.6875,699.6875 Q1244.7813,699.6875 1244.0313,700.0781 Q1243.2813,700.4688 1242.7031,701.3594 Q1242.125,702.2344 1242.125,703.4375 L1242.125,704.7344 Q1242.125,706.1875 1243.1719,707.1563 Q1244.2344,708.125 1246.0938,708.125 Q1247.2031,708.125 1247.9844,707.8125 Q1248.4219,707.6406 1248.9375,707.125 Q1249.25,706.8125 1249.4219,706.7188 Q1249.5938,706.625 1249.8281,706.625 Q1250.2188,706.625 1250.5156,706.9375 Q1250.8281,707.2344 1250.8281,707.6406 Q1250.8281,708.0469 1250.4219,708.5156 Q1249.8281,709.2031 1248.8906,709.5938 Q1247.625,710.125 1246.1094,710.125 Q1244.3281,710.125 1242.9063,709.3906 Q1241.75,708.7969 1240.9375,707.5313 Q1240.125,706.2656 1240.125,704.7813 L1240.125,703.4219 Q1240.125,701.8594 1240.8438,700.5156 Q1241.5781,699.1563 1242.8594,698.4219 Q1244.1563,697.6875 1245.6094,697.6875 Q1246.4688,697.6875 1247.2188,697.8906 Q1247.9844,698.0938 1248.6406,698.5 Z " fill="#000000"/><text fill="#000000" font-family="sans-serif" font-size="20" lengthAdjust="spacing" textLength="190" x="1261.5" y="711.7617">ApplicationRepository</text><line style="stroke:#181818;stroke-width:0.5;" x1="1231.5" x2="1453.5" y1="721.1563" y2="721.1563"/><line style="stroke:#181818;stroke-width:0.5;" x1="1231.5" x2="1453.5" y1="729.1563" y2="729.1563"/></g><!--class ApplicationRegistrationController--><g id="elem_ApplicationRegistrationController"><rect fill="#F1F1F1" height="51.1563" id="ApplicationRegistrationController" rx="2.5" ry="2.5" style="stroke:#181818;stroke-width:0.5;" width="319" x="1526" y="346.5"/><ellipse cx="1542" cy="364.0781" fill="#ADD1B2" rx="12" ry="12" style="stroke:#181818;stroke-width:1.0;"/><path d="M1544.1406,359 Q1544.3281,358.75 1544.5469,358.625 Q1544.7656,358.4844 1545.0156,358.4844 Q1545.4531,358.4844 1545.7344,358.7969 Q1546.0156,359.0938 1546.0156,359.8125 L1546.0156,361.5156 Q1546.0156,362.2344 1545.7344,362.5469 Q1545.4531,362.8594 1545.0156,362.8594 Q1544.625,362.8594 1544.375,362.625 Q1544.125,362.4063 1544.0156,361.7969 Q1543.9531,361.375 1543.7344,361.1563 Q1543.3438,360.7188 1542.625,360.4531 Q1541.9063,360.1875 1541.1875,360.1875 Q1540.2813,360.1875 1539.5313,360.5781 Q1538.7813,360.9688 1538.2031,361.8594 Q1537.625,362.7344 1537.625,363.9375 L1537.625,365.2344 Q1537.625,366.6875 1538.6719,367.6563 Q1539.7344,368.625 1541.5938,368.625 Q1542.7031,368.625 1543.4844,368.3125 Q1543.9219,368.1406 1544.4375,367.625 Q1544.75,367.3125 1544.9219,367.2188 Q1545.0938,367.125 1545.3281,367.125 Q1545.7188,367.125 1546.0156,367.4375 Q1546.3281,367.7344 1546.3281,368.1406 Q1546.3281,368.5469 1545.9219,369.0156 Q1545.3281,369.7031 1544.3906,370.0938 Q1543.125,370.625 1541.6094,370.625 Q1539.8281,370.625 1538.4063,369.8906 Q1537.25,369.2969 1536.4375,368.0313 Q1535.625,366.7656 1535.625,365.2813 L1535.625,363.9219 Q1535.625,362.3594 1536.3438,361.0156 Q1537.0781,359.6563 1538.3594,358.9219 Q1539.6563,358.1875 1541.1094,358.1875 Q1541.9688,358.1875 1542.7188,358.3906 Q1543.4844,358.5938 1544.1406,359 Z " fill="#000000"/><text fill="#000000" font-family="sans-serif" font-size="20" lengthAdjust="spacing" textLength="285" x="1557" y="372.2617">ApplicationRegistrationController</text><line style="stroke:#181818;stroke-width:0.5;" x1="1527" x2="1844" y1="381.6563" y2="381.6563"/><line style="stroke:#181818;stroke-width:0.5;" x1="1527" x2="1844" y1="389.6563" y2="389.6563"/></g><!--class FileManagerService--><g id="elem_FileManagerService"><rect fill="#F1F1F1" height="51.1563" id="FileManagerService" rx="2.5" ry="2.5" style="stroke:#181818;stroke-width:0.5;" width="208" x="1489.5" y="686"/><ellipse cx="1505.5" cy="703.5781" fill="#ADD1B2" rx="12" ry="12" style="stroke:#181818;stroke-width:1.0;"/><path d="M1507.6406,698.5 Q1507.8281,698.25 1508.0469,698.125 Q1508.2656,697.9844 1508.5156,697.9844 Q1508.9531,697.9844 1509.2344,698.2969 Q1509.5156,698.5938 1509.5156,699.3125 L1509.5156,701.0156 Q1509.5156,701.7344 1509.2344,702.0469 Q1508.9531,702.3594 1508.5156,702.3594 Q1508.125,702.3594 1507.875,702.125 Q1507.625,701.9063 1507.5156,701.2969 Q1507.4531,700.875 1507.2344,700.6563 Q1506.8438,700.2188 1506.125,699.9531 Q1505.4063,699.6875 1504.6875,699.6875 Q1503.7813,699.6875 1503.0313,700.0781 Q1502.2813,700.4688 1501.7031,701.3594 Q1501.125,702.2344 1501.125,703.4375 L1501.125,704.7344 Q1501.125,706.1875 1502.1719,707.1563 Q1503.2344,708.125 1505.0938,708.125 Q1506.2031,708.125 1506.9844,707.8125 Q1507.4219,707.6406 1507.9375,707.125 Q1508.25,706.8125 1508.4219,706.7188 Q1508.5938,706.625 1508.8281,706.625 Q1509.2188,706.625 1509.5156,706.9375 Q1509.8281,707.2344 1509.8281,707.6406 Q1509.8281,708.0469 1509.4219,708.5156 Q1508.8281,709.2031 1507.8906,709.5938 Q1506.625,710.125 1505.1094,710.125 Q1503.3281,710.125 1501.9063,709.3906 Q1500.75,708.7969 1499.9375,707.5313 Q1499.125,706.2656 1499.125,704.7813 L1499.125,703.4219 Q1499.125,701.8594 1499.8438,700.5156 Q1500.5781,699.1563 1501.8594,698.4219 Q1503.1563,697.6875 1504.6094,697.6875 Q1505.4688,697.6875 1506.2188,697.8906 Q1506.9844,698.0938 1507.6406,698.5 Z " fill="#000000"/><text fill="#000000" font-family="sans-serif" font-size="20" lengthAdjust="spacing" textLength="174" x="1520.5" y="711.7617">FileManagerService</text><line style="stroke:#181818;stroke-width:0.5;" x1="1490.5" x2="1696.5" y1="721.1563" y2="721.1563"/><line style="stroke:#181818;stroke-width:0.5;" x1="1490.5" x2="1696.5" y1="729.1563" y2="729.1563"/></g><!--class CandidateRegistrationService--><g id="elem_CandidateRegistrationService"><rect fill="#F1F1F1" height="51.1563" id="CandidateRegistrationService" rx="2.5" ry="2.5" style="stroke:#181818;stroke-width:0.5;" width="293" x="1733" y="686"/><ellipse cx="1749" cy="703.5781" fill="#ADD1B2" rx="12" ry="12" style="stroke:#181818;stroke-width:1.0;"/><path d="M1751.1406,698.5 Q1751.3281,698.25 1751.5469,698.125 Q1751.7656,697.9844 1752.0156,697.9844 Q1752.4531,697.9844 1752.7344,698.2969 Q1753.0156,698.5938 1753.0156,699.3125 L1753.0156,701.0156 Q1753.0156,701.7344 1752.7344,702.0469 Q1752.4531,702.3594 1752.0156,702.3594 Q1751.625,702.3594 1751.375,702.125 Q1751.125,701.9063 1751.0156,701.2969 Q1750.9531,700.875 1750.7344,700.6563 Q1750.3438,700.2188 1749.625,699.9531 Q1748.9063,699.6875 1748.1875,699.6875 Q1747.2813,699.6875 1746.5313,700.0781 Q1745.7813,700.4688 1745.2031,701.3594 Q1744.625,702.2344 1744.625,703.4375 L1744.625,704.7344 Q1744.625,706.1875 1745.6719,707.1563 Q1746.7344,708.125 1748.5938,708.125 Q1749.7031,708.125 1750.4844,707.8125 Q1750.9219,707.6406 1751.4375,707.125 Q1751.75,706.8125 1751.9219,706.7188 Q1752.0938,706.625 1752.3281,706.625 Q1752.7188,706.625 1753.0156,706.9375 Q1753.3281,707.2344 1753.3281,707.6406 Q1753.3281,708.0469 1752.9219,708.5156 Q1752.3281,709.2031 1751.3906,709.5938 Q1750.125,710.125 1748.6094,710.125 Q1746.8281,710.125 1745.4063,709.3906 Q1744.25,708.7969 1743.4375,707.5313 Q1742.625,706.2656 1742.625,704.7813 L1742.625,703.4219 Q1742.625,701.8594 1743.3438,700.5156 Q1744.0781,699.1563 1745.3594,698.4219 Q1746.6563,697.6875 1748.1094,697.6875 Q1748.9688,697.6875 1749.7188,697.8906 Q1750.4844,698.0938 1751.1406,698.5 Z " fill="#000000"/><text fill="#000000" font-family="sans-serif" font-size="20" lengthAdjust="spacing" textLength="259" x="1764" y="711.7617">CandidateRegistrationService</text><line style="stroke:#181818;stroke-width:0.5;" x1="1734" x2="2025" y1="721.1563" y2="721.1563"/><line style="stroke:#181818;stroke-width:0.5;" x1="1734" x2="2025" y1="729.1563" y2="729.1563"/></g><!--class JobOfferManagementService--><g id="elem_JobOfferManagementService"><rect fill="#F1F1F1" height="51.1563" id="JobOfferManagementService" rx="2.5" ry="2.5" style="stroke:#181818;stroke-width:0.5;" width="291" x="2163" y="686"/><ellipse cx="2179" cy="703.5781" fill="#ADD1B2" rx="12" ry="12" style="stroke:#181818;stroke-width:1.0;"/><path d="M2181.1406,698.5 Q2181.3281,698.25 2181.5469,698.125 Q2181.7656,697.9844 2182.0156,697.9844 Q2182.4531,697.9844 2182.7344,698.2969 Q2183.0156,698.5938 2183.0156,699.3125 L2183.0156,701.0156 Q2183.0156,701.7344 2182.7344,702.0469 Q2182.4531,702.3594 2182.0156,702.3594 Q2181.625,702.3594 2181.375,702.125 Q2181.125,701.9063 2181.0156,701.2969 Q2180.9531,700.875 2180.7344,700.6563 Q2180.3438,700.2188 2179.625,699.9531 Q2178.9063,699.6875 2178.1875,699.6875 Q2177.2813,699.6875 2176.5313,700.0781 Q2175.7813,700.4688 2175.2031,701.3594 Q2174.625,702.2344 2174.625,703.4375 L2174.625,704.7344 Q2174.625,706.1875 2175.6719,707.1563 Q2176.7344,708.125 2178.5938,708.125 Q2179.7031,708.125 2180.4844,707.8125 Q2180.9219,707.6406 2181.4375,707.125 Q2181.75,706.8125 2181.9219,706.7188 Q2182.0938,706.625 2182.3281,706.625 Q2182.7188,706.625 2183.0156,706.9375 Q2183.3281,707.2344 2183.3281,707.6406 Q2183.3281,708.0469 2182.9219,708.5156 Q2182.3281,709.2031 2181.3906,709.5938 Q2180.125,710.125 2178.6094,710.125 Q2176.8281,710.125 2175.4063,709.3906 Q2174.25,708.7969 2173.4375,707.5313 Q2172.625,706.2656 2172.625,704.7813 L2172.625,703.4219 Q2172.625,701.8594 2173.3438,700.5156 Q2174.0781,699.1563 2175.3594,698.4219 Q2176.6563,697.6875 2178.1094,697.6875 Q2178.9688,697.6875 2179.7188,697.8906 Q2180.4844,698.0938 2181.1406,698.5 Z " fill="#000000"/><text fill="#000000" font-family="sans-serif" font-size="20" lengthAdjust="spacing" textLength="257" x="2194" y="711.7617">JobOfferManagementService</text><line style="stroke:#181818;stroke-width:0.5;" x1="2164" x2="2453" y1="721.1563" y2="721.1563"/><line style="stroke:#181818;stroke-width:0.5;" x1="2164" x2="2453" y1="729.1563" y2="729.1563"/></g><!--class RegisterApplicationUI--><g id="elem_RegisterApplicationUI"><rect fill="#F1F1F1" height="51.1563" id="RegisterApplicationUI" rx="2.5" ry="2.5" style="stroke:#181818;stroke-width:0.5;" width="222" x="1574.5" y="7"/><ellipse cx="1590.5" cy="24.5781" fill="#ADD1B2" rx="12" ry="12" style="stroke:#181818;stroke-width:1.0;"/><path d="M1592.6406,19.5 Q1592.8281,19.25 1593.0469,19.125 Q1593.2656,18.9844 1593.5156,18.9844 Q1593.9531,18.9844 1594.2344,19.2969 Q1594.5156,19.5938 1594.5156,20.3125 L1594.5156,22.0156 Q1594.5156,22.7344 1594.2344,23.0469 Q1593.9531,23.3594 1593.5156,23.3594 Q1593.125,23.3594 1592.875,23.125 Q1592.625,22.9063 1592.5156,22.2969 Q1592.4531,21.875 1592.2344,21.6563 Q1591.8438,21.2188 1591.125,20.9531 Q1590.4063,20.6875 1589.6875,20.6875 Q1588.7813,20.6875 1588.0313,21.0781 Q1587.2813,21.4688 1586.7031,22.3594 Q1586.125,23.2344 1586.125,24.4375 L1586.125,25.7344 Q1586.125,27.1875 1587.1719,28.1563 Q1588.2344,29.125 1590.0938,29.125 Q1591.2031,29.125 1591.9844,28.8125 Q1592.4219,28.6406 1592.9375,28.125 Q1593.25,27.8125 1593.4219,27.7188 Q1593.5938,27.625 1593.8281,27.625 Q1594.2188,27.625 1594.5156,27.9375 Q1594.8281,28.2344 1594.8281,28.6406 Q1594.8281,29.0469 1594.4219,29.5156 Q1593.8281,30.2031 1592.8906,30.5938 Q1591.625,31.125 1590.1094,31.125 Q1588.3281,31.125 1586.9063,30.3906 Q1585.75,29.7969 1584.9375,28.5313 Q1584.125,27.2656 1584.125,25.7813 L1584.125,24.4219 Q1584.125,22.8594 1584.8438,21.5156 Q1585.5781,20.1563 1586.8594,19.4219 Q1588.1563,18.6875 1589.6094,18.6875 Q1590.4688,18.6875 1591.2188,18.8906 Q1591.9844,19.0938 1592.6406,19.5 Z " fill="#000000"/><text fill="#000000" font-family="sans-serif" font-size="20" lengthAdjust="spacing" textLength="188" x="1605.5" y="32.7617">RegisterApplicationUI</text><line style="stroke:#181818;stroke-width:0.5;" x1="1575.5" x2="1795.5" y1="42.1563" y2="42.1563"/><line style="stroke:#181818;stroke-width:0.5;" x1="1575.5" x2="1795.5" y1="50.1563" y2="50.1563"/></g><!--class CandidateRepository--><g id="elem_CandidateRepository"><rect fill="#F1F1F1" height="51.1563" id="CandidateRepository" rx="2.5" ry="2.5" style="stroke:#181818;stroke-width:0.5;" width="218" x="1516.5" y="824"/><ellipse cx="1532.5" cy="841.5781" fill="#ADD1B2" rx="12" ry="12" style="stroke:#181818;stroke-width:1.0;"/><path d="M1534.6406,836.5 Q1534.8281,836.25 1535.0469,836.125 Q1535.2656,835.9844 1535.5156,835.9844 Q1535.9531,835.9844 1536.2344,836.2969 Q1536.5156,836.5938 1536.5156,837.3125 L1536.5156,839.0156 Q1536.5156,839.7344 1536.2344,840.0469 Q1535.9531,840.3594 1535.5156,840.3594 Q1535.125,840.3594 1534.875,840.125 Q1534.625,839.9063 1534.5156,839.2969 Q1534.4531,838.875 1534.2344,838.6563 Q1533.8438,838.2188 1533.125,837.9531 Q1532.4063,837.6875 1531.6875,837.6875 Q1530.7813,837.6875 1530.0313,838.0781 Q1529.2813,838.4688 1528.7031,839.3594 Q1528.125,840.2344 1528.125,841.4375 L1528.125,842.7344 Q1528.125,844.1875 1529.1719,845.1563 Q1530.2344,846.125 1532.0938,846.125 Q1533.2031,846.125 1533.9844,845.8125 Q1534.4219,845.6406 1534.9375,845.125 Q1535.25,844.8125 1535.4219,844.7188 Q1535.5938,844.625 1535.8281,844.625 Q1536.2188,844.625 1536.5156,844.9375 Q1536.8281,845.2344 1536.8281,845.6406 Q1536.8281,846.0469 1536.4219,846.5156 Q1535.8281,847.2031 1534.8906,847.5938 Q1533.625,848.125 1532.1094,848.125 Q1530.3281,848.125 1528.9063,847.3906 Q1527.75,846.7969 1526.9375,845.5313 Q1526.125,844.2656 1526.125,842.7813 L1526.125,841.4219 Q1526.125,839.8594 1526.8438,838.5156 Q1527.5781,837.1563 1528.8594,836.4219 Q1530.1563,835.6875 1531.6094,835.6875 Q1532.4688,835.6875 1533.2188,835.8906 Q1533.9844,836.0938 1534.6406,836.5 Z " fill="#000000"/><text fill="#000000" font-family="sans-serif" font-size="20" lengthAdjust="spacing" textLength="184" x="1547.5" y="849.7617">CandidateRepository</text><line style="stroke:#181818;stroke-width:0.5;" x1="1517.5" x2="1733.5" y1="859.1563" y2="859.1563"/><line style="stroke:#181818;stroke-width:0.5;" x1="1517.5" x2="1733.5" y1="867.1563" y2="867.1563"/></g><!--class AuthorizationService--><g id="elem_AuthorizationService"><rect fill="#F1F1F1" height="51.1563" id="AuthorizationService" rx="2.5" ry="2.5" style="stroke:#181818;stroke-width:0.5;" width="211" x="1770" y="824"/><ellipse cx="1786" cy="841.5781" fill="#ADD1B2" rx="12" ry="12" style="stroke:#181818;stroke-width:1.0;"/><path d="M1788.1406,836.5 Q1788.3281,836.25 1788.5469,836.125 Q1788.7656,835.9844 1789.0156,835.9844 Q1789.4531,835.9844 1789.7344,836.2969 Q1790.0156,836.5938 1790.0156,837.3125 L1790.0156,839.0156 Q1790.0156,839.7344 1789.7344,840.0469 Q1789.4531,840.3594 1789.0156,840.3594 Q1788.625,840.3594 1788.375,840.125 Q1788.125,839.9063 1788.0156,839.2969 Q1787.9531,838.875 1787.7344,838.6563 Q1787.3438,838.2188 1786.625,837.9531 Q1785.9063,837.6875 1785.1875,837.6875 Q1784.2813,837.6875 1783.5313,838.0781 Q1782.7813,838.4688 1782.2031,839.3594 Q1781.625,840.2344 1781.625,841.4375 L1781.625,842.7344 Q1781.625,844.1875 1782.6719,845.1563 Q1783.7344,846.125 1785.5938,846.125 Q1786.7031,846.125 1787.4844,845.8125 Q1787.9219,845.6406 1788.4375,845.125 Q1788.75,844.8125 1788.9219,844.7188 Q1789.0938,844.625 1789.3281,844.625 Q1789.7188,844.625 1790.0156,844.9375 Q1790.3281,845.2344 1790.3281,845.6406 Q1790.3281,846.0469 1789.9219,846.5156 Q1789.3281,847.2031 1788.3906,847.5938 Q1787.125,848.125 1785.6094,848.125 Q1783.8281,848.125 1782.4063,847.3906 Q1781.25,846.7969 1780.4375,845.5313 Q1779.625,844.2656 1779.625,842.7813 L1779.625,841.4219 Q1779.625,839.8594 1780.3438,838.5156 Q1781.0781,837.1563 1782.3594,836.4219 Q1783.6563,835.6875 1785.1094,835.6875 Q1785.9688,835.6875 1786.7188,835.8906 Q1787.4844,836.0938 1788.1406,836.5 Z " fill="#000000"/><text fill="#000000" font-family="sans-serif" font-size="20" lengthAdjust="spacing" textLength="177" x="1801" y="849.7617">AuthorizationService</text><line style="stroke:#181818;stroke-width:0.5;" x1="1771" x2="1980" y1="859.1563" y2="859.1563"/><line style="stroke:#181818;stroke-width:0.5;" x1="1771" x2="1980" y1="867.1563" y2="867.1563"/></g><!--class UserManagementService--><g id="elem_UserManagementService"><rect fill="#F1F1F1" height="51.1563" id="UserManagementService" rx="2.5" ry="2.5" style="stroke:#181818;stroke-width:0.5;" width="254" x="2016.5" y="824"/><ellipse cx="2032.5" cy="841.5781" fill="#ADD1B2" rx="12" ry="12" style="stroke:#181818;stroke-width:1.0;"/><path d="M2034.6406,836.5 Q2034.8281,836.25 2035.0469,836.125 Q2035.2656,835.9844 2035.5156,835.9844 Q2035.9531,835.9844 2036.2344,836.2969 Q2036.5156,836.5938 2036.5156,837.3125 L2036.5156,839.0156 Q2036.5156,839.7344 2036.2344,840.0469 Q2035.9531,840.3594 2035.5156,840.3594 Q2035.125,840.3594 2034.875,840.125 Q2034.625,839.9063 2034.5156,839.2969 Q2034.4531,838.875 2034.2344,838.6563 Q2033.8438,838.2188 2033.125,837.9531 Q2032.4063,837.6875 2031.6875,837.6875 Q2030.7813,837.6875 2030.0313,838.0781 Q2029.2813,838.4688 2028.7031,839.3594 Q2028.125,840.2344 2028.125,841.4375 L2028.125,842.7344 Q2028.125,844.1875 2029.1719,845.1563 Q2030.2344,846.125 2032.0938,846.125 Q2033.2031,846.125 2033.9844,845.8125 Q2034.4219,845.6406 2034.9375,845.125 Q2035.25,844.8125 2035.4219,844.7188 Q2035.5938,844.625 2035.8281,844.625 Q2036.2188,844.625 2036.5156,844.9375 Q2036.8281,845.2344 2036.8281,845.6406 Q2036.8281,846.0469 2036.4219,846.5156 Q2035.8281,847.2031 2034.8906,847.5938 Q2033.625,848.125 2032.1094,848.125 Q2030.3281,848.125 2028.9063,847.3906 Q2027.75,846.7969 2026.9375,845.5313 Q2026.125,844.2656 2026.125,842.7813 L2026.125,841.4219 Q2026.125,839.8594 2026.8438,838.5156 Q2027.5781,837.1563 2028.8594,836.4219 Q2030.1563,835.6875 2031.6094,835.6875 Q2032.4688,835.6875 2033.2188,835.8906 Q2033.9844,836.0938 2034.6406,836.5 Z " fill="#000000"/><text fill="#000000" font-family="sans-serif" font-size="20" lengthAdjust="spacing" textLength="220" x="2047.5" y="849.7617">UserManagementService</text><line style="stroke:#181818;stroke-width:0.5;" x1="2017.5" x2="2269.5" y1="859.1563" y2="859.1563"/><line style="stroke:#181818;stroke-width:0.5;" x1="2017.5" x2="2269.5" y1="867.1563" y2="867.1563"/></g><!--class JobOfferRepository--><g id="elem_JobOfferRepository"><rect fill="#F1F1F1" height="51.1563" id="JobOfferRepository" rx="2.5" ry="2.5" style="stroke:#181818;stroke-width:0.5;" width="207" x="2306" y="824"/><ellipse cx="2322" cy="841.5781" fill="#ADD1B2" rx="12" ry="12" style="stroke:#181818;stroke-width:1.0;"/><path d="M2324.1406,836.5 Q2324.3281,836.25 2324.5469,836.125 Q2324.7656,835.9844 2325.0156,835.9844 Q2325.4531,835.9844 2325.7344,836.2969 Q2326.0156,836.5938 2326.0156,837.3125 L2326.0156,839.0156 Q2326.0156,839.7344 2325.7344,840.0469 Q2325.4531,840.3594 2325.0156,840.3594 Q2324.625,840.3594 2324.375,840.125 Q2324.125,839.9063 2324.0156,839.2969 Q2323.9531,838.875 2323.7344,838.6563 Q2323.3438,838.2188 2322.625,837.9531 Q2321.9063,837.6875 2321.1875,837.6875 Q2320.2813,837.6875 2319.5313,838.0781 Q2318.7813,838.4688 2318.2031,839.3594 Q2317.625,840.2344 2317.625,841.4375 L2317.625,842.7344 Q2317.625,844.1875 2318.6719,845.1563 Q2319.7344,846.125 2321.5938,846.125 Q2322.7031,846.125 2323.4844,845.8125 Q2323.9219,845.6406 2324.4375,845.125 Q2324.75,844.8125 2324.9219,844.7188 Q2325.0938,844.625 2325.3281,844.625 Q2325.7188,844.625 2326.0156,844.9375 Q2326.3281,845.2344 2326.3281,845.6406 Q2326.3281,846.0469 2325.9219,846.5156 Q2325.3281,847.2031 2324.3906,847.5938 Q2323.125,848.125 2321.6094,848.125 Q2319.8281,848.125 2318.4063,847.3906 Q2317.25,846.7969 2316.4375,845.5313 Q2315.625,844.2656 2315.625,842.7813 L2315.625,841.4219 Q2315.625,839.8594 2316.3438,838.5156 Q2317.0781,837.1563 2318.3594,836.4219 Q2319.6563,835.6875 2321.1094,835.6875 Q2321.9688,835.6875 2322.7188,835.8906 Q2323.4844,836.0938 2324.1406,836.5 Z " fill="#000000"/><text fill="#000000" font-family="sans-serif" font-size="20" lengthAdjust="spacing" textLength="173" x="2337" y="849.7617">JobOfferRepository</text><line style="stroke:#181818;stroke-width:0.5;" x1="2307" x2="2512" y1="859.1563" y2="859.1563"/><line style="stroke:#181818;stroke-width:0.5;" x1="2307" x2="2512" y1="867.1563" y2="867.1563"/></g><!--class InMemoryApplicationRepository--><g id="elem_InMemoryApplicationRepository"><rect fill="#F1F1F1" height="51.1563" id="InMemoryApplicationRepository" rx="2.5" ry="2.5" style="stroke:#181818;stroke-width:0.5;" width="312" x="871.5" y="824"/><ellipse cx="887.5" cy="841.5781" fill="#ADD1B2" rx="12" ry="12" style="stroke:#181818;stroke-width:1.0;"/><path d="M889.6406,836.5 Q889.8281,836.25 890.0469,836.125 Q890.2656,835.9844 890.5156,835.9844 Q890.9531,835.9844 891.2344,836.2969 Q891.5156,836.5938 891.5156,837.3125 L891.5156,839.0156 Q891.5156,839.7344 891.2344,840.0469 Q890.9531,840.3594 890.5156,840.3594 Q890.125,840.3594 889.875,840.125 Q889.625,839.9063 889.5156,839.2969 Q889.4531,838.875 889.2344,838.6563 Q888.8438,838.2188 888.125,837.9531 Q887.4063,837.6875 886.6875,837.6875 Q885.7813,837.6875 885.0313,838.0781 Q884.2813,838.4688 883.7031,839.3594 Q883.125,840.2344 883.125,841.4375 L883.125,842.7344 Q883.125,844.1875 884.1719,845.1563 Q885.2344,846.125 887.0938,846.125 Q888.2031,846.125 888.9844,845.8125 Q889.4219,845.6406 889.9375,845.125 Q890.25,844.8125 890.4219,844.7188 Q890.5938,844.625 890.8281,844.625 Q891.2188,844.625 891.5156,844.9375 Q891.8281,845.2344 891.8281,845.6406 Q891.8281,846.0469 891.4219,846.5156 Q890.8281,847.2031 889.8906,847.5938 Q888.625,848.125 887.1094,848.125 Q885.3281,848.125 883.9063,847.3906 Q882.75,846.7969 881.9375,845.5313 Q881.125,844.2656 881.125,842.7813 L881.125,841.4219 Q881.125,839.8594 881.8438,838.5156 Q882.5781,837.1563 883.8594,836.4219 Q885.1563,835.6875 886.6094,835.6875 Q887.4688,835.6875 888.2188,835.8906 Q888.9844,836.0938 889.6406,836.5 Z " fill="#000000"/><text fill="#000000" font-family="sans-serif" font-size="20" lengthAdjust="spacing" textLength="278" x="902.5" y="849.7617">InMemoryApplicationRepository</text><line style="stroke:#181818;stroke-width:0.5;" x1="872.5" x2="1182.5" y1="859.1563" y2="859.1563"/><line style="stroke:#181818;stroke-width:0.5;" x1="872.5" x2="1182.5" y1="867.1563" y2="867.1563"/></g><!--class JpaApplicationRepository--><g id="elem_JpaApplicationRepository"><rect fill="#F1F1F1" height="51.1563" id="JpaApplicationRepository" rx="2.5" ry="2.5" style="stroke:#181818;stroke-width:0.5;" width="256" x="1218.5" y="824"/><ellipse cx="1234.5" cy="841.5781" fill="#ADD1B2" rx="12" ry="12" style="stroke:#181818;stroke-width:1.0;"/><path d="M1236.6406,836.5 Q1236.8281,836.25 1237.0469,836.125 Q1237.2656,835.9844 1237.5156,835.9844 Q1237.9531,835.9844 1238.2344,836.2969 Q1238.5156,836.5938 1238.5156,837.3125 L1238.5156,839.0156 Q1238.5156,839.7344 1238.2344,840.0469 Q1237.9531,840.3594 1237.5156,840.3594 Q1237.125,840.3594 1236.875,840.125 Q1236.625,839.9063 1236.5156,839.2969 Q1236.4531,838.875 1236.2344,838.6563 Q1235.8438,838.2188 1235.125,837.9531 Q1234.4063,837.6875 1233.6875,837.6875 Q1232.7813,837.6875 1232.0313,838.0781 Q1231.2813,838.4688 1230.7031,839.3594 Q1230.125,840.2344 1230.125,841.4375 L1230.125,842.7344 Q1230.125,844.1875 1231.1719,845.1563 Q1232.2344,846.125 1234.0938,846.125 Q1235.2031,846.125 1235.9844,845.8125 Q1236.4219,845.6406 1236.9375,845.125 Q1237.25,844.8125 1237.4219,844.7188 Q1237.5938,844.625 1237.8281,844.625 Q1238.2188,844.625 1238.5156,844.9375 Q1238.8281,845.2344 1238.8281,845.6406 Q1238.8281,846.0469 1238.4219,846.5156 Q1237.8281,847.2031 1236.8906,847.5938 Q1235.625,848.125 1234.1094,848.125 Q1232.3281,848.125 1230.9063,847.3906 Q1229.75,846.7969 1228.9375,845.5313 Q1228.125,844.2656 1228.125,842.7813 L1228.125,841.4219 Q1228.125,839.8594 1228.8438,838.5156 Q1229.5781,837.1563 1230.8594,836.4219 Q1232.1563,835.6875 1233.6094,835.6875 Q1234.4688,835.6875 1235.2188,835.8906 Q1235.9844,836.0938 1236.6406,836.5 Z " fill="#000000"/><text fill="#000000" font-family="sans-serif" font-size="20" lengthAdjust="spacing" textLength="222" x="1249.5" y="849.7617">JpaApplicationRepository</text><line style="stroke:#181818;stroke-width:0.5;" x1="1219.5" x2="1473.5" y1="859.1563" y2="859.1563"/><line style="stroke:#181818;stroke-width:0.5;" x1="1219.5" x2="1473.5" y1="867.1563" y2="867.1563"/></g><!--link Application to ApplicationBuilder--><g id="link_Application_ApplicationBuilder"><path codeLine="22" d="M321.42,599.05 C254.93,632.75 195.27,662.98 154.92,683.43 " fill="none" id="Application-to-ApplicationBuilder" style="stroke:#181818;stroke-width:1.0;"/><polygon fill="#181818" points="150.09,685.88,159.9269,685.3951,154.5535,683.6268,156.3219,678.2535,150.09,685.88" style="stroke:#181818;stroke-width:1.0;"/><text fill="#000000" font-family="sans-serif" font-size="20" lengthAdjust="spacing" textLength="50" x="246.5" y="650.7617">builds</text><text fill="#000000" font-family="sans-serif" font-size="20" lengthAdjust="spacing" textLength="11" x="298.4249" y="626.1814">1</text><text fill="#000000" font-family="sans-serif" font-size="20" lengthAdjust="spacing" textLength="11" x="147.9773" y="673.7795">1</text></g><!--link Application to ApplicationFile--><g id="link_Application_ApplicationFile"><path codeLine="23" d="M462.08,599.05 C417.11,632.34 376.7,662.24 349.09,682.68 " fill="none" id="Application-to-ApplicationFile" style="stroke:#181818;stroke-width:1.0;"/><polygon fill="#181818" points="344.77,685.88,354.3873,683.7568,348.7938,682.9121,349.6386,677.3186,344.77,685.88" style="stroke:#181818;stroke-width:1.0;"/><text fill="#000000" font-family="sans-serif" font-size="20" lengthAdjust="spacing" textLength="72" x="411.5" y="650.7617">contains</text><text fill="#000000" font-family="sans-serif" font-size="20" lengthAdjust="spacing" textLength="11" x="440.8779" y="627.6802">1</text><text fill="#000000" font-family="sans-serif" font-size="20" lengthAdjust="spacing" textLength="8" x="342.8069" y="673.7795">*</text></g><!--link Application to ApplicationReference--><g id="link_Application_ApplicationReference"><path codeLine="24" d="M612.78,599.05 C590.37,631.79 570.2,661.26 556.24,681.66 " fill="none" id="Application-to-ApplicationReference" style="stroke:#181818;stroke-width:1.0;"/><polygon fill="#181818" points="553.35,685.88,561.7366,680.7162,556.176,681.7552,555.1369,676.1946,553.35,685.88" style="stroke:#181818;stroke-width:1.0;"/><text fill="#000000" font-family="sans-serif" font-size="20" lengthAdjust="spacing" textLength="31" x="587.5" y="650.7617">has</text><text fill="#000000" font-family="sans-serif" font-size="20" lengthAdjust="spacing" textLength="11" x="596.5228" y="627.6802">1</text><text fill="#000000" font-family="sans-serif" font-size="20" lengthAdjust="spacing" textLength="11" x="544.6909" y="673.7795">1</text></g><!--link Application to ApplicationDate--><g id="link_Application_ApplicationDate"><path codeLine="25" d="M767.5,599.05 C767.5,631.24 767.5,660.27 767.5,680.63 " fill="none" id="Application-to-ApplicationDate" style="stroke:#181818;stroke-width:1.0;"/><polygon fill="#181818" points="767.5,685.88,771.5257,676.8915,767.5143,680.88,763.5257,676.8686,767.5,685.88" style="stroke:#181818;stroke-width:1.0;"/><text fill="#000000" font-family="sans-serif" font-size="20" lengthAdjust="spacing" textLength="31" x="768.5" y="650.7617">has</text><text fill="#000000" font-family="sans-serif" font-size="20" lengthAdjust="spacing" textLength="11" x="756.3195" y="627.6802">1</text><text fill="#000000" font-family="sans-serif" font-size="20" lengthAdjust="spacing" textLength="11" x="755.3656" y="673.7795">1</text></g><!--link Application to InterviewValue--><g id="link_Application_InterviewValue"><path codeLine="26" d="M902.8,599.05 C922.31,631.65 939.88,661.01 952.09,681.4 " fill="none" id="Application-to-InterviewValue" style="stroke:#181818;stroke-width:1.0;"/><polygon fill="#181818" points="954.76,685.88,953.5978,676.1,952.2043,681.5825,946.7218,680.189,954.76,685.88" style="stroke:#181818;stroke-width:1.0;"/><text fill="#000000" font-family="sans-serif" font-size="20" lengthAdjust="spacing" textLength="31" x="937.5" y="650.7617">has</text><text fill="#000000" font-family="sans-serif" font-size="20" lengthAdjust="spacing" textLength="11" x="896.0591" y="627.6802">1</text><text fill="#000000" font-family="sans-serif" font-size="20" lengthAdjust="spacing" textLength="11" x="939.5855" y="673.7795">1</text></g><!--link Application to STATUS--><g id="link_Application_STATUS"><path codeLine="27" d="M1017.33,599.05 C1053.96,632.2 1086.9,662 1109.47,682.43 " fill="none" id="Application-to-STATUS" style="stroke:#181818;stroke-width:1.0;"/><polygon fill="#181818" points="1113.28,685.88,1109.2853,676.8776,1109.5706,682.5273,1103.921,682.8126,1113.28,685.88" style="stroke:#181818;stroke-width:1.0;"/><text fill="#000000" font-family="sans-serif" font-size="20" lengthAdjust="spacing" textLength="31" x="1079.5" y="650.7617">has</text><text fill="#000000" font-family="sans-serif" font-size="20" lengthAdjust="spacing" textLength="11" x="1014.3471" y="627.6802">1</text><text fill="#000000" font-family="sans-serif" font-size="20" lengthAdjust="spacing" textLength="11" x="1095.5315" y="673.7795">1</text></g><!--link Application to ApplicationRepository--><g id="link_Application_ApplicationRepository"><path codeLine="29" d="M1152.63,599.05 C1209.8,632.61 1261.13,662.74 1295.96,683.18 " fill="none" id="Application-to-ApplicationRepository" style="stroke:#181818;stroke-width:1.0;"/><polygon fill="#181818" points="1300.55,685.88,1294.8079,677.8782,1296.2363,683.3518,1290.7627,684.7801,1300.55,685.88" style="stroke:#181818;stroke-width:1.0;"/><text fill="#000000" font-family="sans-serif" font-size="20" lengthAdjust="spacing" textLength="76" x="1247.5" y="650.7617">stored in</text><text fill="#000000" font-family="sans-serif" font-size="20" lengthAdjust="spacing" textLength="11" x="1154.0866" y="627.6802">1</text><text fill="#000000" font-family="sans-serif" font-size="20" lengthAdjust="spacing" textLength="8" x="1283.0728" y="673.7795">*</text></g><!--link ApplicationRegistrationController to ApplicationRepository--><g id="link_ApplicationRegistrationController_ApplicationRepository"><path codeLine="31" d="M1660.56,397.54 C1598.58,458.52 1437.86,616.67 1371.66,681.81 " fill="none" id="ApplicationRegistrationController-to-ApplicationRepository" style="stroke:#181818;stroke-width:1.0;"/><polygon fill="#181818" points="1367.81,685.59,1377.0236,682.1102,1371.3669,682.076,1371.4012,676.4192,1367.81,685.59" style="stroke:#181818;stroke-width:1.0;"/><text fill="#000000" font-family="sans-serif" font-size="20" lengthAdjust="spacing" textLength="41" x="1418.5" y="650.7617">uses</text><text fill="#000000" font-family="sans-serif" font-size="20" lengthAdjust="spacing" textLength="11" x="1642.9013" y="426.623">1</text><text fill="#000000" font-family="sans-serif" font-size="20" lengthAdjust="spacing" textLength="11" x="1360.8958" y="673.4297">1</text></g><!--link ApplicationRegistrationController to FileManagerService--><g id="link_ApplicationRegistrationController_FileManagerService"><path codeLine="32" d="M1678.81,397.54 C1662.29,458.16 1619.59,614.78 1601.64,680.63 " fill="none" id="ApplicationRegistrationController-to-FileManagerService" style="stroke:#181818;stroke-width:1.0;"/><polygon fill="#181818" points="1600.29,685.59,1606.519,677.9612,1601.6068,680.7665,1598.8014,675.8543,1600.29,685.59" style="stroke:#181818;stroke-width:1.0;"/><text fill="#000000" font-family="sans-serif" font-size="20" lengthAdjust="spacing" textLength="41" x="1614.5" y="650.7617">uses</text><text fill="#000000" font-family="sans-serif" font-size="20" lengthAdjust="spacing" textLength="11" x="1665.1434" y="426.623">1</text><text fill="#000000" font-family="sans-serif" font-size="20" lengthAdjust="spacing" textLength="11" x="1589.5561" y="673.4297">1</text></g><!--link ApplicationRegistrationController to CandidateRegistrationService--><g id="link_ApplicationRegistrationController_CandidateRegistrationService"><path codeLine="33" d="M1699.61,397.54 C1734.52,458.28 1824.84,615.41 1862.56,681.03 " fill="none" id="ApplicationRegistrationController-to-CandidateRegistrationService" style="stroke:#181818;stroke-width:1.0;"/><polygon fill="#181818" points="1865.18,685.59,1864.1565,675.7945,1862.6855,681.2567,1857.2233,679.7857,1865.18,685.59" style="stroke:#181818;stroke-width:1.0;"/><text fill="#000000" font-family="sans-serif" font-size="20" lengthAdjust="spacing" textLength="41" x="1848.5" y="650.7617">uses</text><text fill="#000000" font-family="sans-serif" font-size="20" lengthAdjust="spacing" textLength="11" x="1690.4934" y="426.623">1</text><text fill="#000000" font-family="sans-serif" font-size="20" lengthAdjust="spacing" textLength="11" x="1850.0921" y="673.4297">1</text></g><!--link ApplicationRegistrationController to JobOfferManagementService--><g id="link_ApplicationRegistrationController_JobOfferManagementService"><path codeLine="34" d="M1730.81,397.54 C1844.29,459.02 2140.09,619.27 2258.47,683.39 " fill="none" id="ApplicationRegistrationController-to-JobOfferManagementService" style="stroke:#181818;stroke-width:1.0;"/><polygon fill="#181818" points="2262.94,685.82,2256.9348,678.0138,2258.5445,683.4367,2253.1216,685.0465,2262.94,685.82" style="stroke:#181818;stroke-width:1.0;"/><text fill="#000000" font-family="sans-serif" font-size="20" lengthAdjust="spacing" textLength="41" x="2205.5" y="650.7617">uses</text><text fill="#000000" font-family="sans-serif" font-size="20" lengthAdjust="spacing" textLength="11" x="1728.5184" y="426.623">1</text><text fill="#000000" font-family="sans-serif" font-size="20" lengthAdjust="spacing" textLength="11" x="2241.4089" y="673.7071">1</text></g><!--link RegisterApplicationUI to ApplicationRegistrationController--><g id="link_RegisterApplicationUI_ApplicationRegistrationController"><path codeLine="36" d="M1685.5,58.04 C1685.5,118.54 1685.5,274.65 1685.5,340.74 " fill="none" id="RegisterApplicationUI-to-ApplicationRegistrationController" style="stroke:#181818;stroke-width:1.0;"/><polygon fill="#181818" points="1685.5,346.09,1689.5,337.09,1685.5,341.09,1681.5,337.09,1685.5,346.09" style="stroke:#181818;stroke-width:1.0;"/><text fill="#000000" font-family="sans-serif" font-size="20" lengthAdjust="spacing" textLength="41" x="1686.5" y="109.7617">uses</text><text fill="#000000" font-family="sans-serif" font-size="20" lengthAdjust="spacing" textLength="11" x="1673.2969" y="87.123">1</text><text fill="#000000" font-family="sans-serif" font-size="20" lengthAdjust="spacing" textLength="11" x="1673.3656" y="333.9297">1</text></g><!--link CandidateRegistrationService to CandidateRepository--><g id="link_CandidateRegistrationService_CandidateRepository"><path codeLine="38" d="M1833.5,737.13 C1789.14,760.88 1722.13,796.76 1676.24,821.33 " fill="none" id="CandidateRegistrationService-to-CandidateRepository" style="stroke:#181818;stroke-width:1.0;"/><polygon fill="#181818" points="1671.58,823.83,1681.4032,823.1192,1675.9906,821.4748,1677.6349,816.0622,1671.58,823.83" style="stroke:#181818;stroke-width:1.0;"/><text fill="#000000" font-family="sans-serif" font-size="20" lengthAdjust="spacing" textLength="41" x="1776.5" y="788.7617">uses</text><text fill="#000000" font-family="sans-serif" font-size="20" lengthAdjust="spacing" textLength="11" x="1811.8781" y="765.756">1</text><text fill="#000000" font-family="sans-serif" font-size="20" lengthAdjust="spacing" textLength="11" x="1668.9496" y="811.7192">1</text></g><!--link CandidateRegistrationService to AuthorizationService--><g id="link_CandidateRegistrationService_AuthorizationService"><path codeLine="39" d="M1878.78,737.13 C1878.1,760 1877.1,794.1 1876.38,818.53 " fill="none" id="CandidateRegistrationService-to-AuthorizationService" style="stroke:#181818;stroke-width:1.0;"/><polygon fill="#181818" points="1876.23,823.6,1880.4854,814.7179,1876.3728,818.602,1872.4887,814.4894,1876.23,823.6" style="stroke:#181818;stroke-width:1.0;"/><text fill="#000000" font-family="sans-serif" font-size="20" lengthAdjust="spacing" textLength="41" x="1879.5" y="788.7617">uses</text><text fill="#000000" font-family="sans-serif" font-size="20" lengthAdjust="spacing" textLength="11" x="1866.4971" y="765.756">1</text><text fill="#000000" font-family="sans-serif" font-size="20" lengthAdjust="spacing" textLength="11" x="1864.2462" y="811.4417">1</text></g><!--link CandidateRegistrationService to UserManagementService--><g id="link_CandidateRegistrationService_UserManagementService"><path codeLine="40" d="M1927.31,737.13 C1973.51,760.93 2043.34,796.9 2091.06,821.48 " fill="none" id="CandidateRegistrationService-to-UserManagementService" style="stroke:#181818;stroke-width:1.0;"/><polygon fill="#181818" points="2095.6,823.83,2089.4269,816.1558,2091.1539,821.5426,2085.7671,823.2696,2095.6,823.83" style="stroke:#181818;stroke-width:1.0;"/><text fill="#000000" font-family="sans-serif" font-size="20" lengthAdjust="spacing" textLength="41" x="2036.5" y="788.7617">uses</text><text fill="#000000" font-family="sans-serif" font-size="20" lengthAdjust="spacing" textLength="11" x="1925.0364" y="765.756">1</text><text fill="#000000" font-family="sans-serif" font-size="20" lengthAdjust="spacing" textLength="11" x="2073.5863" y="811.7192">1</text></g><!--link JobOfferManagementService to JobOfferRepository--><g id="link_JobOfferManagementService_JobOfferRepository"><path codeLine="42" d="M2326.79,737.13 C2343.99,760.28 2369.73,794.95 2387.93,819.45 " fill="none" id="JobOfferManagementService-to-JobOfferRepository" style="stroke:#181818;stroke-width:1.0;"/><polygon fill="#181818" points="2391,823.6,2388.8605,813.9863,2388.0252,819.5812,2382.4304,818.746,2391,823.6" style="stroke:#181818;stroke-width:1.0;"/><text fill="#000000" font-family="sans-serif" font-size="20" lengthAdjust="spacing" textLength="41" x="2369.5" y="788.7617">uses</text><text fill="#000000" font-family="sans-serif" font-size="20" lengthAdjust="spacing" textLength="11" x="2318.4279" y="765.756">1</text><text fill="#000000" font-family="sans-serif" font-size="20" lengthAdjust="spacing" textLength="11" x="2375.05" y="811.4417">1</text></g><!--reverse link ApplicationRepository to InMemoryApplicationRepository--><g id="link_ApplicationRepository_InMemoryApplicationRepository"><path codeLine="44" d="M1266.85,745.16 C1210.74,769.39 1135.43,801.9 1084.39,823.94 " fill="none" id="ApplicationRepository-backto-InMemoryApplicationRepository" style="stroke:#181818;stroke-width:1.0;stroke-dasharray:7.0,7.0;"/><polygon fill="none" points="1264.32,738.63,1285.46,737.13,1269.87,751.48,1264.32,738.63" style="stroke:#181818;stroke-width:1.0;"/></g><!--reverse link ApplicationRepository to JpaApplicationRepository--><g id="link_ApplicationRepository_JpaApplicationRepository"><path codeLine="45" d="M1343.81,757.17 C1344.46,779.25 1345.22,805.06 1345.77,823.6 " fill="none" id="ApplicationRepository-backto-JpaApplicationRepository" style="stroke:#181818;stroke-width:1.0;stroke-dasharray:7.0,7.0;"/><polygon fill="none" points="1336.82,757.33,1343.22,737.13,1350.81,756.91,1336.82,757.33" style="stroke:#181818;stroke-width:1.0;"/></g><!--SRC=[fLDHJzim47xFhx1uAgD5snuHgfIL8O66a5hA-pM-KeDZPxR311l_dNDgm0rEb44V6llyVT_TVJxREw4gC51ANTmXPnpNK4jtgfLRY4TatxzcMI71MfPNbHG5EA4L-vin-atYs1pNQ50Lo20H3FWta6cT_2n1o9npWvGA_UPzYXDmo3ZzXQF5LNwrN92KfOf3x4mvDFS2_ro3h969dMt0_1BM7KUwfqBYD2xR1spMe0_Y0aQfViSiMiPjZDkrZzEPzqCYuFor-j5k7_j7x5uB7e22etB2FOmed7UPVR1rqMFYeiBPg_t-l4rS-_RzGRBS5_NVDKWxkbpTOk48kz9Q8gXmkW6xcMdUoDCTXAY54lC4vodBukdQ-xR79fDfyutYFseXEHf6FB-oQSwN7Owlc0W5ZJC8POUaUPlH8z_644epcFterbpsWyDWRq53sfnZfQrmsZmGoTANNh9GEzGvtj1jccOz8pkCbfBCx3GX4gmjsl-KyhvVW88RD0lVT-Fc1tHceBZmJpx6VahnNAykrtJ3s-fAUaajkMmhWYRINPvr6vNC-ABLMtz7estd1slajTje8nvJ9WqMMTe-RxhTItdylfSiFMF7_muFwObSO4cx9AIFU5v1clCC]--></g></svg>