<?xml version="1.0" encoding="UTF-8" standalone="no"?><svg xmlns="http://www.w3.org/2000/svg" xmlns:xlink="http://www.w3.org/1999/xlink" contentStyleType="text/css" height="946px" preserveAspectRatio="none" style="width:619px;height:946px;background:#FFFFFF;" version="1.1" viewBox="0 0 619 946" width="619px" zoomAndPan="magnify"><defs/><g><!--cluster Backoffice--><g id="cluster_Backoffice"><rect fill="none" height="478" rx="2.5" ry="2.5" style="stroke:#181818;stroke-width:1.0;" width="356.3" x="257" y="462.36"/><text fill="#000000" font-family="sans-serif" font-size="20" font-weight="bold" lengthAdjust="spacing" textLength="103" x="383.65" y="485.74">Backoffice</text></g><!--cluster Applications File Bot--><g id="cluster_Applications File Bot"><rect fill="none" height="148" rx="2.5" ry="2.5" style="stroke:#181818;stroke-width:1.0;" width="322.45" x="273.92" y="150.36"/><text fill="#000000" font-family="sans-serif" font-size="20" font-weight="bold" lengthAdjust="spacing" textLength="203" x="333.645" y="173.74">Applications File Bot</text></g><!--cluster Candidate App--><g id="cluster_Candidate App"><rect fill="none" height="116" rx="2.5" ry="2.5" style="stroke:#181818;stroke-width:1.0;" width="281.28" x="294.51" y="322.36"/><text fill="#000000" font-family="sans-serif" font-size="20" font-weight="bold" lengthAdjust="spacing" textLength="148" x="361.15" y="345.74">Candidate App</text></g><!--cluster Customer App--><g id="cluster_Customer App"><rect fill="none" height="118" rx="2.5" ry="2.5" style="stroke:#181818;stroke-width:1.0;" width="288.98" x="290.66" y="8.36"/><text fill="#000000" font-family="sans-serif" font-size="20" font-weight="bold" lengthAdjust="spacing" textLength="143" x="363.65" y="31.74">Customer App</text></g><g id="elem_UC1"><ellipse cx="435.1525" cy="551.3567" fill="#F1F1F1" rx="143.7525" ry="42.5267" style="stroke:#181818;stroke-width:0.5;"/><text fill="#000000" font-family="sans-serif" font-size="20" lengthAdjust="spacing" textLength="182" x="341.1525" y="545.6767">Manage Customers</text><text fill="#000000" font-family="sans-serif" font-size="20" lengthAdjust="spacing" textLength="160" x="354.6525" y="572.9167">and its Managers</text></g><g id="elem_UC2"><ellipse cx="435.1491" cy="881.361" fill="#F1F1F1" rx="162.1491" ry="42.591" style="stroke:#181818;stroke-width:0.5;"/><text fill="#000000" font-family="sans-serif" font-size="20" lengthAdjust="spacing" textLength="202" x="328.6491" y="875.681">Deploy and Configure</text><text fill="#000000" font-family="sans-serif" font-size="20" lengthAdjust="spacing" textLength="58" x="403.1491" y="902.921">Plugin</text></g><g id="elem_UC3"><ellipse cx="435.1505" cy="656.3581" fill="#F1F1F1" rx="126.9405" ry="27.7881" style="stroke:#181818;stroke-width:0.5;"/><text fill="#000000" font-family="sans-serif" font-size="20" lengthAdjust="spacing" textLength="185" x="339.6505" y="664.2981">Register Application</text></g><g id="elem_UC4"><ellipse cx="435.1491" cy="761.3591" fill="#F1F1F1" rx="90.0391" ry="42.1891" style="stroke:#181818;stroke-width:0.5;"/><text fill="#000000" font-family="sans-serif" font-size="20" lengthAdjust="spacing" textLength="109" x="377.6491" y="755.6791">Manage Job</text><text fill="#000000" font-family="sans-serif" font-size="20" lengthAdjust="spacing" textLength="90" x="389.6491" y="782.9191">Openings</text></g><g id="elem_UC5"><ellipse cx="435.1542" cy="239.3625" fill="#F1F1F1" rx="145.2242" ry="42.5325" style="stroke:#181818;stroke-width:0.5;"/><text fill="#000000" font-family="sans-serif" font-size="20" lengthAdjust="spacing" textLength="184" x="340.1542" y="233.6825">Import Applications</text><text fill="#000000" font-family="sans-serif" font-size="20" lengthAdjust="spacing" textLength="41" x="414.1542" y="260.9224">Files</text></g><g id="elem_UC6"><ellipse cx="435.1539" cy="395.3588" fill="#F1F1F1" rx="124.6439" ry="27.3288" style="stroke:#181818;stroke-width:0.5;"/><text fill="#000000" font-family="sans-serif" font-size="20" lengthAdjust="spacing" textLength="179" x="342.6539" y="403.2988">Follow Applications</text></g><g id="elem_UC7"><ellipse cx="435.148" cy="82.3576" fill="#F1F1F1" rx="128.488" ry="28.0976" style="stroke:#181818;stroke-width:0.5;"/><text fill="#000000" font-family="sans-serif" font-size="20" lengthAdjust="spacing" textLength="189" x="337.648" y="90.2976">Follow Job Openings</text></g><!--entity Admin--><g id="elem_Admin"><ellipse cx="109.5" cy="482.24" fill="#F1F1F1" rx="8" ry="8" style="stroke:#181818;stroke-width:0.5;"/><path d="M109.5,490.24 L109.5,517.24 M96.5,498.24 L122.5,498.24 M109.5,517.24 L96.5,532.24 M109.5,517.24 L122.5,532.24 " fill="none" style="stroke:#181818;stroke-width:0.5;"/><text fill="#000000" font-family="sans-serif" font-size="20" lengthAdjust="spacing" textLength="61" x="76.5" y="555.12">Admin</text></g><!--entity Operator--><g id="elem_Operator"><ellipse cx="109.5" cy="604.24" fill="#F1F1F1" rx="8" ry="8" style="stroke:#181818;stroke-width:0.5;"/><path d="M109.5,612.24 L109.5,639.24 M96.5,620.24 L122.5,620.24 M109.5,639.24 L96.5,654.24 M109.5,639.24 L122.5,654.24 " fill="none" style="stroke:#181818;stroke-width:0.5;"/><text fill="#000000" font-family="sans-serif" font-size="20" lengthAdjust="spacing" textLength="85" x="67" y="677.12">Operator</text></g><!--entity CustomerManager--><g id="elem_CustomerManager"><ellipse cx="109.5" cy="726.24" fill="#F1F1F1" rx="8" ry="8" style="stroke:#181818;stroke-width:0.5;"/><path d="M109.5,734.24 L109.5,761.24 M96.5,742.24 L122.5,742.24 M109.5,761.24 L96.5,776.24 M109.5,761.24 L122.5,776.24 " fill="none" style="stroke:#181818;stroke-width:0.5;"/><text fill="#000000" font-family="sans-serif" font-size="20" lengthAdjust="spacing" textLength="180" x="19.5" y="799.12">Customer Manager</text></g><!--entity LanguageEngineer--><g id="elem_LanguageEngineer"><ellipse cx="109.5" cy="848.24" fill="#F1F1F1" rx="8" ry="8" style="stroke:#181818;stroke-width:0.5;"/><path d="M109.5,856.24 L109.5,883.24 M96.5,864.24 L122.5,864.24 M109.5,883.24 L96.5,898.24 M109.5,883.24 L122.5,898.24 " fill="none" style="stroke:#181818;stroke-width:0.5;"/><text fill="#000000" font-family="sans-serif" font-size="20" lengthAdjust="spacing" textLength="178" x="20.5" y="921.12">Language Engineer</text></g><!--entity Candidate--><g id="elem_Candidate"><ellipse cx="109.5" cy="360.24" fill="#F1F1F1" rx="8" ry="8" style="stroke:#181818;stroke-width:0.5;"/><path d="M109.5,368.24 L109.5,395.24 M96.5,376.24 L122.5,376.24 M109.5,395.24 L96.5,410.24 M109.5,395.24 L122.5,410.24 " fill="none" style="stroke:#181818;stroke-width:0.5;"/><text fill="#000000" font-family="sans-serif" font-size="20" lengthAdjust="spacing" textLength="94" x="62.5" y="433.12">Candidate</text></g><!--entity ApplicationsEmailBot--><g id="elem_ApplicationsEmailBot"><ellipse cx="109.5" cy="204.24" fill="#F1F1F1" rx="8" ry="8" style="stroke:#181818;stroke-width:0.5;"/><path d="M109.5,212.24 L109.5,239.24 M96.5,220.24 L122.5,220.24 M109.5,239.24 L96.5,254.24 M109.5,239.24 L122.5,254.24 " fill="none" style="stroke:#181818;stroke-width:0.5;"/><text fill="#000000" font-family="sans-serif" font-size="20" lengthAdjust="spacing" textLength="207" x="6" y="277.12">Applications Email Bot</text></g><!--entity Customer--><g id="elem_Customer"><ellipse cx="109.5" cy="47.24" fill="#F1F1F1" rx="8" ry="8" style="stroke:#181818;stroke-width:0.5;"/><path d="M109.5,55.24 L109.5,82.24 M96.5,63.24 L122.5,63.24 M109.5,82.24 L96.5,97.24 M109.5,82.24 L122.5,97.24 " fill="none" style="stroke:#181818;stroke-width:0.5;"/><text fill="#000000" font-family="sans-serif" font-size="20" lengthAdjust="spacing" textLength="92" x="63.5" y="120.12">Customer</text></g><!--link Admin to UC1--><g id="link_Admin_UC1"><path d="M142.72,520.74 C179.33,524.59 241.49,531.12 299.02,537.16 " fill="none" id="Admin-UC1" style="stroke:#181818;stroke-width:1.0;"/></g><!--link LanguageEngineer to UC2--><g id="link_LanguageEngineer_UC2"><path d="M198.94,882.81 C221.87,882.67 247.29,882.51 272.69,882.36 " fill="none" id="LanguageEngineer-UC2" style="stroke:#181818;stroke-width:1.0;"/></g><!--link Operator to UC3--><g id="link_Operator_UC3"><path d="M152.48,641.57 C192.67,643.68 255.31,646.97 311.32,649.91 " fill="none" id="Operator-UC3" style="stroke:#181818;stroke-width:1.0;"/></g><!--link CustomerManager to UC4--><g id="link_CustomerManager_UC4"><path d="M199.8,761.36 C244.98,761.36 299.68,761.36 344.86,761.36 " fill="none" id="CustomerManager-UC4" style="stroke:#181818;stroke-width:1.0;"/></g><!--link ApplicationsEmailBot to UC5--><g id="link_ApplicationsEmailBot_UC5"><path d="M213.35,239.36 C237.6,239.36 263.89,239.36 289.6,239.36 " fill="none" id="ApplicationsEmailBot-UC5" style="stroke:#181818;stroke-width:1.0;"/></g><!--link Candidate to UC6--><g id="link_Candidate_UC6"><path d="M156.87,395.36 C196.9,395.36 256.59,395.36 310.34,395.36 " fill="none" id="Candidate-UC6" style="stroke:#181818;stroke-width:1.0;"/></g><!--link Customer to UC7--><g id="link_Customer_UC7"><path d="M155.84,82.36 C194.9,82.36 253.21,82.36 306.39,82.36 " fill="none" id="Customer-UC7" style="stroke:#181818;stroke-width:1.0;"/></g><!--SRC=[TL9DJ-D03BtFhx1wHreABUUbK0a4sXLeRrnCugIZJiRHp4I8HVlVrvsFDedAN1BPp-_Pp_PxRNjqs1ckzbH3JGqE9cpPXbVzbs3vG_a2WOujLpl77K5m0uqoFLPxREarV1e2HrL0svenmE-mvWzjMsZGU58Agy0E5Z_hJbjO07g8lpd-goU7ybDWcy47aNNmZ5PqN2memHmhs2VH7YG0zxRLbZAuH4imepTeQrrZe6D3VMzqXK6pzN3VeJPmoo4rE4h5Z2GAJMv56Me210Qdsrs0MX-y4BnIsI6ubIytZQu8lfI2mLE5dc2HXZWI-JSBqXheuClCFZRnPtEfG5uoxk8Y1aOyTzGR_eor6xQDRWT7y6P_cq7cpWpBo53Ut9b4kXoJlb2hVP3Ko8BCTNNaAZjBzLTdXdlaTnbBS5OEeOnpVMfcjj14TAtKlvDzq_rijPnRNC_4ouUkPnSc-nBT0xY8hfA7PnQQH5TJqUEL74fcObisXZycN5ba7KLEjP5vFMCkX_qjiPWsj-n6ZTrAl3V2-ny0]--></g></svg>