<?xml version="1.0" encoding="UTF-8" standalone="no"?><svg xmlns="http://www.w3.org/2000/svg" xmlns:xlink="http://www.w3.org/1999/xlink" contentStyleType="text/css" height="664px" preserveAspectRatio="none" style="width:1714px;height:664px;background:#FFFFFF;" version="1.1" viewBox="0 0 1714 664" width="1714px" zoomAndPan="magnify"><defs/><g><rect fill="#FFFFFF" height="422.7188" style="stroke:#181818;stroke-width:1.0;" width="10" x="84.5" y="111.3125"/><rect fill="#FFFFFF" height="39.1563" style="stroke:#181818;stroke-width:1.0;" width="10" x="527.5" y="142.4688"/><rect fill="#FFFFFF" height="313.25" style="stroke:#181818;stroke-width:1.0;" width="10" x="527.5" y="220.7813"/><rect fill="#FFFFFF" height="195.7813" style="stroke:#181818;stroke-width:1.0;" width="10" x="854.5" y="259.9375"/><rect fill="#FFFFFF" height="39.1563" style="stroke:#181818;stroke-width:1.0;" width="10" x="1217.5" y="299.0938"/><rect fill="#FFFFFF" height="39.1563" style="stroke:#181818;stroke-width:1.0;" width="10" x="1217.5" y="377.4063"/><rect fill="#FFFFFF" height="39.1563" style="stroke:#181818;stroke-width:1.0;" width="10" x="1217.5" y="455.7188"/><rect fill="#FFFFFF" height="48.1563" style="stroke:#181818;stroke-width:1.0;" width="10" x="1591.5" y="494.875"/><line style="stroke:#181818;stroke-width:0.5;stroke-dasharray:5.0,5.0;" x1="89" x2="89" y1="101.3125" y2="552.0313"/><line style="stroke:#181818;stroke-width:0.5;stroke-dasharray:5.0,5.0;" x1="532.5" x2="532.5" y1="101.3125" y2="552.0313"/><line style="stroke:#181818;stroke-width:0.5;stroke-dasharray:5.0,5.0;" x1="859.5" x2="859.5" y1="101.3125" y2="552.0313"/><line style="stroke:#181818;stroke-width:0.5;stroke-dasharray:5.0,5.0;" x1="1222.5" x2="1222.5" y1="101.3125" y2="552.0313"/><line style="stroke:#181818;stroke-width:0.5;stroke-dasharray:5.0,5.0;" x1="1596.5" x2="1596.5" y1="101.3125" y2="552.0313"/><text fill="#000000" font-family="sans-serif" font-size="20" lengthAdjust="spacing" textLength="163" x="5" y="96.918">CustomerManager</text><ellipse cx="89.5" cy="24.6563" fill="#E2E2F0" rx="8" ry="8" style="stroke:#181818;stroke-width:0.5;"/><path d="M89.5,32.6563 L89.5,59.6563 M76.5,40.6563 L102.5,40.6563 M89.5,59.6563 L76.5,74.6563 M89.5,59.6563 L102.5,74.6563 " fill="none" style="stroke:#181818;stroke-width:0.5;"/><text fill="#000000" font-family="sans-serif" font-size="20" lengthAdjust="spacing" textLength="163" x="5" y="571.793">CustomerManager</text><ellipse cx="89.5" cy="584.6875" fill="#E2E2F0" rx="8" ry="8" style="stroke:#181818;stroke-width:0.5;"/><path d="M89.5,592.6875 L89.5,619.6875 M76.5,600.6875 L102.5,600.6875 M89.5,619.6875 L76.5,634.6875 M89.5,619.6875 L102.5,634.6875 " fill="none" style="stroke:#181818;stroke-width:0.5;"/><rect fill="#E2E2F0" height="64.3125" rx="2.5" ry="2.5" style="stroke:#181818;stroke-width:0.5;" width="242" x="411.5" y="36"/><text fill="#000000" font-family="sans-serif" font-size="20" font-style="italic" lengthAdjust="spacing" textLength="131" x="467" y="63.7617">«presentation»</text><text fill="#000000" font-family="sans-serif" font-size="20" lengthAdjust="spacing" textLength="228" x="418.5" y="88.918">UploadInterviewTextFileUI</text><rect fill="#E2E2F0" height="64.3125" rx="2.5" ry="2.5" style="stroke:#181818;stroke-width:0.5;" width="242" x="411.5" y="551.0313"/><text fill="#000000" font-family="sans-serif" font-size="20" font-style="italic" lengthAdjust="spacing" textLength="131" x="467" y="578.793">«presentation»</text><text fill="#000000" font-family="sans-serif" font-size="20" lengthAdjust="spacing" textLength="228" x="418.5" y="603.9492">UploadInterviewTextFileUI</text><rect fill="#E2E2F0" height="64.3125" rx="2.5" ry="2.5" style="stroke:#181818;stroke-width:0.5;" width="308" x="705.5" y="36"/><text fill="#000000" font-family="sans-serif" font-size="20" font-style="italic" lengthAdjust="spacing" textLength="118" x="800.5" y="63.7617">«application»</text><text fill="#000000" font-family="sans-serif" font-size="20" lengthAdjust="spacing" textLength="294" x="712.5" y="88.918">UploadInterviewTextFileController</text><rect fill="#E2E2F0" height="64.3125" rx="2.5" ry="2.5" style="stroke:#181818;stroke-width:0.5;" width="308" x="705.5" y="551.0313"/><text fill="#000000" font-family="sans-serif" font-size="20" font-style="italic" lengthAdjust="spacing" textLength="118" x="800.5" y="578.793">«application»</text><text fill="#000000" font-family="sans-serif" font-size="20" lengthAdjust="spacing" textLength="294" x="712.5" y="603.9492">UploadInterviewTextFileController</text><rect fill="#E2E2F0" height="64.3125" rx="2.5" ry="2.5" style="stroke:#181818;stroke-width:0.5;" width="288" x="1078.5" y="36"/><text fill="#000000" font-family="sans-serif" font-size="20" font-style="italic" lengthAdjust="spacing" textLength="86" x="1179.5" y="63.7617">«service»</text><text fill="#000000" font-family="sans-serif" font-size="20" lengthAdjust="spacing" textLength="274" x="1085.5" y="88.918">UploadInterviewTextFileService</text><rect fill="#E2E2F0" height="64.3125" rx="2.5" ry="2.5" style="stroke:#181818;stroke-width:0.5;" width="288" x="1078.5" y="551.0313"/><text fill="#000000" font-family="sans-serif" font-size="20" font-style="italic" lengthAdjust="spacing" textLength="86" x="1179.5" y="578.793">«service»</text><text fill="#000000" font-family="sans-serif" font-size="20" lengthAdjust="spacing" textLength="274" x="1085.5" y="603.9492">UploadInterviewTextFileService</text><text fill="#000000" font-family="sans-serif" font-size="20" font-style="italic" lengthAdjust="spacing" textLength="110" x="1538.5" y="71.7617">«repository»</text><text fill="#000000" font-family="sans-serif" font-size="20" lengthAdjust="spacing" textLength="228" x="1479.5" y="96.918">InterviewModelRepository</text><path d="M1578.5,15 C1578.5,5 1596.5,5 1596.5,5 C1596.5,5 1614.5,5 1614.5,15 L1614.5,41 C1614.5,51 1596.5,51 1596.5,51 C1596.5,51 1578.5,51 1578.5,41 L1578.5,15 " fill="#E2E2F0" style="stroke:#181818;stroke-width:1.5;"/><path d="M1578.5,15 C1578.5,25 1596.5,25 1596.5,25 C1596.5,25 1614.5,25 1614.5,15 " fill="none" style="stroke:#181818;stroke-width:1.5;"/><text fill="#000000" font-family="sans-serif" font-size="20" font-style="italic" lengthAdjust="spacing" textLength="110" x="1538.5" y="571.793">«repository»</text><text fill="#000000" font-family="sans-serif" font-size="20" lengthAdjust="spacing" textLength="228" x="1479.5" y="596.9492">InterviewModelRepository</text><path d="M1578.5,611.3438 C1578.5,601.3438 1596.5,601.3438 1596.5,601.3438 C1596.5,601.3438 1614.5,601.3438 1614.5,611.3438 L1614.5,637.3438 C1614.5,647.3438 1596.5,647.3438 1596.5,647.3438 C1596.5,647.3438 1578.5,647.3438 1578.5,637.3438 L1578.5,611.3438 " fill="#E2E2F0" style="stroke:#181818;stroke-width:1.5;"/><path d="M1578.5,611.3438 C1578.5,621.3438 1596.5,621.3438 1596.5,621.3438 C1596.5,621.3438 1614.5,621.3438 1614.5,611.3438 " fill="none" style="stroke:#181818;stroke-width:1.5;"/><rect fill="#FFFFFF" height="422.7188" style="stroke:#181818;stroke-width:1.0;" width="10" x="84.5" y="111.3125"/><rect fill="#FFFFFF" height="39.1563" style="stroke:#181818;stroke-width:1.0;" width="10" x="527.5" y="142.4688"/><rect fill="#FFFFFF" height="313.25" style="stroke:#181818;stroke-width:1.0;" width="10" x="527.5" y="220.7813"/><rect fill="#FFFFFF" height="195.7813" style="stroke:#181818;stroke-width:1.0;" width="10" x="854.5" y="259.9375"/><rect fill="#FFFFFF" height="39.1563" style="stroke:#181818;stroke-width:1.0;" width="10" x="1217.5" y="299.0938"/><rect fill="#FFFFFF" height="39.1563" style="stroke:#181818;stroke-width:1.0;" width="10" x="1217.5" y="377.4063"/><rect fill="#FFFFFF" height="39.1563" style="stroke:#181818;stroke-width:1.0;" width="10" x="1217.5" y="455.7188"/><rect fill="#FFFFFF" height="48.1563" style="stroke:#181818;stroke-width:1.0;" width="10" x="1591.5" y="494.875"/><polygon fill="#181818" points="515.5,138.4688,525.5,142.4688,515.5,146.4688,519.5,142.4688" style="stroke:#181818;stroke-width:1.0;"/><line style="stroke:#181818;stroke-width:1.0;" x1="94.5" x2="521.5" y1="142.4688" y2="142.4688"/><text fill="#000000" font-family="sans-serif" font-size="20" font-weight="bold" lengthAdjust="spacing" textLength="11" x="101.5" y="136.0742">1</text><text fill="#000000" font-family="sans-serif" font-size="20" lengthAdjust="spacing" textLength="399" x="116.5" y="136.0742">asks the system to upload a interview text file</text><polygon fill="#181818" points="105.5,177.625,95.5,181.625,105.5,185.625,101.5,181.625" style="stroke:#181818;stroke-width:1.0;"/><line style="stroke:#181818;stroke-width:1.0;stroke-dasharray:2.0,2.0;" x1="99.5" x2="531.5" y1="181.625" y2="181.625"/><text fill="#000000" font-family="sans-serif" font-size="20" font-weight="bold" lengthAdjust="spacing" textLength="11" x="111.5" y="175.2305">2</text><text fill="#000000" font-family="sans-serif" font-size="20" lengthAdjust="spacing" textLength="369" x="126.5" y="175.2305">requests the user to select a file to upload</text><polygon fill="#181818" points="515.5,216.7813,525.5,220.7813,515.5,224.7813,519.5,220.7813" style="stroke:#181818;stroke-width:1.0;"/><line style="stroke:#181818;stroke-width:1.0;" x1="94.5" x2="521.5" y1="220.7813" y2="220.7813"/><text fill="#000000" font-family="sans-serif" font-size="20" font-weight="bold" lengthAdjust="spacing" textLength="11" x="101.5" y="214.3867">3</text><text fill="#000000" font-family="sans-serif" font-size="20" lengthAdjust="spacing" textLength="251" x="116.5" y="214.3867">selects the text file to upload</text><polygon fill="#181818" points="842.5,255.9375,852.5,259.9375,842.5,263.9375,846.5,259.9375" style="stroke:#181818;stroke-width:1.0;"/><line style="stroke:#181818;stroke-width:1.0;" x1="537.5" x2="848.5" y1="259.9375" y2="259.9375"/><text fill="#000000" font-family="sans-serif" font-size="20" font-weight="bold" lengthAdjust="spacing" textLength="11" x="544.5" y="253.543">4</text><text fill="#000000" font-family="sans-serif" font-size="20" lengthAdjust="spacing" textLength="283" x="559.5" y="253.543">uploadInterviewTextFile(filepath)</text><polygon fill="#181818" points="1205.5,295.0938,1215.5,299.0938,1205.5,303.0938,1209.5,299.0938" style="stroke:#181818;stroke-width:1.0;"/><line style="stroke:#181818;stroke-width:1.0;" x1="864.5" x2="1211.5" y1="299.0938" y2="299.0938"/><text fill="#000000" font-family="sans-serif" font-size="20" font-weight="bold" lengthAdjust="spacing" textLength="11" x="871.5" y="292.6992">5</text><text fill="#000000" font-family="sans-serif" font-size="20" lengthAdjust="spacing" textLength="161" x="886.5" y="292.6992">obtainFile(filepath)</text><polygon fill="#181818" points="875.5,334.25,865.5,338.25,875.5,342.25,871.5,338.25" style="stroke:#181818;stroke-width:1.0;"/><line style="stroke:#181818;stroke-width:1.0;stroke-dasharray:2.0,2.0;" x1="869.5" x2="1221.5" y1="338.25" y2="338.25"/><text fill="#000000" font-family="sans-serif" font-size="20" font-weight="bold" lengthAdjust="spacing" textLength="11" x="881.5" y="331.8555">6</text><text fill="#000000" font-family="sans-serif" font-size="20" lengthAdjust="spacing" textLength="25" x="896.5" y="331.8555">file</text><polygon fill="#181818" points="1205.5,373.4063,1215.5,377.4063,1205.5,381.4063,1209.5,377.4063" style="stroke:#181818;stroke-width:1.0;"/><line style="stroke:#181818;stroke-width:1.0;" x1="864.5" x2="1211.5" y1="377.4063" y2="377.4063"/><text fill="#000000" font-family="sans-serif" font-size="20" font-weight="bold" lengthAdjust="spacing" textLength="11" x="871.5" y="371.0117">7</text><text fill="#000000" font-family="sans-serif" font-size="20" lengthAdjust="spacing" textLength="202" x="886.5" y="371.0117">convertFileContent(file)</text><polygon fill="#181818" points="875.5,412.5625,865.5,416.5625,875.5,420.5625,871.5,416.5625" style="stroke:#181818;stroke-width:1.0;"/><line style="stroke:#181818;stroke-width:1.0;stroke-dasharray:2.0,2.0;" x1="869.5" x2="1221.5" y1="416.5625" y2="416.5625"/><text fill="#000000" font-family="sans-serif" font-size="20" font-weight="bold" lengthAdjust="spacing" textLength="11" x="881.5" y="410.168">8</text><text fill="#000000" font-family="sans-serif" font-size="20" lengthAdjust="spacing" textLength="131" x="896.5" y="410.168">interviewModel</text><polygon fill="#181818" points="1205.5,451.7188,1215.5,455.7188,1205.5,459.7188,1209.5,455.7188" style="stroke:#181818;stroke-width:1.0;"/><line style="stroke:#181818;stroke-width:1.0;" x1="859.5" x2="1211.5" y1="455.7188" y2="455.7188"/><text fill="#000000" font-family="sans-serif" font-size="20" font-weight="bold" lengthAdjust="spacing" textLength="11" x="866.5" y="449.3242">9</text><text fill="#000000" font-family="sans-serif" font-size="20" lengthAdjust="spacing" textLength="319" x="881.5" y="449.3242">saveInterviewModel(interviewModel)</text><polygon fill="#181818" points="1579.5,490.875,1589.5,494.875,1579.5,498.875,1583.5,494.875" style="stroke:#181818;stroke-width:1.0;"/><line style="stroke:#181818;stroke-width:1.0;" x1="1222.5" x2="1585.5" y1="494.875" y2="494.875"/><text fill="#000000" font-family="sans-serif" font-size="20" font-weight="bold" lengthAdjust="spacing" textLength="22" x="1229.5" y="488.4805">10</text><text fill="#000000" font-family="sans-serif" font-size="20" lengthAdjust="spacing" textLength="319" x="1255.5" y="488.4805">saveInterviewModel(interviewModel)</text><polygon fill="#181818" points="100.5,530.0313,90.5,534.0313,100.5,538.0313,96.5,534.0313" style="stroke:#181818;stroke-width:1.0;"/><line style="stroke:#181818;stroke-width:1.0;stroke-dasharray:2.0,2.0;" x1="94.5" x2="531.5" y1="534.0313" y2="534.0313"/><text fill="#000000" font-family="sans-serif" font-size="20" font-weight="bold" lengthAdjust="spacing" textLength="22" x="106.5" y="527.6367">11</text><text fill="#000000" font-family="sans-serif" font-size="20" lengthAdjust="spacing" textLength="229" x="132.5" y="527.6367">informs operation success</text><!--SRC=[bPC_R-Cm3CLtVGeYKpi4E7GC2Yy62WGuBqdJdR6PLeWiwIGwr_RJbv8R_xbBW4QRHRuVdnxeUDJMOy3MkFf83JHqmCxmaxEyrPy43xyKTknir-ufA8Krkm2BieliMWeLMdobi02CK5PAGAnhxT4oB7RUE6pMbYcSDFrzfdT-qePswzozMyFZemyKoJAoThOeVYGlnLXmnfo7Fcz-2mYzDxg-XRDDdpLboFQb54RiRqIl6cJSOoGOP9Lho6p8kwWbW8yyUYEYC5mbdQIZJyYKib1b1SiYlNCbtSS8_4OGFo9J2-oWoxO0GPz708irE8YtaRDRAoM4fO04ju90VpgAtCCwSPnGaGpLBAYa7TcgeHbdugTNz9HXwaGvqu6SvA7emrvzD_sNw5s2UEIt-omPin1LJqadCuILCb-1spDgUq4z8qZlS9bEqYv7FpcoSstow2IxDhXszaHXs2XPmcpWzk5wjY5NRLns4V54ynMxc_FkBm5pe3_pMQGjlMdE1VFJqcXYSqqYbVdIQdjmeOtWF8NyYqBiwffYLF-kw9HIgIy0]--></g></svg>