<?xml version="1.0" encoding="UTF-8" standalone="no"?><svg xmlns="http://www.w3.org/2000/svg" xmlns:xlink="http://www.w3.org/1999/xlink" contentStyleType="text/css" height="927px" preserveAspectRatio="none" style="width:1169px;height:927px;background:#FFFFFF;" version="1.1" viewBox="0 0 1169 927" width="1169px" zoomAndPan="magnify"><defs/><g><!--class ListCandidateInfoUI--><g id="elem_ListCandidateInfoUI"><rect codeLine="3" fill="#F1F1F1" height="151.7813" id="ListCandidateInfoUI" rx="2.5" ry="2.5" style="stroke:#181818;stroke-width:0.5;" width="206" x="525.5" y="7"/><ellipse cx="541.5" cy="24.5781" fill="#ADD1B2" rx="12" ry="12" style="stroke:#181818;stroke-width:1.0;"/><path d="M543.6406,19.5 Q543.8281,19.25 544.0469,19.125 Q544.2656,18.9844 544.5156,18.9844 Q544.9531,18.9844 545.2344,19.2969 Q545.5156,19.5938 545.5156,20.3125 L545.5156,22.0156 Q545.5156,22.7344 545.2344,23.0469 Q544.9531,23.3594 544.5156,23.3594 Q544.125,23.3594 543.875,23.125 Q543.625,22.9063 543.5156,22.2969 Q543.4531,21.875 543.2344,21.6563 Q542.8438,21.2188 542.125,20.9531 Q541.4063,20.6875 540.6875,20.6875 Q539.7813,20.6875 539.0313,21.0781 Q538.2813,21.4688 537.7031,22.3594 Q537.125,23.2344 537.125,24.4375 L537.125,25.7344 Q537.125,27.1875 538.1719,28.1563 Q539.2344,29.125 541.0938,29.125 Q542.2031,29.125 542.9844,28.8125 Q543.4219,28.6406 543.9375,28.125 Q544.25,27.8125 544.4219,27.7188 Q544.5938,27.625 544.8281,27.625 Q545.2188,27.625 545.5156,27.9375 Q545.8281,28.2344 545.8281,28.6406 Q545.8281,29.0469 545.4219,29.5156 Q544.8281,30.2031 543.8906,30.5938 Q542.625,31.125 541.1094,31.125 Q539.3281,31.125 537.9063,30.3906 Q536.75,29.7969 535.9375,28.5313 Q535.125,27.2656 535.125,25.7813 L535.125,24.4219 Q535.125,22.8594 535.8438,21.5156 Q536.5781,20.1563 537.8594,19.4219 Q539.1563,18.6875 540.6094,18.6875 Q541.4688,18.6875 542.2188,18.8906 Q542.9844,19.0938 543.6406,19.5 Z " fill="#000000"/><text fill="#000000" font-family="sans-serif" font-size="20" lengthAdjust="spacing" textLength="172" x="556.5" y="32.7617">ListCandidateInfoUI</text><line style="stroke:#181818;stroke-width:0.5;" x1="526.5" x2="730.5" y1="42.1563" y2="42.1563"/><rect fill="none" height="6" style="stroke:#C82930;stroke-width:1.0;" width="6" x="533.5" y="57.2344"/><text fill="#000000" font-family="sans-serif" font-size="20" lengthAdjust="spacing" textLength="112" x="546.5" y="66.918">theController</text><rect fill="none" height="6" style="stroke:#C82930;stroke-width:1.0;" width="6" x="533.5" y="82.3906"/><text fill="#000000" font-family="sans-serif" font-size="20" lengthAdjust="spacing" textLength="109" x="546.5" y="92.0742">listController</text><line style="stroke:#181818;stroke-width:0.5;" x1="526.5" x2="730.5" y1="100.4688" y2="100.4688"/><ellipse cx="536.5" cy="118.5469" fill="#84BE84" rx="3" ry="3" style="stroke:#038048;stroke-width:1.0;"/><text fill="#000000" font-family="sans-serif" font-size="20" lengthAdjust="spacing" textLength="85" x="546.5" y="125.2305">doShow()</text><ellipse cx="536.5" cy="143.7031" fill="#84BE84" rx="3" ry="3" style="stroke:#038048;stroke-width:1.0;"/><text fill="#000000" font-family="sans-serif" font-size="20" lengthAdjust="spacing" textLength="86" x="546.5" y="150.3867">headline()</text></g><!--class ListCandidateInfoController--><g id="elem_ListCandidateInfoController"><rect codeLine="11" fill="#F1F1F1" height="126.625" id="ListCandidateInfoController" rx="2.5" ry="2.5" style="stroke:#181818;stroke-width:0.5;" width="272" x="45.5" y="219"/><ellipse cx="61.5" cy="236.5781" fill="#ADD1B2" rx="12" ry="12" style="stroke:#181818;stroke-width:1.0;"/><path d="M63.6406,231.5 Q63.8281,231.25 64.0469,231.125 Q64.2656,230.9844 64.5156,230.9844 Q64.9531,230.9844 65.2344,231.2969 Q65.5156,231.5938 65.5156,232.3125 L65.5156,234.0156 Q65.5156,234.7344 65.2344,235.0469 Q64.9531,235.3594 64.5156,235.3594 Q64.125,235.3594 63.875,235.125 Q63.625,234.9063 63.5156,234.2969 Q63.4531,233.875 63.2344,233.6563 Q62.8438,233.2188 62.125,232.9531 Q61.4063,232.6875 60.6875,232.6875 Q59.7813,232.6875 59.0313,233.0781 Q58.2813,233.4688 57.7031,234.3594 Q57.125,235.2344 57.125,236.4375 L57.125,237.7344 Q57.125,239.1875 58.1719,240.1563 Q59.2344,241.125 61.0938,241.125 Q62.2031,241.125 62.9844,240.8125 Q63.4219,240.6406 63.9375,240.125 Q64.25,239.8125 64.4219,239.7188 Q64.5938,239.625 64.8281,239.625 Q65.2188,239.625 65.5156,239.9375 Q65.8281,240.2344 65.8281,240.6406 Q65.8281,241.0469 65.4219,241.5156 Q64.8281,242.2031 63.8906,242.5938 Q62.625,243.125 61.1094,243.125 Q59.3281,243.125 57.9063,242.3906 Q56.75,241.7969 55.9375,240.5313 Q55.125,239.2656 55.125,237.7813 L55.125,236.4219 Q55.125,234.8594 55.8438,233.5156 Q56.5781,232.1563 57.8594,231.4219 Q59.1563,230.6875 60.6094,230.6875 Q61.4688,230.6875 62.2188,230.8906 Q62.9844,231.0938 63.6406,231.5 Z " fill="#000000"/><text fill="#000000" font-family="sans-serif" font-size="20" lengthAdjust="spacing" textLength="238" x="76.5" y="244.7617">ListCandidateInfoController</text><line style="stroke:#181818;stroke-width:0.5;" x1="46.5" x2="316.5" y1="254.1563" y2="254.1563"/><rect fill="none" height="6" style="stroke:#C82930;stroke-width:1.0;" width="6" x="53.5" y="269.2344"/><text fill="#000000" font-family="sans-serif" font-size="20" lengthAdjust="spacing" textLength="46" x="66.5" y="278.918">authz</text><rect fill="none" height="6" style="stroke:#C82930;stroke-width:1.0;" width="6" x="53.5" y="294.3906"/><text fill="#000000" font-family="sans-serif" font-size="20" lengthAdjust="spacing" textLength="70" x="66.5" y="304.0742">userSvc</text><line style="stroke:#181818;stroke-width:0.5;" x1="46.5" x2="316.5" y1="312.4688" y2="312.4688"/><ellipse cx="56.5" cy="330.5469" fill="#84BE84" rx="3" ry="3" style="stroke:#038048;stroke-width:1.0;"/><text fill="#000000" font-family="sans-serif" font-size="20" lengthAdjust="spacing" textLength="205" x="66.5" y="337.2305">getCandidateByName()</text></g><!--class ListCandidatesController--><g id="elem_ListCandidatesController"><rect codeLine="17" fill="#F1F1F1" height="126.625" id="ListCandidatesController" rx="2.5" ry="2.5" style="stroke:#181818;stroke-width:0.5;" width="249" x="353" y="219"/><ellipse cx="369" cy="236.5781" fill="#ADD1B2" rx="12" ry="12" style="stroke:#181818;stroke-width:1.0;"/><path d="M371.1406,231.5 Q371.3281,231.25 371.5469,231.125 Q371.7656,230.9844 372.0156,230.9844 Q372.4531,230.9844 372.7344,231.2969 Q373.0156,231.5938 373.0156,232.3125 L373.0156,234.0156 Q373.0156,234.7344 372.7344,235.0469 Q372.4531,235.3594 372.0156,235.3594 Q371.625,235.3594 371.375,235.125 Q371.125,234.9063 371.0156,234.2969 Q370.9531,233.875 370.7344,233.6563 Q370.3438,233.2188 369.625,232.9531 Q368.9063,232.6875 368.1875,232.6875 Q367.2813,232.6875 366.5313,233.0781 Q365.7813,233.4688 365.2031,234.3594 Q364.625,235.2344 364.625,236.4375 L364.625,237.7344 Q364.625,239.1875 365.6719,240.1563 Q366.7344,241.125 368.5938,241.125 Q369.7031,241.125 370.4844,240.8125 Q370.9219,240.6406 371.4375,240.125 Q371.75,239.8125 371.9219,239.7188 Q372.0938,239.625 372.3281,239.625 Q372.7188,239.625 373.0156,239.9375 Q373.3281,240.2344 373.3281,240.6406 Q373.3281,241.0469 372.9219,241.5156 Q372.3281,242.2031 371.3906,242.5938 Q370.125,243.125 368.6094,243.125 Q366.8281,243.125 365.4063,242.3906 Q364.25,241.7969 363.4375,240.5313 Q362.625,239.2656 362.625,237.7813 L362.625,236.4219 Q362.625,234.8594 363.3438,233.5156 Q364.0781,232.1563 365.3594,231.4219 Q366.6563,230.6875 368.1094,230.6875 Q368.9688,230.6875 369.7188,230.8906 Q370.4844,231.0938 371.1406,231.5 Z " fill="#000000"/><text fill="#000000" font-family="sans-serif" font-size="20" lengthAdjust="spacing" textLength="215" x="384" y="244.7617">ListCandidatesController</text><line style="stroke:#181818;stroke-width:0.5;" x1="354" x2="601" y1="254.1563" y2="254.1563"/><rect fill="none" height="6" style="stroke:#C82930;stroke-width:1.0;" width="6" x="361" y="269.2344"/><text fill="#000000" font-family="sans-serif" font-size="20" lengthAdjust="spacing" textLength="46" x="374" y="278.918">authz</text><rect fill="none" height="6" style="stroke:#C82930;stroke-width:1.0;" width="6" x="361" y="294.3906"/><text fill="#000000" font-family="sans-serif" font-size="20" lengthAdjust="spacing" textLength="70" x="374" y="304.0742">userSvc</text><line style="stroke:#181818;stroke-width:0.5;" x1="354" x2="601" y1="312.4688" y2="312.4688"/><ellipse cx="364" cy="330.5469" fill="#84BE84" rx="3" ry="3" style="stroke:#038048;stroke-width:1.0;"/><text fill="#000000" font-family="sans-serif" font-size="20" lengthAdjust="spacing" textLength="188" x="374" y="337.2305">listCandidatesUsers()</text></g><!--class ApplicationSearchController--><g id="elem_ApplicationSearchController"><rect codeLine="22" fill="#F1F1F1" height="101.4688" id="ApplicationSearchController" rx="2.5" ry="2.5" style="stroke:#181818;stroke-width:0.5;" width="284" x="637.5" y="232"/><ellipse cx="657.1" cy="249.5781" fill="#ADD1B2" rx="12" ry="12" style="stroke:#181818;stroke-width:1.0;"/><path d="M659.2406,244.5 Q659.4281,244.25 659.6469,244.125 Q659.8656,243.9844 660.1156,243.9844 Q660.5531,243.9844 660.8344,244.2969 Q661.1156,244.5938 661.1156,245.3125 L661.1156,247.0156 Q661.1156,247.7344 660.8344,248.0469 Q660.5531,248.3594 660.1156,248.3594 Q659.725,248.3594 659.475,248.125 Q659.225,247.9063 659.1156,247.2969 Q659.0531,246.875 658.8344,246.6563 Q658.4438,246.2188 657.725,245.9531 Q657.0063,245.6875 656.2875,245.6875 Q655.3813,245.6875 654.6313,246.0781 Q653.8813,246.4688 653.3031,247.3594 Q652.725,248.2344 652.725,249.4375 L652.725,250.7344 Q652.725,252.1875 653.7719,253.1563 Q654.8344,254.125 656.6938,254.125 Q657.8031,254.125 658.5844,253.8125 Q659.0219,253.6406 659.5375,253.125 Q659.85,252.8125 660.0219,252.7188 Q660.1938,252.625 660.4281,252.625 Q660.8188,252.625 661.1156,252.9375 Q661.4281,253.2344 661.4281,253.6406 Q661.4281,254.0469 661.0219,254.5156 Q660.4281,255.2031 659.4906,255.5938 Q658.225,256.125 656.7094,256.125 Q654.9281,256.125 653.5063,255.3906 Q652.35,254.7969 651.5375,253.5313 Q650.725,252.2656 650.725,250.7813 L650.725,249.4219 Q650.725,247.8594 651.4438,246.5156 Q652.1781,245.1563 653.4594,244.4219 Q654.7563,243.6875 656.2094,243.6875 Q657.0688,243.6875 657.8188,243.8906 Q658.5844,244.0938 659.2406,244.5 Z " fill="#000000"/><text fill="#000000" font-family="sans-serif" font-size="20" lengthAdjust="spacing" textLength="242" x="672.9" y="257.7617">ApplicationSearchController</text><line style="stroke:#181818;stroke-width:0.5;" x1="638.5" x2="920.5" y1="267.1563" y2="267.1563"/><rect fill="none" height="6" style="stroke:#C82930;stroke-width:1.0;" width="6" x="645.5" y="282.2344"/><text fill="#000000" font-family="sans-serif" font-size="20" lengthAdjust="spacing" textLength="188" x="658.5" y="291.918">applicationRepository</text><line style="stroke:#181818;stroke-width:0.5;" x1="638.5" x2="920.5" y1="300.3125" y2="300.3125"/><ellipse cx="648.5" cy="318.3906" fill="#84BE84" rx="3" ry="3" style="stroke:#038048;stroke-width:1.0;"/><text fill="#000000" font-family="sans-serif" font-size="20" lengthAdjust="spacing" textLength="257" x="658.5" y="325.0742">searchCandidateApplication()</text></g><!--class ApplicationRepository--><g id="elem_ApplicationRepository"><rect codeLine="26" fill="#F1F1F1" height="151.7813" id="ApplicationRepository" rx="2.5" ry="2.5" style="stroke:#181818;stroke-width:0.5;" width="268" x="687.5" y="519"/><ellipse cx="721.95" cy="536.5781" fill="#B4A7E5" rx="12" ry="12" style="stroke:#181818;stroke-width:1.0;"/><path d="M722.95,532.75 L722.95,540.5781 L724.9813,540.5781 Q725.7,540.5781 725.9969,540.8594 Q726.3094,541.125 726.3094,541.5781 Q726.3094,542.0156 725.9969,542.2969 Q725.7,542.5781 724.9813,542.5781 L718.9344,542.5781 Q718.2,542.5781 717.8875,542.2969 Q717.5906,542.0156 717.5906,541.5781 Q717.5906,541.125 717.8875,540.8594 Q718.2,540.5781 718.9344,540.5781 L720.95,540.5781 L720.95,532.75 L718.9344,532.75 Q718.2,532.75 717.8875,532.4688 Q717.5906,532.1875 717.5906,531.7344 Q717.5906,531.2813 717.8875,531.0156 Q718.2,530.7344 718.9344,530.7344 L724.9813,530.7344 Q725.7,530.7344 725.9969,531.0156 Q726.3094,531.2813 726.3094,531.7344 Q726.3094,532.1875 725.9969,532.4688 Q725.7,532.75 724.9813,532.75 L722.95,532.75 Z " fill="#000000"/><text fill="#000000" font-family="sans-serif" font-size="20" font-style="italic" lengthAdjust="spacing" textLength="193" x="741.05" y="544.7617">ApplicationRepository</text><line style="stroke:#181818;stroke-width:0.5;" x1="688.5" x2="954.5" y1="554.1563" y2="554.1563"/><line style="stroke:#181818;stroke-width:0.5;" x1="688.5" x2="954.5" y1="562.1563" y2="562.1563"/><rect fill="#F24D5C" height="6" style="stroke:#C82930;stroke-width:1.0;" width="6" x="695.5" y="577.2344"/><text fill="#000000" font-family="sans-serif" font-size="20" lengthAdjust="spacing" textLength="165" x="708.5" y="586.918">findByReference();</text><rect fill="#F24D5C" height="6" style="stroke:#C82930;stroke-width:1.0;" width="6" x="695.5" y="602.3906"/><text fill="#000000" font-family="sans-serif" font-size="20" lengthAdjust="spacing" textLength="143" x="708.5" y="612.0742">findAllByEmail();</text><rect fill="#F24D5C" height="6" style="stroke:#C82930;stroke-width:1.0;" width="6" x="695.5" y="627.5469"/><text fill="#000000" font-family="sans-serif" font-size="20" lengthAdjust="spacing" textLength="241" x="708.5" y="637.2305">findByEmailAndReference()</text><rect fill="#F24D5C" height="6" style="stroke:#C82930;stroke-width:1.0;" width="6" x="695.5" y="652.7031"/><text fill="#000000" font-family="sans-serif" font-size="20" lengthAdjust="spacing" textLength="66" x="708.5" y="662.3867">findAll()</text></g><!--class AuthorizationService--><g id="elem_AuthorizationService"><rect codeLine="32" fill="#F1F1F1" height="302.7188" id="AuthorizationService" rx="2.5" ry="2.5" style="stroke:#181818;stroke-width:0.5;" width="349" x="303" y="443.5"/><ellipse cx="384.5" cy="461.0781" fill="#ADD1B2" rx="12" ry="12" style="stroke:#181818;stroke-width:1.0;"/><path d="M386.6406,456 Q386.8281,455.75 387.0469,455.625 Q387.2656,455.4844 387.5156,455.4844 Q387.9531,455.4844 388.2344,455.7969 Q388.5156,456.0938 388.5156,456.8125 L388.5156,458.5156 Q388.5156,459.2344 388.2344,459.5469 Q387.9531,459.8594 387.5156,459.8594 Q387.125,459.8594 386.875,459.625 Q386.625,459.4063 386.5156,458.7969 Q386.4531,458.375 386.2344,458.1563 Q385.8438,457.7188 385.125,457.4531 Q384.4063,457.1875 383.6875,457.1875 Q382.7813,457.1875 382.0313,457.5781 Q381.2813,457.9688 380.7031,458.8594 Q380.125,459.7344 380.125,460.9375 L380.125,462.2344 Q380.125,463.6875 381.1719,464.6563 Q382.2344,465.625 384.0938,465.625 Q385.2031,465.625 385.9844,465.3125 Q386.4219,465.1406 386.9375,464.625 Q387.25,464.3125 387.4219,464.2188 Q387.5938,464.125 387.8281,464.125 Q388.2188,464.125 388.5156,464.4375 Q388.8281,464.7344 388.8281,465.1406 Q388.8281,465.5469 388.4219,466.0156 Q387.8281,466.7031 386.8906,467.0938 Q385.625,467.625 384.1094,467.625 Q382.3281,467.625 380.9063,466.8906 Q379.75,466.2969 378.9375,465.0313 Q378.125,463.7656 378.125,462.2813 L378.125,460.9219 Q378.125,459.3594 378.8438,458.0156 Q379.5781,456.6563 380.8594,455.9219 Q382.1563,455.1875 383.6094,455.1875 Q384.4688,455.1875 385.2188,455.3906 Q385.9844,455.5938 386.6406,456 Z " fill="#000000"/><text fill="#000000" font-family="sans-serif" font-size="20" lengthAdjust="spacing" textLength="177" x="406.5" y="469.2617">AuthorizationService</text><line style="stroke:#181818;stroke-width:0.5;" x1="304" x2="651" y1="478.6563" y2="478.6563"/><rect fill="none" height="6" style="stroke:#C82930;stroke-width:1.0;" width="6" x="311" y="493.7344"/><text fill="#000000" font-family="sans-serif" font-size="20" lengthAdjust="spacing" textLength="86" x="324" y="503.418">LOGGER</text><rect fill="none" height="6" style="stroke:#C82930;stroke-width:1.0;" width="6" x="311" y="518.8906"/><text fill="#000000" font-family="sans-serif" font-size="20" lengthAdjust="spacing" textLength="96" x="324" y="528.5742">theSession</text><line style="stroke:#181818;stroke-width:0.5;" x1="304" x2="651" y1="536.9688" y2="536.9688"/><ellipse cx="314" cy="555.0469" fill="#84BE84" rx="3" ry="3" style="stroke:#038048;stroke-width:1.0;"/><text fill="#000000" font-family="sans-serif" font-size="20" lengthAdjust="spacing" textLength="191" x="324" y="561.7305">AuthorizationService()</text><ellipse cx="314" cy="580.2031" fill="#84BE84" rx="3" ry="3" style="stroke:#038048;stroke-width:1.0;"/><text fill="#000000" font-family="sans-serif" font-size="20" lengthAdjust="spacing" textLength="210" x="324" y="586.8867">createSessionForUser()</text><ellipse cx="314" cy="605.3594" fill="#84BE84" rx="3" ry="3" style="stroke:#038048;stroke-width:1.0;"/><text fill="#000000" font-family="sans-serif" font-size="20" lengthAdjust="spacing" textLength="126" x="324" y="612.043">clearSession()</text><ellipse cx="314" cy="630.5156" fill="#84BE84" rx="3" ry="3" style="stroke:#038048;stroke-width:1.0;"/><text fill="#000000" font-family="sans-serif" font-size="20" lengthAdjust="spacing" textLength="114" x="324" y="637.1992">hasSession()</text><ellipse cx="314" cy="655.6719" fill="#84BE84" rx="3" ry="3" style="stroke:#038048;stroke-width:1.0;"/><text fill="#000000" font-family="sans-serif" font-size="20" lengthAdjust="spacing" textLength="80" x="324" y="662.3555">session()</text><ellipse cx="314" cy="680.8281" fill="#84BE84" rx="3" ry="3" style="stroke:#038048;stroke-width:1.0;"/><text fill="#000000" font-family="sans-serif" font-size="20" lengthAdjust="spacing" textLength="303" x="324" y="687.5117">isAuthenticatedUserAuthorizedTo()</text><ellipse cx="314" cy="705.9844" fill="#84BE84" rx="3" ry="3" style="stroke:#038048;stroke-width:1.0;"/><text fill="#000000" font-family="sans-serif" font-size="20" lengthAdjust="spacing" textLength="322" x="324" y="712.668">ensureAuthenticatedUserHasAnyOf()</text><ellipse cx="314" cy="731.1406" fill="#84BE84" rx="3" ry="3" style="stroke:#038048;stroke-width:1.0;"/><text fill="#000000" font-family="sans-serif" font-size="20" lengthAdjust="spacing" textLength="273" x="324" y="737.8242">loggedinUserWithPermissions()</text></g><!--class UserManagementService--><g id="elem_UserManagementService"><rect codeLine="45" fill="#F1F1F1" height="378.1875" id="UserManagementService" rx="2.5" ry="2.5" style="stroke:#181818;stroke-width:0.5;" width="261" x="7" y="406"/><ellipse cx="26.15" cy="423.5781" fill="#ADD1B2" rx="12" ry="12" style="stroke:#181818;stroke-width:1.0;"/><path d="M28.2906,418.5 Q28.4781,418.25 28.6969,418.125 Q28.9156,417.9844 29.1656,417.9844 Q29.6031,417.9844 29.8844,418.2969 Q30.1656,418.5938 30.1656,419.3125 L30.1656,421.0156 Q30.1656,421.7344 29.8844,422.0469 Q29.6031,422.3594 29.1656,422.3594 Q28.775,422.3594 28.525,422.125 Q28.275,421.9063 28.1656,421.2969 Q28.1031,420.875 27.8844,420.6563 Q27.4938,420.2188 26.775,419.9531 Q26.0563,419.6875 25.3375,419.6875 Q24.4313,419.6875 23.6813,420.0781 Q22.9313,420.4688 22.3531,421.3594 Q21.775,422.2344 21.775,423.4375 L21.775,424.7344 Q21.775,426.1875 22.8219,427.1563 Q23.8844,428.125 25.7438,428.125 Q26.8531,428.125 27.6344,427.8125 Q28.0719,427.6406 28.5875,427.125 Q28.9,426.8125 29.0719,426.7188 Q29.2438,426.625 29.4781,426.625 Q29.8688,426.625 30.1656,426.9375 Q30.4781,427.2344 30.4781,427.6406 Q30.4781,428.0469 30.0719,428.5156 Q29.4781,429.2031 28.5406,429.5938 Q27.275,430.125 25.7594,430.125 Q23.9781,430.125 22.5563,429.3906 Q21.4,428.7969 20.5875,427.5313 Q19.775,426.2656 19.775,424.7813 L19.775,423.4219 Q19.775,421.8594 20.4938,420.5156 Q21.2281,419.1563 22.5094,418.4219 Q23.8063,417.6875 25.2594,417.6875 Q26.1188,417.6875 26.8688,417.8906 Q27.6344,418.0938 28.2906,418.5 Z " fill="#000000"/><text fill="#000000" font-family="sans-serif" font-size="20" lengthAdjust="spacing" textLength="220" x="41.85" y="431.7617">UserManagementService</text><line style="stroke:#181818;stroke-width:0.5;" x1="8" x2="267" y1="441.1563" y2="441.1563"/><rect fill="none" height="6" style="stroke:#C82930;stroke-width:1.0;" width="6" x="15" y="456.2344"/><text fill="#000000" font-family="sans-serif" font-size="20" lengthAdjust="spacing" textLength="133" x="28" y="465.918">userRepository</text><rect fill="none" height="6" style="stroke:#C82930;stroke-width:1.0;" width="6" x="15" y="481.3906"/><text fill="#000000" font-family="sans-serif" font-size="20" lengthAdjust="spacing" textLength="71" x="28" y="491.0742">encoder</text><rect fill="none" height="6" style="stroke:#C82930;stroke-width:1.0;" width="6" x="15" y="506.5469"/><text fill="#000000" font-family="sans-serif" font-size="20" lengthAdjust="spacing" textLength="50" x="28" y="516.2305">policy</text><line style="stroke:#181818;stroke-width:0.5;" x1="8" x2="267" y1="524.625" y2="524.625"/><ellipse cx="18" cy="542.7031" fill="#84BE84" rx="3" ry="3" style="stroke:#038048;stroke-width:1.0;"/><text fill="#000000" font-family="sans-serif" font-size="20" lengthAdjust="spacing" textLength="234" x="28" y="549.3867">UserManagementService()</text><ellipse cx="18" cy="567.8594" fill="#84BE84" rx="3" ry="3" style="stroke:#038048;stroke-width:1.0;"/><text fill="#000000" font-family="sans-serif" font-size="20" lengthAdjust="spacing" textLength="161" x="28" y="574.543">registerNewUser()</text><ellipse cx="18" cy="593.0156" fill="#84BE84" rx="3" ry="3" style="stroke:#038048;stroke-width:1.0;"/><text fill="#000000" font-family="sans-serif" font-size="20" lengthAdjust="spacing" textLength="161" x="28" y="599.6992">registerNewUser()</text><ellipse cx="18" cy="618.1719" fill="#84BE84" rx="3" ry="3" style="stroke:#038048;stroke-width:1.0;"/><text fill="#000000" font-family="sans-serif" font-size="20" lengthAdjust="spacing" textLength="122" x="28" y="624.8555">registerUser()</text><ellipse cx="18" cy="643.3281" fill="#84BE84" rx="3" ry="3" style="stroke:#038048;stroke-width:1.0;"/><text fill="#000000" font-family="sans-serif" font-size="20" lengthAdjust="spacing" textLength="116" x="28" y="650.0117">activeUsers()</text><ellipse cx="18" cy="668.4844" fill="#84BE84" rx="3" ry="3" style="stroke:#038048;stroke-width:1.0;"/><text fill="#000000" font-family="sans-serif" font-size="20" lengthAdjust="spacing" textLength="166" x="28" y="675.168">deactivatedUsers()</text><ellipse cx="18" cy="693.6406" fill="#84BE84" rx="3" ry="3" style="stroke:#038048;stroke-width:1.0;"/><text fill="#000000" font-family="sans-serif" font-size="20" lengthAdjust="spacing" textLength="84" x="28" y="700.3242">allUsers()</text><ellipse cx="18" cy="718.7969" fill="#84BE84" rx="3" ry="3" style="stroke:#038048;stroke-width:1.0;"/><text fill="#000000" font-family="sans-serif" font-size="20" lengthAdjust="spacing" textLength="138" x="28" y="725.4805">userOfIdentity()</text><ellipse cx="18" cy="743.9531" fill="#84BE84" rx="3" ry="3" style="stroke:#038048;stroke-width:1.0;"/><text fill="#000000" font-family="sans-serif" font-size="20" lengthAdjust="spacing" textLength="145" x="28" y="750.6367">deactivateUser()</text><ellipse cx="18" cy="769.1094" fill="#84BE84" rx="3" ry="3" style="stroke:#038048;stroke-width:1.0;"/><text fill="#000000" font-family="sans-serif" font-size="20" lengthAdjust="spacing" textLength="123" x="28" y="775.793">activateUser()</text></g><!--class UserRepository--><g id="elem_UserRepository"><rect codeLine="61" fill="#F1F1F1" height="76.3125" id="UserRepository" rx="2.5" ry="2.5" style="stroke:#181818;stroke-width:0.5;" width="171" x="52" y="844"/><ellipse cx="68" cy="861.5781" fill="#B4A7E5" rx="12" ry="12" style="stroke:#181818;stroke-width:1.0;"/><path d="M69,857.75 L69,865.5781 L71.0313,865.5781 Q71.75,865.5781 72.0469,865.8594 Q72.3594,866.125 72.3594,866.5781 Q72.3594,867.0156 72.0469,867.2969 Q71.75,867.5781 71.0313,867.5781 L64.9844,867.5781 Q64.25,867.5781 63.9375,867.2969 Q63.6406,867.0156 63.6406,866.5781 Q63.6406,866.125 63.9375,865.8594 Q64.25,865.5781 64.9844,865.5781 L67,865.5781 L67,857.75 L64.9844,857.75 Q64.25,857.75 63.9375,857.4688 Q63.6406,857.1875 63.6406,856.7344 Q63.6406,856.2813 63.9375,856.0156 Q64.25,855.7344 64.9844,855.7344 L71.0313,855.7344 Q71.75,855.7344 72.0469,856.0156 Q72.3594,856.2813 72.3594,856.7344 Q72.3594,857.1875 72.0469,857.4688 Q71.75,857.75 71.0313,857.75 L69,857.75 Z " fill="#000000"/><text fill="#000000" font-family="sans-serif" font-size="20" font-style="italic" lengthAdjust="spacing" textLength="137" x="83" y="869.7617">UserRepository</text><line style="stroke:#181818;stroke-width:0.5;" x1="53" x2="222" y1="879.1563" y2="879.1563"/><line style="stroke:#181818;stroke-width:0.5;" x1="53" x2="222" y1="887.1563" y2="887.1563"/><ellipse cx="63" cy="905.2344" fill="#84BE84" rx="3" ry="3" style="stroke:#038048;stroke-width:1.0;"/><text fill="#000000" font-family="sans-serif" font-size="20" lengthAdjust="spacing" textLength="121" x="73" y="911.918">findByActive()</text></g><!--class DateTimeFormatter--><g id="elem_DateTimeFormatter"><rect codeLine="65" fill="#F1F1F1" height="51.1563" id="DateTimeFormatter" rx="2.5" ry="2.5" style="stroke:#181818;stroke-width:0.5;" width="206" x="956.5" y="257"/><ellipse cx="972.5" cy="274.5781" fill="#ADD1B2" rx="12" ry="12" style="stroke:#181818;stroke-width:1.0;"/><path d="M974.6406,269.5 Q974.8281,269.25 975.0469,269.125 Q975.2656,268.9844 975.5156,268.9844 Q975.9531,268.9844 976.2344,269.2969 Q976.5156,269.5938 976.5156,270.3125 L976.5156,272.0156 Q976.5156,272.7344 976.2344,273.0469 Q975.9531,273.3594 975.5156,273.3594 Q975.125,273.3594 974.875,273.125 Q974.625,272.9063 974.5156,272.2969 Q974.4531,271.875 974.2344,271.6563 Q973.8438,271.2188 973.125,270.9531 Q972.4063,270.6875 971.6875,270.6875 Q970.7813,270.6875 970.0313,271.0781 Q969.2813,271.4688 968.7031,272.3594 Q968.125,273.2344 968.125,274.4375 L968.125,275.7344 Q968.125,277.1875 969.1719,278.1563 Q970.2344,279.125 972.0938,279.125 Q973.2031,279.125 973.9844,278.8125 Q974.4219,278.6406 974.9375,278.125 Q975.25,277.8125 975.4219,277.7188 Q975.5938,277.625 975.8281,277.625 Q976.2188,277.625 976.5156,277.9375 Q976.8281,278.2344 976.8281,278.6406 Q976.8281,279.0469 976.4219,279.5156 Q975.8281,280.2031 974.8906,280.5938 Q973.625,281.125 972.1094,281.125 Q970.3281,281.125 968.9063,280.3906 Q967.75,279.7969 966.9375,278.5313 Q966.125,277.2656 966.125,275.7813 L966.125,274.4219 Q966.125,272.8594 966.8438,271.5156 Q967.5781,270.1563 968.8594,269.4219 Q970.1563,268.6875 971.6094,268.6875 Q972.4688,268.6875 973.2188,268.8906 Q973.9844,269.0938 974.6406,269.5 Z " fill="#000000"/><text fill="#000000" font-family="sans-serif" font-size="20" lengthAdjust="spacing" textLength="172" x="987.5" y="282.7617">DateTimeFormatter</text><line style="stroke:#181818;stroke-width:0.5;" x1="957.5" x2="1161.5" y1="292.1563" y2="292.1563"/><line style="stroke:#181818;stroke-width:0.5;" x1="957.5" x2="1161.5" y1="300.1563" y2="300.1563"/></g><!--link ListCandidateInfoUI to DateTimeFormatter--><g id="link_ListCandidateInfoUI_DateTimeFormatter"><path codeLine="67" d="M731.57,126.58 C792.53,152.3 870.96,186.33 939.5,219 C958.17,227.9 978.19,238.07 996.42,247.58 " fill="none" id="ListCandidateInfoUI-to-DateTimeFormatter" style="stroke:#181818;stroke-width:1.0;"/><polygon fill="none" points="999.86,241.48,1014.29,256.99,993.34,253.87,999.86,241.48" style="stroke:#181818;stroke-width:1.0;"/></g><!--link ListCandidateInfoUI to ListCandidateInfoController--><g id="link_ListCandidateInfoUI_ListCandidateInfoController"><path codeLine="68" d="M525.39,129.56 C469.19,154.39 398.51,185.62 335.86,213.3 " fill="none" id="ListCandidateInfoUI-to-ListCandidateInfoController" style="stroke:#181818;stroke-width:1.0;"/><polygon fill="none" points="338.69,219.7,317.57,221.38,333.03,206.89,338.69,219.7" style="stroke:#181818;stroke-width:1.0;"/></g><!--link ListCandidateInfoUI to ListCandidatesController--><g id="link_ListCandidateInfoUI_ListCandidatesController"><path codeLine="69" d="M570.98,159.23 C560.08,173.49 548.65,188.44 537.67,202.8 " fill="none" id="ListCandidateInfoUI-to-ListCandidatesController" style="stroke:#181818;stroke-width:1.0;"/><polygon fill="none" points="543.23,207.06,525.52,218.69,532.11,198.55,543.23,207.06" style="stroke:#181818;stroke-width:1.0;"/></g><!--link ListCandidateInfoUI to ApplicationSearchController--><g id="link_ListCandidateInfoUI_ApplicationSearchController"><path codeLine="70" d="M686.02,159.23 C700.25,177.84 715.38,197.64 729.24,215.76 " fill="none" id="ListCandidateInfoUI-to-ApplicationSearchController" style="stroke:#181818;stroke-width:1.0;"/><polygon fill="none" points="734.95,211.7,741.54,231.84,723.83,220.21,734.95,211.7" style="stroke:#181818;stroke-width:1.0;"/></g><!--link ListCandidatesController to AuthorizationService--><g id="link_ListCandidatesController_AuthorizationService"><path codeLine="71" d="M477.5,346.33 C477.5,369.01 477.5,395.81 477.5,423.27 " fill="none" id="ListCandidatesController-to-AuthorizationService" style="stroke:#181818;stroke-width:1.0;"/><polygon fill="none" points="484.5,423.33,477.5,443.33,470.5,423.33,484.5,423.33" style="stroke:#181818;stroke-width:1.0;"/></g><!--link ListCandidatesController to UserManagementService--><g id="link_ListCandidatesController_UserManagementService"><path codeLine="72" d="M365.54,346.02 C338.04,363.72 309.61,384.17 285.5,406 C284.59,406.83 283.67,407.66 282.76,408.5 " fill="none" id="ListCandidatesController-to-UserManagementService" style="stroke:#181818;stroke-width:1.0;"/><polygon fill="none" points="287.4,413.75,268.13,422.57,277.69,403.66,287.4,413.75" style="stroke:#181818;stroke-width:1.0;"/></g><!--link ListCandidateInfoController to AuthorizationService--><g id="link_ListCandidateInfoController_AuthorizationService"><path codeLine="73" d="M241.4,346.33 C264.38,370.44 291.81,399.21 319.71,428.48 " fill="none" id="ListCandidateInfoController-to-AuthorizationService" style="stroke:#181818;stroke-width:1.0;"/><polygon fill="none" points="325.14,424.03,333.87,443.33,315,433.69,325.14,424.03" style="stroke:#181818;stroke-width:1.0;"/></g><!--link ListCandidateInfoController to UserManagementService--><g id="link_ListCandidateInfoController_UserManagementService"><path codeLine="74" d="M172.6,346.33 C170.88,358.44 169,371.72 167.02,385.65 " fill="none" id="ListCandidateInfoController-to-UserManagementService" style="stroke:#181818;stroke-width:1.0;"/><polygon fill="none" points="173.92,386.91,164.18,405.73,160.06,384.94,173.92,386.91" style="stroke:#181818;stroke-width:1.0;"/></g><!--link UserManagementService to UserRepository--><g id="link_UserManagementService_UserRepository"><path codeLine="75" d="M137.5,784.11 C137.5,798.14 137.5,811.5 137.5,823.58 " fill="none" id="UserManagementService-to-UserRepository" style="stroke:#181818;stroke-width:1.0;"/><polygon fill="none" points="144.5,823.79,137.5,843.79,130.5,823.79,144.5,823.79" style="stroke:#181818;stroke-width:1.0;"/></g><!--link ApplicationSearchController to ApplicationRepository--><g id="link_ApplicationSearchController_ApplicationRepository"><path codeLine="76" d="M786.2,333.04 C792.22,377.55 801.23,444.12 808.64,498.89 " fill="none" id="ApplicationSearchController-to-ApplicationRepository" style="stroke:#181818;stroke-width:1.0;"/><polygon fill="none" points="815.59,498.09,811.33,518.85,801.72,499.97,815.59,498.09" style="stroke:#181818;stroke-width:1.0;"/></g><!--SRC=[ZLHTZzem47pFhyXRMrMKKnzRgH9SxmFfUbHmgCyhUvDOvzYHRJW5sl_UjHFEvWWSJyJZcTdCxWRxB5G31cgfsJFod6C1Q-bkjN9BiSNywrNseNAkiT_6uqQ2SkjQVc6w7ZC9rewuW9B4MHQE-OEmxXeK5nmSpbIXLxDTDifTXTTaQBIKQEWiFIq2dtEkbvL- -VY97Yi4BeL2ElpBJlf6jVU7jQkszBksQ9ORHYubHlwqVOIwznkmi-zvoGFsYd0Rp3glITD8mS09hPO8XbLlxEBr0XjjXTEc9LFRSVUsYKlm5igXAO1XwXyDl7CX59-s2opGe6AKxtiFJgISjZSr21cn7fWedWWYFyr3-RKHspwHsGY6ljp3_ExkPj4DSudMqYt566A7CJA35AidtchZszPTI4hUuzt0mQP7cpmBw_rHETy0vDvZNn3vamuSL7Pjy8Xt3tQYsdaHE5AN9NAX_CKVuQhVQ6eHojXqBVprBr1GOarUINQ_2ydqHbIKQHvMkT4q7J_GGN6eRh2a3KBpY2-lNJY7lGB0dDZWVk7eAy60x2Ds84WP3_v5vyMC-rQuzeteq3S2b3-ks-eWwexOtVfCmhkatVf93a-YHXfk3Oxq-Oxk1lu1yj7exuzZ-cdgcQ_zGf6zH77coyrEkVNAWQr_HpAu7jcPf9TM6b8D5nj4eo1Py3ETEMfTbFq7]--></g></svg>