<?xml version="1.0" encoding="UTF-8" standalone="no"?><svg xmlns="http://www.w3.org/2000/svg" xmlns:xlink="http://www.w3.org/1999/xlink" contentStyleType="text/css" height="1773px" preserveAspectRatio="none" style="width:2880px;height:1773px;background:#FFFFFF;" version="1.1" viewBox="0 0 2880 1773" width="2880px" zoomAndPan="magnify"><defs/><g><rect fill="#FFFFFF" height="1539.4063" style="stroke:#181818;stroke-width:1.0;" width="10" x="58" y="111.3125"/><rect fill="#FFFFFF" height="1508.25" style="stroke:#181818;stroke-width:1.0;" width="10" x="545" y="142.4688"/><rect fill="#FFFFFF" height="274.0938" style="stroke:#181818;stroke-width:1.0;" width="10" x="1122" y="695.8125"/><rect fill="#FFFFFF" height="274.0938" style="stroke:#181818;stroke-width:1.0;" width="10" x="1122" y="1036.2188"/><rect fill="#FFFFFF" height="274.0938" style="stroke:#181818;stroke-width:1.0;" width="10" x="1376" y="304.25"/><rect fill="#FFFFFF" height="117.4688" style="stroke:#181818;stroke-width:1.0;" width="10" x="1628.5" y="1479.0938"/><rect fill="#FFFFFF" height="39.1563" style="stroke:#181818;stroke-width:1.0;" width="10" x="2064" y="343.4063"/><rect fill="#FFFFFF" height="39.1563" style="stroke:#181818;stroke-width:1.0;" width="10" x="2064" y="734.9688"/><rect fill="#FFFFFF" height="39.1563" style="stroke:#181818;stroke-width:1.0;" width="10" x="2064" y="1075.375"/><rect fill="#FFFFFF" height="117.4688" style="stroke:#181818;stroke-width:1.0;" width="10" x="2286.5" y="421.7188"/><rect fill="#FFFFFF" height="117.4688" style="stroke:#181818;stroke-width:1.0;" width="10" x="2286.5" y="813.2813"/><rect fill="#FFFFFF" height="117.4688" style="stroke:#181818;stroke-width:1.0;" width="10" x="2286.5" y="1153.6875"/><rect fill="#FFFFFF" height="39.1563" style="stroke:#181818;stroke-width:1.0;" width="10" x="2582.5" y="460.875"/><rect fill="#FFFFFF" height="39.1563" style="stroke:#181818;stroke-width:1.0;" width="10" x="2582.5" y="852.4375"/><rect fill="#FFFFFF" height="39.1563" style="stroke:#181818;stroke-width:1.0;" width="10" x="2582.5" y="1192.8438"/><rect fill="#FFFFFF" height="39.1563" style="stroke:#181818;stroke-width:1.0;" width="10" x="2761.5" y="1518.25"/><rect fill="none" height="1082.5313" style="stroke:#000000;stroke-width:1.5;" width="2658.5" x="10" y="235.7813"/><rect fill="none" height="233.0938" style="stroke:#000000;stroke-width:1.5;" width="2864.5" x="10" y="1410.625"/><line style="stroke:#181818;stroke-width:0.5;stroke-dasharray:5.0,5.0;" x1="63" x2="63" y1="101.3125" y2="1660.7188"/><line style="stroke:#181818;stroke-width:0.5;stroke-dasharray:5.0,5.0;" x1="550" x2="550" y1="101.3125" y2="1660.7188"/><line style="stroke:#181818;stroke-width:0.5;stroke-dasharray:5.0,5.0;" x1="1126.5" x2="1126.5" y1="101.3125" y2="1660.7188"/><line style="stroke:#181818;stroke-width:0.5;stroke-dasharray:5.0,5.0;" x1="1380.5" x2="1380.5" y1="101.3125" y2="1660.7188"/><line style="stroke:#181818;stroke-width:0.5;stroke-dasharray:5.0,5.0;" x1="1633.5" x2="1633.5" y1="101.3125" y2="1660.7188"/><line style="stroke:#181818;stroke-width:0.5;stroke-dasharray:5.0,5.0;" x1="2068.5" x2="2068.5" y1="101.3125" y2="1660.7188"/><line style="stroke:#181818;stroke-width:0.5;stroke-dasharray:5.0,5.0;" x1="2291.5" x2="2291.5" y1="101.3125" y2="1660.7188"/><line style="stroke:#181818;stroke-width:0.5;stroke-dasharray:5.0,5.0;" x1="2587.5" x2="2587.5" y1="101.3125" y2="1660.7188"/><line style="stroke:#181818;stroke-width:0.5;stroke-dasharray:5.0,5.0;" x1="2766.5" x2="2766.5" y1="101.3125" y2="1660.7188"/><text fill="#000000" font-family="sans-serif" font-size="20" lengthAdjust="spacing" textLength="80" x="20" y="96.918">Operator</text><ellipse cx="63" cy="24.6563" fill="#E2E2F0" rx="8" ry="8" style="stroke:#181818;stroke-width:0.5;"/><path d="M63,32.6563 L63,59.6563 M50,40.6563 L76,40.6563 M63,59.6563 L50,74.6563 M63,59.6563 L76,74.6563 " fill="none" style="stroke:#181818;stroke-width:0.5;"/><text fill="#000000" font-family="sans-serif" font-size="20" lengthAdjust="spacing" textLength="80" x="20" y="1680.4805">Operator</text><ellipse cx="63" cy="1693.375" fill="#E2E2F0" rx="8" ry="8" style="stroke:#181818;stroke-width:0.5;"/><path d="M63,1701.375 L63,1728.375 M50,1709.375 L76,1709.375 M63,1728.375 L50,1743.375 M63,1728.375 L76,1743.375 " fill="none" style="stroke:#181818;stroke-width:0.5;"/><rect fill="#E2E2F0" height="64.3125" rx="2.5" ry="2.5" style="stroke:#181818;stroke-width:0.5;" width="186" x="457" y="36"/><text fill="#000000" font-family="sans-serif" font-size="20" font-style="italic" lengthAdjust="spacing" textLength="131" x="484.5" y="63.7617">«presentation»</text><text fill="#000000" font-family="sans-serif" font-size="20" lengthAdjust="spacing" textLength="172" x="464" y="88.918">ListCandidateInfoUI</text><rect fill="#E2E2F0" height="64.3125" rx="2.5" ry="2.5" style="stroke:#181818;stroke-width:0.5;" width="186" x="457" y="1659.7188"/><text fill="#000000" font-family="sans-serif" font-size="20" font-style="italic" lengthAdjust="spacing" textLength="131" x="484.5" y="1687.4805">«presentation»</text><text fill="#000000" font-family="sans-serif" font-size="20" lengthAdjust="spacing" textLength="172" x="464" y="1712.6367">ListCandidateInfoUI</text><rect fill="#E2E2F0" height="64.3125" rx="2.5" ry="2.5" style="stroke:#181818;stroke-width:0.5;" width="259" x="997.5" y="36"/><text fill="#000000" font-family="sans-serif" font-size="20" font-style="italic" lengthAdjust="spacing" textLength="109" x="1072.5" y="63.7617">«Aplication»</text><text fill="#000000" font-family="sans-serif" font-size="20" lengthAdjust="spacing" textLength="245" x="1004.5" y="88.918">ListCandidateInfoControllerr</text><rect fill="#E2E2F0" height="64.3125" rx="2.5" ry="2.5" style="stroke:#181818;stroke-width:0.5;" width="259" x="997.5" y="1659.7188"/><text fill="#000000" font-family="sans-serif" font-size="20" font-style="italic" lengthAdjust="spacing" textLength="109" x="1072.5" y="1687.4805">«Aplication»</text><text fill="#000000" font-family="sans-serif" font-size="20" lengthAdjust="spacing" textLength="245" x="1004.5" y="1712.6367">ListCandidateInfoControllerr</text><rect fill="#E2E2F0" height="64.3125" rx="2.5" ry="2.5" style="stroke:#181818;stroke-width:0.5;" width="229" x="1266.5" y="36"/><text fill="#000000" font-family="sans-serif" font-size="20" font-style="italic" lengthAdjust="spacing" textLength="109" x="1326.5" y="63.7617">«Aplication»</text><text fill="#000000" font-family="sans-serif" font-size="20" lengthAdjust="spacing" textLength="215" x="1273.5" y="88.918">ListCandidatesController</text><rect fill="#E2E2F0" height="64.3125" rx="2.5" ry="2.5" style="stroke:#181818;stroke-width:0.5;" width="229" x="1266.5" y="1659.7188"/><text fill="#000000" font-family="sans-serif" font-size="20" font-style="italic" lengthAdjust="spacing" textLength="109" x="1326.5" y="1687.4805">«Aplication»</text><text fill="#000000" font-family="sans-serif" font-size="20" lengthAdjust="spacing" textLength="215" x="1273.5" y="1712.6367">ListCandidatesController</text><rect fill="#E2E2F0" height="64.3125" rx="2.5" ry="2.5" style="stroke:#181818;stroke-width:0.5;" width="256" x="1505.5" y="36"/><text fill="#000000" font-family="sans-serif" font-size="20" font-style="italic" lengthAdjust="spacing" textLength="109" x="1579" y="63.7617">«Aplication»</text><text fill="#000000" font-family="sans-serif" font-size="20" lengthAdjust="spacing" textLength="242" x="1512.5" y="88.918">ApplicationSearchController</text><rect fill="#E2E2F0" height="64.3125" rx="2.5" ry="2.5" style="stroke:#181818;stroke-width:0.5;" width="256" x="1505.5" y="1659.7188"/><text fill="#000000" font-family="sans-serif" font-size="20" font-style="italic" lengthAdjust="spacing" textLength="109" x="1579" y="1687.4805">«Aplication»</text><text fill="#000000" font-family="sans-serif" font-size="20" lengthAdjust="spacing" textLength="242" x="1512.5" y="1712.6367">ApplicationSearchController</text><rect fill="#E2E2F0" height="64.3125" rx="2.5" ry="2.5" style="stroke:#181818;stroke-width:0.5;" width="191" x="1973.5" y="36"/><text fill="#000000" font-family="sans-serif" font-size="20" font-style="italic" lengthAdjust="spacing" textLength="109" x="2014.5" y="63.7617">«Aplication»</text><text fill="#000000" font-family="sans-serif" font-size="20" lengthAdjust="spacing" textLength="177" x="1980.5" y="88.918">AuthorizationService</text><rect fill="#E2E2F0" height="64.3125" rx="2.5" ry="2.5" style="stroke:#181818;stroke-width:0.5;" width="191" x="1973.5" y="1659.7188"/><text fill="#000000" font-family="sans-serif" font-size="20" font-style="italic" lengthAdjust="spacing" textLength="109" x="2014.5" y="1687.4805">«Aplication»</text><text fill="#000000" font-family="sans-serif" font-size="20" lengthAdjust="spacing" textLength="177" x="1980.5" y="1712.6367">AuthorizationService</text><rect fill="#E2E2F0" height="64.3125" rx="2.5" ry="2.5" style="stroke:#181818;stroke-width:0.5;" width="234" x="2174.5" y="36"/><text fill="#000000" font-family="sans-serif" font-size="20" font-style="italic" lengthAdjust="spacing" textLength="109" x="2237" y="63.7617">«Aplication»</text><text fill="#000000" font-family="sans-serif" font-size="20" lengthAdjust="spacing" textLength="220" x="2181.5" y="88.918">UserManagementService</text><rect fill="#E2E2F0" height="64.3125" rx="2.5" ry="2.5" style="stroke:#181818;stroke-width:0.5;" width="234" x="2174.5" y="1659.7188"/><text fill="#000000" font-family="sans-serif" font-size="20" font-style="italic" lengthAdjust="spacing" textLength="109" x="2237" y="1687.4805">«Aplication»</text><text fill="#000000" font-family="sans-serif" font-size="20" lengthAdjust="spacing" textLength="220" x="2181.5" y="1712.6367">UserManagementService</text><text fill="#000000" font-family="sans-serif" font-size="20" font-style="italic" lengthAdjust="spacing" textLength="110" x="2529.5" y="71.7617">«repository»</text><text fill="#000000" font-family="sans-serif" font-size="20" lengthAdjust="spacing" textLength="136" x="2516.5" y="96.918">UserRepository</text><path d="M2569.5,15 C2569.5,5 2587.5,5 2587.5,5 C2587.5,5 2605.5,5 2605.5,15 L2605.5,41 C2605.5,51 2587.5,51 2587.5,51 C2587.5,51 2569.5,51 2569.5,41 L2569.5,15 " fill="#E2E2F0" style="stroke:#181818;stroke-width:1.5;"/><path d="M2569.5,15 C2569.5,25 2587.5,25 2587.5,25 C2587.5,25 2605.5,25 2605.5,15 " fill="none" style="stroke:#181818;stroke-width:1.5;"/><text fill="#000000" font-family="sans-serif" font-size="20" font-style="italic" lengthAdjust="spacing" textLength="110" x="2529.5" y="1680.4805">«repository»</text><text fill="#000000" font-family="sans-serif" font-size="20" lengthAdjust="spacing" textLength="136" x="2516.5" y="1705.6367">UserRepository</text><path d="M2569.5,1720.0313 C2569.5,1710.0313 2587.5,1710.0313 2587.5,1710.0313 C2587.5,1710.0313 2605.5,1710.0313 2605.5,1720.0313 L2605.5,1746.0313 C2605.5,1756.0313 2587.5,1756.0313 2587.5,1756.0313 C2587.5,1756.0313 2569.5,1756.0313 2569.5,1746.0313 L2569.5,1720.0313 " fill="#E2E2F0" style="stroke:#181818;stroke-width:1.5;"/><path d="M2569.5,1720.0313 C2569.5,1730.0313 2587.5,1730.0313 2587.5,1730.0313 C2587.5,1730.0313 2605.5,1730.0313 2605.5,1720.0313 " fill="none" style="stroke:#181818;stroke-width:1.5;"/><text fill="#000000" font-family="sans-serif" font-size="20" font-style="italic" lengthAdjust="spacing" textLength="110" x="2708.5" y="71.7617">«repository»</text><text fill="#000000" font-family="sans-serif" font-size="20" lengthAdjust="spacing" textLength="190" x="2668.5" y="96.918">ApplicationRepository</text><path d="M2748.5,15 C2748.5,5 2766.5,5 2766.5,5 C2766.5,5 2784.5,5 2784.5,15 L2784.5,41 C2784.5,51 2766.5,51 2766.5,51 C2766.5,51 2748.5,51 2748.5,41 L2748.5,15 " fill="#E2E2F0" style="stroke:#181818;stroke-width:1.5;"/><path d="M2748.5,15 C2748.5,25 2766.5,25 2766.5,25 C2766.5,25 2784.5,25 2784.5,15 " fill="none" style="stroke:#181818;stroke-width:1.5;"/><text fill="#000000" font-family="sans-serif" font-size="20" font-style="italic" lengthAdjust="spacing" textLength="110" x="2708.5" y="1680.4805">«repository»</text><text fill="#000000" font-family="sans-serif" font-size="20" lengthAdjust="spacing" textLength="190" x="2668.5" y="1705.6367">ApplicationRepository</text><path d="M2748.5,1720.0313 C2748.5,1710.0313 2766.5,1710.0313 2766.5,1710.0313 C2766.5,1710.0313 2784.5,1710.0313 2784.5,1720.0313 L2784.5,1746.0313 C2784.5,1756.0313 2766.5,1756.0313 2766.5,1756.0313 C2766.5,1756.0313 2748.5,1756.0313 2748.5,1746.0313 L2748.5,1720.0313 " fill="#E2E2F0" style="stroke:#181818;stroke-width:1.5;"/><path d="M2748.5,1720.0313 C2748.5,1730.0313 2766.5,1730.0313 2766.5,1730.0313 C2766.5,1730.0313 2784.5,1730.0313 2784.5,1720.0313 " fill="none" style="stroke:#181818;stroke-width:1.5;"/><rect fill="#FFFFFF" height="1539.4063" style="stroke:#181818;stroke-width:1.0;" width="10" x="58" y="111.3125"/><rect fill="#FFFFFF" height="1508.25" style="stroke:#181818;stroke-width:1.0;" width="10" x="545" y="142.4688"/><rect fill="#FFFFFF" height="274.0938" style="stroke:#181818;stroke-width:1.0;" width="10" x="1122" y="695.8125"/><rect fill="#FFFFFF" height="274.0938" style="stroke:#181818;stroke-width:1.0;" width="10" x="1122" y="1036.2188"/><rect fill="#FFFFFF" height="274.0938" style="stroke:#181818;stroke-width:1.0;" width="10" x="1376" y="304.25"/><rect fill="#FFFFFF" height="117.4688" style="stroke:#181818;stroke-width:1.0;" width="10" x="1628.5" y="1479.0938"/><rect fill="#FFFFFF" height="39.1563" style="stroke:#181818;stroke-width:1.0;" width="10" x="2064" y="343.4063"/><rect fill="#FFFFFF" height="39.1563" style="stroke:#181818;stroke-width:1.0;" width="10" x="2064" y="734.9688"/><rect fill="#FFFFFF" height="39.1563" style="stroke:#181818;stroke-width:1.0;" width="10" x="2064" y="1075.375"/><rect fill="#FFFFFF" height="117.4688" style="stroke:#181818;stroke-width:1.0;" width="10" x="2286.5" y="421.7188"/><rect fill="#FFFFFF" height="117.4688" style="stroke:#181818;stroke-width:1.0;" width="10" x="2286.5" y="813.2813"/><rect fill="#FFFFFF" height="117.4688" style="stroke:#181818;stroke-width:1.0;" width="10" x="2286.5" y="1153.6875"/><rect fill="#FFFFFF" height="39.1563" style="stroke:#181818;stroke-width:1.0;" width="10" x="2582.5" y="460.875"/><rect fill="#FFFFFF" height="39.1563" style="stroke:#181818;stroke-width:1.0;" width="10" x="2582.5" y="852.4375"/><rect fill="#FFFFFF" height="39.1563" style="stroke:#181818;stroke-width:1.0;" width="10" x="2582.5" y="1192.8438"/><rect fill="#FFFFFF" height="39.1563" style="stroke:#181818;stroke-width:1.0;" width="10" x="2761.5" y="1518.25"/><polygon fill="#181818" points="533,138.4688,543,142.4688,533,146.4688,537,142.4688" style="stroke:#181818;stroke-width:1.0;"/><line style="stroke:#181818;stroke-width:1.0;" x1="68" x2="539" y1="142.4688" y2="142.4688"/><text fill="#000000" font-family="sans-serif" font-size="20" font-weight="bold" lengthAdjust="spacing" textLength="11" x="75" y="136.0742">1</text><text fill="#000000" font-family="sans-serif" font-size="20" lengthAdjust="spacing" textLength="368" x="90" y="136.0742">asks to list all personal info of a candidate</text><polygon fill="#181818" points="79,177.625,69,181.625,79,185.625,75,181.625" style="stroke:#181818;stroke-width:1.0;"/><line style="stroke:#181818;stroke-width:1.0;stroke-dasharray:2.0,2.0;" x1="73" x2="544" y1="181.625" y2="181.625"/><text fill="#000000" font-family="sans-serif" font-size="20" font-weight="bold" lengthAdjust="spacing" textLength="11" x="85" y="175.2305">2</text><text fill="#000000" font-family="sans-serif" font-size="20" lengthAdjust="spacing" textLength="308" x="100" y="175.2305">asks what method of search to use</text><polygon fill="#181818" points="533,216.7813,543,220.7813,533,224.7813,537,220.7813" style="stroke:#181818;stroke-width:1.0;"/><line style="stroke:#181818;stroke-width:1.0;" x1="68" x2="539" y1="220.7813" y2="220.7813"/><text fill="#000000" font-family="sans-serif" font-size="20" font-weight="bold" lengthAdjust="spacing" textLength="11" x="75" y="214.3867">3</text><text fill="#000000" font-family="sans-serif" font-size="20" lengthAdjust="spacing" textLength="198" x="90" y="214.3867">selects search method</text><path d="M10,235.7813 L78,235.7813 L78,252.9375 L68,262.9375 L10,262.9375 L10,235.7813 " fill="#EEEEEE" style="stroke:#000000;stroke-width:1.5;"/><rect fill="none" height="1082.5313" style="stroke:#000000;stroke-width:1.5;" width="2658.5" x="10" y="235.7813"/><text fill="#000000" font-family="sans-serif" font-size="20" font-weight="bold" lengthAdjust="spacing" textLength="23" x="25" y="257.543">alt</text><text fill="#000000" font-family="sans-serif" font-size="20" font-weight="bold" lengthAdjust="spacing" textLength="42" x="93" y="258.543">[list]</text><polygon fill="#181818" points="1364,300.25,1374,304.25,1364,308.25,1368,304.25" style="stroke:#181818;stroke-width:1.0;"/><line style="stroke:#181818;stroke-width:1.0;" x1="555" x2="1370" y1="304.25" y2="304.25"/><text fill="#000000" font-family="sans-serif" font-size="20" font-weight="bold" lengthAdjust="spacing" textLength="11" x="562" y="297.8555">4</text><text fill="#000000" font-family="sans-serif" font-size="20" lengthAdjust="spacing" textLength="188" x="577" y="297.8555">listCandidatesUsers()</text><polygon fill="#181818" points="2052,339.4063,2062,343.4063,2052,347.4063,2056,343.4063" style="stroke:#181818;stroke-width:1.0;"/><line style="stroke:#181818;stroke-width:1.0;" x1="1386" x2="2058" y1="343.4063" y2="343.4063"/><text fill="#000000" font-family="sans-serif" font-size="20" font-weight="bold" lengthAdjust="spacing" textLength="11" x="1393" y="337.0117">5</text><text fill="#000000" font-family="sans-serif" font-size="20" lengthAdjust="spacing" textLength="322" x="1408" y="337.0117">ensureAuthenticatedUserHasAnyOf()</text><polygon fill="#181818" points="1397,378.5625,1387,382.5625,1397,386.5625,1393,382.5625" style="stroke:#181818;stroke-width:1.0;"/><line style="stroke:#181818;stroke-width:1.0;stroke-dasharray:2.0,2.0;" x1="1391" x2="2068" y1="382.5625" y2="382.5625"/><text fill="#000000" font-family="sans-serif" font-size="20" font-weight="bold" lengthAdjust="spacing" textLength="11" x="1403" y="376.168">6</text><text fill="#000000" font-family="sans-serif" font-size="20" lengthAdjust="spacing" textLength="639" x="1418" y="376.168">returns confirmation that user is credited to perform the current operation</text><polygon fill="#181818" points="2274.5,417.7188,2284.5,421.7188,2274.5,425.7188,2278.5,421.7188" style="stroke:#181818;stroke-width:1.0;"/><line style="stroke:#181818;stroke-width:1.0;" x1="1386" x2="2280.5" y1="421.7188" y2="421.7188"/><text fill="#000000" font-family="sans-serif" font-size="20" font-weight="bold" lengthAdjust="spacing" textLength="11" x="1393" y="415.3242">7</text><text fill="#000000" font-family="sans-serif" font-size="20" lengthAdjust="spacing" textLength="84" x="1408" y="415.3242">allUsers()</text><polygon fill="#181818" points="2570.5,456.875,2580.5,460.875,2570.5,464.875,2574.5,460.875" style="stroke:#181818;stroke-width:1.0;"/><line style="stroke:#181818;stroke-width:1.0;" x1="2296.5" x2="2576.5" y1="460.875" y2="460.875"/><text fill="#000000" font-family="sans-serif" font-size="20" font-weight="bold" lengthAdjust="spacing" textLength="11" x="2303.5" y="454.4805">8</text><text fill="#000000" font-family="sans-serif" font-size="20" lengthAdjust="spacing" textLength="66" x="2318.5" y="454.4805">findAll()</text><polygon fill="#181818" points="2307.5,496.0313,2297.5,500.0313,2307.5,504.0313,2303.5,500.0313" style="stroke:#181818;stroke-width:1.0;"/><line style="stroke:#181818;stroke-width:1.0;stroke-dasharray:2.0,2.0;" x1="2301.5" x2="2586.5" y1="500.0313" y2="500.0313"/><text fill="#000000" font-family="sans-serif" font-size="20" font-weight="bold" lengthAdjust="spacing" textLength="11" x="2313.5" y="493.6367">9</text><text fill="#000000" font-family="sans-serif" font-size="20" lengthAdjust="spacing" textLength="236" x="2328.5" y="493.6367">returns Iterable of all users</text><polygon fill="#181818" points="1397,535.1875,1387,539.1875,1397,543.1875,1393,539.1875" style="stroke:#181818;stroke-width:1.0;"/><line style="stroke:#181818;stroke-width:1.0;stroke-dasharray:2.0,2.0;" x1="1391" x2="2290.5" y1="539.1875" y2="539.1875"/><text fill="#000000" font-family="sans-serif" font-size="20" font-weight="bold" lengthAdjust="spacing" textLength="22" x="1403" y="532.793">10</text><text fill="#000000" font-family="sans-serif" font-size="20" lengthAdjust="spacing" textLength="372" x="1429" y="532.793">returns only the candidates as a sorted list</text><polygon fill="#181818" points="566,574.3438,556,578.3438,566,582.3438,562,578.3438" style="stroke:#181818;stroke-width:1.0;"/><line style="stroke:#181818;stroke-width:1.0;stroke-dasharray:2.0,2.0;" x1="560" x2="1380" y1="578.3438" y2="578.3438"/><text fill="#000000" font-family="sans-serif" font-size="20" font-weight="bold" lengthAdjust="spacing" textLength="22" x="572" y="571.9492">11</text><text fill="#000000" font-family="sans-serif" font-size="20" lengthAdjust="spacing" textLength="91" x="598" y="571.9492">returns list</text><polygon fill="#181818" points="79,613.5,69,617.5,79,621.5,75,617.5" style="stroke:#181818;stroke-width:1.0;"/><line style="stroke:#181818;stroke-width:1.0;stroke-dasharray:2.0,2.0;" x1="73" x2="544" y1="617.5" y2="617.5"/><text fill="#000000" font-family="sans-serif" font-size="20" font-weight="bold" lengthAdjust="spacing" textLength="22" x="85" y="611.1055">12</text><text fill="#000000" font-family="sans-serif" font-size="20" lengthAdjust="spacing" textLength="150" x="111" y="611.1055">displays all users</text><polygon fill="#181818" points="533,652.6563,543,656.6563,533,660.6563,537,656.6563" style="stroke:#181818;stroke-width:1.0;"/><line style="stroke:#181818;stroke-width:1.0;" x1="68" x2="539" y1="656.6563" y2="656.6563"/><text fill="#000000" font-family="sans-serif" font-size="20" font-weight="bold" lengthAdjust="spacing" textLength="22" x="75" y="650.2617">13</text><text fill="#000000" font-family="sans-serif" font-size="20" lengthAdjust="spacing" textLength="109" x="101" y="650.2617">Selects user</text><polygon fill="#181818" points="1110,691.8125,1120,695.8125,1110,699.8125,1114,695.8125" style="stroke:#181818;stroke-width:1.0;"/><line style="stroke:#181818;stroke-width:1.0;" x1="555" x2="1116" y1="695.8125" y2="695.8125"/><text fill="#000000" font-family="sans-serif" font-size="20" font-weight="bold" lengthAdjust="spacing" textLength="22" x="562" y="689.418">14</text><text fill="#000000" font-family="sans-serif" font-size="20" lengthAdjust="spacing" textLength="205" x="588" y="689.418">getCandidateByName()</text><polygon fill="#181818" points="2052,730.9688,2062,734.9688,2052,738.9688,2056,734.9688" style="stroke:#181818;stroke-width:1.0;"/><line style="stroke:#181818;stroke-width:1.0;" x1="1132" x2="2058" y1="734.9688" y2="734.9688"/><text fill="#000000" font-family="sans-serif" font-size="20" font-weight="bold" lengthAdjust="spacing" textLength="22" x="1139" y="728.5742">15</text><text fill="#000000" font-family="sans-serif" font-size="20" lengthAdjust="spacing" textLength="322" x="1165" y="728.5742">ensureAuthenticatedUserHasAnyOf()</text><polygon fill="#181818" points="1143,770.125,1133,774.125,1143,778.125,1139,774.125" style="stroke:#181818;stroke-width:1.0;"/><line style="stroke:#181818;stroke-width:1.0;stroke-dasharray:2.0,2.0;" x1="1137" x2="2068" y1="774.125" y2="774.125"/><text fill="#000000" font-family="sans-serif" font-size="20" font-weight="bold" lengthAdjust="spacing" textLength="22" x="1149" y="767.7305">16</text><text fill="#000000" font-family="sans-serif" font-size="20" lengthAdjust="spacing" textLength="639" x="1175" y="767.7305">returns confirmation that user is credited to perform the current operation</text><polygon fill="#181818" points="2274.5,809.2813,2284.5,813.2813,2274.5,817.2813,2278.5,813.2813" style="stroke:#181818;stroke-width:1.0;"/><line style="stroke:#181818;stroke-width:1.0;" x1="1132" x2="2280.5" y1="813.2813" y2="813.2813"/><text fill="#000000" font-family="sans-serif" font-size="20" font-weight="bold" lengthAdjust="spacing" textLength="22" x="1139" y="806.8867">17</text><text fill="#000000" font-family="sans-serif" font-size="20" lengthAdjust="spacing" textLength="84" x="1165" y="806.8867">allUsers()</text><polygon fill="#181818" points="2570.5,848.4375,2580.5,852.4375,2570.5,856.4375,2574.5,852.4375" style="stroke:#181818;stroke-width:1.0;"/><line style="stroke:#181818;stroke-width:1.0;" x1="2296.5" x2="2576.5" y1="852.4375" y2="852.4375"/><text fill="#000000" font-family="sans-serif" font-size="20" font-weight="bold" lengthAdjust="spacing" textLength="22" x="2303.5" y="846.043">18</text><text fill="#000000" font-family="sans-serif" font-size="20" lengthAdjust="spacing" textLength="66" x="2329.5" y="846.043">findAll()</text><polygon fill="#181818" points="2307.5,887.5938,2297.5,891.5938,2307.5,895.5938,2303.5,891.5938" style="stroke:#181818;stroke-width:1.0;"/><line style="stroke:#181818;stroke-width:1.0;stroke-dasharray:2.0,2.0;" x1="2301.5" x2="2586.5" y1="891.5938" y2="891.5938"/><text fill="#000000" font-family="sans-serif" font-size="20" font-weight="bold" lengthAdjust="spacing" textLength="22" x="2313.5" y="885.1992">19</text><text fill="#000000" font-family="sans-serif" font-size="20" lengthAdjust="spacing" textLength="236" x="2339.5" y="885.1992">returns Iterable of all users</text><polygon fill="#181818" points="1143,926.75,1133,930.75,1143,934.75,1139,930.75" style="stroke:#181818;stroke-width:1.0;"/><line style="stroke:#181818;stroke-width:1.0;stroke-dasharray:2.0,2.0;" x1="1137" x2="2290.5" y1="930.75" y2="930.75"/><text fill="#000000" font-family="sans-serif" font-size="20" font-weight="bold" lengthAdjust="spacing" textLength="22" x="1149" y="924.3555">20</text><text fill="#000000" font-family="sans-serif" font-size="20" lengthAdjust="spacing" textLength="372" x="1175" y="924.3555">returns only the candidates as a sorted list</text><polygon fill="#181818" points="566,965.9063,556,969.9063,566,973.9063,562,969.9063" style="stroke:#181818;stroke-width:1.0;"/><line style="stroke:#181818;stroke-width:1.0;stroke-dasharray:2.0,2.0;" x1="560" x2="1126" y1="969.9063" y2="969.9063"/><text fill="#000000" font-family="sans-serif" font-size="20" font-weight="bold" lengthAdjust="spacing" textLength="22" x="572" y="963.5117">21</text><text fill="#000000" font-family="sans-serif" font-size="20" lengthAdjust="spacing" textLength="517" x="598" y="963.5117">returns Candidate with the same name as the one provided</text><line style="stroke:#000000;stroke-width:1.0;stroke-dasharray:2.0,2.0;" x1="10" x2="2668.5" y1="978.9063" y2="978.9063"/><text fill="#000000" font-family="sans-serif" font-size="20" font-weight="bold" lengthAdjust="spacing" textLength="104" x="15" y="999.668">[individual]</text><polygon fill="#181818" points="1110,1032.2188,1120,1036.2188,1110,1040.2188,1114,1036.2188" style="stroke:#181818;stroke-width:1.0;"/><line style="stroke:#181818;stroke-width:1.0;" x1="555" x2="1116" y1="1036.2188" y2="1036.2188"/><text fill="#000000" font-family="sans-serif" font-size="20" font-weight="bold" lengthAdjust="spacing" textLength="22" x="562" y="1029.8242">22</text><text fill="#000000" font-family="sans-serif" font-size="20" lengthAdjust="spacing" textLength="205" x="588" y="1029.8242">getCandidateByName()</text><polygon fill="#181818" points="2052,1071.375,2062,1075.375,2052,1079.375,2056,1075.375" style="stroke:#181818;stroke-width:1.0;"/><line style="stroke:#181818;stroke-width:1.0;" x1="1132" x2="2058" y1="1075.375" y2="1075.375"/><text fill="#000000" font-family="sans-serif" font-size="20" font-weight="bold" lengthAdjust="spacing" textLength="22" x="1139" y="1068.9805">23</text><text fill="#000000" font-family="sans-serif" font-size="20" lengthAdjust="spacing" textLength="322" x="1165" y="1068.9805">ensureAuthenticatedUserHasAnyOf()</text><polygon fill="#181818" points="1143,1110.5313,1133,1114.5313,1143,1118.5313,1139,1114.5313" style="stroke:#181818;stroke-width:1.0;"/><line style="stroke:#181818;stroke-width:1.0;stroke-dasharray:2.0,2.0;" x1="1137" x2="2068" y1="1114.5313" y2="1114.5313"/><text fill="#000000" font-family="sans-serif" font-size="20" font-weight="bold" lengthAdjust="spacing" textLength="22" x="1149" y="1108.1367">24</text><text fill="#000000" font-family="sans-serif" font-size="20" lengthAdjust="spacing" textLength="639" x="1175" y="1108.1367">returns confirmation that user is credited to perform the current operation</text><polygon fill="#181818" points="2274.5,1149.6875,2284.5,1153.6875,2274.5,1157.6875,2278.5,1153.6875" style="stroke:#181818;stroke-width:1.0;"/><line style="stroke:#181818;stroke-width:1.0;" x1="1132" x2="2280.5" y1="1153.6875" y2="1153.6875"/><text fill="#000000" font-family="sans-serif" font-size="20" font-weight="bold" lengthAdjust="spacing" textLength="22" x="1139" y="1147.293">25</text><text fill="#000000" font-family="sans-serif" font-size="20" lengthAdjust="spacing" textLength="84" x="1165" y="1147.293">allUsers()</text><polygon fill="#181818" points="2570.5,1188.8438,2580.5,1192.8438,2570.5,1196.8438,2574.5,1192.8438" style="stroke:#181818;stroke-width:1.0;"/><line style="stroke:#181818;stroke-width:1.0;" x1="2296.5" x2="2576.5" y1="1192.8438" y2="1192.8438"/><text fill="#000000" font-family="sans-serif" font-size="20" font-weight="bold" lengthAdjust="spacing" textLength="22" x="2303.5" y="1186.4492">26</text><text fill="#000000" font-family="sans-serif" font-size="20" lengthAdjust="spacing" textLength="66" x="2329.5" y="1186.4492">findAll()</text><polygon fill="#181818" points="2307.5,1228,2297.5,1232,2307.5,1236,2303.5,1232" style="stroke:#181818;stroke-width:1.0;"/><line style="stroke:#181818;stroke-width:1.0;stroke-dasharray:2.0,2.0;" x1="2301.5" x2="2586.5" y1="1232" y2="1232"/><text fill="#000000" font-family="sans-serif" font-size="20" font-weight="bold" lengthAdjust="spacing" textLength="22" x="2313.5" y="1225.6055">27</text><text fill="#000000" font-family="sans-serif" font-size="20" lengthAdjust="spacing" textLength="236" x="2339.5" y="1225.6055">returns Iterable of all users</text><polygon fill="#181818" points="1143,1267.1563,1133,1271.1563,1143,1275.1563,1139,1271.1563" style="stroke:#181818;stroke-width:1.0;"/><line style="stroke:#181818;stroke-width:1.0;stroke-dasharray:2.0,2.0;" x1="1137" x2="2290.5" y1="1271.1563" y2="1271.1563"/><text fill="#000000" font-family="sans-serif" font-size="20" font-weight="bold" lengthAdjust="spacing" textLength="22" x="1149" y="1264.7617">28</text><text fill="#000000" font-family="sans-serif" font-size="20" lengthAdjust="spacing" textLength="372" x="1175" y="1264.7617">returns only the candidates as a sorted list</text><polygon fill="#181818" points="566,1306.3125,556,1310.3125,566,1314.3125,562,1310.3125" style="stroke:#181818;stroke-width:1.0;"/><line style="stroke:#181818;stroke-width:1.0;stroke-dasharray:2.0,2.0;" x1="560" x2="1126" y1="1310.3125" y2="1310.3125"/><text fill="#000000" font-family="sans-serif" font-size="20" font-weight="bold" lengthAdjust="spacing" textLength="22" x="572" y="1303.918">29</text><text fill="#000000" font-family="sans-serif" font-size="20" lengthAdjust="spacing" textLength="517" x="598" y="1303.918">returns Candidate with the same name as the one provided</text><polygon fill="#181818" points="79,1352.4688,69,1356.4688,79,1360.4688,75,1356.4688" style="stroke:#181818;stroke-width:1.0;"/><line style="stroke:#181818;stroke-width:1.0;stroke-dasharray:2.0,2.0;" x1="73" x2="544" y1="1356.4688" y2="1356.4688"/><text fill="#000000" font-family="sans-serif" font-size="20" font-weight="bold" lengthAdjust="spacing" textLength="22" x="85" y="1350.0742">30</text><text fill="#000000" font-family="sans-serif" font-size="20" lengthAdjust="spacing" textLength="278" x="111" y="1350.0742">displays candidate's information</text><polygon fill="#181818" points="79,1391.625,69,1395.625,79,1399.625,75,1395.625" style="stroke:#181818;stroke-width:1.0;"/><line style="stroke:#181818;stroke-width:1.0;stroke-dasharray:2.0,2.0;" x1="73" x2="544" y1="1395.625" y2="1395.625"/><text fill="#000000" font-family="sans-serif" font-size="20" font-weight="bold" lengthAdjust="spacing" textLength="22" x="85" y="1389.2305">31</text><text fill="#000000" font-family="sans-serif" font-size="20" lengthAdjust="spacing" textLength="427" x="111" y="1389.2305">dsks if use wants to see candidate's applications</text><path d="M10,1410.625 L78,1410.625 L78,1427.7813 L68,1437.7813 L10,1437.7813 L10,1410.625 " fill="#EEEEEE" style="stroke:#000000;stroke-width:1.5;"/><rect fill="none" height="233.0938" style="stroke:#000000;stroke-width:1.5;" width="2864.5" x="10" y="1410.625"/><text fill="#000000" font-family="sans-serif" font-size="20" font-weight="bold" lengthAdjust="spacing" textLength="23" x="25" y="1432.3867">alt</text><text fill="#000000" font-family="sans-serif" font-size="20" font-weight="bold" lengthAdjust="spacing" textLength="47" x="93" y="1433.3867">[yes]</text><polygon fill="#181818" points="1616.5,1475.0938,1626.5,1479.0938,1616.5,1483.0938,1620.5,1479.0938" style="stroke:#181818;stroke-width:1.0;"/><line style="stroke:#181818;stroke-width:1.0;" x1="555" x2="1622.5" y1="1479.0938" y2="1479.0938"/><text fill="#000000" font-family="sans-serif" font-size="20" font-weight="bold" lengthAdjust="spacing" textLength="22" x="562" y="1472.6992">32</text><text fill="#000000" font-family="sans-serif" font-size="20" lengthAdjust="spacing" textLength="243" x="588" y="1472.6992">searchCandidateApplication</text><polygon fill="#181818" points="2749.5,1514.25,2759.5,1518.25,2749.5,1522.25,2753.5,1518.25" style="stroke:#181818;stroke-width:1.0;"/><line style="stroke:#181818;stroke-width:1.0;" x1="1638.5" x2="2755.5" y1="1518.25" y2="1518.25"/><text fill="#000000" font-family="sans-serif" font-size="20" font-weight="bold" lengthAdjust="spacing" textLength="22" x="1645.5" y="1511.8555">33</text><text fill="#000000" font-family="sans-serif" font-size="20" lengthAdjust="spacing" textLength="137" x="1671.5" y="1511.8555">findAllByEmail()</text><polygon fill="#181818" points="1649.5,1553.4063,1639.5,1557.4063,1649.5,1561.4063,1645.5,1557.4063" style="stroke:#181818;stroke-width:1.0;"/><line style="stroke:#181818;stroke-width:1.0;stroke-dasharray:2.0,2.0;" x1="1643.5" x2="2765.5" y1="1557.4063" y2="1557.4063"/><text fill="#000000" font-family="sans-serif" font-size="20" font-weight="bold" lengthAdjust="spacing" textLength="22" x="1655.5" y="1551.0117">34</text><text fill="#000000" font-family="sans-serif" font-size="20" lengthAdjust="spacing" textLength="356" x="1681.5" y="1551.0117">returns all of the candidate's applications</text><polygon fill="#181818" points="566,1592.5625,556,1596.5625,566,1600.5625,562,1596.5625" style="stroke:#181818;stroke-width:1.0;"/><line style="stroke:#181818;stroke-width:1.0;stroke-dasharray:2.0,2.0;" x1="560" x2="1632.5" y1="1596.5625" y2="1596.5625"/><text fill="#000000" font-family="sans-serif" font-size="20" font-weight="bold" lengthAdjust="spacing" textLength="22" x="572" y="1590.168">35</text><text fill="#000000" font-family="sans-serif" font-size="20" lengthAdjust="spacing" textLength="356" x="598" y="1590.168">returns all of the candidate's applications</text><polygon fill="#181818" points="79,1631.7188,69,1635.7188,79,1639.7188,75,1635.7188" style="stroke:#181818;stroke-width:1.0;"/><line style="stroke:#181818;stroke-width:1.0;stroke-dasharray:2.0,2.0;" x1="73" x2="544" y1="1635.7188" y2="1635.7188"/><text fill="#000000" font-family="sans-serif" font-size="20" font-weight="bold" lengthAdjust="spacing" textLength="22" x="85" y="1629.3242">36</text><text fill="#000000" font-family="sans-serif" font-size="20" lengthAdjust="spacing" textLength="366" x="111" y="1629.3242">displays all of the candidate's applications</text><!--SRC=[xLRBRjim4BphAnQvf3suANeK0WEAaJO2ahY8um-WfLLCX29LaahWV7rtgMTaeowAj421-63OvCxiOqOYtQFKbR2YL2Pxn1noB4Ij_5UZ_Kg-87pv79rklQzSV7PMAQ5zNQfFcIdF7FweKMSuowLu87mKYTeRNPSRj978lB5migpG2lfr0iB1Cg8yNcQo8XOukPREBuJEPIuyfhemwpI4hLCuFwyiEjHUU6dqV7u4kA1QhL4ARPDeaIxkxww99QcKp8vpk86WmH-59rM_jK9Xi-s48LaTfwZzrbZvqfBO9vbXWrtVN_qIkNPeRuGM3rZIYCRGzStjjocK6XGRuH0OTeULSP84sN7utUNtDONRVd4SFcfn3vLCKH4BBfzebgJoSZPd4MCAVdJW3IWQDWYbWDpWZ1OA9Aa6fW01MIV2mB1E8uBFY6NPSZnlXOSIQM0vermOEJFN3gCbX7mnBIlClEksc_X8A1yAY80-p3jlz8t3wk017e_xy364zQM4oB3KU8B0B4yCg5rjaJKa2NXCc3F1bN29tYsBAG-3maeGTpRKOD7NLZl8Z2waBSEumNExr9e5IJiMSqdqt2xDhp2sf024hBQMSeC9ZnZ10d-E-pdxqjaUCGjni5VUROR4Bg9mjaSCXTHvejGqcZV3IZ3Hh6M7eQFKKrqRXK5cqfxxSTCQUvOcPpUN4OtHQjVqsol59XJWZEMfzDAEMFjEsivRVtIKXo23q9trg8PSEdhZxToa_jvmgzPml3MsLzfe-u23lIvsjwB4FNkbWx_IjpPO-WyTblvN5alVr6FfGPFroiEpzDl0xiW1eFcBo7d1Q8JAcYUPOxvdoCOQgEXLJEEH55GBzUwoTvVz3PVfV7Jazg-zlj1J5qxiLjTnA9_Eik2Pm3DTJi9nxn1VGSLmat3XEDwX6ncvkIl5xR7TTpIwVqnCkEhjt5wp6ecJNkABtMKfv26baqxf97JGfUx6oVAIogz4cZQmBtpogfQ9Gdz0EMhmW2Y_GyXwZbsKZlyjVm80]--></g></svg>