<?xml version="1.0" encoding="UTF-8" standalone="no"?><svg xmlns="http://www.w3.org/2000/svg" xmlns:xlink="http://www.w3.org/1999/xlink" contentStyleType="text/css" height="927px" preserveAspectRatio="none" style="width:659px;height:927px;background:#FFFFFF;" version="1.1" viewBox="0 0 659 927" width="659px" zoomAndPan="magnify"><defs/><g><!--class ListCandidateInfoUI--><g id="elem_ListCandidateInfoUI"><rect codeLine="3" fill="#F1F1F1" height="151.7813" id="ListCandidateInfoUI" rx="2.5" ry="2.5" style="stroke:#181818;stroke-width:0.5;" width="206" x="248.5" y="7"/><ellipse cx="264.5" cy="24.5781" fill="#ADD1B2" rx="12" ry="12" style="stroke:#181818;stroke-width:1.0;"/><path d="M266.6406,19.5 Q266.8281,19.25 267.0469,19.125 Q267.2656,18.9844 267.5156,18.9844 Q267.9531,18.9844 268.2344,19.2969 Q268.5156,19.5938 268.5156,20.3125 L268.5156,22.0156 Q268.5156,22.7344 268.2344,23.0469 Q267.9531,23.3594 267.5156,23.3594 Q267.125,23.3594 266.875,23.125 Q266.625,22.9063 266.5156,22.2969 Q266.4531,21.875 266.2344,21.6563 Q265.8438,21.2188 265.125,20.9531 Q264.4063,20.6875 263.6875,20.6875 Q262.7813,20.6875 262.0313,21.0781 Q261.2813,21.4688 260.7031,22.3594 Q260.125,23.2344 260.125,24.4375 L260.125,25.7344 Q260.125,27.1875 261.1719,28.1563 Q262.2344,29.125 264.0938,29.125 Q265.2031,29.125 265.9844,28.8125 Q266.4219,28.6406 266.9375,28.125 Q267.25,27.8125 267.4219,27.7188 Q267.5938,27.625 267.8281,27.625 Q268.2188,27.625 268.5156,27.9375 Q268.8281,28.2344 268.8281,28.6406 Q268.8281,29.0469 268.4219,29.5156 Q267.8281,30.2031 266.8906,30.5938 Q265.625,31.125 264.1094,31.125 Q262.3281,31.125 260.9063,30.3906 Q259.75,29.7969 258.9375,28.5313 Q258.125,27.2656 258.125,25.7813 L258.125,24.4219 Q258.125,22.8594 258.8438,21.5156 Q259.5781,20.1563 260.8594,19.4219 Q262.1563,18.6875 263.6094,18.6875 Q264.4688,18.6875 265.2188,18.8906 Q265.9844,19.0938 266.6406,19.5 Z " fill="#000000"/><text fill="#000000" font-family="sans-serif" font-size="20" lengthAdjust="spacing" textLength="172" x="279.5" y="32.7617">ListCandidateInfoUI</text><line style="stroke:#181818;stroke-width:0.5;" x1="249.5" x2="453.5" y1="42.1563" y2="42.1563"/><rect fill="none" height="6" style="stroke:#C82930;stroke-width:1.0;" width="6" x="256.5" y="57.2344"/><text fill="#000000" font-family="sans-serif" font-size="20" lengthAdjust="spacing" textLength="112" x="269.5" y="66.918">theController</text><rect fill="none" height="6" style="stroke:#C82930;stroke-width:1.0;" width="6" x="256.5" y="82.3906"/><text fill="#000000" font-family="sans-serif" font-size="20" lengthAdjust="spacing" textLength="109" x="269.5" y="92.0742">listController</text><line style="stroke:#181818;stroke-width:0.5;" x1="249.5" x2="453.5" y1="100.4688" y2="100.4688"/><ellipse cx="259.5" cy="118.5469" fill="#84BE84" rx="3" ry="3" style="stroke:#038048;stroke-width:1.0;"/><text fill="#000000" font-family="sans-serif" font-size="20" lengthAdjust="spacing" textLength="85" x="269.5" y="125.2305">doShow()</text><ellipse cx="259.5" cy="143.7031" fill="#84BE84" rx="3" ry="3" style="stroke:#038048;stroke-width:1.0;"/><text fill="#000000" font-family="sans-serif" font-size="20" lengthAdjust="spacing" textLength="86" x="269.5" y="150.3867">headline()</text></g><!--class ListCandidateInfoController--><g id="elem_ListCandidateInfoController"><rect codeLine="11" fill="#F1F1F1" height="126.625" id="ListCandidateInfoController" rx="2.5" ry="2.5" style="stroke:#181818;stroke-width:0.5;" width="272" x="67.5" y="219"/><ellipse cx="83.5" cy="236.5781" fill="#ADD1B2" rx="12" ry="12" style="stroke:#181818;stroke-width:1.0;"/><path d="M85.6406,231.5 Q85.8281,231.25 86.0469,231.125 Q86.2656,230.9844 86.5156,230.9844 Q86.9531,230.9844 87.2344,231.2969 Q87.5156,231.5938 87.5156,232.3125 L87.5156,234.0156 Q87.5156,234.7344 87.2344,235.0469 Q86.9531,235.3594 86.5156,235.3594 Q86.125,235.3594 85.875,235.125 Q85.625,234.9063 85.5156,234.2969 Q85.4531,233.875 85.2344,233.6563 Q84.8438,233.2188 84.125,232.9531 Q83.4063,232.6875 82.6875,232.6875 Q81.7813,232.6875 81.0313,233.0781 Q80.2813,233.4688 79.7031,234.3594 Q79.125,235.2344 79.125,236.4375 L79.125,237.7344 Q79.125,239.1875 80.1719,240.1563 Q81.2344,241.125 83.0938,241.125 Q84.2031,241.125 84.9844,240.8125 Q85.4219,240.6406 85.9375,240.125 Q86.25,239.8125 86.4219,239.7188 Q86.5938,239.625 86.8281,239.625 Q87.2188,239.625 87.5156,239.9375 Q87.8281,240.2344 87.8281,240.6406 Q87.8281,241.0469 87.4219,241.5156 Q86.8281,242.2031 85.8906,242.5938 Q84.625,243.125 83.1094,243.125 Q81.3281,243.125 79.9063,242.3906 Q78.75,241.7969 77.9375,240.5313 Q77.125,239.2656 77.125,237.7813 L77.125,236.4219 Q77.125,234.8594 77.8438,233.5156 Q78.5781,232.1563 79.8594,231.4219 Q81.1563,230.6875 82.6094,230.6875 Q83.4688,230.6875 84.2188,230.8906 Q84.9844,231.0938 85.6406,231.5 Z " fill="#000000"/><text fill="#000000" font-family="sans-serif" font-size="20" lengthAdjust="spacing" textLength="238" x="98.5" y="244.7617">ListCandidateInfoController</text><line style="stroke:#181818;stroke-width:0.5;" x1="68.5" x2="338.5" y1="254.1563" y2="254.1563"/><rect fill="none" height="6" style="stroke:#C82930;stroke-width:1.0;" width="6" x="75.5" y="269.2344"/><text fill="#000000" font-family="sans-serif" font-size="20" lengthAdjust="spacing" textLength="46" x="88.5" y="278.918">authz</text><rect fill="none" height="6" style="stroke:#C82930;stroke-width:1.0;" width="6" x="75.5" y="294.3906"/><text fill="#000000" font-family="sans-serif" font-size="20" lengthAdjust="spacing" textLength="70" x="88.5" y="304.0742">userSvc</text><line style="stroke:#181818;stroke-width:0.5;" x1="68.5" x2="338.5" y1="312.4688" y2="312.4688"/><ellipse cx="78.5" cy="330.5469" fill="#84BE84" rx="3" ry="3" style="stroke:#038048;stroke-width:1.0;"/><text fill="#000000" font-family="sans-serif" font-size="20" lengthAdjust="spacing" textLength="205" x="88.5" y="337.2305">getCandidateByName()</text></g><!--class ListCandidatesController--><g id="elem_ListCandidatesController"><rect codeLine="17" fill="#F1F1F1" height="126.625" id="ListCandidatesController" rx="2.5" ry="2.5" style="stroke:#181818;stroke-width:0.5;" width="249" x="375" y="219"/><ellipse cx="391" cy="236.5781" fill="#ADD1B2" rx="12" ry="12" style="stroke:#181818;stroke-width:1.0;"/><path d="M393.1406,231.5 Q393.3281,231.25 393.5469,231.125 Q393.7656,230.9844 394.0156,230.9844 Q394.4531,230.9844 394.7344,231.2969 Q395.0156,231.5938 395.0156,232.3125 L395.0156,234.0156 Q395.0156,234.7344 394.7344,235.0469 Q394.4531,235.3594 394.0156,235.3594 Q393.625,235.3594 393.375,235.125 Q393.125,234.9063 393.0156,234.2969 Q392.9531,233.875 392.7344,233.6563 Q392.3438,233.2188 391.625,232.9531 Q390.9063,232.6875 390.1875,232.6875 Q389.2813,232.6875 388.5313,233.0781 Q387.7813,233.4688 387.2031,234.3594 Q386.625,235.2344 386.625,236.4375 L386.625,237.7344 Q386.625,239.1875 387.6719,240.1563 Q388.7344,241.125 390.5938,241.125 Q391.7031,241.125 392.4844,240.8125 Q392.9219,240.6406 393.4375,240.125 Q393.75,239.8125 393.9219,239.7188 Q394.0938,239.625 394.3281,239.625 Q394.7188,239.625 395.0156,239.9375 Q395.3281,240.2344 395.3281,240.6406 Q395.3281,241.0469 394.9219,241.5156 Q394.3281,242.2031 393.3906,242.5938 Q392.125,243.125 390.6094,243.125 Q388.8281,243.125 387.4063,242.3906 Q386.25,241.7969 385.4375,240.5313 Q384.625,239.2656 384.625,237.7813 L384.625,236.4219 Q384.625,234.8594 385.3438,233.5156 Q386.0781,232.1563 387.3594,231.4219 Q388.6563,230.6875 390.1094,230.6875 Q390.9688,230.6875 391.7188,230.8906 Q392.4844,231.0938 393.1406,231.5 Z " fill="#000000"/><text fill="#000000" font-family="sans-serif" font-size="20" lengthAdjust="spacing" textLength="215" x="406" y="244.7617">ListCandidatesController</text><line style="stroke:#181818;stroke-width:0.5;" x1="376" x2="623" y1="254.1563" y2="254.1563"/><rect fill="none" height="6" style="stroke:#C82930;stroke-width:1.0;" width="6" x="383" y="269.2344"/><text fill="#000000" font-family="sans-serif" font-size="20" lengthAdjust="spacing" textLength="46" x="396" y="278.918">authz</text><rect fill="none" height="6" style="stroke:#C82930;stroke-width:1.0;" width="6" x="383" y="294.3906"/><text fill="#000000" font-family="sans-serif" font-size="20" lengthAdjust="spacing" textLength="70" x="396" y="304.0742">userSvc</text><line style="stroke:#181818;stroke-width:0.5;" x1="376" x2="623" y1="312.4688" y2="312.4688"/><ellipse cx="386" cy="330.5469" fill="#84BE84" rx="3" ry="3" style="stroke:#038048;stroke-width:1.0;"/><text fill="#000000" font-family="sans-serif" font-size="20" lengthAdjust="spacing" textLength="188" x="396" y="337.2305">listCandidatesUsers()</text></g><!--class AuthorizationService--><g id="elem_AuthorizationService"><rect codeLine="24" fill="#F1F1F1" height="302.7188" id="AuthorizationService" rx="2.5" ry="2.5" style="stroke:#181818;stroke-width:0.5;" width="349" x="7" y="443.5"/><ellipse cx="88.5" cy="461.0781" fill="#ADD1B2" rx="12" ry="12" style="stroke:#181818;stroke-width:1.0;"/><path d="M90.6406,456 Q90.8281,455.75 91.0469,455.625 Q91.2656,455.4844 91.5156,455.4844 Q91.9531,455.4844 92.2344,455.7969 Q92.5156,456.0938 92.5156,456.8125 L92.5156,458.5156 Q92.5156,459.2344 92.2344,459.5469 Q91.9531,459.8594 91.5156,459.8594 Q91.125,459.8594 90.875,459.625 Q90.625,459.4063 90.5156,458.7969 Q90.4531,458.375 90.2344,458.1563 Q89.8438,457.7188 89.125,457.4531 Q88.4063,457.1875 87.6875,457.1875 Q86.7813,457.1875 86.0313,457.5781 Q85.2813,457.9688 84.7031,458.8594 Q84.125,459.7344 84.125,460.9375 L84.125,462.2344 Q84.125,463.6875 85.1719,464.6563 Q86.2344,465.625 88.0938,465.625 Q89.2031,465.625 89.9844,465.3125 Q90.4219,465.1406 90.9375,464.625 Q91.25,464.3125 91.4219,464.2188 Q91.5938,464.125 91.8281,464.125 Q92.2188,464.125 92.5156,464.4375 Q92.8281,464.7344 92.8281,465.1406 Q92.8281,465.5469 92.4219,466.0156 Q91.8281,466.7031 90.8906,467.0938 Q89.625,467.625 88.1094,467.625 Q86.3281,467.625 84.9063,466.8906 Q83.75,466.2969 82.9375,465.0313 Q82.125,463.7656 82.125,462.2813 L82.125,460.9219 Q82.125,459.3594 82.8438,458.0156 Q83.5781,456.6563 84.8594,455.9219 Q86.1563,455.1875 87.6094,455.1875 Q88.4688,455.1875 89.2188,455.3906 Q89.9844,455.5938 90.6406,456 Z " fill="#000000"/><text fill="#000000" font-family="sans-serif" font-size="20" lengthAdjust="spacing" textLength="177" x="110.5" y="469.2617">AuthorizationService</text><line style="stroke:#181818;stroke-width:0.5;" x1="8" x2="355" y1="478.6563" y2="478.6563"/><rect fill="none" height="6" style="stroke:#C82930;stroke-width:1.0;" width="6" x="15" y="493.7344"/><text fill="#000000" font-family="sans-serif" font-size="20" lengthAdjust="spacing" textLength="86" x="28" y="503.418">LOGGER</text><rect fill="none" height="6" style="stroke:#C82930;stroke-width:1.0;" width="6" x="15" y="518.8906"/><text fill="#000000" font-family="sans-serif" font-size="20" lengthAdjust="spacing" textLength="96" x="28" y="528.5742">theSession</text><line style="stroke:#181818;stroke-width:0.5;" x1="8" x2="355" y1="536.9688" y2="536.9688"/><ellipse cx="18" cy="555.0469" fill="#84BE84" rx="3" ry="3" style="stroke:#038048;stroke-width:1.0;"/><text fill="#000000" font-family="sans-serif" font-size="20" lengthAdjust="spacing" textLength="191" x="28" y="561.7305">AuthorizationService()</text><ellipse cx="18" cy="580.2031" fill="#84BE84" rx="3" ry="3" style="stroke:#038048;stroke-width:1.0;"/><text fill="#000000" font-family="sans-serif" font-size="20" lengthAdjust="spacing" textLength="210" x="28" y="586.8867">createSessionForUser()</text><ellipse cx="18" cy="605.3594" fill="#84BE84" rx="3" ry="3" style="stroke:#038048;stroke-width:1.0;"/><text fill="#000000" font-family="sans-serif" font-size="20" lengthAdjust="spacing" textLength="126" x="28" y="612.043">clearSession()</text><ellipse cx="18" cy="630.5156" fill="#84BE84" rx="3" ry="3" style="stroke:#038048;stroke-width:1.0;"/><text fill="#000000" font-family="sans-serif" font-size="20" lengthAdjust="spacing" textLength="114" x="28" y="637.1992">hasSession()</text><ellipse cx="18" cy="655.6719" fill="#84BE84" rx="3" ry="3" style="stroke:#038048;stroke-width:1.0;"/><text fill="#000000" font-family="sans-serif" font-size="20" lengthAdjust="spacing" textLength="80" x="28" y="662.3555">session()</text><ellipse cx="18" cy="680.8281" fill="#84BE84" rx="3" ry="3" style="stroke:#038048;stroke-width:1.0;"/><text fill="#000000" font-family="sans-serif" font-size="20" lengthAdjust="spacing" textLength="303" x="28" y="687.5117">isAuthenticatedUserAuthorizedTo()</text><ellipse cx="18" cy="705.9844" fill="#84BE84" rx="3" ry="3" style="stroke:#038048;stroke-width:1.0;"/><text fill="#000000" font-family="sans-serif" font-size="20" lengthAdjust="spacing" textLength="322" x="28" y="712.668">ensureAuthenticatedUserHasAnyOf()</text><ellipse cx="18" cy="731.1406" fill="#84BE84" rx="3" ry="3" style="stroke:#038048;stroke-width:1.0;"/><text fill="#000000" font-family="sans-serif" font-size="20" lengthAdjust="spacing" textLength="273" x="28" y="737.8242">loggedinUserWithPermissions()</text></g><!--class UserManagementService--><g id="elem_UserManagementService"><rect codeLine="37" fill="#F1F1F1" height="378.1875" id="UserManagementService" rx="2.5" ry="2.5" style="stroke:#181818;stroke-width:0.5;" width="261" x="391" y="406"/><ellipse cx="410.15" cy="423.5781" fill="#ADD1B2" rx="12" ry="12" style="stroke:#181818;stroke-width:1.0;"/><path d="M412.2906,418.5 Q412.4781,418.25 412.6969,418.125 Q412.9156,417.9844 413.1656,417.9844 Q413.6031,417.9844 413.8844,418.2969 Q414.1656,418.5938 414.1656,419.3125 L414.1656,421.0156 Q414.1656,421.7344 413.8844,422.0469 Q413.6031,422.3594 413.1656,422.3594 Q412.775,422.3594 412.525,422.125 Q412.275,421.9063 412.1656,421.2969 Q412.1031,420.875 411.8844,420.6563 Q411.4938,420.2188 410.775,419.9531 Q410.0563,419.6875 409.3375,419.6875 Q408.4313,419.6875 407.6813,420.0781 Q406.9313,420.4688 406.3531,421.3594 Q405.775,422.2344 405.775,423.4375 L405.775,424.7344 Q405.775,426.1875 406.8219,427.1563 Q407.8844,428.125 409.7438,428.125 Q410.8531,428.125 411.6344,427.8125 Q412.0719,427.6406 412.5875,427.125 Q412.9,426.8125 413.0719,426.7188 Q413.2438,426.625 413.4781,426.625 Q413.8688,426.625 414.1656,426.9375 Q414.4781,427.2344 414.4781,427.6406 Q414.4781,428.0469 414.0719,428.5156 Q413.4781,429.2031 412.5406,429.5938 Q411.275,430.125 409.7594,430.125 Q407.9781,430.125 406.5563,429.3906 Q405.4,428.7969 404.5875,427.5313 Q403.775,426.2656 403.775,424.7813 L403.775,423.4219 Q403.775,421.8594 404.4938,420.5156 Q405.2281,419.1563 406.5094,418.4219 Q407.8063,417.6875 409.2594,417.6875 Q410.1188,417.6875 410.8688,417.8906 Q411.6344,418.0938 412.2906,418.5 Z " fill="#000000"/><text fill="#000000" font-family="sans-serif" font-size="20" lengthAdjust="spacing" textLength="220" x="425.85" y="431.7617">UserManagementService</text><line style="stroke:#181818;stroke-width:0.5;" x1="392" x2="651" y1="441.1563" y2="441.1563"/><rect fill="none" height="6" style="stroke:#C82930;stroke-width:1.0;" width="6" x="399" y="456.2344"/><text fill="#000000" font-family="sans-serif" font-size="20" lengthAdjust="spacing" textLength="133" x="412" y="465.918">userRepository</text><rect fill="none" height="6" style="stroke:#C82930;stroke-width:1.0;" width="6" x="399" y="481.3906"/><text fill="#000000" font-family="sans-serif" font-size="20" lengthAdjust="spacing" textLength="71" x="412" y="491.0742">encoder</text><rect fill="none" height="6" style="stroke:#C82930;stroke-width:1.0;" width="6" x="399" y="506.5469"/><text fill="#000000" font-family="sans-serif" font-size="20" lengthAdjust="spacing" textLength="50" x="412" y="516.2305">policy</text><line style="stroke:#181818;stroke-width:0.5;" x1="392" x2="651" y1="524.625" y2="524.625"/><ellipse cx="402" cy="542.7031" fill="#84BE84" rx="3" ry="3" style="stroke:#038048;stroke-width:1.0;"/><text fill="#000000" font-family="sans-serif" font-size="20" lengthAdjust="spacing" textLength="234" x="412" y="549.3867">UserManagementService()</text><ellipse cx="402" cy="567.8594" fill="#84BE84" rx="3" ry="3" style="stroke:#038048;stroke-width:1.0;"/><text fill="#000000" font-family="sans-serif" font-size="20" lengthAdjust="spacing" textLength="161" x="412" y="574.543">registerNewUser()</text><ellipse cx="402" cy="593.0156" fill="#84BE84" rx="3" ry="3" style="stroke:#038048;stroke-width:1.0;"/><text fill="#000000" font-family="sans-serif" font-size="20" lengthAdjust="spacing" textLength="161" x="412" y="599.6992">registerNewUser()</text><ellipse cx="402" cy="618.1719" fill="#84BE84" rx="3" ry="3" style="stroke:#038048;stroke-width:1.0;"/><text fill="#000000" font-family="sans-serif" font-size="20" lengthAdjust="spacing" textLength="122" x="412" y="624.8555">registerUser()</text><ellipse cx="402" cy="643.3281" fill="#84BE84" rx="3" ry="3" style="stroke:#038048;stroke-width:1.0;"/><text fill="#000000" font-family="sans-serif" font-size="20" lengthAdjust="spacing" textLength="116" x="412" y="650.0117">activeUsers()</text><ellipse cx="402" cy="668.4844" fill="#84BE84" rx="3" ry="3" style="stroke:#038048;stroke-width:1.0;"/><text fill="#000000" font-family="sans-serif" font-size="20" lengthAdjust="spacing" textLength="166" x="412" y="675.168">deactivatedUsers()</text><ellipse cx="402" cy="693.6406" fill="#84BE84" rx="3" ry="3" style="stroke:#038048;stroke-width:1.0;"/><text fill="#000000" font-family="sans-serif" font-size="20" lengthAdjust="spacing" textLength="84" x="412" y="700.3242">allUsers()</text><ellipse cx="402" cy="718.7969" fill="#84BE84" rx="3" ry="3" style="stroke:#038048;stroke-width:1.0;"/><text fill="#000000" font-family="sans-serif" font-size="20" lengthAdjust="spacing" textLength="138" x="412" y="725.4805">userOfIdentity()</text><ellipse cx="402" cy="743.9531" fill="#84BE84" rx="3" ry="3" style="stroke:#038048;stroke-width:1.0;"/><text fill="#000000" font-family="sans-serif" font-size="20" lengthAdjust="spacing" textLength="145" x="412" y="750.6367">deactivateUser()</text><ellipse cx="402" cy="769.1094" fill="#84BE84" rx="3" ry="3" style="stroke:#038048;stroke-width:1.0;"/><text fill="#000000" font-family="sans-serif" font-size="20" lengthAdjust="spacing" textLength="123" x="412" y="775.793">activateUser()</text></g><!--class UserRepository--><g id="elem_UserRepository"><rect codeLine="53" fill="#F1F1F1" height="76.3125" id="UserRepository" rx="2.5" ry="2.5" style="stroke:#181818;stroke-width:0.5;" width="171" x="436" y="844"/><ellipse cx="452" cy="861.5781" fill="#B4A7E5" rx="12" ry="12" style="stroke:#181818;stroke-width:1.0;"/><path d="M453,857.75 L453,865.5781 L455.0313,865.5781 Q455.75,865.5781 456.0469,865.8594 Q456.3594,866.125 456.3594,866.5781 Q456.3594,867.0156 456.0469,867.2969 Q455.75,867.5781 455.0313,867.5781 L448.9844,867.5781 Q448.25,867.5781 447.9375,867.2969 Q447.6406,867.0156 447.6406,866.5781 Q447.6406,866.125 447.9375,865.8594 Q448.25,865.5781 448.9844,865.5781 L451,865.5781 L451,857.75 L448.9844,857.75 Q448.25,857.75 447.9375,857.4688 Q447.6406,857.1875 447.6406,856.7344 Q447.6406,856.2813 447.9375,856.0156 Q448.25,855.7344 448.9844,855.7344 L455.0313,855.7344 Q455.75,855.7344 456.0469,856.0156 Q456.3594,856.2813 456.3594,856.7344 Q456.3594,857.1875 456.0469,857.4688 Q455.75,857.75 455.0313,857.75 L453,857.75 Z " fill="#000000"/><text fill="#000000" font-family="sans-serif" font-size="20" font-style="italic" lengthAdjust="spacing" textLength="137" x="467" y="869.7617">UserRepository</text><line style="stroke:#181818;stroke-width:0.5;" x1="437" x2="606" y1="879.1563" y2="879.1563"/><line style="stroke:#181818;stroke-width:0.5;" x1="437" x2="606" y1="887.1563" y2="887.1563"/><ellipse cx="447" cy="905.2344" fill="#84BE84" rx="3" ry="3" style="stroke:#038048;stroke-width:1.0;"/><text fill="#000000" font-family="sans-serif" font-size="20" lengthAdjust="spacing" textLength="121" x="457" y="911.918">findByActive()</text></g><!--link ListCandidateInfoUI to ListCandidateInfoController--><g id="link_ListCandidateInfoUI_ListCandidateInfoController"><path codeLine="57" d="M295.13,159.23 C284.56,173.33 273.48,188.12 262.82,202.33 " fill="none" id="ListCandidateInfoUI-to-ListCandidateInfoController" style="stroke:#181818;stroke-width:1.0;"/><polygon fill="none" points="268.16,206.88,250.57,218.69,256.96,198.49,268.16,206.88" style="stroke:#181818;stroke-width:1.0;"/></g><!--link ListCandidateInfoUI to ListCandidatesController--><g id="link_ListCandidateInfoUI_ListCandidatesController"><path codeLine="58" d="M407.87,159.23 C418.44,173.33 429.52,188.12 440.18,202.33 " fill="none" id="ListCandidateInfoUI-to-ListCandidatesController" style="stroke:#181818;stroke-width:1.0;"/><polygon fill="none" points="446.04,198.49,452.43,218.69,434.84,206.88,446.04,198.49" style="stroke:#181818;stroke-width:1.0;"/></g><!--link ListCandidatesController to AuthorizationService--><g id="link_ListCandidatesController_AuthorizationService"><path codeLine="59" d="M435.03,346.09 C415.28,365.3 393.48,386.5 373.5,406 C365.73,413.58 357.78,421.35 349.75,429.19 " fill="none" id="ListCandidatesController-to-AuthorizationService" style="stroke:#181818;stroke-width:1.0;"/><polygon fill="none" points="354.44,434.39,335.24,443.37,344.65,424.38,354.44,434.39" style="stroke:#181818;stroke-width:1.0;"/></g><!--link ListCandidatesController to UserManagementService--><g id="link_ListCandidatesController_UserManagementService"><path codeLine="60" d="M503.95,346.33 C504.81,358.44 505.75,371.72 506.74,385.65 " fill="none" id="ListCandidatesController-to-UserManagementService" style="stroke:#181818;stroke-width:1.0;"/><polygon fill="none" points="513.73,385.28,508.16,405.73,499.76,386.27,513.73,385.28" style="stroke:#181818;stroke-width:1.0;"/></g><!--link ListCandidateInfoController to AuthorizationService--><g id="link_ListCandidateInfoController_AuthorizationService"><path codeLine="61" d="M199.05,346.33 C197.44,369.01 195.54,395.81 193.6,423.27 " fill="none" id="ListCandidateInfoController-to-AuthorizationService" style="stroke:#181818;stroke-width:1.0;"/><polygon fill="none" points="200.57,423.88,192.18,443.33,186.61,422.89,200.57,423.88" style="stroke:#181818;stroke-width:1.0;"/></g><!--link ListCandidateInfoController to UserManagementService--><g id="link_ListCandidateInfoController_UserManagementService"><path codeLine="62" d="M300.28,346.13 C325.24,364.16 351.31,384.73 373.5,406 C374.6,407.05 375.69,408.11 376.79,409.18 " fill="none" id="ListCandidateInfoController-to-UserManagementService" style="stroke:#181818;stroke-width:1.0;"/><polygon fill="none" points="381.82,404.32,390.92,423.46,371.87,414.17,381.82,404.32" style="stroke:#181818;stroke-width:1.0;"/></g><!--link UserManagementService to UserRepository--><g id="link_UserManagementService_UserRepository"><path codeLine="63" d="M521.5,784.11 C521.5,798.14 521.5,811.5 521.5,823.58 " fill="none" id="UserManagementService-to-UserRepository" style="stroke:#181818;stroke-width:1.0;"/><polygon fill="none" points="528.5,823.79,521.5,843.79,514.5,823.79,528.5,823.79" style="stroke:#181818;stroke-width:1.0;"/></g><!--SRC=[ZLDDRzim3BtxL_Ys3KEMOiST1gJ5sWRecg5UiJCXqJPHMJ94EONJxR-FafFQsToq9ukFxpr-IEO7iYruQ8nJ3wXpZILq9bmw6mhQOVxvB7jNXz3ob-MoDM13rvXFoZLBPO1veGag4MTP2lCRud01LfE6W6jRkllrKxR8GuqNOkYTCUWbDf4s0XzpxOhQFRx_8CSQGHkoAC6Vx4NVKHtzeGlrJhuTeo-sIbmg7Fdd_IqqUxyPEtxDononxmNde-PMed2UTX38sGBzbXH6fvlDrTMtks7y0fabAsvpx3IuyYZ-U-Abyx7Ga308VeyFAmAUXZmv4qT_j86KcEdeSIY8-gTB7BJSUVoFTmsyilscJ1pZgWersPZuHQ7-WRwXL8QdYupfxs2XmaQy9hF7xTrXwvY2yxq0Q9NJwV9RPqZrKcDMdAfxh6Jdw6_nyNaBfx1d05IWBHwkIDuL9kGmuW22CMCG6zsKQnrN4Vf_HCU-8o3pavMw9IXCOuoZFWcx9AlF-rNgPM3F_1VvOl7xwwc7_KOHlwIO90RPtCjxHJ9xHTc9fjzQQKurNsmM7GNZvly2]--></g></svg>