<?xml version="1.0" encoding="UTF-8" standalone="no"?><svg xmlns="http://www.w3.org/2000/svg" xmlns:xlink="http://www.w3.org/1999/xlink" contentStyleType="text/css" height="1486px" preserveAspectRatio="none" style="width:2600px;height:1486px;background:#FFFFFF;" version="1.1" viewBox="0 0 2600 1486" width="2600px" zoomAndPan="magnify"><defs/><g><rect fill="#FFFFFF" height="1245.1563" style="stroke:#181818;stroke-width:1.0;" width="10" x="58" y="111.3125"/><rect fill="#FFFFFF" height="1214" style="stroke:#181818;stroke-width:1.0;" width="10" x="470" y="142.4688"/><rect fill="#FFFFFF" height="274.0938" style="stroke:#181818;stroke-width:1.0;" width="10" x="1047" y="695.8125"/><rect fill="#FFFFFF" height="274.0938" style="stroke:#181818;stroke-width:1.0;" width="10" x="1047" y="1036.2188"/><rect fill="#FFFFFF" height="274.0938" style="stroke:#181818;stroke-width:1.0;" width="10" x="1301" y="304.25"/><rect fill="#FFFFFF" height="39.1563" style="stroke:#181818;stroke-width:1.0;" width="10" x="1989" y="343.4063"/><rect fill="#FFFFFF" height="39.1563" style="stroke:#181818;stroke-width:1.0;" width="10" x="1989" y="734.9688"/><rect fill="#FFFFFF" height="39.1563" style="stroke:#181818;stroke-width:1.0;" width="10" x="1989" y="1075.375"/><rect fill="#FFFFFF" height="117.4688" style="stroke:#181818;stroke-width:1.0;" width="10" x="2211.5" y="421.7188"/><rect fill="#FFFFFF" height="117.4688" style="stroke:#181818;stroke-width:1.0;" width="10" x="2211.5" y="813.2813"/><rect fill="#FFFFFF" height="117.4688" style="stroke:#181818;stroke-width:1.0;" width="10" x="2211.5" y="1153.6875"/><rect fill="#FFFFFF" height="39.1563" style="stroke:#181818;stroke-width:1.0;" width="10" x="2507.5" y="460.875"/><rect fill="#FFFFFF" height="39.1563" style="stroke:#181818;stroke-width:1.0;" width="10" x="2507.5" y="852.4375"/><rect fill="#FFFFFF" height="39.1563" style="stroke:#181818;stroke-width:1.0;" width="10" x="2507.5" y="1192.8438"/><rect fill="none" height="1082.5313" style="stroke:#000000;stroke-width:1.5;" width="2583.5" x="10" y="235.7813"/><line style="stroke:#181818;stroke-width:0.5;stroke-dasharray:5.0,5.0;" x1="63" x2="63" y1="101.3125" y2="1374.4688"/><line style="stroke:#181818;stroke-width:0.5;stroke-dasharray:5.0,5.0;" x1="475" x2="475" y1="101.3125" y2="1374.4688"/><line style="stroke:#181818;stroke-width:0.5;stroke-dasharray:5.0,5.0;" x1="1051.5" x2="1051.5" y1="101.3125" y2="1374.4688"/><line style="stroke:#181818;stroke-width:0.5;stroke-dasharray:5.0,5.0;" x1="1305.5" x2="1305.5" y1="101.3125" y2="1374.4688"/><line style="stroke:#181818;stroke-width:0.5;stroke-dasharray:5.0,5.0;" x1="1993.5" x2="1993.5" y1="101.3125" y2="1374.4688"/><line style="stroke:#181818;stroke-width:0.5;stroke-dasharray:5.0,5.0;" x1="2216.5" x2="2216.5" y1="101.3125" y2="1374.4688"/><line style="stroke:#181818;stroke-width:0.5;stroke-dasharray:5.0,5.0;" x1="2512.5" x2="2512.5" y1="101.3125" y2="1374.4688"/><text fill="#000000" font-family="sans-serif" font-size="20" lengthAdjust="spacing" textLength="80" x="20" y="96.918">Operator</text><ellipse cx="63" cy="24.6563" fill="#E2E2F0" rx="8" ry="8" style="stroke:#181818;stroke-width:0.5;"/><path d="M63,32.6563 L63,59.6563 M50,40.6563 L76,40.6563 M63,59.6563 L50,74.6563 M63,59.6563 L76,74.6563 " fill="none" style="stroke:#181818;stroke-width:0.5;"/><text fill="#000000" font-family="sans-serif" font-size="20" lengthAdjust="spacing" textLength="80" x="20" y="1394.2305">Operator</text><ellipse cx="63" cy="1407.125" fill="#E2E2F0" rx="8" ry="8" style="stroke:#181818;stroke-width:0.5;"/><path d="M63,1415.125 L63,1442.125 M50,1423.125 L76,1423.125 M63,1442.125 L50,1457.125 M63,1442.125 L76,1457.125 " fill="none" style="stroke:#181818;stroke-width:0.5;"/><rect fill="#E2E2F0" height="64.3125" rx="2.5" ry="2.5" style="stroke:#181818;stroke-width:0.5;" width="186" x="382" y="36"/><text fill="#000000" font-family="sans-serif" font-size="20" font-style="italic" lengthAdjust="spacing" textLength="131" x="409.5" y="63.7617">«presentation»</text><text fill="#000000" font-family="sans-serif" font-size="20" lengthAdjust="spacing" textLength="172" x="389" y="88.918">ListCandidateInfoUI</text><rect fill="#E2E2F0" height="64.3125" rx="2.5" ry="2.5" style="stroke:#181818;stroke-width:0.5;" width="186" x="382" y="1373.4688"/><text fill="#000000" font-family="sans-serif" font-size="20" font-style="italic" lengthAdjust="spacing" textLength="131" x="409.5" y="1401.2305">«presentation»</text><text fill="#000000" font-family="sans-serif" font-size="20" lengthAdjust="spacing" textLength="172" x="389" y="1426.3867">ListCandidateInfoUI</text><rect fill="#E2E2F0" height="64.3125" rx="2.5" ry="2.5" style="stroke:#181818;stroke-width:0.5;" width="259" x="922.5" y="36"/><text fill="#000000" font-family="sans-serif" font-size="20" font-style="italic" lengthAdjust="spacing" textLength="109" x="997.5" y="63.7617">«Aplication»</text><text fill="#000000" font-family="sans-serif" font-size="20" lengthAdjust="spacing" textLength="245" x="929.5" y="88.918">ListCandidateInfoControllerr</text><rect fill="#E2E2F0" height="64.3125" rx="2.5" ry="2.5" style="stroke:#181818;stroke-width:0.5;" width="259" x="922.5" y="1373.4688"/><text fill="#000000" font-family="sans-serif" font-size="20" font-style="italic" lengthAdjust="spacing" textLength="109" x="997.5" y="1401.2305">«Aplication»</text><text fill="#000000" font-family="sans-serif" font-size="20" lengthAdjust="spacing" textLength="245" x="929.5" y="1426.3867">ListCandidateInfoControllerr</text><rect fill="#E2E2F0" height="39.1563" rx="2.5" ry="2.5" style="stroke:#181818;stroke-width:0.5;" width="229" x="1191.5" y="61.1563"/><text fill="#000000" font-family="sans-serif" font-size="20" lengthAdjust="spacing" textLength="215" x="1198.5" y="88.918">ListCandidatesController</text><rect fill="#E2E2F0" height="39.1563" rx="2.5" ry="2.5" style="stroke:#181818;stroke-width:0.5;" width="229" x="1191.5" y="1373.4688"/><text fill="#000000" font-family="sans-serif" font-size="20" lengthAdjust="spacing" textLength="215" x="1198.5" y="1401.2305">ListCandidatesController</text><rect fill="#E2E2F0" height="39.1563" rx="2.5" ry="2.5" style="stroke:#181818;stroke-width:0.5;" width="191" x="1898.5" y="61.1563"/><text fill="#000000" font-family="sans-serif" font-size="20" lengthAdjust="spacing" textLength="177" x="1905.5" y="88.918">AuthorizationService</text><rect fill="#E2E2F0" height="39.1563" rx="2.5" ry="2.5" style="stroke:#181818;stroke-width:0.5;" width="191" x="1898.5" y="1373.4688"/><text fill="#000000" font-family="sans-serif" font-size="20" lengthAdjust="spacing" textLength="177" x="1905.5" y="1401.2305">AuthorizationService</text><rect fill="#E2E2F0" height="39.1563" rx="2.5" ry="2.5" style="stroke:#181818;stroke-width:0.5;" width="234" x="2099.5" y="61.1563"/><text fill="#000000" font-family="sans-serif" font-size="20" lengthAdjust="spacing" textLength="220" x="2106.5" y="88.918">UserManagementService</text><rect fill="#E2E2F0" height="39.1563" rx="2.5" ry="2.5" style="stroke:#181818;stroke-width:0.5;" width="234" x="2099.5" y="1373.4688"/><text fill="#000000" font-family="sans-serif" font-size="20" lengthAdjust="spacing" textLength="220" x="2106.5" y="1401.2305">UserManagementService</text><text fill="#000000" font-family="sans-serif" font-size="20" font-style="italic" lengthAdjust="spacing" textLength="110" x="2454.5" y="71.7617">«repository»</text><text fill="#000000" font-family="sans-serif" font-size="20" lengthAdjust="spacing" textLength="136" x="2441.5" y="96.918">UserRepository</text><path d="M2494.5,15 C2494.5,5 2512.5,5 2512.5,5 C2512.5,5 2530.5,5 2530.5,15 L2530.5,41 C2530.5,51 2512.5,51 2512.5,51 C2512.5,51 2494.5,51 2494.5,41 L2494.5,15 " fill="#E2E2F0" style="stroke:#181818;stroke-width:1.5;"/><path d="M2494.5,15 C2494.5,25 2512.5,25 2512.5,25 C2512.5,25 2530.5,25 2530.5,15 " fill="none" style="stroke:#181818;stroke-width:1.5;"/><text fill="#000000" font-family="sans-serif" font-size="20" font-style="italic" lengthAdjust="spacing" textLength="110" x="2454.5" y="1394.2305">«repository»</text><text fill="#000000" font-family="sans-serif" font-size="20" lengthAdjust="spacing" textLength="136" x="2441.5" y="1419.3867">UserRepository</text><path d="M2494.5,1433.7813 C2494.5,1423.7813 2512.5,1423.7813 2512.5,1423.7813 C2512.5,1423.7813 2530.5,1423.7813 2530.5,1433.7813 L2530.5,1459.7813 C2530.5,1469.7813 2512.5,1469.7813 2512.5,1469.7813 C2512.5,1469.7813 2494.5,1469.7813 2494.5,1459.7813 L2494.5,1433.7813 " fill="#E2E2F0" style="stroke:#181818;stroke-width:1.5;"/><path d="M2494.5,1433.7813 C2494.5,1443.7813 2512.5,1443.7813 2512.5,1443.7813 C2512.5,1443.7813 2530.5,1443.7813 2530.5,1433.7813 " fill="none" style="stroke:#181818;stroke-width:1.5;"/><rect fill="#FFFFFF" height="1245.1563" style="stroke:#181818;stroke-width:1.0;" width="10" x="58" y="111.3125"/><rect fill="#FFFFFF" height="1214" style="stroke:#181818;stroke-width:1.0;" width="10" x="470" y="142.4688"/><rect fill="#FFFFFF" height="274.0938" style="stroke:#181818;stroke-width:1.0;" width="10" x="1047" y="695.8125"/><rect fill="#FFFFFF" height="274.0938" style="stroke:#181818;stroke-width:1.0;" width="10" x="1047" y="1036.2188"/><rect fill="#FFFFFF" height="274.0938" style="stroke:#181818;stroke-width:1.0;" width="10" x="1301" y="304.25"/><rect fill="#FFFFFF" height="39.1563" style="stroke:#181818;stroke-width:1.0;" width="10" x="1989" y="343.4063"/><rect fill="#FFFFFF" height="39.1563" style="stroke:#181818;stroke-width:1.0;" width="10" x="1989" y="734.9688"/><rect fill="#FFFFFF" height="39.1563" style="stroke:#181818;stroke-width:1.0;" width="10" x="1989" y="1075.375"/><rect fill="#FFFFFF" height="117.4688" style="stroke:#181818;stroke-width:1.0;" width="10" x="2211.5" y="421.7188"/><rect fill="#FFFFFF" height="117.4688" style="stroke:#181818;stroke-width:1.0;" width="10" x="2211.5" y="813.2813"/><rect fill="#FFFFFF" height="117.4688" style="stroke:#181818;stroke-width:1.0;" width="10" x="2211.5" y="1153.6875"/><rect fill="#FFFFFF" height="39.1563" style="stroke:#181818;stroke-width:1.0;" width="10" x="2507.5" y="460.875"/><rect fill="#FFFFFF" height="39.1563" style="stroke:#181818;stroke-width:1.0;" width="10" x="2507.5" y="852.4375"/><rect fill="#FFFFFF" height="39.1563" style="stroke:#181818;stroke-width:1.0;" width="10" x="2507.5" y="1192.8438"/><polygon fill="#181818" points="458,138.4688,468,142.4688,458,146.4688,462,142.4688" style="stroke:#181818;stroke-width:1.0;"/><line style="stroke:#181818;stroke-width:1.0;" x1="68" x2="464" y1="142.4688" y2="142.4688"/><text fill="#000000" font-family="sans-serif" font-size="20" font-weight="bold" lengthAdjust="spacing" textLength="11" x="75" y="136.0742">1</text><text fill="#000000" font-family="sans-serif" font-size="20" lengthAdjust="spacing" textLength="368" x="90" y="136.0742">asks to list all personal info of a candidate</text><polygon fill="#181818" points="79,177.625,69,181.625,79,185.625,75,181.625" style="stroke:#181818;stroke-width:1.0;"/><line style="stroke:#181818;stroke-width:1.0;stroke-dasharray:2.0,2.0;" x1="73" x2="469" y1="181.625" y2="181.625"/><text fill="#000000" font-family="sans-serif" font-size="20" font-weight="bold" lengthAdjust="spacing" textLength="11" x="85" y="175.2305">2</text><text fill="#000000" font-family="sans-serif" font-size="20" lengthAdjust="spacing" textLength="308" x="100" y="175.2305">asks what method of search to use</text><polygon fill="#181818" points="458,216.7813,468,220.7813,458,224.7813,462,220.7813" style="stroke:#181818;stroke-width:1.0;"/><line style="stroke:#181818;stroke-width:1.0;" x1="68" x2="464" y1="220.7813" y2="220.7813"/><text fill="#000000" font-family="sans-serif" font-size="20" font-weight="bold" lengthAdjust="spacing" textLength="11" x="75" y="214.3867">3</text><text fill="#000000" font-family="sans-serif" font-size="20" lengthAdjust="spacing" textLength="198" x="90" y="214.3867">selects search method</text><path d="M10,235.7813 L78,235.7813 L78,252.9375 L68,262.9375 L10,262.9375 L10,235.7813 " fill="#EEEEEE" style="stroke:#000000;stroke-width:1.5;"/><rect fill="none" height="1082.5313" style="stroke:#000000;stroke-width:1.5;" width="2583.5" x="10" y="235.7813"/><text fill="#000000" font-family="sans-serif" font-size="20" font-weight="bold" lengthAdjust="spacing" textLength="23" x="25" y="257.543">alt</text><text fill="#000000" font-family="sans-serif" font-size="20" font-weight="bold" lengthAdjust="spacing" textLength="42" x="93" y="258.543">[list]</text><polygon fill="#181818" points="1289,300.25,1299,304.25,1289,308.25,1293,304.25" style="stroke:#181818;stroke-width:1.0;"/><line style="stroke:#181818;stroke-width:1.0;" x1="480" x2="1295" y1="304.25" y2="304.25"/><text fill="#000000" font-family="sans-serif" font-size="20" font-weight="bold" lengthAdjust="spacing" textLength="11" x="487" y="297.8555">4</text><text fill="#000000" font-family="sans-serif" font-size="20" lengthAdjust="spacing" textLength="188" x="502" y="297.8555">listCandidatesUsers()</text><polygon fill="#181818" points="1977,339.4063,1987,343.4063,1977,347.4063,1981,343.4063" style="stroke:#181818;stroke-width:1.0;"/><line style="stroke:#181818;stroke-width:1.0;" x1="1311" x2="1983" y1="343.4063" y2="343.4063"/><text fill="#000000" font-family="sans-serif" font-size="20" font-weight="bold" lengthAdjust="spacing" textLength="11" x="1318" y="337.0117">5</text><text fill="#000000" font-family="sans-serif" font-size="20" lengthAdjust="spacing" textLength="322" x="1333" y="337.0117">ensureAuthenticatedUserHasAnyOf()</text><polygon fill="#181818" points="1322,378.5625,1312,382.5625,1322,386.5625,1318,382.5625" style="stroke:#181818;stroke-width:1.0;"/><line style="stroke:#181818;stroke-width:1.0;stroke-dasharray:2.0,2.0;" x1="1316" x2="1993" y1="382.5625" y2="382.5625"/><text fill="#000000" font-family="sans-serif" font-size="20" font-weight="bold" lengthAdjust="spacing" textLength="11" x="1328" y="376.168">6</text><text fill="#000000" font-family="sans-serif" font-size="20" lengthAdjust="spacing" textLength="639" x="1343" y="376.168">returns confirmation that user is credited to perform the current operation</text><polygon fill="#181818" points="2199.5,417.7188,2209.5,421.7188,2199.5,425.7188,2203.5,421.7188" style="stroke:#181818;stroke-width:1.0;"/><line style="stroke:#181818;stroke-width:1.0;" x1="1311" x2="2205.5" y1="421.7188" y2="421.7188"/><text fill="#000000" font-family="sans-serif" font-size="20" font-weight="bold" lengthAdjust="spacing" textLength="11" x="1318" y="415.3242">7</text><text fill="#000000" font-family="sans-serif" font-size="20" lengthAdjust="spacing" textLength="84" x="1333" y="415.3242">allUsers()</text><polygon fill="#181818" points="2495.5,456.875,2505.5,460.875,2495.5,464.875,2499.5,460.875" style="stroke:#181818;stroke-width:1.0;"/><line style="stroke:#181818;stroke-width:1.0;" x1="2221.5" x2="2501.5" y1="460.875" y2="460.875"/><text fill="#000000" font-family="sans-serif" font-size="20" font-weight="bold" lengthAdjust="spacing" textLength="11" x="2228.5" y="454.4805">8</text><text fill="#000000" font-family="sans-serif" font-size="20" lengthAdjust="spacing" textLength="66" x="2243.5" y="454.4805">findAll()</text><polygon fill="#181818" points="2232.5,496.0313,2222.5,500.0313,2232.5,504.0313,2228.5,500.0313" style="stroke:#181818;stroke-width:1.0;"/><line style="stroke:#181818;stroke-width:1.0;stroke-dasharray:2.0,2.0;" x1="2226.5" x2="2511.5" y1="500.0313" y2="500.0313"/><text fill="#000000" font-family="sans-serif" font-size="20" font-weight="bold" lengthAdjust="spacing" textLength="11" x="2238.5" y="493.6367">9</text><text fill="#000000" font-family="sans-serif" font-size="20" lengthAdjust="spacing" textLength="236" x="2253.5" y="493.6367">returns Iterable of all users</text><polygon fill="#181818" points="1322,535.1875,1312,539.1875,1322,543.1875,1318,539.1875" style="stroke:#181818;stroke-width:1.0;"/><line style="stroke:#181818;stroke-width:1.0;stroke-dasharray:2.0,2.0;" x1="1316" x2="2215.5" y1="539.1875" y2="539.1875"/><text fill="#000000" font-family="sans-serif" font-size="20" font-weight="bold" lengthAdjust="spacing" textLength="22" x="1328" y="532.793">10</text><text fill="#000000" font-family="sans-serif" font-size="20" lengthAdjust="spacing" textLength="372" x="1354" y="532.793">returns only the candidates as a sorted list</text><polygon fill="#181818" points="491,574.3438,481,578.3438,491,582.3438,487,578.3438" style="stroke:#181818;stroke-width:1.0;"/><line style="stroke:#181818;stroke-width:1.0;stroke-dasharray:2.0,2.0;" x1="485" x2="1305" y1="578.3438" y2="578.3438"/><text fill="#000000" font-family="sans-serif" font-size="20" font-weight="bold" lengthAdjust="spacing" textLength="22" x="497" y="571.9492">11</text><text fill="#000000" font-family="sans-serif" font-size="20" lengthAdjust="spacing" textLength="91" x="523" y="571.9492">returns list</text><polygon fill="#181818" points="79,613.5,69,617.5,79,621.5,75,617.5" style="stroke:#181818;stroke-width:1.0;"/><line style="stroke:#181818;stroke-width:1.0;stroke-dasharray:2.0,2.0;" x1="73" x2="469" y1="617.5" y2="617.5"/><text fill="#000000" font-family="sans-serif" font-size="20" font-weight="bold" lengthAdjust="spacing" textLength="22" x="85" y="611.1055">12</text><text fill="#000000" font-family="sans-serif" font-size="20" lengthAdjust="spacing" textLength="150" x="111" y="611.1055">displays all users</text><polygon fill="#181818" points="458,652.6563,468,656.6563,458,660.6563,462,656.6563" style="stroke:#181818;stroke-width:1.0;"/><line style="stroke:#181818;stroke-width:1.0;" x1="68" x2="464" y1="656.6563" y2="656.6563"/><text fill="#000000" font-family="sans-serif" font-size="20" font-weight="bold" lengthAdjust="spacing" textLength="22" x="75" y="650.2617">13</text><text fill="#000000" font-family="sans-serif" font-size="20" lengthAdjust="spacing" textLength="109" x="101" y="650.2617">Selects user</text><polygon fill="#181818" points="1035,691.8125,1045,695.8125,1035,699.8125,1039,695.8125" style="stroke:#181818;stroke-width:1.0;"/><line style="stroke:#181818;stroke-width:1.0;" x1="480" x2="1041" y1="695.8125" y2="695.8125"/><text fill="#000000" font-family="sans-serif" font-size="20" font-weight="bold" lengthAdjust="spacing" textLength="22" x="487" y="689.418">14</text><text fill="#000000" font-family="sans-serif" font-size="20" lengthAdjust="spacing" textLength="205" x="513" y="689.418">getCandidateByName()</text><polygon fill="#181818" points="1977,730.9688,1987,734.9688,1977,738.9688,1981,734.9688" style="stroke:#181818;stroke-width:1.0;"/><line style="stroke:#181818;stroke-width:1.0;" x1="1057" x2="1983" y1="734.9688" y2="734.9688"/><text fill="#000000" font-family="sans-serif" font-size="20" font-weight="bold" lengthAdjust="spacing" textLength="22" x="1064" y="728.5742">15</text><text fill="#000000" font-family="sans-serif" font-size="20" lengthAdjust="spacing" textLength="322" x="1090" y="728.5742">ensureAuthenticatedUserHasAnyOf()</text><polygon fill="#181818" points="1068,770.125,1058,774.125,1068,778.125,1064,774.125" style="stroke:#181818;stroke-width:1.0;"/><line style="stroke:#181818;stroke-width:1.0;stroke-dasharray:2.0,2.0;" x1="1062" x2="1993" y1="774.125" y2="774.125"/><text fill="#000000" font-family="sans-serif" font-size="20" font-weight="bold" lengthAdjust="spacing" textLength="22" x="1074" y="767.7305">16</text><text fill="#000000" font-family="sans-serif" font-size="20" lengthAdjust="spacing" textLength="639" x="1100" y="767.7305">returns confirmation that user is credited to perform the current operation</text><polygon fill="#181818" points="2199.5,809.2813,2209.5,813.2813,2199.5,817.2813,2203.5,813.2813" style="stroke:#181818;stroke-width:1.0;"/><line style="stroke:#181818;stroke-width:1.0;" x1="1057" x2="2205.5" y1="813.2813" y2="813.2813"/><text fill="#000000" font-family="sans-serif" font-size="20" font-weight="bold" lengthAdjust="spacing" textLength="22" x="1064" y="806.8867">17</text><text fill="#000000" font-family="sans-serif" font-size="20" lengthAdjust="spacing" textLength="84" x="1090" y="806.8867">allUsers()</text><polygon fill="#181818" points="2495.5,848.4375,2505.5,852.4375,2495.5,856.4375,2499.5,852.4375" style="stroke:#181818;stroke-width:1.0;"/><line style="stroke:#181818;stroke-width:1.0;" x1="2221.5" x2="2501.5" y1="852.4375" y2="852.4375"/><text fill="#000000" font-family="sans-serif" font-size="20" font-weight="bold" lengthAdjust="spacing" textLength="22" x="2228.5" y="846.043">18</text><text fill="#000000" font-family="sans-serif" font-size="20" lengthAdjust="spacing" textLength="66" x="2254.5" y="846.043">findAll()</text><polygon fill="#181818" points="2232.5,887.5938,2222.5,891.5938,2232.5,895.5938,2228.5,891.5938" style="stroke:#181818;stroke-width:1.0;"/><line style="stroke:#181818;stroke-width:1.0;stroke-dasharray:2.0,2.0;" x1="2226.5" x2="2511.5" y1="891.5938" y2="891.5938"/><text fill="#000000" font-family="sans-serif" font-size="20" font-weight="bold" lengthAdjust="spacing" textLength="22" x="2238.5" y="885.1992">19</text><text fill="#000000" font-family="sans-serif" font-size="20" lengthAdjust="spacing" textLength="236" x="2264.5" y="885.1992">returns Iterable of all users</text><polygon fill="#181818" points="1068,926.75,1058,930.75,1068,934.75,1064,930.75" style="stroke:#181818;stroke-width:1.0;"/><line style="stroke:#181818;stroke-width:1.0;stroke-dasharray:2.0,2.0;" x1="1062" x2="2215.5" y1="930.75" y2="930.75"/><text fill="#000000" font-family="sans-serif" font-size="20" font-weight="bold" lengthAdjust="spacing" textLength="22" x="1074" y="924.3555">20</text><text fill="#000000" font-family="sans-serif" font-size="20" lengthAdjust="spacing" textLength="372" x="1100" y="924.3555">returns only the candidates as a sorted list</text><polygon fill="#181818" points="491,965.9063,481,969.9063,491,973.9063,487,969.9063" style="stroke:#181818;stroke-width:1.0;"/><line style="stroke:#181818;stroke-width:1.0;stroke-dasharray:2.0,2.0;" x1="485" x2="1051" y1="969.9063" y2="969.9063"/><text fill="#000000" font-family="sans-serif" font-size="20" font-weight="bold" lengthAdjust="spacing" textLength="22" x="497" y="963.5117">21</text><text fill="#000000" font-family="sans-serif" font-size="20" lengthAdjust="spacing" textLength="517" x="523" y="963.5117">returns Candidate with the same name as the one provided</text><line style="stroke:#000000;stroke-width:1.0;stroke-dasharray:2.0,2.0;" x1="10" x2="2593.5" y1="978.9063" y2="978.9063"/><text fill="#000000" font-family="sans-serif" font-size="20" font-weight="bold" lengthAdjust="spacing" textLength="104" x="15" y="999.668">[individual]</text><polygon fill="#181818" points="1035,1032.2188,1045,1036.2188,1035,1040.2188,1039,1036.2188" style="stroke:#181818;stroke-width:1.0;"/><line style="stroke:#181818;stroke-width:1.0;" x1="480" x2="1041" y1="1036.2188" y2="1036.2188"/><text fill="#000000" font-family="sans-serif" font-size="20" font-weight="bold" lengthAdjust="spacing" textLength="22" x="487" y="1029.8242">22</text><text fill="#000000" font-family="sans-serif" font-size="20" lengthAdjust="spacing" textLength="205" x="513" y="1029.8242">getCandidateByName()</text><polygon fill="#181818" points="1977,1071.375,1987,1075.375,1977,1079.375,1981,1075.375" style="stroke:#181818;stroke-width:1.0;"/><line style="stroke:#181818;stroke-width:1.0;" x1="1057" x2="1983" y1="1075.375" y2="1075.375"/><text fill="#000000" font-family="sans-serif" font-size="20" font-weight="bold" lengthAdjust="spacing" textLength="22" x="1064" y="1068.9805">23</text><text fill="#000000" font-family="sans-serif" font-size="20" lengthAdjust="spacing" textLength="322" x="1090" y="1068.9805">ensureAuthenticatedUserHasAnyOf()</text><polygon fill="#181818" points="1068,1110.5313,1058,1114.5313,1068,1118.5313,1064,1114.5313" style="stroke:#181818;stroke-width:1.0;"/><line style="stroke:#181818;stroke-width:1.0;stroke-dasharray:2.0,2.0;" x1="1062" x2="1993" y1="1114.5313" y2="1114.5313"/><text fill="#000000" font-family="sans-serif" font-size="20" font-weight="bold" lengthAdjust="spacing" textLength="22" x="1074" y="1108.1367">24</text><text fill="#000000" font-family="sans-serif" font-size="20" lengthAdjust="spacing" textLength="639" x="1100" y="1108.1367">returns confirmation that user is credited to perform the current operation</text><polygon fill="#181818" points="2199.5,1149.6875,2209.5,1153.6875,2199.5,1157.6875,2203.5,1153.6875" style="stroke:#181818;stroke-width:1.0;"/><line style="stroke:#181818;stroke-width:1.0;" x1="1057" x2="2205.5" y1="1153.6875" y2="1153.6875"/><text fill="#000000" font-family="sans-serif" font-size="20" font-weight="bold" lengthAdjust="spacing" textLength="22" x="1064" y="1147.293">25</text><text fill="#000000" font-family="sans-serif" font-size="20" lengthAdjust="spacing" textLength="84" x="1090" y="1147.293">allUsers()</text><polygon fill="#181818" points="2495.5,1188.8438,2505.5,1192.8438,2495.5,1196.8438,2499.5,1192.8438" style="stroke:#181818;stroke-width:1.0;"/><line style="stroke:#181818;stroke-width:1.0;" x1="2221.5" x2="2501.5" y1="1192.8438" y2="1192.8438"/><text fill="#000000" font-family="sans-serif" font-size="20" font-weight="bold" lengthAdjust="spacing" textLength="22" x="2228.5" y="1186.4492">26</text><text fill="#000000" font-family="sans-serif" font-size="20" lengthAdjust="spacing" textLength="66" x="2254.5" y="1186.4492">findAll()</text><polygon fill="#181818" points="2232.5,1228,2222.5,1232,2232.5,1236,2228.5,1232" style="stroke:#181818;stroke-width:1.0;"/><line style="stroke:#181818;stroke-width:1.0;stroke-dasharray:2.0,2.0;" x1="2226.5" x2="2511.5" y1="1232" y2="1232"/><text fill="#000000" font-family="sans-serif" font-size="20" font-weight="bold" lengthAdjust="spacing" textLength="22" x="2238.5" y="1225.6055">27</text><text fill="#000000" font-family="sans-serif" font-size="20" lengthAdjust="spacing" textLength="236" x="2264.5" y="1225.6055">returns Iterable of all users</text><polygon fill="#181818" points="1068,1267.1563,1058,1271.1563,1068,1275.1563,1064,1271.1563" style="stroke:#181818;stroke-width:1.0;"/><line style="stroke:#181818;stroke-width:1.0;stroke-dasharray:2.0,2.0;" x1="1062" x2="2215.5" y1="1271.1563" y2="1271.1563"/><text fill="#000000" font-family="sans-serif" font-size="20" font-weight="bold" lengthAdjust="spacing" textLength="22" x="1074" y="1264.7617">28</text><text fill="#000000" font-family="sans-serif" font-size="20" lengthAdjust="spacing" textLength="372" x="1100" y="1264.7617">returns only the candidates as a sorted list</text><polygon fill="#181818" points="491,1306.3125,481,1310.3125,491,1314.3125,487,1310.3125" style="stroke:#181818;stroke-width:1.0;"/><line style="stroke:#181818;stroke-width:1.0;stroke-dasharray:2.0,2.0;" x1="485" x2="1051" y1="1310.3125" y2="1310.3125"/><text fill="#000000" font-family="sans-serif" font-size="20" font-weight="bold" lengthAdjust="spacing" textLength="22" x="497" y="1303.918">29</text><text fill="#000000" font-family="sans-serif" font-size="20" lengthAdjust="spacing" textLength="517" x="523" y="1303.918">returns Candidate with the same name as the one provided</text><polygon fill="#181818" points="74,1352.4688,64,1356.4688,74,1360.4688,70,1356.4688" style="stroke:#181818;stroke-width:1.0;"/><line style="stroke:#181818;stroke-width:1.0;stroke-dasharray:2.0,2.0;" x1="68" x2="474" y1="1356.4688" y2="1356.4688"/><text fill="#000000" font-family="sans-serif" font-size="20" font-weight="bold" lengthAdjust="spacing" textLength="22" x="80" y="1350.0742">30</text><text fill="#000000" font-family="sans-serif" font-size="20" lengthAdjust="spacing" textLength="267" x="106" y="1350.0742">Displays candidate information</text><!--SRC=[xLLDRzim3BtxLn2zR3ja7NOqYW1fzb41RJsqzGzGBJeH8akU9BT8V_r8sR7Jf40ltO01zI4GAFAHVEz12HjjM-bbOrorGGKAQzcP-CFPUAkV4Bv-oJwiOsn3VdhQ6cbZrvZFbMjE0_xkq5OuKrgkg3xBP1UTxPfxz9cielDmKhJe9PrEG0OeCkeJTQLRGe6JIntYKbgbbOmeRErAaT9A0MTdhSU0DigedPtFNobSqgpU6OE-RxGKoxkRIq9Pj4PNhsE42Q2lv_Bd-OikhftNJmdi5ls3hZ3bBigxY-UfPK1_9QrSOKCRxEUMLzS_CseexsL0uBmRR5tGHD2Mxs- -_offQZy6QMhwY4lzG6CIWSLiplpabBq941qOsWEaCK141sUb0Ks4WAj1GhNRRq8eHKRbCq8f1ep7jOpG86sdk2gWzDMQaRk0MG6fNqvXWrKCk-i-FvCcfW4oe8znvprrUOfEzFAcuUEdb3QEqfFCeNJYOkOo1xIXyyY44tqi7oe6k91XORT5VOYJ1E087z9gmmmUO-TjWChPMlicAGUHrwNLF6YwyQWqmVEwn5_jV4C925NdFVK6bznBPGbVuN7FSNIMDcSXNjmr2Pz8eWEdiz8vrDggXJ67sNoP8iaFim4Tfer4fBdk3IQPINlU9npEEABqFNUyxC4uQxRzlgDIx489mNbcPPHs3tNSPDXyyCSEygMIIUYTzMW6fGCz9jjmCFzekDl1S7orRo_HQxl2oLxdsslPu96znEGlyTO64__GOUA_ifXuKu-95qqsAW-FEguJUY07WEKV0kU0imYjTmzQeJeoP6yDDFG84psQaZfftbtsxhA_uJAhdhrzENpRFNtZiEa_Ur3sQ4nn62d-0000]--></g></svg>