<?xml version="1.0" encoding="us-ascii" standalone="no"?><svg xmlns="http://www.w3.org/2000/svg" xmlns:xlink="http://www.w3.org/1999/xlink" contentStyleType="text/css" height="732.6px" preserveAspectRatio="none" style="width:801px;height:732px;background:#FFFFFF;" version="1.1" viewBox="0 0 801 732" width="801px" zoomAndPan="magnify"><defs/><g><rect fill="#FFFFFF" height="608.9895" style="stroke:#181818;stroke-width:0.6;" width="6" x="45.9" y="58.9453"/><rect fill="#FFFFFF" height="120.4477" style="stroke:#181818;stroke-width:0.6;" width="6" x="252.9" y="72.9199"/><rect fill="#FFFFFF" height="446.1926" style="stroke:#181818;stroke-width:0.6;" width="6" x="252.9" y="212.1422"/><rect fill="#FFFFFF" height="82.8984" style="stroke:#181818;stroke-width:0.6;" width="6" x="411.9" y="91.6945"/><rect fill="#FFFFFF" height="82.077" style="stroke:#181818;stroke-width:0.6;" width="6" x="411.9" y="230.9168"/><rect fill="#FFFFFF" height="56.3238" style="stroke:#181818;stroke-width:0.6;" width="6" x="411.9" y="331.7684"/><rect fill="#FFFFFF" height="56.3238" style="stroke:#181818;stroke-width:0.6;" width="6" x="411.9" y="406.8668"/><rect fill="#FFFFFF" height="18.7746" style="stroke:#181818;stroke-width:0.6;" width="6" x="411.9" y="481.9652"/><rect fill="#FFFFFF" height="63.7219" style="stroke:#181818;stroke-width:0.6;" width="6" x="411.9" y="519.5145"/><rect fill="#FFFFFF" height="37.5492" style="stroke:#181818;stroke-width:0.6;" width="6" x="411.9" y="602.0109"/><rect fill="#FFFFFF" height="18.7746" style="stroke:#181818;stroke-width:0.6;" width="6" x="517.8" y="137.0438"/><rect fill="#FFFFFF" height="18.7746" style="stroke:#181818;stroke-width:0.6;" width="6" x="605.1" y="350.543"/><rect fill="#FFFFFF" height="18.7746" style="stroke:#181818;stroke-width:0.6;" width="6" x="695.7" y="425.6414"/><rect fill="#FFFFFF" height="20.1727" style="stroke:#181818;stroke-width:0.6;" width="6" x="765.6" y="544.2891"/><rect fill="none" height="423.218" style="stroke:#000000;stroke-width:0.8999999999999999;" width="790.8" x="6" y="239.9168"/><line style="stroke:#181818;stroke-width:0.3;stroke-dasharray:5.0,5.0;" x1="48.6" x2="48.6" y1="52.9453" y2="673.3348"/><line style="stroke:#181818;stroke-width:0.3;stroke-dasharray:5.0,5.0;" x1="255.6" x2="255.6" y1="52.9453" y2="673.3348"/><line style="stroke:#181818;stroke-width:0.3;stroke-dasharray:5.0,5.0;" x1="414.6" x2="414.6" y1="52.9453" y2="673.3348"/><line style="stroke:#181818;stroke-width:0.3;stroke-dasharray:5.0,5.0;" x1="520.8" x2="520.8" y1="52.9453" y2="673.3348"/><line style="stroke:#181818;stroke-width:0.3;stroke-dasharray:5.0,5.0;" x1="607.8" x2="607.8" y1="52.9453" y2="673.3348"/><line style="stroke:#181818;stroke-width:0.3;stroke-dasharray:5.0,5.0;" x1="698.4" x2="698.4" y1="52.9453" y2="673.3348"/><line style="stroke:#181818;stroke-width:0.3;stroke-dasharray:5.0,5.0;" x1="768.6" x2="768.6" y1="543.4008" y2="673.3348"/><text fill="#000000" font-family="sans-serif" font-size="8.4" lengthAdjust="spacing" textLength="70.2" x="12" y="50.8371">CustomerManager</text><ellipse cx="48.9" cy="10.8727" fill="#E2E2F0" rx="4.8" ry="4.8" style="stroke:#181818;stroke-width:0.3;"/><path d="M48.9,15.6727 L48.9,31.8727 M41.1,20.4727 L56.7,20.4727 M48.9,31.8727 L41.1,40.8727 M48.9,31.8727 L56.7,40.8727 " fill="none" style="stroke:#181818;stroke-width:0.3;"/><text fill="#000000" font-family="sans-serif" font-size="8.4" lengthAdjust="spacing" textLength="70.2" x="12" y="681.7992">CustomerManager</text><ellipse cx="48.9" cy="689.0074" fill="#E2E2F0" rx="4.8" ry="4.8" style="stroke:#181818;stroke-width:0.3;"/><path d="M48.9,693.8074 L48.9,710.0074 M41.1,698.6074 L56.7,698.6074 M48.9,710.0074 L41.1,719.0074 M48.9,710.0074 L56.7,719.0074 " fill="none" style="stroke:#181818;stroke-width:0.3;"/><rect fill="#E2E2F0" height="30.7453" rx="1.5" ry="1.5" style="stroke:#181818;stroke-width:0.3;" width="93" x="209.4" y="21.6"/><text fill="#000000" font-family="sans-serif" font-size="8.4" font-style="italic" lengthAdjust="spacing" textLength="57" x="227.4" y="34.8645">&#171;presentation&#187;</text><text fill="#000000" font-family="sans-serif" font-size="8.4" lengthAdjust="spacing" textLength="84.6" x="213.6" y="46.0371">RegisterJobOpeningUI</text><rect fill="#E2E2F0" height="30.7453" rx="1.5" ry="1.5" style="stroke:#181818;stroke-width:0.3;" width="93" x="209.4" y="672.7348"/><text fill="#000000" font-family="sans-serif" font-size="8.4" font-style="italic" lengthAdjust="spacing" textLength="57" x="227.4" y="685.9992">&#171;presentation&#187;</text><text fill="#000000" font-family="sans-serif" font-size="8.4" lengthAdjust="spacing" textLength="84.6" x="213.6" y="697.1719">RegisterJobOpeningUI</text><rect fill="#E2E2F0" height="30.7453" rx="1.5" ry="1.5" style="stroke:#181818;stroke-width:0.3;" width="123" x="353.4" y="21.6"/><text fill="#000000" font-family="sans-serif" font-size="8.4" font-style="italic" lengthAdjust="spacing" textLength="50.4" x="389.7" y="34.8645">&#171;application&#187;</text><text fill="#000000" font-family="sans-serif" font-size="8.4" lengthAdjust="spacing" textLength="114.6" x="357.6" y="46.0371">RegisterJobOpeningController</text><rect fill="#E2E2F0" height="30.7453" rx="1.5" ry="1.5" style="stroke:#181818;stroke-width:0.3;" width="123" x="353.4" y="672.7348"/><text fill="#000000" font-family="sans-serif" font-size="8.4" font-style="italic" lengthAdjust="spacing" textLength="50.4" x="389.7" y="685.9992">&#171;application&#187;</text><text fill="#000000" font-family="sans-serif" font-size="8.4" lengthAdjust="spacing" textLength="114.6" x="357.6" y="697.1719">RegisterJobOpeningController</text><text fill="#000000" font-family="sans-serif" font-size="8.4" font-style="italic" lengthAdjust="spacing" textLength="47.4" x="495.3" y="39.6645">&#171;repository&#187;</text><text fill="#000000" font-family="sans-serif" font-size="8.4" lengthAdjust="spacing" textLength="73.2" x="482.4" y="50.8371">JobOfferRepository</text><path d="M510,9 C510,3 520.8,3 520.8,3 C520.8,3 531.6,3 531.6,9 L531.6,24.6 C531.6,30.6 520.8,30.6 520.8,30.6 C520.8,30.6 510,30.6 510,24.6 L510,9 " fill="#E2E2F0" style="stroke:#181818;stroke-width:0.8999999999999999;"/><path d="M510,9 C510,15 520.8,15 520.8,15 C520.8,15 531.6,15 531.6,9 " fill="none" style="stroke:#181818;stroke-width:0.8999999999999999;"/><text fill="#000000" font-family="sans-serif" font-size="8.4" font-style="italic" lengthAdjust="spacing" textLength="47.4" x="495.3" y="681.7992">&#171;repository&#187;</text><text fill="#000000" font-family="sans-serif" font-size="8.4" lengthAdjust="spacing" textLength="73.2" x="482.4" y="692.9719">JobOfferRepository</text><path d="M510,701.0801 C510,695.0801 520.8,695.0801 520.8,695.0801 C520.8,695.0801 531.6,695.0801 531.6,701.0801 L531.6,716.6801 C531.6,722.6801 520.8,722.6801 520.8,722.6801 C520.8,722.6801 510,722.6801 510,716.6801 L510,701.0801 " fill="#E2E2F0" style="stroke:#181818;stroke-width:0.8999999999999999;"/><path d="M510,701.0801 C510,707.0801 520.8,707.0801 520.8,707.0801 C520.8,707.0801 531.6,707.0801 531.6,701.0801 " fill="none" style="stroke:#181818;stroke-width:0.8999999999999999;"/><text fill="#000000" font-family="sans-serif" font-size="8.4" font-style="italic" lengthAdjust="spacing" textLength="47.4" x="582.6" y="39.6645">&#171;repository&#187;</text><text fill="#000000" font-family="sans-serif" font-size="8.4" lengthAdjust="spacing" textLength="82.2" x="565.2" y="50.8371">ApplicationRepository</text><path d="M597.3,9 C597.3,3 608.1,3 608.1,3 C608.1,3 618.9,3 618.9,9 L618.9,24.6 C618.9,30.6 608.1,30.6 608.1,30.6 C608.1,30.6 597.3,30.6 597.3,24.6 L597.3,9 " fill="#E2E2F0" style="stroke:#181818;stroke-width:0.8999999999999999;"/><path d="M597.3,9 C597.3,15 608.1,15 608.1,15 C608.1,15 618.9,15 618.9,9 " fill="none" style="stroke:#181818;stroke-width:0.8999999999999999;"/><text fill="#000000" font-family="sans-serif" font-size="8.4" font-style="italic" lengthAdjust="spacing" textLength="47.4" x="582.6" y="681.7992">&#171;repository&#187;</text><text fill="#000000" font-family="sans-serif" font-size="8.4" lengthAdjust="spacing" textLength="82.2" x="565.2" y="692.9719">ApplicationRepository</text><path d="M597.3,701.0801 C597.3,695.0801 608.1,695.0801 608.1,695.0801 C608.1,695.0801 618.9,695.0801 618.9,701.0801 L618.9,716.6801 C618.9,722.6801 608.1,722.6801 608.1,722.6801 C608.1,722.6801 597.3,722.6801 597.3,716.6801 L597.3,701.0801 " fill="#E2E2F0" style="stroke:#181818;stroke-width:0.8999999999999999;"/><path d="M597.3,701.0801 C597.3,707.0801 608.1,707.0801 608.1,707.0801 C608.1,707.0801 618.9,707.0801 618.9,701.0801 " fill="none" style="stroke:#181818;stroke-width:0.8999999999999999;"/><text fill="#000000" font-family="sans-serif" font-size="8.4" font-style="italic" lengthAdjust="spacing" textLength="47.4" x="673.2" y="39.6645">&#171;repository&#187;</text><text fill="#000000" font-family="sans-serif" font-size="8.4" lengthAdjust="spacing" textLength="79.8" x="657" y="50.8371">CandidateRepository</text><path d="M687.9,9 C687.9,3 698.7,3 698.7,3 C698.7,3 709.5,3 709.5,9 L709.5,24.6 C709.5,30.6 698.7,30.6 698.7,30.6 C698.7,30.6 687.9,30.6 687.9,24.6 L687.9,9 " fill="#E2E2F0" style="stroke:#181818;stroke-width:0.8999999999999999;"/><path d="M687.9,9 C687.9,15 698.7,15 698.7,15 C698.7,15 709.5,15 709.5,9 " fill="none" style="stroke:#181818;stroke-width:0.8999999999999999;"/><text fill="#000000" font-family="sans-serif" font-size="8.4" font-style="italic" lengthAdjust="spacing" textLength="47.4" x="673.2" y="681.7992">&#171;repository&#187;</text><text fill="#000000" font-family="sans-serif" font-size="8.4" lengthAdjust="spacing" textLength="79.8" x="657" y="692.9719">CandidateRepository</text><path d="M687.9,701.0801 C687.9,695.0801 698.7,695.0801 698.7,695.0801 C698.7,695.0801 709.5,695.0801 709.5,701.0801 L709.5,716.6801 C709.5,722.6801 698.7,722.6801 698.7,722.6801 C698.7,722.6801 687.9,722.6801 687.9,716.6801 L687.9,701.0801 " fill="#E2E2F0" style="stroke:#181818;stroke-width:0.8999999999999999;"/><path d="M687.9,701.0801 C687.9,707.0801 698.7,707.0801 698.7,707.0801 C698.7,707.0801 709.5,707.0801 709.5,701.0801 " fill="none" style="stroke:#181818;stroke-width:0.8999999999999999;"/><rect fill="#E2E2F0" height="19.5727" rx="1.5" ry="1.5" style="stroke:#181818;stroke-width:0.3;" width="44.4" x="746.4" y="672.7348"/><text fill="#000000" font-family="sans-serif" font-size="8.4" lengthAdjust="spacing" textLength="36" x="750.6" y="685.9992">Evaluator</text><rect fill="#FFFFFF" height="608.9895" style="stroke:#181818;stroke-width:0.6;" width="6" x="45.9" y="58.9453"/><rect fill="#FFFFFF" height="120.4477" style="stroke:#181818;stroke-width:0.6;" width="6" x="252.9" y="72.9199"/><rect fill="#FFFFFF" height="446.1926" style="stroke:#181818;stroke-width:0.6;" width="6" x="252.9" y="212.1422"/><rect fill="#FFFFFF" height="82.8984" style="stroke:#181818;stroke-width:0.6;" width="6" x="411.9" y="91.6945"/><rect fill="#FFFFFF" height="82.077" style="stroke:#181818;stroke-width:0.6;" width="6" x="411.9" y="230.9168"/><rect fill="#FFFFFF" height="56.3238" style="stroke:#181818;stroke-width:0.6;" width="6" x="411.9" y="331.7684"/><rect fill="#FFFFFF" height="56.3238" style="stroke:#181818;stroke-width:0.6;" width="6" x="411.9" y="406.8668"/><rect fill="#FFFFFF" height="18.7746" style="stroke:#181818;stroke-width:0.6;" width="6" x="411.9" y="481.9652"/><rect fill="#FFFFFF" height="63.7219" style="stroke:#181818;stroke-width:0.6;" width="6" x="411.9" y="519.5145"/><rect fill="#FFFFFF" height="37.5492" style="stroke:#181818;stroke-width:0.6;" width="6" x="411.9" y="602.0109"/><rect fill="#FFFFFF" height="18.7746" style="stroke:#181818;stroke-width:0.6;" width="6" x="517.8" y="137.0438"/><rect fill="#FFFFFF" height="18.7746" style="stroke:#181818;stroke-width:0.6;" width="6" x="605.1" y="350.543"/><rect fill="#FFFFFF" height="18.7746" style="stroke:#181818;stroke-width:0.6;" width="6" x="695.7" y="425.6414"/><rect fill="#FFFFFF" height="20.1727" style="stroke:#181818;stroke-width:0.6;" width="6" x="765.6" y="544.2891"/><polygon fill="#181818" points="245.7,70.5199,251.7,72.9199,245.7,75.3199,248.1,72.9199" style="stroke:#181818;stroke-width:0.6;"/><line style="stroke:#181818;stroke-width:0.6;" x1="51.9" x2="249.3" y1="72.9199" y2="72.9199"/><text fill="#000000" font-family="sans-serif" font-size="7.8" font-weight="bold" lengthAdjust="spacing" textLength="4.2" x="56.1" y="69.7623">1</text><text fill="#000000" font-family="sans-serif" font-size="7.8" lengthAdjust="spacing" textLength="133.8" x="62.7" y="69.7623">asks the system to evaluate interviews</text><polygon fill="#181818" points="404.7,89.2945,410.7,91.6945,404.7,94.0945,407.1,91.6945" style="stroke:#181818;stroke-width:0.6;"/><line style="stroke:#181818;stroke-width:0.6;" x1="258.9" x2="408.3" y1="91.6945" y2="91.6945"/><text fill="#000000" font-family="sans-serif" font-size="7.8" font-weight="bold" lengthAdjust="spacing" textLength="4.2" x="263.1" y="88.5369">2</text><text fill="#000000" font-family="sans-serif" font-size="7.8" lengthAdjust="spacing" textLength="53.4" x="269.7" y="88.5369">showjobOffers()</text><line style="stroke:#181818;stroke-width:0.6;" x1="417.9" x2="443.1" y1="110.4691" y2="110.4691"/><line style="stroke:#181818;stroke-width:0.6;" x1="443.1" x2="443.1" y1="110.4691" y2="118.2691"/><line style="stroke:#181818;stroke-width:0.6;" x1="418.5" x2="443.1" y1="118.2691" y2="118.2691"/><polygon fill="#181818" points="424.5,115.8691,418.5,118.2691,424.5,120.6691,422.1,118.2691" style="stroke:#181818;stroke-width:0.6;"/><text fill="#000000" font-family="sans-serif" font-size="7.8" font-weight="bold" lengthAdjust="spacing" textLength="4.2" x="422.1" y="107.3115">3</text><text fill="#000000" font-family="sans-serif" font-size="7.8" lengthAdjust="spacing" textLength="60.6" x="428.7" y="107.3115">getJobOpenings()</text><polygon fill="#181818" points="510.6,134.6437,516.6,137.0438,510.6,139.4438,513,137.0438" style="stroke:#181818;stroke-width:0.6;"/><line style="stroke:#181818;stroke-width:0.6;" x1="417.9" x2="514.2" y1="137.0438" y2="137.0438"/><text fill="#000000" font-family="sans-serif" font-size="7.8" font-weight="bold" lengthAdjust="spacing" textLength="4.2" x="422.1" y="133.8861">4</text><text fill="#000000" font-family="sans-serif" font-size="7.8" lengthAdjust="spacing" textLength="64.2" x="428.7" y="133.8861">getAllByManager()</text><polygon fill="#181818" points="424.5,153.4184,418.5,155.8184,424.5,158.2184,422.1,155.8184" style="stroke:#181818;stroke-width:0.6;"/><line style="stroke:#181818;stroke-width:0.6;stroke-dasharray:2.0,2.0;" x1="420.9" x2="520.2" y1="155.8184" y2="155.8184"/><text fill="#000000" font-family="sans-serif" font-size="7.8" font-weight="bold" lengthAdjust="spacing" textLength="4.2" x="428.1" y="152.6607">5</text><text fill="#000000" font-family="sans-serif" font-size="7.8" lengthAdjust="spacing" textLength="49.8" x="434.7" y="152.6607">list of joboffers</text><polygon fill="#181818" points="265.5,172.193,259.5,174.593,265.5,176.993,263.1,174.593" style="stroke:#181818;stroke-width:0.6;"/><line style="stroke:#181818;stroke-width:0.6;stroke-dasharray:2.0,2.0;" x1="261.9" x2="414.3" y1="174.593" y2="174.593"/><text fill="#000000" font-family="sans-serif" font-size="7.8" font-weight="bold" lengthAdjust="spacing" textLength="4.2" x="269.1" y="171.4354">6</text><text fill="#000000" font-family="sans-serif" font-size="7.8" lengthAdjust="spacing" textLength="49.8" x="275.7" y="171.4354">list of joboffers</text><polygon fill="#181818" points="58.5,190.9676,52.5,193.3676,58.5,195.7676,56.1,193.3676" style="stroke:#181818;stroke-width:0.6;"/><line style="stroke:#181818;stroke-width:0.6;stroke-dasharray:2.0,2.0;" x1="54.9" x2="255.3" y1="193.3676" y2="193.3676"/><text fill="#000000" font-family="sans-serif" font-size="7.8" font-weight="bold" lengthAdjust="spacing" textLength="4.2" x="62.1" y="190.21">7</text><text fill="#000000" font-family="sans-serif" font-size="7.8" lengthAdjust="spacing" textLength="123" x="68.7" y="190.21">print job offers and ask for selection</text><polygon fill="#181818" points="245.7,209.7422,251.7,212.1422,245.7,214.5422,248.1,212.1422" style="stroke:#181818;stroke-width:0.6;"/><line style="stroke:#181818;stroke-width:0.6;" x1="51.9" x2="249.3" y1="212.1422" y2="212.1422"/><text fill="#000000" font-family="sans-serif" font-size="7.8" font-weight="bold" lengthAdjust="spacing" textLength="4.2" x="56.1" y="208.9846">8</text><text fill="#000000" font-family="sans-serif" font-size="7.8" lengthAdjust="spacing" textLength="50.4" x="62.7" y="208.9846">select job offer</text><polygon fill="#181818" points="404.7,228.5168,410.7,230.9168,404.7,233.3168,407.1,230.9168" style="stroke:#181818;stroke-width:0.6;"/><line style="stroke:#181818;stroke-width:0.6;" x1="258.9" x2="408.3" y1="230.9168" y2="230.9168"/><text fill="#000000" font-family="sans-serif" font-size="7.8" font-weight="bold" lengthAdjust="spacing" textLength="4.2" x="263.1" y="227.7592">9</text><text fill="#000000" font-family="sans-serif" font-size="7.8" lengthAdjust="spacing" textLength="114.6" x="269.7" y="227.7592">checkIfApplicationPhaseIsOpen()</text><path d="M6,239.9168 L42.6,239.9168 L42.6,245.4914 L36.6,251.4914 L6,251.4914 L6,239.9168 " fill="#EEEEEE" style="stroke:#000000;stroke-width:0.8999999999999999;"/><rect fill="none" height="423.218" style="stroke:#000000;stroke-width:0.8999999999999999;" width="790.8" x="6" y="239.9168"/><text fill="#000000" font-family="sans-serif" font-size="7.8" font-weight="bold" lengthAdjust="spacing" textLength="9.6" x="15" y="248.9338">alt</text><text fill="#000000" font-family="sans-serif" font-size="6.6" font-weight="bold" lengthAdjust="spacing" textLength="94.2" x="51.6" y="248.2389">[if applicationPhase is close]</text><polygon fill="#181818" points="265.5,263.066,259.5,265.466,265.5,267.866,263.1,265.466" style="stroke:#181818;stroke-width:0.6;"/><line style="stroke:#181818;stroke-width:0.6;stroke-dasharray:2.0,2.0;" x1="261.9" x2="411.3" y1="265.466" y2="265.466"/><text fill="#000000" font-family="sans-serif" font-size="7.8" font-weight="bold" lengthAdjust="spacing" textLength="8.4" x="269.1" y="262.3084">10</text><text fill="#000000" font-family="sans-serif" font-size="7.8" lengthAdjust="spacing" textLength="42.6" x="279.9" y="262.3084">returns false</text><polygon fill="#181818" points="58.5,281.8406,52.5,284.2406,58.5,286.6406,56.1,284.2406" style="stroke:#181818;stroke-width:0.6;"/><line style="stroke:#181818;stroke-width:0.6;stroke-dasharray:2.0,2.0;" x1="54.9" x2="252.3" y1="284.2406" y2="284.2406"/><text fill="#000000" font-family="sans-serif" font-size="7.8" font-weight="bold" lengthAdjust="spacing" textLength="8.4" x="62.1" y="281.083">11</text><text fill="#000000" font-family="sans-serif" font-size="7.8" lengthAdjust="spacing" textLength="175.8" x="72.9" y="281.083">informs application phase is closed and terminates</text><line style="stroke:#000000;stroke-width:0.6;stroke-dasharray:2.0,2.0;" x1="6" x2="796.8" y1="289.6406" y2="289.6406"/><text fill="#000000" font-family="sans-serif" font-size="6.6" font-weight="bold" lengthAdjust="spacing" textLength="93" x="9" y="296.7627">[if applicationPhase is open]</text><polygon fill="#181818" points="265.5,310.5938,259.5,312.9938,265.5,315.3938,263.1,312.9938" style="stroke:#181818;stroke-width:0.6;"/><line style="stroke:#181818;stroke-width:0.6;" x1="261.9" x2="414.3" y1="312.9938" y2="312.9938"/><text fill="#000000" font-family="sans-serif" font-size="7.8" font-weight="bold" lengthAdjust="spacing" textLength="8.4" x="269.1" y="309.8361">12</text><text fill="#000000" font-family="sans-serif" font-size="7.8" lengthAdjust="spacing" textLength="39.6" x="279.9" y="309.8361">returns true</text><polygon fill="#181818" points="404.7,329.3684,410.7,331.7684,404.7,334.1684,407.1,331.7684" style="stroke:#181818;stroke-width:0.6;"/><line style="stroke:#181818;stroke-width:0.6;" x1="258.9" x2="408.3" y1="331.7684" y2="331.7684"/><text fill="#000000" font-family="sans-serif" font-size="7.8" font-weight="bold" lengthAdjust="spacing" textLength="8.4" x="263.1" y="328.6107">13</text><text fill="#000000" font-family="sans-serif" font-size="7.8" lengthAdjust="spacing" textLength="74.4" x="273.9" y="328.6107">getCandidatesEmail()</text><polygon fill="#181818" points="597.9,348.143,603.9,350.543,597.9,352.943,600.3,350.543" style="stroke:#181818;stroke-width:0.6;"/><line style="stroke:#181818;stroke-width:0.6;" x1="417.9" x2="601.5" y1="350.543" y2="350.543"/><text fill="#000000" font-family="sans-serif" font-size="7.8" font-weight="bold" lengthAdjust="spacing" textLength="8.4" x="422.1" y="347.3854">14</text><text fill="#000000" font-family="sans-serif" font-size="7.8" lengthAdjust="spacing" textLength="93" x="432.9" y="347.3854">getAllEmailsByReference()</text><polygon fill="#181818" points="424.5,366.9176,418.5,369.3176,424.5,371.7176,422.1,369.3176" style="stroke:#181818;stroke-width:0.6;"/><line style="stroke:#181818;stroke-width:0.6;stroke-dasharray:2.0,2.0;" x1="420.9" x2="607.5" y1="369.3176" y2="369.3176"/><text fill="#000000" font-family="sans-serif" font-size="7.8" font-weight="bold" lengthAdjust="spacing" textLength="8.4" x="428.1" y="366.16">15</text><text fill="#000000" font-family="sans-serif" font-size="7.8" lengthAdjust="spacing" textLength="43.8" x="438.9" y="366.16">list of emails</text><polygon fill="#181818" points="265.5,385.6922,259.5,388.0922,265.5,390.4922,263.1,388.0922" style="stroke:#181818;stroke-width:0.6;"/><line style="stroke:#181818;stroke-width:0.6;stroke-dasharray:2.0,2.0;" x1="261.9" x2="414.3" y1="388.0922" y2="388.0922"/><text fill="#000000" font-family="sans-serif" font-size="7.8" font-weight="bold" lengthAdjust="spacing" textLength="8.4" x="269.1" y="384.9346">16</text><text fill="#000000" font-family="sans-serif" font-size="7.8" lengthAdjust="spacing" textLength="43.8" x="279.9" y="384.9346">list of emails</text><polygon fill="#181818" points="404.7,404.4668,410.7,406.8668,404.7,409.2668,407.1,406.8668" style="stroke:#181818;stroke-width:0.6;"/><line style="stroke:#181818;stroke-width:0.6;" x1="258.9" x2="408.3" y1="406.8668" y2="406.8668"/><text fill="#000000" font-family="sans-serif" font-size="7.8" font-weight="bold" lengthAdjust="spacing" textLength="8.4" x="263.1" y="403.7092">17</text><text fill="#000000" font-family="sans-serif" font-size="7.8" lengthAdjust="spacing" textLength="54.6" x="273.9" y="403.7092">getCandidates()</text><polygon fill="#181818" points="688.5,423.2414,694.5,425.6414,688.5,428.0414,690.9,425.6414" style="stroke:#181818;stroke-width:0.6;"/><line style="stroke:#181818;stroke-width:0.6;" x1="417.9" x2="692.1" y1="425.6414" y2="425.6414"/><text fill="#000000" font-family="sans-serif" font-size="7.8" font-weight="bold" lengthAdjust="spacing" textLength="8.4" x="422.1" y="422.4838">18</text><text fill="#000000" font-family="sans-serif" font-size="7.8" lengthAdjust="spacing" textLength="54" x="432.9" y="422.4838">getAllByEmail()</text><polygon fill="#181818" points="424.5,442.016,418.5,444.416,424.5,446.816,422.1,444.416" style="stroke:#181818;stroke-width:0.6;"/><line style="stroke:#181818;stroke-width:0.6;stroke-dasharray:2.0,2.0;" x1="420.9" x2="698.1" y1="444.416" y2="444.416"/><text fill="#000000" font-family="sans-serif" font-size="7.8" font-weight="bold" lengthAdjust="spacing" textLength="8.4" x="428.1" y="441.2584">19</text><text fill="#000000" font-family="sans-serif" font-size="7.8" lengthAdjust="spacing" textLength="58.8" x="438.9" y="441.2584">list of candidates</text><polygon fill="#181818" points="265.5,460.7906,259.5,463.1906,265.5,465.5906,263.1,463.1906" style="stroke:#181818;stroke-width:0.6;"/><line style="stroke:#181818;stroke-width:0.6;stroke-dasharray:2.0,2.0;" x1="261.9" x2="414.3" y1="463.1906" y2="463.1906"/><text fill="#000000" font-family="sans-serif" font-size="7.8" font-weight="bold" lengthAdjust="spacing" textLength="8.4" x="269.1" y="460.033">20</text><text fill="#000000" font-family="sans-serif" font-size="7.8" lengthAdjust="spacing" textLength="58.8" x="279.9" y="460.033">list of candidates</text><polygon fill="#181818" points="404.7,479.5652,410.7,481.9652,404.7,484.3652,407.1,481.9652" style="stroke:#181818;stroke-width:0.6;"/><line style="stroke:#181818;stroke-width:0.6;" x1="258.9" x2="408.3" y1="481.9652" y2="481.9652"/><text fill="#000000" font-family="sans-serif" font-size="7.8" font-weight="bold" lengthAdjust="spacing" textLength="8.4" x="263.1" y="478.8076">21</text><text fill="#000000" font-family="sans-serif" font-size="7.8" lengthAdjust="spacing" textLength="36" x="273.9" y="478.8076">getPaths()</text><polygon fill="#181818" points="265.5,498.3398,259.5,500.7398,265.5,503.1398,263.1,500.7398" style="stroke:#181818;stroke-width:0.6;"/><line style="stroke:#181818;stroke-width:0.6;stroke-dasharray:2.0,2.0;" x1="261.9" x2="414.3" y1="500.7398" y2="500.7398"/><text fill="#000000" font-family="sans-serif" font-size="7.8" font-weight="bold" lengthAdjust="spacing" textLength="8.4" x="269.1" y="497.5822">22</text><text fill="#000000" font-family="sans-serif" font-size="7.8" lengthAdjust="spacing" textLength="40.2" x="279.9" y="497.5822">list of paths</text><polygon fill="#181818" points="404.7,517.1145,410.7,519.5145,404.7,521.9145,407.1,519.5145" style="stroke:#181818;stroke-width:0.6;"/><line style="stroke:#181818;stroke-width:0.6;" x1="258.9" x2="408.3" y1="519.5145" y2="519.5145"/><text fill="#000000" font-family="sans-serif" font-size="7.8" font-weight="bold" lengthAdjust="spacing" textLength="8.4" x="263.1" y="516.3568">23</text><text fill="#000000" font-family="sans-serif" font-size="7.8" lengthAdjust="spacing" textLength="48.6" x="273.9" y="516.3568">callEvaluator()</text><polygon fill="#181818" points="739.2,535.8891,745.2,538.2891,739.2,540.6891,741.6,538.2891" style="stroke:#181818;stroke-width:0.6;"/><line style="stroke:#181818;stroke-width:0.6;" x1="417.9" x2="742.8" y1="538.2891" y2="538.2891"/><text fill="#000000" font-family="sans-serif" font-size="7.8" font-weight="bold" lengthAdjust="spacing" textLength="8.4" x="422.1" y="535.1314">24</text><text fill="#000000" font-family="sans-serif" font-size="7.8" lengthAdjust="spacing" textLength="33" x="432.9" y="535.1314">evaluate()</text><rect fill="#E2E2F0" height="19.5727" rx="1.5" ry="1.5" style="stroke:#181818;stroke-width:0.3;" width="44.4" x="746.4" y="524.3145"/><text fill="#000000" font-family="sans-serif" font-size="8.4" lengthAdjust="spacing" textLength="36" x="750.6" y="537.5789">Evaluator</text><polygon fill="#181818" points="424.5,562.0617,418.5,564.4617,424.5,566.8617,422.1,564.4617" style="stroke:#181818;stroke-width:0.6;"/><line style="stroke:#181818;stroke-width:0.6;stroke-dasharray:2.0,2.0;" x1="420.9" x2="768" y1="564.4617" y2="564.4617"/><text fill="#000000" font-family="sans-serif" font-size="7.8" font-weight="bold" lengthAdjust="spacing" textLength="8.4" x="428.1" y="561.3041">25</text><text fill="#000000" font-family="sans-serif" font-size="7.8" lengthAdjust="spacing" textLength="127.8" x="438.9" y="561.3041">Map&lt;EmailAddress, Double&gt; grades</text><polygon fill="#181818" points="265.5,580.8363,259.5,583.2363,265.5,585.6363,263.1,583.2363" style="stroke:#181818;stroke-width:0.6;"/><line style="stroke:#181818;stroke-width:0.6;stroke-dasharray:2.0,2.0;" x1="261.9" x2="414.3" y1="583.2363" y2="583.2363"/><text fill="#000000" font-family="sans-serif" font-size="7.8" font-weight="bold" lengthAdjust="spacing" textLength="8.4" x="269.1" y="580.0787">26</text><text fill="#000000" font-family="sans-serif" font-size="7.8" lengthAdjust="spacing" textLength="127.8" x="279.9" y="580.0787">Map&lt;EmailAddress, Double&gt; grades</text><polygon fill="#181818" points="404.7,599.6109,410.7,602.0109,404.7,604.4109,407.1,602.0109" style="stroke:#181818;stroke-width:0.6;"/><line style="stroke:#181818;stroke-width:0.6;" x1="258.9" x2="408.3" y1="602.0109" y2="602.0109"/><text fill="#000000" font-family="sans-serif" font-size="7.8" font-weight="bold" lengthAdjust="spacing" textLength="8.4" x="263.1" y="598.8533">27</text><text fill="#000000" font-family="sans-serif" font-size="7.8" lengthAdjust="spacing" textLength="52.8" x="273.9" y="598.8533">updateScores()</text><polygon fill="#181818" points="691.5,618.3855,697.5,620.7855,691.5,623.1855,693.9,620.7855" style="stroke:#181818;stroke-width:0.6;"/><line style="stroke:#181818;stroke-width:0.6;" x1="417.9" x2="695.1" y1="620.7855" y2="620.7855"/><text fill="#000000" font-family="sans-serif" font-size="7.8" font-weight="bold" lengthAdjust="spacing" textLength="8.4" x="422.1" y="617.6279">28</text><text fill="#000000" font-family="sans-serif" font-size="7.8" lengthAdjust="spacing" textLength="20.4" x="432.9" y="617.6279">save()</text><polygon fill="#181818" points="265.5,637.1602,259.5,639.5602,265.5,641.9602,263.1,639.5602" style="stroke:#181818;stroke-width:0.6;"/><line style="stroke:#181818;stroke-width:0.6;stroke-dasharray:2.0,2.0;" x1="261.9" x2="414.3" y1="639.5602" y2="639.5602"/><text fill="#000000" font-family="sans-serif" font-size="7.8" font-weight="bold" lengthAdjust="spacing" textLength="8.4" x="269.1" y="636.4025">29</text><text fill="#000000" font-family="sans-serif" font-size="7.8" lengthAdjust="spacing" textLength="114" x="279.9" y="636.4025">inform that the evaluation is done</text><polygon fill="#181818" points="58.5,655.9348,52.5,658.3348,58.5,660.7348,56.1,658.3348" style="stroke:#181818;stroke-width:0.6;"/><line style="stroke:#181818;stroke-width:0.6;stroke-dasharray:2.0,2.0;" x1="54.9" x2="255.3" y1="658.3348" y2="658.3348"/><text fill="#000000" font-family="sans-serif" font-size="7.8" font-weight="bold" lengthAdjust="spacing" textLength="8.4" x="62.1" y="655.1771">30</text><text fill="#000000" font-family="sans-serif" font-size="7.8" lengthAdjust="spacing" textLength="114" x="72.9" y="655.1771">inform that the evaluation is done</text><!--SRC=[dPNFZjem4CRlUOeHftRLVO4LGifI3bIBkafBxqCo0NUD7TaEAzw-OuUG1CoIRMu9yvi_ttpOM3kjwls6J99WxhI1oRosJk_9h53Xbim4qC9ybLHedCX5XSh19AEji8xC3xtvMP4IQhjUXi3r4gRJof0bvT09hMQpU-HSAsUqb6sftzaBvy2gaY9lKoG5EjoW9V1SMPB9gD9MSCF706MCcFCd9iv0sYKQCkbjPewg4Fn65rMkaU5mYmFA6lcdCCdYJ_eIL1K7JkKrJEOhU9nvaPuuuCs2sn7O8-kn1wU16fn0A5Re8EZTTlXwcIGCCXuKUWAxq-z_JshOBryJuAShnZ59-EIVG7JabbmdlqUl0xCcB9No-NWomgd4i4pMOpDux6f8tZBe4hX37JeynnKKnqFfLfrn-618BuwllsAyCYoXXw6XWHVg5OUI7Mv9Kkxz4ClfPJwtr6shORgCrrBqmS6UyXtbRykovyFN7PjiQVq2Og9Up8NIWIW1BtWG5dAfBTrGq92hZR9GekIOg4f2iHnxsqyDrI1t4OHZC-w5ujPibuUa3uktfNcmQqyDkdAcfd4hxRls_B-qYpqA6NLarFXfv-T0skTZHhn6KZd5igGzOwPHNrD84niXlMlgssna_DZqumUVf_r_yctL1at79yxFvQETtn_xJe8FD_-ARZTwxCl2bOS_MJD7jafxd8_Nsv_v3m_CjsTv36qkXlQpV-lhlS9g6XQL5WLVfFORVDVrHj8CjWQBk7Z3Z4CL_YTV62wgIrtv3VxAjVcy3IqU-dgCSqzpIF5DYIvSboTX_Ld5HqsX5OqQO7ZcVPZkuZReZZnL9Fy0]--></g></svg>