<?xml version="1.0" encoding="UTF-8" standalone="no"?><svg xmlns="http://www.w3.org/2000/svg" xmlns:xlink="http://www.w3.org/1999/xlink" contentStyleType="text/css" height="464px" preserveAspectRatio="none" style="width:1382px;height:464px;background:#FFFFFF;" version="1.1" viewBox="0 0 1382 464" width="1382px" zoomAndPan="magnify"><defs/><g><!--cluster <<aggregate>> User--><g id="cluster_&lt;&lt;aggregate&gt;&gt; User"><path d="M8.5,165 L176.5,165 A3.75,3.75 0 0 1 179,167.5 L186,196.1563 L772.5,196.1563 A2.5,2.5 0 0 1 775,198.6563 L775,454.5 A2.5,2.5 0 0 1 772.5,457 L8.5,457 A2.5,2.5 0 0 1 6,454.5 L6,167.5 A2.5,2.5 0 0 1 8.5,165 " fill="none" style="stroke:#000000;stroke-width:1.5;"/><line style="stroke:#000000;stroke-width:1.5;" x1="6" x2="186" y1="196.1563" y2="196.1563"/><text fill="#000000" font-family="sans-serif" font-size="20" font-weight="bold" lengthAdjust="spacing" textLength="167" x="10" y="187.7617">«aggregate» User</text></g><!--cluster <<aggregate>> Client--><g id="cluster_&lt;&lt;aggregate&gt;&gt; Client"><path d="M801.5,177.5 L979.5,177.5 A3.75,3.75 0 0 1 982,180 L989,208.6563 L1372.5,208.6563 A2.5,2.5 0 0 1 1375,211.1563 L1375,295 A2.5,2.5 0 0 1 1372.5,297.5 L801.5,297.5 A2.5,2.5 0 0 1 799,295 L799,180 A2.5,2.5 0 0 1 801.5,177.5 " fill="none" style="stroke:#000000;stroke-width:1.5;"/><line style="stroke:#000000;stroke-width:1.5;" x1="799" x2="989" y1="208.6563" y2="208.6563"/><text fill="#000000" font-family="sans-serif" font-size="20" font-weight="bold" lengthAdjust="spacing" textLength="177" x="803" y="200.2617">«aggregate» Client</text></g><!--class User--><g id="elem_User"><rect codeLine="34" fill="#F5F5DC" height="85.4688" id="User" rx="2.5" ry="2.5" style="stroke:#181818;stroke-width:0.5;" width="99" x="375.5" y="209"/><ellipse cx="391.5" cy="251.7344" fill="#ADD1B2" rx="12" ry="12" style="stroke:#181818;stroke-width:1.0;"/><path d="M389.4531,252.7969 L389.4531,255.7344 L394.5469,255.7344 L394.5469,254.6406 Q394.5469,253.9219 394.8281,253.625 Q395.1094,253.3125 395.5625,253.3125 Q396,253.3125 396.2813,253.625 Q396.5625,253.9219 396.5625,254.6406 L396.5625,257.7344 L387.125,257.7344 Q386.4063,257.7344 386.0938,257.4531 Q385.7969,257.1719 385.7969,256.7344 Q385.7969,256.2813 386.1094,256.0156 Q386.4219,255.7344 387.125,255.7344 L387.4375,255.7344 L387.4375,247.9063 L387.125,247.9063 Q386.4063,247.9063 386.0938,247.625 Q385.7969,247.3438 385.7969,246.8906 Q385.7969,246.4375 386.0938,246.1719 Q386.4063,245.8906 387.125,245.8906 L396.1094,245.8906 L396.1094,248.9375 Q396.1094,249.6563 395.8281,249.9688 Q395.5625,250.2656 395.125,250.2656 Q394.6719,250.2656 394.3906,249.9688 Q394.1094,249.6719 394.1094,248.9375 L394.1094,247.9063 L389.4531,247.9063 L389.4531,250.7969 L391.2031,250.7969 Q391.2031,250.0156 391.3438,249.7813 Q391.6563,249.3125 392.2031,249.3125 Q392.6563,249.3125 392.9219,249.625 Q393.2031,249.9219 393.2031,250.6406 L393.2031,252.9531 Q393.2031,253.6094 393.0469,253.8281 Q392.7344,254.2813 392.2031,254.2813 Q391.6563,254.2813 391.3438,253.8125 Q391.2031,253.5781 391.2031,252.7969 L389.4531,252.7969 Z " fill="#000000"/><text fill="#000000" font-family="sans-serif" font-size="20" font-style="italic" lengthAdjust="spacing" textLength="69" x="404.5" y="234.7617">«entity»</text><text fill="#000000" font-family="sans-serif" font-size="20" font-style="italic" lengthAdjust="spacing" textLength="56" x="411" y="259.918">«root»</text><text fill="#000000" font-family="sans-serif" font-size="20" lengthAdjust="spacing" textLength="41" x="418.5" y="285.0742">User</text></g><!--class Password--><g id="elem_Password"><rect codeLine="36" fill="#F5F5DC" height="60.3125" id="Password" rx="2.5" ry="2.5" style="stroke:#181818;stroke-width:0.5;" width="158" x="22" y="381"/><ellipse cx="38" cy="411.1563" fill="#FF8B40" rx="12" ry="12" style="stroke:#181818;stroke-width:1.0;"/><path d="M38.5,415.2344 L41.3906,408.3281 L40.9375,408.3281 Q40.2188,408.3281 39.9063,408.0469 Q39.5938,407.7656 39.5938,407.3125 Q39.5938,406.8594 39.9063,406.5938 Q40.2188,406.3125 40.9375,406.3125 L43.625,406.3125 Q44.3438,406.3125 44.6563,406.5938 Q44.9688,406.8594 44.9688,407.3125 Q44.9688,407.8594 44.5,408.1719 Q44.2656,408.3281 43.5781,408.3281 L39.4688,418.1563 L37.5469,418.1563 L33.4375,408.3281 Q32.7344,408.3281 32.5156,408.1719 Q32.0469,407.8594 32.0469,407.3125 Q32.0469,406.8594 32.3594,406.5938 Q32.6563,406.3125 33.375,406.3125 L36.0781,406.3125 Q36.7969,406.3125 37.0938,406.5938 Q37.4063,406.8594 37.4063,407.3125 Q37.4063,407.7656 37.1094,408.0469 Q36.8125,408.3281 36.0781,408.3281 L35.6094,408.3281 L38.5,415.2344 Z " fill="#000000"/><text fill="#000000" font-family="sans-serif" font-size="20" font-style="italic" lengthAdjust="spacing" textLength="128" x="51" y="406.7617">«value object»</text><text fill="#000000" font-family="sans-serif" font-size="20" lengthAdjust="spacing" textLength="88" x="71" y="431.918">Password</text></g><!--class Email--><g id="elem_Email"><rect codeLine="39" fill="#F5F5DC" height="60.3125" id="Email" rx="2.5" ry="2.5" style="stroke:#181818;stroke-width:0.5;" width="158" x="215" y="381"/><ellipse cx="231" cy="411.1563" fill="#FF8B40" rx="12" ry="12" style="stroke:#181818;stroke-width:1.0;"/><path d="M231.5,415.2344 L234.3906,408.3281 L233.9375,408.3281 Q233.2188,408.3281 232.9063,408.0469 Q232.5938,407.7656 232.5938,407.3125 Q232.5938,406.8594 232.9063,406.5938 Q233.2188,406.3125 233.9375,406.3125 L236.625,406.3125 Q237.3438,406.3125 237.6563,406.5938 Q237.9688,406.8594 237.9688,407.3125 Q237.9688,407.8594 237.5,408.1719 Q237.2656,408.3281 236.5781,408.3281 L232.4688,418.1563 L230.5469,418.1563 L226.4375,408.3281 Q225.7344,408.3281 225.5156,408.1719 Q225.0469,407.8594 225.0469,407.3125 Q225.0469,406.8594 225.3594,406.5938 Q225.6563,406.3125 226.375,406.3125 L229.0781,406.3125 Q229.7969,406.3125 230.0938,406.5938 Q230.4063,406.8594 230.4063,407.3125 Q230.4063,407.7656 230.1094,408.0469 Q229.8125,408.3281 229.0781,408.3281 L228.6094,408.3281 L231.5,415.2344 Z " fill="#000000"/><text fill="#000000" font-family="sans-serif" font-size="20" font-style="italic" lengthAdjust="spacing" textLength="128" x="244" y="406.7617">«value object»</text><text fill="#000000" font-family="sans-serif" font-size="20" lengthAdjust="spacing" textLength="48" x="284" y="431.918">Email</text></g><!--class FullName--><g id="elem_FullName"><rect codeLine="37" fill="#F5F5DC" height="60.3125" id="FullName" rx="2.5" ry="2.5" style="stroke:#181818;stroke-width:0.5;" width="158" x="408" y="381"/><ellipse cx="424" cy="411.1563" fill="#FF8B40" rx="12" ry="12" style="stroke:#181818;stroke-width:1.0;"/><path d="M424.5,415.2344 L427.3906,408.3281 L426.9375,408.3281 Q426.2188,408.3281 425.9063,408.0469 Q425.5938,407.7656 425.5938,407.3125 Q425.5938,406.8594 425.9063,406.5938 Q426.2188,406.3125 426.9375,406.3125 L429.625,406.3125 Q430.3438,406.3125 430.6563,406.5938 Q430.9688,406.8594 430.9688,407.3125 Q430.9688,407.8594 430.5,408.1719 Q430.2656,408.3281 429.5781,408.3281 L425.4688,418.1563 L423.5469,418.1563 L419.4375,408.3281 Q418.7344,408.3281 418.5156,408.1719 Q418.0469,407.8594 418.0469,407.3125 Q418.0469,406.8594 418.3594,406.5938 Q418.6563,406.3125 419.375,406.3125 L422.0781,406.3125 Q422.7969,406.3125 423.0938,406.5938 Q423.4063,406.8594 423.4063,407.3125 Q423.4063,407.7656 423.1094,408.0469 Q422.8125,408.3281 422.0781,408.3281 L421.6094,408.3281 L424.5,415.2344 Z " fill="#000000"/><text fill="#000000" font-family="sans-serif" font-size="20" font-style="italic" lengthAdjust="spacing" textLength="128" x="437" y="406.7617">«value object»</text><text fill="#000000" font-family="sans-serif" font-size="20" lengthAdjust="spacing" textLength="81" x="460.5" y="431.918">FullName</text></g><!--class ShortName--><g id="elem_ShortName"><rect codeLine="38" fill="#F5F5DC" height="60.3125" id="ShortName" rx="2.5" ry="2.5" style="stroke:#181818;stroke-width:0.5;" width="158" x="601" y="381"/><ellipse cx="617" cy="411.1563" fill="#FF8B40" rx="12" ry="12" style="stroke:#181818;stroke-width:1.0;"/><path d="M617.5,415.2344 L620.3906,408.3281 L619.9375,408.3281 Q619.2188,408.3281 618.9063,408.0469 Q618.5938,407.7656 618.5938,407.3125 Q618.5938,406.8594 618.9063,406.5938 Q619.2188,406.3125 619.9375,406.3125 L622.625,406.3125 Q623.3438,406.3125 623.6563,406.5938 Q623.9688,406.8594 623.9688,407.3125 Q623.9688,407.8594 623.5,408.1719 Q623.2656,408.3281 622.5781,408.3281 L618.4688,418.1563 L616.5469,418.1563 L612.4375,408.3281 Q611.7344,408.3281 611.5156,408.1719 Q611.0469,407.8594 611.0469,407.3125 Q611.0469,406.8594 611.3594,406.5938 Q611.6563,406.3125 612.375,406.3125 L615.0781,406.3125 Q615.7969,406.3125 616.0938,406.5938 Q616.4063,406.8594 616.4063,407.3125 Q616.4063,407.7656 616.1094,408.0469 Q615.8125,408.3281 615.0781,408.3281 L614.6094,408.3281 L617.5,415.2344 Z " fill="#000000"/><text fill="#000000" font-family="sans-serif" font-size="20" font-style="italic" lengthAdjust="spacing" textLength="128" x="630" y="406.7617">«value object»</text><text fill="#000000" font-family="sans-serif" font-size="20" lengthAdjust="spacing" textLength="98" x="645" y="431.918">ShortName</text></g><!--class ClientID--><g id="elem_ClientID"><rect codeLine="26" fill="#F5F5DC" height="60.3125" id="ClientID" rx="2.5" ry="2.5" style="stroke:#181818;stroke-width:0.5;" width="158" x="815" y="221.5"/><ellipse cx="831" cy="251.6563" fill="#FF8B40" rx="12" ry="12" style="stroke:#181818;stroke-width:1.0;"/><path d="M831.5,255.7344 L834.3906,248.8281 L833.9375,248.8281 Q833.2188,248.8281 832.9063,248.5469 Q832.5938,248.2656 832.5938,247.8125 Q832.5938,247.3594 832.9063,247.0938 Q833.2188,246.8125 833.9375,246.8125 L836.625,246.8125 Q837.3438,246.8125 837.6563,247.0938 Q837.9688,247.3594 837.9688,247.8125 Q837.9688,248.3594 837.5,248.6719 Q837.2656,248.8281 836.5781,248.8281 L832.4688,258.6563 L830.5469,258.6563 L826.4375,248.8281 Q825.7344,248.8281 825.5156,248.6719 Q825.0469,248.3594 825.0469,247.8125 Q825.0469,247.3594 825.3594,247.0938 Q825.6563,246.8125 826.375,246.8125 L829.0781,246.8125 Q829.7969,246.8125 830.0938,247.0938 Q830.4063,247.3594 830.4063,247.8125 Q830.4063,248.2656 830.1094,248.5469 Q829.8125,248.8281 829.0781,248.8281 L828.6094,248.8281 L831.5,255.7344 Z " fill="#000000"/><text fill="#000000" font-family="sans-serif" font-size="20" font-style="italic" lengthAdjust="spacing" textLength="128" x="844" y="247.2617">«value object»</text><text fill="#000000" font-family="sans-serif" font-size="20" lengthAdjust="spacing" textLength="69" x="873.5" y="272.418">ClientID</text></g><!--class Address--><g id="elem_Address"><rect codeLine="27" fill="#F5F5DC" height="60.3125" id="Address" rx="2.5" ry="2.5" style="stroke:#181818;stroke-width:0.5;" width="158" x="1008" y="221.5"/><ellipse cx="1024" cy="251.6563" fill="#FF8B40" rx="12" ry="12" style="stroke:#181818;stroke-width:1.0;"/><path d="M1024.5,255.7344 L1027.3906,248.8281 L1026.9375,248.8281 Q1026.2188,248.8281 1025.9063,248.5469 Q1025.5938,248.2656 1025.5938,247.8125 Q1025.5938,247.3594 1025.9063,247.0938 Q1026.2188,246.8125 1026.9375,246.8125 L1029.625,246.8125 Q1030.3438,246.8125 1030.6563,247.0938 Q1030.9688,247.3594 1030.9688,247.8125 Q1030.9688,248.3594 1030.5,248.6719 Q1030.2656,248.8281 1029.5781,248.8281 L1025.4688,258.6563 L1023.5469,258.6563 L1019.4375,248.8281 Q1018.7344,248.8281 1018.5156,248.6719 Q1018.0469,248.3594 1018.0469,247.8125 Q1018.0469,247.3594 1018.3594,247.0938 Q1018.6563,246.8125 1019.375,246.8125 L1022.0781,246.8125 Q1022.7969,246.8125 1023.0938,247.0938 Q1023.4063,247.3594 1023.4063,247.8125 Q1023.4063,248.2656 1023.1094,248.5469 Q1022.8125,248.8281 1022.0781,248.8281 L1021.6094,248.8281 L1024.5,255.7344 Z " fill="#000000"/><text fill="#000000" font-family="sans-serif" font-size="20" font-style="italic" lengthAdjust="spacing" textLength="128" x="1037" y="247.2617">«value object»</text><text fill="#000000" font-family="sans-serif" font-size="20" lengthAdjust="spacing" textLength="73" x="1064.5" y="272.418">Address</text></g><!--class Name--><g id="elem_Name"><rect codeLine="28" fill="#F5F5DC" height="60.3125" id="Name" rx="2.5" ry="2.5" style="stroke:#181818;stroke-width:0.5;" width="158" x="1201" y="221.5"/><ellipse cx="1217" cy="251.6563" fill="#FF8B40" rx="12" ry="12" style="stroke:#181818;stroke-width:1.0;"/><path d="M1217.5,255.7344 L1220.3906,248.8281 L1219.9375,248.8281 Q1219.2188,248.8281 1218.9063,248.5469 Q1218.5938,248.2656 1218.5938,247.8125 Q1218.5938,247.3594 1218.9063,247.0938 Q1219.2188,246.8125 1219.9375,246.8125 L1222.625,246.8125 Q1223.3438,246.8125 1223.6563,247.0938 Q1223.9688,247.3594 1223.9688,247.8125 Q1223.9688,248.3594 1223.5,248.6719 Q1223.2656,248.8281 1222.5781,248.8281 L1218.4688,258.6563 L1216.5469,258.6563 L1212.4375,248.8281 Q1211.7344,248.8281 1211.5156,248.6719 Q1211.0469,248.3594 1211.0469,247.8125 Q1211.0469,247.3594 1211.3594,247.0938 Q1211.6563,246.8125 1212.375,246.8125 L1215.0781,246.8125 Q1215.7969,246.8125 1216.0938,247.0938 Q1216.4063,247.3594 1216.4063,247.8125 Q1216.4063,248.2656 1216.1094,248.5469 Q1215.8125,248.8281 1215.0781,248.8281 L1214.6094,248.8281 L1217.5,255.7344 Z " fill="#000000"/><text fill="#000000" font-family="sans-serif" font-size="20" font-style="italic" lengthAdjust="spacing" textLength="128" x="1230" y="247.2617">«value object»</text><text fill="#000000" font-family="sans-serif" font-size="20" lengthAdjust="spacing" textLength="51" x="1268.5" y="272.418">Name</text></g><!--class Client--><g id="elem_Client"><rect codeLine="20" fill="#F5F5DC" height="85.4688" id="Client" rx="2.5" ry="2.5" style="stroke:#181818;stroke-width:0.5;" width="99" x="928.5" y="7"/><ellipse cx="944.5" cy="49.7344" fill="#ADD1B2" rx="12" ry="12" style="stroke:#181818;stroke-width:1.0;"/><path d="M942.4531,50.7969 L942.4531,53.7344 L947.5469,53.7344 L947.5469,52.6406 Q947.5469,51.9219 947.8281,51.625 Q948.1094,51.3125 948.5625,51.3125 Q949,51.3125 949.2813,51.625 Q949.5625,51.9219 949.5625,52.6406 L949.5625,55.7344 L940.125,55.7344 Q939.4063,55.7344 939.0938,55.4531 Q938.7969,55.1719 938.7969,54.7344 Q938.7969,54.2813 939.1094,54.0156 Q939.4219,53.7344 940.125,53.7344 L940.4375,53.7344 L940.4375,45.9063 L940.125,45.9063 Q939.4063,45.9063 939.0938,45.625 Q938.7969,45.3438 938.7969,44.8906 Q938.7969,44.4375 939.0938,44.1719 Q939.4063,43.8906 940.125,43.8906 L949.1094,43.8906 L949.1094,46.9375 Q949.1094,47.6563 948.8281,47.9688 Q948.5625,48.2656 948.125,48.2656 Q947.6719,48.2656 947.3906,47.9688 Q947.1094,47.6719 947.1094,46.9375 L947.1094,45.9063 L942.4531,45.9063 L942.4531,48.7969 L944.2031,48.7969 Q944.2031,48.0156 944.3438,47.7813 Q944.6563,47.3125 945.2031,47.3125 Q945.6563,47.3125 945.9219,47.625 Q946.2031,47.9219 946.2031,48.6406 L946.2031,50.9531 Q946.2031,51.6094 946.0469,51.8281 Q945.7344,52.2813 945.2031,52.2813 Q944.6563,52.2813 944.3438,51.8125 Q944.2031,51.5781 944.2031,50.7969 L942.4531,50.7969 Z " fill="#000000"/><text fill="#000000" font-family="sans-serif" font-size="20" font-style="italic" lengthAdjust="spacing" textLength="69" x="957.5" y="32.7617">«entity»</text><text fill="#000000" font-family="sans-serif" font-size="20" font-style="italic" lengthAdjust="spacing" textLength="56" x="964" y="57.918">«root»</text><text fill="#000000" font-family="sans-serif" font-size="20" lengthAdjust="spacing" textLength="49" x="967.5" y="83.0742">Client</text></g><!--link Client to ClientID--><g id="link_Client_ClientID"><path codeLine="30" d="M942.79,92.21 C936.14,101.58 929.78,111.78 925,122 C910.88,152.21 902.8,189.53 898.45,216.15 " fill="none" id="Client-to-ClientID" style="stroke:#222222;stroke-width:1.0;"/><polygon fill="#222222" points="897.63,221.32,902.997,213.062,898.4172,216.3824,895.0968,211.8025,897.63,221.32" style="stroke:#222222;stroke-width:1.0;"/><text fill="#000000" font-family="sans-serif" font-size="20" lengthAdjust="spacing" textLength="105" x="926" y="143.7617">identified by</text><text fill="#000000" font-family="sans-serif" font-size="20" lengthAdjust="spacing" textLength="11" x="886.2852" y="209.1982">1</text></g><!--link Client to Address--><g id="link_Client_Address"><path codeLine="31" d="M1015.2,92.05 C1022.66,101.51 1030.02,111.79 1036,122 C1053.7,152.22 1067.79,189.74 1076.64,216.42 " fill="none" id="Client-to-Address" style="stroke:#222222;stroke-width:1.0;"/><polygon fill="#222222" points="1078.23,221.27,1079.223,211.4713,1076.6703,216.5195,1071.6222,213.9668,1078.23,221.27" style="stroke:#222222;stroke-width:1.0;"/><text fill="#000000" font-family="sans-serif" font-size="20" lengthAdjust="spacing" textLength="31" x="1051" y="143.7617">has</text><text fill="#000000" font-family="sans-serif" font-size="20" lengthAdjust="spacing" textLength="11" x="1064.599" y="209.139">1</text></g><!--link Client to Name--><g id="link_Client_Name"><path codeLine="32" d="M1027.79,71.23 C1071.04,90.38 1134.36,121.21 1184,157 C1208.42,174.6 1232.67,198.29 1250.69,217.42 " fill="none" id="Client-to-Name" style="stroke:#222222;stroke-width:1.0;"/><polygon fill="#222222" points="1254.21,221.19,1250.9921,211.8817,1250.7979,217.5352,1245.1444,217.341,1254.21,221.19" style="stroke:#222222;stroke-width:1.0;"/><text fill="#000000" font-family="sans-serif" font-size="20" lengthAdjust="spacing" textLength="31" x="1169" y="143.7617">has</text><text fill="#000000" font-family="sans-serif" font-size="20" lengthAdjust="spacing" textLength="11" x="1237.4409" y="209.0442">1</text></g><!--link User to Password--><g id="link_User_Password"><path codeLine="41" d="M375.28,258.5 C300.36,268.51 163.51,290.83 128,324 C113.91,337.17 107.12,357.59 103.88,375.23 " fill="none" id="User-to-Password" style="stroke:#222222;stroke-width:1.0;"/><polygon fill="#222222" points="102.98,380.6,108.4167,372.3877,103.8089,375.6692,100.5275,371.0614,102.98,380.6" style="stroke:#222222;stroke-width:1.0;"/><text fill="#000000" font-family="sans-serif" font-size="20" lengthAdjust="spacing" textLength="153" x="129" y="345.7617">associated with a</text><text fill="#000000" font-family="sans-serif" font-size="20" lengthAdjust="spacing" textLength="11" x="91.353" y="368.7062">1</text></g><!--link User to FullName--><g id="link_User_FullName"><path codeLine="42" d="M415.86,294.31 C413.85,312.44 414.24,333.48 422,351 C426.3,360.7 433.06,369.49 440.64,377.14 " fill="none" id="User-to-FullName" style="stroke:#222222;stroke-width:1.0;"/><polygon fill="#222222" points="444.41,380.81,440.7448,371.6685,440.8248,377.3248,435.1685,377.4048,444.41,380.81" style="stroke:#222222;stroke-width:1.0;"/><text fill="#000000" font-family="sans-serif" font-size="20" lengthAdjust="spacing" textLength="145" x="423" y="345.7617">characterized by</text><text fill="#000000" font-family="sans-serif" font-size="20" lengthAdjust="spacing" textLength="11" x="424.5434" y="368.6863">1</text></g><!--link User to ShortName--><g id="link_User_ShortName"><path codeLine="43" d="M474.82,273.16 C504.25,286.2 541.76,304.26 573,324 C597.93,339.75 623.76,360.37 643.8,377.47 " fill="none" id="User-to-ShortName" style="stroke:#222222;stroke-width:1.0;"/><polygon fill="#222222" points="647.73,380.84,643.4999,371.9459,643.9337,377.586,638.2935,378.0199,647.73,380.84" style="stroke:#222222;stroke-width:1.0;"/><text fill="#000000" font-family="sans-serif" font-size="20" lengthAdjust="spacing" textLength="145" x="610" y="345.7617">characterized by</text><text fill="#000000" font-family="sans-serif" font-size="20" lengthAdjust="spacing" textLength="11" x="629.7662" y="368.7219">1</text></g><!--link User to Email--><g id="link_User_Email"><path codeLine="44" d="M375.26,267.92 C348.26,279.02 317.01,296.89 300,324 C290.48,339.17 288.55,358.94 289.19,375.7 " fill="none" id="User-to-Email" style="stroke:#222222;stroke-width:1.0;"/><polygon fill="#222222" points="289.47,380.79,292.9748,371.5859,289.1982,375.7974,284.9867,372.0208,289.47,380.79" style="stroke:#222222;stroke-width:1.0;"/><text fill="#000000" font-family="sans-serif" font-size="20" lengthAdjust="spacing" textLength="105" x="301" y="345.7617">identified by</text><text fill="#000000" font-family="sans-serif" font-size="20" lengthAdjust="spacing" textLength="11" x="276.6207" y="368.6627">1</text></g><!--link Client to User--><g id="link_Client_User"><path codeLine="46" d="M928.44,68.42 C829.4,104.24 606.88,184.72 493.79,225.62 " fill="none" id="Client-to-User" style="stroke:#222222;stroke-width:1.0;"/><polygon fill="none" points="495.84,232.32,474.65,232.54,491.08,219.16,495.84,232.32" style="stroke:#222222;stroke-width:1.0;"/></g><!--SRC=[ZLFBJiCm4BpxArRb04YK5iG1HL6ayeZ41I4Xk3lsDZ5ruiXsg4hXtt4TuZOHqEOGUMV7ExDUson4LLDDIwdO0ZbmdDD6sbHLzbby85nEoN5XRMsYoQIMjB9DAS-PAYTCKcF6ND3SRIR4T7N09sRMQf4r5X-OgdoXAIa4Hy2ojYkWNThieYNQGd4ph7L3sIBNggduhP9AGuOYnntIJ6krR5D7b_uZf7PxQ8umYcEQvnfpQZ59uCMW7i6Q061bXPFS02xoEl3aVakbUG3kIofaYD96oaTQOW2U2wMjHxu8-IbuAuLRGHotiTECOwsKJP8_JRLRUhPQA0YruSDT06QSQpGcn9s9Fjr9dxoU7QNfzStLz1JUgMmGLFQ6R6EdL-aGwaRaVnxvwNuyJc1qCTeQYS1DsRKs5-wAPQiXhpCHGK7DCEbbsmpPcThlHzmVvBzkOVr5-eCza1x6VY3VtwAzNEARwfeE7KJWLee9TrKuB8KjWFQPmNm4h73lWLdKxhtvO-uHjxRtCLl3mvbjv_BPFYJo3G00]--></g></svg>