<?xml version="1.0" encoding="UTF-8" standalone="no"?><svg xmlns="http://www.w3.org/2000/svg" xmlns:xlink="http://www.w3.org/1999/xlink" contentStyleType="text/css" height="434px" preserveAspectRatio="none" style="width:660px;height:434px;background:#FFFFFF;" version="1.1" viewBox="0 0 660 434" width="660px" zoomAndPan="magnify"><defs/><g><rect fill="#FFFFFF" height="226.9375" style="stroke:#181818;stroke-width:1.0;" width="10" x="87.5" y="100.1563"/><rect fill="#FFFFFF" height="39.1563" style="stroke:#181818;stroke-width:1.0;" width="10" x="606.5" y="131.3125"/><rect fill="#FFFFFF" height="39.1563" style="stroke:#181818;stroke-width:1.0;" width="10" x="606.5" y="209.625"/><rect fill="#FFFFFF" height="39.1563" style="stroke:#181818;stroke-width:1.0;" width="10" x="606.5" y="287.9375"/><line style="stroke:#181818;stroke-width:0.5;stroke-dasharray:5.0,5.0;" x1="92" x2="92" y1="90.1563" y2="345.0938"/><line style="stroke:#181818;stroke-width:0.5;stroke-dasharray:5.0,5.0;" x1="611.5" x2="611.5" y1="90.1563" y2="345.0938"/><text fill="#000000" font-family="sans-serif" font-size="20" lengthAdjust="spacing" textLength="169" x="5" y="85.7617">Customer Manager</text><ellipse cx="92.5" cy="13.5" fill="#E2E2F0" rx="8" ry="8" style="stroke:#181818;stroke-width:0.5;"/><path d="M92.5,21.5 L92.5,48.5 M79.5,29.5 L105.5,29.5 M92.5,48.5 L79.5,63.5 M92.5,48.5 L105.5,63.5 " fill="none" style="stroke:#181818;stroke-width:0.5;"/><text fill="#000000" font-family="sans-serif" font-size="20" lengthAdjust="spacing" textLength="169" x="5" y="364.8555">Customer Manager</text><ellipse cx="92.5" cy="377.75" fill="#E2E2F0" rx="8" ry="8" style="stroke:#181818;stroke-width:0.5;"/><path d="M92.5,385.75 L92.5,412.75 M79.5,393.75 L105.5,393.75 M92.5,412.75 L79.5,427.75 M92.5,412.75 L105.5,427.75 " fill="none" style="stroke:#181818;stroke-width:0.5;"/><rect fill="#E2E2F0" height="39.1563" rx="2.5" ry="2.5" style="stroke:#181818;stroke-width:0.5;" width="86" x="568.5" y="50"/><text fill="#000000" font-family="sans-serif" font-size="20" lengthAdjust="spacing" textLength="72" x="575.5" y="77.7617">:System</text><rect fill="#E2E2F0" height="39.1563" rx="2.5" ry="2.5" style="stroke:#181818;stroke-width:0.5;" width="86" x="568.5" y="344.0938"/><text fill="#000000" font-family="sans-serif" font-size="20" lengthAdjust="spacing" textLength="72" x="575.5" y="371.8555">:System</text><rect fill="#FFFFFF" height="226.9375" style="stroke:#181818;stroke-width:1.0;" width="10" x="87.5" y="100.1563"/><rect fill="#FFFFFF" height="39.1563" style="stroke:#181818;stroke-width:1.0;" width="10" x="606.5" y="131.3125"/><rect fill="#FFFFFF" height="39.1563" style="stroke:#181818;stroke-width:1.0;" width="10" x="606.5" y="209.625"/><rect fill="#FFFFFF" height="39.1563" style="stroke:#181818;stroke-width:1.0;" width="10" x="606.5" y="287.9375"/><polygon fill="#181818" points="594.5,127.3125,604.5,131.3125,594.5,135.3125,598.5,131.3125" style="stroke:#181818;stroke-width:1.0;"/><line style="stroke:#181818;stroke-width:1.0;" x1="97.5" x2="600.5" y1="131.3125" y2="131.3125"/><text fill="#000000" font-family="sans-serif" font-size="20" font-weight="bold" lengthAdjust="spacing" textLength="11" x="104.5" y="124.918">1</text><text fill="#000000" font-family="sans-serif" font-size="20" lengthAdjust="spacing" textLength="343" x="119.5" y="124.918">asks the system to register a customer</text><polygon fill="#181818" points="108.5,166.4688,98.5,170.4688,108.5,174.4688,104.5,170.4688" style="stroke:#181818;stroke-width:1.0;"/><line style="stroke:#181818;stroke-width:1.0;stroke-dasharray:2.0,2.0;" x1="102.5" x2="610.5" y1="170.4688" y2="170.4688"/><text fill="#000000" font-family="sans-serif" font-size="20" font-weight="bold" lengthAdjust="spacing" textLength="11" x="114.5" y="164.0742">2</text><text fill="#000000" font-family="sans-serif" font-size="20" lengthAdjust="spacing" textLength="470" x="129.5" y="164.0742">requests data (name, customerCode, email, address)</text><polygon fill="#181818" points="594.5,205.625,604.5,209.625,594.5,213.625,598.5,209.625" style="stroke:#181818;stroke-width:1.0;"/><line style="stroke:#181818;stroke-width:1.0;" x1="97.5" x2="600.5" y1="209.625" y2="209.625"/><text fill="#000000" font-family="sans-serif" font-size="20" font-weight="bold" lengthAdjust="spacing" textLength="11" x="104.5" y="203.2305">3</text><text fill="#000000" font-family="sans-serif" font-size="20" lengthAdjust="spacing" textLength="165" x="119.5" y="203.2305">types request data</text><polygon fill="#181818" points="108.5,244.7813,98.5,248.7813,108.5,252.7813,104.5,248.7813" style="stroke:#181818;stroke-width:1.0;"/><line style="stroke:#181818;stroke-width:1.0;stroke-dasharray:2.0,2.0;" x1="102.5" x2="610.5" y1="248.7813" y2="248.7813"/><text fill="#000000" font-family="sans-serif" font-size="20" font-weight="bold" lengthAdjust="spacing" textLength="11" x="114.5" y="242.3867">4</text><text fill="#000000" font-family="sans-serif" font-size="20" lengthAdjust="spacing" textLength="358" x="129.5" y="242.3867">shows all data and requests confirmation</text><polygon fill="#181818" points="594.5,283.9375,604.5,287.9375,594.5,291.9375,598.5,287.9375" style="stroke:#181818;stroke-width:1.0;"/><line style="stroke:#181818;stroke-width:1.0;" x1="97.5" x2="600.5" y1="287.9375" y2="287.9375"/><text fill="#000000" font-family="sans-serif" font-size="20" font-weight="bold" lengthAdjust="spacing" textLength="11" x="104.5" y="281.543">5</text><text fill="#000000" font-family="sans-serif" font-size="20" lengthAdjust="spacing" textLength="152" x="119.5" y="281.543">confirms the data</text><polygon fill="#181818" points="103.5,323.0938,93.5,327.0938,103.5,331.0938,99.5,327.0938" style="stroke:#181818;stroke-width:1.0;"/><line style="stroke:#181818;stroke-width:1.0;stroke-dasharray:2.0,2.0;" x1="97.5" x2="610.5" y1="327.0938" y2="327.0938"/><text fill="#000000" font-family="sans-serif" font-size="20" font-weight="bold" lengthAdjust="spacing" textLength="11" x="109.5" y="320.6992">6</text><text fill="#000000" font-family="sans-serif" font-size="20" lengthAdjust="spacing" textLength="229" x="124.5" y="320.6992">informs operation success</text><!--SRC=[bP71JiCm38RlUGgh9v0s2N7iWKibRZlj2Rp4tQ8sSOaTfktfCTrOaG1ft1pR__V_ScI8USA2QMG_K810FTPHNpdhDfu9df-SmwgSQzfHiTeh5-WsW09DLqKvKO4DPjnJQUPvV4SbMt7ErjOlqBJRaoYb1bfJ3G9w892v1SfGQ1-jBe3Whxo5SjCwjs3M1ZLqQzAtIg820HNX8MEYrGtISR0N9OpZ2Z24GYAFBj1lx9z1zJIHV1dC_7j3oO6F0ZYEbrIOmvBJS-vZIQYHyzrHhgBBtVwJ9EQUFtKyKPajGQhtTeO_hBzrxVS-0000]--></g></svg>