<?xml version="1.0" encoding="us-ascii" standalone="no"?><svg xmlns="http://www.w3.org/2000/svg" xmlns:xlink="http://www.w3.org/1999/xlink" contentStyleType="text/css" height="899px" preserveAspectRatio="none" style="width:895px;height:899px;background:#FFFFFF;" version="1.1" viewBox="0 0 895 899" width="895px" zoomAndPan="magnify"><defs/><g><rect fill="#FFFFFF" height="693.373" style="stroke:#181818;stroke-width:1.0;" width="10" x="76.5" y="98.2422"/><rect fill="#FFFFFF" height="31.291" style="stroke:#181818;stroke-width:1.0;" width="10" x="417.5" y="121.5332"/><rect fill="#FFFFFF" height="156.4551" style="stroke:#181818;stroke-width:1.0;" width="10" x="417.5" y="184.1152"/><rect fill="#FFFFFF" height="199.377" style="stroke:#181818;stroke-width:1.0;" width="10" x="417.5" y="371.8613"/><rect fill="#FFFFFF" height="156.4551" style="stroke:#181818;stroke-width:1.0;" width="10" x="417.5" y="626.1602"/><rect fill="#FFFFFF" height="93.873" style="stroke:#181818;stroke-width:1.0;" width="10" x="621.5" y="215.4063"/><rect fill="#FFFFFF" height="136.7949" style="stroke:#181818;stroke-width:1.0;" width="10" x="621.5" y="403.1523"/><rect fill="#FFFFFF" height="93.873" style="stroke:#181818;stroke-width:1.0;" width="10" x="621.5" y="657.4512"/><rect fill="#FFFFFF" height="31.291" style="stroke:#181818;stroke-width:1.0;" width="10" x="825.5" y="246.6973"/><rect fill="#FFFFFF" height="31.291" style="stroke:#181818;stroke-width:1.0;" width="10" x="825.5" y="688.7422"/><rect fill="none" height="177.7168" style="stroke:#000000;stroke-width:1.5;" width="729" x="10" y="418.1523"/><line style="stroke:#181818;stroke-width:0.5;stroke-dasharray:5.0,5.0;" x1="81" x2="81" y1="88.2422" y2="800.6152"/><line style="stroke:#181818;stroke-width:0.5;stroke-dasharray:5.0,5.0;" x1="422" x2="422" y1="88.2422" y2="800.6152"/><line style="stroke:#181818;stroke-width:0.5;stroke-dasharray:5.0,5.0;" x1="626" x2="626" y1="88.2422" y2="800.6152"/><line style="stroke:#181818;stroke-width:0.5;stroke-dasharray:5.0,5.0;" x1="830.5" x2="830.5" y1="88.2422" y2="800.6152"/><text fill="#000000" font-family="sans-serif" font-size="14" lengthAdjust="spacing" textLength="117" x="20" y="84.7285">CustomerManager</text><ellipse cx="81.5" cy="18.1211" fill="#E2E2F0" rx="8" ry="8" style="stroke:#181818;stroke-width:0.5;"/><path d="M81.5,26.1211 L81.5,53.1211 M68.5,34.1211 L94.5,34.1211 M81.5,53.1211 L68.5,68.1211 M81.5,53.1211 L94.5,68.1211 " fill="none" style="stroke:#181818;stroke-width:0.5;"/><text fill="#000000" font-family="sans-serif" font-size="14" lengthAdjust="spacing" textLength="117" x="20" y="814.7227">CustomerManager</text><ellipse cx="81.5" cy="826.7363" fill="#E2E2F0" rx="8" ry="8" style="stroke:#181818;stroke-width:0.5;"/><path d="M81.5,834.7363 L81.5,861.7363 M68.5,842.7363 L94.5,842.7363 M81.5,861.7363 L68.5,876.7363 M81.5,861.7363 L94.5,876.7363 " fill="none" style="stroke:#181818;stroke-width:0.5;"/><rect fill="#E2E2F0" height="51.2422" rx="2.5" ry="2.5" style="stroke:#181818;stroke-width:0.5;" width="155" x="345" y="36"/><text fill="#000000" font-family="sans-serif" font-size="14" font-style="italic" lengthAdjust="spacing" textLength="95" x="375" y="58.1074">&#171;presentation&#187;</text><text fill="#000000" font-family="sans-serif" font-size="14" lengthAdjust="spacing" textLength="141" x="352" y="76.7285">RegisterJobOpeningUI</text><rect fill="#E2E2F0" height="51.2422" rx="2.5" ry="2.5" style="stroke:#181818;stroke-width:0.5;" width="155" x="345" y="799.6152"/><text fill="#000000" font-family="sans-serif" font-size="14" font-style="italic" lengthAdjust="spacing" textLength="95" x="375" y="821.7227">&#171;presentation&#187;</text><text fill="#000000" font-family="sans-serif" font-size="14" lengthAdjust="spacing" textLength="141" x="352" y="840.3438">RegisterJobOpeningUI</text><rect fill="#E2E2F0" height="51.2422" rx="2.5" ry="2.5" style="stroke:#181818;stroke-width:0.5;" width="205" x="524" y="36"/><text fill="#000000" font-family="sans-serif" font-size="14" font-style="italic" lengthAdjust="spacing" textLength="84" x="584.5" y="58.1074">&#171;application&#187;</text><text fill="#000000" font-family="sans-serif" font-size="14" lengthAdjust="spacing" textLength="191" x="531" y="76.7285">RegisterJobOpeningController</text><rect fill="#E2E2F0" height="51.2422" rx="2.5" ry="2.5" style="stroke:#181818;stroke-width:0.5;" width="205" x="524" y="799.6152"/><text fill="#000000" font-family="sans-serif" font-size="14" font-style="italic" lengthAdjust="spacing" textLength="84" x="584.5" y="821.7227">&#171;application&#187;</text><text fill="#000000" font-family="sans-serif" font-size="14" lengthAdjust="spacing" textLength="191" x="531" y="840.3438">RegisterJobOpeningController</text><text fill="#000000" font-family="sans-serif" font-size="14" font-style="italic" lengthAdjust="spacing" textLength="79" x="788" y="66.1074">&#171;repository&#187;</text><text fill="#000000" font-family="sans-serif" font-size="14" lengthAdjust="spacing" textLength="122" x="766.5" y="84.7285">JobOfferRepository</text><path d="M812.5,15 C812.5,5 830.5,5 830.5,5 C830.5,5 848.5,5 848.5,15 L848.5,41 C848.5,51 830.5,51 830.5,51 C830.5,51 812.5,51 812.5,41 L812.5,15 " fill="#E2E2F0" style="stroke:#181818;stroke-width:1.5;"/><path d="M812.5,15 C812.5,25 830.5,25 830.5,25 C830.5,25 848.5,25 848.5,15 " fill="none" style="stroke:#181818;stroke-width:1.5;"/><text fill="#000000" font-family="sans-serif" font-size="14" font-style="italic" lengthAdjust="spacing" textLength="79" x="788" y="814.7227">&#171;repository&#187;</text><text fill="#000000" font-family="sans-serif" font-size="14" lengthAdjust="spacing" textLength="122" x="766.5" y="833.3438">JobOfferRepository</text><path d="M812.5,846.8574 C812.5,836.8574 830.5,836.8574 830.5,836.8574 C830.5,836.8574 848.5,836.8574 848.5,846.8574 L848.5,872.8574 C848.5,882.8574 830.5,882.8574 830.5,882.8574 C830.5,882.8574 812.5,882.8574 812.5,872.8574 L812.5,846.8574 " fill="#E2E2F0" style="stroke:#181818;stroke-width:1.5;"/><path d="M812.5,846.8574 C812.5,856.8574 830.5,856.8574 830.5,856.8574 C830.5,856.8574 848.5,856.8574 848.5,846.8574 " fill="none" style="stroke:#181818;stroke-width:1.5;"/><rect fill="#FFFFFF" height="693.373" style="stroke:#181818;stroke-width:1.0;" width="10" x="76.5" y="98.2422"/><rect fill="#FFFFFF" height="31.291" style="stroke:#181818;stroke-width:1.0;" width="10" x="417.5" y="121.5332"/><rect fill="#FFFFFF" height="156.4551" style="stroke:#181818;stroke-width:1.0;" width="10" x="417.5" y="184.1152"/><rect fill="#FFFFFF" height="199.377" style="stroke:#181818;stroke-width:1.0;" width="10" x="417.5" y="371.8613"/><rect fill="#FFFFFF" height="156.4551" style="stroke:#181818;stroke-width:1.0;" width="10" x="417.5" y="626.1602"/><rect fill="#FFFFFF" height="93.873" style="stroke:#181818;stroke-width:1.0;" width="10" x="621.5" y="215.4063"/><rect fill="#FFFFFF" height="136.7949" style="stroke:#181818;stroke-width:1.0;" width="10" x="621.5" y="403.1523"/><rect fill="#FFFFFF" height="93.873" style="stroke:#181818;stroke-width:1.0;" width="10" x="621.5" y="657.4512"/><rect fill="#FFFFFF" height="31.291" style="stroke:#181818;stroke-width:1.0;" width="10" x="825.5" y="246.6973"/><rect fill="#FFFFFF" height="31.291" style="stroke:#181818;stroke-width:1.0;" width="10" x="825.5" y="688.7422"/><polygon fill="#181818" points="405.5,117.5332,415.5,121.5332,405.5,125.5332,409.5,121.5332" style="stroke:#181818;stroke-width:1.0;"/><line style="stroke:#181818;stroke-width:1.0;" x1="86.5" x2="411.5" y1="121.5332" y2="121.5332"/><text fill="#000000" font-family="sans-serif" font-size="13" font-weight="bold" lengthAdjust="spacing" textLength="7" x="93.5" y="116.2705">1</text><text fill="#000000" font-family="sans-serif" font-size="13" lengthAdjust="spacing" textLength="197" x="104.5" y="116.2705">asks the system to edit a job offer</text><polygon fill="#181818" points="97.5,148.8242,87.5,152.8242,97.5,156.8242,93.5,152.8242" style="stroke:#181818;stroke-width:1.0;"/><line style="stroke:#181818;stroke-width:1.0;stroke-dasharray:2.0,2.0;" x1="91.5" x2="421.5" y1="152.8242" y2="152.8242"/><text fill="#000000" font-family="sans-serif" font-size="13" font-weight="bold" lengthAdjust="spacing" textLength="7" x="103.5" y="147.5615">2</text><text fill="#000000" font-family="sans-serif" font-size="13" lengthAdjust="spacing" textLength="231" x="114.5" y="147.5615">list job offers and requests to select one</text><polygon fill="#181818" points="405.5,180.1152,415.5,184.1152,405.5,188.1152,409.5,184.1152" style="stroke:#181818;stroke-width:1.0;"/><line style="stroke:#181818;stroke-width:1.0;" x1="86.5" x2="411.5" y1="184.1152" y2="184.1152"/><text fill="#000000" font-family="sans-serif" font-size="13" font-weight="bold" lengthAdjust="spacing" textLength="7" x="93.5" y="178.8525">3</text><text fill="#000000" font-family="sans-serif" font-size="13" lengthAdjust="spacing" textLength="108" x="104.5" y="178.8525">types request data</text><polygon fill="#181818" points="609.5,211.4063,619.5,215.4063,609.5,219.4063,613.5,215.4063" style="stroke:#181818;stroke-width:1.0;"/><line style="stroke:#181818;stroke-width:1.0;" x1="427.5" x2="615.5" y1="215.4063" y2="215.4063"/><text fill="#000000" font-family="sans-serif" font-size="13" font-weight="bold" lengthAdjust="spacing" textLength="7" x="434.5" y="210.1436">4</text><text fill="#000000" font-family="sans-serif" font-size="13" lengthAdjust="spacing" textLength="119" x="445.5" y="210.1436">getSpecificJobOffer()</text><polygon fill="#181818" points="813.5,242.6973,823.5,246.6973,813.5,250.6973,817.5,246.6973" style="stroke:#181818;stroke-width:1.0;"/><line style="stroke:#181818;stroke-width:1.0;" x1="631.5" x2="819.5" y1="246.6973" y2="246.6973"/><text fill="#000000" font-family="sans-serif" font-size="13" font-weight="bold" lengthAdjust="spacing" textLength="7" x="638.5" y="241.4346">5</text><text fill="#000000" font-family="sans-serif" font-size="13" lengthAdjust="spacing" textLength="119" x="649.5" y="241.4346">getSpecificJobOffer()</text><polygon fill="#181818" points="642.5,273.9883,632.5,277.9883,642.5,281.9883,638.5,277.9883" style="stroke:#181818;stroke-width:1.0;"/><line style="stroke:#181818;stroke-width:1.0;" x1="636.5" x2="829.5" y1="277.9883" y2="277.9883"/><text fill="#000000" font-family="sans-serif" font-size="13" font-weight="bold" lengthAdjust="spacing" textLength="7" x="648.5" y="272.7256">6</text><text fill="#000000" font-family="sans-serif" font-size="13" lengthAdjust="spacing" textLength="47" x="659.5" y="272.7256">JobOffer</text><polygon fill="#181818" points="438.5,305.2793,428.5,309.2793,438.5,313.2793,434.5,309.2793" style="stroke:#181818;stroke-width:1.0;"/><line style="stroke:#181818;stroke-width:1.0;" x1="432.5" x2="625.5" y1="309.2793" y2="309.2793"/><text fill="#000000" font-family="sans-serif" font-size="13" font-weight="bold" lengthAdjust="spacing" textLength="7" x="444.5" y="304.0166">7</text><text fill="#000000" font-family="sans-serif" font-size="13" lengthAdjust="spacing" textLength="47" x="455.5" y="304.0166">JobOffer</text><polygon fill="#181818" points="97.5,336.5703,87.5,340.5703,97.5,344.5703,93.5,340.5703" style="stroke:#181818;stroke-width:1.0;"/><line style="stroke:#181818;stroke-width:1.0;" x1="91.5" x2="421.5" y1="340.5703" y2="340.5703"/><text fill="#000000" font-family="sans-serif" font-size="13" font-weight="bold" lengthAdjust="spacing" textLength="7" x="103.5" y="335.3076">8</text><text fill="#000000" font-family="sans-serif" font-size="13" lengthAdjust="spacing" textLength="296" x="114.5" y="335.3076">lists job offer and asks to select the element to edit</text><polygon fill="#181818" points="405.5,367.8613,415.5,371.8613,405.5,375.8613,409.5,371.8613" style="stroke:#181818;stroke-width:1.0;"/><line style="stroke:#181818;stroke-width:1.0;" x1="86.5" x2="411.5" y1="371.8613" y2="371.8613"/><text fill="#000000" font-family="sans-serif" font-size="13" font-weight="bold" lengthAdjust="spacing" textLength="7" x="93.5" y="366.5986">9</text><text fill="#000000" font-family="sans-serif" font-size="13" lengthAdjust="spacing" textLength="108" x="104.5" y="366.5986">types request data</text><polygon fill="#181818" points="609.5,399.1523,619.5,403.1523,609.5,407.1523,613.5,403.1523" style="stroke:#181818;stroke-width:1.0;"/><line style="stroke:#181818;stroke-width:1.0;" x1="427.5" x2="615.5" y1="403.1523" y2="403.1523"/><text fill="#000000" font-family="sans-serif" font-size="13" font-weight="bold" lengthAdjust="spacing" textLength="14" x="434.5" y="397.8896">10</text><text fill="#000000" font-family="sans-serif" font-size="13" lengthAdjust="spacing" textLength="151" x="452.5" y="397.8896">check if is possible to edit</text><path d="M10,418.1523 L71,418.1523 L71,427.4434 L61,437.4434 L10,437.4434 L10,418.1523 " fill="#EEEEEE" style="stroke:#000000;stroke-width:1.5;"/><rect fill="none" height="177.7168" style="stroke:#000000;stroke-width:1.5;" width="729" x="10" y="418.1523"/><text fill="#000000" font-family="sans-serif" font-size="13" font-weight="bold" lengthAdjust="spacing" textLength="16" x="25" y="433.1807">alt</text><text fill="#000000" font-family="sans-serif" font-size="11" font-weight="bold" lengthAdjust="spacing" textLength="138" x="86" y="432.0225">[if is not possible to edit]</text><polygon fill="#181818" points="438.5,456.7344,428.5,460.7344,438.5,464.7344,434.5,460.7344" style="stroke:#181818;stroke-width:1.0;"/><line style="stroke:#181818;stroke-width:1.0;" x1="432.5" x2="620.5" y1="460.7344" y2="460.7344"/><text fill="#000000" font-family="sans-serif" font-size="13" font-weight="bold" lengthAdjust="spacing" textLength="14" x="444.5" y="455.4717">11</text><text fill="#000000" font-family="sans-serif" font-size="13" lengthAdjust="spacing" textLength="71" x="462.5" y="455.4717">returns false</text><polygon fill="#181818" points="97.5,488.0254,87.5,492.0254,97.5,496.0254,93.5,492.0254" style="stroke:#181818;stroke-width:1.0;"/><line style="stroke:#181818;stroke-width:1.0;" x1="91.5" x2="416.5" y1="492.0254" y2="492.0254"/><text fill="#000000" font-family="sans-serif" font-size="13" font-weight="bold" lengthAdjust="spacing" textLength="14" x="103.5" y="486.7627">12</text><text fill="#000000" font-family="sans-serif" font-size="13" lengthAdjust="spacing" textLength="196" x="121.5" y="486.7627">informs that is not possible to edit</text><line style="stroke:#000000;stroke-width:1.0;stroke-dasharray:2.0,2.0;" x1="10" x2="739" y1="501.0254" y2="501.0254"/><text fill="#000000" font-family="sans-serif" font-size="11" font-weight="bold" lengthAdjust="spacing" textLength="107" x="15" y="512.8955">[is possible to edit]</text><polygon fill="#181818" points="438.5,535.9473,428.5,539.9473,438.5,543.9473,434.5,539.9473" style="stroke:#181818;stroke-width:1.0;"/><line style="stroke:#181818;stroke-width:1.0;" x1="432.5" x2="625.5" y1="539.9473" y2="539.9473"/><text fill="#000000" font-family="sans-serif" font-size="13" font-weight="bold" lengthAdjust="spacing" textLength="14" x="444.5" y="534.6846">13</text><text fill="#000000" font-family="sans-serif" font-size="13" lengthAdjust="spacing" textLength="66" x="462.5" y="534.6846">returns true</text><polygon fill="#181818" points="97.5,567.2383,87.5,571.2383,97.5,575.2383,93.5,571.2383" style="stroke:#181818;stroke-width:1.0;"/><line style="stroke:#181818;stroke-width:1.0;" x1="91.5" x2="421.5" y1="571.2383" y2="571.2383"/><text fill="#000000" font-family="sans-serif" font-size="13" font-weight="bold" lengthAdjust="spacing" textLength="14" x="103.5" y="565.9756">14</text><text fill="#000000" font-family="sans-serif" font-size="13" lengthAdjust="spacing" textLength="154" x="121.5" y="565.9756">asks to entry the new data</text><line style="stroke:#000000;stroke-width:1.0;stroke-dasharray:2.0,2.0;" x1="10" x2="739" y1="580.2383" y2="580.2383"/><text fill="#000000" font-family="sans-serif" font-size="11" font-weight="bold" lengthAdjust="spacing" textLength="111" x="15" y="592.1084">[its possible to edit]</text><polygon fill="#181818" points="405.5,622.1602,415.5,626.1602,405.5,630.1602,409.5,626.1602" style="stroke:#181818;stroke-width:1.0;"/><line style="stroke:#181818;stroke-width:1.0;" x1="86.5" x2="411.5" y1="626.1602" y2="626.1602"/><text fill="#000000" font-family="sans-serif" font-size="13" font-weight="bold" lengthAdjust="spacing" textLength="14" x="93.5" y="620.8975">15</text><text fill="#000000" font-family="sans-serif" font-size="13" lengthAdjust="spacing" textLength="108" x="111.5" y="620.8975">types request data</text><polygon fill="#181818" points="609.5,653.4512,619.5,657.4512,609.5,661.4512,613.5,657.4512" style="stroke:#181818;stroke-width:1.0;"/><line style="stroke:#181818;stroke-width:1.0;" x1="427.5" x2="615.5" y1="657.4512" y2="657.4512"/><text fill="#000000" font-family="sans-serif" font-size="13" font-weight="bold" lengthAdjust="spacing" textLength="14" x="434.5" y="652.1885">16</text><text fill="#000000" font-family="sans-serif" font-size="13" lengthAdjust="spacing" textLength="50" x="452.5" y="652.1885">replace()</text><polygon fill="#181818" points="813.5,684.7422,823.5,688.7422,813.5,692.7422,817.5,688.7422" style="stroke:#181818;stroke-width:1.0;"/><line style="stroke:#181818;stroke-width:1.0;" x1="631.5" x2="819.5" y1="688.7422" y2="688.7422"/><text fill="#000000" font-family="sans-serif" font-size="13" font-weight="bold" lengthAdjust="spacing" textLength="14" x="638.5" y="683.4795">17</text><text fill="#000000" font-family="sans-serif" font-size="13" lengthAdjust="spacing" textLength="102" x="656.5" y="683.4795">saveJobOpening()</text><polygon fill="#181818" points="642.5,716.0332,632.5,720.0332,642.5,724.0332,638.5,720.0332" style="stroke:#181818;stroke-width:1.0;"/><line style="stroke:#181818;stroke-width:1.0;" x1="636.5" x2="829.5" y1="720.0332" y2="720.0332"/><text fill="#000000" font-family="sans-serif" font-size="13" font-weight="bold" lengthAdjust="spacing" textLength="14" x="648.5" y="714.7705">18</text><text fill="#000000" font-family="sans-serif" font-size="13" lengthAdjust="spacing" textLength="152" x="666.5" y="714.7705">informs operation success</text><polygon fill="#181818" points="438.5,747.3242,428.5,751.3242,438.5,755.3242,434.5,751.3242" style="stroke:#181818;stroke-width:1.0;"/><line style="stroke:#181818;stroke-width:1.0;" x1="432.5" x2="625.5" y1="751.3242" y2="751.3242"/><text fill="#000000" font-family="sans-serif" font-size="13" font-weight="bold" lengthAdjust="spacing" textLength="14" x="444.5" y="746.0615">19</text><text fill="#000000" font-family="sans-serif" font-size="13" lengthAdjust="spacing" textLength="152" x="462.5" y="746.0615">informs operation success</text><polygon fill="#181818" points="97.5,778.6152,87.5,782.6152,97.5,786.6152,93.5,782.6152" style="stroke:#181818;stroke-width:1.0;"/><line style="stroke:#181818;stroke-width:1.0;" x1="91.5" x2="421.5" y1="782.6152" y2="782.6152"/><text fill="#000000" font-family="sans-serif" font-size="13" font-weight="bold" lengthAdjust="spacing" textLength="14" x="103.5" y="777.3525">20</text><text fill="#000000" font-family="sans-serif" font-size="13" lengthAdjust="spacing" textLength="152" x="121.5" y="777.3525">informs operation success</text><!--SRC=[hPD1Rjim44NtEiN0gsQH2nY1Druvg550hGymeaOE4ufaEQCKlds7acdPZPCOGRqoxF___7aOuY313tr3gQhGI4YmM0yieQUqHOzxIWj0XlMsYfZ46XlH2ongsbiMIe-X-H79Mx_VRKRXRWCF3p4HanSK6_ngzPbp7Roau5mPzQl-hXaOexEcH5Gj2ZR81DdNTPHgYe6j5ZwCfbejwVHJTkWszXM5SlTglONxLIwtLFKBWpmHy45xz201gBK22C-XWP2pP-zkKrNgkbUpHYp1QVTPnu2-XKI_1sBXdCJao0W4JrLB5obd3UGGYOiDycPl1wuc3alOa_oCP6ndJLdzsztPSghIyApDdle6Hwtw-cn24Pqt7aN7qB7pLT4u-zXsEy7XcSu8Pw9z0fEvwxTUhwE0_r-Wp1EP5x0TM0Qz0xQDezECVpgZawFI1tchBgkF9HB9a3n3XuvfNbV_iRuBgS_7XF9-5gdjQgSBlcMAf84-ObnuAa2z_8pJqvy9pIN7QQnScKk-_JfbVMCE3NroWeolD3_mzwzlPXWYfV6n0m_64FE7rtYRwmBThQwyyVZv2m00]--></g></svg>