<?xml version="1.0" encoding="us-ascii" standalone="no"?><svg xmlns="http://www.w3.org/2000/svg" xmlns:xlink="http://www.w3.org/1999/xlink" contentStyleType="text/css" height="518px" preserveAspectRatio="none" style="width:473px;height:518px;background:#FFFFFF;" version="1.1" viewBox="0 0 473 518" width="473px" zoomAndPan="magnify"><defs/><g><rect fill="#FFFFFF" height="323.541" style="stroke:#181818;stroke-width:1.0;" width="10" x="78.5" y="93.6211"/><rect fill="#FFFFFF" height="31.291" style="stroke:#181818;stroke-width:1.0;" width="10" x="419.5" y="116.9121"/><rect fill="#FFFFFF" height="31.291" style="stroke:#181818;stroke-width:1.0;" width="10" x="419.5" y="179.4941"/><rect fill="#FFFFFF" height="57.582" style="stroke:#181818;stroke-width:1.0;" width="10" x="419.5" y="242.0762"/><rect fill="#FFFFFF" height="31.291" style="stroke:#181818;stroke-width:1.0;" width="10" x="419.5" y="385.8711"/><rect fill="none" height="98.5039" style="stroke:#000000;stroke-width:1.5;" width="456.5" x="10" y="257.0762"/><line style="stroke:#181818;stroke-width:0.5;stroke-dasharray:5.0,5.0;" x1="83" x2="83" y1="83.6211" y2="435.1621"/><line style="stroke:#181818;stroke-width:0.5;stroke-dasharray:5.0,5.0;" x1="424.5" x2="424.5" y1="83.6211" y2="435.1621"/><text fill="#000000" font-family="sans-serif" font-size="14" lengthAdjust="spacing" textLength="121" x="20" y="80.1074">Customer Manager</text><ellipse cx="83.5" cy="13.5" fill="#E2E2F0" rx="8" ry="8" style="stroke:#181818;stroke-width:0.5;"/><path d="M83.5,21.5 L83.5,48.5 M70.5,29.5 L96.5,29.5 M83.5,48.5 L70.5,63.5 M83.5,48.5 L96.5,63.5 " fill="none" style="stroke:#181818;stroke-width:0.5;"/><text fill="#000000" font-family="sans-serif" font-size="14" lengthAdjust="spacing" textLength="121" x="20" y="449.2695">Customer Manager</text><ellipse cx="83.5" cy="461.2832" fill="#E2E2F0" rx="8" ry="8" style="stroke:#181818;stroke-width:0.5;"/><path d="M83.5,469.2832 L83.5,496.2832 M70.5,477.2832 L96.5,477.2832 M83.5,496.2832 L70.5,511.2832 M83.5,496.2832 L96.5,511.2832 " fill="none" style="stroke:#181818;stroke-width:0.5;"/><rect fill="#E2E2F0" height="32.6211" rx="2.5" ry="2.5" style="stroke:#181818;stroke-width:0.5;" width="64" x="392.5" y="50"/><text fill="#000000" font-family="sans-serif" font-size="14" lengthAdjust="spacing" textLength="50" x="399.5" y="72.1074">:System</text><rect fill="#E2E2F0" height="32.6211" rx="2.5" ry="2.5" style="stroke:#181818;stroke-width:0.5;" width="64" x="392.5" y="434.1621"/><text fill="#000000" font-family="sans-serif" font-size="14" lengthAdjust="spacing" textLength="50" x="399.5" y="456.2695">:System</text><rect fill="#FFFFFF" height="323.541" style="stroke:#181818;stroke-width:1.0;" width="10" x="78.5" y="93.6211"/><rect fill="#FFFFFF" height="31.291" style="stroke:#181818;stroke-width:1.0;" width="10" x="419.5" y="116.9121"/><rect fill="#FFFFFF" height="31.291" style="stroke:#181818;stroke-width:1.0;" width="10" x="419.5" y="179.4941"/><rect fill="#FFFFFF" height="57.582" style="stroke:#181818;stroke-width:1.0;" width="10" x="419.5" y="242.0762"/><rect fill="#FFFFFF" height="31.291" style="stroke:#181818;stroke-width:1.0;" width="10" x="419.5" y="385.8711"/><polygon fill="#181818" points="407.5,112.9121,417.5,116.9121,407.5,120.9121,411.5,116.9121" style="stroke:#181818;stroke-width:1.0;"/><line style="stroke:#181818;stroke-width:1.0;" x1="88.5" x2="413.5" y1="116.9121" y2="116.9121"/><text fill="#000000" font-family="sans-serif" font-size="13" font-weight="bold" lengthAdjust="spacing" textLength="7" x="95.5" y="111.6494">1</text><text fill="#000000" font-family="sans-serif" font-size="13" lengthAdjust="spacing" textLength="197" x="106.5" y="111.6494">asks the system to edit a job offer</text><polygon fill="#181818" points="99.5,144.2031,89.5,148.2031,99.5,152.2031,95.5,148.2031" style="stroke:#181818;stroke-width:1.0;"/><line style="stroke:#181818;stroke-width:1.0;stroke-dasharray:2.0,2.0;" x1="93.5" x2="423.5" y1="148.2031" y2="148.2031"/><text fill="#000000" font-family="sans-serif" font-size="13" font-weight="bold" lengthAdjust="spacing" textLength="7" x="105.5" y="142.9404">2</text><text fill="#000000" font-family="sans-serif" font-size="13" lengthAdjust="spacing" textLength="231" x="116.5" y="142.9404">list job offers and requests to select one</text><polygon fill="#181818" points="407.5,175.4941,417.5,179.4941,407.5,183.4941,411.5,179.4941" style="stroke:#181818;stroke-width:1.0;"/><line style="stroke:#181818;stroke-width:1.0;" x1="88.5" x2="413.5" y1="179.4941" y2="179.4941"/><text fill="#000000" font-family="sans-serif" font-size="13" font-weight="bold" lengthAdjust="spacing" textLength="7" x="95.5" y="174.2314">3</text><text fill="#000000" font-family="sans-serif" font-size="13" lengthAdjust="spacing" textLength="108" x="106.5" y="174.2314">types request data</text><polygon fill="#181818" points="99.5,206.7852,89.5,210.7852,99.5,214.7852,95.5,210.7852" style="stroke:#181818;stroke-width:1.0;"/><line style="stroke:#181818;stroke-width:1.0;stroke-dasharray:2.0,2.0;" x1="93.5" x2="423.5" y1="210.7852" y2="210.7852"/><text fill="#000000" font-family="sans-serif" font-size="13" font-weight="bold" lengthAdjust="spacing" textLength="7" x="105.5" y="205.5225">4</text><text fill="#000000" font-family="sans-serif" font-size="13" lengthAdjust="spacing" textLength="296" x="116.5" y="205.5225">lists job offer and asks to select the element to edit</text><polygon fill="#181818" points="407.5,238.0762,417.5,242.0762,407.5,246.0762,411.5,242.0762" style="stroke:#181818;stroke-width:1.0;"/><line style="stroke:#181818;stroke-width:1.0;" x1="88.5" x2="413.5" y1="242.0762" y2="242.0762"/><text fill="#000000" font-family="sans-serif" font-size="13" font-weight="bold" lengthAdjust="spacing" textLength="7" x="95.5" y="236.8135">5</text><text fill="#000000" font-family="sans-serif" font-size="13" lengthAdjust="spacing" textLength="108" x="106.5" y="236.8135">types request data</text><path d="M10,257.0762 L71,257.0762 L71,266.3672 L61,276.3672 L10,276.3672 L10,257.0762 " fill="#EEEEEE" style="stroke:#000000;stroke-width:1.5;"/><rect fill="none" height="98.5039" style="stroke:#000000;stroke-width:1.5;" width="456.5" x="10" y="257.0762"/><text fill="#000000" font-family="sans-serif" font-size="13" font-weight="bold" lengthAdjust="spacing" textLength="16" x="25" y="272.1045">alt</text><text fill="#000000" font-family="sans-serif" font-size="11" font-weight="bold" lengthAdjust="spacing" textLength="215" x="86" y="270.9463">[if its not possible to edit that element]</text><polygon fill="#181818" points="99.5,295.6582,89.5,299.6582,99.5,303.6582,95.5,299.6582" style="stroke:#181818;stroke-width:1.0;"/><line style="stroke:#181818;stroke-width:1.0;stroke-dasharray:2.0,2.0;" x1="93.5" x2="423.5" y1="299.6582" y2="299.6582"/><text fill="#000000" font-family="sans-serif" font-size="13" font-weight="bold" lengthAdjust="spacing" textLength="7" x="105.5" y="294.3955">6</text><text fill="#000000" font-family="sans-serif" font-size="13" lengthAdjust="spacing" textLength="240" x="116.5" y="294.3955">informs that the element cannot be edited</text><line style="stroke:#000000;stroke-width:1.0;stroke-dasharray:2.0,2.0;" x1="10" x2="466.5" y1="308.6582" y2="308.6582"/><text fill="#000000" font-family="sans-serif" font-size="11" font-weight="bold" lengthAdjust="spacing" textLength="184" x="15" y="320.5283">[its possible to edit that element]</text><polygon fill="#181818" points="99.5,343.5801,89.5,347.5801,99.5,351.5801,95.5,347.5801" style="stroke:#181818;stroke-width:1.0;"/><line style="stroke:#181818;stroke-width:1.0;stroke-dasharray:2.0,2.0;" x1="93.5" x2="423.5" y1="347.5801" y2="347.5801"/><text fill="#000000" font-family="sans-serif" font-size="13" font-weight="bold" lengthAdjust="spacing" textLength="7" x="105.5" y="342.3174">7</text><text fill="#000000" font-family="sans-serif" font-size="13" lengthAdjust="spacing" textLength="154" x="116.5" y="342.3174">asks to entry the new data</text><polygon fill="#181818" points="407.5,381.8711,417.5,385.8711,407.5,389.8711,411.5,385.8711" style="stroke:#181818;stroke-width:1.0;"/><line style="stroke:#181818;stroke-width:1.0;" x1="88.5" x2="413.5" y1="385.8711" y2="385.8711"/><text fill="#000000" font-family="sans-serif" font-size="13" font-weight="bold" lengthAdjust="spacing" textLength="7" x="95.5" y="380.6084">8</text><text fill="#000000" font-family="sans-serif" font-size="13" lengthAdjust="spacing" textLength="108" x="106.5" y="380.6084">types request data</text><polygon fill="#181818" points="94.5,413.1621,84.5,417.1621,94.5,421.1621,90.5,417.1621" style="stroke:#181818;stroke-width:1.0;"/><line style="stroke:#181818;stroke-width:1.0;stroke-dasharray:2.0,2.0;" x1="88.5" x2="423.5" y1="417.1621" y2="417.1621"/><text fill="#000000" font-family="sans-serif" font-size="13" font-weight="bold" lengthAdjust="spacing" textLength="7" x="100.5" y="411.8994">9</text><text fill="#000000" font-family="sans-serif" font-size="13" lengthAdjust="spacing" textLength="152" x="111.5" y="411.8994">informs operation success</text><!--SRC=[jPCnSeGm34Lxdq93lnUWI9CwLKuWu9Dr0XQnH7QuVOmPmnPBaSnivz7eVxqlZNas2VFO83h7hKcaDmxyWKYiLBtEQZ9YBrQvoV-mePISAuBB2rNr-wA6iQ8wwR-Kx0hIN28JGkUDc3wb8UdxfDtDTg5pXySbEHRpcWQlTaYLE7GKyJr3JLTpnO3MI09SXqV69vosJD3YH1qR_nbB3wwCjKNVaTObfDU8O6KBJq7amSZtv1DF4AD9L7qpOD-yNTaAo6aU7tg9esxDz-GjXzMrGJP3zpW21aKc-D_qihdK4vSyFk2s9NO8tPDkM3BBXCZc9P3ERGlLapFTLSil-0K0]--></g></svg>