<?xml version="1.0" encoding="UTF-8" standalone="no"?><svg xmlns="http://www.w3.org/2000/svg" xmlns:xlink="http://www.w3.org/1999/xlink" contentStyleType="text/css" height="588px" preserveAspectRatio="none" style="width:1297px;height:588px;background:#FFFFFF;" version="1.1" viewBox="0 0 1297 588" width="1297px" zoomAndPan="magnify"><defs/><g><rect fill="#FFFFFF" height="346.4063" style="stroke:#181818;stroke-width:1.0;" width="10" x="84.5" y="111.3125"/><rect fill="#FFFFFF" height="89.4688" style="stroke:#181818;stroke-width:1.0;" width="10" x="515.5" y="142.4688"/><rect fill="#FFFFFF" height="186.625" style="stroke:#181818;stroke-width:1.0;" width="10" x="515.5" y="271.0938"/><rect fill="#FFFFFF" height="108.3125" style="stroke:#181818;stroke-width:1.0;" width="10" x="770.5" y="310.25"/><rect fill="#FFFFFF" height="30" style="stroke:#181818;stroke-width:1.0;" width="10" x="1026.5" y="349.4063"/><rect fill="#FFFFFF" height="48.1563" style="stroke:#181818;stroke-width:1.0;" width="10" x="1202" y="418.5625"/><line style="stroke:#181818;stroke-width:0.5;stroke-dasharray:5.0,5.0;" x1="89" x2="89" y1="101.3125" y2="475.7188"/><line style="stroke:#181818;stroke-width:0.5;stroke-dasharray:5.0,5.0;" x1="520.5" x2="520.5" y1="101.3125" y2="475.7188"/><line style="stroke:#181818;stroke-width:0.5;stroke-dasharray:5.0,5.0;" x1="775.5" x2="775.5" y1="101.3125" y2="475.7188"/><line style="stroke:#181818;stroke-width:0.5;stroke-dasharray:5.0,5.0;" x1="1031.5" x2="1031.5" y1="101.3125" y2="475.7188"/><line style="stroke:#181818;stroke-width:0.5;stroke-dasharray:5.0,5.0;" x1="1206.5" x2="1206.5" y1="101.3125" y2="475.7188"/><text fill="#000000" font-family="sans-serif" font-size="20" lengthAdjust="spacing" textLength="163" x="5" y="96.918">CustomerManager</text><ellipse cx="89.5" cy="24.6563" fill="#E2E2F0" rx="8" ry="8" style="stroke:#181818;stroke-width:0.5;"/><path d="M89.5,32.6563 L89.5,59.6563 M76.5,40.6563 L102.5,40.6563 M89.5,59.6563 L76.5,74.6563 M89.5,59.6563 L102.5,74.6563 " fill="none" style="stroke:#181818;stroke-width:0.5;"/><text fill="#000000" font-family="sans-serif" font-size="20" lengthAdjust="spacing" textLength="163" x="5" y="495.4805">CustomerManager</text><ellipse cx="89.5" cy="508.375" fill="#E2E2F0" rx="8" ry="8" style="stroke:#181818;stroke-width:0.5;"/><path d="M89.5,516.375 L89.5,543.375 M76.5,524.375 L102.5,524.375 M89.5,543.375 L76.5,558.375 M89.5,543.375 L102.5,558.375 " fill="none" style="stroke:#181818;stroke-width:0.5;"/><rect fill="#E2E2F0" height="64.3125" rx="2.5" ry="2.5" style="stroke:#181818;stroke-width:0.5;" width="212" x="414.5" y="36"/><text fill="#000000" font-family="sans-serif" font-size="20" font-style="italic" lengthAdjust="spacing" textLength="131" x="455" y="63.7617">«presentation»</text><text fill="#000000" font-family="sans-serif" font-size="20" lengthAdjust="spacing" textLength="198" x="421.5" y="88.918">RegisterJobOpeningUI</text><rect fill="#E2E2F0" height="64.3125" rx="2.5" ry="2.5" style="stroke:#181818;stroke-width:0.5;" width="212" x="414.5" y="474.7188"/><text fill="#000000" font-family="sans-serif" font-size="20" font-style="italic" lengthAdjust="spacing" textLength="131" x="455" y="502.4805">«presentation»</text><text fill="#000000" font-family="sans-serif" font-size="20" lengthAdjust="spacing" textLength="198" x="421.5" y="527.6367">RegisterJobOpeningUI</text><rect fill="#E2E2F0" height="64.3125" rx="2.5" ry="2.5" style="stroke:#181818;stroke-width:0.5;" width="278" x="636.5" y="36"/><text fill="#000000" font-family="sans-serif" font-size="20" font-style="italic" lengthAdjust="spacing" textLength="118" x="716.5" y="63.7617">«application»</text><text fill="#000000" font-family="sans-serif" font-size="20" lengthAdjust="spacing" textLength="264" x="643.5" y="88.918">RegisterJobOpeningController</text><rect fill="#E2E2F0" height="64.3125" rx="2.5" ry="2.5" style="stroke:#181818;stroke-width:0.5;" width="278" x="636.5" y="474.7188"/><text fill="#000000" font-family="sans-serif" font-size="20" font-style="italic" lengthAdjust="spacing" textLength="118" x="716.5" y="502.4805">«application»</text><text fill="#000000" font-family="sans-serif" font-size="20" lengthAdjust="spacing" textLength="264" x="643.5" y="527.6367">RegisterJobOpeningController</text><rect fill="#E2E2F0" height="64.3125" rx="2.5" ry="2.5" style="stroke:#181818;stroke-width:0.5;" width="152" x="955.5" y="36"/><text fill="#000000" font-family="sans-serif" font-size="20" font-style="italic" lengthAdjust="spacing" textLength="83" x="990" y="63.7617">«builder»</text><text fill="#000000" font-family="sans-serif" font-size="20" lengthAdjust="spacing" textLength="138" x="962.5" y="88.918">JobOfferBuilder</text><rect fill="#E2E2F0" height="64.3125" rx="2.5" ry="2.5" style="stroke:#181818;stroke-width:0.5;" width="152" x="955.5" y="474.7188"/><text fill="#000000" font-family="sans-serif" font-size="20" font-style="italic" lengthAdjust="spacing" textLength="83" x="990" y="502.4805">«builder»</text><text fill="#000000" font-family="sans-serif" font-size="20" lengthAdjust="spacing" textLength="138" x="962.5" y="527.6367">JobOfferBuilder</text><text fill="#000000" font-family="sans-serif" font-size="20" font-style="italic" lengthAdjust="spacing" textLength="110" x="1149" y="71.7617">«repository»</text><text fill="#000000" font-family="sans-serif" font-size="20" lengthAdjust="spacing" textLength="173" x="1117.5" y="96.918">JobOfferRepository</text><path d="M1189,15 C1189,5 1207,5 1207,5 C1207,5 1225,5 1225,15 L1225,41 C1225,51 1207,51 1207,51 C1207,51 1189,51 1189,41 L1189,15 " fill="#E2E2F0" style="stroke:#181818;stroke-width:1.5;"/><path d="M1189,15 C1189,25 1207,25 1207,25 C1207,25 1225,25 1225,15 " fill="none" style="stroke:#181818;stroke-width:1.5;"/><text fill="#000000" font-family="sans-serif" font-size="20" font-style="italic" lengthAdjust="spacing" textLength="110" x="1149" y="495.4805">«repository»</text><text fill="#000000" font-family="sans-serif" font-size="20" lengthAdjust="spacing" textLength="173" x="1117.5" y="520.6367">JobOfferRepository</text><path d="M1189,535.0313 C1189,525.0313 1207,525.0313 1207,525.0313 C1207,525.0313 1225,525.0313 1225,535.0313 L1225,561.0313 C1225,571.0313 1207,571.0313 1207,571.0313 C1207,571.0313 1189,571.0313 1189,561.0313 L1189,535.0313 " fill="#E2E2F0" style="stroke:#181818;stroke-width:1.5;"/><path d="M1189,535.0313 C1189,545.0313 1207,545.0313 1207,545.0313 C1207,545.0313 1225,545.0313 1225,535.0313 " fill="none" style="stroke:#181818;stroke-width:1.5;"/><rect fill="#FFFFFF" height="346.4063" style="stroke:#181818;stroke-width:1.0;" width="10" x="84.5" y="111.3125"/><rect fill="#FFFFFF" height="89.4688" style="stroke:#181818;stroke-width:1.0;" width="10" x="515.5" y="142.4688"/><rect fill="#FFFFFF" height="186.625" style="stroke:#181818;stroke-width:1.0;" width="10" x="515.5" y="271.0938"/><rect fill="#FFFFFF" height="108.3125" style="stroke:#181818;stroke-width:1.0;" width="10" x="770.5" y="310.25"/><rect fill="#FFFFFF" height="30" style="stroke:#181818;stroke-width:1.0;" width="10" x="1026.5" y="349.4063"/><rect fill="#FFFFFF" height="48.1563" style="stroke:#181818;stroke-width:1.0;" width="10" x="1202" y="418.5625"/><polygon fill="#181818" points="503.5,138.4688,513.5,142.4688,503.5,146.4688,507.5,142.4688" style="stroke:#181818;stroke-width:1.0;"/><line style="stroke:#181818;stroke-width:1.0;" x1="94.5" x2="509.5" y1="142.4688" y2="142.4688"/><text fill="#000000" font-family="sans-serif" font-size="20" font-weight="bold" lengthAdjust="spacing" textLength="11" x="101.5" y="136.0742">1</text><text fill="#000000" font-family="sans-serif" font-size="20" lengthAdjust="spacing" textLength="335" x="116.5" y="136.0742">asks the system to register a job offer</text><polygon fill="#181818" points="105.5,227.9375,95.5,231.9375,105.5,235.9375,101.5,231.9375" style="stroke:#181818;stroke-width:1.0;"/><line style="stroke:#181818;stroke-width:1.0;stroke-dasharray:2.0,2.0;" x1="99.5" x2="519.5" y1="231.9375" y2="231.9375"/><text fill="#000000" font-family="sans-serif" font-size="20" font-weight="bold" lengthAdjust="spacing" textLength="11" x="111.5" y="200.3867">2</text><text fill="#000000" font-family="sans-serif" font-size="20" lengthAdjust="spacing" textLength="334" x="126.5" y="175.2305">requests data (function, contractType,</text><text fill="#000000" font-family="sans-serif" font-size="20" lengthAdjust="spacing" textLength="370" x="132.5" y="200.3867">mode, address, company, nrOfVacancies,</text><text fill="#000000" font-family="sans-serif" font-size="20" lengthAdjust="spacing" textLength="234" x="132.5" y="225.543">description, requirements);</text><polygon fill="#181818" points="503.5,267.0938,513.5,271.0938,503.5,275.0938,507.5,271.0938" style="stroke:#181818;stroke-width:1.0;"/><line style="stroke:#181818;stroke-width:1.0;" x1="94.5" x2="509.5" y1="271.0938" y2="271.0938"/><text fill="#000000" font-family="sans-serif" font-size="20" font-weight="bold" lengthAdjust="spacing" textLength="11" x="101.5" y="264.6992">3</text><text fill="#000000" font-family="sans-serif" font-size="20" lengthAdjust="spacing" textLength="165" x="116.5" y="264.6992">types request data</text><polygon fill="#181818" points="758.5,306.25,768.5,310.25,758.5,314.25,762.5,310.25" style="stroke:#181818;stroke-width:1.0;"/><line style="stroke:#181818;stroke-width:1.0;" x1="525.5" x2="764.5" y1="310.25" y2="310.25"/><text fill="#000000" font-family="sans-serif" font-size="20" font-weight="bold" lengthAdjust="spacing" textLength="11" x="532.5" y="303.8555">4</text><text fill="#000000" font-family="sans-serif" font-size="20" lengthAdjust="spacing" textLength="186" x="547.5" y="303.8555">registerJobOpening()</text><polygon fill="#181818" points="1014.5,345.4063,1024.5,349.4063,1014.5,353.4063,1018.5,349.4063" style="stroke:#181818;stroke-width:1.0;"/><line style="stroke:#181818;stroke-width:1.0;" x1="780.5" x2="1020.5" y1="349.4063" y2="349.4063"/><text fill="#000000" font-family="sans-serif" font-size="20" font-weight="bold" lengthAdjust="spacing" textLength="11" x="787.5" y="343.0117">5</text><text fill="#000000" font-family="sans-serif" font-size="20" lengthAdjust="spacing" textLength="212" x="802.5" y="343.0117">JobOfferBuilder().build()</text><polygon fill="#181818" points="1190,414.5625,1200,418.5625,1190,422.5625,1194,418.5625" style="stroke:#181818;stroke-width:1.0;"/><line style="stroke:#181818;stroke-width:1.0;" x1="775.5" x2="1196" y1="418.5625" y2="418.5625"/><text fill="#000000" font-family="sans-serif" font-size="20" font-weight="bold" lengthAdjust="spacing" textLength="11" x="782.5" y="412.168">6</text><text fill="#000000" font-family="sans-serif" font-size="20" lengthAdjust="spacing" textLength="160" x="797.5" y="412.168">saveJobOpening()</text><polygon fill="#181818" points="100.5,453.7188,90.5,457.7188,100.5,461.7188,96.5,457.7188" style="stroke:#181818;stroke-width:1.0;"/><line style="stroke:#181818;stroke-width:1.0;stroke-dasharray:2.0,2.0;" x1="94.5" x2="519.5" y1="457.7188" y2="457.7188"/><text fill="#000000" font-family="sans-serif" font-size="20" font-weight="bold" lengthAdjust="spacing" textLength="11" x="106.5" y="451.3242">7</text><text fill="#000000" font-family="sans-serif" font-size="20" lengthAdjust="spacing" textLength="229" x="121.5" y="451.3242">informs operation success</text><!--SRC=[XL9DQ-Cm4BthLmmv9P0kPOzfoI61Gaf3m6tsj9UnDCwgiIMjHWvaV_sExEOxK9_C-BqtxyqpRwqB6B6flTwI0KCLjdLwyIwzsty4FnyLjicxjYafAeKw-GY3USl9DnINw713SG38C5yg4KfMsu0kmQ2WZUL4yTMNgq3EkirwqG7N2tX-3f6ONC9alPjElsFEnKxqTNrOzL6yYGQ6K5jzLo9JguhYhBMrER1cmYdxWU2LmOGbCi41N53mR2NWleCN0e_7KMP8Uhl3H3chcY_XOPh3J0IzPKX_27WllXj87k9N1a3uz2Nuh7_YhnTA2VD114Hc8kY_BN5Yo9vWMBLEvrHZq3cuq3xsWSRmsq7ZZRoWCN8_pjyR2RmVWukhwXTgTDeITqX3hACDlKvUO2CrSd8UFIb35rREeYHPn0S_dPrBro1FTZxjIvWSWvxA6euwrEbO0ko9-UbecJuJybLDmz6FhfylXKkLsN5svbwcTwGBaMRSqOsdQtPsThkfk8ij-aNNz8iUhQjyR1XyeDZzby2jrjAKkZxvkSnI_GS0]--></g></svg>