<?xml version="1.0" encoding="UTF-8" standalone="no"?><svg xmlns="http://www.w3.org/2000/svg" xmlns:xlink="http://www.w3.org/1999/xlink" contentStyleType="text/css" height="420px" preserveAspectRatio="none" style="width:1579px;height:420px;background:#FFFFFF;" version="1.1" viewBox="0 0 1579 420" width="1579px" zoomAndPan="magnify"><defs/><g><rect fill="#FFFFFF" height="178.625" style="stroke:#181818;stroke-width:1.0;" width="10" x="84.5" y="111.3125"/><rect fill="#FFFFFF" height="147.4688" style="stroke:#181818;stroke-width:1.0;" width="10" x="895.5" y="142.4688"/><rect fill="#FFFFFF" height="69.1563" style="stroke:#181818;stroke-width:1.0;" width="10" x="1176.5" y="181.625"/><rect fill="#FFFFFF" height="30" style="stroke:#181818;stroke-width:1.0;" width="10" x="1478.5" y="220.7813"/><line style="stroke:#181818;stroke-width:0.5;stroke-dasharray:5.0,5.0;" x1="89" x2="89" y1="101.3125" y2="307.9375"/><line style="stroke:#181818;stroke-width:0.5;stroke-dasharray:5.0,5.0;" x1="900" x2="900" y1="101.3125" y2="307.9375"/><line style="stroke:#181818;stroke-width:0.5;stroke-dasharray:5.0,5.0;" x1="1181" x2="1181" y1="101.3125" y2="307.9375"/><line style="stroke:#181818;stroke-width:0.5;stroke-dasharray:5.0,5.0;" x1="1483.5" x2="1483.5" y1="101.3125" y2="307.9375"/><text fill="#000000" font-family="sans-serif" font-size="20" lengthAdjust="spacing" textLength="163" x="5" y="96.918">CustomerManager</text><ellipse cx="89.5" cy="24.6563" fill="#E2E2F0" rx="8" ry="8" style="stroke:#181818;stroke-width:0.5;"/><path d="M89.5,32.6563 L89.5,59.6563 M76.5,40.6563 L102.5,40.6563 M89.5,59.6563 L76.5,74.6563 M89.5,59.6563 L102.5,74.6563 " fill="none" style="stroke:#181818;stroke-width:0.5;"/><text fill="#000000" font-family="sans-serif" font-size="20" lengthAdjust="spacing" textLength="163" x="5" y="327.6992">CustomerManager</text><ellipse cx="89.5" cy="340.5938" fill="#E2E2F0" rx="8" ry="8" style="stroke:#181818;stroke-width:0.5;"/><path d="M89.5,348.5938 L89.5,375.5938 M76.5,356.5938 L102.5,356.5938 M89.5,375.5938 L76.5,390.5938 M89.5,375.5938 L102.5,390.5938 " fill="none" style="stroke:#181818;stroke-width:0.5;"/><rect fill="#E2E2F0" height="64.3125" rx="2.5" ry="2.5" style="stroke:#181818;stroke-width:0.5;" width="249" x="776" y="36"/><text fill="#000000" font-family="sans-serif" font-size="20" font-style="italic" lengthAdjust="spacing" textLength="131" x="835" y="63.7617">«presentation»</text><text fill="#000000" font-family="sans-serif" font-size="20" lengthAdjust="spacing" textLength="235" x="783" y="88.918">OrderedListOfCandidateUI</text><rect fill="#E2E2F0" height="64.3125" rx="2.5" ry="2.5" style="stroke:#181818;stroke-width:0.5;" width="249" x="776" y="306.9375"/><text fill="#000000" font-family="sans-serif" font-size="20" font-style="italic" lengthAdjust="spacing" textLength="131" x="835" y="334.6992">«presentation»</text><text fill="#000000" font-family="sans-serif" font-size="20" lengthAdjust="spacing" textLength="235" x="783" y="359.8555">OrderedListOfCandidateUI</text><rect fill="#E2E2F0" height="64.3125" rx="2.5" ry="2.5" style="stroke:#181818;stroke-width:0.5;" width="293" x="1035" y="36"/><text fill="#000000" font-family="sans-serif" font-size="20" font-style="italic" lengthAdjust="spacing" textLength="118" x="1122.5" y="63.7617">«application»</text><text fill="#000000" font-family="sans-serif" font-size="20" lengthAdjust="spacing" textLength="279" x="1042" y="88.918">OrderedListCandidateController</text><rect fill="#E2E2F0" height="64.3125" rx="2.5" ry="2.5" style="stroke:#181818;stroke-width:0.5;" width="293" x="1035" y="306.9375"/><text fill="#000000" font-family="sans-serif" font-size="20" font-style="italic" lengthAdjust="spacing" textLength="118" x="1122.5" y="334.6992">«application»</text><text fill="#000000" font-family="sans-serif" font-size="20" lengthAdjust="spacing" textLength="279" x="1042" y="359.8555">OrderedListCandidateController</text><text fill="#000000" font-family="sans-serif" font-size="20" font-style="italic" lengthAdjust="spacing" textLength="110" x="1425.5" y="71.7617">«repository»</text><text fill="#000000" font-family="sans-serif" font-size="20" lengthAdjust="spacing" textLength="184" x="1388.5" y="96.918">CandidateRepository</text><path d="M1465.5,15 C1465.5,5 1483.5,5 1483.5,5 C1483.5,5 1501.5,5 1501.5,15 L1501.5,41 C1501.5,51 1483.5,51 1483.5,51 C1483.5,51 1465.5,51 1465.5,41 L1465.5,15 " fill="#E2E2F0" style="stroke:#181818;stroke-width:1.5;"/><path d="M1465.5,15 C1465.5,25 1483.5,25 1483.5,25 C1483.5,25 1501.5,25 1501.5,15 " fill="none" style="stroke:#181818;stroke-width:1.5;"/><text fill="#000000" font-family="sans-serif" font-size="20" font-style="italic" lengthAdjust="spacing" textLength="110" x="1425.5" y="327.6992">«repository»</text><text fill="#000000" font-family="sans-serif" font-size="20" lengthAdjust="spacing" textLength="184" x="1388.5" y="352.8555">CandidateRepository</text><path d="M1465.5,367.25 C1465.5,357.25 1483.5,357.25 1483.5,357.25 C1483.5,357.25 1501.5,357.25 1501.5,367.25 L1501.5,393.25 C1501.5,403.25 1483.5,403.25 1483.5,403.25 C1483.5,403.25 1465.5,403.25 1465.5,393.25 L1465.5,367.25 " fill="#E2E2F0" style="stroke:#181818;stroke-width:1.5;"/><path d="M1465.5,367.25 C1465.5,377.25 1483.5,377.25 1483.5,377.25 C1483.5,377.25 1501.5,377.25 1501.5,367.25 " fill="none" style="stroke:#181818;stroke-width:1.5;"/><rect fill="#FFFFFF" height="178.625" style="stroke:#181818;stroke-width:1.0;" width="10" x="84.5" y="111.3125"/><rect fill="#FFFFFF" height="147.4688" style="stroke:#181818;stroke-width:1.0;" width="10" x="895.5" y="142.4688"/><rect fill="#FFFFFF" height="69.1563" style="stroke:#181818;stroke-width:1.0;" width="10" x="1176.5" y="181.625"/><rect fill="#FFFFFF" height="30" style="stroke:#181818;stroke-width:1.0;" width="10" x="1478.5" y="220.7813"/><polygon fill="#181818" points="883.5,138.4688,893.5,142.4688,883.5,146.4688,887.5,142.4688" style="stroke:#181818;stroke-width:1.0;"/><line style="stroke:#181818;stroke-width:1.0;" x1="94.5" x2="889.5" y1="142.4688" y2="142.4688"/><text fill="#000000" font-family="sans-serif" font-size="20" font-weight="bold" lengthAdjust="spacing" textLength="11" x="101.5" y="136.0742">1</text><text fill="#000000" font-family="sans-serif" font-size="20" lengthAdjust="spacing" textLength="767" x="116.5" y="136.0742">aks the system get an ordered list of candidates, using the job interview points (grades)</text><polygon fill="#181818" points="1164.5,177.625,1174.5,181.625,1164.5,185.625,1168.5,181.625" style="stroke:#181818;stroke-width:1.0;"/><line style="stroke:#181818;stroke-width:1.0;" x1="905.5" x2="1170.5" y1="181.625" y2="181.625"/><text fill="#000000" font-family="sans-serif" font-size="20" font-weight="bold" lengthAdjust="spacing" textLength="11" x="912.5" y="175.2305">2</text><text fill="#000000" font-family="sans-serif" font-size="20" lengthAdjust="spacing" textLength="137" x="927.5" y="175.2305">listCandidates()</text><polygon fill="#181818" points="1466.5,216.7813,1476.5,220.7813,1466.5,224.7813,1470.5,220.7813" style="stroke:#181818;stroke-width:1.0;"/><line style="stroke:#181818;stroke-width:1.0;" x1="1186.5" x2="1472.5" y1="220.7813" y2="220.7813"/><text fill="#000000" font-family="sans-serif" font-size="20" font-weight="bold" lengthAdjust="spacing" textLength="11" x="1193.5" y="214.3867">3</text><text fill="#000000" font-family="sans-serif" font-size="20" lengthAdjust="spacing" textLength="258" x="1208.5" y="214.3867">candidateRepository.findAll();</text><polygon fill="#181818" points="100.5,285.9375,90.5,289.9375,100.5,293.9375,96.5,289.9375" style="stroke:#181818;stroke-width:1.0;"/><line style="stroke:#181818;stroke-width:1.0;stroke-dasharray:2.0,2.0;" x1="94.5" x2="899.5" y1="289.9375" y2="289.9375"/><text fill="#000000" font-family="sans-serif" font-size="20" font-weight="bold" lengthAdjust="spacing" textLength="11" x="106.5" y="283.543">4</text><text fill="#000000" font-family="sans-serif" font-size="20" lengthAdjust="spacing" textLength="399" x="121.5" y="283.543">shows all data and informs operation success</text><!--SRC=[TP7RQW8n48RlynI3LmfjARsq8fI5Wk0YREi3ZCdicffDbanMiK_VsOXh3pHNOPZlFoHyiBx3YAqB-a063DNOk_GQV7gpdmHFZmhx57pVxYWgXJg529EYvnHQYYLwR2XE01cAKebGijfsw1DCDj5G9BEsd3PrWTvOWucsgxoyNS5YqKLYyWcJ3Nwv_9SUsK92nU3SrV2zMeiATfsp-YgYP15to0GZLb4Ns4hkSwOgOU8u6X0fPO-oE5HGHGdtoo7V7F30aFO4VEP4BJIK03s4Ip9m4Wr23VhgmtVGi_LDPZx23gnF58-MJj05kJDCcuY6U7PptAwK0ZdY9wwvqJmhZ-bvEiiRjv2oT866av41hGJKVoi_rDQR5-Uci-UHkKbLuypGzwdwFSgUGyZ1gXGhteSJ0pe7muFBknYfMuVOCeIEOluEu5vhOfPFeH-DlokNwWi0]--></g></svg>