<?xml version="1.0" encoding="us-ascii" standalone="no"?><svg xmlns="http://www.w3.org/2000/svg" xmlns:xlink="http://www.w3.org/1999/xlink" contentStyleType="text/css" height="249px" preserveAspectRatio="none" style="width:387px;height:249px;background:#FFFFFF;" version="1.1" viewBox="0 0 387 249" width="387px" zoomAndPan="magnify"><defs/><g><rect fill="#FFFFFF" height="54.582" style="stroke:#181818;stroke-width:1.0;" width="10" x="35.5" y="93.6211"/><rect fill="#FFFFFF" height="31.291" style="stroke:#181818;stroke-width:1.0;" width="10" x="344.5" y="116.9121"/><line style="stroke:#181818;stroke-width:0.5;stroke-dasharray:5.0,5.0;" x1="40" x2="40" y1="83.6211" y2="166.2031"/><line style="stroke:#181818;stroke-width:0.5;stroke-dasharray:5.0,5.0;" x1="349.5" x2="349.5" y1="83.6211" y2="166.2031"/><text fill="#000000" font-family="sans-serif" font-size="14" lengthAdjust="spacing" textLength="65" x="5" y="80.1074">Candidate</text><ellipse cx="40.5" cy="13.5" fill="#E2E2F0" rx="8" ry="8" style="stroke:#181818;stroke-width:0.5;"/><path d="M40.5,21.5 L40.5,48.5 M27.5,29.5 L53.5,29.5 M40.5,48.5 L27.5,63.5 M40.5,48.5 L53.5,63.5 " fill="none" style="stroke:#181818;stroke-width:0.5;"/><text fill="#000000" font-family="sans-serif" font-size="14" lengthAdjust="spacing" textLength="65" x="5" y="180.3105">Candidate</text><ellipse cx="40.5" cy="192.3242" fill="#E2E2F0" rx="8" ry="8" style="stroke:#181818;stroke-width:0.5;"/><path d="M40.5,200.3242 L40.5,227.3242 M27.5,208.3242 L53.5,208.3242 M40.5,227.3242 L27.5,242.3242 M40.5,227.3242 L53.5,242.3242 " fill="none" style="stroke:#181818;stroke-width:0.5;"/><rect fill="#E2E2F0" height="32.6211" rx="2.5" ry="2.5" style="stroke:#181818;stroke-width:0.5;" width="64" x="317.5" y="50"/><text fill="#000000" font-family="sans-serif" font-size="14" lengthAdjust="spacing" textLength="50" x="324.5" y="72.1074">:System</text><rect fill="#E2E2F0" height="32.6211" rx="2.5" ry="2.5" style="stroke:#181818;stroke-width:0.5;" width="64" x="317.5" y="165.2031"/><text fill="#000000" font-family="sans-serif" font-size="14" lengthAdjust="spacing" textLength="50" x="324.5" y="187.3105">:System</text><rect fill="#FFFFFF" height="54.582" style="stroke:#181818;stroke-width:1.0;" width="10" x="35.5" y="93.6211"/><rect fill="#FFFFFF" height="31.291" style="stroke:#181818;stroke-width:1.0;" width="10" x="344.5" y="116.9121"/><polygon fill="#181818" points="332.5,112.9121,342.5,116.9121,332.5,120.9121,336.5,116.9121" style="stroke:#181818;stroke-width:1.0;"/><line style="stroke:#181818;stroke-width:1.0;" x1="45.5" x2="338.5" y1="116.9121" y2="116.9121"/><text fill="#000000" font-family="sans-serif" font-size="13" font-weight="bold" lengthAdjust="spacing" textLength="7" x="52.5" y="111.6494">1</text><text fill="#000000" font-family="sans-serif" font-size="13" lengthAdjust="spacing" textLength="230" x="63.5" y="111.6494">asks the system to display applications</text><polygon fill="#181818" points="51.5,144.2031,41.5,148.2031,51.5,152.2031,47.5,148.2031" style="stroke:#181818;stroke-width:1.0;"/><line style="stroke:#181818;stroke-width:1.0;stroke-dasharray:2.0,2.0;" x1="45.5" x2="348.5" y1="148.2031" y2="148.2031"/><text fill="#000000" font-family="sans-serif" font-size="13" font-weight="bold" lengthAdjust="spacing" textLength="7" x="57.5" y="142.9404">2</text><text fill="#000000" font-family="sans-serif" font-size="13" lengthAdjust="spacing" textLength="264" x="68.5" y="142.9404">shows all data and informs operation success</text><!--SRC=[ROyn3i8m34Ltd-8hUo_GWOKZS0AJ13KYZQFO1VNsX0uD0wFVzt-MUJCfstgFZOYzISELIqY1BO8LxfpSaQVNDpWXqTYUBd3pRLUBgyFSoq-5BH5w89WW9AsPTt2jENcs94M7z2mJqH1DNJjkpD15tWhE6HqmUe9K7j9MXTJO3YbqypwgKeZ_x3zqFF81]--></g></svg>