<?xml version="1.0" encoding="UTF-8" standalone="no"?><svg xmlns="http://www.w3.org/2000/svg" xmlns:xlink="http://www.w3.org/1999/xlink" contentStyleType="text/css" height="906px" preserveAspectRatio="none" style="width:586px;height:906px;background:#FFFFFF;" version="1.1" viewBox="0 0 586 906" width="586px" zoomAndPan="magnify"><defs/><g><!--cluster Backoffice--><g id="cluster_Backoffice"><rect fill="none" height="451" rx="2.5" ry="2.5" style="stroke:#181818;stroke-width:1.0;" width="335" x="245" y="449"/><text fill="#000000" font-family="sans-serif" font-size="20" font-weight="bold" lengthAdjust="spacing" textLength="100" x="362.5" y="471.7617">Backoffice</text></g><!--cluster Applications File Bot--><g id="cluster_Applications File Bot"><rect fill="none" height="138" rx="2.5" ry="2.5" style="stroke:#181818;stroke-width:1.0;" width="296" x="264.5" y="145"/><text fill="#000000" font-family="sans-serif" font-size="20" font-weight="bold" lengthAdjust="spacing" textLength="194" x="315.5" y="167.7617">Applications File Bot</text></g><!--cluster Candidate App--><g id="cluster_Candidate App"><rect fill="none" height="112" rx="2.5" ry="2.5" style="stroke:#181818;stroke-width:1.0;" width="261" x="282" y="307"/><text fill="#000000" font-family="sans-serif" font-size="20" font-weight="bold" lengthAdjust="spacing" textLength="138" x="343.5" y="329.7617">Candidate App</text></g><!--cluster Customer App--><g id="cluster_Customer App"><rect fill="none" height="114" rx="2.5" ry="2.5" style="stroke:#181818;stroke-width:1.0;" width="274" x="275.5" y="7"/><text fill="#000000" font-family="sans-serif" font-size="20" font-weight="bold" lengthAdjust="spacing" textLength="135" x="345" y="29.7617">Customer App</text></g><g id="elem_UC1"><ellipse cx="412.3594" cy="532.0553" fill="#F1F1F1" rx="134.8594" ry="39.0553" style="stroke:#181818;stroke-width:0.5;"/><text fill="#000000" font-family="sans-serif" font-size="20" lengthAdjust="spacing" textLength="172" x="323.3594" y="527.108">Manage Customers</text><text fill="#000000" font-family="sans-serif" font-size="20" lengthAdjust="spacing" textLength="152" x="336.3594" y="552.2643">and its Managers</text></g><g id="elem_UC2"><ellipse cx="412.5952" cy="845.1169" fill="#F1F1F1" rx="151.5952" ry="39.1169" style="stroke:#181818;stroke-width:0.5;"/><text fill="#000000" font-family="sans-serif" font-size="20" lengthAdjust="spacing" textLength="189" x="312.0952" y="840.1696">Deploy and Configure</text><text fill="#000000" font-family="sans-serif" font-size="20" lengthAdjust="spacing" textLength="52" x="383.5952" y="865.3259">Plugin</text></g><g id="elem_UC3"><ellipse cx="412.4903" cy="631.8981" fill="#F1F1F1" rx="117.4903" ry="25.8981" style="stroke:#181818;stroke-width:0.5;"/><text fill="#000000" font-family="sans-serif" font-size="20" lengthAdjust="spacing" textLength="175" x="321.9903" y="639.5289">Register Application</text></g><g id="elem_UC4"><ellipse cx="412.5219" cy="731.7684" fill="#F1F1F1" rx="89.0219" ry="38.7684" style="stroke:#181818;stroke-width:0.5;"/><text fill="#000000" font-family="sans-serif" font-size="20" lengthAdjust="spacing" textLength="109" x="355.0219" y="726.8211">Manage Job</text><text fill="#000000" font-family="sans-serif" font-size="20" lengthAdjust="spacing" textLength="83" x="371.0219" y="751.9774">Openings</text></g><g id="elem_UC5"><ellipse cx="412.4489" cy="228.043" fill="#F1F1F1" rx="131.9489" ry="39.043" style="stroke:#181818;stroke-width:0.5;"/><text fill="#000000" font-family="sans-serif" font-size="20" lengthAdjust="spacing" textLength="168" x="325.4489" y="223.0957">Import Applications</text><text fill="#000000" font-family="sans-serif" font-size="20" lengthAdjust="spacing" textLength="41" x="391.9489" y="248.252">Files</text></g><g id="elem_UC6"><ellipse cx="412.7443" cy="376.8489" fill="#F1F1F1" rx="114.7443" ry="25.3489" style="stroke:#181818;stroke-width:0.5;"/><text fill="#000000" font-family="sans-serif" font-size="20" lengthAdjust="spacing" textLength="168" x="325.7443" y="384.4797">Follow Applications</text></g><g id="elem_UC7"><ellipse cx="412.5796" cy="78.1159" fill="#F1F1F1" rx="121.0796" ry="26.6159" style="stroke:#181818;stroke-width:0.5;"/><text fill="#000000" font-family="sans-serif" font-size="20" lengthAdjust="spacing" textLength="184" x="317.5796" y="85.7468">Follow Job Openings</text></g><!--entity Admin--><g id="elem_Admin"><ellipse cx="103.5" cy="463" fill="#F1F1F1" rx="8" ry="8" style="stroke:#181818;stroke-width:0.5;"/><path d="M103.5,471 L103.5,498 M90.5,479 L116.5,479 M103.5,498 L90.5,513 M103.5,498 L116.5,513 " fill="none" style="stroke:#181818;stroke-width:0.5;"/><text fill="#000000" font-family="sans-serif" font-size="20" lengthAdjust="spacing" textLength="54" x="73.5" y="535.2617">Admin</text></g><!--entity Operator--><g id="elem_Operator"><ellipse cx="103.5" cy="583" fill="#F1F1F1" rx="8" ry="8" style="stroke:#181818;stroke-width:0.5;"/><path d="M103.5,591 L103.5,618 M90.5,599 L116.5,599 M103.5,618 L90.5,633 M103.5,618 L116.5,633 " fill="none" style="stroke:#181818;stroke-width:0.5;"/><text fill="#000000" font-family="sans-serif" font-size="20" lengthAdjust="spacing" textLength="80" x="63.5" y="655.2617">Operator</text></g><!--entity CustomerManager--><g id="elem_CustomerManager"><ellipse cx="103.5" cy="703" fill="#F1F1F1" rx="8" ry="8" style="stroke:#181818;stroke-width:0.5;"/><path d="M103.5,711 L103.5,738 M90.5,719 L116.5,719 M103.5,738 L90.5,753 M103.5,738 L116.5,753 " fill="none" style="stroke:#181818;stroke-width:0.5;"/><text fill="#000000" font-family="sans-serif" font-size="20" lengthAdjust="spacing" textLength="169" x="19" y="775.2617">Customer Manager</text></g><!--entity LanguageEngineer--><g id="elem_LanguageEngineer"><ellipse cx="103.5" cy="823" fill="#F1F1F1" rx="8" ry="8" style="stroke:#181818;stroke-width:0.5;"/><path d="M103.5,831 L103.5,858 M90.5,839 L116.5,839 M103.5,858 L90.5,873 M103.5,858 L116.5,873 " fill="none" style="stroke:#181818;stroke-width:0.5;"/><text fill="#000000" font-family="sans-serif" font-size="20" lengthAdjust="spacing" textLength="169" x="19" y="895.2617">Language Engineer</text></g><!--entity Candidate--><g id="elem_Candidate"><ellipse cx="103.5" cy="343" fill="#F1F1F1" rx="8" ry="8" style="stroke:#181818;stroke-width:0.5;"/><path d="M103.5,351 L103.5,378 M90.5,359 L116.5,359 M103.5,378 L90.5,393 M103.5,378 L116.5,393 " fill="none" style="stroke:#181818;stroke-width:0.5;"/><text fill="#000000" font-family="sans-serif" font-size="20" lengthAdjust="spacing" textLength="89" x="59" y="415.2617">Candidate</text></g><!--entity ApplicationsEmailBot--><g id="elem_ApplicationsEmailBot"><ellipse cx="103.5" cy="194" fill="#F1F1F1" rx="8" ry="8" style="stroke:#181818;stroke-width:0.5;"/><path d="M103.5,202 L103.5,229 M90.5,210 L116.5,210 M103.5,229 L90.5,244 M103.5,229 L116.5,244 " fill="none" style="stroke:#181818;stroke-width:0.5;"/><text fill="#000000" font-family="sans-serif" font-size="20" lengthAdjust="spacing" textLength="195" x="6" y="266.2617">Applications Email Bot</text></g><!--entity Customer--><g id="elem_Customer"><ellipse cx="103.5" cy="44" fill="#F1F1F1" rx="8" ry="8" style="stroke:#181818;stroke-width:0.5;"/><path d="M103.5,52 L103.5,79 M90.5,60 L116.5,60 M103.5,79 L90.5,94 M103.5,79 L116.5,94 " fill="none" style="stroke:#181818;stroke-width:0.5;"/><text fill="#000000" font-family="sans-serif" font-size="20" lengthAdjust="spacing" textLength="85" x="61" y="116.2617">Customer</text></g><!--link Admin to UC1--><g id="link_Admin_UC1"><path d="M133.66,500.32 C168.91,504.34 230.51,511.37 286.77,517.78 " fill="none" id="Admin-UC1" style="stroke:#181818;stroke-width:1.0;"/></g><!--link LanguageEngineer to UC2--><g id="link_LanguageEngineer_UC2"><path d="M188.39,853.72 C211.38,852.82 237.01,851.82 262.48,850.82 " fill="none" id="LanguageEngineer-UC2" style="stroke:#181818;stroke-width:1.0;"/></g><!--link Operator to UC3--><g id="link_Operator_UC3"><path d="M143.69,618.91 C182.41,620.81 243.5,623.79 297.57,626.43 " fill="none" id="Operator-UC3" style="stroke:#181818;stroke-width:1.0;"/></g><!--link CustomerManager to UC4--><g id="link_CustomerManager_UC4"><path d="M188.39,735.63 C230.29,734.95 280.96,734.13 323.42,733.43 " fill="none" id="CustomerManager-UC4" style="stroke:#181818;stroke-width:1.0;"/></g><!--link ApplicationsEmailBot to UC5--><g id="link_ApplicationsEmailBot_UC5"><path d="M201.22,228 C226.35,228 253.85,228 280.43,228 " fill="none" id="ApplicationsEmailBot-UC5" style="stroke:#181818;stroke-width:1.0;"/></g><!--link Candidate to UC6--><g id="link_Candidate_UC6"><path d="M148.16,377 C187.06,377 245.73,377 297.82,377 " fill="none" id="Candidate-UC6" style="stroke:#181818;stroke-width:1.0;"/></g><!--link Customer to UC7--><g id="link_Customer_UC7"><path d="M146.22,78 C183.52,78 240.05,78 291.35,78 " fill="none" id="Customer-UC7" style="stroke:#181818;stroke-width:1.0;"/></g><!--SRC=[TL9DJ-D03BtFhx1wHreABUUbK0a4sXLeRrnCugIZJiRHp4I8HVlVrvsFDedAN1BPp-_Pp_PxRNjqs1ckzbH3JGqE9cpPXbVzbs3vG_a2WOujLpl77K5m0uqoFLPxREarV1e2HrL0svenmE-mvWzjMsZGU58Agy0E5Z_hJbjO07g8lpd-goU7ybDWcy47aNNmZ5PqN2memHmhs2VH7YG0zxRLbZAuH4imepTeQrrZe6D3VMzqXK6pzN3VeJPmoo4rE4h5Z2GAJMv56Me210Qdsrs0MX-y4BnIsI6ubIytZQu8lfI2mLE5dc2HXZWI-JSBqXheuClCFZRnPtEfG5uoxk8Y1aOyTzGR_eor6xQDRWT7y6P_cq7cpWpBo53Ut9b4kXoJlb2hVP3Ko8BCTNNaAZjBzLTdXdlaTnbBS5OEeOnpVMfcjj14TAtKlvDzq_rijPnRNC_4ouUkPnSc-nBT0xY8hfA7PnQQH5TJqUEL74fcObisXZycN5ba7KLEjP5vFMCkX_qjiPWsj-n6ZTrAl3V2-ny0]--></g></svg>