<?xml version="1.0" encoding="UTF-8" standalone="no"?><svg xmlns="http://www.w3.org/2000/svg" xmlns:xlink="http://www.w3.org/1999/xlink" contentStyleType="text/css" height="434px" preserveAspectRatio="none" style="width:1023px;height:434px;background:#FFFFFF;" version="1.1" viewBox="0 0 1023 434" width="1023px" zoomAndPan="magnify"><defs/><g><rect fill="#FFFFFF" height="226.9375" style="stroke:#181818;stroke-width:1.0;" width="10" x="30" y="100.1563"/><rect fill="#FFFFFF" height="39.1563" style="stroke:#181818;stroke-width:1.0;" width="10" x="969" y="131.3125"/><rect fill="#FFFFFF" height="39.1563" style="stroke:#181818;stroke-width:1.0;" width="10" x="969" y="209.625"/><rect fill="#FFFFFF" height="39.1563" style="stroke:#181818;stroke-width:1.0;" width="10" x="969" y="287.9375"/><line style="stroke:#181818;stroke-width:0.5;stroke-dasharray:5.0,5.0;" x1="35" x2="35" y1="90.1563" y2="345.0938"/><line style="stroke:#181818;stroke-width:0.5;stroke-dasharray:5.0,5.0;" x1="974" x2="974" y1="90.1563" y2="345.0938"/><text fill="#000000" font-family="sans-serif" font-size="20" lengthAdjust="spacing" textLength="54" x="5" y="85.7617">Admin</text><ellipse cx="35" cy="13.5" fill="#E2E2F0" rx="8" ry="8" style="stroke:#181818;stroke-width:0.5;"/><path d="M35,21.5 L35,48.5 M22,29.5 L48,29.5 M35,48.5 L22,63.5 M35,48.5 L48,63.5 " fill="none" style="stroke:#181818;stroke-width:0.5;"/><text fill="#000000" font-family="sans-serif" font-size="20" lengthAdjust="spacing" textLength="54" x="5" y="364.8555">Admin</text><ellipse cx="35" cy="377.75" fill="#E2E2F0" rx="8" ry="8" style="stroke:#181818;stroke-width:0.5;"/><path d="M35,385.75 L35,412.75 M22,393.75 L48,393.75 M35,412.75 L22,427.75 M35,412.75 L48,427.75 " fill="none" style="stroke:#181818;stroke-width:0.5;"/><rect fill="#E2E2F0" height="39.1563" rx="2.5" ry="2.5" style="stroke:#181818;stroke-width:0.5;" width="86" x="931" y="50"/><text fill="#000000" font-family="sans-serif" font-size="20" lengthAdjust="spacing" textLength="72" x="938" y="77.7617">:System</text><rect fill="#E2E2F0" height="39.1563" rx="2.5" ry="2.5" style="stroke:#181818;stroke-width:0.5;" width="86" x="931" y="344.0938"/><text fill="#000000" font-family="sans-serif" font-size="20" lengthAdjust="spacing" textLength="72" x="938" y="371.8555">:System</text><rect fill="#FFFFFF" height="226.9375" style="stroke:#181818;stroke-width:1.0;" width="10" x="30" y="100.1563"/><rect fill="#FFFFFF" height="39.1563" style="stroke:#181818;stroke-width:1.0;" width="10" x="969" y="131.3125"/><rect fill="#FFFFFF" height="39.1563" style="stroke:#181818;stroke-width:1.0;" width="10" x="969" y="209.625"/><rect fill="#FFFFFF" height="39.1563" style="stroke:#181818;stroke-width:1.0;" width="10" x="969" y="287.9375"/><polygon fill="#181818" points="957,127.3125,967,131.3125,957,135.3125,961,131.3125" style="stroke:#181818;stroke-width:1.0;"/><line style="stroke:#181818;stroke-width:1.0;" x1="40" x2="963" y1="131.3125" y2="131.3125"/><text fill="#000000" font-family="sans-serif" font-size="20" font-weight="bold" lengthAdjust="spacing" textLength="11" x="47" y="124.918">1</text><text fill="#000000" font-family="sans-serif" font-size="20" lengthAdjust="spacing" textLength="406" x="62" y="124.918">login as an Administrator in the Backoffice app</text><polygon fill="#181818" points="51,166.4688,41,170.4688,51,174.4688,47,170.4688" style="stroke:#181818;stroke-width:1.0;"/><line style="stroke:#181818;stroke-width:1.0;stroke-dasharray:2.0,2.0;" x1="45" x2="973" y1="170.4688" y2="170.4688"/><text fill="#000000" font-family="sans-serif" font-size="20" font-weight="bold" lengthAdjust="spacing" textLength="11" x="57" y="164.0742">2</text><text fill="#000000" font-family="sans-serif" font-size="20" lengthAdjust="spacing" textLength="329" x="72" y="164.0742">shows Administrator Backoffice menu</text><polygon fill="#181818" points="957,205.625,967,209.625,957,213.625,961,209.625" style="stroke:#181818;stroke-width:1.0;"/><line style="stroke:#181818;stroke-width:1.0;" x1="40" x2="963" y1="209.625" y2="209.625"/><text fill="#000000" font-family="sans-serif" font-size="20" font-weight="bold" lengthAdjust="spacing" textLength="11" x="47" y="203.2305">3</text><text fill="#000000" font-family="sans-serif" font-size="20" lengthAdjust="spacing" textLength="281" x="62" y="203.2305">selects "list backoffice all users"</text><polygon fill="#181818" points="51,244.7813,41,248.7813,51,252.7813,47,248.7813" style="stroke:#181818;stroke-width:1.0;"/><line style="stroke:#181818;stroke-width:1.0;stroke-dasharray:2.0,2.0;" x1="45" x2="973" y1="248.7813" y2="248.7813"/><text fill="#000000" font-family="sans-serif" font-size="20" font-weight="bold" lengthAdjust="spacing" textLength="11" x="57" y="242.3867">4</text><text fill="#000000" font-family="sans-serif" font-size="20" lengthAdjust="spacing" textLength="826" x="72" y="242.3867">shows a menu with 3 options(select all, select active or select deactive usersof the backoffice)</text><polygon fill="#181818" points="957,283.9375,967,287.9375,957,291.9375,961,287.9375" style="stroke:#181818;stroke-width:1.0;"/><line style="stroke:#181818;stroke-width:1.0;" x1="40" x2="963" y1="287.9375" y2="287.9375"/><text fill="#000000" font-family="sans-serif" font-size="20" font-weight="bold" lengthAdjust="spacing" textLength="11" x="47" y="281.543">5</text><text fill="#000000" font-family="sans-serif" font-size="20" lengthAdjust="spacing" textLength="274" x="62" y="281.543">selects the wished option to list</text><polygon fill="#181818" points="46,323.0938,36,327.0938,46,331.0938,42,327.0938" style="stroke:#181818;stroke-width:1.0;"/><line style="stroke:#181818;stroke-width:1.0;stroke-dasharray:2.0,2.0;" x1="40" x2="973" y1="327.0938" y2="327.0938"/><text fill="#000000" font-family="sans-serif" font-size="20" font-weight="bold" lengthAdjust="spacing" textLength="11" x="52" y="320.6992">6</text><text fill="#000000" font-family="sans-serif" font-size="20" lengthAdjust="spacing" textLength="890" x="67" y="320.6992">shows the list of backoffice users(activate,deactive or all) with the username,first name and last name</text><!--SRC=[fPBFJiCm3CRlUGghfqtg90It7f3Wm0li2RpMfT7ofqfSAdXwuhHRsmauZ9lZs3z_d-Lurgx7WDRu-amDDDJYOFZDEpxgBuB71wLmOEy6UwAGuffzW9V6QgSZ1vGNHYXofiZ_-WEPjYLARJiEpr1Kny_8P0kemFXtxGI3xWQTqjmHl69zzcshQmBi-sN85QBKmZia-fPIGUpy66-oAwWbDwY6VkB-AJoIePgJVPCguBHIQGmCaK8ixXQBMHMCcZju0j-pzYxkfed2B-4Iom22r3edPYCqAV1jNk4YRlyVfu8QTUpIgKoIW3s8-xjz2Z6lBmbTRJ1htrsWvTMJt9in-salqYk53YsLhGw98c6wemOCpgzVxAwosrlz1W00]--></g></svg>