<?xml version="1.0" encoding="UTF-8" standalone="no"?><svg xmlns="http://www.w3.org/2000/svg" xmlns:xlink="http://www.w3.org/1999/xlink" contentStyleType="text/css" height="899px" preserveAspectRatio="none" style="width:1711px;height:899px;background:#FFFFFF;" version="1.1" viewBox="0 0 1711 899" width="1711px" zoomAndPan="magnify"><defs/><g><rect fill="#FFFFFF" height="657.6563" style="stroke:#181818;stroke-width:1.0;" width="10" x="61" y="111.3125"/><rect fill="#FFFFFF" height="117.4688" style="stroke:#181818;stroke-width:1.0;" width="10" x="281" y="142.4688"/><rect fill="#FFFFFF" height="39.1563" style="stroke:#181818;stroke-width:1.0;" width="10" x="501" y="181.625"/><rect fill="#FFFFFF" height="469.875" style="stroke:#181818;stroke-width:1.0;" width="10" x="501" y="299.0938"/><rect fill="#FFFFFF" height="117.4688" style="stroke:#181818;stroke-width:1.0;" width="10" x="761" y="338.25"/><rect fill="#FFFFFF" height="78.3125" style="stroke:#181818;stroke-width:1.0;" width="10" x="761" y="651.5"/><rect fill="#FFFFFF" height="39.1563" style="stroke:#181818;stroke-width:1.0;" width="10" x="975" y="377.4063"/><rect fill="#FFFFFF" height="234.9375" style="stroke:#181818;stroke-width:1.0;" width="10" x="1164" y="494.875"/><rect fill="#FFFFFF" height="117.4688" style="stroke:#181818;stroke-width:1.0;" width="10" x="1424" y="534.0313"/><rect fill="#FFFFFF" height="39.1563" style="stroke:#181818;stroke-width:1.0;" width="10" x="1631" y="573.1875"/><line style="stroke:#181818;stroke-width:0.5;stroke-dasharray:5.0,5.0;" x1="66" x2="66" y1="101.3125" y2="786.9688"/><line style="stroke:#181818;stroke-width:0.5;stroke-dasharray:5.0,5.0;" x1="285.5" x2="285.5" y1="101.3125" y2="786.9688"/><line style="stroke:#181818;stroke-width:0.5;stroke-dasharray:5.0,5.0;" x1="506" x2="506" y1="101.3125" y2="786.9688"/><line style="stroke:#181818;stroke-width:0.5;stroke-dasharray:5.0,5.0;" x1="765.5" x2="765.5" y1="101.3125" y2="786.9688"/><line style="stroke:#181818;stroke-width:0.5;stroke-dasharray:5.0,5.0;" x1="979.5" x2="979.5" y1="101.3125" y2="786.9688"/><line style="stroke:#181818;stroke-width:0.5;stroke-dasharray:5.0,5.0;" x1="1168.5" x2="1168.5" y1="101.3125" y2="786.9688"/><line style="stroke:#181818;stroke-width:0.5;stroke-dasharray:5.0,5.0;" x1="1429" x2="1429" y1="101.3125" y2="786.9688"/><line style="stroke:#181818;stroke-width:0.5;stroke-dasharray:5.0,5.0;" x1="1636" x2="1636" y1="101.3125" y2="786.9688"/><text fill="#000000" font-family="sans-serif" font-size="20" lengthAdjust="spacing" textLength="116" x="5" y="96.918">Administrator</text><ellipse cx="66" cy="24.6563" fill="#E2E2F0" rx="8" ry="8" style="stroke:#181818;stroke-width:0.5;"/><path d="M66,32.6563 L66,59.6563 M53,40.6563 L79,40.6563 M66,59.6563 L53,74.6563 M66,59.6563 L79,74.6563 " fill="none" style="stroke:#181818;stroke-width:0.5;"/><text fill="#000000" font-family="sans-serif" font-size="20" lengthAdjust="spacing" textLength="116" x="5" y="806.7305">Administrator</text><ellipse cx="66" cy="819.625" fill="#E2E2F0" rx="8" ry="8" style="stroke:#181818;stroke-width:0.5;"/><path d="M66,827.625 L66,854.625 M53,835.625 L79,835.625 M66,854.625 L53,869.625 M66,854.625 L79,869.625 " fill="none" style="stroke:#181818;stroke-width:0.5;"/><rect fill="#E2E2F0" height="64.3125" rx="2.5" ry="2.5" style="stroke:#181818;stroke-width:0.5;" width="145" x="213.5" y="36"/><text fill="#000000" font-family="sans-serif" font-size="20" font-style="italic" lengthAdjust="spacing" textLength="131" x="220.5" y="63.7617">«presentation»</text><text fill="#000000" font-family="sans-serif" font-size="20" lengthAdjust="spacing" textLength="117" x="227.5" y="88.918">Backoffice UI</text><rect fill="#E2E2F0" height="64.3125" rx="2.5" ry="2.5" style="stroke:#181818;stroke-width:0.5;" width="145" x="213.5" y="785.9688"/><text fill="#000000" font-family="sans-serif" font-size="20" font-style="italic" lengthAdjust="spacing" textLength="131" x="220.5" y="813.7305">«presentation»</text><text fill="#000000" font-family="sans-serif" font-size="20" lengthAdjust="spacing" textLength="117" x="227.5" y="838.8867">Backoffice UI</text><rect fill="#E2E2F0" height="64.3125" rx="2.5" ry="2.5" style="stroke:#181818;stroke-width:0.5;" width="132" x="440" y="36"/><text fill="#000000" font-family="sans-serif" font-size="20" font-style="italic" lengthAdjust="spacing" textLength="118" x="447" y="63.7617">«application»</text><text fill="#000000" font-family="sans-serif" font-size="20" lengthAdjust="spacing" textLength="108" x="452" y="88.918">Admin Menu</text><rect fill="#E2E2F0" height="64.3125" rx="2.5" ry="2.5" style="stroke:#181818;stroke-width:0.5;" width="132" x="440" y="785.9688"/><text fill="#000000" font-family="sans-serif" font-size="20" font-style="italic" lengthAdjust="spacing" textLength="118" x="447" y="813.7305">«application»</text><text fill="#000000" font-family="sans-serif" font-size="20" lengthAdjust="spacing" textLength="108" x="452" y="838.8867">Admin Menu</text><rect fill="#E2E2F0" height="64.3125" rx="2.5" ry="2.5" style="stroke:#181818;stroke-width:0.5;" width="145" x="693.5" y="36"/><text fill="#000000" font-family="sans-serif" font-size="20" font-style="italic" lengthAdjust="spacing" textLength="131" x="700.5" y="63.7617">«presentation»</text><text fill="#000000" font-family="sans-serif" font-size="20" lengthAdjust="spacing" textLength="107" x="712.5" y="88.918">Add User UI</text><rect fill="#E2E2F0" height="64.3125" rx="2.5" ry="2.5" style="stroke:#181818;stroke-width:0.5;" width="145" x="693.5" y="785.9688"/><text fill="#000000" font-family="sans-serif" font-size="20" font-style="italic" lengthAdjust="spacing" textLength="131" x="700.5" y="813.7305">«presentation»</text><text fill="#000000" font-family="sans-serif" font-size="20" lengthAdjust="spacing" textLength="107" x="712.5" y="838.8867">Add User UI</text><rect fill="#E2E2F0" height="64.3125" rx="2.5" ry="2.5" style="stroke:#181818;stroke-width:0.5;" width="171" x="894.5" y="36"/><text fill="#000000" font-family="sans-serif" font-size="20" font-style="italic" lengthAdjust="spacing" textLength="131" x="914.5" y="63.7617">«presentation»</text><text fill="#000000" font-family="sans-serif" font-size="20" lengthAdjust="spacing" textLength="157" x="901.5" y="88.918">User Data Widget</text><rect fill="#E2E2F0" height="64.3125" rx="2.5" ry="2.5" style="stroke:#181818;stroke-width:0.5;" width="171" x="894.5" y="785.9688"/><text fill="#000000" font-family="sans-serif" font-size="20" font-style="italic" lengthAdjust="spacing" textLength="131" x="914.5" y="813.7305">«presentation»</text><text fill="#000000" font-family="sans-serif" font-size="20" lengthAdjust="spacing" textLength="157" x="901.5" y="838.8867">User Data Widget</text><rect fill="#E2E2F0" height="64.3125" rx="2.5" ry="2.5" style="stroke:#181818;stroke-width:0.5;" width="187" x="1075.5" y="36"/><text fill="#000000" font-family="sans-serif" font-size="20" font-style="italic" lengthAdjust="spacing" textLength="118" x="1110" y="63.7617">«application»</text><text fill="#000000" font-family="sans-serif" font-size="20" lengthAdjust="spacing" textLength="173" x="1082.5" y="88.918">Add User Controller</text><rect fill="#E2E2F0" height="64.3125" rx="2.5" ry="2.5" style="stroke:#181818;stroke-width:0.5;" width="187" x="1075.5" y="785.9688"/><text fill="#000000" font-family="sans-serif" font-size="20" font-style="italic" lengthAdjust="spacing" textLength="118" x="1110" y="813.7305">«application»</text><text fill="#000000" font-family="sans-serif" font-size="20" lengthAdjust="spacing" textLength="173" x="1082.5" y="838.8867">Add User Controller</text><rect fill="#E2E2F0" height="64.3125" rx="2.5" ry="2.5" style="stroke:#181818;stroke-width:0.5;" width="246" x="1306" y="36"/><text fill="#000000" font-family="sans-serif" font-size="20" font-style="italic" lengthAdjust="spacing" textLength="86" x="1386" y="63.7617">«service»</text><text fill="#000000" font-family="sans-serif" font-size="20" lengthAdjust="spacing" textLength="232" x="1313" y="88.918">User Management Service</text><rect fill="#E2E2F0" height="64.3125" rx="2.5" ry="2.5" style="stroke:#181818;stroke-width:0.5;" width="246" x="1306" y="785.9688"/><text fill="#000000" font-family="sans-serif" font-size="20" font-style="italic" lengthAdjust="spacing" textLength="86" x="1386" y="813.7305">«service»</text><text fill="#000000" font-family="sans-serif" font-size="20" lengthAdjust="spacing" textLength="232" x="1313" y="838.8867">User Management Service</text><text fill="#000000" font-family="sans-serif" font-size="20" font-style="italic" lengthAdjust="spacing" textLength="110" x="1578" y="71.7617">«repository»</text><text fill="#000000" font-family="sans-serif" font-size="20" lengthAdjust="spacing" textLength="142" x="1562" y="96.918">User Repository</text><path d="M1618,15 C1618,5 1636,5 1636,5 C1636,5 1654,5 1654,15 L1654,41 C1654,51 1636,51 1636,51 C1636,51 1618,51 1618,41 L1618,15 " fill="#E2E2F0" style="stroke:#181818;stroke-width:1.5;"/><path d="M1618,15 C1618,25 1636,25 1636,25 C1636,25 1654,25 1654,15 " fill="none" style="stroke:#181818;stroke-width:1.5;"/><text fill="#000000" font-family="sans-serif" font-size="20" font-style="italic" lengthAdjust="spacing" textLength="110" x="1578" y="806.7305">«repository»</text><text fill="#000000" font-family="sans-serif" font-size="20" lengthAdjust="spacing" textLength="142" x="1562" y="831.8867">User Repository</text><path d="M1618,846.2813 C1618,836.2813 1636,836.2813 1636,836.2813 C1636,836.2813 1654,836.2813 1654,846.2813 L1654,872.2813 C1654,882.2813 1636,882.2813 1636,882.2813 C1636,882.2813 1618,882.2813 1618,872.2813 L1618,846.2813 " fill="#E2E2F0" style="stroke:#181818;stroke-width:1.5;"/><path d="M1618,846.2813 C1618,856.2813 1636,856.2813 1636,856.2813 C1636,856.2813 1654,856.2813 1654,846.2813 " fill="none" style="stroke:#181818;stroke-width:1.5;"/><rect fill="#FFFFFF" height="657.6563" style="stroke:#181818;stroke-width:1.0;" width="10" x="61" y="111.3125"/><rect fill="#FFFFFF" height="117.4688" style="stroke:#181818;stroke-width:1.0;" width="10" x="281" y="142.4688"/><rect fill="#FFFFFF" height="39.1563" style="stroke:#181818;stroke-width:1.0;" width="10" x="501" y="181.625"/><rect fill="#FFFFFF" height="469.875" style="stroke:#181818;stroke-width:1.0;" width="10" x="501" y="299.0938"/><rect fill="#FFFFFF" height="117.4688" style="stroke:#181818;stroke-width:1.0;" width="10" x="761" y="338.25"/><rect fill="#FFFFFF" height="78.3125" style="stroke:#181818;stroke-width:1.0;" width="10" x="761" y="651.5"/><rect fill="#FFFFFF" height="39.1563" style="stroke:#181818;stroke-width:1.0;" width="10" x="975" y="377.4063"/><rect fill="#FFFFFF" height="234.9375" style="stroke:#181818;stroke-width:1.0;" width="10" x="1164" y="494.875"/><rect fill="#FFFFFF" height="117.4688" style="stroke:#181818;stroke-width:1.0;" width="10" x="1424" y="534.0313"/><rect fill="#FFFFFF" height="39.1563" style="stroke:#181818;stroke-width:1.0;" width="10" x="1631" y="573.1875"/><polygon fill="#181818" points="269,138.4688,279,142.4688,269,146.4688,273,142.4688" style="stroke:#181818;stroke-width:1.0;"/><line style="stroke:#181818;stroke-width:1.0;" x1="71" x2="275" y1="142.4688" y2="142.4688"/><text fill="#000000" font-family="sans-serif" font-size="20" lengthAdjust="spacing" textLength="185" x="78" y="136.0742">Access backoffice UI</text><polygon fill="#181818" points="489,177.625,499,181.625,489,185.625,493,181.625" style="stroke:#181818;stroke-width:1.0;"/><line style="stroke:#181818;stroke-width:1.0;" x1="291" x2="495" y1="181.625" y2="181.625"/><text fill="#000000" font-family="sans-serif" font-size="20" lengthAdjust="spacing" textLength="163" x="298" y="175.2305">Show Admin Menu</text><polygon fill="#181818" points="302,216.7813,292,220.7813,302,224.7813,298,220.7813" style="stroke:#181818;stroke-width:1.0;"/><line style="stroke:#181818;stroke-width:1.0;" x1="296" x2="505" y1="220.7813" y2="220.7813"/><text fill="#000000" font-family="sans-serif" font-size="20" lengthAdjust="spacing" textLength="186" x="308" y="214.3867">Display menu options</text><polygon fill="#181818" points="82,255.9375,72,259.9375,82,263.9375,78,259.9375" style="stroke:#181818;stroke-width:1.0;"/><line style="stroke:#181818;stroke-width:1.0;" x1="76" x2="285" y1="259.9375" y2="259.9375"/><text fill="#000000" font-family="sans-serif" font-size="20" lengthAdjust="spacing" textLength="186" x="88" y="253.543">Display menu options</text><polygon fill="#181818" points="489,295.0938,499,299.0938,489,303.0938,493,299.0938" style="stroke:#181818;stroke-width:1.0;"/><line style="stroke:#181818;stroke-width:1.0;" x1="71" x2="495" y1="299.0938" y2="299.0938"/><text fill="#000000" font-family="sans-serif" font-size="20" lengthAdjust="spacing" textLength="202" x="78" y="292.6992">Select Add User option</text><polygon fill="#181818" points="749,334.25,759,338.25,749,342.25,753,338.25" style="stroke:#181818;stroke-width:1.0;"/><line style="stroke:#181818;stroke-width:1.0;" x1="511" x2="755" y1="338.25" y2="338.25"/><text fill="#000000" font-family="sans-serif" font-size="20" lengthAdjust="spacing" textLength="172" x="518" y="331.8555">Shows Add User UI</text><polygon fill="#181818" points="963,373.4063,973,377.4063,963,381.4063,967,377.4063" style="stroke:#181818;stroke-width:1.0;"/><line style="stroke:#181818;stroke-width:1.0;" x1="771" x2="969" y1="377.4063" y2="377.4063"/><text fill="#000000" font-family="sans-serif" font-size="20" lengthAdjust="spacing" textLength="180" x="778" y="371.0117">Request signup data</text><polygon fill="#181818" points="782,412.5625,772,416.5625,782,420.5625,778,416.5625" style="stroke:#181818;stroke-width:1.0;"/><line style="stroke:#181818;stroke-width:1.0;" x1="776" x2="979" y1="416.5625" y2="416.5625"/><text fill="#000000" font-family="sans-serif" font-size="20" lengthAdjust="spacing" textLength="180" x="788" y="410.168">Request signup data</text><polygon fill="#181818" points="522,451.7188,512,455.7188,522,459.7188,518,455.7188" style="stroke:#181818;stroke-width:1.0;"/><line style="stroke:#181818;stroke-width:1.0;stroke-dasharray:2.0,2.0;" x1="516" x2="765" y1="455.7188" y2="455.7188"/><text fill="#000000" font-family="sans-serif" font-size="20" lengthAdjust="spacing" textLength="221" x="528" y="449.3242">User signup data entered</text><polygon fill="#181818" points="1152,490.875,1162,494.875,1152,498.875,1156,494.875" style="stroke:#181818;stroke-width:1.0;"/><line style="stroke:#181818;stroke-width:1.0;" x1="511" x2="1158" y1="494.875" y2="494.875"/><text fill="#000000" font-family="sans-serif" font-size="20" lengthAdjust="spacing" textLength="192" x="518" y="488.4805">Call Add User method</text><polygon fill="#181818" points="1412,530.0313,1422,534.0313,1412,538.0313,1416,534.0313" style="stroke:#181818;stroke-width:1.0;"/><line style="stroke:#181818;stroke-width:1.0;" x1="1174" x2="1418" y1="534.0313" y2="534.0313"/><text fill="#000000" font-family="sans-serif" font-size="20" lengthAdjust="spacing" textLength="82" x="1181" y="527.6367">Add User</text><polygon fill="#181818" points="1619,569.1875,1629,573.1875,1619,577.1875,1623,573.1875" style="stroke:#181818;stroke-width:1.0;"/><line style="stroke:#181818;stroke-width:1.0;" x1="1434" x2="1625" y1="573.1875" y2="573.1875"/><text fill="#000000" font-family="sans-serif" font-size="20" lengthAdjust="spacing" textLength="91" x="1441" y="566.793">Save User</text><polygon fill="#181818" points="1445,608.3438,1435,612.3438,1445,616.3438,1441,612.3438" style="stroke:#181818;stroke-width:1.0;"/><line style="stroke:#181818;stroke-width:1.0;stroke-dasharray:2.0,2.0;" x1="1439" x2="1635" y1="612.3438" y2="612.3438"/><text fill="#000000" font-family="sans-serif" font-size="20" lengthAdjust="spacing" textLength="102" x="1451" y="605.9492">User Saved</text><polygon fill="#181818" points="1185,647.5,1175,651.5,1185,655.5,1181,651.5" style="stroke:#181818;stroke-width:1.0;"/><line style="stroke:#181818;stroke-width:1.0;stroke-dasharray:2.0,2.0;" x1="1179" x2="1428" y1="651.5" y2="651.5"/><text fill="#000000" font-family="sans-serif" font-size="20" lengthAdjust="spacing" textLength="226" x="1191" y="645.1055">Confirmation: User Added</text><polygon fill="#181818" points="782,686.6563,772,690.6563,782,694.6563,778,690.6563" style="stroke:#181818;stroke-width:1.0;"/><line style="stroke:#181818;stroke-width:1.0;stroke-dasharray:2.0,2.0;" x1="776" x2="1163" y1="690.6563" y2="690.6563"/><text fill="#000000" font-family="sans-serif" font-size="20" lengthAdjust="spacing" textLength="226" x="788" y="684.2617">Confirmation: User Added</text><polygon fill="#181818" points="522,725.8125,512,729.8125,522,733.8125,518,729.8125" style="stroke:#181818;stroke-width:1.0;"/><line style="stroke:#181818;stroke-width:1.0;stroke-dasharray:2.0,2.0;" x1="516" x2="765" y1="729.8125" y2="729.8125"/><text fill="#000000" font-family="sans-serif" font-size="20" lengthAdjust="spacing" textLength="226" x="528" y="723.418">Confirmation: User Added</text><polygon fill="#181818" points="77,764.9688,67,768.9688,77,772.9688,73,768.9688" style="stroke:#181818;stroke-width:1.0;"/><line style="stroke:#181818;stroke-width:1.0;stroke-dasharray:2.0,2.0;" x1="71" x2="505" y1="768.9688" y2="768.9688"/><text fill="#000000" font-family="sans-serif" font-size="20" lengthAdjust="spacing" textLength="183" x="83" y="762.5742">Return to Main Menu</text><!--SRC=[ZLHDRzim3BthLn2z5oXwD8e0Rhi1FHGR4WGxipQJ2f4bJv8pTB- -bEn4jBkilPdIUu-F7t8uQDkZnywuva0jjBJ3mSJlpiQD_ajmUwCKDj5vgDjEMnsYnnHXW5enCUf6zsWZNDrZSt2xdMu8jazN2R1zWhkxtbCW6p5gPrUhEILBmZFP8UFJ1pEmxurkBX1Qs0RofmmSVveaunyn8lpIxPvY9gPu33-rE6Lyu8vuPmpvK-Poyd_JcVwC5lVKSHhOa3zobyOMyTqKiqWOlrYWPNyl66XYhwbtGNFVtp9h_Utd3uRxyoapqfJq4IFnN5GDrwlK_Whgfg4Gu4KEfq3vMp6CmRdt5MnUtHyeOod87AcCEaa_wj0RV8Ck7Re-bHwKQcdE6UNhItW1JsPgwOKCDH7E4nWfwfAdSHV64WA8JH6TIH1Eaf5C4LjGSOz_3nGY1BstGmzf0eLPa4e9baZxBxeeJWfC-KkbsQWW0gy9UMgbmEHTL2lshu87DAOKtL5yTUsiy8BE1WGvpLEiONMM4NjIxdbX19YvUHcvxNYa1IlTg7nz_I57jfauio8pOvvWMMkLNk9E-ow_jKc84NEXcU553nVLYnbULFumiQzuc2OsFv5Z66SvlOurnS5RY8v_5QVNjtnBCotr3W00]--></g></svg>